999
dxfrw 0.5.11
0
SECTION
2
HEADER
9
$ACADVER
1
AC1021
9
$HANDSEED
5
20000
9
$DWGCODEPAGE
3
ANSI_1252
9
$INSBASE
10
0
20
0
30
0
9
$EXTMIN
10
10000000000
20
10000000000
30
0
9
$EXTMAX
10
-10000000000
20
-10000000000
30
0
9
$LIMMIN
10
0
20
0
9
$LIMMAX
10
420
20
297
9
$ORTHOMODE
70
0
9
$LTSCALE
40
1
9
$TEXTSTYLE
7
STANDARD
9
$CLAYER
8
section_electric
9
$DIMASZ
40
48
9
$DIMLFAC
40
1
9
$DIMSCALE
40
1
9
$DIMEXO
40
50
9
$DIMEXE
40
16
9
$DIMTXT
40
48
9
$DIMTSZ
40
0
9
$DIMAUNIT
70
0
9
$DIMADEC
70
2
9
$DIMLUNIT
70
2
9
$DIMSTYLE
2
STANDARD
9
$DIMGAP
40
20
9
$DIMTIH
70
0
9
$LUNITS
70
2
9
$LUPREC
70
4
9
$AUNITS
70
0
9
$AUPREC
70
2
9
$SPLINESEGS
70
8
9
$GRIDMODE
70
1
9
$SNAPSTYLE
70
0
9
$GRIDUNIT
10
0
20
0
9
$PINSBASE
10
0
20
0
30
0
9
$PLIMMIN
10
0
20
0
9
$PLIMMAX
10
297
20
210
9
$INSUNITS
70
4
9
$PSVPSCALE
40
1
0
ENDSEC
0
SECTION
2
CLASSES
0
ENDSEC
0
SECTION
2
TABLES
0
TABLE
2
VPORT
5
8
330
0
100
AcDbSymbolTable
70
1
0
VPORT
5
31
330
2
100
AcDbSymbolTableRecord
100
AcDbViewportTableRecord
2
*ACTIVE
70
0
10
0
20
0
11
1
21
1
12
4379.30680791
22
2370.56493876
13
0
23
0
14
10
24
10
15
10
25
10
16
0
26
0
36
1
17
0
27
0
37
0
40
4857.57868152
41
2.66780821918
42
50
43
0
44
0
50
0
51
0
71
0
72
100
73
1
74
3
75
0
76
1
77
0
78
0
281
0
65
1
110
0
120
0
130
0
111
1
121
0
131
0
112
0
122
1
132
0
79
0
146
0
348
10020
60
7
61
5
292
1
282
1
141
0
142
0
63
250
421
3358443
0
ENDTAB
0
TABLE
2
LTYPE
5
5
330
0
100
AcDbSymbolTable
70
4
0
LTYPE
5
14
330
5
100
AcDbSymbolTableRecord
100
AcDbLinetypeTableRecord
2
ByBlock
70
0
3

72
65
73
0
40
0
0
LTYPE
5
15
330
5
100
AcDbSymbolTableRecord
100
AcDbLinetypeTableRecord
2
ByLayer
70
0
3

72
65
73
0
40
0
0
LTYPE
5
16
330
5
100
AcDbSymbolTableRecord
100
AcDbLinetypeTableRecord
2
Continuous
70
0
3
Solid line
72
65
73
0
40
0
0
LTYPE
5
32
330
5
100
AcDbSymbolTableRecord
100
AcDbLinetypeTableRecord
2
DOT
70
0
3
Dot . . . . . . . . . . . . . . . . . . . . . .
72
65
73
2
40
6.35
49
0
74
0
49
-6.35
74
0
0
LTYPE
5
33
330
5
100
AcDbSymbolTableRecord
100
AcDbLinetypeTableRecord
2
DOT2
70
0
3
Dot (.5x) .....................................
72
65
73
2
40
3.175
49
0
74
0
49
-3.175
74
0
0
LTYPE
5
34
330
5
100
AcDbSymbolTableRecord
100
AcDbLinetypeTableRecord
2
DOTX2
70
0
3
Dot (2x) .  .  .  .  .  .  .  .  .  .  .  .  .
72
65
73
2
40
12.7
49
0
74
0
49
-12.7
74
0
0
LTYPE
5
35
330
5
100
AcDbSymbolTableRecord
100
AcDbLinetypeTableRecord
2
DASHED
70
0
3
Dot . . . . . . . . . . . . . . . . . . . . . .
72
65
73
2
40
19.05
49
12.7
74
0
49
-6.35
74
0
0
LTYPE
5
36
330
5
100
AcDbSymbolTableRecord
100
AcDbLinetypeTableRecord
2
DASHED2
70
0
3
Dashed (.5x) _ _ _ _ _ _ _ _ _ _ _ _ _ _ _ _ _
72
65
73
2
40
9.525
49
6.35
74
0
49
-3.175
74
0
0
LTYPE
5
37
330
5
100
AcDbSymbolTableRecord
100
AcDbLinetypeTableRecord
2
DASHEDX2
70
0
3
Dashed (2x) ____  ____  ____  ____  ____  ___
72
65
73
2
40
38.1
49
25.4
74
0
49
-12.7
74
0
0
LTYPE
5
38
330
5
100
AcDbSymbolTableRecord
100
AcDbLinetypeTableRecord
2
DASHDOT
70
0
3
Dash dot __ . __ . __ . __ . __ . __ . __ . __
72
65
73
4
40
25.4
49
12.7
74
0
49
-6.35
74
0
49
0
74
0
49
-6.35
74
0
0
LTYPE
5
39
330
5
100
AcDbSymbolTableRecord
100
AcDbLinetypeTableRecord
2
DASHDOT2
70
0
3
Dash dot (.5x) _._._._._._._._._._._._._._._.
72
65
73
4
40
12.7
49
6.35
74
0
49
-3.175
74
0
49
0
74
0
49
-3.175
74
0
0
LTYPE
5
3A
330
5
100
AcDbSymbolTableRecord
100
AcDbLinetypeTableRecord
2
DASHDOTX2
70
0
3
Dash dot (2x) ____  .  ____  .  ____  .  ___
72
65
73
4
40
50.8
49
25.4
74
0
49
-12.7
74
0
49
0
74
0
49
-12.7
74
0
0
LTYPE
5
3B
330
5
100
AcDbSymbolTableRecord
100
AcDbLinetypeTableRecord
2
DIVIDE
70
0
3
Divide ____ . . ____ . . ____ . . ____ . . ____
72
65
73
6
40
31.75
49
12.7
74
0
49
-6.35
74
0
49
0
74
0
49
-6.35
74
0
49
0
74
0
49
-6.35
74
0
0
LTYPE
5
3C
330
5
100
AcDbSymbolTableRecord
100
AcDbLinetypeTableRecord
2
DIVIDE2
70
0
3
Divide (.5x) __..__..__..__..__..__..__..__.._
72
65
73
6
40
15.875
49
6.35
74
0
49
-3.175
74
0
49
0
74
0
49
-3.175
74
0
49
0
74
0
49
-3.175
74
0
0
LTYPE
5
3D
330
5
100
AcDbSymbolTableRecord
100
AcDbLinetypeTableRecord
2
DIVIDEX2
70
0
3
Divide (2x) ________  .  .  ________  .  .  _
72
65
73
6
40
63.5
49
25.4
74
0
49
-12.7
74
0
49
0
74
0
49
-12.7
74
0
49
0
74
0
49
-12.7
74
0
0
LTYPE
5
3E
330
5
100
AcDbSymbolTableRecord
100
AcDbLinetypeTableRecord
2
BORDER
70
0
3
Border __ __ . __ __ . __ __ . __ __ . __ __ .
72
65
73
6
40
44.45
49
12.7
74
0
49
-6.35
74
0
49
12.7
74
0
49
-6.35
74
0
49
0
74
0
49
-6.35
74
0
0
LTYPE
5
3F
330
5
100
AcDbSymbolTableRecord
100
AcDbLinetypeTableRecord
2
BORDER2
70
0
3
Border (.5x) __.__.__.__.__.__.__.__.__.__.__.
72
65
73
6
40
22.225
49
6.35
74
0
49
-3.175
74
0
49
6.35
74
0
49
-3.175
74
0
49
0
74
0
49
-3.175
74
0
0
LTYPE
5
40
330
5
100
AcDbSymbolTableRecord
100
AcDbLinetypeTableRecord
2
BORDERX2
70
0
3
Border (2x) ____  ____  .  ____  ____  .  ___
72
65
73
6
40
88.9
49
25.4
74
0
49
-12.7
74
0
49
25.4
74
0
49
-12.7
74
0
49
0
74
0
49
-12.7
74
0
0
LTYPE
5
41
330
5
100
AcDbSymbolTableRecord
100
AcDbLinetypeTableRecord
2
CENTER
70
0
3
Center ____ _ ____ _ ____ _ ____ _ ____ _ ____
72
65
73
4
40
50.8
49
31.75
74
0
49
-6.35
74
0
49
6.35
74
0
49
-6.35
74
0
0
LTYPE
5
42
330
5
100
AcDbSymbolTableRecord
100
AcDbLinetypeTableRecord
2
CENTER2
70
0
3
Center (.5x) ___ _ ___ _ ___ _ ___ _ ___ _ ___
72
65
73
4
40
28.575
49
19.05
74
0
49
-3.175
74
0
49
3.175
74
0
49
-3.175
74
0
0
LTYPE
5
43
330
5
100
AcDbSymbolTableRecord
100
AcDbLinetypeTableRecord
2
CENTERX2
70
0
3
Center (2x) ________  __  ________  __  _____
72
65
73
4
40
101.6
49
63.5
74
0
49
-12.7
74
0
49
12.7
74
0
49
-12.7
74
0
0
ENDTAB
0
TABLE
2
LAYER
5
2
330
0
100
AcDbSymbolTable
70
1
0
LAYER
5
10
330
2
100
AcDbSymbolTableRecord
100
AcDbLayerTableRecord
2
0
70
0
62
7
6
CONTINUOUS
370
0
390
F
0
LAYER
5
44
330
2
100
AcDbSymbolTableRecord
100
AcDbLayerTableRecord
2
Foundation
70
0
62
7
6
CONTINUOUS
370
35
390
F
0
LAYER
5
45
330
2
100
AcDbSymbolTableRecord
100
AcDbLayerTableRecord
2
section_1_1
70
0
62
7
6
CONTINUOUS
370
35
390
F
0
LAYER
5
46
330
2
100
AcDbSymbolTableRecord
100
AcDbLayerTableRecord
2
section_1_12
70
1
62
7
6
CONTINUOUS
370
0
390
F
0
LAYER
5
47
330
2
100
AcDbSymbolTableRecord
100
AcDbLayerTableRecord
2
section_1_1_d
70
0
62
4
6
CONTINUOUS
370
13
390
F
0
LAYER
5
48
330
2
100
AcDbSymbolTableRecord
100
AcDbLayerTableRecord
2
section_4_4
70
1
62
7
6
CONTINUOUS
370
35
390
F
0
LAYER
5
49
330
2
100
AcDbSymbolTableRecord
100
AcDbLayerTableRecord
2
section_4_4_d
70
1
62
4
6
CONTINUOUS
370
13
390
F
0
LAYER
5
4A
330
2
100
AcDbSymbolTableRecord
100
AcDbLayerTableRecord
2
section_electric
70
1
62
7
6
CONTINUOUS
370
35
390
F
0
LAYER
5
4B
330
2
100
AcDbSymbolTableRecord
100
AcDbLayerTableRecord
2
sideview
70
1
62
7
6
CONTINUOUS
370
35
390
F
0
LAYER
5
4C
330
2
100
AcDbSymbolTableRecord
100
AcDbLayerTableRecord
2
sideview_d
70
1
62
4
6
CONTINUOUS
370
13
390
F
0
ENDTAB
0
TABLE
2
STYLE
5
3
330
0
100
AcDbSymbolTable
70
3
0
STYLE
5
4D
330
2
100
AcDbSymbolTableRecord
100
AcDbTextStyleTableRecord
2
normal#0.500000#0.900000
70
0
40
0
41
1
50
0
71
0
42
1
3
normal#0.500000#0.900000
4

0
STYLE
5
4E
330
2
100
AcDbSymbolTableRecord
100
AcDbTextStyleTableRecord
2
standard
70
0
40
0
41
1
50
0
71
0
42
1
3
standard
4

0
STYLE
5
4F
330
2
100
AcDbSymbolTableRecord
100
AcDbTextStyleTableRecord
2
iso
70
0
40
0
41
1
50
0
71
0
42
1
3
iso
4

0
ENDTAB
0
TABLE
2
VIEW
5
6
330
0
100
AcDbSymbolTable
70
0
0
ENDTAB
0
TABLE
2
UCS
5
7
330
0
100
AcDbSymbolTable
70
0
0
ENDTAB
0
TABLE
2
APPID
5
9
330
0
100
AcDbSymbolTable
70
1
0
APPID
5
12
330
9
100
AcDbSymbolTableRecord
100
AcDbRegAppTableRecord
2
ACAD
70
0
0
ENDTAB
0
TABLE
2
DIMSTYLE
5
A
330
0
100
AcDbSymbolTable
70
1
100
AcDbDimStyleTable
71
1
0
DIMSTYLE
105
50
330
A
100
AcDbSymbolTableRecord
100
AcDbDimStyleTableRecord
2
Standard
70
0
40
1
41
48
42
50
43
0.38
44
16
45
0
46
0
47
0
48
0
140
48
141
0.09
142
0
143
25.4
144
1
145
0
146
1
147
20
148
0
71
0
72
0
73
0
74
1
75
0
76
0
77
0
78
0
79
0
170
0
171
2
172
0
173
0
174
0
175
0
176
0
177
0
178
0
179
0
271
4
272
4
273
2
274
2
275
0
276
0
277
2
278
46
279
0
280
0
281
0
282
0
283
1
284
0
285
0
286
0
288
0
289
3
340
Standard
341

371
-2
372
-2
0
ENDTAB
0
TABLE
2
BLOCK_RECORD
5
1
330
0
100
AcDbSymbolTable
70
2
0
BLOCK_RECORD
5
1F
330
1
100
AcDbSymbolTableRecord
100
AcDbBlockTableRecord
2
*Model_Space
70
0
280
1
281
0
0
BLOCK_RECORD
5
1E
330
1
100
AcDbSymbolTableRecord
100
AcDbBlockTableRecord
2
*Paper_Space
70
0
280
1
281
0
0
BLOCK_RECORD
5
51
330
1
100
AcDbSymbolTableRecord
100
AcDbBlockTableRecord
2
*D3
70
0
280
1
281
0
0
BLOCK_RECORD
5
54
330
1
100
AcDbSymbolTableRecord
100
AcDbBlockTableRecord
2
*D43
70
0
280
1
281
0
0
BLOCK_RECORD
5
57
330
1
100
AcDbSymbolTableRecord
100
AcDbBlockTableRecord
2
*D14
70
0
280
1
281
0
0
BLOCK_RECORD
5
5A
330
1
100
AcDbSymbolTableRecord
100
AcDbBlockTableRecord
2
*D29
70
0
280
1
281
0
0
BLOCK_RECORD
5
5D
330
1
100
AcDbSymbolTableRecord
100
AcDbBlockTableRecord
2
*D8
70
0
280
1
281
0
0
BLOCK_RECORD
5
60
330
1
100
AcDbSymbolTableRecord
100
AcDbBlockTableRecord
2
*D41
70
0
280
1
281
0
0
BLOCK_RECORD
5
63
330
1
100
AcDbSymbolTableRecord
100
AcDbBlockTableRecord
2
*D40
70
0
280
1
281
0
0
BLOCK_RECORD
5
66
330
1
100
AcDbSymbolTableRecord
100
AcDbBlockTableRecord
2
*D25
70
0
280
1
281
0
0
BLOCK_RECORD
5
69
330
1
100
AcDbSymbolTableRecord
100
AcDbBlockTableRecord
2
*D10
70
0
280
1
281
0
0
BLOCK_RECORD
5
6C
330
1
100
AcDbSymbolTableRecord
100
AcDbBlockTableRecord
2
*D2
70
0
280
1
281
0
0
BLOCK_RECORD
5
6F
330
1
100
AcDbSymbolTableRecord
100
AcDbBlockTableRecord
2
*D39
70
0
280
1
281
0
0
BLOCK_RECORD
5
72
330
1
100
AcDbSymbolTableRecord
100
AcDbBlockTableRecord
2
*D31
70
0
280
1
281
0
0
BLOCK_RECORD
5
75
330
1
100
AcDbSymbolTableRecord
100
AcDbBlockTableRecord
2
*D4
70
0
280
1
281
0
0
BLOCK_RECORD
5
78
330
1
100
AcDbSymbolTableRecord
100
AcDbBlockTableRecord
2
*D26
70
0
280
1
281
0
0
BLOCK_RECORD
5
7B
330
1
100
AcDbSymbolTableRecord
100
AcDbBlockTableRecord
2
*D30
70
0
280
1
281
0
0
BLOCK_RECORD
5
7E
330
1
100
AcDbSymbolTableRecord
100
AcDbBlockTableRecord
2
*D9
70
0
280
1
281
0
0
BLOCK_RECORD
5
81
330
1
100
AcDbSymbolTableRecord
100
AcDbBlockTableRecord
2
*D11
70
0
280
1
281
0
0
BLOCK_RECORD
5
84
330
1
100
AcDbSymbolTableRecord
100
AcDbBlockTableRecord
2
*D32
70
0
280
1
281
0
0
BLOCK_RECORD
5
87
330
1
100
AcDbSymbolTableRecord
100
AcDbBlockTableRecord
2
*D33
70
0
280
1
281
0
0
BLOCK_RECORD
5
8A
330
1
100
AcDbSymbolTableRecord
100
AcDbBlockTableRecord
2
*D34
70
0
280
1
281
0
0
BLOCK_RECORD
5
8D
330
1
100
AcDbSymbolTableRecord
100
AcDbBlockTableRecord
2
*D19
70
0
280
1
281
0
0
BLOCK_RECORD
5
90
330
1
100
AcDbSymbolTableRecord
100
AcDbBlockTableRecord
2
*D47
70
0
280
1
281
0
0
BLOCK_RECORD
5
93
330
1
100
AcDbSymbolTableRecord
100
AcDbBlockTableRecord
2
*D49
70
0
280
1
281
0
0
BLOCK_RECORD
5
96
330
1
100
AcDbSymbolTableRecord
100
AcDbBlockTableRecord
2
*D23
70
0
280
1
281
0
0
BLOCK_RECORD
5
99
330
1
100
AcDbSymbolTableRecord
100
AcDbBlockTableRecord
2
*D44
70
0
280
1
281
0
0
BLOCK_RECORD
5
9C
330
1
100
AcDbSymbolTableRecord
100
AcDbBlockTableRecord
2
*D45
70
0
280
1
281
0
0
BLOCK_RECORD
5
9F
330
1
100
AcDbSymbolTableRecord
100
AcDbBlockTableRecord
2
*D48
70
0
280
1
281
0
0
BLOCK_RECORD
5
A2
330
1
100
AcDbSymbolTableRecord
100
AcDbBlockTableRecord
2
*D12
70
0
280
1
281
0
0
BLOCK_RECORD
5
A5
330
1
100
AcDbSymbolTableRecord
100
AcDbBlockTableRecord
2
*D27
70
0
280
1
281
0
0
BLOCK_RECORD
5
A8
330
1
100
AcDbSymbolTableRecord
100
AcDbBlockTableRecord
2
*D17
70
0
280
1
281
0
0
BLOCK_RECORD
5
AB
330
1
100
AcDbSymbolTableRecord
100
AcDbBlockTableRecord
2
*D7
70
0
280
1
281
0
0
BLOCK_RECORD
5
AE
330
1
100
AcDbSymbolTableRecord
100
AcDbBlockTableRecord
2
*D42
70
0
280
1
281
0
0
BLOCK_RECORD
5
B1
330
1
100
AcDbSymbolTableRecord
100
AcDbBlockTableRecord
2
*D15
70
0
280
1
281
0
0
BLOCK_RECORD
5
B4
330
1
100
AcDbSymbolTableRecord
100
AcDbBlockTableRecord
2
*D22
70
0
280
1
281
0
0
BLOCK_RECORD
5
B7
330
1
100
AcDbSymbolTableRecord
100
AcDbBlockTableRecord
2
*D37
70
0
280
1
281
0
0
BLOCK_RECORD
5
BA
330
1
100
AcDbSymbolTableRecord
100
AcDbBlockTableRecord
2
*D16
70
0
280
1
281
0
0
BLOCK_RECORD
5
BD
330
1
100
AcDbSymbolTableRecord
100
AcDbBlockTableRecord
2
*D24
70
0
280
1
281
0
0
BLOCK_RECORD
5
C0
330
1
100
AcDbSymbolTableRecord
100
AcDbBlockTableRecord
2
*D38
70
0
280
1
281
0
0
BLOCK_RECORD
5
C3
330
1
100
AcDbSymbolTableRecord
100
AcDbBlockTableRecord
2
*D50
70
0
280
1
281
0
0
BLOCK_RECORD
5
C6
330
1
100
AcDbSymbolTableRecord
100
AcDbBlockTableRecord
2
*D18
70
0
280
1
281
0
0
BLOCK_RECORD
5
C9
330
1
100
AcDbSymbolTableRecord
100
AcDbBlockTableRecord
2
*D35
70
0
280
1
281
0
0
BLOCK_RECORD
5
CC
330
1
100
AcDbSymbolTableRecord
100
AcDbBlockTableRecord
2
*D28
70
0
280
1
281
0
0
BLOCK_RECORD
5
CF
330
1
100
AcDbSymbolTableRecord
100
AcDbBlockTableRecord
2
*D36
70
0
280
1
281
0
0
BLOCK_RECORD
5
D2
330
1
100
AcDbSymbolTableRecord
100
AcDbBlockTableRecord
2
*D1
70
0
280
1
281
0
0
BLOCK_RECORD
5
D5
330
1
100
AcDbSymbolTableRecord
100
AcDbBlockTableRecord
2
*D5
70
0
280
1
281
0
0
BLOCK_RECORD
5
D8
330
1
100
AcDbSymbolTableRecord
100
AcDbBlockTableRecord
2
*D6
70
0
280
1
281
0
0
BLOCK_RECORD
5
DB
330
1
100
AcDbSymbolTableRecord
100
AcDbBlockTableRecord
2
*D46
70
0
280
1
281
0
0
BLOCK_RECORD
5
DE
330
1
100
AcDbSymbolTableRecord
100
AcDbBlockTableRecord
2
*D21
70
0
280
1
281
0
0
BLOCK_RECORD
5
E1
330
1
100
AcDbSymbolTableRecord
100
AcDbBlockTableRecord
2
*D20
70
0
280
1
281
0
0
BLOCK_RECORD
5
E4
330
1
100
AcDbSymbolTableRecord
100
AcDbBlockTableRecord
2
*D13
70
0
280
1
281
0
0
BLOCK_RECORD
5
E7
330
1
100
AcDbSymbolTableRecord
100
AcDbBlockTableRecord
2
a3-0
70
0
280
1
281
0
0
BLOCK_RECORD
5
EA
330
1
100
AcDbSymbolTableRecord
100
AcDbBlockTableRecord
2
A3_Xu-0
70
0
280
1
281
0
0
ENDTAB
0
ENDSEC
0
SECTION
2
BLOCKS
0
BLOCK
5
20
330
1F
100
AcDbEntity
8
0
100
AcDbBlockBegin
2
*Model_Space
70
0
10
0
20
0
30
0
3
*Model_Space
1

0
ENDBLK
5
21
330
1F
100
AcDbEntity
8
0
100
AcDbBlockEnd
0
BLOCK
5
1C
330
1B
100
AcDbEntity
8
0
100
AcDbBlockBegin
2
*Paper_Space
70
0
10
0
20
0
30
0
3
*Paper_Space
1

0
ENDBLK
5
1D
330
1F
100
AcDbEntity
8
0
100
AcDbBlockEnd
0
BLOCK
5
52
330
51
100
AcDbEntity
8
0
100
AcDbBlockBegin
2
*D3
70
1
10
0
20
0
3
*D3
1

0
LINE
5
ED
100
AcDbEntity
8
section_1_1_d
6
CONTINUOUS
62
7
370
0
100
AcDbLine
10
843.682792195
20
4100
11
3817.3683702
21
4100
0
SOLID
5
EE
100
AcDbEntity
8
section_1_1_d
6
CONTINUOUS
62
7
370
0
100
AcDbTrace
10
843.682792195
20
4100
30
0
11
891.682792195
21
4107.99266543
31
0
12
891.682792195
22
4092.00733457
32
0
13
891.682792195
23
4092.00733457
33
0
0
SOLID
5
EF
100
AcDbEntity
8
section_1_1_d
6
CONTINUOUS
62
7
370
0
100
AcDbTrace
10
3817.3683702
20
4100
30
0
11
3769.3683702
21
4092.00733457
31
0
12
3769.3683702
22
4107.99266543
32
0
13
3769.3683702
23
4107.99266543
33
0
0
MTEXT
5
F0
100
AcDbEntity
8
section_1_1_d
6
CONTINUOUS
62
7
370
0
100
AcDbMText
10
2330.5255812
20
4144
30
0
40
48
41
133.333333333
71
5
72
1
1
2975
7
standard
210
0
220
0
230
1
50
0
73
2
44
1
0
LINE
5
F1
100
AcDbEntity
8
section_1_1_d
6
CONTINUOUS
62
7
370
0
100
AcDbLine
10
843.682792195
20
4095.13726717
11
843.682792195
21
4116
0
LINE
5
F2
100
AcDbEntity
8
section_1_1_d
6
CONTINUOUS
62
7
370
0
100
AcDbLine
10
3817.3683702
20
4088.98964215
11
3817.3683702
21
4116
0
ENDBLK
5
53
330
51
100
AcDbEntity
8
0
100
AcDbBlockEnd
0
BLOCK
5
55
330
54
100
AcDbEntity
8
0
100
AcDbBlockBegin
2
*D43
70
1
10
0
20
0
3
*D43
1

0
LINE
5
F3
100
AcDbEntity
8
section_4_4_d
6
CONTINUOUS
62
7
370
0
100
AcDbLine
10
2974.5
20
700
11
3412.5
21
700
0
SOLID
5
F4
100
AcDbEntity
8
section_4_4_d
6
CONTINUOUS
62
7
370
0
100
AcDbTrace
10
2974.5
20
700
30
0
11
3022.5
21
707.992665429
31
0
12
3022.5
22
692.007334571
32
0
13
3022.5
23
692.007334571
33
0
0
SOLID
5
F5
100
AcDbEntity
8
section_4_4_d
6
CONTINUOUS
62
7
370
0
100
AcDbTrace
10
3412.5
20
700
30
0
11
3364.5
21
692.007334571
31
0
12
3364.5
22
707.992665429
32
0
13
3364.5
23
707.992665429
33
0
0
MTEXT
5
F6
100
AcDbEntity
8
section_4_4_d
6
CONTINUOUS
62
7
370
0
100
AcDbMText
10
3193.5
20
744
30
0
40
48
41
101.333333333
71
5
72
1
1
438
7
standard
210
0
220
0
230
1
50
0
73
2
44
1
0
LINE
5
F7
100
AcDbEntity
8
section_4_4_d
6
CONTINUOUS
62
7
370
0
100
AcDbLine
10
2974.5
20
678.825799235
11
2974.5
21
684
0
LINE
5
F8
100
AcDbEntity
8
section_4_4_d
6
CONTINUOUS
62
7
370
0
100
AcDbLine
10
3412.5
20
674.354475313
11
3412.5
21
684
0
ENDBLK
5
56
330
54
100
AcDbEntity
8
0
100
AcDbBlockEnd
0
BLOCK
5
58
330
57
100
AcDbEntity
8
0
100
AcDbBlockBegin
2
*D14
70
1
10
0
20
0
3
*D14
1

0
LINE
5
F9
100
AcDbEntity
8
section_4_4_d
6
CONTINUOUS
62
7
370
0
100
AcDbLine
10
4100
20
1099
11
4100
21
830
0
SOLID
5
FA
100
AcDbEntity
8
section_4_4_d
6
CONTINUOUS
62
7
370
0
100
AcDbTrace
10
4100
20
1099
30
0
11
4107.99266543
21
1051
31
0
12
4092.00733457
22
1051
32
0
13
4092.00733457
23
1051
33
0
0
SOLID
5
FB
100
AcDbEntity
8
section_4_4_d
6
CONTINUOUS
62
7
370
0
100
AcDbTrace
10
4100
20
830
30
0
11
4092.00733457
21
878
31
0
12
4107.99266543
22
878
32
0
13
4107.99266543
23
878
33
0
0
MTEXT
5
FC
100
AcDbEntity
8
section_4_4_d
6
CONTINUOUS
62
7
370
0
100
AcDbMText
10
4056
20
964.5
30
0
40
48
41
96
71
5
72
1
1
270
7
standard
210
0
220
0
230
1
50
90
73
2
44
1
0
LINE
5
FD
100
AcDbEntity
8
section_4_4_d
6
CONTINUOUS
62
7
370
0
100
AcDbLine
10
4087.76011714
20
1099
11
4116
21
1099
0
LINE
5
FE
100
AcDbEntity
8
section_4_4_d
6
CONTINUOUS
62
7
370
0
100
AcDbLine
10
4077.9239171
20
830
11
4116
21
830
0
ENDBLK
5
59
330
57
100
AcDbEntity
8
0
100
AcDbBlockEnd
0
BLOCK
5
5B
330
5A
100
AcDbEntity
8
0
100
AcDbBlockBegin
2
*D29
70
1
10
0
20
0
3
*D29
1

0
LINE
5
FF
100
AcDbEntity
8
section_1_1_d
6
CONTINUOUS
62
7
370
0
100
AcDbLine
10
1744.5
20
4000
11
2359.5
21
4000
0
SOLID
5
100
100
AcDbEntity
8
section_1_1_d
6
CONTINUOUS
62
7
370
0
100
AcDbTrace
10
1744.5
20
4000
30
0
11
1792.5
21
4007.99266543
31
0
12
1792.5
22
3992.00733457
32
0
13
1792.5
23
3992.00733457
33
0
0
SOLID
5
101
100
AcDbEntity
8
section_1_1_d
6
CONTINUOUS
62
7
370
0
100
AcDbTrace
10
2359.5
20
4000
30
0
11
2311.5
21
3992.00733457
31
0
12
2311.5
22
4007.99266543
32
0
13
2311.5
23
4007.99266543
33
0
0
MTEXT
5
102
100
AcDbEntity
8
section_1_1_d
6
CONTINUOUS
62
7
370
0
100
AcDbMText
10
2052
20
4044
30
0
40
48
41
85.3333333333
71
5
72
1
1
615
7
standard
210
0
220
0
230
1
50
0
73
2
44
1
0
LINE
5
103
100
AcDbEntity
8
section_1_1_d
6
CONTINUOUS
62
7
370
0
100
AcDbLine
10
1744.5
20
4013.38152418
11
1744.5
21
4016
0
LINE
5
104
100
AcDbEntity
8
section_1_1_d
6
CONTINUOUS
62
7
370
0
100
AcDbLine
10
2359.5
20
4013.38152418
11
2359.5
21
4016
0
ENDBLK
5
5C
330
5A
100
AcDbEntity
8
0
100
AcDbBlockEnd
0
BLOCK
5
5E
330
5D
100
AcDbEntity
8
0
100
AcDbBlockBegin
2
*D8
70
1
10
0
20
0
3
*D8
1

0
LINE
5
105
100
AcDbEntity
8
section_1_1_d
6
CONTINUOUS
62
7
370
0
100
AcDbLine
10
300
20
3464
11
300
21
1099
0
SOLID
5
106
100
AcDbEntity
8
section_1_1_d
6
CONTINUOUS
62
7
370
0
100
AcDbTrace
10
300
20
3464
30
0
11
307.992665429
21
3416
31
0
12
292.007334571
22
3416
32
0
13
292.007334571
23
3416
33
0
0
SOLID
5
107
100
AcDbEntity
8
section_1_1_d
6
CONTINUOUS
62
7
370
0
100
AcDbTrace
10
300
20
1099
30
0
11
292.007334571
21
1147
31
0
12
307.992665429
22
1147
32
0
13
307.992665429
23
1147
33
0
0
MTEXT
5
108
100
AcDbEntity
8
section_1_1_d
6
CONTINUOUS
62
7
370
0
100
AcDbMText
10
256
20
2281.5
30
0
40
48
41
133.333333333
71
5
72
1
1
2365
7
standard
210
0
220
0
230
1
50
90
73
2
44
1
0
LINE
5
109
100
AcDbEntity
8
section_1_1_d
6
CONTINUOUS
62
7
370
0
100
AcDbLine
10
314.347876122
20
3464
11
316
21
3464
0
LINE
5
10A
100
AcDbEntity
8
section_1_1_d
6
CONTINUOUS
62
7
370
0
100
AcDbLine
10
320.495501148
20
1099
11
316
21
1099
0
ENDBLK
5
5F
330
5D
100
AcDbEntity
8
0
100
AcDbBlockEnd
0
BLOCK
5
61
330
60
100
AcDbEntity
8
0
100
AcDbBlockBegin
2
*D41
70
1
10
0
20
0
3
*D41
1

0
LINE
5
10B
100
AcDbEntity
8
section_4_4_d
6
CONTINUOUS
62
7
370
0
100
AcDbLine
10
1744.5
20
700
11
2359.5
21
700
0
SOLID
5
10C
100
AcDbEntity
8
section_4_4_d
6
CONTINUOUS
62
7
370
0
100
AcDbTrace
10
1744.5
20
700
30
0
11
1792.5
21
707.992665429
31
0
12
1792.5
22
692.007334571
32
0
13
1792.5
23
692.007334571
33
0
0
SOLID
5
10D
100
AcDbEntity
8
section_4_4_d
6
CONTINUOUS
62
7
370
0
100
AcDbTrace
10
2359.5
20
700
30
0
11
2311.5
21
692.007334571
31
0
12
2311.5
22
707.992665429
32
0
13
2311.5
23
707.992665429
33
0
0
MTEXT
5
10E
100
AcDbEntity
8
section_4_4_d
6
CONTINUOUS
62
7
370
0
100
AcDbMText
10
2052
20
744
30
0
40
48
41
85.3333333333
71
5
72
1
1
615
7
standard
210
0
220
0
230
1
50
0
73
2
44
1
0
LINE
5
10F
100
AcDbEntity
8
section_4_4_d
6
CONTINUOUS
62
7
370
0
100
AcDbLine
10
1744.5
20
683.297123156
11
1744.5
21
684
0
LINE
5
110
100
AcDbEntity
8
section_4_4_d
6
CONTINUOUS
62
7
370
0
100
AcDbLine
10
2359.5
20
674.354475313
11
2359.5
21
684
0
ENDBLK
5
62
330
60
100
AcDbEntity
8
0
100
AcDbBlockEnd
0
BLOCK
5
64
330
63
100
AcDbEntity
8
0
100
AcDbBlockBegin
2
*D40
70
1
10
0
20
0
3
*D40
1

0
LINE
5
111
100
AcDbEntity
8
section_4_4_d
6
CONTINUOUS
62
7
370
0
100
AcDbLine
10
1307.5
20
700
11
1744.5
21
700
0
SOLID
5
112
100
AcDbEntity
8
section_4_4_d
6
CONTINUOUS
62
7
370
0
100
AcDbTrace
10
1307.5
20
700
30
0
11
1355.5
21
707.992665429
31
0
12
1355.5
22
692.007334571
32
0
13
1355.5
23
692.007334571
33
0
0
SOLID
5
113
100
AcDbEntity
8
section_4_4_d
6
CONTINUOUS
62
7
370
0
100
AcDbTrace
10
1744.5
20
700
30
0
11
1696.5
21
692.007334571
31
0
12
1696.5
22
707.992665429
32
0
13
1696.5
23
707.992665429
33
0
0
MTEXT
5
114
100
AcDbEntity
8
section_4_4_d
6
CONTINUOUS
62
7
370
0
100
AcDbMText
10
1526
20
744
30
0
40
48
41
101.333333333
71
5
72
1
1
437
7
standard
210
0
220
0
230
1
50
0
73
2
44
1
0
LINE
5
115
100
AcDbEntity
8
section_4_4_d
6
CONTINUOUS
62
7
370
0
100
AcDbLine
10
1307.5
20
683.297123156
11
1307.5
21
684
0
LINE
5
116
100
AcDbEntity
8
section_4_4_d
6
CONTINUOUS
62
7
370
0
100
AcDbLine
10
1744.5
20
683.297123156
11
1744.5
21
684
0
ENDBLK
5
65
330
63
100
AcDbEntity
8
0
100
AcDbBlockEnd
0
BLOCK
5
67
330
66
100
AcDbEntity
8
0
100
AcDbBlockBegin
2
*D25
70
1
10
0
20
0
3
*D25
1

0
LINE
5
117
100
AcDbEntity
8
section_1_1_d
6
CONTINUOUS
62
7
370
0
100
AcDbLine
10
1762
20
2500
11
2342
21
2500
0
SOLID
5
118
100
AcDbEntity
8
section_1_1_d
6
CONTINUOUS
62
7
370
0
100
AcDbTrace
10
1762
20
2500
30
0
11
1810
21
2507.99266543
31
0
12
1810
22
2492.00733457
32
0
13
1810
23
2492.00733457
33
0
0
SOLID
5
119
100
AcDbEntity
8
section_1_1_d
6
CONTINUOUS
62
7
370
0
100
AcDbTrace
10
2342
20
2500
30
0
11
2294
21
2492.00733457
31
0
12
2294
22
2507.99266543
32
0
13
2294
23
2507.99266543
33
0
0
MTEXT
5
11A
100
AcDbEntity
8
section_1_1_d
6
CONTINUOUS
62
7
370
0
100
AcDbMText
10
2052
20
2544
30
0
40
48
41
96
71
5
72
1
1
580
7
standard
210
0
220
0
230
1
50
0
73
2
44
1
0
LINE
5
11B
100
AcDbEntity
8
section_1_1_d
6
CONTINUOUS
62
7
370
0
100
AcDbLine
10
1762
20
2500.44316493
11
1762
21
2484
0
LINE
5
11C
100
AcDbEntity
8
section_1_1_d
6
CONTINUOUS
62
7
370
0
100
AcDbLine
10
2342
20
2500.44316493
11
2342
21
2484
0
ENDBLK
5
68
330
66
100
AcDbEntity
8
0
100
AcDbBlockEnd
0
BLOCK
5
6A
330
69
100
AcDbEntity
8
0
100
AcDbBlockBegin
2
*D10
70
1
10
0
20
0
3
*D10
1

0
LINE
5
11D
100
AcDbEntity
8
section_4_4_d
6
CONTINUOUS
62
7
370
0
100
AcDbLine
10
1200
20
500
11
3520
21
500
0
SOLID
5
11E
100
AcDbEntity
8
section_4_4_d
6
CONTINUOUS
62
7
370
0
100
AcDbTrace
10
1200
20
500
30
0
11
1248
21
507.992665429
31
0
12
1248
22
492.007334571
32
0
13
1248
23
492.007334571
33
0
0
SOLID
5
11F
100
AcDbEntity
8
section_4_4_d
6
CONTINUOUS
62
7
370
0
100
AcDbTrace
10
3520
20
500
30
0
11
3472
21
492.007334571
31
0
12
3472
22
507.992665429
32
0
13
3472
23
507.992665429
33
0
0
MTEXT
5
120
100
AcDbEntity
8
section_4_4_d
6
CONTINUOUS
62
7
370
0
100
AcDbMText
10
2360
20
544
30
0
40
48
41
133.333333333
71
5
72
1
1
2320
7
standard
210
0
220
0
230
1
50
0
73
2
44
1
0
LINE
5
121
100
AcDbEntity
8
section_4_4_d
6
CONTINUOUS
62
7
370
0
100
AcDbLine
10
1200
20
498.617263714
11
1200
21
484
0
LINE
5
122
100
AcDbEntity
8
section_4_4_d
6
CONTINUOUS
62
7
370
0
100
AcDbLine
10
3520
20
486.861179491
11
3520
21
484
0
ENDBLK
5
6B
330
69
100
AcDbEntity
8
0
100
AcDbBlockEnd
0
BLOCK
5
6D
330
6C
100
AcDbEntity
8
0
100
AcDbBlockBegin
2
*D2
70
1
10
0
20
0
3
*D2
1

0
LINE
5
123
100
AcDbEntity
8
section_1_1_d
6
CONTINUOUS
62
7
370
0
100
AcDbLine
10
1200
20
500
11
3520
21
500
0
SOLID
5
124
100
AcDbEntity
8
section_1_1_d
6
CONTINUOUS
62
7
370
0
100
AcDbTrace
10
1200
20
500
30
0
11
1248
21
507.992665429
31
0
12
1248
22
492.007334571
32
0
13
1248
23
492.007334571
33
0
0
SOLID
5
125
100
AcDbEntity
8
section_1_1_d
6
CONTINUOUS
62
7
370
0
100
AcDbTrace
10
3520
20
500
30
0
11
3472
21
492.007334571
31
0
12
3472
22
507.992665429
32
0
13
3472
23
507.992665429
33
0
0
MTEXT
5
126
100
AcDbEntity
8
section_1_1_d
6
CONTINUOUS
62
7
370
0
100
AcDbMText
10
2360
20
544
30
0
40
48
41
133.333333333
71
5
72
1
1
2320
7
standard
210
0
220
0
230
1
50
0
73
2
44
1
0
LINE
5
127
100
AcDbEntity
8
section_1_1_d
6
CONTINUOUS
62
7
370
0
100
AcDbLine
10
1200
20
498.617263714
11
1200
21
484
0
LINE
5
128
100
AcDbEntity
8
section_1_1_d
6
CONTINUOUS
62
7
370
0
100
AcDbLine
10
3520
20
486.861179491
11
3520
21
484
0
ENDBLK
5
6E
330
6C
100
AcDbEntity
8
0
100
AcDbBlockEnd
0
BLOCK
5
70
330
6F
100
AcDbEntity
8
0
100
AcDbBlockBegin
2
*D39
70
1
10
0
20
0
3
*D39
1

0
LINE
5
129
100
AcDbEntity
8
section_4_4_d
6
CONTINUOUS
62
7
370
0
100
AcDbLine
10
2974.5
20
4000
11
3412.5
21
4000
0
SOLID
5
12A
100
AcDbEntity
8
section_4_4_d
6
CONTINUOUS
62
7
370
0
100
AcDbTrace
10
2974.5
20
4000
30
0
11
3022.5
21
4007.99266543
31
0
12
3022.5
22
3992.00733457
32
0
13
3022.5
23
3992.00733457
33
0
0
SOLID
5
12B
100
AcDbEntity
8
section_4_4_d
6
CONTINUOUS
62
7
370
0
100
AcDbTrace
10
3412.5
20
4000
30
0
11
3364.5
21
3992.00733457
31
0
12
3364.5
22
4007.99266543
32
0
13
3364.5
23
4007.99266543
33
0
0
MTEXT
5
12C
100
AcDbEntity
8
section_4_4_d
6
CONTINUOUS
62
7
370
0
100
AcDbMText
10
3193.5
20
4044
30
0
40
48
41
101.333333333
71
5
72
1
1
438
7
standard
210
0
220
0
230
1
50
0
73
2
44
1
0
LINE
5
12D
100
AcDbEntity
8
section_4_4_d
6
CONTINUOUS
62
7
370
0
100
AcDbLine
10
2974.5
20
4002.65034677
11
2974.5
21
4016
0
LINE
5
12E
100
AcDbEntity
8
section_4_4_d
6
CONTINUOUS
62
7
370
0
100
AcDbLine
10
3412.5
20
3993.70769893
11
3412.5
21
4016
0
ENDBLK
5
71
330
6F
100
AcDbEntity
8
0
100
AcDbBlockEnd
0
BLOCK
5
73
330
72
100
AcDbEntity
8
0
100
AcDbBlockBegin
2
*D31
70
1
10
0
20
0
3
*D31
1

0
LINE
5
12F
100
AcDbEntity
8
section_1_1_d
6
CONTINUOUS
62
7
370
0
100
AcDbLine
10
2974.5
20
4000
11
3412.5
21
4000
0
SOLID
5
130
100
AcDbEntity
8
section_1_1_d
6
CONTINUOUS
62
7
370
0
100
AcDbTrace
10
2974.5
20
4000
30
0
11
3022.5
21
4007.99266543
31
0
12
3022.5
22
3992.00733457
32
0
13
3022.5
23
3992.00733457
33
0
0
SOLID
5
131
100
AcDbEntity
8
section_1_1_d
6
CONTINUOUS
62
7
370
0
100
AcDbTrace
10
3412.5
20
4000
30
0
11
3364.5
21
3992.00733457
31
0
12
3364.5
22
4007.99266543
32
0
13
3364.5
23
4007.99266543
33
0
0
MTEXT
5
132
100
AcDbEntity
8
section_1_1_d
6
CONTINUOUS
62
7
370
0
100
AcDbMText
10
3193.5
20
4044
30
0
40
48
41
101.333333333
71
5
72
1
1
438
7
standard
210
0
220
0
230
1
50
0
73
2
44
1
0
LINE
5
133
100
AcDbEntity
8
section_1_1_d
6
CONTINUOUS
62
7
370
0
100
AcDbLine
10
2974.5
20
4013.38152418
11
2974.5
21
4016
0
LINE
5
134
100
AcDbEntity
8
section_1_1_d
6
CONTINUOUS
62
7
370
0
100
AcDbLine
10
3412.5
20
4013.38152418
11
3412.5
21
4016
0
ENDBLK
5
74
330
72
100
AcDbEntity
8
0
100
AcDbBlockEnd
0
BLOCK
5
76
330
75
100
AcDbEntity
8
0
100
AcDbBlockBegin
2
*D4
70
1
10
0
20
0
3
*D4
1

0
LINE
5
135
100
AcDbEntity
8
section_1_1_d
6
CONTINUOUS
62
7
370
0
100
AcDbLine
10
4100
20
3764
11
4100
21
3464
0
SOLID
5
136
100
AcDbEntity
8
section_1_1_d
6
CONTINUOUS
62
7
370
0
100
AcDbTrace
10
4100
20
3764
30
0
11
4107.99266543
21
3716
31
0
12
4092.00733457
22
3716
32
0
13
4092.00733457
23
3716
33
0
0
SOLID
5
137
100
AcDbEntity
8
section_1_1_d
6
CONTINUOUS
62
7
370
0
100
AcDbTrace
10
4100
20
3464
30
0
11
4092.00733457
21
3512
31
0
12
4107.99266543
22
3512
32
0
13
4107.99266543
23
3512
33
0
0
MTEXT
5
138
100
AcDbEntity
8
section_1_1_d
6
CONTINUOUS
62
7
370
0
100
AcDbMText
10
4056
20
3614
30
0
40
48
41
96
71
5
72
1
1
300
7
standard
210
0
220
0
230
1
50
90
73
2
44
1
0
LINE
5
139
100
AcDbEntity
8
section_1_1_d
6
CONTINUOUS
62
7
370
0
100
AcDbLine
10
4077.9239171
20
3764
11
4116
21
3764
0
LINE
5
13A
100
AcDbEntity
8
section_1_1_d
6
CONTINUOUS
62
7
370
0
100
AcDbLine
10
4082.84201712
20
3464
11
4116
21
3464
0
ENDBLK
5
77
330
75
100
AcDbEntity
8
0
100
AcDbBlockEnd
0
BLOCK
5
79
330
78
100
AcDbEntity
8
0
100
AcDbBlockBegin
2
*D26
70
1
10
0
20
0
3
*D26
1

0
LINE
5
13B
100
AcDbEntity
8
section_1_1_d
6
CONTINUOUS
62
7
370
0
100
AcDbLine
10
2377
20
2500
11
2957
21
2500
0
SOLID
5
13C
100
AcDbEntity
8
section_1_1_d
6
CONTINUOUS
62
7
370
0
100
AcDbTrace
10
2377
20
2500
30
0
11
2425
21
2507.99266543
31
0
12
2425
22
2492.00733457
32
0
13
2425
23
2492.00733457
33
0
0
SOLID
5
13D
100
AcDbEntity
8
section_1_1_d
6
CONTINUOUS
62
7
370
0
100
AcDbTrace
10
2957
20
2500
30
0
11
2909
21
2492.00733457
31
0
12
2909
22
2507.99266543
32
0
13
2909
23
2507.99266543
33
0
0
MTEXT
5
13E
100
AcDbEntity
8
section_1_1_d
6
CONTINUOUS
62
7
370
0
100
AcDbMText
10
2667
20
2544
30
0
40
48
41
96
71
5
72
1
1
580
7
standard
210
0
220
0
230
1
50
0
73
2
44
1
0
LINE
5
13F
100
AcDbEntity
8
section_1_1_d
6
CONTINUOUS
62
7
370
0
100
AcDbLine
10
2377
20
2500.44316493
11
2377
21
2484
0
LINE
5
140
100
AcDbEntity
8
section_1_1_d
6
CONTINUOUS
62
7
370
0
100
AcDbLine
10
2957
20
2500.44316493
11
2957
21
2484
0
ENDBLK
5
7A
330
78
100
AcDbEntity
8
0
100
AcDbBlockEnd
0
BLOCK
5
7C
330
7B
100
AcDbEntity
8
0
100
AcDbBlockBegin
2
*D30
70
1
10
0
20
0
3
*D30
1

0
LINE
5
141
100
AcDbEntity
8
section_1_1_d
6
CONTINUOUS
62
7
370
0
100
AcDbLine
10
2359.5
20
4000
11
2974.5
21
4000
0
SOLID
5
142
100
AcDbEntity
8
section_1_1_d
6
CONTINUOUS
62
7
370
0
100
AcDbTrace
10
2359.5
20
4000
30
0
11
2407.5
21
4007.99266543
31
0
12
2407.5
22
3992.00733457
32
0
13
2407.5
23
3992.00733457
33
0
0
SOLID
5
143
100
AcDbEntity
8
section_1_1_d
6
CONTINUOUS
62
7
370
0
100
AcDbTrace
10
2974.5
20
4000
30
0
11
2926.5
21
3992.00733457
31
0
12
2926.5
22
4007.99266543
32
0
13
2926.5
23
4007.99266543
33
0
0
MTEXT
5
144
100
AcDbEntity
8
section_1_1_d
6
CONTINUOUS
62
7
370
0
100
AcDbMText
10
2667
20
4044
30
0
40
48
41
85.3333333333
71
5
72
1
1
615
7
standard
210
0
220
0
230
1
50
0
73
2
44
1
0
LINE
5
145
100
AcDbEntity
8
section_1_1_d
6
CONTINUOUS
62
7
370
0
100
AcDbLine
10
2359.5
20
4009.80446504
11
2359.5
21
4016
0
LINE
5
146
100
AcDbEntity
8
section_1_1_d
6
CONTINUOUS
62
7
370
0
100
AcDbLine
10
2974.5
20
4009.80446504
11
2974.5
21
4016
0
ENDBLK
5
7D
330
7B
100
AcDbEntity
8
0
100
AcDbBlockEnd
0
BLOCK
5
7F
330
7E
100
AcDbEntity
8
0
100
AcDbBlockBegin
2
*D9
70
1
10
0
20
0
3
*D9
1

0
LINE
5
147
100
AcDbEntity
8
section_4_4_d
6
CONTINUOUS
62
7
370
0
100
AcDbLine
10
1290
20
600
11
3430
21
600
0
SOLID
5
148
100
AcDbEntity
8
section_4_4_d
6
CONTINUOUS
62
7
370
0
100
AcDbTrace
10
1290
20
600
30
0
11
1338
21
607.992665429
31
0
12
1338
22
592.007334571
32
0
13
1338
23
592.007334571
33
0
0
SOLID
5
149
100
AcDbEntity
8
section_4_4_d
6
CONTINUOUS
62
7
370
0
100
AcDbTrace
10
3430
20
600
30
0
11
3382
21
592.007334571
31
0
12
3382
22
607.992665429
32
0
13
3382
23
607.992665429
33
0
0
MTEXT
5
14A
100
AcDbEntity
8
section_4_4_d
6
CONTINUOUS
62
7
370
0
100
AcDbMText
10
2360
20
644
30
0
40
48
41
128
71
5
72
1
1
2140
7
standard
210
0
220
0
230
1
50
0
73
2
44
1
0
LINE
5
14B
100
AcDbEntity
8
section_4_4_d
6
CONTINUOUS
62
7
370
0
100
AcDbLine
10
1290
20
627.93419016
11
1290
21
584
0
LINE
5
14C
100
AcDbEntity
8
section_4_4_d
6
CONTINUOUS
62
7
370
0
100
AcDbLine
10
3430
20
624.01549542
11
3430
21
584
0
ENDBLK
5
80
330
7E
100
AcDbEntity
8
0
100
AcDbBlockEnd
0
BLOCK
5
82
330
81
100
AcDbEntity
8
0
100
AcDbBlockBegin
2
*D11
70
1
10
0
20
0
3
*D11
1

0
LINE
5
14D
100
AcDbEntity
8
section_4_4_d
6
CONTINUOUS
62
7
370
0
100
AcDbLine
10
843.682792195
20
4100
11
3817.3683702
21
4100
0
SOLID
5
14E
100
AcDbEntity
8
section_4_4_d
6
CONTINUOUS
62
7
370
0
100
AcDbTrace
10
843.682792195
20
4100
30
0
11
891.682792195
21
4107.99266543
31
0
12
891.682792195
22
4092.00733457
32
0
13
891.682792195
23
4092.00733457
33
0
0
SOLID
5
14F
100
AcDbEntity
8
section_4_4_d
6
CONTINUOUS
62
7
370
0
100
AcDbTrace
10
3817.3683702
20
4100
30
0
11
3769.3683702
21
4092.00733457
31
0
12
3769.3683702
22
4107.99266543
32
0
13
3769.3683702
23
4107.99266543
33
0
0
MTEXT
5
150
100
AcDbEntity
8
section_4_4_d
6
CONTINUOUS
62
7
370
0
100
AcDbMText
10
2330.5255812
20
4144
30
0
40
48
41
133.333333333
71
5
72
1
1
2975
7
standard
210
0
220
0
230
1
50
0
73
2
44
1
0
LINE
5
151
100
AcDbEntity
8
section_4_4_d
6
CONTINUOUS
62
7
370
0
100
AcDbLine
10
843.682792195
20
4095.13726717
11
843.682792195
21
4116
0
LINE
5
152
100
AcDbEntity
8
section_4_4_d
6
CONTINUOUS
62
7
370
0
100
AcDbLine
10
3817.3683702
20
4088.98964215
11
3817.3683702
21
4116
0
ENDBLK
5
83
330
81
100
AcDbEntity
8
0
100
AcDbBlockEnd
0
BLOCK
5
85
330
84
100
AcDbEntity
8
0
100
AcDbBlockBegin
2
*D32
70
1
10
0
20
0
3
*D32
1

0
LINE
5
153
100
AcDbEntity
8
section_1_1_d
6
CONTINUOUS
62
7
370
0
100
AcDbLine
10
1307.5
20
700
11
1744.5
21
700
0
SOLID
5
154
100
AcDbEntity
8
section_1_1_d
6
CONTINUOUS
62
7
370
0
100
AcDbTrace
10
1307.5
20
700
30
0
11
1355.5
21
707.992665429
31
0
12
1355.5
22
692.007334571
32
0
13
1355.5
23
692.007334571
33
0
0
SOLID
5
155
100
AcDbEntity
8
section_1_1_d
6
CONTINUOUS
62
7
370
0
100
AcDbTrace
10
1744.5
20
700
30
0
11
1696.5
21
692.007334571
31
0
12
1696.5
22
707.992665429
32
0
13
1696.5
23
707.992665429
33
0
0
MTEXT
5
156
100
AcDbEntity
8
section_1_1_d
6
CONTINUOUS
62
7
370
0
100
AcDbMText
10
1526
20
744
30
0
40
48
41
101.333333333
71
5
72
1
1
437
7
standard
210
0
220
0
230
1
50
0
73
2
44
1
0
LINE
5
157
100
AcDbEntity
8
section_1_1_d
6
CONTINUOUS
62
7
370
0
100
AcDbLine
10
1307.5
20
686.874182294
11
1307.5
21
684
0
LINE
5
158
100
AcDbEntity
8
section_1_1_d
6
CONTINUOUS
62
7
370
0
100
AcDbLine
10
1744.5
20
686.874182294
11
1744.5
21
684
0
ENDBLK
5
86
330
84
100
AcDbEntity
8
0
100
AcDbBlockEnd
0
BLOCK
5
88
330
87
100
AcDbEntity
8
0
100
AcDbBlockBegin
2
*D33
70
1
10
0
20
0
3
*D33
1

0
LINE
5
159
100
AcDbEntity
8
section_1_1_d
6
CONTINUOUS
62
7
370
0
100
AcDbLine
10
1744.5
20
700
11
2359.5
21
700
0
SOLID
5
15A
100
AcDbEntity
8
section_1_1_d
6
CONTINUOUS
62
7
370
0
100
AcDbTrace
10
1744.5
20
700
30
0
11
1792.5
21
707.992665429
31
0
12
1792.5
22
692.007334571
32
0
13
1792.5
23
692.007334571
33
0
0
SOLID
5
15B
100
AcDbEntity
8
section_1_1_d
6
CONTINUOUS
62
7
370
0
100
AcDbTrace
10
2359.5
20
700
30
0
11
2311.5
21
692.007334571
31
0
12
2311.5
22
707.992665429
32
0
13
2311.5
23
707.992665429
33
0
0
MTEXT
5
15C
100
AcDbEntity
8
section_1_1_d
6
CONTINUOUS
62
7
370
0
100
AcDbMText
10
2052
20
744
30
0
40
48
41
85.3333333333
71
5
72
1
1
615
7
standard
210
0
220
0
230
1
50
0
73
2
44
1
0
LINE
5
15D
100
AcDbEntity
8
section_1_1_d
6
CONTINUOUS
62
7
370
0
100
AcDbLine
10
1744.5
20
694.028300568
11
1744.5
21
684
0
LINE
5
15E
100
AcDbEntity
8
section_1_1_d
6
CONTINUOUS
62
7
370
0
100
AcDbLine
10
2359.5
20
694.028300568
11
2359.5
21
684
0
ENDBLK
5
89
330
87
100
AcDbEntity
8
0
100
AcDbBlockEnd
0
BLOCK
5
8B
330
8A
100
AcDbEntity
8
0
100
AcDbBlockBegin
2
*D34
70
1
10
0
20
0
3
*D34
1

0
LINE
5
15F
100
AcDbEntity
8
section_1_1_d
6
CONTINUOUS
62
7
370
0
100
AcDbLine
10
2359.5
20
700
11
2974.5
21
700
0
SOLID
5
160
100
AcDbEntity
8
section_1_1_d
6
CONTINUOUS
62
7
370
0
100
AcDbTrace
10
2359.5
20
700
30
0
11
2407.5
21
707.992665429
31
0
12
2407.5
22
692.007334571
32
0
13
2407.5
23
692.007334571
33
0
0
SOLID
5
161
100
AcDbEntity
8
section_1_1_d
6
CONTINUOUS
62
7
370
0
100
AcDbTrace
10
2974.5
20
700
30
0
11
2926.5
21
692.007334571
31
0
12
2926.5
22
707.992665429
32
0
13
2926.5
23
707.992665429
33
0
0
MTEXT
5
162
100
AcDbEntity
8
section_1_1_d
6
CONTINUOUS
62
7
370
0
100
AcDbMText
10
2667
20
744
30
0
40
48
41
85.3333333333
71
5
72
1
1
615
7
standard
210
0
220
0
230
1
50
0
73
2
44
1
0
LINE
5
163
100
AcDbEntity
8
section_1_1_d
6
CONTINUOUS
62
7
370
0
100
AcDbLine
10
2359.5
20
690.451241431
11
2359.5
21
684
0
LINE
5
164
100
AcDbEntity
8
section_1_1_d
6
CONTINUOUS
62
7
370
0
100
AcDbLine
10
2974.5
20
690.451241431
11
2974.5
21
684
0
ENDBLK
5
8C
330
8A
100
AcDbEntity
8
0
100
AcDbBlockEnd
0
BLOCK
5
8E
330
8D
100
AcDbEntity
8
0
100
AcDbBlockBegin
2
*D19
70
1
10
0
20
0
3
*D19
1

0
LINE
5
165
100
AcDbEntity
8
sideview_d
6
CONTINUOUS
62
7
370
0
100
AcDbLine
10
4100
20
3764
11
4100
21
3464
0
SOLID
5
166
100
AcDbEntity
8
sideview_d
6
CONTINUOUS
62
7
370
0
100
AcDbTrace
10
4100
20
3764
30
0
11
4107.99266543
21
3716
31
0
12
4092.00733457
22
3716
32
0
13
4092.00733457
23
3716
33
0
0
SOLID
5
167
100
AcDbEntity
8
sideview_d
6
CONTINUOUS
62
7
370
0
100
AcDbTrace
10
4100
20
3464
30
0
11
4092.00733457
21
3512
31
0
12
4107.99266543
22
3512
32
0
13
4107.99266543
23
3512
33
0
0
MTEXT
5
168
100
AcDbEntity
8
sideview_d
6
CONTINUOUS
62
7
370
0
100
AcDbMText
10
4056
20
3614
30
0
40
48
41
96
71
5
72
1
1
300
7
standard
210
0
220
0
230
1
50
90
73
2
44
1
0
LINE
5
169
100
AcDbEntity
8
sideview_d
6
CONTINUOUS
62
7
370
0
100
AcDbLine
10
4077.9239171
20
3764
11
4116
21
3764
0
LINE
5
16A
100
AcDbEntity
8
sideview_d
6
CONTINUOUS
62
7
370
0
100
AcDbLine
10
4082.84201712
20
3464
11
4116
21
3464
0
ENDBLK
5
8F
330
8D
100
AcDbEntity
8
0
100
AcDbBlockEnd
0
BLOCK
5
91
330
90
100
AcDbEntity
8
0
100
AcDbBlockBegin
2
*D47
70
1
10
0
20
0
3
*D47
1

0
LINE
5
16B
100
AcDbEntity
8
section_4_4_d
6
CONTINUOUS
62
7
370
0
100
AcDbLine
10
3900
20
2314
11
3900
21
2714
0
SOLID
5
16C
100
AcDbEntity
8
section_4_4_d
6
CONTINUOUS
62
7
370
0
100
AcDbTrace
10
3900
20
2314
30
0
11
3892.00733457
21
2362
31
0
12
3907.99266543
22
2362
32
0
13
3907.99266543
23
2362
33
0
0
SOLID
5
16D
100
AcDbEntity
8
section_4_4_d
6
CONTINUOUS
62
7
370
0
100
AcDbTrace
10
3900
20
2714
30
0
11
3907.99266543
21
2666
31
0
12
3892.00733457
22
2666
32
0
13
3892.00733457
23
2666
33
0
0
MTEXT
5
16E
100
AcDbEntity
8
section_4_4_d
6
CONTINUOUS
62
7
370
0
100
AcDbMText
10
3856
20
2514
30
0
40
48
41
101.333333333
71
5
72
1
1
400
7
standard
210
0
220
0
230
1
50
90
73
2
44
1
0
LINE
5
16F
100
AcDbEntity
8
section_4_4_d
6
CONTINUOUS
62
7
370
0
100
AcDbLine
10
3881.71241452
20
2314
11
3916
21
2314
0
LINE
5
170
100
AcDbEntity
8
section_4_4_d
6
CONTINUOUS
62
7
370
0
100
AcDbLine
10
3892.58252066
20
2714
11
3916
21
2714
0
ENDBLK
5
92
330
90
100
AcDbEntity
8
0
100
AcDbBlockEnd
0
BLOCK
5
94
330
93
100
AcDbEntity
8
0
100
AcDbBlockBegin
2
*D49
70
1
10
0
20
0
3
*D49
1

0
LINE
5
171
100
AcDbEntity
8
section_4_4_d
6
CONTINUOUS
62
7
370
0
100
AcDbLine
10
3900
20
3114
11
3900
21
3464
0
SOLID
5
172
100
AcDbEntity
8
section_4_4_d
6
CONTINUOUS
62
7
370
0
100
AcDbTrace
10
3900
20
3114
30
0
11
3892.00733457
21
3162
31
0
12
3907.99266543
22
3162
32
0
13
3907.99266543
23
3162
33
0
0
SOLID
5
173
100
AcDbEntity
8
section_4_4_d
6
CONTINUOUS
62
7
370
0
100
AcDbTrace
10
3900
20
3464
30
0
11
3907.99266543
21
3416
31
0
12
3892.00733457
22
3416
32
0
13
3892.00733457
23
3416
33
0
0
MTEXT
5
174
100
AcDbEntity
8
section_4_4_d
6
CONTINUOUS
62
7
370
0
100
AcDbMText
10
3856
20
3289
30
0
40
48
41
96
71
5
72
1
1
350
7
standard
210
0
220
0
230
1
50
90
73
2
44
1
0
LINE
5
175
100
AcDbEntity
8
section_4_4_d
6
CONTINUOUS
62
7
370
0
100
AcDbLine
10
3893.15274267
20
3114
11
3884
21
3114
0
LINE
5
176
100
AcDbEntity
8
section_4_4_d
6
CONTINUOUS
62
7
370
0
100
AcDbLine
10
3893.15274267
20
3464
11
3884
21
3464
0
ENDBLK
5
95
330
93
100
AcDbEntity
8
0
100
AcDbBlockEnd
0
BLOCK
5
97
330
96
100
AcDbEntity
8
0
100
AcDbBlockBegin
2
*D23
70
1
10
0
20
0
3
*D23
1

0
LINE
5
177
100
AcDbEntity
8
sideview_d
6
CONTINUOUS
62
7
370
0
100
AcDbLine
10
300
20
3464
11
300
21
1099
0
SOLID
5
178
100
AcDbEntity
8
sideview_d
6
CONTINUOUS
62
7
370
0
100
AcDbTrace
10
300
20
3464
30
0
11
307.992665429
21
3416
31
0
12
292.007334571
22
3416
32
0
13
292.007334571
23
3416
33
0
0
SOLID
5
179
100
AcDbEntity
8
sideview_d
6
CONTINUOUS
62
7
370
0
100
AcDbTrace
10
300
20
1099
30
0
11
292.007334571
21
1147
31
0
12
307.992665429
22
1147
32
0
13
307.992665429
23
1147
33
0
0
MTEXT
5
17A
100
AcDbEntity
8
sideview_d
6
CONTINUOUS
62
7
370
0
100
AcDbMText
10
256
20
2281.5
30
0
40
48
41
133.333333333
71
5
72
1
1
2365
7
standard
210
0
220
0
230
1
50
90
73
2
44
1
0
LINE
5
17B
100
AcDbEntity
8
sideview_d
6
CONTINUOUS
62
7
370
0
100
AcDbLine
10
314.347876122
20
3464
11
316
21
3464
0
LINE
5
17C
100
AcDbEntity
8
sideview_d
6
CONTINUOUS
62
7
370
0
100
AcDbLine
10
320.495501148
20
1099
11
316
21
1099
0
ENDBLK
5
98
330
96
100
AcDbEntity
8
0
100
AcDbBlockEnd
0
BLOCK
5
9A
330
99
100
AcDbEntity
8
0
100
AcDbBlockBegin
2
*D44
70
1
10
0
20
0
3
*D44
1

0
LINE
5
17D
100
AcDbEntity
8
section_4_4_d
6
CONTINUOUS
62
7
370
0
100
AcDbLine
10
3900
20
1064
11
3900
21
1514
0
SOLID
5
17E
100
AcDbEntity
8
section_4_4_d
6
CONTINUOUS
62
7
370
0
100
AcDbTrace
10
3900
20
1064
30
0
11
3892.00733457
21
1112
31
0
12
3907.99266543
22
1112
32
0
13
3907.99266543
23
1112
33
0
0
SOLID
5
17F
100
AcDbEntity
8
section_4_4_d
6
CONTINUOUS
62
7
370
0
100
AcDbTrace
10
3900
20
1514
30
0
11
3907.99266543
21
1466
31
0
12
3892.00733457
22
1466
32
0
13
3892.00733457
23
1466
33
0
0
MTEXT
5
180
100
AcDbEntity
8
section_4_4_d
6
CONTINUOUS
62
7
370
0
100
AcDbMText
10
3856
20
1289
30
0
40
48
41
101.333333333
71
5
72
1
1
450
7
standard
210
0
220
0
230
1
50
90
73
2
44
1
0
LINE
5
181
100
AcDbEntity
8
section_4_4_d
6
CONTINUOUS
62
7
370
0
100
AcDbLine
10
3898.01757373
20
1064
11
3916
21
1064
0
LINE
5
182
100
AcDbEntity
8
section_4_4_d
6
CONTINUOUS
62
7
370
0
100
AcDbLine
10
3898.01757373
20
1514
11
3916
21
1514
0
ENDBLK
5
9B
330
99
100
AcDbEntity
8
0
100
AcDbBlockEnd
0
BLOCK
5
9D
330
9C
100
AcDbEntity
8
0
100
AcDbBlockBegin
2
*D45
70
1
10
0
20
0
3
*D45
1

0
LINE
5
183
100
AcDbEntity
8
section_4_4_d
6
CONTINUOUS
62
7
370
0
100
AcDbLine
10
3900
20
1514
11
3900
21
1914
0
SOLID
5
184
100
AcDbEntity
8
section_4_4_d
6
CONTINUOUS
62
7
370
0
100
AcDbTrace
10
3900
20
1514
30
0
11
3892.00733457
21
1562
31
0
12
3907.99266543
22
1562
32
0
13
3907.99266543
23
1562
33
0
0
SOLID
5
185
100
AcDbEntity
8
section_4_4_d
6
CONTINUOUS
62
7
370
0
100
AcDbTrace
10
3900
20
1914
30
0
11
3907.99266543
21
1866
31
0
12
3892.00733457
22
1866
32
0
13
3892.00733457
23
1866
33
0
0
MTEXT
5
186
100
AcDbEntity
8
section_4_4_d
6
CONTINUOUS
62
7
370
0
100
AcDbMText
10
3856
20
1714
30
0
40
48
41
101.333333333
71
5
72
1
1
400
7
standard
210
0
220
0
230
1
50
90
73
2
44
1
0
LINE
5
187
100
AcDbEntity
8
section_4_4_d
6
CONTINUOUS
62
7
370
0
100
AcDbLine
10
3892.58252066
20
1514
11
3916
21
1514
0
LINE
5
188
100
AcDbEntity
8
section_4_4_d
6
CONTINUOUS
62
7
370
0
100
AcDbLine
10
3892.58252066
20
1914
11
3916
21
1914
0
ENDBLK
5
9E
330
9C
100
AcDbEntity
8
0
100
AcDbBlockEnd
0
BLOCK
5
A0
330
9F
100
AcDbEntity
8
0
100
AcDbBlockBegin
2
*D48
70
1
10
0
20
0
3
*D48
1

0
LINE
5
189
100
AcDbEntity
8
section_4_4_d
6
CONTINUOUS
62
7
370
0
100
AcDbLine
10
3900
20
2714
11
3900
21
3114
0
SOLID
5
18A
100
AcDbEntity
8
section_4_4_d
6
CONTINUOUS
62
7
370
0
100
AcDbTrace
10
3900
20
2714
30
0
11
3892.00733457
21
2762
31
0
12
3907.99266543
22
2762
32
0
13
3907.99266543
23
2762
33
0
0
SOLID
5
18B
100
AcDbEntity
8
section_4_4_d
6
CONTINUOUS
62
7
370
0
100
AcDbTrace
10
3900
20
3114
30
0
11
3907.99266543
21
3066
31
0
12
3892.00733457
22
3066
32
0
13
3892.00733457
23
3066
33
0
0
MTEXT
5
18C
100
AcDbEntity
8
section_4_4_d
6
CONTINUOUS
62
7
370
0
100
AcDbMText
10
3856
20
2914
30
0
40
48
41
101.333333333
71
5
72
1
1
400
7
standard
210
0
220
0
230
1
50
90
73
2
44
1
0
LINE
5
18D
100
AcDbEntity
8
section_4_4_d
6
CONTINUOUS
62
7
370
0
100
AcDbLine
10
3892.58252066
20
2714
11
3916
21
2714
0
LINE
5
18E
100
AcDbEntity
8
section_4_4_d
6
CONTINUOUS
62
7
370
0
100
AcDbLine
10
3898.01757373
20
3114
11
3916
21
3114
0
ENDBLK
5
A1
330
9F
100
AcDbEntity
8
0
100
AcDbBlockEnd
0
BLOCK
5
A3
330
A2
100
AcDbEntity
8
0
100
AcDbBlockBegin
2
*D12
70
1
10
0
20
0
3
*D12
1

0
LINE
5
18F
100
AcDbEntity
8
section_4_4_d
6
CONTINUOUS
62
7
370
0
100
AcDbLine
10
4100
20
3764
11
4100
21
3464
0
SOLID
5
190
100
AcDbEntity
8
section_4_4_d
6
CONTINUOUS
62
7
370
0
100
AcDbTrace
10
4100
20
3764
30
0
11
4107.99266543
21
3716
31
0
12
4092.00733457
22
3716
32
0
13
4092.00733457
23
3716
33
0
0
SOLID
5
191
100
AcDbEntity
8
section_4_4_d
6
CONTINUOUS
62
7
370
0
100
AcDbTrace
10
4100
20
3464
30
0
11
4092.00733457
21
3512
31
0
12
4107.99266543
22
3512
32
0
13
4107.99266543
23
3512
33
0
0
MTEXT
5
192
100
AcDbEntity
8
section_4_4_d
6
CONTINUOUS
62
7
370
0
100
AcDbMText
10
4056
20
3614
30
0
40
48
41
96
71
5
72
1
1
300
7
standard
210
0
220
0
230
1
50
90
73
2
44
1
0
LINE
5
193
100
AcDbEntity
8
section_4_4_d
6
CONTINUOUS
62
7
370
0
100
AcDbLine
10
4077.9239171
20
3764
11
4116
21
3764
0
LINE
5
194
100
AcDbEntity
8
section_4_4_d
6
CONTINUOUS
62
7
370
0
100
AcDbLine
10
4082.84201712
20
3464
11
4116
21
3464
0
ENDBLK
5
A4
330
A2
100
AcDbEntity
8
0
100
AcDbBlockEnd
0
BLOCK
5
A6
330
A5
100
AcDbEntity
8
0
100
AcDbBlockBegin
2
*D27
70
1
10
0
20
0
3
*D27
1

0
LINE
5
195
100
AcDbEntity
8
section_1_1_d
6
CONTINUOUS
62
7
370
0
100
AcDbLine
10
2992
20
2500
11
3395
21
2500
0
SOLID
5
196
100
AcDbEntity
8
section_1_1_d
6
CONTINUOUS
62
7
370
0
100
AcDbTrace
10
2992
20
2500
30
0
11
3040
21
2507.99266543
31
0
12
3040
22
2492.00733457
32
0
13
3040
23
2492.00733457
33
0
0
SOLID
5
197
100
AcDbEntity
8
section_1_1_d
6
CONTINUOUS
62
7
370
0
100
AcDbTrace
10
3395
20
2500
30
0
11
3347
21
2492.00733457
31
0
12
3347
22
2507.99266543
32
0
13
3347
23
2507.99266543
33
0
0
MTEXT
5
198
100
AcDbEntity
8
section_1_1_d
6
CONTINUOUS
62
7
370
0
100
AcDbMText
10
3193.5
20
2544
30
0
40
48
41
101.333333333
71
5
72
1
1
403
7
standard
210
0
220
0
230
1
50
0
73
2
44
1
0
LINE
5
199
100
AcDbEntity
8
section_1_1_d
6
CONTINUOUS
62
7
370
0
100
AcDbLine
10
2992
20
2511.17434234
11
2992
21
2484
0
LINE
5
19A
100
AcDbEntity
8
section_1_1_d
6
CONTINUOUS
62
7
370
0
100
AcDbLine
10
3395
20
2511.17434234
11
3395
21
2484
0
ENDBLK
5
A7
330
A5
100
AcDbEntity
8
0
100
AcDbBlockEnd
0
BLOCK
5
A9
330
A8
100
AcDbEntity
8
0
100
AcDbBlockBegin
2
*D17
70
1
10
0
20
0
3
*D17
1

0
LINE
5
19B
100
AcDbEntity
8
sideview_d
6
CONTINUOUS
62
7
370
0
100
AcDbLine
10
1200
20
500
11
3520
21
500
0
SOLID
5
19C
100
AcDbEntity
8
sideview_d
6
CONTINUOUS
62
7
370
0
100
AcDbTrace
10
1200
20
500
30
0
11
1248
21
507.992665429
31
0
12
1248
22
492.007334571
32
0
13
1248
23
492.007334571
33
0
0
SOLID
5
19D
100
AcDbEntity
8
sideview_d
6
CONTINUOUS
62
7
370
0
100
AcDbTrace
10
3520
20
500
30
0
11
3472
21
492.007334571
31
0
12
3472
22
507.992665429
32
0
13
3472
23
507.992665429
33
0
0
MTEXT
5
19E
100
AcDbEntity
8
sideview_d
6
CONTINUOUS
62
7
370
0
100
AcDbMText
10
2360
20
544
30
0
40
48
41
133.333333333
71
5
72
1
1
2320
7
standard
210
0
220
0
230
1
50
0
73
2
44
1
0
LINE
5
19F
100
AcDbEntity
8
sideview_d
6
CONTINUOUS
62
7
370
0
100
AcDbLine
10
1200
20
498.617263714
11
1200
21
484
0
LINE
5
1A0
100
AcDbEntity
8
sideview_d
6
CONTINUOUS
62
7
370
0
100
AcDbLine
10
3520
20
486.861179491
11
3520
21
484
0
ENDBLK
5
AA
330
A8
100
AcDbEntity
8
0
100
AcDbBlockEnd
0
BLOCK
5
AC
330
AB
100
AcDbEntity
8
0
100
AcDbBlockBegin
2
*D7
70
1
10
0
20
0
3
*D7
1

0
LINE
5
1A1
100
AcDbEntity
8
section_1_1_d
6
CONTINUOUS
62
7
370
0
100
AcDbLine
10
300
20
3764
11
300
21
3464
0
SOLID
5
1A2
100
AcDbEntity
8
section_1_1_d
6
CONTINUOUS
62
7
370
0
100
AcDbTrace
10
300
20
3764
30
0
11
307.992665429
21
3716
31
0
12
292.007334571
22
3716
32
0
13
292.007334571
23
3716
33
0
0
SOLID
5
1A3
100
AcDbEntity
8
section_1_1_d
6
CONTINUOUS
62
7
370
0
100
AcDbTrace
10
300
20
3464
30
0
11
292.007334571
21
3512
31
0
12
307.992665429
22
3512
32
0
13
307.992665429
23
3512
33
0
0
MTEXT
5
1A4
100
AcDbEntity
8
section_1_1_d
6
CONTINUOUS
62
7
370
0
100
AcDbMText
10
256
20
3614
30
0
40
48
41
96
71
5
72
1
1
300
7
standard
210
0
220
0
230
1
50
90
73
2
44
1
0
LINE
5
1A5
100
AcDbEntity
8
section_1_1_d
6
CONTINUOUS
62
7
370
0
100
AcDbLine
10
320.495501148
20
3764
11
316
21
3764
0
LINE
5
1A6
100
AcDbEntity
8
section_1_1_d
6
CONTINUOUS
62
7
370
0
100
AcDbLine
10
320.495501148
20
3464
11
316
21
3464
0
ENDBLK
5
AD
330
AB
100
AcDbEntity
8
0
100
AcDbBlockEnd
0
BLOCK
5
AF
330
AE
100
AcDbEntity
8
0
100
AcDbBlockBegin
2
*D42
70
1
10
0
20
0
3
*D42
1

0
LINE
5
1A7
100
AcDbEntity
8
section_4_4_d
6
CONTINUOUS
62
7
370
0
100
AcDbLine
10
2359.5
20
700
11
2974.5
21
700
0
SOLID
5
1A8
100
AcDbEntity
8
section_4_4_d
6
CONTINUOUS
62
7
370
0
100
AcDbTrace
10
2359.5
20
700
30
0
11
2407.5
21
707.992665429
31
0
12
2407.5
22
692.007334571
32
0
13
2407.5
23
692.007334571
33
0
0
SOLID
5
1A9
100
AcDbEntity
8
section_4_4_d
6
CONTINUOUS
62
7
370
0
100
AcDbTrace
10
2974.5
20
700
30
0
11
2926.5
21
692.007334571
31
0
12
2926.5
22
707.992665429
32
0
13
2926.5
23
707.992665429
33
0
0
MTEXT
5
1AA
100
AcDbEntity
8
section_4_4_d
6
CONTINUOUS
62
7
370
0
100
AcDbMText
10
2667
20
744
30
0
40
48
41
85.3333333333
71
5
72
1
1
615
7
standard
210
0
220
0
230
1
50
0
73
2
44
1
0
LINE
5
1AB
100
AcDbEntity
8
section_4_4_d
6
CONTINUOUS
62
7
370
0
100
AcDbLine
10
2359.5
20
692.239771
11
2359.5
21
684
0
LINE
5
1AC
100
AcDbEntity
8
section_4_4_d
6
CONTINUOUS
62
7
370
0
100
AcDbLine
10
2974.5
20
683.297123156
11
2974.5
21
684
0
ENDBLK
5
B0
330
AE
100
AcDbEntity
8
0
100
AcDbBlockEnd
0
BLOCK
5
B2
330
B1
100
AcDbEntity
8
0
100
AcDbBlockBegin
2
*D15
70
1
10
0
20
0
3
*D15
1

0
LINE
5
1AD
100
AcDbEntity
8
section_4_4_d
6
CONTINUOUS
62
7
370
0
100
AcDbLine
10
300
20
3764
11
300
21
3464
0
SOLID
5
1AE
100
AcDbEntity
8
section_4_4_d
6
CONTINUOUS
62
7
370
0
100
AcDbTrace
10
300
20
3764
30
0
11
307.992665429
21
3716
31
0
12
292.007334571
22
3716
32
0
13
292.007334571
23
3716
33
0
0
SOLID
5
1AF
100
AcDbEntity
8
section_4_4_d
6
CONTINUOUS
62
7
370
0
100
AcDbTrace
10
300
20
3464
30
0
11
292.007334571
21
3512
31
0
12
307.992665429
22
3512
32
0
13
307.992665429
23
3512
33
0
0
MTEXT
5
1B0
100
AcDbEntity
8
section_4_4_d
6
CONTINUOUS
62
7
370
0
100
AcDbMText
10
256
20
3614
30
0
40
48
41
96
71
5
72
1
1
300
7
standard
210
0
220
0
230
1
50
90
73
2
44
1
0
LINE
5
1B1
100
AcDbEntity
8
section_4_4_d
6
CONTINUOUS
62
7
370
0
100
AcDbLine
10
320.495501148
20
3764
11
316
21
3764
0
LINE
5
1B2
100
AcDbEntity
8
section_4_4_d
6
CONTINUOUS
62
7
370
0
100
AcDbLine
10
320.495501148
20
3464
11
316
21
3464
0
ENDBLK
5
B3
330
B1
100
AcDbEntity
8
0
100
AcDbBlockEnd
0
BLOCK
5
B5
330
B4
100
AcDbEntity
8
0
100
AcDbBlockBegin
2
*D22
70
1
10
0
20
0
3
*D22
1

0
LINE
5
1B3
100
AcDbEntity
8
sideview_d
6
CONTINUOUS
62
7
370
0
100
AcDbLine
10
300
20
3764
11
300
21
3464
0
SOLID
5
1B4
100
AcDbEntity
8
sideview_d
6
CONTINUOUS
62
7
370
0
100
AcDbTrace
10
300
20
3764
30
0
11
307.992665429
21
3716
31
0
12
292.007334571
22
3716
32
0
13
292.007334571
23
3716
33
0
0
SOLID
5
1B5
100
AcDbEntity
8
sideview_d
6
CONTINUOUS
62
7
370
0
100
AcDbTrace
10
300
20
3464
30
0
11
292.007334571
21
3512
31
0
12
307.992665429
22
3512
32
0
13
307.992665429
23
3512
33
0
0
MTEXT
5
1B6
100
AcDbEntity
8
sideview_d
6
CONTINUOUS
62
7
370
0
100
AcDbMText
10
256
20
3614
30
0
40
48
41
96
71
5
72
1
1
300
7
standard
210
0
220
0
230
1
50
90
73
2
44
1
0
LINE
5
1B7
100
AcDbEntity
8
sideview_d
6
CONTINUOUS
62
7
370
0
100
AcDbLine
10
320.495501148
20
3764
11
316
21
3764
0
LINE
5
1B8
100
AcDbEntity
8
sideview_d
6
CONTINUOUS
62
7
370
0
100
AcDbLine
10
320.495501148
20
3464
11
316
21
3464
0
ENDBLK
5
B6
330
B4
100
AcDbEntity
8
0
100
AcDbBlockEnd
0
BLOCK
5
B8
330
B7
100
AcDbEntity
8
0
100
AcDbBlockBegin
2
*D37
70
1
10
0
20
0
3
*D37
1

0
LINE
5
1B9
100
AcDbEntity
8
section_4_4_d
6
CONTINUOUS
62
7
370
0
100
AcDbLine
10
1744.5
20
4000
11
2359.5
21
4000
0
SOLID
5
1BA
100
AcDbEntity
8
section_4_4_d
6
CONTINUOUS
62
7
370
0
100
AcDbTrace
10
1744.5
20
4000
30
0
11
1792.5
21
4007.99266543
31
0
12
1792.5
22
3992.00733457
32
0
13
1792.5
23
3992.00733457
33
0
0
SOLID
5
1BB
100
AcDbEntity
8
section_4_4_d
6
CONTINUOUS
62
7
370
0
100
AcDbTrace
10
2359.5
20
4000
30
0
11
2311.5
21
3992.00733457
31
0
12
2311.5
22
4007.99266543
32
0
13
2311.5
23
4007.99266543
33
0
0
MTEXT
5
1BC
100
AcDbEntity
8
section_4_4_d
6
CONTINUOUS
62
7
370
0
100
AcDbMText
10
2052
20
4044
30
0
40
48
41
85.3333333333
71
5
72
1
1
615
7
standard
210
0
220
0
230
1
50
0
73
2
44
1
0
LINE
5
1BD
100
AcDbEntity
8
section_4_4_d
6
CONTINUOUS
62
7
370
0
100
AcDbLine
10
1744.5
20
4011.59299461
11
1744.5
21
4016
0
LINE
5
1BE
100
AcDbEntity
8
section_4_4_d
6
CONTINUOUS
62
7
370
0
100
AcDbLine
10
2359.5
20
4011.59299461
11
2359.5
21
4016
0
ENDBLK
5
B9
330
B7
100
AcDbEntity
8
0
100
AcDbBlockEnd
0
BLOCK
5
BB
330
BA
100
AcDbEntity
8
0
100
AcDbBlockBegin
2
*D16
70
1
10
0
20
0
3
*D16
1

0
LINE
5
1BF
100
AcDbEntity
8
section_4_4_d
6
CONTINUOUS
62
7
370
0
100
AcDbLine
10
300
20
3464
11
300
21
1099
0
SOLID
5
1C0
100
AcDbEntity
8
section_4_4_d
6
CONTINUOUS
62
7
370
0
100
AcDbTrace
10
300
20
3464
30
0
11
307.992665429
21
3416
31
0
12
292.007334571
22
3416
32
0
13
292.007334571
23
3416
33
0
0
SOLID
5
1C1
100
AcDbEntity
8
section_4_4_d
6
CONTINUOUS
62
7
370
0
100
AcDbTrace
10
300
20
1099
30
0
11
292.007334571
21
1147
31
0
12
307.992665429
22
1147
32
0
13
307.992665429
23
1147
33
0
0
MTEXT
5
1C2
100
AcDbEntity
8
section_4_4_d
6
CONTINUOUS
62
7
370
0
100
AcDbMText
10
256
20
2281.5
30
0
40
48
41
133.333333333
71
5
72
1
1
2365
7
standard
210
0
220
0
230
1
50
90
73
2
44
1
0
LINE
5
1C3
100
AcDbEntity
8
section_4_4_d
6
CONTINUOUS
62
7
370
0
100
AcDbLine
10
314.347876122
20
3464
11
316
21
3464
0
LINE
5
1C4
100
AcDbEntity
8
section_4_4_d
6
CONTINUOUS
62
7
370
0
100
AcDbLine
10
320.495501148
20
1099
11
316
21
1099
0
ENDBLK
5
BC
330
BA
100
AcDbEntity
8
0
100
AcDbBlockEnd
0
BLOCK
5
BE
330
BD
100
AcDbEntity
8
0
100
AcDbBlockBegin
2
*D24
70
1
10
0
20
0
3
*D24
1

0
LINE
5
1C5
100
AcDbEntity
8
section_1_1_d
6
CONTINUOUS
62
7
370
0
100
AcDbLine
10
1325
20
2500
11
1727
21
2500
0
SOLID
5
1C6
100
AcDbEntity
8
section_1_1_d
6
CONTINUOUS
62
7
370
0
100
AcDbTrace
10
1325
20
2500
30
0
11
1373
21
2507.99266543
31
0
12
1373
22
2492.00733457
32
0
13
1373
23
2492.00733457
33
0
0
SOLID
5
1C7
100
AcDbEntity
8
section_1_1_d
6
CONTINUOUS
62
7
370
0
100
AcDbTrace
10
1727
20
2500
30
0
11
1679
21
2492.00733457
31
0
12
1679
22
2507.99266543
32
0
13
1679
23
2507.99266543
33
0
0
MTEXT
5
1C8
100
AcDbEntity
8
section_1_1_d
6
CONTINUOUS
62
7
370
0
100
AcDbMText
10
1526
20
2544
30
0
40
48
41
101.333333333
71
5
72
1
1
402
7
standard
210
0
220
0
230
1
50
0
73
2
44
1
0
LINE
5
1C9
100
AcDbEntity
8
section_1_1_d
6
CONTINUOUS
62
7
370
0
100
AcDbLine
10
1325
20
2507.5972832
11
1325
21
2484
0
LINE
5
1CA
100
AcDbEntity
8
section_1_1_d
6
CONTINUOUS
62
7
370
0
100
AcDbLine
10
1727
20
2507.5972832
11
1727
21
2484
0
ENDBLK
5
BF
330
BD
100
AcDbEntity
8
0
100
AcDbBlockEnd
0
BLOCK
5
C1
330
C0
100
AcDbEntity
8
0
100
AcDbBlockBegin
2
*D38
70
1
10
0
20
0
3
*D38
1

0
LINE
5
1CB
100
AcDbEntity
8
section_4_4_d
6
CONTINUOUS
62
7
370
0
100
AcDbLine
10
2359.5
20
4000
11
2974.5
21
4000
0
SOLID
5
1CC
100
AcDbEntity
8
section_4_4_d
6
CONTINUOUS
62
7
370
0
100
AcDbTrace
10
2359.5
20
4000
30
0
11
2407.5
21
4007.99266543
31
0
12
2407.5
22
3992.00733457
32
0
13
2407.5
23
3992.00733457
33
0
0
SOLID
5
1CD
100
AcDbEntity
8
section_4_4_d
6
CONTINUOUS
62
7
370
0
100
AcDbTrace
10
2974.5
20
4000
30
0
11
2926.5
21
3992.00733457
31
0
12
2926.5
22
4007.99266543
32
0
13
2926.5
23
4007.99266543
33
0
0
MTEXT
5
1CE
100
AcDbEntity
8
section_4_4_d
6
CONTINUOUS
62
7
370
0
100
AcDbMText
10
2667
20
4044
30
0
40
48
41
85.3333333333
71
5
72
1
1
615
7
standard
210
0
220
0
230
1
50
0
73
2
44
1
0
LINE
5
1CF
100
AcDbEntity
8
section_4_4_d
6
CONTINUOUS
62
7
370
0
100
AcDbLine
10
2359.5
20
4002.65034677
11
2359.5
21
4016
0
LINE
5
1D0
100
AcDbEntity
8
section_4_4_d
6
CONTINUOUS
62
7
370
0
100
AcDbLine
10
2974.5
20
4007.12167069
11
2974.5
21
4016
0
ENDBLK
5
C2
330
C0
100
AcDbEntity
8
0
100
AcDbBlockEnd
0
BLOCK
5
C4
330
C3
100
AcDbEntity
8
0
100
AcDbBlockBegin
2
*D50
70
1
10
0
20
0
3
*D50
1

0
LINE
5
1D1
100
AcDbEntity
8
section_4_4_d
6
CONTINUOUS
62
7
370
0
100
AcDbLine
10
3027
20
2800
11
3420
21
2800
0
SOLID
5
1D2
100
AcDbEntity
8
section_4_4_d
6
CONTINUOUS
62
7
370
0
100
AcDbTrace
10
3027
20
2800
30
0
11
3075
21
2807.99266543
31
0
12
3075
22
2792.00733457
32
0
13
3075
23
2792.00733457
33
0
0
SOLID
5
1D3
100
AcDbEntity
8
section_4_4_d
6
CONTINUOUS
62
7
370
0
100
AcDbTrace
10
3420
20
2800
30
0
11
3372
21
2792.00733457
31
0
12
3372
22
2807.99266543
32
0
13
3372
23
2807.99266543
33
0
0
MTEXT
5
1D4
100
AcDbEntity
8
section_4_4_d
6
CONTINUOUS
62
7
370
0
100
AcDbMText
10
3223.5
20
2844
30
0
40
48
41
96
71
5
72
1
1
393
7
standard
210
0
220
0
230
1
50
0
73
2
44
1
0
LINE
5
1D5
100
AcDbEntity
8
section_4_4_d
6
CONTINUOUS
62
7
370
0
100
AcDbLine
10
3027
20
2799.53310409
11
3027
21
2784
0
LINE
5
1D6
100
AcDbEntity
8
section_4_4_d
6
CONTINUOUS
62
7
370
0
100
AcDbLine
10
3420
20
2799.53310409
11
3420
21
2784
0
ENDBLK
5
C5
330
C3
100
AcDbEntity
8
0
100
AcDbBlockEnd
0
BLOCK
5
C7
330
C6
100
AcDbEntity
8
0
100
AcDbBlockBegin
2
*D18
70
1
10
0
20
0
3
*D18
1

0
LINE
5
1D7
100
AcDbEntity
8
sideview_d
6
CONTINUOUS
62
7
370
0
100
AcDbLine
10
843.682792195
20
4100
11
3817.3683702
21
4100
0
SOLID
5
1D8
100
AcDbEntity
8
sideview_d
6
CONTINUOUS
62
7
370
0
100
AcDbTrace
10
843.682792195
20
4100
30
0
11
891.682792195
21
4107.99266543
31
0
12
891.682792195
22
4092.00733457
32
0
13
891.682792195
23
4092.00733457
33
0
0
SOLID
5
1D9
100
AcDbEntity
8
sideview_d
6
CONTINUOUS
62
7
370
0
100
AcDbTrace
10
3817.3683702
20
4100
30
0
11
3769.3683702
21
4092.00733457
31
0
12
3769.3683702
22
4107.99266543
32
0
13
3769.3683702
23
4107.99266543
33
0
0
MTEXT
5
1DA
100
AcDbEntity
8
sideview_d
6
CONTINUOUS
62
7
370
0
100
AcDbMText
10
2330.5255812
20
4144
30
0
40
48
41
133.333333333
71
5
72
1
1
2975
7
standard
210
0
220
0
230
1
50
0
73
2
44
1
0
LINE
5
1DB
100
AcDbEntity
8
sideview_d
6
CONTINUOUS
62
7
370
0
100
AcDbLine
10
843.682792195
20
4095.13726717
11
843.682792195
21
4116
0
LINE
5
1DC
100
AcDbEntity
8
sideview_d
6
CONTINUOUS
62
7
370
0
100
AcDbLine
10
3817.3683702
20
4088.98964215
11
3817.3683702
21
4116
0
ENDBLK
5
C8
330
C6
100
AcDbEntity
8
0
100
AcDbBlockEnd
0
BLOCK
5
CA
330
C9
100
AcDbEntity
8
0
100
AcDbBlockBegin
2
*D35
70
1
10
0
20
0
3
*D35
1

0
LINE
5
1DD
100
AcDbEntity
8
section_1_1_d
6
CONTINUOUS
62
7
370
0
100
AcDbLine
10
2974.5
20
700
11
3412.5
21
700
0
SOLID
5
1DE
100
AcDbEntity
8
section_1_1_d
6
CONTINUOUS
62
7
370
0
100
AcDbTrace
10
2974.5
20
700
30
0
11
3022.5
21
707.992665429
31
0
12
3022.5
22
692.007334571
32
0
13
3022.5
23
692.007334571
33
0
0
SOLID
5
1DF
100
AcDbEntity
8
section_1_1_d
6
CONTINUOUS
62
7
370
0
100
AcDbTrace
10
3412.5
20
700
30
0
11
3364.5
21
692.007334571
31
0
12
3364.5
22
707.992665429
32
0
13
3364.5
23
707.992665429
33
0
0
MTEXT
5
1E0
100
AcDbEntity
8
section_1_1_d
6
CONTINUOUS
62
7
370
0
100
AcDbMText
10
3193.5
20
744
30
0
40
48
41
101.333333333
71
5
72
1
1
438
7
standard
210
0
220
0
230
1
50
0
73
2
44
1
0
LINE
5
1E1
100
AcDbEntity
8
section_1_1_d
6
CONTINUOUS
62
7
370
0
100
AcDbLine
10
2974.5
20
694.028300568
11
2974.5
21
684
0
LINE
5
1E2
100
AcDbEntity
8
section_1_1_d
6
CONTINUOUS
62
7
370
0
100
AcDbLine
10
3412.5
20
694.028300568
11
3412.5
21
684
0
ENDBLK
5
CB
330
C9
100
AcDbEntity
8
0
100
AcDbBlockEnd
0
BLOCK
5
CD
330
CC
100
AcDbEntity
8
0
100
AcDbBlockBegin
2
*D28
70
1
10
0
20
0
3
*D28
1

0
LINE
5
1E3
100
AcDbEntity
8
section_1_1_d
6
CONTINUOUS
62
7
370
0
100
AcDbLine
10
1307.5
20
4000
11
1744.5
21
4000
0
SOLID
5
1E4
100
AcDbEntity
8
section_1_1_d
6
CONTINUOUS
62
7
370
0
100
AcDbTrace
10
1307.5
20
4000
30
0
11
1355.5
21
4007.99266543
31
0
12
1355.5
22
3992.00733457
32
0
13
1355.5
23
3992.00733457
33
0
0
SOLID
5
1E5
100
AcDbEntity
8
section_1_1_d
6
CONTINUOUS
62
7
370
0
100
AcDbTrace
10
1744.5
20
4000
30
0
11
1696.5
21
3992.00733457
31
0
12
1696.5
22
4007.99266543
32
0
13
1696.5
23
4007.99266543
33
0
0
MTEXT
5
1E6
100
AcDbEntity
8
section_1_1_d
6
CONTINUOUS
62
7
370
0
100
AcDbMText
10
1526
20
4044
30
0
40
48
41
101.333333333
71
5
72
1
1
437
7
standard
210
0
220
0
230
1
50
0
73
2
44
1
0
LINE
5
1E7
100
AcDbEntity
8
section_1_1_d
6
CONTINUOUS
62
7
370
0
100
AcDbLine
10
1307.5
20
4013.38152418
11
1307.5
21
4016
0
LINE
5
1E8
100
AcDbEntity
8
section_1_1_d
6
CONTINUOUS
62
7
370
0
100
AcDbLine
10
1744.5
20
4013.38152418
11
1744.5
21
4016
0
ENDBLK
5
CE
330
CC
100
AcDbEntity
8
0
100
AcDbBlockEnd
0
BLOCK
5
D0
330
CF
100
AcDbEntity
8
0
100
AcDbBlockBegin
2
*D36
70
1
10
0
20
0
3
*D36
1

0
LINE
5
1E9
100
AcDbEntity
8
section_4_4_d
6
CONTINUOUS
62
7
370
0
100
AcDbLine
10
1307.5
20
4000
11
1744.5
21
4000
0
SOLID
5
1EA
100
AcDbEntity
8
section_4_4_d
6
CONTINUOUS
62
7
370
0
100
AcDbTrace
10
1307.5
20
4000
30
0
11
1355.5
21
4007.99266543
31
0
12
1355.5
22
3992.00733457
32
0
13
1355.5
23
3992.00733457
33
0
0
SOLID
5
1EB
100
AcDbEntity
8
section_4_4_d
6
CONTINUOUS
62
7
370
0
100
AcDbTrace
10
1744.5
20
4000
30
0
11
1696.5
21
3992.00733457
31
0
12
1696.5
22
4007.99266543
32
0
13
1696.5
23
4007.99266543
33
0
0
MTEXT
5
1EC
100
AcDbEntity
8
section_4_4_d
6
CONTINUOUS
62
7
370
0
100
AcDbMText
10
1526
20
4044
30
0
40
48
41
101.333333333
71
5
72
1
1
437
7
standard
210
0
220
0
230
1
50
0
73
2
44
1
0
LINE
5
1ED
100
AcDbEntity
8
section_4_4_d
6
CONTINUOUS
62
7
370
0
100
AcDbLine
10
1307.5
20
4016.06431853
11
1307.5
21
4016
0
LINE
5
1EE
100
AcDbEntity
8
section_4_4_d
6
CONTINUOUS
62
7
370
0
100
AcDbLine
10
1744.5
20
4016.06431853
11
1744.5
21
4016
0
ENDBLK
5
D1
330
CF
100
AcDbEntity
8
0
100
AcDbBlockEnd
0
BLOCK
5
D3
330
D2
100
AcDbEntity
8
0
100
AcDbBlockBegin
2
*D1
70
1
10
0
20
0
3
*D1
1

0
LINE
5
1EF
100
AcDbEntity
8
section_1_1_d
6
CONTINUOUS
62
7
370
0
100
AcDbLine
10
1290
20
600
11
3430
21
600
0
SOLID
5
1F0
100
AcDbEntity
8
section_1_1_d
6
CONTINUOUS
62
7
370
0
100
AcDbTrace
10
1290
20
600
30
0
11
1338
21
607.992665429
31
0
12
1338
22
592.007334571
32
0
13
1338
23
592.007334571
33
0
0
SOLID
5
1F1
100
AcDbEntity
8
section_1_1_d
6
CONTINUOUS
62
7
370
0
100
AcDbTrace
10
3430
20
600
30
0
11
3382
21
592.007334571
31
0
12
3382
22
607.992665429
32
0
13
3382
23
607.992665429
33
0
0
MTEXT
5
1F2
100
AcDbEntity
8
section_1_1_d
6
CONTINUOUS
62
7
370
0
100
AcDbMText
10
2360
20
644
30
0
40
48
41
128
71
5
72
1
1
2140
7
standard
210
0
220
0
230
1
50
0
73
2
44
1
0
LINE
5
1F3
100
AcDbEntity
8
section_1_1_d
6
CONTINUOUS
62
7
370
0
100
AcDbLine
10
1290
20
627.93419016
11
1290
21
584
0
LINE
5
1F4
100
AcDbEntity
8
section_1_1_d
6
CONTINUOUS
62
7
370
0
100
AcDbLine
10
3430
20
624.01549542
11
3430
21
584
0
ENDBLK
5
D4
330
D2
100
AcDbEntity
8
0
100
AcDbBlockEnd
0
BLOCK
5
D6
330
D5
100
AcDbEntity
8
0
100
AcDbBlockBegin
2
*D5
70
1
10
0
20
0
3
*D5
1

0
LINE
5
1F5
100
AcDbEntity
8
section_1_1_d
6
CONTINUOUS
62
7
370
0
100
AcDbLine
10
4100
20
3464
11
4100
21
1099
0
SOLID
5
1F6
100
AcDbEntity
8
section_1_1_d
6
CONTINUOUS
62
7
370
0
100
AcDbTrace
10
4100
20
3464
30
0
11
4107.99266543
21
3416
31
0
12
4092.00733457
22
3416
32
0
13
4092.00733457
23
3416
33
0
0
SOLID
5
1F7
100
AcDbEntity
8
section_1_1_d
6
CONTINUOUS
62
7
370
0
100
AcDbTrace
10
4100
20
1099
30
0
11
4092.00733457
21
1147
31
0
12
4107.99266543
22
1147
32
0
13
4107.99266543
23
1147
33
0
0
MTEXT
5
1F8
100
AcDbEntity
8
section_1_1_d
6
CONTINUOUS
62
7
370
0
100
AcDbMText
10
4056
20
2281.5
30
0
40
48
41
133.333333333
71
5
72
1
1
2365
7
standard
210
0
220
0
230
1
50
90
73
2
44
1
0
LINE
5
1F9
100
AcDbEntity
8
section_1_1_d
6
CONTINUOUS
62
7
370
0
100
AcDbLine
10
4087.76011714
20
3464
11
4116
21
3464
0
LINE
5
1FA
100
AcDbEntity
8
section_1_1_d
6
CONTINUOUS
62
7
370
0
100
AcDbLine
10
4082.84201712
20
1099
11
4116
21
1099
0
ENDBLK
5
D7
330
D5
100
AcDbEntity
8
0
100
AcDbBlockEnd
0
BLOCK
5
D9
330
D8
100
AcDbEntity
8
0
100
AcDbBlockBegin
2
*D6
70
1
10
0
20
0
3
*D6
1

0
LINE
5
1FB
100
AcDbEntity
8
section_1_1_d
6
CONTINUOUS
62
7
370
0
100
AcDbLine
10
4100
20
1099
11
4100
21
830
0
SOLID
5
1FC
100
AcDbEntity
8
section_1_1_d
6
CONTINUOUS
62
7
370
0
100
AcDbTrace
10
4100
20
1099
30
0
11
4107.99266543
21
1051
31
0
12
4092.00733457
22
1051
32
0
13
4092.00733457
23
1051
33
0
0
SOLID
5
1FD
100
AcDbEntity
8
section_1_1_d
6
CONTINUOUS
62
7
370
0
100
AcDbTrace
10
4100
20
830
30
0
11
4092.00733457
21
878
31
0
12
4107.99266543
22
878
32
0
13
4107.99266543
23
878
33
0
0
MTEXT
5
1FE
100
AcDbEntity
8
section_1_1_d
6
CONTINUOUS
62
7
370
0
100
AcDbMText
10
4056
20
964.5
30
0
40
48
41
96
71
5
72
1
1
270
7
standard
210
0
220
0
230
1
50
90
73
2
44
1
0
LINE
5
1FF
100
AcDbEntity
8
section_1_1_d
6
CONTINUOUS
62
7
370
0
100
AcDbLine
10
4087.76011714
20
1099
11
4116
21
1099
0
LINE
5
200
100
AcDbEntity
8
section_1_1_d
6
CONTINUOUS
62
7
370
0
100
AcDbLine
10
4077.9239171
20
830
11
4116
21
830
0
ENDBLK
5
DA
330
D8
100
AcDbEntity
8
0
100
AcDbBlockEnd
0
BLOCK
5
DC
330
DB
100
AcDbEntity
8
0
100
AcDbBlockBegin
2
*D46
70
1
10
0
20
0
3
*D46
1

0
LINE
5
201
100
AcDbEntity
8
section_4_4_d
6
CONTINUOUS
62
7
370
0
100
AcDbLine
10
3900
20
1914
11
3900
21
2314
0
SOLID
5
202
100
AcDbEntity
8
section_4_4_d
6
CONTINUOUS
62
7
370
0
100
AcDbTrace
10
3900
20
1914
30
0
11
3892.00733457
21
1962
31
0
12
3907.99266543
22
1962
32
0
13
3907.99266543
23
1962
33
0
0
SOLID
5
203
100
AcDbEntity
8
section_4_4_d
6
CONTINUOUS
62
7
370
0
100
AcDbTrace
10
3900
20
2314
30
0
11
3907.99266543
21
2266
31
0
12
3892.00733457
22
2266
32
0
13
3892.00733457
23
2266
33
0
0
MTEXT
5
204
100
AcDbEntity
8
section_4_4_d
6
CONTINUOUS
62
7
370
0
100
AcDbMText
10
3856
20
2114
30
0
40
48
41
101.333333333
71
5
72
1
1
400
7
standard
210
0
220
0
230
1
50
90
73
2
44
1
0
LINE
5
205
100
AcDbEntity
8
section_4_4_d
6
CONTINUOUS
62
7
370
0
100
AcDbLine
10
3898.01757373
20
1914
11
3916
21
1914
0
LINE
5
206
100
AcDbEntity
8
section_4_4_d
6
CONTINUOUS
62
7
370
0
100
AcDbLine
10
3898.01757373
20
2314
11
3916
21
2314
0
ENDBLK
5
DD
330
DB
100
AcDbEntity
8
0
100
AcDbBlockEnd
0
BLOCK
5
DF
330
DE
100
AcDbEntity
8
0
100
AcDbBlockBegin
2
*D21
70
1
10
0
20
0
3
*D21
1

0
LINE
5
207
100
AcDbEntity
8
sideview_d
6
CONTINUOUS
62
7
370
0
100
AcDbLine
10
4100
20
1099
11
4100
21
830
0
SOLID
5
208
100
AcDbEntity
8
sideview_d
6
CONTINUOUS
62
7
370
0
100
AcDbTrace
10
4100
20
1099
30
0
11
4107.99266543
21
1051
31
0
12
4092.00733457
22
1051
32
0
13
4092.00733457
23
1051
33
0
0
SOLID
5
209
100
AcDbEntity
8
sideview_d
6
CONTINUOUS
62
7
370
0
100
AcDbTrace
10
4100
20
830
30
0
11
4092.00733457
21
878
31
0
12
4107.99266543
22
878
32
0
13
4107.99266543
23
878
33
0
0
MTEXT
5
20A
100
AcDbEntity
8
sideview_d
6
CONTINUOUS
62
7
370
0
100
AcDbMText
10
4056
20
964.5
30
0
40
48
41
96
71
5
72
1
1
270
7
standard
210
0
220
0
230
1
50
90
73
2
44
1
0
LINE
5
20B
100
AcDbEntity
8
sideview_d
6
CONTINUOUS
62
7
370
0
100
AcDbLine
10
4087.76011714
20
1099
11
4116
21
1099
0
LINE
5
20C
100
AcDbEntity
8
sideview_d
6
CONTINUOUS
62
7
370
0
100
AcDbLine
10
4077.9239171
20
830
11
4116
21
830
0
ENDBLK
5
E0
330
DE
100
AcDbEntity
8
0
100
AcDbBlockEnd
0
BLOCK
5
E2
330
E1
100
AcDbEntity
8
0
100
AcDbBlockBegin
2
*D20
70
1
10
0
20
0
3
*D20
1

0
LINE
5
20D
100
AcDbEntity
8
sideview_d
6
CONTINUOUS
62
7
370
0
100
AcDbLine
10
4100
20
3464
11
4100
21
1099
0
SOLID
5
20E
100
AcDbEntity
8
sideview_d
6
CONTINUOUS
62
7
370
0
100
AcDbTrace
10
4100
20
3464
30
0
11
4107.99266543
21
3416
31
0
12
4092.00733457
22
3416
32
0
13
4092.00733457
23
3416
33
0
0
SOLID
5
20F
100
AcDbEntity
8
sideview_d
6
CONTINUOUS
62
7
370
0
100
AcDbTrace
10
4100
20
1099
30
0
11
4092.00733457
21
1147
31
0
12
4107.99266543
22
1147
32
0
13
4107.99266543
23
1147
33
0
0
MTEXT
5
210
100
AcDbEntity
8
sideview_d
6
CONTINUOUS
62
7
370
0
100
AcDbMText
10
4056
20
2281.5
30
0
40
48
41
133.333333333
71
5
72
1
1
2365
7
standard
210
0
220
0
230
1
50
90
73
2
44
1
0
LINE
5
211
100
AcDbEntity
8
sideview_d
6
CONTINUOUS
62
7
370
0
100
AcDbLine
10
4087.76011714
20
3464
11
4116
21
3464
0
LINE
5
212
100
AcDbEntity
8
sideview_d
6
CONTINUOUS
62
7
370
0
100
AcDbLine
10
4082.84201712
20
1099
11
4116
21
1099
0
ENDBLK
5
E3
330
E1
100
AcDbEntity
8
0
100
AcDbBlockEnd
0
BLOCK
5
E5
330
E4
100
AcDbEntity
8
0
100
AcDbBlockBegin
2
*D13
70
1
10
0
20
0
3
*D13
1

0
LINE
5
213
100
AcDbEntity
8
section_4_4_d
6
CONTINUOUS
62
7
370
0
100
AcDbLine
10
4100
20
3464
11
4100
21
1099
0
SOLID
5
214
100
AcDbEntity
8
section_4_4_d
6
CONTINUOUS
62
7
370
0
100
AcDbTrace
10
4100
20
3464
30
0
11
4107.99266543
21
3416
31
0
12
4092.00733457
22
3416
32
0
13
4092.00733457
23
3416
33
0
0
SOLID
5
215
100
AcDbEntity
8
section_4_4_d
6
CONTINUOUS
62
7
370
0
100
AcDbTrace
10
4100
20
1099
30
0
11
4092.00733457
21
1147
31
0
12
4107.99266543
22
1147
32
0
13
4107.99266543
23
1147
33
0
0
MTEXT
5
216
100
AcDbEntity
8
section_4_4_d
6
CONTINUOUS
62
7
370
0
100
AcDbMText
10
4056
20
2281.5
30
0
40
48
41
133.333333333
71
5
72
1
1
2365
7
standard
210
0
220
0
230
1
50
90
73
2
44
1
0
LINE
5
217
100
AcDbEntity
8
section_4_4_d
6
CONTINUOUS
62
7
370
0
100
AcDbLine
10
4087.76011714
20
3464
11
4116
21
3464
0
LINE
5
218
100
AcDbEntity
8
section_4_4_d
6
CONTINUOUS
62
7
370
0
100
AcDbLine
10
4082.84201712
20
1099
11
4116
21
1099
0
ENDBLK
5
E6
330
E4
100
AcDbEntity
8
0
100
AcDbBlockEnd
0
BLOCK
5
E8
330
E7
100
AcDbEntity
8
0
100
AcDbBlockBegin
2
a3-0
70
0
10
0
20
0
3
a3-0
1

0
LINE
5
219
100
AcDbEntity
8
0
6
ByLayer
62
256
370
-1
100
AcDbLine
10
4100
20
2870
11
4100
21
100
0
LINE
5
21A
100
AcDbEntity
8
0
6
ByLayer
62
256
370
-1
100
AcDbLine
10
200
20
2870
11
200
21
100
0
LINE
5
21B
100
AcDbEntity
8
0
6
ByLayer
62
256
370
-1
100
AcDbLine
10
200
20
100
11
4100
21
100
0
LINE
5
21C
100
AcDbEntity
8
0
6
ByLayer
62
256
370
-1
100
AcDbLine
10
200
20
2870
11
4100
21
2870
0
LINE
5
21D
100
AcDbEntity
8
0
6
ByLayer
62
7
370
-1
100
AcDbLine
10
3200
20
700
11
3900
21
700
0
LINE
5
21E
100
AcDbEntity
8
0
6
ByLayer
62
256
370
-1
100
AcDbLine
10
3900
20
800
11
3900
21
600
0
LINE
5
21F
100
AcDbEntity
8
0
6
ByLayer
62
7
370
-1
100
AcDbLine
10
3500
20
800
11
3500
21
600
0
MTEXT
5
220
100
AcDbEntity
8
0
6
ByLayer
62
256
370
-1
100
AcDbMText
10
3231.449088
20
769.746176
30
0
40
40
41
233.333324853
71
1
72
5
1
SIZE  A3
7
iso
210
0
220
0
230
1
50
0
73
2
44
0.96
0
MTEXT
5
221
100
AcDbEntity
8
0
6
ByLayer
62
256
370
-1
100
AcDbMText
10
3229.61408
20
674.32576
30
0
40
40
41
243.333324853
71
1
72
5
1
SCALE 1:1
7
iso
210
0
220
0
230
1
50
0
73
2
44
0.96
0
MTEXT
5
222
100
AcDbEntity
8
0
6
ByLayer
62
256
370
-1
100
AcDbMText
10
3609.460736
20
666.985728
30
0
40
40
41
168.888880409
71
1
72
5
1
AS1100
7
iso
210
0
220
0
230
1
50
0
73
2
44
0.96
0
MTEXT
5
223
100
AcDbEntity
8
0
6
ByLayer
62
256
370
-1
100
AcDbMText
10
3444.310016
20
933.061888
30
0
40
60
41
365
71
1
72
5
1
ANDY XU
7
iso
210
0
220
0
230
1
50
0
73
2
44
0.96
0
MTEXT
5
224
100
AcDbEntity
8
0
6
ByLayer
62
256
370
-1
100
AcDbMText
10
3920
20
748.333332468
30
0
40
30
41
103.344762494
71
7
72
5
1
sheet
7
normal#0.500000#0.900000
210
0
220
0
230
1
50
0
73
1
44
0.96
0
LINE
5
225
100
AcDbEntity
8
0
6
ByLayer
62
256
370
-1
100
AcDbLine
10
3800
20
600.001
11
3800
21
100
0
LINE
5
226
100
AcDbEntity
8
0
6
ByLayer
62
256
370
-1
100
AcDbLine
10
3948
20
228
11
3948
21
172
0
CIRCLE
5
227
100
AcDbEntity
8
0
6
ByLayer
62
256
370
-1
100
AcDbCircle
10
4012
20
200
40
28
0
LINE
5
228
100
AcDbEntity
8
0
6
ByLayer
62
256
370
-1
100
AcDbLine
10
3860
20
200
11
4060
21
200
0
LINE
5
229
100
AcDbEntity
8
0
6
ByLayer
62
256
370
-1
100
AcDbLine
10
3884
20
216
11
3948
21
228
0
LINE
5
22A
100
AcDbEntity
8
0
6
ByLayer
62
256
370
-1
100
AcDbLine
10
3884
20
184
11
3948
21
172
0
LINE
5
22B
100
AcDbEntity
8
0
6
ByLayer
62
256
370
-1
100
AcDbLine
10
3884
20
216
11
3884
21
184
0
LINE
5
22C
100
AcDbEntity
8
0
6
ByLayer
62
256
370
-1
100
AcDbLine
10
4012
20
152
11
4012
21
248
0
CIRCLE
5
22D
100
AcDbEntity
8
0
6
ByLayer
62
256
370
-1
100
AcDbCircle
10
4012
20
200
40
16
0
LINE
5
22E
100
AcDbEntity
8
0
6
ByLayer
62
256
370
-1
100
AcDbLine
10
3200
20
1000
11
4100
21
1000
0
LINE
5
22F
100
AcDbEntity
8
0
6
ByLayer
62
256
370
-1
100
AcDbLine
10
3200
20
800.0005625
11
4100
21
800
0
LINE
5
230
100
AcDbEntity
8
0
6
ByLayer
62
256
370
-1
100
AcDbLine
10
3200
20
600.001
11
4100
21
600.001
0
LINE
5
231
100
AcDbEntity
8
0
6
ByLayer
62
256
370
-1
100
AcDbLine
10
3200
20
300
11
4100
21
300
0
LINE
5
232
100
AcDbEntity
8
0
6
ByLayer
62
256
370
-1
100
AcDbLine
10
3200
20
1100.0005625
11
4100
21
1100
0
LINE
5
233
100
AcDbEntity
8
0
6
ByLayer
62
256
370
-1
100
AcDbLine
10
3200
20
1100.0005625
11
3200
21
100
0
LINE
5
234
100
AcDbEntity
8
0
6
ByLayer
62
256
370
-1
100
AcDbLine
10
3200
20
525.001
11
4100
21
525.001
0
LINE
5
235
100
AcDbEntity
8
0
6
ByLayer
62
256
370
-1
100
AcDbLine
10
3200
20
450.001
11
4100
21
450.001
0
LINE
5
236
100
AcDbEntity
8
0
6
ByLayer
62
256
370
-1
100
AcDbLine
10
3200
20
375.001
11
4100
21
375.001
0
ENDBLK
5
E9
330
E7
100
AcDbEntity
8
0
100
AcDbBlockEnd
0
BLOCK
5
EB
330
EA
100
AcDbEntity
8
0
100
AcDbBlockBegin
2
A3_Xu-0
70
0
10
0
20
0
3
A3_Xu-0
1

0
INSERT
5
237
100
AcDbEntity
8
0
6
ByLayer
62
256
370
-1
100
AcDbBlockReference
2
a3-0
10
0
20
0
30
0
41
1
42
1
43
0
50
0
70
1
71
1
44
0
45
0
0
ENDBLK
5
EC
330
EA
100
AcDbEntity
8
0
100
AcDbBlockEnd
0
ENDSEC
0
SECTION
2
ENTITIES
0
HATCH
5
238
100
AcDbEntity
8
Foundation
6
ByLayer
62
256
370
-1
100
AcDbHatch
10
0
20
0
30
0
210
0
220
0
230
1
2
kerpele
70
0
71
0
91
1
92
0
93
4
72
1
10
1200
20
1064
11
3520
21
1064
72
1
10
3520
20
1064
11
3520
21
1045
72
1
10
3520
20
1045
11
1200
21
1045
72
1
10
1200
20
1045
11
1200
21
1064
97
0
75
0
76
1
52
4.71238898038
41
1
77
0
78
0
98
0
0
HATCH
5
239
100
AcDbEntity
8
Foundation
6
ByLayer
62
256
370
-1
100
AcDbHatch
10
0
20
0
30
0
210
0
220
0
230
1
2
kerpele
70
0
71
0
91
1
92
0
93
4
72
1
10
2257
20
830
11
2463
21
830
72
1
10
2463
20
830
11
2463
21
710
72
1
10
2463
20
710
11
2257
21
710
72
1
10
2257
20
710
11
2257
21
830
97
0
75
0
76
1
52
0
41
1
77
0
78
0
98
0
0
HATCH
5
23A
100
AcDbEntity
8
Foundation
6
ByLayer
62
256
370
-1
100
AcDbHatch
10
0
20
0
30
0
210
0
220
0
230
1
2
kerpele
70
0
71
0
91
1
92
0
93
4
72
1
10
1142
20
830
11
1348
21
830
72
1
10
1348
20
830
11
1348
21
710
72
1
10
1348
20
710
11
1142
21
710
72
1
10
1142
20
710
11
1142
21
830
97
0
75
0
76
1
52
0
41
1
77
0
78
0
98
0
0
HATCH
5
23B
100
AcDbEntity
8
Foundation
6
ByLayer
62
256
370
-1
100
AcDbHatch
10
0
20
0
30
0
210
0
220
0
230
1
2
kerpele
70
0
71
0
91
1
92
0
93
4
72
1
10
3372
20
830
11
3578
21
830
72
1
10
3578
20
830
11
3578
21
710
72
1
10
3578
20
710
11
3372
21
710
72
1
10
3372
20
710
11
3372
21
830
97
0
75
0
76
1
52
0
41
1
77
0
78
0
98
0
0
INSERT
5
23C
100
AcDbEntity
8
0
6
ByLayer
62
256
370
-1
100
AcDbBlockReference
2
A3_Xu-0
10
-320
20
-160
30
0
41
1.6
42
1.6
43
0
50
0
70
1
71
1
44
0
45
0
0
LINE
5
23D
100
AcDbEntity
8
Foundation
6
ByLayer
62
256
370
-1
100
AcDbLine
10
1200
20
1064
11
3520
21
1064
0
LINE
5
23E
100
AcDbEntity
8
section_1_1
6
ByLayer
62
256
370
-1
100
AcDbLine
10
1200
20
1099
11
3520
21
1099
0
LINE
5
23F
100
AcDbEntity
8
section_1_1
6
ByLayer
62
256
370
-1
100
AcDbLine
10
1200
20
1064
11
1290
21
1099
0
LINE
5
240
100
AcDbEntity
8
section_1_1
6
ByLayer
62
256
370
-1
100
AcDbLine
10
1200
20
1099
11
1290
21
1064
0
LINE
5
241
100
AcDbEntity
8
section_1_1
6
ByLayer
62
256
370
-1
100
AcDbLine
10
3520
20
1099
11
3430
21
1064
0
LINE
5
242
100
AcDbEntity
8
section_1_1
6
ByLayer
62
256
370
-1
100
AcDbLine
10
3430
20
1099
11
3520
21
1064
0
LINE
5
243
100
AcDbEntity
8
Foundation
6
ByLayer
62
256
370
-1
100
AcDbLine
10
1200
20
1045
11
3520
21
1045
0
LINE
5
244
100
AcDbEntity
8
Foundation
6
ByLayer
62
256
370
-1
100
AcDbLine
10
1200
20
1000
11
3520
21
1000
0
LINE
5
245
100
AcDbEntity
8
Foundation
6
ByLayer
62
256
370
-1
100
AcDbLine
10
1200
20
1045
11
1200
21
1000
0
LINE
5
246
100
AcDbEntity
8
Foundation
6
ByLayer
62
256
370
-1
100
AcDbLine
10
3520
20
1064
11
3520
21
1045
0
LINE
5
247
100
AcDbEntity
8
Foundation
6
ByLayer
62
256
370
-1
100
AcDbLine
10
3520
20
1045
11
3520
21
1000
0
LINE
5
248
100
AcDbEntity
8
section_4_4
6
ByLayer
62
256
370
-1
100
AcDbLine
10
1200
20
1064
11
1290
21
1099
0
LINE
5
249
100
AcDbEntity
8
section_4_4
6
ByLayer
62
256
370
-1
100
AcDbLine
10
1200
20
1099
11
1290
21
1064
0
LINE
5
24A
100
AcDbEntity
8
section_4_4
6
ByLayer
62
256
370
-1
100
AcDbLine
10
3520
20
1099
11
3430
21
1064
0
LINE
5
24B
100
AcDbEntity
8
section_4_4
6
ByLayer
62
256
370
-1
100
AcDbLine
10
3430
20
1099
11
3520
21
1064
0
LINE
5
24C
100
AcDbEntity
8
section_4_4
6
ByLayer
62
256
370
-1
100
AcDbLine
10
1200
20
1099
11
1290
21
1099
0
LINE
5
24D
100
AcDbEntity
8
section_4_4
6
ByLayer
62
256
370
-1
100
AcDbLine
10
3430
20
1099
11
3520
21
1099
0
LINE
5
24E
100
AcDbEntity
8
sideview
6
ByLayer
62
256
370
-1
100
AcDbLine
10
1200
20
1000
11
3520
21
1000
0
LINE
5
24F
100
AcDbEntity
8
sideview
6
ByLayer
62
256
370
-1
100
AcDbLine
10
1200
20
1064
11
1200
21
1045
0
LINE
5
250
100
AcDbEntity
8
sideview
6
ByLayer
62
256
370
-1
100
AcDbLine
10
1200
20
1045
11
1200
21
1000
0
LINE
5
251
100
AcDbEntity
8
sideview
6
ByLayer
62
256
370
-1
100
AcDbLine
10
3520
20
1064
11
3520
21
1045
0
LINE
5
252
100
AcDbEntity
8
sideview
6
ByLayer
62
256
370
-1
100
AcDbLine
10
3520
20
1045
11
3520
21
1000
0
LINE
5
253
100
AcDbEntity
8
sideview
6
ByLayer
62
256
370
-1
100
AcDbLine
10
1200
20
1170
11
3520
21
1170
0
LINE
5
254
100
AcDbEntity
8
sideview
6
ByLayer
62
256
370
-1
100
AcDbLine
10
1200
20
1150
11
3520
21
1150
0
LINE
5
255
100
AcDbEntity
8
sideview
6
ByLayer
62
256
370
-1
100
AcDbLine
10
1200
20
1340
11
3520
21
1340
0
LINE
5
256
100
AcDbEntity
8
sideview
6
ByLayer
62
256
370
-1
100
AcDbLine
10
1200
20
1320
11
3520
21
1320
0
LINE
5
257
100
AcDbEntity
8
sideview
6
ByLayer
62
256
370
-1
100
AcDbLine
10
1200
20
1510
11
3520
21
1510
0
LINE
5
258
100
AcDbEntity
8
sideview
6
ByLayer
62
256
370
-1
100
AcDbLine
10
1200
20
1490
11
3520
21
1490
0
LINE
5
259
100
AcDbEntity
8
sideview
6
ByLayer
62
256
370
-1
100
AcDbLine
10
1200
20
1680
11
3520
21
1680
0
LINE
5
25A
100
AcDbEntity
8
sideview
6
ByLayer
62
256
370
-1
100
AcDbLine
10
1200
20
1660
11
3520
21
1660
0
LINE
5
25B
100
AcDbEntity
8
sideview
6
ByLayer
62
256
370
-1
100
AcDbLine
10
1200
20
1830
11
3520
21
1830
0
LINE
5
25C
100
AcDbEntity
8
sideview
6
ByLayer
62
256
370
-1
100
AcDbLine
10
1200
20
2870
11
3520
21
2870
0
LINE
5
25D
100
AcDbEntity
8
sideview
6
ByLayer
62
256
370
-1
100
AcDbLine
10
1200
20
3040
11
3520
21
3040
0
LINE
5
25E
100
AcDbEntity
8
sideview
6
ByLayer
62
256
370
-1
100
AcDbLine
10
1200
20
3020
11
3520
21
3020
0
LINE
5
25F
100
AcDbEntity
8
sideview
6
ByLayer
62
256
370
-1
100
AcDbLine
10
1200
20
3210
11
3520
21
3210
0
LINE
5
260
100
AcDbEntity
8
sideview
6
ByLayer
62
256
370
-1
100
AcDbLine
10
1200
20
3190
11
3520
21
3190
0
LINE
5
261
100
AcDbEntity
8
sideview
6
ByLayer
62
256
370
-1
100
AcDbLine
10
1398
20
1010
11
1400
21
1010
0
LINE
5
262
100
AcDbEntity
8
sideview
6
ByLayer
62
256
370
-1
100
AcDbLine
10
1490
20
1010
11
1492
21
1010
0
LINE
5
263
100
AcDbEntity
8
sideview
6
ByLayer
62
256
370
-1
100
AcDbLine
10
1445
20
1000
11
1400
21
1000
0
LINE
5
264
100
AcDbEntity
8
sideview
6
ByLayer
62
256
370
-1
100
AcDbLine
10
1490
20
1000
11
1445
21
1000
0
LINE
5
265
100
AcDbEntity
8
sideview
6
ByLayer
62
256
370
-1
100
AcDbLine
10
2313
20
1010
11
2315
21
1010
0
LINE
5
266
100
AcDbEntity
8
sideview
6
ByLayer
62
256
370
-1
100
AcDbLine
10
2405
20
1010
11
2407
21
1010
0
LINE
5
267
100
AcDbEntity
8
sideview
6
ByLayer
62
256
370
-1
100
AcDbLine
10
2360
20
1000
11
2315
21
1000
0
LINE
5
268
100
AcDbEntity
8
sideview
6
ByLayer
62
256
370
-1
100
AcDbLine
10
2405
20
1000
11
2360
21
1000
0
LINE
5
269
100
AcDbEntity
8
sideview
6
ByLayer
62
256
370
-1
100
AcDbLine
10
3228
20
1010
11
3230
21
1010
0
LINE
5
26A
100
AcDbEntity
8
sideview
6
ByLayer
62
256
370
-1
100
AcDbLine
10
3320
20
1010
11
3322
21
1010
0
LINE
5
26B
100
AcDbEntity
8
sideview
6
ByLayer
62
256
370
-1
100
AcDbLine
10
3275
20
1000
11
3230
21
1000
0
LINE
5
26C
100
AcDbEntity
8
sideview
6
ByLayer
62
256
370
-1
100
AcDbLine
10
3320
20
1000
11
3275
21
1000
0
LINE
5
26D
100
AcDbEntity
8
Foundation
6
ByLayer
62
256
370
-1
100
AcDbLine
10
2313
20
908
11
2313
21
1010
0
LINE
5
26E
100
AcDbEntity
8
Foundation
6
ByLayer
62
256
370
-1
100
AcDbLine
10
2405
20
908
11
2313
21
908
0
LINE
5
26F
100
AcDbEntity
8
Foundation
6
ByLayer
62
256
370
-1
100
AcDbLine
10
2407
20
1010
11
2407
21
908
0
LINE
5
270
100
AcDbEntity
8
Foundation
6
ByLayer
62
256
370
-1
100
AcDbLine
10
2313
20
1010
11
2315
21
1010
0
LINE
5
271
100
AcDbEntity
8
Foundation
6
ByLayer
62
256
370
-1
100
AcDbLine
10
2405
20
1010
11
2407
21
1010
0
LINE
5
272
100
AcDbEntity
8
Foundation
6
ByLayer
62
256
370
-1
100
AcDbLine
10
2405
20
908
11
2407
21
908
0
LINE
5
273
100
AcDbEntity
8
Foundation
6
ByLayer
62
256
370
-1
100
AcDbLine
10
2405
20
1010
11
2405
21
910
0
LINE
5
274
100
AcDbEntity
8
Foundation
6
ByLayer
62
256
370
-1
100
AcDbLine
10
2315
20
910
11
2315
21
1010
0
LINE
5
275
100
AcDbEntity
8
Foundation
6
ByLayer
62
256
370
-1
100
AcDbLine
10
2405
20
910
11
2315
21
910
0
LINE
5
276
100
AcDbEntity
8
Foundation
6
ByLayer
62
256
370
-1
100
AcDbLine
10
2315
20
910
11
2360
21
910
0
LINE
5
277
100
AcDbEntity
8
Foundation
6
ByLayer
62
256
370
-1
100
AcDbLine
10
2360
20
910
11
2360
21
1000
0
LINE
5
278
100
AcDbEntity
8
Foundation
6
ByLayer
62
256
370
-1
100
AcDbLine
10
2360
20
1000
11
2315
21
1000
0
LINE
5
279
100
AcDbEntity
8
Foundation
6
ByLayer
62
256
370
-1
100
AcDbLine
10
2315
20
1000
11
2315
21
910
0
LINE
5
27A
100
AcDbEntity
8
Foundation
6
ByLayer
62
256
370
-1
100
AcDbLine
10
2360
20
910
11
2405
21
910
0
LINE
5
27B
100
AcDbEntity
8
Foundation
6
ByLayer
62
256
370
-1
100
AcDbLine
10
2405
20
910
11
2405
21
1000
0
LINE
5
27C
100
AcDbEntity
8
Foundation
6
ByLayer
62
256
370
-1
100
AcDbLine
10
2405
20
1000
11
2360
21
1000
0
LINE
5
27D
100
AcDbEntity
8
Foundation
6
ByLayer
62
256
370
-1
100
AcDbLine
10
2360
20
1000
11
2360
21
910
0
LINE
5
27E
100
AcDbEntity
8
Foundation
6
ByLayer
62
256
370
-1
100
AcDbLine
10
2315
20
1000
11
2360
21
910
0
LINE
5
27F
100
AcDbEntity
8
Foundation
6
ByLayer
62
256
370
-1
100
AcDbLine
10
2360
20
1000
11
2315
21
910
0
LINE
5
280
100
AcDbEntity
8
Foundation
6
ByLayer
62
256
370
-1
100
AcDbLine
10
2360
20
1000
11
2405
21
910
0
LINE
5
281
100
AcDbEntity
8
Foundation
6
ByLayer
62
256
370
-1
100
AcDbLine
10
2360
20
910
11
2405
21
1000
0
LINE
5
282
100
AcDbEntity
8
Foundation
6
ByLayer
62
256
370
-1
100
AcDbLine
10
2360
20
908
11
2360
21
830
0
LINE
5
283
100
AcDbEntity
8
Foundation
6
ByLayer
62
256
370
-1
100
AcDbLine
10
2363
20
908
11
2363
21
830
0
LINE
5
284
100
AcDbEntity
8
Foundation
6
ByLayer
62
256
370
-1
100
AcDbLine
10
2357
20
908
11
2357
21
830
0
LINE
5
285
100
AcDbEntity
8
Foundation
6
ByLayer
62
256
370
-1
100
AcDbLine
10
2257
20
830
11
2463
21
830
0
LINE
5
286
100
AcDbEntity
8
Foundation
6
ByLayer
62
256
370
-1
100
AcDbLine
10
2257
20
830
11
2463
21
830
0
LINE
5
287
100
AcDbEntity
8
sideview
6
ByLayer
62
256
370
-1
100
AcDbLine
10
1200
20
1850
11
3520
21
1850
0
LINE
5
288
100
AcDbEntity
8
sideview
6
ByLayer
62
256
370
-1
100
AcDbLine
10
1200
20
2850
11
3520
21
2850
0
LINE
5
289
100
AcDbEntity
8
section_1_1_d
6
CENTER2
62
256
370
-1
100
AcDbLine
10
2359.5
20
949
11
2359.5
21
299
0
LINE
5
28A
100
AcDbEntity
8
section_1_1_d
6
CENTER2
62
256
370
-1
100
AcDbLine
10
3412.5
20
949
11
3412.5
21
299
0
LINE
5
28B
100
AcDbEntity
8
sideview
6
ByLayer
62
256
370
-1
100
AcDbLine
10
1200
20
2020
11
3520
21
2020
0
LINE
5
28C
100
AcDbEntity
8
sideview
6
ByLayer
62
256
370
-1
100
AcDbLine
10
1200
20
2000
11
3520
21
2000
0
LINE
5
28D
100
AcDbEntity
8
sideview
6
ByLayer
62
256
370
-1
100
AcDbLine
10
1200
20
2190
11
3520
21
2190
0
LINE
5
28E
100
AcDbEntity
8
sideview
6
ByLayer
62
256
370
-1
100
AcDbLine
10
1200
20
2170
11
3520
21
2170
0
LINE
5
28F
100
AcDbEntity
8
sideview
6
ByLayer
62
256
370
-1
100
AcDbLine
10
1200
20
2340
11
3520
21
2340
0
LINE
5
290
100
AcDbEntity
8
sideview
6
ByLayer
62
256
370
-1
100
AcDbLine
10
1200
20
2360
11
3520
21
2360
0
LINE
5
291
100
AcDbEntity
8
sideview
6
ByLayer
62
256
370
-1
100
AcDbLine
10
1200
20
2530
11
3520
21
2530
0
LINE
5
292
100
AcDbEntity
8
sideview
6
ByLayer
62
256
370
-1
100
AcDbLine
10
1200
20
2510
11
3520
21
2510
0
LINE
5
293
100
AcDbEntity
8
sideview
6
ByLayer
62
256
370
-1
100
AcDbLine
10
1200
20
2680
11
3520
21
2680
0
LINE
5
294
100
AcDbEntity
8
sideview
6
ByLayer
62
256
370
-1
100
AcDbLine
10
1200
20
2700
11
3520
21
2700
0
LINE
5
295
100
AcDbEntity
8
Foundation
6
ByLayer
62
256
370
-1
100
AcDbLine
10
1200
20
1045
11
1200
21
1060
0
LINE
5
296
100
AcDbEntity
8
Foundation
6
ByLayer
62
256
370
-1
100
AcDbLine
10
1198
20
908
11
1198
21
1010
0
LINE
5
297
100
AcDbEntity
8
Foundation
6
ByLayer
62
256
370
-1
100
AcDbLine
10
1290
20
908
11
1198
21
908
0
LINE
5
298
100
AcDbEntity
8
Foundation
6
ByLayer
62
256
370
-1
100
AcDbLine
10
1292
20
1010
11
1292
21
908
0
LINE
5
299
100
AcDbEntity
8
Foundation
6
ByLayer
62
256
370
-1
100
AcDbLine
10
1198
20
1010
11
1200
21
1010
0
LINE
5
29A
100
AcDbEntity
8
Foundation
6
ByLayer
62
256
370
-1
100
AcDbLine
10
1290
20
1010
11
1292
21
1010
0
LINE
5
29B
100
AcDbEntity
8
Foundation
6
ByLayer
62
256
370
-1
100
AcDbLine
10
1290
20
908
11
1292
21
908
0
LINE
5
29C
100
AcDbEntity
8
Foundation
6
ByLayer
62
256
370
-1
100
AcDbLine
10
1290
20
1010
11
1290
21
910
0
LINE
5
29D
100
AcDbEntity
8
Foundation
6
ByLayer
62
256
370
-1
100
AcDbLine
10
1200
20
910
11
1200
21
1010
0
LINE
5
29E
100
AcDbEntity
8
Foundation
6
ByLayer
62
256
370
-1
100
AcDbLine
10
1290
20
910
11
1200
21
910
0
LINE
5
29F
100
AcDbEntity
8
Foundation
6
ByLayer
62
256
370
-1
100
AcDbLine
10
1200
20
910
11
1245
21
910
0
LINE
5
2A0
100
AcDbEntity
8
Foundation
6
ByLayer
62
256
370
-1
100
AcDbLine
10
1245
20
910
11
1245
21
1000
0
LINE
5
2A1
100
AcDbEntity
8
Foundation
6
ByLayer
62
256
370
-1
100
AcDbLine
10
1245
20
1000
11
1200
21
1000
0
LINE
5
2A2
100
AcDbEntity
8
Foundation
6
ByLayer
62
256
370
-1
100
AcDbLine
10
1200
20
1000
11
1200
21
910
0
LINE
5
2A3
100
AcDbEntity
8
Foundation
6
ByLayer
62
256
370
-1
100
AcDbLine
10
1245
20
910
11
1290
21
910
0
LINE
5
2A4
100
AcDbEntity
8
Foundation
6
ByLayer
62
256
370
-1
100
AcDbLine
10
1290
20
910
11
1290
21
1000
0
LINE
5
2A5
100
AcDbEntity
8
Foundation
6
ByLayer
62
256
370
-1
100
AcDbLine
10
1290
20
1000
11
1245
21
1000
0
LINE
5
2A6
100
AcDbEntity
8
Foundation
6
ByLayer
62
256
370
-1
100
AcDbLine
10
1245
20
1000
11
1245
21
910
0
LINE
5
2A7
100
AcDbEntity
8
Foundation
6
ByLayer
62
256
370
-1
100
AcDbLine
10
1200
20
1000
11
1245
21
910
0
LINE
5
2A8
100
AcDbEntity
8
Foundation
6
ByLayer
62
256
370
-1
100
AcDbLine
10
1245
20
1000
11
1200
21
910
0
LINE
5
2A9
100
AcDbEntity
8
Foundation
6
ByLayer
62
256
370
-1
100
AcDbLine
10
1245
20
1000
11
1290
21
910
0
LINE
5
2AA
100
AcDbEntity
8
Foundation
6
ByLayer
62
256
370
-1
100
AcDbLine
10
1245
20
910
11
1290
21
1000
0
LINE
5
2AB
100
AcDbEntity
8
Foundation
6
ByLayer
62
256
370
-1
100
AcDbLine
10
1245
20
908
11
1245
21
830
0
LINE
5
2AC
100
AcDbEntity
8
Foundation
6
ByLayer
62
256
370
-1
100
AcDbLine
10
1248
20
908
11
1248
21
830
0
LINE
5
2AD
100
AcDbEntity
8
Foundation
6
ByLayer
62
256
370
-1
100
AcDbLine
10
1242
20
908
11
1242
21
830
0
LINE
5
2AE
100
AcDbEntity
8
Foundation
6
ByLayer
62
256
370
-1
100
AcDbLine
10
1142
20
830
11
1348
21
830
0
LINE
5
2AF
100
AcDbEntity
8
Foundation
6
ByLayer
62
256
370
-1
100
AcDbLine
10
1142
20
830
11
1348
21
830
0
LINE
5
2B0
100
AcDbEntity
8
Foundation
6
ByLayer
62
256
370
-1
100
AcDbLine
10
3428
20
908
11
3428
21
1010
0
LINE
5
2B1
100
AcDbEntity
8
Foundation
6
ByLayer
62
256
370
-1
100
AcDbLine
10
3520
20
908
11
3428
21
908
0
LINE
5
2B2
100
AcDbEntity
8
Foundation
6
ByLayer
62
256
370
-1
100
AcDbLine
10
3522
20
1010
11
3522
21
908
0
LINE
5
2B3
100
AcDbEntity
8
Foundation
6
ByLayer
62
256
370
-1
100
AcDbLine
10
3428
20
1010
11
3430
21
1010
0
LINE
5
2B4
100
AcDbEntity
8
Foundation
6
ByLayer
62
256
370
-1
100
AcDbLine
10
3520
20
1010
11
3522
21
1010
0
LINE
5
2B5
100
AcDbEntity
8
Foundation
6
ByLayer
62
256
370
-1
100
AcDbLine
10
3520
20
908
11
3522
21
908
0
LINE
5
2B6
100
AcDbEntity
8
Foundation
6
ByLayer
62
256
370
-1
100
AcDbLine
10
3520
20
1010
11
3520
21
910
0
LINE
5
2B7
100
AcDbEntity
8
Foundation
6
ByLayer
62
256
370
-1
100
AcDbLine
10
3430
20
910
11
3430
21
1010
0
LINE
5
2B8
100
AcDbEntity
8
Foundation
6
ByLayer
62
256
370
-1
100
AcDbLine
10
3520
20
910
11
3430
21
910
0
LINE
5
2B9
100
AcDbEntity
8
Foundation
6
ByLayer
62
256
370
-1
100
AcDbLine
10
3430
20
910
11
3475
21
910
0
LINE
5
2BA
100
AcDbEntity
8
Foundation
6
ByLayer
62
256
370
-1
100
AcDbLine
10
3475
20
910
11
3475
21
1000
0
LINE
5
2BB
100
AcDbEntity
8
Foundation
6
ByLayer
62
256
370
-1
100
AcDbLine
10
3475
20
1000
11
3430
21
1000
0
LINE
5
2BC
100
AcDbEntity
8
Foundation
6
ByLayer
62
256
370
-1
100
AcDbLine
10
3430
20
1000
11
3430
21
910
0
LINE
5
2BD
100
AcDbEntity
8
Foundation
6
ByLayer
62
256
370
-1
100
AcDbLine
10
3475
20
910
11
3520
21
910
0
LINE
5
2BE
100
AcDbEntity
8
Foundation
6
ByLayer
62
256
370
-1
100
AcDbLine
10
3520
20
910
11
3520
21
1000
0
LINE
5
2BF
100
AcDbEntity
8
Foundation
6
ByLayer
62
256
370
-1
100
AcDbLine
10
3520
20
1000
11
3475
21
1000
0
LINE
5
2C0
100
AcDbEntity
8
Foundation
6
ByLayer
62
256
370
-1
100
AcDbLine
10
3475
20
1000
11
3475
21
910
0
LINE
5
2C1
100
AcDbEntity
8
Foundation
6
ByLayer
62
256
370
-1
100
AcDbLine
10
3430
20
1000
11
3475
21
910
0
LINE
5
2C2
100
AcDbEntity
8
Foundation
6
ByLayer
62
256
370
-1
100
AcDbLine
10
3475
20
1000
11
3430
21
910
0
LINE
5
2C3
100
AcDbEntity
8
Foundation
6
ByLayer
62
256
370
-1
100
AcDbLine
10
3475
20
1000
11
3520
21
910
0
LINE
5
2C4
100
AcDbEntity
8
Foundation
6
ByLayer
62
256
370
-1
100
AcDbLine
10
3475
20
910
11
3520
21
1000
0
LINE
5
2C5
100
AcDbEntity
8
Foundation
6
ByLayer
62
256
370
-1
100
AcDbLine
10
3475
20
908
11
3475
21
830
0
LINE
5
2C6
100
AcDbEntity
8
Foundation
6
ByLayer
62
256
370
-1
100
AcDbLine
10
3478
20
908
11
3478
21
830
0
LINE
5
2C7
100
AcDbEntity
8
Foundation
6
ByLayer
62
256
370
-1
100
AcDbLine
10
3472
20
908
11
3472
21
830
0
LINE
5
2C8
100
AcDbEntity
8
Foundation
6
ByLayer
62
256
370
-1
100
AcDbLine
10
3372
20
830
11
3578
21
830
0
LINE
5
2C9
100
AcDbEntity
8
Foundation
6
ByLayer
62
256
370
-1
100
AcDbLine
10
3372
20
830
11
3578
21
830
0
LINE
5
2CA
100
AcDbEntity
8
section_1_1
6
ByLayer
62
256
370
-1
100
AcDbLine
10
1200
20
1064
11
1290
21
1064
0
LINE
5
2CB
100
AcDbEntity
8
section_1_1
6
ByLayer
62
256
370
-1
100
AcDbLine
10
1290
20
1064
11
3430
21
1064
0
LINE
5
2CC
100
AcDbEntity
8
section_1_1
6
ByLayer
62
256
370
-1
100
AcDbLine
10
3430
20
1064
11
3520
21
1064
0
LINE
5
2CD
100
AcDbEntity
8
section_4_4
6
ByLayer
62
256
370
-1
100
AcDbLine
10
3430
20
1064
11
3520
21
1064
0
LINE
5
2CE
100
AcDbEntity
8
section_4_4
6
ByLayer
62
256
370
-1
100
AcDbLine
10
1200
20
1064
11
1290
21
1064
0
CIRCLE
5
2CF
100
AcDbEntity
8
section_1_1_d
6
ByLayer
62
256
370
-1
100
AcDbCircle
10
1307.5
20
226.71067915
40
72.2893208499
0
LINE
5
2D0
100
AcDbEntity
8
section_1_1_d
6
CENTER2
62
256
370
-1
100
AcDbLine
10
1307.5
20
949
11
1307.5
21
299
0
CIRCLE
5
2D1
100
AcDbEntity
8
section_1_1_d
6
ByLayer
62
256
370
-1
100
AcDbCircle
10
2359.5
20
226.71067915
40
72.2893208499
0
CIRCLE
5
2D2
100
AcDbEntity
8
section_1_1_d
6
ByLayer
62
256
370
-1
100
AcDbCircle
10
3412.5
20
226.71067915
40
72.2893208499
0
MTEXT
5
2D3
100
AcDbEntity
8
section_1_1_d
6
ByLayer
62
256
370
-1
100
AcDbMText
10
1295
20
260
30
0
40
64
41
42.6666666667
71
1
72
1
1
A
7
standard
210
0
220
0
230
1
50
0
73
2
44
1
0
MTEXT
5
2D4
100
AcDbEntity
8
section_1_1_d
6
ByLayer
62
256
370
-1
100
AcDbMText
10
2347
20
260
30
0
40
64
41
28.4444444444
71
1
72
1
1
C
7
standard
210
0
220
0
230
1
50
0
73
2
44
1
0
MTEXT
5
2D5
100
AcDbEntity
8
section_1_1_d
6
ByLayer
62
256
370
-1
100
AcDbMText
10
3400
20
260
30
0
40
64
41
28.4444444444
71
1
72
1
1
E
7
standard
210
0
220
0
230
1
50
0
73
2
44
1
0
CIRCLE
5
2D6
100
AcDbEntity
8
section_1_1_d
6
ByLayer
62
256
370
-1
100
AcDbCircle
10
1307.5
20
4301.28932085
40
72.2893208499
0
CIRCLE
5
2D7
100
AcDbEntity
8
section_1_1_d
6
ByLayer
62
256
370
-1
100
AcDbCircle
10
2359.5
20
4301.28932085
40
72.2893208499
0
CIRCLE
5
2D8
100
AcDbEntity
8
section_1_1_d
6
ByLayer
62
256
370
-1
100
AcDbCircle
10
3412.5
20
4301.28932085
40
72.2893208499
0
MTEXT
5
2D9
100
AcDbEntity
8
section_1_1_d
6
ByLayer
62
256
370
-1
100
AcDbMText
10
1295
20
4268
30
0
40
64
41
42.6666666667
71
7
72
1
1
A
7
standard
210
0
220
0
230
1
50
0
73
2
44
1
0
MTEXT
5
2DA
100
AcDbEntity
8
section_1_1_d
6
ByLayer
62
256
370
-1
100
AcDbMText
10
2347
20
4268
30
0
40
64
41
28.4444444444
71
7
72
1
1
C
7
standard
210
0
220
0
230
1
50
0
73
2
44
1
0
MTEXT
5
2DB
100
AcDbEntity
8
section_1_1_d
6
ByLayer
62
256
370
-1
100
AcDbMText
10
3400
20
4268
30
0
40
64
41
28.4444444444
71
7
72
1
1
E
7
standard
210
0
220
0
230
1
50
0
73
2
44
1
0
LINE
5
2DC
100
AcDbEntity
8
section_1_1_d
6
CENTER2
62
256
370
-1
100
AcDbLine
10
1307.5
20
3879
11
1307.5
21
4229
0
LINE
5
2DD
100
AcDbEntity
8
section_1_1_d
6
CENTER2
62
256
370
-1
100
AcDbLine
10
2359.5
20
3879
11
2359.5
21
4229
0
LINE
5
2DE
100
AcDbEntity
8
section_1_1_d
6
CENTER2
62
256
370
-1
100
AcDbLine
10
3412.5
20
3879
11
3412.5
21
4229
0
CIRCLE
5
2DF
100
AcDbEntity
8
section_1_1_d
6
ByLayer
62
256
370
-1
100
AcDbCircle
10
4442.28932085
20
1099
40
72.2893208499
0
MTEXT
5
2E0
100
AcDbEntity
8
section_1_1_d
6
ByLayer
62
256
370
-1
100
AcDbMText
10
4400
20
1130
30
0
40
64
41
71.1111111111
71
1
72
1
1
H1
7
standard
210
0
220
0
230
1
50
0
73
2
44
1
0
LINE
5
2E1
100
AcDbEntity
8
section_1_1_d
6
CENTER2
62
256
370
-1
100
AcDbLine
10
3920
20
1099
11
4370
21
1099
0
CIRCLE
5
2E2
100
AcDbEntity
8
section_1_1_d
6
ByLayer
62
256
370
-1
100
AcDbCircle
10
161.71067915
20
1099
40
72.2893208499
0
LINE
5
2E3
100
AcDbEntity
8
section_1_1_d
6
CENTER2
62
256
370
-1
100
AcDbLine
10
684
20
1099
11
234
21
1099
0
MTEXT
5
2E4
100
AcDbEntity
8
section_1_1_d
6
ByLayer
62
256
370
-1
100
AcDbMText
10
204
20
1130
30
0
40
64
41
71.1111111111
71
3
72
1
1
H1
7
standard
210
0
220
0
230
1
50
360
73
2
44
1
0
LINE
5
2E5
100
AcDbEntity
8
section_1_1_d
6
CENTER2
62
256
370
-1
100
AcDbLine
10
1200
20
914
11
1200
21
414
0
LINE
5
2E6
100
AcDbEntity
8
section_1_1_d
6
CENTER2
62
256
370
-1
100
AcDbLine
10
1290
20
914
11
1290
21
414
0
LINE
5
2E7
100
AcDbEntity
8
section_1_1_d
6
CENTER2
62
256
370
-1
100
AcDbLine
10
3430
20
914
11
3430
21
414
0
LINE
5
2E8
100
AcDbEntity
8
section_1_1_d
6
CENTER2
62
256
370
-1
100
AcDbLine
10
3520
20
914
11
3520
21
414
0
DIMENSION
5
2E9
100
AcDbEntity
8
section_1_1_d
6
ByLayer
62
256
370
-1
100
AcDbDimension
2
*D1
10
3430
20
600
30
0
11
2360
21
644
31
0
70
32
71
5
72
0
3
Standard
53
0
210
0
220
0
230
1
100
AcDbAlignedDimension
13
1290
23
677.93419016
33
0
14
3430
24
674.01549542
34
0
100
AcDbRotatedDimension
0
DIMENSION
5
2EA
100
AcDbEntity
8
section_1_1_d
6
ByLayer
62
256
370
-1
100
AcDbDimension
2
*D2
10
3520
20
500
30
0
11
2360
21
544
31
0
70
32
71
5
72
0
3
Standard
53
0
210
0
220
0
230
1
100
AcDbAlignedDimension
13
1200
23
548.617263714
33
0
14
3520
24
536.861179491
34
0
100
AcDbRotatedDimension
0
LINE
5
2EB
100
AcDbEntity
8
section_1_1_d
6
CENTER2
62
256
370
-1
100
AcDbLine
10
3920
20
830
11
4370
21
830
0
MTEXT
5
2EC
100
AcDbEntity
8
section_1_1_d
6
ByLayer
62
256
370
-1
100
AcDbMText
10
5070
20
1570
30
0
40
96
41
743.999979648
71
1
72
1
1
SECTION 1-1
7
standard
210
0
220
0
230
1
50
0
73
2
44
1
0
LINE
5
2ED
100
AcDbEntity
8
section_1_1_d
6
ByLayer
62
256
370
-1
100
AcDbLine
10
4800
20
1600.0009
11
6240
21
1600.0009
0
LINE
5
2EE
100
AcDbEntity
8
section_1_1_d
6
ByLayer
62
256
370
-1
100
AcDbLine
10
6240
20
1600.0009
11
6240
21
1720.0009
0
LINE
5
2EF
100
AcDbEntity
8
section_1_1_d
6
ByLayer
62
256
370
-1
100
AcDbLine
10
6240
20
1720.0009
11
4800
21
1720.0009
0
LINE
5
2F0
100
AcDbEntity
8
section_1_1_d
6
ByLayer
62
256
370
-1
100
AcDbLine
10
4800
20
1720.0009
11
4800
21
1600.0009
0
LINE
5
2F1
100
AcDbEntity
8
section_1_1_d
6
ByLayer
62
256
370
-1
100
AcDbLine
10
6240
20
1720.0009
11
6240
21
1840.0009
0
LINE
5
2F2
100
AcDbEntity
8
section_1_1_d
6
ByLayer
62
256
370
-1
100
AcDbLine
10
6240
20
1840.0009
11
4800
21
1840.0009
0
LINE
5
2F3
100
AcDbEntity
8
section_1_1_d
6
ByLayer
62
256
370
-1
100
AcDbLine
10
4800
20
1840.0009
11
4800
21
1720.0009
0
LINE
5
2F4
100
AcDbEntity
8
section_1_1_d
6
ByLayer
62
256
370
-1
100
AcDbLine
10
6240
20
1840.0009
11
6240
21
1960.0009
0
LINE
5
2F5
100
AcDbEntity
8
section_1_1_d
6
ByLayer
62
256
370
-1
100
AcDbLine
10
6240
20
1960.0009
11
4800
21
1960.0009
0
LINE
5
2F6
100
AcDbEntity
8
section_1_1_d
6
ByLayer
62
256
370
-1
100
AcDbLine
10
4800
20
1960.0009
11
4800
21
1840.0009
0
LINE
5
2F7
100
AcDbEntity
8
section_1_1_d
6
ByLayer
62
256
370
-1
100
AcDbLine
10
6240
20
1960.0009
11
6240
21
2080.0009
0
LINE
5
2F8
100
AcDbEntity
8
section_1_1_d
6
ByLayer
62
256
370
-1
100
AcDbLine
10
6240
20
2080.0009
11
4800
21
2080.0009
0
LINE
5
2F9
100
AcDbEntity
8
section_1_1_d
6
ByLayer
62
256
370
-1
100
AcDbLine
10
4800
20
2080.0009
11
4800
21
1960.0009
0
LINE
5
2FA
100
AcDbEntity
8
section_1_1_d
6
ByLayer
62
256
370
-1
100
AcDbLine
10
6240
20
2080.0009
11
6240
21
2200.0009
0
LINE
5
2FB
100
AcDbEntity
8
section_1_1_d
6
ByLayer
62
256
370
-1
100
AcDbLine
10
6240
20
2200.0009
11
4800
21
2200.0009
0
LINE
5
2FC
100
AcDbEntity
8
section_1_1_d
6
ByLayer
62
256
370
-1
100
AcDbLine
10
4800
20
2200.0009
11
4800
21
2080.0009
0
LINE
5
2FD
100
AcDbEntity
8
section_1_1_d
6
ByLayer
62
256
370
-1
100
AcDbLine
10
6240
20
2200.0009
11
6240
21
2320.0009
0
LINE
5
2FE
100
AcDbEntity
8
section_1_1_d
6
ByLayer
62
256
370
-1
100
AcDbLine
10
6240
20
2320.0009
11
4800
21
2320.0009
0
LINE
5
2FF
100
AcDbEntity
8
section_1_1_d
6
ByLayer
62
256
370
-1
100
AcDbLine
10
4800
20
2320.0009
11
4800
21
2200.0009
0
LINE
5
300
100
AcDbEntity
8
section_1_1_d
6
ByLayer
62
256
370
-1
100
AcDbLine
10
6240
20
2320.0009
11
6240
21
2440.0009
0
LINE
5
301
100
AcDbEntity
8
section_1_1_d
6
ByLayer
62
256
370
-1
100
AcDbLine
10
6240
20
2440.0009
11
4800
21
2440.0009
0
LINE
5
302
100
AcDbEntity
8
section_1_1_d
6
ByLayer
62
256
370
-1
100
AcDbLine
10
4800
20
2440.0009
11
4800
21
2320.0009
0
MTEXT
5
303
100
AcDbEntity
8
section_1_1_d
6
ByLayer
62
256
370
-1
100
AcDbMText
10
4820
20
2410
30
0
40
48
41
314.666656491
71
1
72
1
1
DEMINSION
7
standard
210
0
220
0
230
1
50
0
73
2
44
1
0
LINE
5
304
100
AcDbEntity
8
section_1_1_d
6
ByLayer
62
256
370
-1
100
AcDbLine
10
5150
20
2440.0009
11
5150
21
1600.0009
0
MTEXT
5
305
100
AcDbEntity
8
section_1_1_d
6
ByLayer
62
256
370
-1
100
AcDbMText
10
5160
20
2410
30
0
40
48
41
224
71
1
72
1
1
DEGREE
7
standard
210
0
220
0
230
1
50
0
73
2
44
1
0
LINE
5
306
100
AcDbEntity
8
section_1_1_d
6
ByLayer
62
256
370
-1
100
AcDbLine
10
5390
20
2440.0009
11
5390
21
1600.0009
0
MTEXT
5
307
100
AcDbEntity
8
section_1_1_d
6
ByLayer
62
256
370
-1
100
AcDbMText
10
5400
20
2410
30
0
40
48
41
229.333333333
71
1
72
1
1
LENGTH
7
standard
210
0
220
0
230
1
50
0
73
2
44
1
0
LINE
5
308
100
AcDbEntity
8
section_1_1_d
6
ByLayer
62
256
370
-1
100
AcDbLine
10
5640
20
2440.0009
11
5640
21
1600.0009
0
MTEXT
5
309
100
AcDbEntity
8
section_1_1_d
6
ByLayer
62
256
370
-1
100
AcDbMText
10
5650
20
2410
30
0
40
48
41
240
71
1
72
1
1
NUMBER
7
standard
210
0
220
0
230
1
50
0
73
2
44
1
0
LINE
5
30A
100
AcDbEntity
8
section_1_1_d
6
ByLayer
62
256
370
-1
100
AcDbLine
10
5900
20
2440.0009
11
5900
21
1600.0009
0
MTEXT
5
30B
100
AcDbEntity
8
section_1_1_d
6
ByLayer
62
256
370
-1
100
AcDbMText
10
4880
20
2290
30
0
40
48
41
170.666666667
71
1
72
1
1
90x35
7
standard
210
0
220
0
230
1
50
0
73
2
44
1
0
MTEXT
5
30C
100
AcDbEntity
8
section_1_1_d
6
ByLayer
62
256
370
-1
100
AcDbMText
10
4880
20
2170
30
0
40
48
41
170.666666667
71
1
72
1
1
90x35
7
standard
210
0
220
0
230
1
50
0
73
2
44
1
0
MTEXT
5
30D
100
AcDbEntity
8
section_1_1_d
6
ByLayer
62
256
370
-1
100
AcDbMText
10
4880
20
2050
30
0
40
48
41
170.666666667
71
1
72
1
1
90x35
7
standard
210
0
220
0
230
1
50
0
73
2
44
1
0
MTEXT
5
30E
100
AcDbEntity
8
section_1_1_d
6
ByLayer
62
256
370
-1
100
AcDbMText
10
4880
20
1930
30
0
40
48
41
170.666666667
71
1
72
1
1
90x35
7
standard
210
0
220
0
230
1
50
0
73
2
44
1
0
MTEXT
5
30F
100
AcDbEntity
8
section_1_1_d
6
ByLayer
62
256
370
-1
100
AcDbMText
10
4880
20
1800
30
0
40
48
41
170.666666667
71
1
72
1
1
90x35
7
standard
210
0
220
0
230
1
50
0
73
2
44
1
0
MTEXT
5
310
100
AcDbEntity
8
section_1_1_d
6
ByLayer
62
256
370
-1
100
AcDbMText
10
5190
20
2290
30
0
40
48
41
165.333333333
71
1
72
1
1
H3-10
7
standard
210
0
220
0
230
1
50
0
73
2
44
1
0
MTEXT
5
311
100
AcDbEntity
8
section_1_1_d
6
ByLayer
62
256
370
-1
100
AcDbMText
10
5190
20
2170
30
0
40
48
41
165.333333333
71
1
72
1
1
H3-10
7
standard
210
0
220
0
230
1
50
0
73
2
44
1
0
MTEXT
5
312
100
AcDbEntity
8
section_1_1_d
6
ByLayer
62
256
370
-1
100
AcDbMText
10
5190
20
2050
30
0
40
48
41
165.333333333
71
1
72
1
1
H3-10
7
standard
210
0
220
0
230
1
50
0
73
2
44
1
0
MTEXT
5
313
100
AcDbEntity
8
section_1_1_d
6
ByLayer
62
256
370
-1
100
AcDbMText
10
5190
20
1930
30
0
40
48
41
165.333333333
71
1
72
1
1
H3-10
7
standard
210
0
220
0
230
1
50
0
73
2
44
1
0
MTEXT
5
314
100
AcDbEntity
8
section_1_1_d
6
ByLayer
62
256
370
-1
100
AcDbMText
10
5190
20
1800
30
0
40
48
41
165.333333333
71
1
72
1
1
H3-10
7
standard
210
0
220
0
230
1
50
0
73
2
44
1
0
MTEXT
5
315
100
AcDbEntity
8
section_1_1_d
6
ByLayer
62
256
370
-1
100
AcDbMText
10
5450
20
2290
30
0
40
48
41
128
71
1
72
1
1
2140
7
standard
210
0
220
0
230
1
50
0
73
2
44
1
0
MTEXT
5
316
100
AcDbEntity
8
section_1_1_d
6
ByLayer
62
256
370
-1
100
AcDbMText
10
5750
20
2290
30
0
40
48
41
26.6666666667
71
1
72
1
1
4
7
standard
210
0
220
0
230
1
50
0
73
2
44
1
0
MTEXT
5
317
100
AcDbEntity
8
section_1_1_d
6
ByLayer
62
256
370
-1
100
AcDbMText
10
5740
20
2170
30
0
40
48
41
48
71
1
72
1
1
10
7
standard
210
0
220
0
230
1
50
0
73
2
44
1
0
MTEXT
5
318
100
AcDbEntity
8
section_1_1_d
6
ByLayer
62
256
370
-1
100
AcDbMText
10
5750
20
2050
30
0
40
48
41
21.3333333333
71
1
72
1
1
8
7
standard
210
0
220
0
230
1
50
0
73
2
44
1
0
MTEXT
5
319
100
AcDbEntity
8
section_1_1_d
6
ByLayer
62
256
370
-1
100
AcDbMText
10
5750
20
1930
30
0
40
48
41
21.3333333333
71
1
72
1
1
8
7
standard
210
0
220
0
230
1
50
0
73
2
44
1
0
MTEXT
5
31A
100
AcDbEntity
8
section_1_1_d
6
ByLayer
62
256
370
-1
100
AcDbMText
10
5750
20
1800
30
0
40
48
41
21.3333333333
71
1
72
1
1
8
7
standard
210
0
220
0
230
1
50
0
73
2
44
1
0
MTEXT
5
31B
100
AcDbEntity
8
sideview_d
6
ByLayer
62
256
370
-1
100
AcDbMText
10
5070
20
1570
30
0
40
96
41
637.333312981
71
1
72
1
1
SIDE VIEW
7
standard
210
0
220
0
230
1
50
0
73
2
44
1
0
LINE
5
31C
100
AcDbEntity
8
section_1_1
6
ByLayer
62
256
370
-1
100
AcDbLine
10
1200
20
3464
11
3520
21
3464
0
LINE
5
31D
100
AcDbEntity
8
section_1_1
6
ByLayer
62
256
370
-1
100
AcDbLine
10
1200
20
3429
11
3520
21
3429
0
LINE
5
31E
100
AcDbEntity
8
section_1_1
6
ByLayer
62
256
370
-1
100
AcDbLine
10
1290
20
3464
11
1200
21
3429
0
LINE
5
31F
100
AcDbEntity
8
section_1_1
6
ByLayer
62
256
370
-1
100
AcDbLine
10
1200
20
3464
11
1290
21
3429
0
LINE
5
320
100
AcDbEntity
8
section_1_1
6
ByLayer
62
256
370
-1
100
AcDbLine
10
3520
20
3464
11
3430
21
3429
0
LINE
5
321
100
AcDbEntity
8
section_1_1
6
ByLayer
62
256
370
-1
100
AcDbLine
10
3430
20
3464
11
3520
21
3429
0
LINE
5
322
100
AcDbEntity
8
section_1_1
6
ByLayer
62
256
370
-1
100
AcDbLine
10
2342
20
3429
11
2342
21
1099
0
LINE
5
323
100
AcDbEntity
8
section_1_1
6
ByLayer
62
256
370
-1
100
AcDbLine
10
2377
20
3429
11
2377
21
1099
0
LINE
5
324
100
AcDbEntity
8
section_1_1
6
ByLayer
62
256
370
-1
100
AcDbLine
10
3395
20
3429
11
3395
21
1099
0
LINE
5
325
100
AcDbEntity
8
section_1_1
6
ByLayer
62
256
370
-1
100
AcDbLine
10
1325
20
3429
11
1325
21
1099
0
LINE
5
326
100
AcDbEntity
8
section_1_1
6
ByLayer
62
256
370
-1
100
AcDbLine
10
1290
20
3464
11
1290
21
1064
0
LINE
5
327
100
AcDbEntity
8
section_1_1
6
ByLayer
62
256
370
-1
100
AcDbLine
10
1200
20
3464
11
1200
21
1064
0
LINE
5
328
100
AcDbEntity
8
section_1_1
6
ByLayer
62
256
370
-1
100
AcDbLine
10
3430
20
3464
11
3430
21
1064
0
LINE
5
329
100
AcDbEntity
8
section_1_1
6
ByLayer
62
256
370
-1
100
AcDbLine
10
3520
20
3464
11
3520
21
1064
0
LINE
5
32A
100
AcDbEntity
8
section_1_1
6
ByLayer
62
256
370
-1
100
AcDbLine
10
1200
20
3464
11
1270
21
3464
0
LINE
5
32B
100
AcDbEntity
8
section_1_1
6
ByLayer
62
256
370
-1
100
AcDbLine
10
1200
20
3764
11
1200
21
3464
0
LINE
5
32C
100
AcDbEntity
8
section_1_1_d
6
CENTER2
62
256
370
-1
100
AcDbLine
10
843.682792195
20
3940.84229437
11
843.682792195
21
4290.84229437
0
LINE
5
32D
100
AcDbEntity
8
section_1_1_d
6
CENTER2
62
256
370
-1
100
AcDbLine
10
3817.3683702
20
3884.35088397
11
3817.3683702
21
4234.35088397
0
DIMENSION
5
32E
100
AcDbEntity
8
section_1_1_d
6
ByLayer
62
256
370
-1
100
AcDbDimension
2
*D3
10
3817.3683702
20
4100
30
0
11
2330.5255812
21
4144
31
0
70
32
1
2975
71
5
72
0
3
Standard
53
0
210
0
220
0
230
1
100
AcDbAlignedDimension
13
843.682792195
23
4045.13726717
33
0
14
3817.3683702
24
4038.98964215
34
0
100
AcDbRotatedDimension
0
CIRCLE
5
32F
100
AcDbEntity
8
section_1_1_d
6
ByLayer
62
256
370
-1
100
AcDbCircle
10
161.71067915
20
3464
40
72.2893208499
0
LINE
5
330
100
AcDbEntity
8
section_1_1_d
6
CENTER2
62
256
370
-1
100
AcDbLine
10
684
20
3464
11
234
21
3464
0
CIRCLE
5
331
100
AcDbEntity
8
section_1_1_d
6
ByLayer
62
256
370
-1
100
AcDbCircle
10
161.71067915
20
3764
40
72.2893208499
0
LINE
5
332
100
AcDbEntity
8
section_1_1_d
6
CENTER2
62
256
370
-1
100
AcDbLine
10
684
20
3764
11
234
21
3764
0
MTEXT
5
333
100
AcDbEntity
8
section_1_1_d
6
ByLayer
62
256
370
-1
100
AcDbMText
10
204
20
3495
30
0
40
64
41
85.3333333333
71
3
72
1
1
H2
7
standard
210
0
220
0
230
1
50
360
73
2
44
1
0
MTEXT
5
334
100
AcDbEntity
8
section_1_1_d
6
ByLayer
62
256
370
-1
100
AcDbMText
10
204
20
3795
30
0
40
64
41
85.3333333333
71
3
72
1
1
H3
7
standard
210
0
220
0
230
1
50
360
73
2
44
1
0
CIRCLE
5
335
100
AcDbEntity
8
section_1_1_d
6
ByLayer
62
256
370
-1
100
AcDbCircle
10
4442.28932085
20
3464
40
72.2893208499
0
LINE
5
336
100
AcDbEntity
8
section_1_1_d
6
CENTER2
62
256
370
-1
100
AcDbLine
10
3920
20
3464
11
4370
21
3464
0
CIRCLE
5
337
100
AcDbEntity
8
section_1_1_d
6
ByLayer
62
256
370
-1
100
AcDbCircle
10
4442.28932085
20
3764
40
72.2893208499
0
LINE
5
338
100
AcDbEntity
8
section_1_1_d
6
CENTER2
62
256
370
-1
100
AcDbLine
10
3920
20
3764
11
4370
21
3764
0
LINE
5
339
100
AcDbEntity
8
section_1_1_d
6
ByLayer
62
256
370
-1
100
AcDbLine
10
4718.6998044
20
920
11
4238.6998044
21
920
0
LINE
5
33A
100
AcDbEntity
8
section_1_1_d
6
ByLayer
62
256
370
-1
100
AcDbLine
10
4238.6998044
20
920
11
4278.6998044
21
830
0
LINE
5
33B
100
AcDbEntity
8
section_1_1_d
6
ByLayer
62
256
370
-1
100
AcDbLine
10
4278.6998044
20
830
11
4318.6998044
21
920
0
MTEXT
5
33C
100
AcDbEntity
8
section_1_1_d
6
ByLayer
62
256
370
-1
100
AcDbMText
10
4510
20
1000
30
0
40
64
41
99.5555555556
71
1
72
1
1
0.0
7
standard
210
0
220
0
230
1
50
0
73
2
44
1
0
LINE
5
33D
100
AcDbEntity
8
section_1_1_d
6
ByLayer
62
256
370
-1
100
AcDbLine
10
4718.6998044
20
1190
11
4238.6998044
21
1190
0
LINE
5
33E
100
AcDbEntity
8
section_1_1_d
6
ByLayer
62
256
370
-1
100
AcDbLine
10
4238.6998044
20
1190
11
4278.6998044
21
1100
0
LINE
5
33F
100
AcDbEntity
8
section_1_1_d
6
ByLayer
62
256
370
-1
100
AcDbLine
10
4278.6998044
20
1100
11
4318.6998044
21
1190
0
MTEXT
5
340
100
AcDbEntity
8
section_1_1_d
6
ByLayer
62
256
370
-1
100
AcDbMText
10
4510
20
1270
30
0
40
64
41
128
71
1
72
1
1
270
7
standard
210
0
220
0
230
1
50
0
73
2
44
1
0
MTEXT
5
341
100
AcDbEntity
8
section_1_1_d
6
ByLayer
62
256
370
-1
100
AcDbMText
10
4400
20
3495
30
0
40
64
41
85.3333333333
71
1
72
1
1
H2
7
standard
210
0
220
0
230
1
50
0
73
2
44
1
0
MTEXT
5
342
100
AcDbEntity
8
section_1_1_d
6
ByLayer
62
256
370
-1
100
AcDbMText
10
4400
20
3795
30
0
40
64
41
85.3333333333
71
1
72
1
1
H3
7
standard
210
0
220
0
230
1
50
0
73
2
44
1
0
DIMENSION
5
343
100
AcDbEntity
8
section_1_1_d
6
ByLayer
62
256
370
-1
100
AcDbDimension
2
*D4
10
4100
20
3464
30
0
11
4056
21
3614
31
0
70
32
71
5
72
0
3
Standard
53
0
210
0
220
0
230
1
100
AcDbAlignedDimension
13
4027.9239171
23
3764
33
0
14
4032.84201712
24
3464
34
0
50
90
100
AcDbRotatedDimension
0
DIMENSION
5
344
100
AcDbEntity
8
section_1_1_d
6
ByLayer
62
256
370
-1
100
AcDbDimension
2
*D5
10
4100
20
1099
30
0
11
4056
21
2281.5
31
0
70
32
71
5
72
0
3
Standard
53
0
210
0
220
0
230
1
100
AcDbAlignedDimension
13
4037.76011714
23
3464
33
0
14
4032.84201712
24
1099
34
0
50
90
100
AcDbRotatedDimension
0
DIMENSION
5
345
100
AcDbEntity
8
section_1_1_d
6
ByLayer
62
256
370
-1
100
AcDbDimension
2
*D6
10
4100
20
830
30
0
11
4056
21
964.5
31
0
70
32
1
270
71
5
72
0
3
Standard
53
0
210
0
220
0
230
1
100
AcDbAlignedDimension
13
4037.76011714
23
1099
33
0
14
4027.9239171
24
830
34
0
50
90
100
AcDbRotatedDimension
0
LINE
5
346
100
AcDbEntity
8
section_1_1_d
6
ByLayer
62
256
370
-1
100
AcDbLine
10
4718.6998044
20
3555
11
4238.6998044
21
3555
0
LINE
5
347
100
AcDbEntity
8
section_1_1_d
6
ByLayer
62
256
370
-1
100
AcDbLine
10
4238.6998044
20
3555
11
4278.6998044
21
3465
0
LINE
5
348
100
AcDbEntity
8
section_1_1_d
6
ByLayer
62
256
370
-1
100
AcDbLine
10
4278.6998044
20
3465
11
4318.6998044
21
3555
0
LINE
5
349
100
AcDbEntity
8
section_1_1_d
6
ByLayer
62
256
370
-1
100
AcDbLine
10
4718.6998044
20
3855
11
4238.6998044
21
3855
0
LINE
5
34A
100
AcDbEntity
8
section_1_1_d
6
ByLayer
62
256
370
-1
100
AcDbLine
10
4238.6998044
20
3855
11
4278.6998044
21
3765
0
LINE
5
34B
100
AcDbEntity
8
section_1_1_d
6
ByLayer
62
256
370
-1
100
AcDbLine
10
4278.6998044
20
3765
11
4318.6998044
21
3855
0
MTEXT
5
34C
100
AcDbEntity
8
section_1_1_d
6
ByLayer
62
256
370
-1
100
AcDbMText
10
4510
20
3635
30
0
40
64
41
177.777777778
71
1
72
1
1
2635
7
standard
210
0
220
0
230
1
50
0
73
2
44
1
0
MTEXT
5
34D
100
AcDbEntity
8
section_1_1_d
6
ByLayer
62
256
370
-1
100
AcDbMText
10
4510
20
3935
30
0
40
64
41
177.777777778
71
1
72
1
1
2935
7
standard
210
0
220
0
230
1
50
0
73
2
44
1
0
LINE
5
34E
100
AcDbEntity
8
section_4_4
6
ByLayer
62
256
370
-1
100
AcDbLine
10
1200
20
3464
11
3520
21
3464
0
LINE
5
34F
100
AcDbEntity
8
section_4_4
6
ByLayer
62
256
370
-1
100
AcDbLine
10
1200
20
3374
11
3520
21
3374
0
LINE
5
350
100
AcDbEntity
8
section_4_4
6
ByLayer
62
256
370
-1
100
AcDbLine
10
1200
20
3464
11
1200
21
1064
0
LINE
5
351
100
AcDbEntity
8
section_4_4
6
ByLayer
62
256
370
-1
100
AcDbLine
10
1290
20
3374
11
1290
21
1064
0
LINE
5
352
100
AcDbEntity
8
section_4_4
6
ByLayer
62
256
370
-1
100
AcDbLine
10
3430
20
3374
11
3430
21
1064
0
LINE
5
353
100
AcDbEntity
8
section_4_4
6
ByLayer
62
256
370
-1
100
AcDbLine
10
3520
20
3464
11
3520
21
1064
0
LINE
5
354
100
AcDbEntity
8
sideview
6
ByLayer
62
256
370
-1
100
AcDbLine
10
1200
20
3464
11
3520
21
3464
0
LINE
5
355
100
AcDbEntity
8
sideview
6
ByLayer
62
256
370
-1
100
AcDbLine
10
1200
20
3380
11
3520
21
3380
0
LINE
5
356
100
AcDbEntity
8
sideview
6
ByLayer
62
256
370
-1
100
AcDbLine
10
1200
20
3360
11
3520
21
3360
0
LINE
5
357
100
AcDbEntity
8
sideview
6
ByLayer
62
256
370
-1
100
AcDbLine
10
1200
20
3464
11
1200
21
1064
0
LINE
5
358
100
AcDbEntity
8
sideview
6
ByLayer
62
256
370
-1
100
AcDbLine
10
3520
20
3464
11
3520
21
1064
0
LINE
5
359
100
AcDbEntity
8
sideview
6
ByLayer
62
256
370
-1
100
AcDbLine
10
1200
20
3773.33333333
11
1200
21
3464
0
LINE
5
35A
100
AcDbEntity
8
sideview
6
ByLayer
62
256
370
-1
100
AcDbLine
10
1240
20
3768
11
1240
21
3464
0
LINE
5
35B
100
AcDbEntity
8
sideview
6
ByLayer
62
256
370
-1
100
AcDbLine
10
1280
20
3762.66666667
11
1280
21
3464
0
LINE
5
35C
100
AcDbEntity
8
sideview
6
ByLayer
62
256
370
-1
100
AcDbLine
10
1360
20
3752
11
1360
21
3464
0
LINE
5
35D
100
AcDbEntity
8
sideview
6
ByLayer
62
256
370
-1
100
AcDbLine
10
1320
20
3757.33333333
11
1320
21
3464
0
LINE
5
35E
100
AcDbEntity
8
sideview
6
ByLayer
62
256
370
-1
100
AcDbLine
10
1400
20
3746.66666667
11
1400
21
3464
0
LINE
5
35F
100
AcDbEntity
8
sideview
6
ByLayer
62
256
370
-1
100
AcDbLine
10
1440
20
3741.33333333
11
1440
21
3464
0
LINE
5
360
100
AcDbEntity
8
sideview
6
ByLayer
62
256
370
-1
100
AcDbLine
10
1480
20
3736
11
1480
21
3464
0
LINE
5
361
100
AcDbEntity
8
sideview
6
ByLayer
62
256
370
-1
100
AcDbLine
10
1520
20
3730.66666667
11
1520
21
3464
0
LINE
5
362
100
AcDbEntity
8
sideview
6
ByLayer
62
256
370
-1
100
AcDbLine
10
1560
20
3725.33333333
11
1560
21
3464
0
LINE
5
363
100
AcDbEntity
8
sideview
6
ByLayer
62
256
370
-1
100
AcDbLine
10
1600
20
3720
11
1600
21
3464
0
LINE
5
364
100
AcDbEntity
8
sideview
6
ByLayer
62
256
370
-1
100
AcDbLine
10
1640
20
3714.66666667
11
1640
21
3464
0
LINE
5
365
100
AcDbEntity
8
sideview
6
ByLayer
62
256
370
-1
100
AcDbLine
10
1680
20
3709.33333333
11
1680
21
3464
0
LINE
5
366
100
AcDbEntity
8
sideview
6
ByLayer
62
256
370
-1
100
AcDbLine
10
1720
20
3704
11
1720
21
3464
0
LINE
5
367
100
AcDbEntity
8
sideview
6
ByLayer
62
256
370
-1
100
AcDbLine
10
1800
20
3693.33333333
11
1800
21
3464
0
LINE
5
368
100
AcDbEntity
8
sideview
6
ByLayer
62
256
370
-1
100
AcDbLine
10
1760
20
3698.66666667
11
1760
21
3464
0
LINE
5
369
100
AcDbEntity
8
sideview
6
ByLayer
62
256
370
-1
100
AcDbLine
10
1840
20
3688
11
1840
21
3464
0
LINE
5
36A
100
AcDbEntity
8
sideview
6
ByLayer
62
256
370
-1
100
AcDbLine
10
1880
20
3682.66666667
11
1880
21
3464
0
LINE
5
36B
100
AcDbEntity
8
sideview
6
ByLayer
62
256
370
-1
100
AcDbLine
10
1920
20
3677.33333333
11
1920
21
3464
0
LINE
5
36C
100
AcDbEntity
8
sideview
6
ByLayer
62
256
370
-1
100
AcDbLine
10
1960
20
3672
11
1960
21
3464
0
LINE
5
36D
100
AcDbEntity
8
sideview
6
ByLayer
62
256
370
-1
100
AcDbLine
10
2000
20
3666.66666667
11
2000
21
3464
0
LINE
5
36E
100
AcDbEntity
8
sideview
6
ByLayer
62
256
370
-1
100
AcDbLine
10
2040
20
3661.33333333
11
2040
21
3464
0
LINE
5
36F
100
AcDbEntity
8
sideview
6
ByLayer
62
256
370
-1
100
AcDbLine
10
2120
20
3650.66666667
11
2120
21
3464
0
LINE
5
370
100
AcDbEntity
8
sideview
6
ByLayer
62
256
370
-1
100
AcDbLine
10
2080
20
3656
11
2080
21
3464
0
LINE
5
371
100
AcDbEntity
8
sideview
6
ByLayer
62
256
370
-1
100
AcDbLine
10
2160
20
3645.33333333
11
2160
21
3464
0
LINE
5
372
100
AcDbEntity
8
sideview
6
ByLayer
62
256
370
-1
100
AcDbLine
10
2240
20
3634.66666667
11
2240
21
3464
0
LINE
5
373
100
AcDbEntity
8
sideview
6
ByLayer
62
256
370
-1
100
AcDbLine
10
2200
20
3640
11
2200
21
3464
0
LINE
5
374
100
AcDbEntity
8
sideview
6
ByLayer
62
256
370
-1
100
AcDbLine
10
2280
20
3629.33333333
11
2280
21
3464
0
LINE
5
375
100
AcDbEntity
8
sideview
6
ByLayer
62
256
370
-1
100
AcDbLine
10
2320
20
3624
11
2320
21
3464
0
LINE
5
376
100
AcDbEntity
8
sideview
6
ByLayer
62
256
370
-1
100
AcDbLine
10
2360
20
3618.66666667
11
2360
21
3464
0
LINE
5
377
100
AcDbEntity
8
sideview
6
ByLayer
62
256
370
-1
100
AcDbLine
10
2440
20
3608
11
2440
21
3464
0
LINE
5
378
100
AcDbEntity
8
sideview
6
ByLayer
62
256
370
-1
100
AcDbLine
10
2400
20
3613.33333333
11
2400
21
3464
0
LINE
5
379
100
AcDbEntity
8
sideview
6
ByLayer
62
256
370
-1
100
AcDbLine
10
2480
20
3602.66666667
11
2480
21
3464
0
LINE
5
37A
100
AcDbEntity
8
sideview
6
ByLayer
62
256
370
-1
100
AcDbLine
10
2520
20
3597.33333333
11
2520
21
3464
0
LINE
5
37B
100
AcDbEntity
8
sideview
6
ByLayer
62
256
370
-1
100
AcDbLine
10
2560
20
3592
11
2560
21
3464
0
LINE
5
37C
100
AcDbEntity
8
sideview
6
ByLayer
62
256
370
-1
100
AcDbLine
10
2600
20
3586.66666667
11
2600
21
3464
0
LINE
5
37D
100
AcDbEntity
8
sideview
6
ByLayer
62
256
370
-1
100
AcDbLine
10
2680
20
3576
11
2680
21
3464
0
LINE
5
37E
100
AcDbEntity
8
sideview
6
ByLayer
62
256
370
-1
100
AcDbLine
10
2640
20
3581.33333333
11
2640
21
3464
0
LINE
5
37F
100
AcDbEntity
8
sideview
6
ByLayer
62
256
370
-1
100
AcDbLine
10
2720
20
3570.66666667
11
2720
21
3464
0
LINE
5
380
100
AcDbEntity
8
sideview
6
ByLayer
62
256
370
-1
100
AcDbLine
10
2760
20
3565.33333333
11
2760
21
3464
0
LINE
5
381
100
AcDbEntity
8
sideview
6
ByLayer
62
256
370
-1
100
AcDbLine
10
2800
20
3560
11
2800
21
3464
0
LINE
5
382
100
AcDbEntity
8
sideview
6
ByLayer
62
256
370
-1
100
AcDbLine
10
2840
20
3554.66666667
11
2840
21
3464
0
LINE
5
383
100
AcDbEntity
8
sideview
6
ByLayer
62
256
370
-1
100
AcDbLine
10
2880
20
3549.33333333
11
2880
21
3464
0
LINE
5
384
100
AcDbEntity
8
sideview
6
ByLayer
62
256
370
-1
100
AcDbLine
10
2920
20
3544
11
2920
21
3464
0
LINE
5
385
100
AcDbEntity
8
sideview
6
ByLayer
62
256
370
-1
100
AcDbLine
10
2960
20
3538.66666667
11
2960
21
3464
0
LINE
5
386
100
AcDbEntity
8
sideview
6
ByLayer
62
256
370
-1
100
AcDbLine
10
3000
20
3533.33333333
11
3000
21
3464
0
LINE
5
387
100
AcDbEntity
8
sideview
6
ByLayer
62
256
370
-1
100
AcDbLine
10
3080
20
3522.66666667
11
3080
21
3464
0
LINE
5
388
100
AcDbEntity
8
sideview
6
ByLayer
62
256
370
-1
100
AcDbLine
10
3120
20
3517.33333333
11
3120
21
3464
0
LINE
5
389
100
AcDbEntity
8
sideview
6
ByLayer
62
256
370
-1
100
AcDbLine
10
3040
20
3528
11
3040
21
3464
0
LINE
5
38A
100
AcDbEntity
8
sideview
6
ByLayer
62
256
370
-1
100
AcDbLine
10
3160
20
3512
11
3160
21
3464
0
LINE
5
38B
100
AcDbEntity
8
sideview
6
ByLayer
62
256
370
-1
100
AcDbLine
10
3200
20
3506.66666667
11
3200
21
3464
0
LINE
5
38C
100
AcDbEntity
8
sideview
6
ByLayer
62
256
370
-1
100
AcDbLine
10
3240
20
3501.33333333
11
3240
21
3464
0
LINE
5
38D
100
AcDbEntity
8
sideview
6
ByLayer
62
256
370
-1
100
AcDbLine
10
3280
20
3496
11
3280
21
3464
0
LINE
5
38E
100
AcDbEntity
8
sideview
6
ByLayer
62
256
370
-1
100
AcDbLine
10
3320
20
3490.66666667
11
3320
21
3464
0
LINE
5
38F
100
AcDbEntity
8
sideview
6
ByLayer
62
256
370
-1
100
AcDbLine
10
3360
20
3485.33333333
11
3360
21
3464
0
LINE
5
390
100
AcDbEntity
8
sideview
6
ByLayer
62
256
370
-1
100
AcDbLine
10
3400
20
3480
11
3400
21
3464
0
LINE
5
391
100
AcDbEntity
8
sideview
6
ByLayer
62
256
370
-1
100
AcDbLine
10
3440
20
3474.66666667
11
3440
21
3464
0
MTEXT
5
392
100
AcDbEntity
8
section_1_1_d
6
ByLayer
62
256
370
-1
100
AcDbMText
10
5450
20
2170
30
0
40
48
41
133.333333333
71
1
72
1
1
2330
7
standard
210
0
220
0
230
1
50
0
73
2
44
1
0
DIMENSION
5
393
100
AcDbEntity
8
section_1_1_d
6
ByLayer
62
256
370
-1
100
AcDbDimension
2
*D7
10
300
20
3464
30
0
11
256
21
3614
31
0
70
32
71
5
72
0
3
Standard
53
0
210
0
220
0
230
1
100
AcDbAlignedDimension
13
270.495501148
23
3764
33
0
14
270.495501148
24
3464
34
0
50
90
100
AcDbRotatedDimension
0
DIMENSION
5
394
100
AcDbEntity
8
section_1_1_d
6
ByLayer
62
256
370
-1
100
AcDbDimension
2
*D8
10
300
20
1099
30
0
11
256
21
2281.5
31
0
70
32
71
5
72
0
3
Standard
53
0
210
0
220
0
230
1
100
AcDbAlignedDimension
13
264.347876122
23
3464
33
0
14
270.495501148
24
1099
34
0
50
90
100
AcDbRotatedDimension
0
LINE
5
395
100
AcDbEntity
8
section_4_4_d
6
CENTER2
62
256
370
-1
100
AcDbLine
10
2359.5
20
949
11
2359.5
21
299
0
LINE
5
396
100
AcDbEntity
8
section_4_4_d
6
CENTER2
62
256
370
-1
100
AcDbLine
10
3412.5
20
949
11
3412.5
21
299
0
CIRCLE
5
397
100
AcDbEntity
8
section_4_4_d
6
ByLayer
62
256
370
-1
100
AcDbCircle
10
1307.5
20
226.71067915
40
72.2893208499
0
LINE
5
398
100
AcDbEntity
8
section_4_4_d
6
CENTER2
62
256
370
-1
100
AcDbLine
10
1307.5
20
949
11
1307.5
21
299
0
CIRCLE
5
399
100
AcDbEntity
8
section_4_4_d
6
ByLayer
62
256
370
-1
100
AcDbCircle
10
2359.5
20
226.71067915
40
72.2893208499
0
CIRCLE
5
39A
100
AcDbEntity
8
section_4_4_d
6
ByLayer
62
256
370
-1
100
AcDbCircle
10
3412.5
20
226.71067915
40
72.2893208499
0
MTEXT
5
39B
100
AcDbEntity
8
section_4_4_d
6
ByLayer
62
256
370
-1
100
AcDbMText
10
1295
20
260
30
0
40
64
41
42.6666666667
71
1
72
1
1
A
7
standard
210
0
220
0
230
1
50
0
73
2
44
1
0
MTEXT
5
39C
100
AcDbEntity
8
section_4_4_d
6
ByLayer
62
256
370
-1
100
AcDbMText
10
2347
20
260
30
0
40
64
41
28.4444444444
71
1
72
1
1
C
7
standard
210
0
220
0
230
1
50
0
73
2
44
1
0
MTEXT
5
39D
100
AcDbEntity
8
section_4_4_d
6
ByLayer
62
256
370
-1
100
AcDbMText
10
3400
20
260
30
0
40
64
41
28.4444444444
71
1
72
1
1
E
7
standard
210
0
220
0
230
1
50
0
73
2
44
1
0
CIRCLE
5
39E
100
AcDbEntity
8
section_4_4_d
6
ByLayer
62
256
370
-1
100
AcDbCircle
10
1307.5
20
4301.28932085
40
72.2893208499
0
CIRCLE
5
39F
100
AcDbEntity
8
section_4_4_d
6
ByLayer
62
256
370
-1
100
AcDbCircle
10
2359.5
20
4301.28932085
40
72.2893208499
0
CIRCLE
5
3A0
100
AcDbEntity
8
section_4_4_d
6
ByLayer
62
256
370
-1
100
AcDbCircle
10
3412.5
20
4301.28932085
40
72.2893208499
0
MTEXT
5
3A1
100
AcDbEntity
8
section_4_4_d
6
ByLayer
62
256
370
-1
100
AcDbMText
10
1295
20
4268
30
0
40
64
41
42.6666666667
71
7
72
1
1
A
7
standard
210
0
220
0
230
1
50
0
73
2
44
1
0
MTEXT
5
3A2
100
AcDbEntity
8
section_4_4_d
6
ByLayer
62
256
370
-1
100
AcDbMText
10
2347
20
4268
30
0
40
64
41
28.4444444444
71
7
72
1
1
C
7
standard
210
0
220
0
230
1
50
0
73
2
44
1
0
MTEXT
5
3A3
100
AcDbEntity
8
section_4_4_d
6
ByLayer
62
256
370
-1
100
AcDbMText
10
3400
20
4268
30
0
40
64
41
28.4444444444
71
7
72
1
1
E
7
standard
210
0
220
0
230
1
50
0
73
2
44
1
0
LINE
5
3A4
100
AcDbEntity
8
section_4_4_d
6
CENTER2
62
256
370
-1
100
AcDbLine
10
1307.5
20
3879
11
1307.5
21
4229
0
LINE
5
3A5
100
AcDbEntity
8
section_4_4_d
6
CENTER2
62
256
370
-1
100
AcDbLine
10
2359.5
20
3879
11
2359.5
21
4229
0
LINE
5
3A6
100
AcDbEntity
8
section_4_4_d
6
CENTER2
62
256
370
-1
100
AcDbLine
10
3412.5
20
3879
11
3412.5
21
4229
0
CIRCLE
5
3A7
100
AcDbEntity
8
section_4_4_d
6
ByLayer
62
256
370
-1
100
AcDbCircle
10
4442.28932085
20
1099
40
72.2893208499
0
MTEXT
5
3A8
100
AcDbEntity
8
section_4_4_d
6
ByLayer
62
256
370
-1
100
AcDbMText
10
4400
20
1130
30
0
40
64
41
71.1111111111
71
1
72
1
1
H1
7
standard
210
0
220
0
230
1
50
0
73
2
44
1
0
LINE
5
3A9
100
AcDbEntity
8
section_4_4_d
6
CENTER2
62
256
370
-1
100
AcDbLine
10
3920
20
1099
11
4370
21
1099
0
CIRCLE
5
3AA
100
AcDbEntity
8
section_4_4_d
6
ByLayer
62
256
370
-1
100
AcDbCircle
10
161.71067915
20
1099
40
72.2893208499
0
LINE
5
3AB
100
AcDbEntity
8
section_4_4_d
6
CENTER2
62
256
370
-1
100
AcDbLine
10
684
20
1099
11
234
21
1099
0
MTEXT
5
3AC
100
AcDbEntity
8
section_4_4_d
6
ByLayer
62
256
370
-1
100
AcDbMText
10
204
20
1130
30
0
40
64
41
71.1111111111
71
3
72
1
1
H1
7
standard
210
0
220
0
230
1
50
360
73
2
44
1
0
LINE
5
3AD
100
AcDbEntity
8
section_4_4_d
6
CENTER2
62
256
370
-1
100
AcDbLine
10
1200
20
914
11
1200
21
414
0
LINE
5
3AE
100
AcDbEntity
8
section_4_4_d
6
CENTER2
62
256
370
-1
100
AcDbLine
10
1290
20
914
11
1290
21
414
0
LINE
5
3AF
100
AcDbEntity
8
section_4_4_d
6
CENTER2
62
256
370
-1
100
AcDbLine
10
3430
20
914
11
3430
21
414
0
LINE
5
3B0
100
AcDbEntity
8
section_4_4_d
6
CENTER2
62
256
370
-1
100
AcDbLine
10
3520
20
914
11
3520
21
414
0
DIMENSION
5
3B1
100
AcDbEntity
8
section_4_4_d
6
ByLayer
62
256
370
-1
100
AcDbDimension
2
*D9
10
3430
20
600
30
0
11
2360
21
644
31
0
70
32
71
5
72
0
3
Standard
53
0
210
0
220
0
230
1
100
AcDbAlignedDimension
13
1290
23
677.93419016
33
0
14
3430
24
674.01549542
34
0
100
AcDbRotatedDimension
0
DIMENSION
5
3B2
100
AcDbEntity
8
section_4_4_d
6
ByLayer
62
256
370
-1
100
AcDbDimension
2
*D10
10
3520
20
500
30
0
11
2360
21
544
31
0
70
32
71
5
72
0
3
Standard
53
0
210
0
220
0
230
1
100
AcDbAlignedDimension
13
1200
23
548.617263714
33
0
14
3520
24
536.861179491
34
0
100
AcDbRotatedDimension
0
LINE
5
3B3
100
AcDbEntity
8
section_4_4_d
6
CENTER2
62
256
370
-1
100
AcDbLine
10
3920
20
830
11
4370
21
830
0
LINE
5
3B4
100
AcDbEntity
8
section_4_4_d
6
CENTER2
62
256
370
-1
100
AcDbLine
10
843.682792195
20
3940.84229437
11
843.682792195
21
4290.84229437
0
LINE
5
3B5
100
AcDbEntity
8
section_4_4_d
6
CENTER2
62
256
370
-1
100
AcDbLine
10
3817.3683702
20
3884.35088397
11
3817.3683702
21
4234.35088397
0
DIMENSION
5
3B6
100
AcDbEntity
8
section_4_4_d
6
ByLayer
62
256
370
-1
100
AcDbDimension
2
*D11
10
3817.3683702
20
4100
30
0
11
2330.5255812
21
4144
31
0
70
32
1
2975
71
5
72
0
3
Standard
53
0
210
0
220
0
230
1
100
AcDbAlignedDimension
13
843.682792195
23
4045.13726717
33
0
14
3817.3683702
24
4038.98964215
34
0
100
AcDbRotatedDimension
0
CIRCLE
5
3B7
100
AcDbEntity
8
section_4_4_d
6
ByLayer
62
256
370
-1
100
AcDbCircle
10
161.71067915
20
3464
40
72.2893208499
0
LINE
5
3B8
100
AcDbEntity
8
section_4_4_d
6
CENTER2
62
256
370
-1
100
AcDbLine
10
684
20
3464
11
234
21
3464
0
CIRCLE
5
3B9
100
AcDbEntity
8
section_4_4_d
6
ByLayer
62
256
370
-1
100
AcDbCircle
10
161.71067915
20
3764
40
72.2893208499
0
LINE
5
3BA
100
AcDbEntity
8
section_4_4_d
6
CENTER2
62
256
370
-1
100
AcDbLine
10
684
20
3764
11
234
21
3764
0
MTEXT
5
3BB
100
AcDbEntity
8
section_4_4_d
6
ByLayer
62
256
370
-1
100
AcDbMText
10
204
20
3495
30
0
40
64
41
85.3333333333
71
3
72
1
1
H2
7
standard
210
0
220
0
230
1
50
360
73
2
44
1
0
MTEXT
5
3BC
100
AcDbEntity
8
section_4_4_d
6
ByLayer
62
256
370
-1
100
AcDbMText
10
204
20
3795
30
0
40
64
41
85.3333333333
71
3
72
1
1
H3
7
standard
210
0
220
0
230
1
50
360
73
2
44
1
0
CIRCLE
5
3BD
100
AcDbEntity
8
section_4_4_d
6
ByLayer
62
256
370
-1
100
AcDbCircle
10
4442.28932085
20
3464
40
72.2893208499
0
LINE
5
3BE
100
AcDbEntity
8
section_4_4_d
6
CENTER2
62
256
370
-1
100
AcDbLine
10
3920
20
3464
11
4370
21
3464
0
CIRCLE
5
3BF
100
AcDbEntity
8
section_4_4_d
6
ByLayer
62
256
370
-1
100
AcDbCircle
10
4442.28932085
20
3764
40
72.2893208499
0
LINE
5
3C0
100
AcDbEntity
8
section_4_4_d
6
CENTER2
62
256
370
-1
100
AcDbLine
10
3920
20
3764
11
4370
21
3764
0
LINE
5
3C1
100
AcDbEntity
8
section_4_4_d
6
ByLayer
62
256
370
-1
100
AcDbLine
10
4718.6998044
20
920
11
4238.6998044
21
920
0
LINE
5
3C2
100
AcDbEntity
8
section_4_4_d
6
ByLayer
62
256
370
-1
100
AcDbLine
10
4238.6998044
20
920
11
4278.6998044
21
830
0
LINE
5
3C3
100
AcDbEntity
8
section_4_4_d
6
ByLayer
62
256
370
-1
100
AcDbLine
10
4278.6998044
20
830
11
4318.6998044
21
920
0
MTEXT
5
3C4
100
AcDbEntity
8
section_4_4_d
6
ByLayer
62
256
370
-1
100
AcDbMText
10
4510
20
1000
30
0
40
64
41
99.5555555556
71
1
72
1
1
0.0
7
standard
210
0
220
0
230
1
50
0
73
2
44
1
0
LINE
5
3C5
100
AcDbEntity
8
section_4_4_d
6
ByLayer
62
256
370
-1
100
AcDbLine
10
4718.6998044
20
1190
11
4238.6998044
21
1190
0
LINE
5
3C6
100
AcDbEntity
8
section_4_4_d
6
ByLayer
62
256
370
-1
100
AcDbLine
10
4238.6998044
20
1190
11
4278.6998044
21
1100
0
LINE
5
3C7
100
AcDbEntity
8
section_4_4_d
6
ByLayer
62
256
370
-1
100
AcDbLine
10
4278.6998044
20
1100
11
4318.6998044
21
1190
0
MTEXT
5
3C8
100
AcDbEntity
8
section_4_4_d
6
ByLayer
62
256
370
-1
100
AcDbMText
10
4510
20
1270
30
0
40
64
41
128
71
1
72
1
1
270
7
standard
210
0
220
0
230
1
50
0
73
2
44
1
0
MTEXT
5
3C9
100
AcDbEntity
8
section_4_4_d
6
ByLayer
62
256
370
-1
100
AcDbMText
10
4400
20
3495
30
0
40
64
41
85.3333333333
71
1
72
1
1
H2
7
standard
210
0
220
0
230
1
50
0
73
2
44
1
0
MTEXT
5
3CA
100
AcDbEntity
8
section_4_4_d
6
ByLayer
62
256
370
-1
100
AcDbMText
10
4400
20
3795
30
0
40
64
41
85.3333333333
71
1
72
1
1
H3
7
standard
210
0
220
0
230
1
50
0
73
2
44
1
0
DIMENSION
5
3CB
100
AcDbEntity
8
section_4_4_d
6
ByLayer
62
256
370
-1
100
AcDbDimension
2
*D12
10
4100
20
3464
30
0
11
4056
21
3614
31
0
70
32
71
5
72
0
3
Standard
53
0
210
0
220
0
230
1
100
AcDbAlignedDimension
13
4027.9239171
23
3764
33
0
14
4032.84201712
24
3464
34
0
50
90
100
AcDbRotatedDimension
0
DIMENSION
5
3CC
100
AcDbEntity
8
section_4_4_d
6
ByLayer
62
256
370
-1
100
AcDbDimension
2
*D13
10
4100
20
1099
30
0
11
4056
21
2281.5
31
0
70
32
71
5
72
0
3
Standard
53
0
210
0
220
0
230
1
100
AcDbAlignedDimension
13
4037.76011714
23
3464
33
0
14
4032.84201712
24
1099
34
0
50
90
100
AcDbRotatedDimension
0
DIMENSION
5
3CD
100
AcDbEntity
8
section_4_4_d
6
ByLayer
62
256
370
-1
100
AcDbDimension
2
*D14
10
4100
20
830
30
0
11
4056
21
964.5
31
0
70
32
1
270
71
5
72
0
3
Standard
53
0
210
0
220
0
230
1
100
AcDbAlignedDimension
13
4037.76011714
23
1099
33
0
14
4027.9239171
24
830
34
0
50
90
100
AcDbRotatedDimension
0
LINE
5
3CE
100
AcDbEntity
8
section_4_4_d
6
ByLayer
62
256
370
-1
100
AcDbLine
10
4718.6998044
20
3555
11
4238.6998044
21
3555
0
LINE
5
3CF
100
AcDbEntity
8
section_4_4_d
6
ByLayer
62
256
370
-1
100
AcDbLine
10
4238.6998044
20
3555
11
4278.6998044
21
3465
0
LINE
5
3D0
100
AcDbEntity
8
section_4_4_d
6
ByLayer
62
256
370
-1
100
AcDbLine
10
4278.6998044
20
3465
11
4318.6998044
21
3555
0
LINE
5
3D1
100
AcDbEntity
8
section_4_4_d
6
ByLayer
62
256
370
-1
100
AcDbLine
10
4718.6998044
20
3855
11
4238.6998044
21
3855
0
LINE
5
3D2
100
AcDbEntity
8
section_4_4_d
6
ByLayer
62
256
370
-1
100
AcDbLine
10
4238.6998044
20
3855
11
4278.6998044
21
3765
0
LINE
5
3D3
100
AcDbEntity
8
section_4_4_d
6
ByLayer
62
256
370
-1
100
AcDbLine
10
4278.6998044
20
3765
11
4318.6998044
21
3855
0
MTEXT
5
3D4
100
AcDbEntity
8
section_4_4_d
6
ByLayer
62
256
370
-1
100
AcDbMText
10
4510
20
3635
30
0
40
64
41
177.777777778
71
1
72
1
1
2635
7
standard
210
0
220
0
230
1
50
0
73
2
44
1
0
MTEXT
5
3D5
100
AcDbEntity
8
section_4_4_d
6
ByLayer
62
256
370
-1
100
AcDbMText
10
4510
20
3935
30
0
40
64
41
177.777777778
71
1
72
1
1
2935
7
standard
210
0
220
0
230
1
50
0
73
2
44
1
0
DIMENSION
5
3D6
100
AcDbEntity
8
section_4_4_d
6
ByLayer
62
256
370
-1
100
AcDbDimension
2
*D15
10
300
20
3464
30
0
11
256
21
3614
31
0
70
32
71
5
72
0
3
Standard
53
0
210
0
220
0
230
1
100
AcDbAlignedDimension
13
270.495501148
23
3764
33
0
14
270.495501148
24
3464
34
0
50
90
100
AcDbRotatedDimension
0
DIMENSION
5
3D7
100
AcDbEntity
8
section_4_4_d
6
ByLayer
62
256
370
-1
100
AcDbDimension
2
*D16
10
300
20
1099
30
0
11
256
21
2281.5
31
0
70
32
71
5
72
0
3
Standard
53
0
210
0
220
0
230
1
100
AcDbAlignedDimension
13
264.347876122
23
3464
33
0
14
270.495501148
24
1099
34
0
50
90
100
AcDbRotatedDimension
0
MTEXT
5
3D8
100
AcDbEntity
8
section_4_4_d
6
ByLayer
62
256
370
-1
100
AcDbMText
10
5070
20
1570
30
0
40
96
41
807.999979648
71
1
72
1
1
SECTION 4-4
7
standard
210
0
220
0
230
1
50
0
73
2
44
1
0
CIRCLE
5
3D9
100
AcDbEntity
8
sideview_d
6
ByLayer
62
256
370
-1
100
AcDbCircle
10
1307.5
20
226.71067915
40
72.2893208499
0
CIRCLE
5
3DA
100
AcDbEntity
8
sideview_d
6
ByLayer
62
256
370
-1
100
AcDbCircle
10
2359.5
20
226.71067915
40
72.2893208499
0
CIRCLE
5
3DB
100
AcDbEntity
8
sideview_d
6
ByLayer
62
256
370
-1
100
AcDbCircle
10
3412.5
20
226.71067915
40
72.2893208499
0
MTEXT
5
3DC
100
AcDbEntity
8
sideview_d
6
ByLayer
62
256
370
-1
100
AcDbMText
10
1295
20
260
30
0
40
64
41
42.6666666667
71
1
72
1
1
A
7
standard
210
0
220
0
230
1
50
0
73
2
44
1
0
MTEXT
5
3DD
100
AcDbEntity
8
sideview_d
6
ByLayer
62
256
370
-1
100
AcDbMText
10
2347
20
260
30
0
40
64
41
28.4444444444
71
1
72
1
1
C
7
standard
210
0
220
0
230
1
50
0
73
2
44
1
0
MTEXT
5
3DE
100
AcDbEntity
8
sideview_d
6
ByLayer
62
256
370
-1
100
AcDbMText
10
3400
20
260
30
0
40
64
41
28.4444444444
71
1
72
1
1
E
7
standard
210
0
220
0
230
1
50
0
73
2
44
1
0
CIRCLE
5
3DF
100
AcDbEntity
8
sideview_d
6
ByLayer
62
256
370
-1
100
AcDbCircle
10
1307.5
20
4301.28932085
40
72.2893208499
0
CIRCLE
5
3E0
100
AcDbEntity
8
sideview_d
6
ByLayer
62
256
370
-1
100
AcDbCircle
10
2359.5
20
4301.28932085
40
72.2893208499
0
CIRCLE
5
3E1
100
AcDbEntity
8
sideview_d
6
ByLayer
62
256
370
-1
100
AcDbCircle
10
3412.5
20
4301.28932085
40
72.2893208499
0
MTEXT
5
3E2
100
AcDbEntity
8
sideview_d
6
ByLayer
62
256
370
-1
100
AcDbMText
10
1295
20
4268
30
0
40
64
41
42.6666666667
71
7
72
1
1
A
7
standard
210
0
220
0
230
1
50
0
73
2
44
1
0
MTEXT
5
3E3
100
AcDbEntity
8
sideview_d
6
ByLayer
62
256
370
-1
100
AcDbMText
10
2347
20
4268
30
0
40
64
41
28.4444444444
71
7
72
1
1
C
7
standard
210
0
220
0
230
1
50
0
73
2
44
1
0
MTEXT
5
3E4
100
AcDbEntity
8
sideview_d
6
ByLayer
62
256
370
-1
100
AcDbMText
10
3400
20
4268
30
0
40
64
41
28.4444444444
71
7
72
1
1
E
7
standard
210
0
220
0
230
1
50
0
73
2
44
1
0
LINE
5
3E5
100
AcDbEntity
8
sideview_d
6
CENTER2
62
256
370
-1
100
AcDbLine
10
1307.5
20
3879
11
1307.5
21
4229
0
LINE
5
3E6
100
AcDbEntity
8
sideview_d
6
CENTER2
62
256
370
-1
100
AcDbLine
10
2359.5
20
3879
11
2359.5
21
4229
0
LINE
5
3E7
100
AcDbEntity
8
sideview_d
6
CENTER2
62
256
370
-1
100
AcDbLine
10
3412.5
20
3879
11
3412.5
21
4229
0
CIRCLE
5
3E8
100
AcDbEntity
8
sideview_d
6
ByLayer
62
256
370
-1
100
AcDbCircle
10
4442.28932085
20
1099
40
72.2893208499
0
MTEXT
5
3E9
100
AcDbEntity
8
sideview_d
6
ByLayer
62
256
370
-1
100
AcDbMText
10
4400
20
1130
30
0
40
64
41
71.1111111111
71
1
72
1
1
H1
7
standard
210
0
220
0
230
1
50
0
73
2
44
1
0
LINE
5
3EA
100
AcDbEntity
8
sideview_d
6
CENTER2
62
256
370
-1
100
AcDbLine
10
3920
20
1099
11
4370
21
1099
0
CIRCLE
5
3EB
100
AcDbEntity
8
sideview_d
6
ByLayer
62
256
370
-1
100
AcDbCircle
10
161.71067915
20
1099
40
72.2893208499
0
LINE
5
3EC
100
AcDbEntity
8
sideview_d
6
CENTER2
62
256
370
-1
100
AcDbLine
10
684
20
1099
11
234
21
1099
0
MTEXT
5
3ED
100
AcDbEntity
8
sideview_d
6
ByLayer
62
256
370
-1
100
AcDbMText
10
204
20
1130
30
0
40
64
41
71.1111111111
71
3
72
1
1
H1
7
standard
210
0
220
0
230
1
50
360
73
2
44
1
0
DIMENSION
5
3EE
100
AcDbEntity
8
sideview_d
6
ByLayer
62
256
370
-1
100
AcDbDimension
2
*D17
10
3520
20
500
30
0
11
2360
21
544
31
0
70
32
71
5
72
0
3
Standard
53
0
210
0
220
0
230
1
100
AcDbAlignedDimension
13
1200
23
548.617263714
33
0
14
3520
24
536.861179491
34
0
100
AcDbRotatedDimension
0
LINE
5
3EF
100
AcDbEntity
8
sideview_d
6
CENTER2
62
256
370
-1
100
AcDbLine
10
3920
20
830
11
4370
21
830
0
LINE
5
3F0
100
AcDbEntity
8
sideview_d
6
CENTER2
62
256
370
-1
100
AcDbLine
10
843.682792195
20
3940.84229437
11
843.682792195
21
4290.84229437
0
LINE
5
3F1
100
AcDbEntity
8
sideview_d
6
CENTER2
62
256
370
-1
100
AcDbLine
10
3817.3683702
20
3884.35088397
11
3817.3683702
21
4234.35088397
0
DIMENSION
5
3F2
100
AcDbEntity
8
sideview_d
6
ByLayer
62
256
370
-1
100
AcDbDimension
2
*D18
10
3817.3683702
20
4100
30
0
11
2330.5255812
21
4144
31
0
70
32
1
2975
71
5
72
0
3
Standard
53
0
210
0
220
0
230
1
100
AcDbAlignedDimension
13
843.682792195
23
4045.13726717
33
0
14
3817.3683702
24
4038.98964215
34
0
100
AcDbRotatedDimension
0
CIRCLE
5
3F3
100
AcDbEntity
8
sideview_d
6
ByLayer
62
256
370
-1
100
AcDbCircle
10
161.71067915
20
3464
40
72.2893208499
0
LINE
5
3F4
100
AcDbEntity
8
sideview_d
6
CENTER2
62
256
370
-1
100
AcDbLine
10
684
20
3464
11
234
21
3464
0
CIRCLE
5
3F5
100
AcDbEntity
8
sideview_d
6
ByLayer
62
256
370
-1
100
AcDbCircle
10
161.71067915
20
3764
40
72.2893208499
0
LINE
5
3F6
100
AcDbEntity
8
sideview_d
6
CENTER2
62
256
370
-1
100
AcDbLine
10
684
20
3764
11
234
21
3764
0
MTEXT
5
3F7
100
AcDbEntity
8
sideview_d
6
ByLayer
62
256
370
-1
100
AcDbMText
10
204
20
3495
30
0
40
64
41
85.3333333333
71
3
72
1
1
H2
7
standard
210
0
220
0
230
1
50
360
73
2
44
1
0
MTEXT
5
3F8
100
AcDbEntity
8
sideview_d
6
ByLayer
62
256
370
-1
100
AcDbMText
10
204
20
3795
30
0
40
64
41
85.3333333333
71
3
72
1
1
H3
7
standard
210
0
220
0
230
1
50
360
73
2
44
1
0
CIRCLE
5
3F9
100
AcDbEntity
8
sideview_d
6
ByLayer
62
256
370
-1
100
AcDbCircle
10
4442.28932085
20
3464
40
72.2893208499
0
LINE
5
3FA
100
AcDbEntity
8
sideview_d
6
CENTER2
62
256
370
-1
100
AcDbLine
10
3920
20
3464
11
4370
21
3464
0
CIRCLE
5
3FB
100
AcDbEntity
8
sideview_d
6
ByLayer
62
256
370
-1
100
AcDbCircle
10
4442.28932085
20
3764
40
72.2893208499
0
LINE
5
3FC
100
AcDbEntity
8
sideview_d
6
CENTER2
62
256
370
-1
100
AcDbLine
10
3920
20
3764
11
4370
21
3764
0
LINE
5
3FD
100
AcDbEntity
8
sideview_d
6
ByLayer
62
256
370
-1
100
AcDbLine
10
4718.6998044
20
920
11
4238.6998044
21
920
0
LINE
5
3FE
100
AcDbEntity
8
sideview_d
6
ByLayer
62
256
370
-1
100
AcDbLine
10
4238.6998044
20
920
11
4278.6998044
21
830
0
LINE
5
3FF
100
AcDbEntity
8
sideview_d
6
ByLayer
62
256
370
-1
100
AcDbLine
10
4278.6998044
20
830
11
4318.6998044
21
920
0
MTEXT
5
400
100
AcDbEntity
8
sideview_d
6
ByLayer
62
256
370
-1
100
AcDbMText
10
4510
20
1000
30
0
40
64
41
99.5555555556
71
1
72
1
1
0.0
7
standard
210
0
220
0
230
1
50
0
73
2
44
1
0
LINE
5
401
100
AcDbEntity
8
sideview_d
6
ByLayer
62
256
370
-1
100
AcDbLine
10
4718.6998044
20
1190
11
4238.6998044
21
1190
0
LINE
5
402
100
AcDbEntity
8
sideview_d
6
ByLayer
62
256
370
-1
100
AcDbLine
10
4238.6998044
20
1190
11
4278.6998044
21
1100
0
LINE
5
403
100
AcDbEntity
8
sideview_d
6
ByLayer
62
256
370
-1
100
AcDbLine
10
4278.6998044
20
1100
11
4318.6998044
21
1190
0
MTEXT
5
404
100
AcDbEntity
8
sideview_d
6
ByLayer
62
256
370
-1
100
AcDbMText
10
4510
20
1270
30
0
40
64
41
128
71
1
72
1
1
270
7
standard
210
0
220
0
230
1
50
0
73
2
44
1
0
MTEXT
5
405
100
AcDbEntity
8
sideview_d
6
ByLayer
62
256
370
-1
100
AcDbMText
10
4400
20
3495
30
0
40
64
41
85.3333333333
71
1
72
1
1
H2
7
standard
210
0
220
0
230
1
50
0
73
2
44
1
0
MTEXT
5
406
100
AcDbEntity
8
sideview_d
6
ByLayer
62
256
370
-1
100
AcDbMText
10
4400
20
3795
30
0
40
64
41
85.3333333333
71
1
72
1
1
H3
7
standard
210
0
220
0
230
1
50
0
73
2
44
1
0
DIMENSION
5
407
100
AcDbEntity
8
sideview_d
6
ByLayer
62
256
370
-1
100
AcDbDimension
2
*D19
10
4100
20
3464
30
0
11
4056
21
3614
31
0
70
32
71
5
72
0
3
Standard
53
0
210
0
220
0
230
1
100
AcDbAlignedDimension
13
4027.9239171
23
3764
33
0
14
4032.84201712
24
3464
34
0
50
90
100
AcDbRotatedDimension
0
DIMENSION
5
408
100
AcDbEntity
8
sideview_d
6
ByLayer
62
256
370
-1
100
AcDbDimension
2
*D20
10
4100
20
1099
30
0
11
4056
21
2281.5
31
0
70
32
71
5
72
0
3
Standard
53
0
210
0
220
0
230
1
100
AcDbAlignedDimension
13
4037.76011714
23
3464
33
0
14
4032.84201712
24
1099
34
0
50
90
100
AcDbRotatedDimension
0
DIMENSION
5
409
100
AcDbEntity
8
sideview_d
6
ByLayer
62
256
370
-1
100
AcDbDimension
2
*D21
10
4100
20
830
30
0
11
4056
21
964.5
31
0
70
32
1
270
71
5
72
0
3
Standard
53
0
210
0
220
0
230
1
100
AcDbAlignedDimension
13
4037.76011714
23
1099
33
0
14
4027.9239171
24
830
34
0
50
90
100
AcDbRotatedDimension
0
LINE
5
40A
100
AcDbEntity
8
sideview_d
6
ByLayer
62
256
370
-1
100
AcDbLine
10
4718.6998044
20
3555
11
4238.6998044
21
3555
0
LINE
5
40B
100
AcDbEntity
8
sideview_d
6
ByLayer
62
256
370
-1
100
AcDbLine
10
4238.6998044
20
3555
11
4278.6998044
21
3465
0
LINE
5
40C
100
AcDbEntity
8
sideview_d
6
ByLayer
62
256
370
-1
100
AcDbLine
10
4278.6998044
20
3465
11
4318.6998044
21
3555
0
LINE
5
40D
100
AcDbEntity
8
sideview_d
6
ByLayer
62
256
370
-1
100
AcDbLine
10
4718.6998044
20
3855
11
4238.6998044
21
3855
0
LINE
5
40E
100
AcDbEntity
8
sideview_d
6
ByLayer
62
256
370
-1
100
AcDbLine
10
4238.6998044
20
3855
11
4278.6998044
21
3765
0
LINE
5
40F
100
AcDbEntity
8
sideview_d
6
ByLayer
62
256
370
-1
100
AcDbLine
10
4278.6998044
20
3765
11
4318.6998044
21
3855
0
MTEXT
5
410
100
AcDbEntity
8
sideview_d
6
ByLayer
62
256
370
-1
100
AcDbMText
10
4510
20
3635
30
0
40
64
41
177.777777778
71
1
72
1
1
2635
7
standard
210
0
220
0
230
1
50
0
73
2
44
1
0
MTEXT
5
411
100
AcDbEntity
8
sideview_d
6
ByLayer
62
256
370
-1
100
AcDbMText
10
4510
20
3935
30
0
40
64
41
177.777777778
71
1
72
1
1
2935
7
standard
210
0
220
0
230
1
50
0
73
2
44
1
0
DIMENSION
5
412
100
AcDbEntity
8
sideview_d
6
ByLayer
62
256
370
-1
100
AcDbDimension
2
*D22
10
300
20
3464
30
0
11
256
21
3614
31
0
70
32
71
5
72
0
3
Standard
53
0
210
0
220
0
230
1
100
AcDbAlignedDimension
13
270.495501148
23
3764
33
0
14
270.495501148
24
3464
34
0
50
90
100
AcDbRotatedDimension
0
DIMENSION
5
413
100
AcDbEntity
8
sideview_d
6
ByLayer
62
256
370
-1
100
AcDbDimension
2
*D23
10
300
20
1099
30
0
11
256
21
2281.5
31
0
70
32
71
5
72
0
3
Standard
53
0
210
0
220
0
230
1
100
AcDbAlignedDimension
13
264.347876122
23
3464
33
0
14
270.495501148
24
1099
34
0
50
90
100
AcDbRotatedDimension
0
MTEXT
5
414
100
AcDbEntity
8
sideview_d
6
ByLayer
62
256
370
-1
100
AcDbMText
10
5080
20
780
30
0
40
64
41
508.444444444
71
1
72
1
1
28 Feb 2017
7
standard
210
0
220
0
230
1
50
0
73
2
44
1
0
LINE
5
415
100
AcDbEntity
8
sideview_d
6
CENTER2
62
256
370
-1
100
AcDbLine
10
1200
20
614
11
1200
21
414
0
LINE
5
416
100
AcDbEntity
8
sideview_d
6
CENTER2
62
256
370
-1
100
AcDbLine
10
1307.5
20
649
11
1307.5
21
299
0
LINE
5
417
100
AcDbEntity
8
sideview_d
6
CENTER2
62
256
370
-1
100
AcDbLine
10
3520
20
714
11
3520
21
414
0
LINE
5
418
100
AcDbEntity
8
sideview_d
6
CENTER2
62
256
370
-1
100
AcDbLine
10
2359.5
20
449
11
2359.5
21
299
0
LINE
5
419
100
AcDbEntity
8
sideview_d
6
CENTER2
62
256
370
-1
100
AcDbLine
10
3412.5
20
649
11
3412.5
21
299
0
MTEXT
5
41A
100
AcDbEntity
8
section_4_4_d
6
ByLayer
62
256
370
-1
100
AcDbMText
10
5080
20
780
30
0
40
64
41
508.444444444
71
1
72
1
1
28 Feb 2017
7
standard
210
0
220
0
230
1
50
0
73
2
44
1
0
MTEXT
5
41B
100
AcDbEntity
8
section_1_1_d
6
ByLayer
62
256
370
-1
100
AcDbMText
10
5080
20
780
30
0
40
64
41
508.444444444
71
1
72
1
1
28 Feb 2017
7
standard
210
0
220
0
230
1
50
0
73
2
44
1
0
LINE
5
41C
100
AcDbEntity
8
section_1_1
6
ByLayer
62
256
370
-1
100
AcDbLine
10
2957
20
3429
11
2957
21
1099
0
LINE
5
41D
100
AcDbEntity
8
section_1_1
6
ByLayer
62
256
370
-1
100
AcDbLine
10
2992
20
3429
11
2992
21
1099
0
LINE
5
41E
100
AcDbEntity
8
section_1_1
6
ByLayer
62
256
370
-1
100
AcDbLine
10
2992
20
1814
11
3395
21
1814
0
LINE
5
41F
100
AcDbEntity
8
section_1_1
6
ByLayer
62
256
370
-1
100
AcDbLine
10
2992
20
1779
11
3395
21
1779
0
LINE
5
420
100
AcDbEntity
8
section_1_1
6
ByLayer
62
256
370
-1
100
AcDbLine
10
2992
20
2749
11
3395
21
2749
0
LINE
5
421
100
AcDbEntity
8
section_1_1
6
ByLayer
62
256
370
-1
100
AcDbLine
10
2992
20
2714
11
3395
21
2714
0
LINE
5
422
100
AcDbEntity
8
section_1_1
6
ByLayer
62
256
370
-1
100
AcDbLine
10
2377
20
2749
11
2957
21
2749
0
LINE
5
423
100
AcDbEntity
8
section_1_1
6
ByLayer
62
256
370
-1
100
AcDbLine
10
2377
20
2714
11
2957
21
2714
0
LINE
5
424
100
AcDbEntity
8
section_1_1
6
ByLayer
62
256
370
-1
100
AcDbLine
10
2377
20
1814
11
2957
21
1814
0
LINE
5
425
100
AcDbEntity
8
section_1_1
6
ByLayer
62
256
370
-1
100
AcDbLine
10
2377
20
1779
11
2957
21
1779
0
LINE
5
426
100
AcDbEntity
8
section_1_1
6
ByLayer
62
256
370
-1
100
AcDbLine
10
1727
20
3429
11
1727
21
1099
0
LINE
5
427
100
AcDbEntity
8
section_1_1
6
ByLayer
62
256
370
-1
100
AcDbLine
10
1762
20
3429
11
1762
21
1099
0
LINE
5
428
100
AcDbEntity
8
section_1_1
6
ByLayer
62
256
370
-1
100
AcDbLine
10
1325
20
1814
11
1727
21
1814
0
LINE
5
429
100
AcDbEntity
8
section_1_1
6
ByLayer
62
256
370
-1
100
AcDbLine
10
1325
20
1779
11
1727
21
1779
0
LINE
5
42A
100
AcDbEntity
8
section_1_1
6
ByLayer
62
256
370
-1
100
AcDbLine
10
1325
20
2749
11
1727
21
2749
0
LINE
5
42B
100
AcDbEntity
8
section_1_1
6
ByLayer
62
256
370
-1
100
AcDbLine
10
1325
20
2714
11
1727
21
2714
0
LINE
5
42C
100
AcDbEntity
8
section_1_1
6
ByLayer
62
256
370
-1
100
AcDbLine
10
1762
20
2749
11
2342
21
2749
0
LINE
5
42D
100
AcDbEntity
8
section_1_1
6
ByLayer
62
256
370
-1
100
AcDbLine
10
1762
20
2714
11
2342
21
2714
0
LINE
5
42E
100
AcDbEntity
8
section_1_1
6
ByLayer
62
256
370
-1
100
AcDbLine
10
1762
20
1814
11
2342
21
1814
0
LINE
5
42F
100
AcDbEntity
8
section_1_1
6
ByLayer
62
256
370
-1
100
AcDbLine
10
1762
20
1779
11
2342
21
1779
0
LINE
5
430
100
AcDbEntity
8
section_1_1
6
ByLayer
62
256
370
-1
100
AcDbLine
10
1762
20
3464
11
1727
21
3464
0
LINE
5
431
100
AcDbEntity
8
section_1_1
6
ByLayer
62
256
370
-1
100
AcDbLine
10
1727
20
3464
11
1727
21
3534
0
LINE
5
432
100
AcDbEntity
8
section_1_1
6
ByLayer
62
256
370
-1
100
AcDbLine
10
1727
20
3534
11
1762
21
3534
0
LINE
5
433
100
AcDbEntity
8
section_1_1
6
ByLayer
62
256
370
-1
100
AcDbLine
10
1762
20
3534
11
1762
21
3464
0
LINE
5
434
100
AcDbEntity
8
section_1_1
6
ByLayer
62
256
370
-1
100
AcDbLine
10
1727
20
3534
11
1762
21
3464
0
LINE
5
435
100
AcDbEntity
8
section_1_1
6
ByLayer
62
256
370
-1
100
AcDbLine
10
1762
20
3534
11
1727
21
3464
0
LINE
5
436
100
AcDbEntity
8
section_1_1
6
ByLayer
62
256
370
-1
100
AcDbLine
10
1290
20
3464
11
1290
21
3764
0
LINE
5
437
100
AcDbEntity
8
section_1_1
6
ByLayer
62
256
370
-1
100
AcDbLine
10
943.283396423
20
3880.62897923
11
3718.3213274
21
3507.567215
0
LINE
5
438
100
AcDbEntity
8
section_1_1
6
ByLayer
62
256
370
-1
100
AcDbLine
10
943.207649148
20
3810.62902022
11
3718.24558013
21
3437.56725598
0
LINE
5
439
100
AcDbEntity
8
section_1_1
6
ByLayer
62
256
370
-1
100
AcDbLine
10
3718.3213274
20
3507.567215
11
3718.24558013
21
3437.56725598
0
LINE
5
43A
100
AcDbEntity
8
section_1_1
6
ByLayer
62
256
370
-1
100
AcDbLine
10
943.283396423
20
3880.62897923
11
943.207649148
21
3810.62902022
0
LINE
5
43B
100
AcDbEntity
8
section_1_1
6
ByLayer
62
256
370
-1
100
AcDbLine
10
1290
20
3729
11
1200
21
3729
0
LINE
5
43C
100
AcDbEntity
8
section_1_1
6
ByLayer
62
256
370
-1
100
AcDbLine
10
1290
20
3764
11
1200
21
3764
0
LINE
5
43D
100
AcDbEntity
8
section_1_1
6
ByLayer
62
256
370
-1
100
AcDbLine
10
1200
20
3499
11
1290
21
3499
0
LINE
5
43E
100
AcDbEntity
8
section_1_1
6
ByLayer
62
256
370
-1
100
AcDbLine
10
2992
20
3464
11
2957
21
3464
0
LINE
5
43F
100
AcDbEntity
8
section_1_1
6
ByLayer
62
256
370
-1
100
AcDbLine
10
2957
20
3464
11
2957
21
3534
0
LINE
5
440
100
AcDbEntity
8
section_1_1
6
ByLayer
62
256
370
-1
100
AcDbLine
10
2957
20
3534
11
2992
21
3534
0
LINE
5
441
100
AcDbEntity
8
section_1_1
6
ByLayer
62
256
370
-1
100
AcDbLine
10
2992
20
3534
11
2992
21
3464
0
LINE
5
442
100
AcDbEntity
8
section_1_1
6
ByLayer
62
256
370
-1
100
AcDbLine
10
2957
20
3534
11
2992
21
3464
0
LINE
5
443
100
AcDbEntity
8
section_1_1
6
ByLayer
62
256
370
-1
100
AcDbLine
10
2992
20
3534
11
2957
21
3464
0
DIMENSION
5
444
100
AcDbEntity
8
section_1_1_d
6
ByLayer
62
256
370
-1
100
AcDbDimension
2
*D24
10
1727
20
2500
30
0
11
1526
21
2544
31
0
70
32
71
5
3
Standard
53
0
210
0
220
0
230
1
100
AcDbAlignedDimension
13
1325
23
2557.5972832
33
0
14
1727
24
2557.5972832
34
0
100
AcDbRotatedDimension
0
DIMENSION
5
445
100
AcDbEntity
8
section_1_1_d
6
ByLayer
62
256
370
-1
100
AcDbDimension
2
*D25
10
2342
20
2500
30
0
11
2052
21
2544
31
0
70
32
71
5
3
Standard
53
0
210
0
220
0
230
1
100
AcDbAlignedDimension
13
1762
23
2550.44316493
33
0
14
2342
24
2550.44316493
34
0
100
AcDbRotatedDimension
0
DIMENSION
5
446
100
AcDbEntity
8
section_1_1_d
6
ByLayer
62
256
370
-1
100
AcDbDimension
2
*D26
10
2957
20
2500
30
0
11
2667
21
2544
31
0
70
32
71
5
3
Standard
53
0
210
0
220
0
230
1
100
AcDbAlignedDimension
13
2377
23
2550.44316493
33
0
14
2957
24
2550.44316493
34
0
100
AcDbRotatedDimension
0
DIMENSION
5
447
100
AcDbEntity
8
section_1_1_d
6
ByLayer
62
256
370
-1
100
AcDbDimension
2
*D27
10
3395
20
2500
30
0
11
3193.5
21
2544
31
0
70
32
71
5
3
Standard
53
0
210
0
220
0
230
1
100
AcDbAlignedDimension
13
2992
23
2561.17434234
33
0
14
3395
24
2561.17434234
34
0
100
AcDbRotatedDimension
0
LINE
5
448
100
AcDbEntity
8
section_1_1
6
ByLayer
62
256
370
-1
100
AcDbLine
10
1200
20
3729
11
1290
21
3764
0
LINE
5
449
100
AcDbEntity
8
section_1_1
6
ByLayer
62
256
370
-1
100
AcDbLine
10
1290
20
3729
11
1200
21
3764
0
LINE
5
44A
100
AcDbEntity
8
section_1_1
6
ByLayer
62
256
370
-1
100
AcDbLine
10
1200
20
3499
11
1290
21
3464
0
LINE
5
44B
100
AcDbEntity
8
section_1_1
6
ByLayer
62
256
370
-1
100
AcDbLine
10
1290
20
3499
11
1200
21
3464
0
LINE
5
44C
100
AcDbEntity
8
section_1_1_d
6
CENTER2
62
256
370
-1
100
AcDbLine
10
1744.5
20
949
11
1744.5
21
299
0
CIRCLE
5
44D
100
AcDbEntity
8
section_1_1_d
6
ByLayer
62
256
370
-1
100
AcDbCircle
10
1744.5
20
226.71067915
40
72.2893208499
0
MTEXT
5
44E
100
AcDbEntity
8
section_1_1_d
6
ByLayer
62
256
370
-1
100
AcDbMText
10
1732
20
260
30
0
40
64
41
35.5555555556
71
1
72
1
1
B
7
standard
210
0
220
0
230
1
50
0
73
2
44
1
0
CIRCLE
5
44F
100
AcDbEntity
8
section_1_1_d
6
ByLayer
62
256
370
-1
100
AcDbCircle
10
1744.5
20
4301.28932085
40
72.2893208499
0
MTEXT
5
450
100
AcDbEntity
8
section_1_1_d
6
ByLayer
62
256
370
-1
100
AcDbMText
10
1732
20
4268
30
0
40
64
41
35.5555555556
71
7
72
1
1
B
7
standard
210
0
220
0
230
1
50
0
73
2
44
1
0
LINE
5
451
100
AcDbEntity
8
section_1_1_d
6
CENTER2
62
256
370
-1
100
AcDbLine
10
1744.5
20
3879
11
1744.5
21
4229
0
LINE
5
452
100
AcDbEntity
8
section_1_1_d
6
CENTER2
62
256
370
-1
100
AcDbLine
10
2974.5
20
949
11
2974.5
21
299
0
CIRCLE
5
453
100
AcDbEntity
8
section_1_1_d
6
ByLayer
62
256
370
-1
100
AcDbCircle
10
2974.5
20
226.71067915
40
72.2893208499
0
MTEXT
5
454
100
AcDbEntity
8
section_1_1_d
6
ByLayer
62
256
370
-1
100
AcDbMText
10
2962
20
260
30
0
40
64
41
35.5555555556
71
1
72
1
1
D
7
standard
210
0
220
0
230
1
50
0
73
2
44
1
0
CIRCLE
5
455
100
AcDbEntity
8
section_1_1_d
6
ByLayer
62
256
370
-1
100
AcDbCircle
10
2974.5
20
4301.28932085
40
72.2893208499
0
MTEXT
5
456
100
AcDbEntity
8
section_1_1_d
6
ByLayer
62
256
370
-1
100
AcDbMText
10
2962
20
4268
30
0
40
64
41
35.5555555556
71
7
72
1
1
D
7
standard
210
0
220
0
230
1
50
0
73
2
44
1
0
LINE
5
457
100
AcDbEntity
8
section_1_1_d
6
CENTER2
62
256
370
-1
100
AcDbLine
10
2974.5
20
3879
11
2974.5
21
4229
0
DIMENSION
5
458
100
AcDbEntity
8
section_1_1_d
6
ByLayer
62
256
370
-1
100
AcDbDimension
2
*D28
10
1744.5
20
4000
30
0
11
1526
21
4044
31
0
70
32
71
5
3
Standard
53
0
210
0
220
0
230
1
100
AcDbAlignedDimension
13
1307.5
23
3963.38152418
33
0
14
1744.5
24
3963.38152418
34
0
100
AcDbRotatedDimension
0
DIMENSION
5
459
100
AcDbEntity
8
section_1_1_d
6
ByLayer
62
256
370
-1
100
AcDbDimension
2
*D29
10
2359.5
20
4000
30
0
11
2052
21
4044
31
0
70
32
71
5
3
Standard
53
0
210
0
220
0
230
1
100
AcDbAlignedDimension
13
1744.5
23
3963.38152418
33
0
14
2359.5
24
3963.38152418
34
0
100
AcDbRotatedDimension
0
DIMENSION
5
45A
100
AcDbEntity
8
section_1_1_d
6
ByLayer
62
256
370
-1
100
AcDbDimension
2
*D30
10
2974.5
20
4000
30
0
11
2667
21
4044
31
0
70
32
71
5
3
Standard
53
0
210
0
220
0
230
1
100
AcDbAlignedDimension
13
2359.5
23
3959.80446504
33
0
14
2974.5
24
3959.80446504
34
0
100
AcDbRotatedDimension
0
DIMENSION
5
45B
100
AcDbEntity
8
section_1_1_d
6
ByLayer
62
256
370
-1
100
AcDbDimension
2
*D31
10
3412.5
20
4000
30
0
11
3193.5
21
4044
31
0
70
32
71
5
3
Standard
53
0
210
0
220
0
230
1
100
AcDbAlignedDimension
13
2974.5
23
3963.38152418
33
0
14
3412.5
24
3963.38152418
34
0
100
AcDbRotatedDimension
0
MTEXT
5
45C
100
AcDbEntity
8
section_1_1_d
6
ByLayer
62
256
370
-1
100
AcDbMText
10
5470
20
2050
30
0
40
48
41
96
71
1
72
1
1
580
7
standard
210
0
220
0
230
1
50
0
73
2
44
1
0
MTEXT
5
45D
100
AcDbEntity
8
section_1_1_d
6
ByLayer
62
256
370
-1
100
AcDbMText
10
5470
20
1930
30
0
40
48
41
101.333333333
71
1
72
1
1
403
7
standard
210
0
220
0
230
1
50
0
73
2
44
1
0
MTEXT
5
45E
100
AcDbEntity
8
section_1_1_d
6
ByLayer
62
256
370
-1
100
AcDbMText
10
5450
20
1800
30
0
40
48
41
142.4
71
1
72
1
1
569*
7
standard
210
0
220
0
230
1
50
0
73
2
44
1
0
DIMENSION
5
45F
100
AcDbEntity
8
section_1_1_d
6
ByLayer
62
256
370
-1
100
AcDbDimension
2
*D32
10
1744.5
20
700
30
0
11
1526
21
744
31
0
70
32
71
5
3
Standard
53
0
210
0
220
0
230
1
100
AcDbAlignedDimension
13
1307.5
23
736.874182294
33
0
14
1744.5
24
736.874182294
34
0
100
AcDbRotatedDimension
0
DIMENSION
5
460
100
AcDbEntity
8
section_1_1_d
6
ByLayer
62
256
370
-1
100
AcDbDimension
2
*D33
10
2359.5
20
700
30
0
11
2052
21
744
31
0
70
32
71
5
3
Standard
53
0
210
0
220
0
230
1
100
AcDbAlignedDimension
13
1744.5
23
744.028300568
33
0
14
2359.5
24
744.028300568
34
0
100
AcDbRotatedDimension
0
DIMENSION
5
461
100
AcDbEntity
8
section_1_1_d
6
ByLayer
62
256
370
-1
100
AcDbDimension
2
*D34
10
2974.5
20
700
30
0
11
2667
21
744
31
0
70
32
71
5
3
Standard
53
0
210
0
220
0
230
1
100
AcDbAlignedDimension
13
2359.5
23
740.451241431
33
0
14
2974.5
24
740.451241431
34
0
100
AcDbRotatedDimension
0
DIMENSION
5
462
100
AcDbEntity
8
section_1_1_d
6
ByLayer
62
256
370
-1
100
AcDbDimension
2
*D35
10
3412.5
20
700
30
0
11
3193.5
21
744
31
0
70
32
71
5
3
Standard
53
0
210
0
220
0
230
1
100
AcDbAlignedDimension
13
2974.5
23
744.028300568
33
0
14
3412.5
24
744.028300568
34
0
100
AcDbRotatedDimension
0
LINE
5
463
100
AcDbEntity
8
section_4_4
6
ByLayer
62
256
370
-1
100
AcDbLine
10
1200
20
3764
11
1200
21
3464
0
LINE
5
464
100
AcDbEntity
8
section_4_4
6
ByLayer
62
256
370
-1
100
AcDbLine
10
1762
20
3464
11
1727
21
3464
0
LINE
5
465
100
AcDbEntity
8
section_4_4
6
ByLayer
62
256
370
-1
100
AcDbLine
10
1727
20
3464
11
1727
21
3534
0
LINE
5
466
100
AcDbEntity
8
section_4_4
6
ByLayer
62
256
370
-1
100
AcDbLine
10
1727
20
3534
11
1762
21
3534
0
LINE
5
467
100
AcDbEntity
8
section_4_4
6
ByLayer
62
256
370
-1
100
AcDbLine
10
1762
20
3534
11
1762
21
3464
0
LINE
5
468
100
AcDbEntity
8
section_4_4
6
ByLayer
62
256
370
-1
100
AcDbLine
10
1727
20
3534
11
1762
21
3464
0
LINE
5
469
100
AcDbEntity
8
section_4_4
6
ByLayer
62
256
370
-1
100
AcDbLine
10
1762
20
3534
11
1727
21
3464
0
LINE
5
46A
100
AcDbEntity
8
section_4_4
6
ByLayer
62
256
370
-1
100
AcDbLine
10
1290
20
3464
11
1290
21
3764
0
LINE
5
46B
100
AcDbEntity
8
section_4_4
6
ByLayer
62
256
370
-1
100
AcDbLine
10
943.283396423
20
3880.62897923
11
3718.3213274
21
3507.567215
0
LINE
5
46C
100
AcDbEntity
8
section_4_4
6
ByLayer
62
256
370
-1
100
AcDbLine
10
943.207649148
20
3810.62902022
11
3718.24558013
21
3437.56725598
0
LINE
5
46D
100
AcDbEntity
8
section_4_4
6
ByLayer
62
256
370
-1
100
AcDbLine
10
3718.3213274
20
3507.567215
11
3718.24558013
21
3437.56725598
0
LINE
5
46E
100
AcDbEntity
8
section_4_4
6
ByLayer
62
256
370
-1
100
AcDbLine
10
943.283396423
20
3880.62897923
11
943.207649148
21
3810.62902022
0
LINE
5
46F
100
AcDbEntity
8
section_4_4
6
ByLayer
62
256
370
-1
100
AcDbLine
10
1290
20
3729
11
1200
21
3729
0
LINE
5
470
100
AcDbEntity
8
section_4_4
6
ByLayer
62
256
370
-1
100
AcDbLine
10
1290
20
3764
11
1200
21
3764
0
LINE
5
471
100
AcDbEntity
8
section_4_4
6
ByLayer
62
256
370
-1
100
AcDbLine
10
1200
20
3499
11
1290
21
3499
0
LINE
5
472
100
AcDbEntity
8
section_4_4
6
ByLayer
62
256
370
-1
100
AcDbLine
10
2957
20
3464
11
2957
21
3534
0
LINE
5
473
100
AcDbEntity
8
section_4_4
6
ByLayer
62
256
370
-1
100
AcDbLine
10
2957
20
3534
11
2992
21
3534
0
LINE
5
474
100
AcDbEntity
8
section_4_4
6
ByLayer
62
256
370
-1
100
AcDbLine
10
2992
20
3534
11
2992
21
3464
0
LINE
5
475
100
AcDbEntity
8
section_4_4
6
ByLayer
62
256
370
-1
100
AcDbLine
10
2957
20
3534
11
2992
21
3464
0
LINE
5
476
100
AcDbEntity
8
section_4_4
6
ByLayer
62
256
370
-1
100
AcDbLine
10
2992
20
3534
11
2957
21
3464
0
LINE
5
477
100
AcDbEntity
8
section_4_4
6
ByLayer
62
256
370
-1
100
AcDbLine
10
1200
20
3729
11
1290
21
3764
0
LINE
5
478
100
AcDbEntity
8
section_4_4
6
ByLayer
62
256
370
-1
100
AcDbLine
10
1290
20
3729
11
1200
21
3764
0
LINE
5
479
100
AcDbEntity
8
section_4_4
6
ByLayer
62
256
370
-1
100
AcDbLine
10
1200
20
3499
11
1290
21
3464
0
LINE
5
47A
100
AcDbEntity
8
section_4_4
6
ByLayer
62
256
370
-1
100
AcDbLine
10
1290
20
3499
11
1200
21
3464
0
LINE
5
47B
100
AcDbEntity
8
section_4_4_d
6
CENTER2
62
256
370
-1
100
AcDbLine
10
1744.5
20
949
11
1744.5
21
299
0
CIRCLE
5
47C
100
AcDbEntity
8
section_4_4_d
6
ByLayer
62
256
370
-1
100
AcDbCircle
10
1744.5
20
226.71067915
40
72.2893208499
0
MTEXT
5
47D
100
AcDbEntity
8
section_4_4_d
6
ByLayer
62
256
370
-1
100
AcDbMText
10
1732
20
260
30
0
40
64
41
35.5555555556
71
1
72
1
1
B
7
standard
210
0
220
0
230
1
50
0
73
2
44
1
0
CIRCLE
5
47E
100
AcDbEntity
8
section_4_4_d
6
ByLayer
62
256
370
-1
100
AcDbCircle
10
1744.5
20
4301.28932085
40
72.2893208499
0
MTEXT
5
47F
100
AcDbEntity
8
section_4_4_d
6
ByLayer
62
256
370
-1
100
AcDbMText
10
1732
20
4268
30
0
40
64
41
35.5555555556
71
7
72
1
1
B
7
standard
210
0
220
0
230
1
50
0
73
2
44
1
0
LINE
5
480
100
AcDbEntity
8
section_4_4_d
6
CENTER2
62
256
370
-1
100
AcDbLine
10
1744.5
20
3879
11
1744.5
21
4229
0
LINE
5
481
100
AcDbEntity
8
section_4_4_d
6
CENTER2
62
256
370
-1
100
AcDbLine
10
2974.5
20
949
11
2974.5
21
299
0
CIRCLE
5
482
100
AcDbEntity
8
section_4_4_d
6
ByLayer
62
256
370
-1
100
AcDbCircle
10
2974.5
20
226.71067915
40
72.2893208499
0
MTEXT
5
483
100
AcDbEntity
8
section_4_4_d
6
ByLayer
62
256
370
-1
100
AcDbMText
10
2962
20
260
30
0
40
64
41
35.5555555556
71
1
72
1
1
D
7
standard
210
0
220
0
230
1
50
0
73
2
44
1
0
CIRCLE
5
484
100
AcDbEntity
8
section_4_4_d
6
ByLayer
62
256
370
-1
100
AcDbCircle
10
2974.5
20
4301.28932085
40
72.2893208499
0
MTEXT
5
485
100
AcDbEntity
8
section_4_4_d
6
ByLayer
62
256
370
-1
100
AcDbMText
10
2962
20
4268
30
0
40
64
41
35.5555555556
71
7
72
1
1
D
7
standard
210
0
220
0
230
1
50
0
73
2
44
1
0
LINE
5
486
100
AcDbEntity
8
section_4_4_d
6
CENTER2
62
256
370
-1
100
AcDbLine
10
2974.5
20
3879
11
2974.5
21
4229
0
DIMENSION
5
487
100
AcDbEntity
8
section_4_4_d
6
ByLayer
62
256
370
-1
100
AcDbDimension
2
*D36
10
1744.5
20
4000
30
0
11
1526
21
4044
31
0
70
32
71
5
3
Standard
53
0
210
0
220
0
230
1
100
AcDbAlignedDimension
13
1307.5
23
3966.06431853
33
0
14
1744.5
24
3966.06431853
34
0
100
AcDbRotatedDimension
0
DIMENSION
5
488
100
AcDbEntity
8
section_4_4_d
6
ByLayer
62
256
370
-1
100
AcDbDimension
2
*D37
10
2359.5
20
4000
30
0
11
2052
21
4044
31
0
70
32
71
5
3
Standard
53
0
210
0
220
0
230
1
100
AcDbAlignedDimension
13
1744.5
23
3961.59299461
33
0
14
2359.5
24
3961.59299461
34
0
100
AcDbRotatedDimension
0
DIMENSION
5
489
100
AcDbEntity
8
section_4_4_d
6
ByLayer
62
256
370
-1
100
AcDbDimension
2
*D38
10
2974.5
20
4000
30
0
11
2667
21
4044
31
0
70
32
71
5
3
Standard
53
0
210
0
220
0
230
1
100
AcDbAlignedDimension
13
2359.5
23
3952.65034677
33
0
14
2974.5
24
3957.12167069
34
0
100
AcDbRotatedDimension
0
DIMENSION
5
48A
100
AcDbEntity
8
section_4_4_d
6
ByLayer
62
256
370
-1
100
AcDbDimension
2
*D39
10
3412.5
20
4000
30
0
11
3193.5
21
4044
31
0
70
32
71
5
3
Standard
53
0
210
0
220
0
230
1
100
AcDbAlignedDimension
13
2974.5
23
3952.65034677
33
0
14
3412.5
24
3943.70769893
34
0
100
AcDbRotatedDimension
0
DIMENSION
5
48B
100
AcDbEntity
8
section_4_4_d
6
ByLayer
62
256
370
-1
100
AcDbDimension
2
*D40
10
1744.5
20
700
30
0
11
1526
21
744
31
0
70
32
71
5
3
Standard
53
0
210
0
220
0
230
1
100
AcDbAlignedDimension
13
1307.5
23
733.297123156
33
0
14
1744.5
24
733.297123156
34
0
100
AcDbRotatedDimension
0
DIMENSION
5
48C
100
AcDbEntity
8
section_4_4_d
6
ByLayer
62
256
370
-1
100
AcDbDimension
2
*D41
10
2359.5
20
700
30
0
11
2052
21
744
31
0
70
32
71
5
3
Standard
53
0
210
0
220
0
230
1
100
AcDbAlignedDimension
13
1744.5
23
733.297123156
33
0
14
2359.5
24
724.354475313
34
0
100
AcDbRotatedDimension
0
DIMENSION
5
48D
100
AcDbEntity
8
section_4_4_d
6
ByLayer
62
256
370
-1
100
AcDbDimension
2
*D42
10
2974.5
20
700
30
0
11
2667
21
744
31
0
70
32
71
5
3
Standard
53
0
210
0
220
0
230
1
100
AcDbAlignedDimension
13
2359.5
23
742.239771
33
0
14
2974.5
24
733.297123156
34
0
100
AcDbRotatedDimension
0
DIMENSION
5
48E
100
AcDbEntity
8
section_4_4_d
6
ByLayer
62
256
370
-1
100
AcDbDimension
2
*D43
10
3412.5
20
700
30
0
11
3193.5
21
744
31
0
70
32
71
5
3
Standard
53
0
210
0
220
0
230
1
100
AcDbAlignedDimension
13
2974.5
23
728.825799235
33
0
14
3412.5
24
724.354475313
34
0
100
AcDbRotatedDimension
0
LINE
5
48F
100
AcDbEntity
8
sideview
6
ByLayer
62
256
370
-1
100
AcDbLine
10
943.283396423
20
3880.62897923
11
3718.3213274
21
3507.567215
0
LINE
5
490
100
AcDbEntity
8
sideview
6
ByLayer
62
256
370
-1
100
AcDbLine
10
943.207649148
20
3810.62902022
11
3718.24558013
21
3437.56725598
0
LINE
5
491
100
AcDbEntity
8
sideview
6
ByLayer
62
256
370
-1
100
AcDbLine
10
3718.3213274
20
3507.567215
11
3718.24558013
21
3437.56725598
0
LINE
5
492
100
AcDbEntity
8
sideview
6
ByLayer
62
256
370
-1
100
AcDbLine
10
943.283396423
20
3880.62897923
11
943.207649148
21
3810.62902022
0
LINE
5
493
100
AcDbEntity
8
sideview
6
ByLayer
62
256
370
-1
100
AcDbLine
10
943.283396423
20
3890.62897923
11
3718.3213274
21
3517.567215
0
CIRCLE
5
494
100
AcDbEntity
8
sideview_d
6
ByLayer
62
256
370
-1
100
AcDbCircle
10
1744.5
20
226.71067915
40
72.2893208499
0
MTEXT
5
495
100
AcDbEntity
8
sideview_d
6
ByLayer
62
256
370
-1
100
AcDbMText
10
1732
20
260
30
0
40
64
41
35.5555555556
71
1
72
1
1
B
7
standard
210
0
220
0
230
1
50
0
73
2
44
1
0
CIRCLE
5
496
100
AcDbEntity
8
sideview_d
6
ByLayer
62
256
370
-1
100
AcDbCircle
10
1744.5
20
4301.28932085
40
72.2893208499
0
MTEXT
5
497
100
AcDbEntity
8
sideview_d
6
ByLayer
62
256
370
-1
100
AcDbMText
10
1732
20
4268
30
0
40
64
41
35.5555555556
71
7
72
1
1
B
7
standard
210
0
220
0
230
1
50
0
73
2
44
1
0
LINE
5
498
100
AcDbEntity
8
sideview_d
6
CENTER2
62
256
370
-1
100
AcDbLine
10
1744.5
20
3879
11
1744.5
21
4229
0
LINE
5
499
100
AcDbEntity
8
sideview_d
6
CENTER2
62
256
370
-1
100
AcDbLine
10
1744.5
20
649
11
1744.5
21
299
0
CIRCLE
5
49A
100
AcDbEntity
8
sideview_d
6
ByLayer
62
256
370
-1
100
AcDbCircle
10
2974.5
20
226.71067915
40
72.2893208499
0
MTEXT
5
49B
100
AcDbEntity
8
sideview_d
6
ByLayer
62
256
370
-1
100
AcDbMText
10
2962
20
260
30
0
40
64
41
35.5555555556
71
1
72
1
1
D
7
standard
210
0
220
0
230
1
50
0
73
2
44
1
0
CIRCLE
5
49C
100
AcDbEntity
8
sideview_d
6
ByLayer
62
256
370
-1
100
AcDbCircle
10
2974.5
20
4301.28932085
40
72.2893208499
0
MTEXT
5
49D
100
AcDbEntity
8
sideview_d
6
ByLayer
62
256
370
-1
100
AcDbMText
10
2962
20
4268
30
0
40
64
41
35.5555555556
71
7
72
1
1
D
7
standard
210
0
220
0
230
1
50
0
73
2
44
1
0
LINE
5
49E
100
AcDbEntity
8
sideview_d
6
CENTER2
62
256
370
-1
100
AcDbLine
10
2974.5
20
3879
11
2974.5
21
4229
0
LINE
5
49F
100
AcDbEntity
8
sideview_d
6
CENTER2
62
256
370
-1
100
AcDbLine
10
2974.5
20
649
11
2974.5
21
299
0
MTEXT
5
4A0
100
AcDbEntity
8
section_1_1_d
6
ByLayer
62
256
370
-1
100
AcDbMText
10
5080
20
660
30
0
40
64
41
522.666666667
71
1
72
1
1
17 AUG 2017
7
standard
210
0
220
0
230
1
50
0
73
2
44
1
0
LINE
5
4A1
100
AcDbEntity
8
section_1_1
6
ByLayer
62
256
370
-1
100
AcDbLine
10
3091.49747468
20
3429
11
3395
21
3125.49747468
0
LINE
5
4A2
100
AcDbEntity
8
section_1_1
6
ByLayer
62
256
370
-1
100
AcDbLine
10
3042
20
3429
11
3395
21
3076
0
LINE
5
4A3
100
AcDbEntity
8
section_1_1
6
ByLayer
62
256
370
-1
100
AcDbLine
10
3042
20
1099
11
3395
21
1452
0
LINE
5
4A4
100
AcDbEntity
8
section_1_1
6
ByLayer
62
256
370
-1
100
AcDbLine
10
3091.49747468
20
1099
11
3395
21
1402.50252532
0
LINE
5
4A5
100
AcDbEntity
8
section_1_1
6
ByLayer
62
256
370
-1
100
AcDbLine
10
1627.50252532
20
3429
11
1325
21
3126.49747468
0
LINE
5
4A6
100
AcDbEntity
8
section_1_1
6
ByLayer
62
256
370
-1
100
AcDbLine
10
1677
20
3429
11
1325
21
3077
0
LINE
5
4A7
100
AcDbEntity
8
section_1_1
6
ByLayer
62
256
370
-1
100
AcDbLine
10
1677
20
1099
11
1325
21
1451
0
LINE
5
4A8
100
AcDbEntity
8
section_1_1
6
ByLayer
62
256
370
-1
100
AcDbLine
10
1627.50252532
20
1099
11
1325
21
1401.50252532
0
LINE
5
4A9
100
AcDbEntity
8
section_1_12
6
ByLayer
62
256
370
-1
100
AcDbLine
10
1200
20
3429
11
2040
21
3429
0
LINE
5
4AA
100
AcDbEntity
8
section_1_12
6
ByLayer
62
256
370
-1
100
AcDbLine
10
1200
20
3429
11
1200
21
3846.11732518
0
LINE
5
4AB
100
AcDbEntity
8
section_1_12
6
ByLayer
62
256
370
-1
100
AcDbLine
10
2040
20
3429
11
2040
21
3733.19206443
0
LINE
5
4AC
100
AcDbEntity
8
section_1_12
6
ByLayer
62
256
370
-1
100
AcDbLine
10
2040
20
3429
11
2880
21
3429
0
LINE
5
4AD
100
AcDbEntity
8
section_1_12
6
ByLayer
62
256
370
-1
100
AcDbLine
10
2880
20
3429
11
2880
21
3620.26680368
0
LINE
5
4AE
100
AcDbEntity
8
section_1_12
6
ByLayer
62
256
370
-1
100
AcDbLine
10
3520
20
3429
11
3520
21
3534.22850977
0
LINE
5
4AF
100
AcDbEntity
8
section_1_12
6
ByLayer
62
256
370
-1
100
AcDbLine
10
2880
20
3429
11
3520
21
3429
0
LINE
5
4B0
100
AcDbEntity
8
section_4_4
6
ByLayer
62
256
370
-1
100
AcDbLine
10
2992
20
3524
11
2992
21
1064
0
LINE
5
4B1
100
AcDbEntity
8
section_4_4
6
ByLayer
62
256
370
-1
100
AcDbLine
10
3027
20
3524
11
3027
21
1064
0
LINE
5
4B2
100
AcDbEntity
8
section_4_4
6
ByLayer
62
256
370
-1
100
AcDbLine
10
2992
20
3524
11
3027
21
3524
0
LINE
5
4B3
100
AcDbEntity
8
section_4_4
6
ByLayer
62
256
370
-1
100
AcDbLine
10
2992
20
1064
11
3027
21
1064
0
LINE
5
4B4
100
AcDbEntity
8
section_4_4
6
ByLayer
62
256
370
-1
100
AcDbLine
10
3027
20
1514
11
3062
21
1514
0
LINE
5
4B5
100
AcDbEntity
8
section_4_4
6
ByLayer
62
256
370
-1
100
AcDbLine
10
3062
20
1514
11
3062
21
1479
0
LINE
5
4B6
100
AcDbEntity
8
section_4_4
6
ByLayer
62
256
370
-1
100
AcDbLine
10
3062
20
1479
11
3027
21
1479
0
LINE
5
4B7
100
AcDbEntity
8
section_4_4
6
ByLayer
62
256
370
-1
100
AcDbLine
10
3027
20
1479
11
3027
21
1514
0
LINE
5
4B8
100
AcDbEntity
8
section_4_4
6
ByLayer
62
256
370
-1
100
AcDbLine
10
3027
20
1479
11
3062
21
1514
0
LINE
5
4B9
100
AcDbEntity
8
section_4_4
6
ByLayer
62
256
370
-1
100
AcDbLine
10
3027
20
1514
11
3062
21
1479
0
LINE
5
4BA
100
AcDbEntity
8
section_4_4
6
ByLayer
62
256
370
-1
100
AcDbLine
10
3027
20
1914
11
3062
21
1914
0
LINE
5
4BB
100
AcDbEntity
8
section_4_4
6
ByLayer
62
256
370
-1
100
AcDbLine
10
3062
20
1914
11
3062
21
1879
0
LINE
5
4BC
100
AcDbEntity
8
section_4_4
6
ByLayer
62
256
370
-1
100
AcDbLine
10
3062
20
1879
11
3027
21
1879
0
LINE
5
4BD
100
AcDbEntity
8
section_4_4
6
ByLayer
62
256
370
-1
100
AcDbLine
10
3027
20
1879
11
3027
21
1914
0
LINE
5
4BE
100
AcDbEntity
8
section_4_4
6
ByLayer
62
256
370
-1
100
AcDbLine
10
3027
20
1879
11
3062
21
1914
0
LINE
5
4BF
100
AcDbEntity
8
section_4_4
6
ByLayer
62
256
370
-1
100
AcDbLine
10
3027
20
1914
11
3062
21
1879
0
LINE
5
4C0
100
AcDbEntity
8
section_4_4
6
ByLayer
62
256
370
-1
100
AcDbLine
10
3027
20
2314
11
3062
21
2314
0
LINE
5
4C1
100
AcDbEntity
8
section_4_4
6
ByLayer
62
256
370
-1
100
AcDbLine
10
3062
20
2314
11
3062
21
2279
0
LINE
5
4C2
100
AcDbEntity
8
section_4_4
6
ByLayer
62
256
370
-1
100
AcDbLine
10
3062
20
2279
11
3027
21
2279
0
LINE
5
4C3
100
AcDbEntity
8
section_4_4
6
ByLayer
62
256
370
-1
100
AcDbLine
10
3027
20
2279
11
3027
21
2314
0
LINE
5
4C4
100
AcDbEntity
8
section_4_4
6
ByLayer
62
256
370
-1
100
AcDbLine
10
3027
20
2279
11
3062
21
2314
0
LINE
5
4C5
100
AcDbEntity
8
section_4_4
6
ByLayer
62
256
370
-1
100
AcDbLine
10
3027
20
2314
11
3062
21
2279
0
LINE
5
4C6
100
AcDbEntity
8
section_4_4
6
ByLayer
62
256
370
-1
100
AcDbLine
10
3027
20
2714
11
3062
21
2714
0
LINE
5
4C7
100
AcDbEntity
8
section_4_4
6
ByLayer
62
256
370
-1
100
AcDbLine
10
3062
20
2714
11
3062
21
2679
0
LINE
5
4C8
100
AcDbEntity
8
section_4_4
6
ByLayer
62
256
370
-1
100
AcDbLine
10
3062
20
2679
11
3027
21
2679
0
LINE
5
4C9
100
AcDbEntity
8
section_4_4
6
ByLayer
62
256
370
-1
100
AcDbLine
10
3027
20
2679
11
3027
21
2714
0
LINE
5
4CA
100
AcDbEntity
8
section_4_4
6
ByLayer
62
256
370
-1
100
AcDbLine
10
3027
20
2679
11
3062
21
2714
0
LINE
5
4CB
100
AcDbEntity
8
section_4_4
6
ByLayer
62
256
370
-1
100
AcDbLine
10
3027
20
2714
11
3062
21
2679
0
LINE
5
4CC
100
AcDbEntity
8
section_4_4
6
ByLayer
62
256
370
-1
100
AcDbLine
10
3027
20
3114
11
3062
21
3114
0
LINE
5
4CD
100
AcDbEntity
8
section_4_4
6
ByLayer
62
256
370
-1
100
AcDbLine
10
3062
20
3114
11
3062
21
3079
0
LINE
5
4CE
100
AcDbEntity
8
section_4_4
6
ByLayer
62
256
370
-1
100
AcDbLine
10
3062
20
3079
11
3027
21
3079
0
LINE
5
4CF
100
AcDbEntity
8
section_4_4
6
ByLayer
62
256
370
-1
100
AcDbLine
10
3027
20
3079
11
3027
21
3114
0
LINE
5
4D0
100
AcDbEntity
8
section_4_4
6
ByLayer
62
256
370
-1
100
AcDbLine
10
3027
20
3079
11
3062
21
3114
0
LINE
5
4D1
100
AcDbEntity
8
section_4_4
6
ByLayer
62
256
370
-1
100
AcDbLine
10
3027
20
3114
11
3062
21
3079
0
LINE
5
4D2
100
AcDbEntity
8
section_4_4
6
ByLayer
62
256
370
-1
100
AcDbLine
10
3385
20
1514
11
3420
21
1514
0
LINE
5
4D3
100
AcDbEntity
8
section_4_4
6
ByLayer
62
256
370
-1
100
AcDbLine
10
3420
20
1514
11
3420
21
1479
0
LINE
5
4D4
100
AcDbEntity
8
section_4_4
6
ByLayer
62
256
370
-1
100
AcDbLine
10
3420
20
1479
11
3385
21
1479
0
LINE
5
4D5
100
AcDbEntity
8
section_4_4
6
ByLayer
62
256
370
-1
100
AcDbLine
10
3385
20
1479
11
3385
21
1514
0
LINE
5
4D6
100
AcDbEntity
8
section_4_4
6
ByLayer
62
256
370
-1
100
AcDbLine
10
3385
20
1479
11
3420
21
1514
0
LINE
5
4D7
100
AcDbEntity
8
section_4_4
6
ByLayer
62
256
370
-1
100
AcDbLine
10
3385
20
1514
11
3420
21
1479
0
LINE
5
4D8
100
AcDbEntity
8
section_4_4
6
ByLayer
62
256
370
-1
100
AcDbLine
10
3385
20
1914
11
3420
21
1914
0
LINE
5
4D9
100
AcDbEntity
8
section_4_4
6
ByLayer
62
256
370
-1
100
AcDbLine
10
3420
20
1914
11
3420
21
1879
0
LINE
5
4DA
100
AcDbEntity
8
section_4_4
6
ByLayer
62
256
370
-1
100
AcDbLine
10
3420
20
1879
11
3385
21
1879
0
LINE
5
4DB
100
AcDbEntity
8
section_4_4
6
ByLayer
62
256
370
-1
100
AcDbLine
10
3385
20
1879
11
3385
21
1914
0
LINE
5
4DC
100
AcDbEntity
8
section_4_4
6
ByLayer
62
256
370
-1
100
AcDbLine
10
3385
20
1879
11
3420
21
1914
0
LINE
5
4DD
100
AcDbEntity
8
section_4_4
6
ByLayer
62
256
370
-1
100
AcDbLine
10
3385
20
1914
11
3420
21
1879
0
LINE
5
4DE
100
AcDbEntity
8
section_4_4
6
ByLayer
62
256
370
-1
100
AcDbLine
10
3385
20
2314
11
3420
21
2314
0
LINE
5
4DF
100
AcDbEntity
8
section_4_4
6
ByLayer
62
256
370
-1
100
AcDbLine
10
3420
20
2314
11
3420
21
2279
0
LINE
5
4E0
100
AcDbEntity
8
section_4_4
6
ByLayer
62
256
370
-1
100
AcDbLine
10
3420
20
2279
11
3385
21
2279
0
LINE
5
4E1
100
AcDbEntity
8
section_4_4
6
ByLayer
62
256
370
-1
100
AcDbLine
10
3385
20
2279
11
3385
21
2314
0
LINE
5
4E2
100
AcDbEntity
8
section_4_4
6
ByLayer
62
256
370
-1
100
AcDbLine
10
3385
20
2279
11
3420
21
2314
0
LINE
5
4E3
100
AcDbEntity
8
section_4_4
6
ByLayer
62
256
370
-1
100
AcDbLine
10
3385
20
2314
11
3420
21
2279
0
LINE
5
4E4
100
AcDbEntity
8
section_4_4
6
ByLayer
62
256
370
-1
100
AcDbLine
10
3385
20
2714
11
3420
21
2714
0
LINE
5
4E5
100
AcDbEntity
8
section_4_4
6
ByLayer
62
256
370
-1
100
AcDbLine
10
3420
20
2714
11
3420
21
2679
0
LINE
5
4E6
100
AcDbEntity
8
section_4_4
6
ByLayer
62
256
370
-1
100
AcDbLine
10
3420
20
2679
11
3385
21
2679
0
LINE
5
4E7
100
AcDbEntity
8
section_4_4
6
ByLayer
62
256
370
-1
100
AcDbLine
10
3385
20
2679
11
3385
21
2714
0
LINE
5
4E8
100
AcDbEntity
8
section_4_4
6
ByLayer
62
256
370
-1
100
AcDbLine
10
3385
20
2679
11
3420
21
2714
0
LINE
5
4E9
100
AcDbEntity
8
section_4_4
6
ByLayer
62
256
370
-1
100
AcDbLine
10
3385
20
2714
11
3420
21
2679
0
LINE
5
4EA
100
AcDbEntity
8
section_4_4
6
ByLayer
62
256
370
-1
100
AcDbLine
10
3385
20
3114
11
3420
21
3114
0
LINE
5
4EB
100
AcDbEntity
8
section_4_4
6
ByLayer
62
256
370
-1
100
AcDbLine
10
3420
20
3114
11
3420
21
3079
0
LINE
5
4EC
100
AcDbEntity
8
section_4_4
6
ByLayer
62
256
370
-1
100
AcDbLine
10
3420
20
3079
11
3385
21
3079
0
LINE
5
4ED
100
AcDbEntity
8
section_4_4
6
ByLayer
62
256
370
-1
100
AcDbLine
10
3385
20
3079
11
3385
21
3114
0
LINE
5
4EE
100
AcDbEntity
8
section_4_4
6
ByLayer
62
256
370
-1
100
AcDbLine
10
3385
20
3079
11
3420
21
3114
0
LINE
5
4EF
100
AcDbEntity
8
section_4_4
6
ByLayer
62
256
370
-1
100
AcDbLine
10
3385
20
3114
11
3420
21
3079
0
LINE
5
4F0
100
AcDbEntity
8
section_4_4
6
ByLayer
62
256
370
-1
100
AcDbLine
10
3420
20
1444
11
3385
21
1444
0
LINE
5
4F1
100
AcDbEntity
8
section_4_4
6
ByLayer
62
256
370
-1
100
AcDbLine
10
3385
20
1444
11
3385
21
1244
0
LINE
5
4F2
100
AcDbEntity
8
section_4_4
6
ByLayer
62
256
370
-1
100
AcDbLine
10
3385
20
1244
11
3420
21
1244
0
LINE
5
4F3
100
AcDbEntity
8
section_4_4
6
ByLayer
62
256
370
-1
100
AcDbLine
10
3420
20
1244
11
3420
21
1444
0
LINE
5
4F4
100
AcDbEntity
8
section_4_4
6
ByLayer
62
256
370
-1
100
AcDbLine
10
3420
20
3044
11
3385
21
3044
0
LINE
5
4F5
100
AcDbEntity
8
section_4_4
6
ByLayer
62
256
370
-1
100
AcDbLine
10
3385
20
3044
11
3385
21
2844
0
LINE
5
4F6
100
AcDbEntity
8
section_4_4
6
ByLayer
62
256
370
-1
100
AcDbLine
10
3385
20
2844
11
3420
21
2844
0
LINE
5
4F7
100
AcDbEntity
8
section_4_4
6
ByLayer
62
256
370
-1
100
AcDbLine
10
3420
20
2844
11
3420
21
3044
0
LINE
5
4F8
100
AcDbEntity
8
section_4_4
6
ByLayer
62
256
370
-1
100
AcDbLine
10
3027
20
3079
11
3420
21
3079
0
LINE
5
4F9
100
AcDbEntity
8
section_4_4
6
ByLayer
62
256
370
-1
100
AcDbLine
10
3027
20
3044
11
3420
21
3044
0
LINE
5
4FA
100
AcDbEntity
8
section_4_4
6
ByLayer
62
256
370
-1
100
AcDbLine
10
3027
20
1479
11
3420
21
1479
0
LINE
5
4FB
100
AcDbEntity
8
section_4_4
6
ByLayer
62
256
370
-1
100
AcDbLine
10
3027
20
1444
11
3420
21
1444
0
LINE
5
4FC
100
AcDbEntity
8
section_4_4_d
6
CENTER2
62
256
370
-1
100
AcDbLine
10
3670
20
1064
11
3970
21
1064
0
LINE
5
4FD
100
AcDbEntity
8
section_4_4_d
6
CENTER2
62
256
370
-1
100
AcDbLine
10
3670
20
1514
11
3970
21
1514
0
LINE
5
4FE
100
AcDbEntity
8
section_4_4_d
6
CENTER2
62
256
370
-1
100
AcDbLine
10
3670
20
1914
11
3970
21
1914
0
LINE
5
4FF
100
AcDbEntity
8
section_4_4_d
6
CENTER2
62
256
370
-1
100
AcDbLine
10
3670
20
2314
11
3970
21
2314
0
LINE
5
500
100
AcDbEntity
8
section_4_4_d
6
CENTER2
62
256
370
-1
100
AcDbLine
10
3670
20
2714
11
3970
21
2714
0
LINE
5
501
100
AcDbEntity
8
section_4_4_d
6
CENTER2
62
256
370
-1
100
AcDbLine
10
3670
20
3114
11
3970
21
3114
0
DIMENSION
5
502
100
AcDbEntity
8
section_4_4_d
6
ByLayer
62
256
370
-1
100
AcDbDimension
2
*D44
10
3900
20
1514
30
0
11
3856
21
1289
31
0
70
32
71
5
3
Standard
53
0
210
0
220
0
230
1
100
AcDbAlignedDimension
13
3848.01757373
23
1064
33
0
14
3848.01757373
24
1514
34
0
50
90
100
AcDbRotatedDimension
0
DIMENSION
5
503
100
AcDbEntity
8
section_4_4_d
6
ByLayer
62
256
370
-1
100
AcDbDimension
2
*D45
10
3900
20
1914
30
0
11
3856
21
1714
31
0
70
32
71
5
3
Standard
53
0
210
0
220
0
230
1
100
AcDbAlignedDimension
13
3842.58252066
23
1514
33
0
14
3842.58252066
24
1914
34
0
50
90
100
AcDbRotatedDimension
0
DIMENSION
5
504
100
AcDbEntity
8
section_4_4_d
6
ByLayer
62
256
370
-1
100
AcDbDimension
2
*D46
10
3900
20
2314
30
0
11
3856
21
2114
31
0
70
32
71
5
3
Standard
53
0
210
0
220
0
230
1
100
AcDbAlignedDimension
13
3848.01757373
23
1914
33
0
14
3848.01757373
24
2314
34
0
50
90
100
AcDbRotatedDimension
0
DIMENSION
5
505
100
AcDbEntity
8
section_4_4_d
6
ByLayer
62
256
370
-1
100
AcDbDimension
2
*D47
10
3900
20
2714
30
0
11
3856
21
2514
31
0
70
32
71
5
3
Standard
53
0
210
0
220
0
230
1
100
AcDbAlignedDimension
13
3831.71241452
23
2314
33
0
14
3842.58252066
24
2714
34
0
50
90
100
AcDbRotatedDimension
0
DIMENSION
5
506
100
AcDbEntity
8
section_4_4_d
6
ByLayer
62
256
370
-1
100
AcDbDimension
2
*D48
10
3900
20
3114
30
0
11
3856
21
2914
31
0
70
32
71
5
3
Standard
53
0
210
0
220
0
230
1
100
AcDbAlignedDimension
13
3842.58252066
23
2714
33
0
14
3848.01757373
24
3114
34
0
50
90
100
AcDbRotatedDimension
0
DIMENSION
5
507
100
AcDbEntity
8
section_4_4_d
6
ByLayer
62
256
370
-1
100
AcDbDimension
2
*D49
10
3900
20
3464
30
0
11
3856
21
3289
31
0
70
32
71
5
3
Standard
53
0
210
0
220
0
230
1
100
AcDbAlignedDimension
13
3943.15274267
23
3114
33
0
14
3943.15274267
24
3464
34
0
50
90
100
AcDbRotatedDimension
0
DIMENSION
5
508
100
AcDbEntity
8
section_4_4_d
6
ByLayer
62
256
370
-1
100
AcDbDimension
2
*D50
10
3420
20
2800
30
0
11
3223.5
21
2844
31
0
70
32
71
5
3
Standard
53
0
210
0
220
0
230
1
100
AcDbAlignedDimension
13
3027
23
2849.53310409
33
0
14
3420
24
2849.53310409
34
0
100
AcDbRotatedDimension
0
LINE
5
509
100
AcDbEntity
8
section_electric
6
ByLayer
62
1
370
200
100
AcDbLine
10
1230
20
3300
11
1400
21
3300
0
LINE
5
50A
100
AcDbEntity
8
section_electric
6
ByLayer
62
1
370
200
100
AcDbLine
10
1400
20
3300
11
1400
21
3500
0
CIRCLE
5
50B
100
AcDbEntity
8
section_electric
6
ByLayer
62
3
370
-1
100
AcDbCircle
10
3305
20
1404
40
5
0
LINE
5
50C
100
AcDbEntity
8
section_electric
6
ByLayer
62
3
370
-1
100
AcDbLine
10
3300.01080528
20
1403.67146381
11
3300.01080528
21
1099
0
LINE
5
50D
100
AcDbEntity
8
section_electric
6
ByLayer
62
3
370
-1
100
AcDbLine
10
3309.98769818
20
1403.64947626
11
3309.98769818
21
1098.97801244
0
LINE
5
50E
100
AcDbEntity
8
section_electric
6
ByLayer
62
1
370
100
100
AcDbLine
10
3307
20
1406
11
3307
21
1099
0
LINE
5
50F
100
AcDbEntity
8
section_electric
6
ByLayer
62
1
370
100
100
AcDbLine
10
2950
20
2770
11
1220
21
2770
0
LINE
5
510
100
AcDbEntity
8
section_electric
6
ByLayer
62
5
370
100
100
AcDbLine
10
3303
20
1099
11
3303
21
1402
0
LINE
5
511
100
AcDbEntity
8
section_electric
6
ByLayer
62
5
370
100
100
AcDbLine
10
2940.00199058
20
2760
11
1220
21
2760
0
LINE
5
512
100
AcDbEntity
8
section_electric
6
ByLayer
62
3
370
-1
100
AcDbLine
10
2957
20
1514
11
2992
21
1514
0
LINE
5
513
100
AcDbEntity
8
section_electric
6
ByLayer
62
3
370
-1
100
AcDbLine
10
2957
20
1529
11
2992
21
1529
0
LINE
5
514
100
AcDbEntity
8
section_electric
6
ByLayer
62
5
370
100
100
AcDbLine
10
2940.00199778
20
1522.107039
11
3303
21
1402
0
LINE
5
515
100
AcDbEntity
8
section_electric
6
ByLayer
62
1
370
100
100
AcDbLine
10
2950
20
1527
11
3307
21
1406
0
LINE
5
516
100
AcDbEntity
8
section_electric
6
ByLayer
62
1
370
100
100
AcDbLine
10
2950
20
1527
11
2950.00175228
21
2770
0
LINE
5
517
100
AcDbEntity
8
section_electric
6
ByLayer
62
5
370
100
100
AcDbLine
10
2940.00199778
20
1522.107039
11
2940.00374286
21
2760
0
ENDSEC
0
SECTION
2
OBJECTS
0
DICTIONARY
5
C
330
0
100
AcDbDictionary
281
1
3
ACAD_GROUP
350
D
0
DICTIONARY
5
D
330
C
100
AcDbDictionary
281
1
0
ENDSEC
0
EOF
