<?xml version="1.0" encoding="UTF-8" standalone="no"?>
<svg width="488.597mm" height="261.056mm"
 viewBox="0 0 1385 740"
 xmlns="http://www.w3.org/2000/svg" xmlns:xlink="http://www.w3.org/1999/xlink"  version="1.2" baseProfile="tiny">
<title>Qt Svg Document</title>
<desc>Generated with Qt</desc>
<defs>
</defs>
<g fill="none" stroke="black" stroke-width="1" fill-rule="evenodd" stroke-linecap="square" stroke-linejoin="bevel" >

<g fill="#ffffff" fill-opacity="1" stroke="none" transform="matrix(1,0,0,1,0,0)"
font-family="Sans Serif" font-size="9" font-weight="400" font-style="normal" 
>
<path vector-effect="non-scaling-stroke" fill-rule="evenodd" d="M0,0 L1385,0 L1385,740 L0,740 L0,0"/>
</g>

<g fill="none" stroke="#000000" stroke-opacity="1" stroke-width="1" stroke-linecap="round" stroke-linejoin="round" transform="matrix(1,0,0,1,0,0)"
font-family="Sans Serif" font-size="9" font-weight="400" font-style="normal" 
>
<polyline fill="none" vector-effect="non-scaling-stroke" points="470,397 470,404 " />
<polyline fill="none" vector-effect="non-scaling-stroke" points="915,397 915,404 " />
<polyline fill="none" vector-effect="non-scaling-stroke" points="470,404 915,404 " />
<polyline fill="none" vector-effect="non-scaling-stroke" points="915,404 915,397 " />
<polyline fill="none" vector-effect="non-scaling-stroke" points="915,397 470,397 " />
<polyline fill="none" vector-effect="non-scaling-stroke" points="470,397 470,404 " />
<polyline fill="none" vector-effect="non-scaling-stroke" points="470,348 470,355 " />
<polyline fill="none" vector-effect="non-scaling-stroke" points="915,348 915,355 " />
<polyline fill="none" vector-effect="non-scaling-stroke" points="470,355 915,355 " />
<polyline fill="none" vector-effect="non-scaling-stroke" points="915,355 915,348 " />
<polyline fill="none" vector-effect="non-scaling-stroke" points="915,348 470,348 " />
<polyline fill="none" vector-effect="non-scaling-stroke" points="470,348 470,355 " />
<polyline fill="none" vector-effect="non-scaling-stroke" points="470,355 464,355 " />
<polyline fill="none" vector-effect="non-scaling-stroke" points="464,355 464,397 " />
<polyline fill="none" vector-effect="non-scaling-stroke" points="464,397 470,397 " />
<polyline fill="none" vector-effect="non-scaling-stroke" points="470,397 470,355 " />
<polyline fill="none" vector-effect="non-scaling-stroke" points="477,355 477,397 " />
<polyline fill="none" vector-effect="non-scaling-stroke" points="121,355 121,397 " />
<polyline fill="none" vector-effect="non-scaling-stroke" points="908,355 908,397 " />
<polyline fill="none" vector-effect="non-scaling-stroke" points="915,397 915,355 " />
<polyline fill="none" vector-effect="non-scaling-stroke" points="921,355 921,397 " />
<polyline fill="none" vector-effect="non-scaling-stroke" points="1265,355 1265,397 " />
<polyline fill="none" vector-effect="non-scaling-stroke" points="1271,404 1271,355 " />
<polyline fill="none" vector-effect="non-scaling-stroke" points="114,404 114,355 " />
<polyline fill="none" vector-effect="non-scaling-stroke" points="114,397 470,397 " />
<polyline fill="none" vector-effect="non-scaling-stroke" points="470,404 114,404 " />
<polyline fill="none" vector-effect="non-scaling-stroke" points="1271,397 915,397 " />
<polyline fill="none" vector-effect="non-scaling-stroke" points="915,404 1271,404 " />
<polyline fill="none" vector-effect="non-scaling-stroke" points="209,355 209,397 " />
<polyline fill="none" vector-effect="non-scaling-stroke" points="203,397 203,355 " />
<polyline fill="none" vector-effect="non-scaling-stroke" points="298,355 298,397 " />
<polyline fill="none" vector-effect="non-scaling-stroke" points="291,397 291,355 " />
<polyline fill="none" vector-effect="non-scaling-stroke" points="386,355 386,397 " />
<polyline fill="none" vector-effect="non-scaling-stroke" points="380,397 380,355 " />
<polyline fill="none" vector-effect="non-scaling-stroke" points="563,355 563,397 " />
<polyline fill="none" vector-effect="non-scaling-stroke" points="557,397 557,355 " />
<polyline fill="none" vector-effect="non-scaling-stroke" points="652,355 652,397 " />
<polyline fill="none" vector-effect="non-scaling-stroke" points="645,397 645,355 " />
<polyline fill="none" vector-effect="non-scaling-stroke" points="740,355 740,397 " />
<polyline fill="none" vector-effect="non-scaling-stroke" points="734,397 734,355 " />
<polyline fill="none" vector-effect="non-scaling-stroke" points="829,355 829,397 " />
<polyline fill="none" vector-effect="non-scaling-stroke" points="822,397 822,355 " />
<polyline fill="none" vector-effect="non-scaling-stroke" points="1006,355 1006,397 " />
<polyline fill="none" vector-effect="non-scaling-stroke" points="999,397 999,355 " />
<polyline fill="none" vector-effect="non-scaling-stroke" points="1094,355 1094,397 " />
<polyline fill="none" vector-effect="non-scaling-stroke" points="1088,397 1088,355 " />
<polyline fill="none" vector-effect="non-scaling-stroke" points="1183,355 1183,397 " />
<polyline fill="none" vector-effect="non-scaling-stroke" points="1176,397 1176,355 " />
<polyline fill="none" vector-effect="non-scaling-stroke" points="50,355 50,348 " />
<polyline fill="none" vector-effect="non-scaling-stroke" points="1335,355 1335,348 " />
<polyline fill="none" vector-effect="non-scaling-stroke" points="915,355 1335,355 " />
<polyline fill="none" vector-effect="non-scaling-stroke" points="1335,348 915,348 " />
<polyline fill="none" vector-effect="non-scaling-stroke" points="50,348 470,348 " />
<polyline fill="none" vector-effect="non-scaling-stroke" points="470,355 50,355 " />
<polyline fill="none" vector-effect="non-scaling-stroke" points="113,348 120,348 " />
<polyline fill="none" vector-effect="non-scaling-stroke" points="113,335 113,348 " />
<polyline fill="none" vector-effect="non-scaling-stroke" points="122,348 122,335 " />
<polyline fill="none" vector-effect="non-scaling-stroke" points="113,335 122,335 " />
<polyline fill="none" vector-effect="non-scaling-stroke" points="122,335 113,348 " />
<polyline fill="none" vector-effect="non-scaling-stroke" points="113,335 122,348 " />
<polyline fill="none" vector-effect="non-scaling-stroke" points="50,348 57,348 " />
<polyline fill="none" vector-effect="non-scaling-stroke" points="50,335 50,348 " />
<polyline fill="none" vector-effect="non-scaling-stroke" points="58,348 58,335 " />
<polyline fill="none" vector-effect="non-scaling-stroke" points="50,335 58,335 " />
<polyline fill="none" vector-effect="non-scaling-stroke" points="58,335 50,348 " />
<polyline fill="none" vector-effect="non-scaling-stroke" points="50,335 58,348 " />
<polyline fill="none" vector-effect="non-scaling-stroke" points="209,348 215,348 " />
<polyline fill="none" vector-effect="non-scaling-stroke" points="209,335 209,348 " />
<polyline fill="none" vector-effect="non-scaling-stroke" points="217,348 217,335 " />
<polyline fill="none" vector-effect="non-scaling-stroke" points="209,335 217,335 " />
<polyline fill="none" vector-effect="non-scaling-stroke" points="217,335 209,348 " />
<polyline fill="none" vector-effect="non-scaling-stroke" points="209,335 217,348 " />
<polyline fill="none" vector-effect="non-scaling-stroke" points="305,348 311,348 " />
<polyline fill="none" vector-effect="non-scaling-stroke" points="305,335 305,348 " />
<polyline fill="none" vector-effect="non-scaling-stroke" points="313,348 313,335 " />
<polyline fill="none" vector-effect="non-scaling-stroke" points="305,335 313,335 " />
<polyline fill="none" vector-effect="non-scaling-stroke" points="313,335 305,348 " />
<polyline fill="none" vector-effect="non-scaling-stroke" points="305,335 313,348 " />
<polyline fill="none" vector-effect="non-scaling-stroke" points="400,348 407,348 " />
<polyline fill="none" vector-effect="non-scaling-stroke" points="400,335 400,348 " />
<polyline fill="none" vector-effect="non-scaling-stroke" points="409,348 409,335 " />
<polyline fill="none" vector-effect="non-scaling-stroke" points="400,335 409,335 " />
<polyline fill="none" vector-effect="non-scaling-stroke" points="409,335 400,348 " />
<polyline fill="none" vector-effect="non-scaling-stroke" points="400,335 409,348 " />
<polyline fill="none" vector-effect="non-scaling-stroke" points="496,348 503,348 " />
<polyline fill="none" vector-effect="non-scaling-stroke" points="496,335 496,348 " />
<polyline fill="none" vector-effect="non-scaling-stroke" points="505,348 505,335 " />
<polyline fill="none" vector-effect="non-scaling-stroke" points="496,335 505,335 " />
<polyline fill="none" vector-effect="non-scaling-stroke" points="505,335 496,348 " />
<polyline fill="none" vector-effect="non-scaling-stroke" points="496,335 505,348 " />
<polyline fill="none" vector-effect="non-scaling-stroke" points="592,348 598,348 " />
<polyline fill="none" vector-effect="non-scaling-stroke" points="592,335 592,348 " />
<polyline fill="none" vector-effect="non-scaling-stroke" points="600,348 600,335 " />
<polyline fill="none" vector-effect="non-scaling-stroke" points="592,335 600,335 " />
<polyline fill="none" vector-effect="non-scaling-stroke" points="600,335 592,348 " />
<polyline fill="none" vector-effect="non-scaling-stroke" points="592,335 600,348 " />
<polyline fill="none" vector-effect="non-scaling-stroke" points="688,348 694,348 " />
<polyline fill="none" vector-effect="non-scaling-stroke" points="688,335 688,348 " />
<polyline fill="none" vector-effect="non-scaling-stroke" points="696,348 696,335 " />
<polyline fill="none" vector-effect="non-scaling-stroke" points="688,335 696,335 " />
<polyline fill="none" vector-effect="non-scaling-stroke" points="696,335 688,348 " />
<polyline fill="none" vector-effect="non-scaling-stroke" points="688,335 696,348 " />
<polyline fill="none" vector-effect="non-scaling-stroke" points="783,348 790,348 " />
<polyline fill="none" vector-effect="non-scaling-stroke" points="783,335 783,348 " />
<polyline fill="none" vector-effect="non-scaling-stroke" points="792,348 792,335 " />
<polyline fill="none" vector-effect="non-scaling-stroke" points="783,335 792,335 " />
<polyline fill="none" vector-effect="non-scaling-stroke" points="792,335 783,348 " />
<polyline fill="none" vector-effect="non-scaling-stroke" points="783,335 792,348 " />
<polyline fill="none" vector-effect="non-scaling-stroke" points="879,348 886,348 " />
<polyline fill="none" vector-effect="non-scaling-stroke" points="879,335 879,348 " />
<polyline fill="none" vector-effect="non-scaling-stroke" points="888,348 888,335 " />
<polyline fill="none" vector-effect="non-scaling-stroke" points="879,335 888,335 " />
<polyline fill="none" vector-effect="non-scaling-stroke" points="888,335 879,348 " />
<polyline fill="none" vector-effect="non-scaling-stroke" points="879,335 888,348 " />
<polyline fill="none" vector-effect="non-scaling-stroke" points="975,348 981,348 " />
<polyline fill="none" vector-effect="non-scaling-stroke" points="975,335 975,348 " />
<polyline fill="none" vector-effect="non-scaling-stroke" points="983,348 983,335 " />
<polyline fill="none" vector-effect="non-scaling-stroke" points="975,335 983,335 " />
<polyline fill="none" vector-effect="non-scaling-stroke" points="983,335 975,348 " />
<polyline fill="none" vector-effect="non-scaling-stroke" points="975,335 983,348 " />
<polyline fill="none" vector-effect="non-scaling-stroke" points="1071,348 1077,348 " />
<polyline fill="none" vector-effect="non-scaling-stroke" points="1071,335 1071,348 " />
<polyline fill="none" vector-effect="non-scaling-stroke" points="1079,348 1079,335 " />
<polyline fill="none" vector-effect="non-scaling-stroke" points="1071,335 1079,335 " />
<polyline fill="none" vector-effect="non-scaling-stroke" points="1079,335 1071,348 " />
<polyline fill="none" vector-effect="non-scaling-stroke" points="1071,335 1079,348 " />
<polyline fill="none" vector-effect="non-scaling-stroke" points="1166,348 1173,348 " />
<polyline fill="none" vector-effect="non-scaling-stroke" points="1166,335 1166,348 " />
<polyline fill="none" vector-effect="non-scaling-stroke" points="1175,348 1175,335 " />
<polyline fill="none" vector-effect="non-scaling-stroke" points="1166,335 1175,335 " />
<polyline fill="none" vector-effect="non-scaling-stroke" points="1175,335 1166,348 " />
<polyline fill="none" vector-effect="non-scaling-stroke" points="1166,335 1175,348 " />
<polyline fill="none" vector-effect="non-scaling-stroke" points="1327,335 1327,348 " />
<polyline fill="none" vector-effect="non-scaling-stroke" points="1335,348 1335,335 " />
<polyline fill="none" vector-effect="non-scaling-stroke" points="1327,335 1335,335 " />
<polyline fill="none" vector-effect="non-scaling-stroke" points="1335,335 1327,348 " />
<polyline fill="none" vector-effect="non-scaling-stroke" points="1327,335 1335,348 " />
<polyline fill="none" vector-effect="non-scaling-stroke" points="1264,335 1264,348 " />
<polyline fill="none" vector-effect="non-scaling-stroke" points="1272,348 1272,335 " />
<polyline fill="none" vector-effect="non-scaling-stroke" points="1264,335 1272,335 " />
<polyline fill="none" vector-effect="non-scaling-stroke" points="1272,335 1264,348 " />
<polyline fill="none" vector-effect="non-scaling-stroke" points="1264,335 1272,348 " />
</g>
</g>
</svg>
