<?xml version="1.0" encoding="UTF-8" standalone="no"?>
<svg width="991.658mm" height="500.592mm"
 viewBox="0 0 2811 1419"
 xmlns="http://www.w3.org/2000/svg" xmlns:xlink="http://www.w3.org/1999/xlink"  version="1.2" baseProfile="tiny">
<title>Qt Svg Document</title>
<desc>Generated with Qt</desc>
<defs>
</defs>
<g fill="none" stroke="black" stroke-width="1" fill-rule="evenodd" stroke-linecap="square" stroke-linejoin="bevel" >

<g fill="#ffffff" fill-opacity="1" stroke="none" transform="matrix(1,0,0,1,0,0)"
font-family="Sans Serif" font-size="9" font-weight="400" font-style="normal" 
>
<path vector-effect="non-scaling-stroke" fill-rule="evenodd" d="M0,0 L2811,0 L2811,1419 L0,1419 L0,0"/>
</g>

<g fill="none" stroke="#000000" stroke-opacity="1" stroke-width="1" stroke-linecap="round" stroke-linejoin="round" transform="matrix(1,0,0,1,0,0)"
font-family="Sans Serif" font-size="9" font-weight="400" font-style="normal" 
>
<polyline fill="none" vector-effect="non-scaling-stroke" points="158,370 158,911 " />
<polyline fill="none" vector-effect="non-scaling-stroke" points="2654,370 2654,911 " />
<polyline fill="none" vector-effect="non-scaling-stroke" points="1667,278 1667,1369 " />
<polyline fill="none" vector-effect="non-scaling-stroke" points="1145,278 1145,1369 " />
<polyline fill="none" vector-effect="non-scaling-stroke" points="100,50 100,434 " />
<polyline fill="none" vector-effect="non-scaling-stroke" points="100,454 100,947 " />
<polyline fill="none" vector-effect="non-scaling-stroke" points="100,50 119,50 " />
<polyline fill="none" vector-effect="non-scaling-stroke" points="100,434 119,434 " />
<polyline fill="none" vector-effect="non-scaling-stroke" points="100,454 119,454 " />
<polyline fill="none" vector-effect="non-scaling-stroke" points="100,947 119,947 " />
<polyline fill="none" vector-effect="non-scaling-stroke" points="119,50 119,950 " />
<polyline fill="none" vector-effect="non-scaling-stroke" points="139,312 303,312 " />
<polyline fill="none" vector-effect="non-scaling-stroke" points="323,312 529,312 " />
<polyline fill="none" vector-effect="non-scaling-stroke" points="549,312 694,312 " />
<polyline fill="none" vector-effect="non-scaling-stroke" points="694,312 694,331 " />
<polyline fill="none" vector-effect="non-scaling-stroke" points="139,970 231,970 " />
<polyline fill="none" vector-effect="non-scaling-stroke" points="250,970 416,970 " />
<polyline fill="none" vector-effect="non-scaling-stroke" points="436,970 602,970 " />
<polyline fill="none" vector-effect="non-scaling-stroke" points="621,970 713,970 " />
<polyline fill="none" vector-effect="non-scaling-stroke" points="549,312 549,331 " />
<polyline fill="none" vector-effect="non-scaling-stroke" points="529,312 529,331 " />
<polyline fill="none" vector-effect="non-scaling-stroke" points="323,312 323,331 " />
<polyline fill="none" vector-effect="non-scaling-stroke" points="303,312 303,331 " />
<polyline fill="none" vector-effect="non-scaling-stroke" points="139,312 139,331 " />
<polyline fill="none" vector-effect="non-scaling-stroke" points="139,950 139,970 " />
<polyline fill="none" vector-effect="non-scaling-stroke" points="231,950 231,970 " />
<polyline fill="none" vector-effect="non-scaling-stroke" points="250,950 250,970 " />
<polyline fill="none" vector-effect="non-scaling-stroke" points="416,950 416,970 " />
<polyline fill="none" vector-effect="non-scaling-stroke" points="436,950 436,970 " />
<polyline fill="none" vector-effect="non-scaling-stroke" points="602,950 602,970 " />
<polyline fill="none" vector-effect="non-scaling-stroke" points="621,950 621,970 " />
<polyline fill="none" vector-effect="non-scaling-stroke" points="713,950 713,970 " />
<polyline fill="none" vector-effect="non-scaling-stroke" points="1106,239 1706,239 " />
<polyline fill="none" vector-effect="non-scaling-stroke" points="1106,278 1706,278 " />
<polyline fill="none" vector-effect="non-scaling-stroke" points="1106,50 1106,1369 " />
<polyline fill="none" vector-effect="non-scaling-stroke" points="1706,50 1706,1369 " />
<polyline fill="none" vector-effect="non-scaling-stroke" points="1106,1369 1145,1369 " />
<polyline fill="none" vector-effect="non-scaling-stroke" points="1667,1369 1706,1369 " />
<polyline fill="none" vector-effect="non-scaling-stroke" points="1087,454 1087,947 " />
<polyline fill="none" vector-effect="non-scaling-stroke" points="1087,50 1087,434 " />
<polyline fill="none" vector-effect="non-scaling-stroke" points="1087,967 1087,1349 " />
<polyline fill="none" vector-effect="non-scaling-stroke" points="1725,967 1725,1349 " />
<polyline fill="none" vector-effect="non-scaling-stroke" points="1725,50 1725,434 " />
<polyline fill="none" vector-effect="non-scaling-stroke" points="1725,454 1725,947 " />
<polyline fill="none" vector-effect="non-scaling-stroke" points="1087,50 1106,50 " />
<polyline fill="none" vector-effect="non-scaling-stroke" points="1087,434 1106,434 " />
<polyline fill="none" vector-effect="non-scaling-stroke" points="1087,454 1106,454 " />
<polyline fill="none" vector-effect="non-scaling-stroke" points="1087,947 1106,947 " />
<polyline fill="none" vector-effect="non-scaling-stroke" points="1087,967 1106,967 " />
<polyline fill="none" vector-effect="non-scaling-stroke" points="1087,1349 1106,1349 " />
<polyline fill="none" vector-effect="non-scaling-stroke" points="1706,1349 1725,1349 " />
<polyline fill="none" vector-effect="non-scaling-stroke" points="1706,967 1725,967 " />
<polyline fill="none" vector-effect="non-scaling-stroke" points="1706,947 1725,947 " />
<polyline fill="none" vector-effect="non-scaling-stroke" points="1706,454 1725,454 " />
<polyline fill="none" vector-effect="non-scaling-stroke" points="1706,434 1725,434 " />
<polyline fill="none" vector-effect="non-scaling-stroke" points="1706,50 1725,50 " />
<polyline fill="none" vector-effect="non-scaling-stroke" points="1126,220 1237,220 " />
<polyline fill="none" vector-effect="non-scaling-stroke" points="1257,220 1396,220 " />
<polyline fill="none" vector-effect="non-scaling-stroke" points="1416,220 1555,220 " />
<polyline fill="none" vector-effect="non-scaling-stroke" points="1575,220 1686,220 " />
<polyline fill="none" vector-effect="non-scaling-stroke" points="1126,220 1126,239 " />
<polyline fill="none" vector-effect="non-scaling-stroke" points="1237,220 1237,239 " />
<polyline fill="none" vector-effect="non-scaling-stroke" points="1257,220 1257,239 " />
<polyline fill="none" vector-effect="non-scaling-stroke" points="1396,220 1396,239 " />
<polyline fill="none" vector-effect="non-scaling-stroke" points="1416,220 1416,239 " />
<polyline fill="none" vector-effect="non-scaling-stroke" points="1555,220 1555,239 " />
<polyline fill="none" vector-effect="non-scaling-stroke" points="1575,220 1575,239 " />
<polyline fill="none" vector-effect="non-scaling-stroke" points="1686,220 1686,239 " />
<polyline fill="none" vector-effect="non-scaling-stroke" points="2119,312 2264,312 " />
<polyline fill="none" vector-effect="non-scaling-stroke" points="2283,312 2490,312 " />
<polyline fill="none" vector-effect="non-scaling-stroke" points="2509,312 2674,312 " />
<polyline fill="none" vector-effect="non-scaling-stroke" points="2099,970 2191,970 " />
<polyline fill="none" vector-effect="non-scaling-stroke" points="2211,970 2377,970 " />
<polyline fill="none" vector-effect="non-scaling-stroke" points="2396,970 2562,970 " />
<polyline fill="none" vector-effect="non-scaling-stroke" points="2582,970 2674,970 " />
<polyline fill="none" vector-effect="non-scaling-stroke" points="2713,50 2713,434 " />
<polyline fill="none" vector-effect="non-scaling-stroke" points="2713,454 2713,947 " />
<polyline fill="none" vector-effect="non-scaling-stroke" points="2693,50 2693,950 " />
<polyline fill="none" vector-effect="non-scaling-stroke" points="2119,312 2119,331 " />
<polyline fill="none" vector-effect="non-scaling-stroke" points="2264,312 2264,331 " />
<polyline fill="none" vector-effect="non-scaling-stroke" points="2283,312 2283,331 " />
<polyline fill="none" vector-effect="non-scaling-stroke" points="2490,312 2490,331 " />
<polyline fill="none" vector-effect="non-scaling-stroke" points="2509,312 2509,331 " />
<polyline fill="none" vector-effect="non-scaling-stroke" points="2674,312 2674,331 " />
<polyline fill="none" vector-effect="non-scaling-stroke" points="2674,950 2674,970 " />
<polyline fill="none" vector-effect="non-scaling-stroke" points="2582,950 2582,970 " />
<polyline fill="none" vector-effect="non-scaling-stroke" points="2562,950 2562,970 " />
<polyline fill="none" vector-effect="non-scaling-stroke" points="2396,950 2396,970 " />
<polyline fill="none" vector-effect="non-scaling-stroke" points="2377,950 2377,970 " />
<polyline fill="none" vector-effect="non-scaling-stroke" points="2211,950 2211,970 " />
<polyline fill="none" vector-effect="non-scaling-stroke" points="2191,950 2191,970 " />
<polyline fill="none" vector-effect="non-scaling-stroke" points="2099,950 2099,970 " />
<polyline fill="none" vector-effect="non-scaling-stroke" points="2693,434 2713,434 " />
<polyline fill="none" vector-effect="non-scaling-stroke" points="2693,454 2713,454 " />
<polyline fill="none" vector-effect="non-scaling-stroke" points="2693,947 2713,947 " />
<polyline fill="none" vector-effect="non-scaling-stroke" points="2693,50 2713,50 " />
<polyline fill="none" vector-effect="non-scaling-stroke" points="694,370 694,911 " />
<polyline fill="none" vector-effect="non-scaling-stroke" points="733,331 733,950 " />
<polyline fill="none" vector-effect="non-scaling-stroke" points="119,331 733,331 " />
<polyline fill="none" vector-effect="non-scaling-stroke" points="119,370 733,370 " />
<polyline fill="none" vector-effect="non-scaling-stroke" points="119,911 733,911 " />
<polyline fill="none" vector-effect="non-scaling-stroke" points="119,950 733,950 " />
<polyline fill="none" vector-effect="non-scaling-stroke" points="2119,370 2119,911 " />
<polyline fill="none" vector-effect="non-scaling-stroke" points="2080,331 2080,950 " />
<polyline fill="none" vector-effect="non-scaling-stroke" points="2080,331 2693,331 " />
<polyline fill="none" vector-effect="non-scaling-stroke" points="2080,370 2693,370 " />
<polyline fill="none" vector-effect="non-scaling-stroke" points="2080,911 2693,911 " />
<polyline fill="none" vector-effect="non-scaling-stroke" points="2080,950 2693,950 " />
</g>
</g>
</svg>
