<?xml version="1.0" encoding="UTF-8" standalone="no"?>
<svg width="879.828mm" height="338.667mm"
 viewBox="0 0 2494 960"
 xmlns="http://www.w3.org/2000/svg" xmlns:xlink="http://www.w3.org/1999/xlink"  version="1.2" baseProfile="tiny">
<title>Qt Svg Document</title>
<desc>Generated with Qt</desc>
<defs>
</defs>
<g fill="none" stroke="black" stroke-width="1" fill-rule="evenodd" stroke-linecap="square" stroke-linejoin="bevel" >

<g fill="#ffffff" fill-opacity="1" stroke="none" transform="matrix(1,0,0,1,0,0)"
font-family="Sans Serif" font-size="9" font-weight="400" font-style="normal" 
>
<path vector-effect="non-scaling-stroke" fill-rule="evenodd" d="M0,0 L2494,0 L2494,960 L0,960 L0,0"/>
</g>

<g fill="none" stroke="#000000" stroke-opacity="1" stroke-width="1" stroke-linecap="round" stroke-linejoin="round" transform="matrix(1,0,0,1,0,0)"
font-family="Sans Serif" font-size="9" font-weight="400" font-style="normal" 
>
<polyline fill="none" vector-effect="non-scaling-stroke" points="130,897 130,910 " />
<polyline fill="none" vector-effect="non-scaling-stroke" points="130,897 818,897 " />
<polyline fill="none" vector-effect="non-scaling-stroke" points="1676,897 2364,897 " />
<polyline fill="none" vector-effect="non-scaling-stroke" points="818,897 1080,897 " />
<polyline fill="none" vector-effect="non-scaling-stroke" points="1415,897 1676,897 " />
<polyline fill="none" vector-effect="non-scaling-stroke" points="834,134 834,261 " />
<polyline fill="none" vector-effect="non-scaling-stroke" points="1660,134 1660,261 " />
<polyline fill="none" vector-effect="non-scaling-stroke" points="1415,910 2364,910 " />
<polyline fill="none" vector-effect="non-scaling-stroke" points="130,910 1080,910 " />
<polyline fill="none" vector-effect="non-scaling-stroke" points="1676,62 1676,50 " />
<polyline fill="none" vector-effect="non-scaling-stroke" points="818,50 1676,50 " />
<polyline fill="none" vector-effect="non-scaling-stroke" points="818,82 834,82 " />
<polyline fill="none" vector-effect="non-scaling-stroke" points="834,82 834,50 " />
<polyline fill="none" vector-effect="non-scaling-stroke" points="834,50 818,50 " />
<polyline fill="none" vector-effect="non-scaling-stroke" points="818,50 818,82 " />
<polyline fill="none" vector-effect="non-scaling-stroke" points="802,82 802,50 " />
<polyline fill="none" vector-effect="non-scaling-stroke" points="802,50 818,50 " />
<polyline fill="none" vector-effect="non-scaling-stroke" points="818,50 818,82 " />
<polyline fill="none" vector-effect="non-scaling-stroke" points="818,50 802,50 " />
<polyline fill="none" vector-effect="non-scaling-stroke" points="802,50 802,82 " />
<polyline fill="none" vector-effect="non-scaling-stroke" points="802,82 818,82 " />
<polyline fill="none" vector-effect="non-scaling-stroke" points="818,82 818,50 " />
<polyline fill="none" vector-effect="non-scaling-stroke" points="802,82 818,50 " />
<polyline fill="none" vector-effect="non-scaling-stroke" points="802,50 818,82 " />
<polyline fill="none" vector-effect="non-scaling-stroke" points="818,50 834,82 " />
<polyline fill="none" vector-effect="non-scaling-stroke" points="818,82 834,50 " />
<polyline fill="none" vector-effect="non-scaling-stroke" points="1676,82 1692,82 " />
<polyline fill="none" vector-effect="non-scaling-stroke" points="1692,82 1692,50 " />
<polyline fill="none" vector-effect="non-scaling-stroke" points="1692,50 1676,50 " />
<polyline fill="none" vector-effect="non-scaling-stroke" points="1676,50 1676,82 " />
<polyline fill="none" vector-effect="non-scaling-stroke" points="1660,82 1660,50 " />
<polyline fill="none" vector-effect="non-scaling-stroke" points="1660,50 1676,50 " />
<polyline fill="none" vector-effect="non-scaling-stroke" points="1676,50 1676,82 " />
<polyline fill="none" vector-effect="non-scaling-stroke" points="1676,50 1660,50 " />
<polyline fill="none" vector-effect="non-scaling-stroke" points="1660,50 1660,82 " />
<polyline fill="none" vector-effect="non-scaling-stroke" points="1660,82 1676,82 " />
<polyline fill="none" vector-effect="non-scaling-stroke" points="1676,82 1676,50 " />
<polyline fill="none" vector-effect="non-scaling-stroke" points="1660,82 1676,50 " />
<polyline fill="none" vector-effect="non-scaling-stroke" points="1660,50 1676,82 " />
<polyline fill="none" vector-effect="non-scaling-stroke" points="1676,50 1692,82 " />
<polyline fill="none" vector-effect="non-scaling-stroke" points="1676,82 1692,50 " />
<polyline fill="none" vector-effect="non-scaling-stroke" points="834,62 1660,62 " />
<polyline fill="none" vector-effect="non-scaling-stroke" points="143,62 143,897 " />
<polyline fill="none" vector-effect="non-scaling-stroke" points="2352,62 2352,897 " />
<polyline fill="none" vector-effect="non-scaling-stroke" points="1660,82 1660,897 " />
<polyline fill="none" vector-effect="non-scaling-stroke" points="834,82 834,897 " />
<polyline fill="none" vector-effect="non-scaling-stroke" points="818,82 818,910 " />
<polyline fill="none" vector-effect="non-scaling-stroke" points="684,62 684,243 " />
<polyline fill="none" vector-effect="non-scaling-stroke" points="696,62 696,243 " />
<polyline fill="none" vector-effect="non-scaling-stroke" points="790,62 790,243 " />
<polyline fill="none" vector-effect="non-scaling-stroke" points="446,268 446,616 " />
<polyline fill="none" vector-effect="non-scaling-stroke" points="802,82 802,897 " />
<polyline fill="none" vector-effect="non-scaling-stroke" points="433,268 802,268 " />
<polyline fill="none" vector-effect="non-scaling-stroke" points="433,256 802,256 " />
<polyline fill="none" vector-effect="non-scaling-stroke" points="433,243 802,243 " />
<polyline fill="none" vector-effect="non-scaling-stroke" points="433,616 802,616 " />
<polyline fill="none" vector-effect="non-scaling-stroke" points="433,629 802,629 " />
<polyline fill="none" vector-effect="non-scaling-stroke" points="433,641 802,641 " />
<polyline fill="none" vector-effect="non-scaling-stroke" points="433,62 433,897 " />
<polyline fill="none" vector-effect="non-scaling-stroke" points="420,62 420,897 " />
<polyline fill="none" vector-effect="non-scaling-stroke" points="143,639 420,639 " />
<polyline fill="none" vector-effect="non-scaling-stroke" points="143,652 420,652 " />
<polyline fill="none" vector-effect="non-scaling-stroke" points="2049,268 2049,616 " />
<polyline fill="none" vector-effect="non-scaling-stroke" points="1692,82 1692,897 " />
<polyline fill="none" vector-effect="non-scaling-stroke" points="1692,629 2062,629 " />
<polyline fill="none" vector-effect="non-scaling-stroke" points="1692,641 2062,641 " />
<polyline fill="none" vector-effect="non-scaling-stroke" points="1692,616 2062,616 " />
<polyline fill="none" vector-effect="non-scaling-stroke" points="1692,256 2062,256 " />
<polyline fill="none" vector-effect="non-scaling-stroke" points="1692,268 2062,268 " />
<polyline fill="none" vector-effect="non-scaling-stroke" points="1692,243 2062,243 " />
<polyline fill="none" vector-effect="non-scaling-stroke" points="2062,62 2062,897 " />
<polyline fill="none" vector-effect="non-scaling-stroke" points="1811,62 1811,243 " />
<polyline fill="none" vector-effect="non-scaling-stroke" points="1798,62 1798,243 " />
<polyline fill="none" vector-effect="non-scaling-stroke" points="1705,62 1705,243 " />
<polyline fill="none" vector-effect="non-scaling-stroke" points="2074,62 2074,897 " />
<polyline fill="none" vector-effect="non-scaling-stroke" points="2074,639 2352,639 " />
<polyline fill="none" vector-effect="non-scaling-stroke" points="2074,652 2352,652 " />
<polyline fill="none" vector-effect="non-scaling-stroke" points="143,310 420,310 " />
<polyline fill="none" vector-effect="non-scaling-stroke" points="143,322 420,322 " />
<polyline fill="none" vector-effect="non-scaling-stroke" points="2074,310 2352,310 " />
<polyline fill="none" vector-effect="non-scaling-stroke" points="2074,322 2352,322 " />
<polyline fill="none" vector-effect="non-scaling-stroke" points="847,211 834,211 " />
<polyline fill="none" vector-effect="non-scaling-stroke" points="847,62 847,211 " />
<polyline fill="none" vector-effect="non-scaling-stroke" points="1648,211 1660,211 " />
<polyline fill="none" vector-effect="non-scaling-stroke" points="1648,62 1648,211 " />
<polyline fill="none" vector-effect="non-scaling-stroke" points="1067,62 1067,897 " />
<polyline fill="none" vector-effect="non-scaling-stroke" points="1427,62 1427,897 " />
<polyline fill="none" vector-effect="non-scaling-stroke" points="1440,62 1440,897 " />
<polyline fill="none" vector-effect="non-scaling-stroke" points="834,310 1055,310 " />
<polyline fill="none" vector-effect="non-scaling-stroke" points="834,322 1055,322 " />
<polyline fill="none" vector-effect="non-scaling-stroke" points="834,639 1055,639 " />
<polyline fill="none" vector-effect="non-scaling-stroke" points="834,652 1055,652 " />
<polyline fill="none" vector-effect="non-scaling-stroke" points="1440,310 1660,310 " />
<polyline fill="none" vector-effect="non-scaling-stroke" points="1440,322 1660,322 " />
<polyline fill="none" vector-effect="non-scaling-stroke" points="1440,639 1660,639 " />
<polyline fill="none" vector-effect="non-scaling-stroke" points="1440,652 1660,652 " />
<polyline fill="none" vector-effect="non-scaling-stroke" points="2364,50 2364,910 " />
<polyline fill="none" vector-effect="non-scaling-stroke" points="130,50 130,897 " />
<polyline fill="none" vector-effect="non-scaling-stroke" points="130,50 818,50 " />
<polyline fill="none" vector-effect="non-scaling-stroke" points="130,62 802,62 " />
<polyline fill="none" vector-effect="non-scaling-stroke" points="1676,50 2364,50 " />
<polyline fill="none" vector-effect="non-scaling-stroke" points="1692,62 2364,62 " />
<polyline fill="none" vector-effect="non-scaling-stroke" points="1871,641 1871,897 " />
<polyline fill="none" vector-effect="non-scaling-stroke" points="1883,641 1883,897 " />
<polyline fill="none" vector-effect="non-scaling-stroke" points="1752,641 1752,897 " />
<polyline fill="none" vector-effect="non-scaling-stroke" points="1764,641 1764,897 " />
<polyline fill="none" vector-effect="non-scaling-stroke" points="1990,641 1990,897 " />
<polyline fill="none" vector-effect="non-scaling-stroke" points="2002,641 2002,897 " />
<polyline fill="none" vector-effect="non-scaling-stroke" points="611,641 611,897 " />
<polyline fill="none" vector-effect="non-scaling-stroke" points="624,641 624,897 " />
<polyline fill="none" vector-effect="non-scaling-stroke" points="492,641 492,897 " />
<polyline fill="none" vector-effect="non-scaling-stroke" points="505,641 505,897 " />
<polyline fill="none" vector-effect="non-scaling-stroke" points="730,641 730,897 " />
<polyline fill="none" vector-effect="non-scaling-stroke" points="743,641 743,897 " />
<polyline fill="none" vector-effect="non-scaling-stroke" points="539,62 539,243 " />
<polyline fill="none" vector-effect="non-scaling-stroke" points="551,62 551,243 " />
<polyline fill="none" vector-effect="non-scaling-stroke" points="1956,62 1956,243 " />
<polyline fill="none" vector-effect="non-scaling-stroke" points="1943,62 1943,243 " />
<polyline fill="none" vector-effect="non-scaling-stroke" points="1067,184 1427,184 " />
<polyline fill="none" vector-effect="non-scaling-stroke" points="1067,197 1427,197 " />
<polyline fill="none" vector-effect="non-scaling-stroke" points="1067,209 1427,209 " />
<polyline fill="none" vector-effect="non-scaling-stroke" points="1139,62 1139,184 " />
<polyline fill="none" vector-effect="non-scaling-stroke" points="1151,62 1151,184 " />
<polyline fill="none" vector-effect="non-scaling-stroke" points="1241,62 1241,184 " />
<polyline fill="none" vector-effect="non-scaling-stroke" points="1254,62 1254,184 " />
<polyline fill="none" vector-effect="non-scaling-stroke" points="1343,62 1343,184 " />
<polyline fill="none" vector-effect="non-scaling-stroke" points="1356,62 1356,184 " />
<polyline fill="none" vector-effect="non-scaling-stroke" points="1415,209 1415,910 " />
<polyline fill="none" vector-effect="non-scaling-stroke" points="1080,209 1080,910 " />
<polyline fill="none" vector-effect="non-scaling-stroke" points="143,260 340,62 " />
<polyline fill="none" vector-effect="non-scaling-stroke" points="143,277 358,62 " />
<polyline fill="none" vector-effect="non-scaling-stroke" points="143,700 340,897 " />
<polyline fill="none" vector-effect="non-scaling-stroke" points="143,682 358,897 " />
<polyline fill="none" vector-effect="non-scaling-stroke" points="2155,897 2352,700 " />
<polyline fill="none" vector-effect="non-scaling-stroke" points="2137,897 2352,682 " />
<polyline fill="none" vector-effect="non-scaling-stroke" points="2137,62 2352,277 " />
<polyline fill="none" vector-effect="non-scaling-stroke" points="834,235 1006,62 " />
<polyline fill="none" vector-effect="non-scaling-stroke" points="834,252 1024,62 " />
<polyline fill="none" vector-effect="non-scaling-stroke" points="834,707 1024,897 " />
<polyline fill="none" vector-effect="non-scaling-stroke" points="834,725 1006,897 " />
<polyline fill="none" vector-effect="non-scaling-stroke" points="1488,62 1660,235 " />
<polyline fill="none" vector-effect="non-scaling-stroke" points="1470,62 1660,252 " />
<polyline fill="none" vector-effect="non-scaling-stroke" points="1470,897 1660,707 " />
<polyline fill="none" vector-effect="non-scaling-stroke" points="1488,897 1660,725 " />
<polyline fill="none" vector-effect="non-scaling-stroke" points="446,268 446,616 " />
<polyline fill="none" vector-effect="non-scaling-stroke" points="2049,268 2049,616 " />
<polyline fill="none" vector-effect="non-scaling-stroke" points="1415,209 1415,910 " />
<polyline fill="none" vector-effect="non-scaling-stroke" points="1080,209 1080,910 " />
<polyline fill="none" vector-effect="non-scaling-stroke" points="408,62 408,310 " />
<polyline fill="none" vector-effect="non-scaling-stroke" points="408,322 408,639 " />
<polyline fill="none" vector-effect="non-scaling-stroke" points="408,62 420,62 " />
<polyline fill="none" vector-effect="non-scaling-stroke" points="408,310 420,310 " />
<polyline fill="none" vector-effect="non-scaling-stroke" points="408,322 420,322 " />
<polyline fill="none" vector-effect="non-scaling-stroke" points="408,639 420,639 " />
<polyline fill="none" vector-effect="non-scaling-stroke" points="420,62 420,641 " />
<polyline fill="none" vector-effect="non-scaling-stroke" points="433,231 539,231 " />
<polyline fill="none" vector-effect="non-scaling-stroke" points="551,231 684,231 " />
<polyline fill="none" vector-effect="non-scaling-stroke" points="696,231 790,231 " />
<polyline fill="none" vector-effect="non-scaling-stroke" points="790,231 790,243 " />
<polyline fill="none" vector-effect="non-scaling-stroke" points="433,654 492,654 " />
<polyline fill="none" vector-effect="non-scaling-stroke" points="505,654 611,654 " />
<polyline fill="none" vector-effect="non-scaling-stroke" points="624,654 730,654 " />
<polyline fill="none" vector-effect="non-scaling-stroke" points="743,654 802,654 " />
<polyline fill="none" vector-effect="non-scaling-stroke" points="696,231 696,243 " />
<polyline fill="none" vector-effect="non-scaling-stroke" points="684,231 684,243 " />
<polyline fill="none" vector-effect="non-scaling-stroke" points="551,231 551,243 " />
<polyline fill="none" vector-effect="non-scaling-stroke" points="539,231 539,243 " />
<polyline fill="none" vector-effect="non-scaling-stroke" points="433,231 433,243 " />
<polyline fill="none" vector-effect="non-scaling-stroke" points="433,641 433,654 " />
<polyline fill="none" vector-effect="non-scaling-stroke" points="492,641 492,654 " />
<polyline fill="none" vector-effect="non-scaling-stroke" points="505,641 505,654 " />
<polyline fill="none" vector-effect="non-scaling-stroke" points="611,641 611,654 " />
<polyline fill="none" vector-effect="non-scaling-stroke" points="624,641 624,654 " />
<polyline fill="none" vector-effect="non-scaling-stroke" points="730,641 730,654 " />
<polyline fill="none" vector-effect="non-scaling-stroke" points="743,641 743,654 " />
<polyline fill="none" vector-effect="non-scaling-stroke" points="802,641 802,654 " />
<polyline fill="none" vector-effect="non-scaling-stroke" points="1055,184 1440,184 " />
<polyline fill="none" vector-effect="non-scaling-stroke" points="1055,209 1440,209 " />
<polyline fill="none" vector-effect="non-scaling-stroke" points="1055,62 1055,910 " />
<polyline fill="none" vector-effect="non-scaling-stroke" points="1440,62 1440,910 " />
<polyline fill="none" vector-effect="non-scaling-stroke" points="1055,910 1080,910 " />
<polyline fill="none" vector-effect="non-scaling-stroke" points="1415,910 1440,910 " />
<polyline fill="none" vector-effect="non-scaling-stroke" points="1042,322 1042,639 " />
<polyline fill="none" vector-effect="non-scaling-stroke" points="1042,62 1042,310 " />
<polyline fill="none" vector-effect="non-scaling-stroke" points="1055,652 1055,897 " />
<polyline fill="none" vector-effect="non-scaling-stroke" points="1042,652 1042,897 " />
<polyline fill="none" vector-effect="non-scaling-stroke" points="1452,652 1452,897 " />
<polyline fill="none" vector-effect="non-scaling-stroke" points="1452,62 1452,310 " />
<polyline fill="none" vector-effect="non-scaling-stroke" points="1452,322 1452,639 " />
<polyline fill="none" vector-effect="non-scaling-stroke" points="1042,62 1055,62 " />
<polyline fill="none" vector-effect="non-scaling-stroke" points="1042,310 1055,310 " />
<polyline fill="none" vector-effect="non-scaling-stroke" points="1042,322 1055,322 " />
<polyline fill="none" vector-effect="non-scaling-stroke" points="1042,639 1055,639 " />
<polyline fill="none" vector-effect="non-scaling-stroke" points="1042,652 1055,652 " />
<polyline fill="none" vector-effect="non-scaling-stroke" points="1042,897 1055,897 " />
<polyline fill="none" vector-effect="non-scaling-stroke" points="1440,897 1452,897 " />
<polyline fill="none" vector-effect="non-scaling-stroke" points="1440,652 1452,652 " />
<polyline fill="none" vector-effect="non-scaling-stroke" points="1440,639 1452,639 " />
<polyline fill="none" vector-effect="non-scaling-stroke" points="1440,322 1452,322 " />
<polyline fill="none" vector-effect="non-scaling-stroke" points="1440,310 1452,310 " />
<polyline fill="none" vector-effect="non-scaling-stroke" points="1440,62 1452,62 " />
<polyline fill="none" vector-effect="non-scaling-stroke" points="1067,172 1139,172 " />
<polyline fill="none" vector-effect="non-scaling-stroke" points="1151,172 1241,172 " />
<polyline fill="none" vector-effect="non-scaling-stroke" points="1254,172 1343,172 " />
<polyline fill="none" vector-effect="non-scaling-stroke" points="1356,172 1427,172 " />
<polyline fill="none" vector-effect="non-scaling-stroke" points="1067,172 1067,184 " />
<polyline fill="none" vector-effect="non-scaling-stroke" points="1139,172 1139,184 " />
<polyline fill="none" vector-effect="non-scaling-stroke" points="1151,172 1151,184 " />
<polyline fill="none" vector-effect="non-scaling-stroke" points="1241,172 1241,184 " />
<polyline fill="none" vector-effect="non-scaling-stroke" points="1254,172 1254,184 " />
<polyline fill="none" vector-effect="non-scaling-stroke" points="1343,172 1343,184 " />
<polyline fill="none" vector-effect="non-scaling-stroke" points="1356,172 1356,184 " />
<polyline fill="none" vector-effect="non-scaling-stroke" points="1427,172 1427,184 " />
<polyline fill="none" vector-effect="non-scaling-stroke" points="1676,82 1676,910 " />
<polyline fill="none" vector-effect="non-scaling-stroke" points="1705,231 1798,231 " />
<polyline fill="none" vector-effect="non-scaling-stroke" points="1811,231 1943,231 " />
<polyline fill="none" vector-effect="non-scaling-stroke" points="1956,231 2062,231 " />
<polyline fill="none" vector-effect="non-scaling-stroke" points="1692,654 1752,654 " />
<polyline fill="none" vector-effect="non-scaling-stroke" points="1764,654 1871,654 " />
<polyline fill="none" vector-effect="non-scaling-stroke" points="1883,654 1990,654 " />
<polyline fill="none" vector-effect="non-scaling-stroke" points="2002,654 2062,654 " />
<polyline fill="none" vector-effect="non-scaling-stroke" points="2087,62 2087,310 " />
<polyline fill="none" vector-effect="non-scaling-stroke" points="2087,322 2087,639 " />
<polyline fill="none" vector-effect="non-scaling-stroke" points="2074,62 2074,641 " />
<polyline fill="none" vector-effect="non-scaling-stroke" points="1705,231 1705,243 " />
<polyline fill="none" vector-effect="non-scaling-stroke" points="1798,231 1798,243 " />
<polyline fill="none" vector-effect="non-scaling-stroke" points="1811,231 1811,243 " />
<polyline fill="none" vector-effect="non-scaling-stroke" points="1943,231 1943,243 " />
<polyline fill="none" vector-effect="non-scaling-stroke" points="1956,231 1956,243 " />
<polyline fill="none" vector-effect="non-scaling-stroke" points="2062,231 2062,243 " />
<polyline fill="none" vector-effect="non-scaling-stroke" points="2062,641 2062,654 " />
<polyline fill="none" vector-effect="non-scaling-stroke" points="2002,641 2002,654 " />
<polyline fill="none" vector-effect="non-scaling-stroke" points="1990,641 1990,654 " />
<polyline fill="none" vector-effect="non-scaling-stroke" points="1883,641 1883,654 " />
<polyline fill="none" vector-effect="non-scaling-stroke" points="1871,641 1871,654 " />
<polyline fill="none" vector-effect="non-scaling-stroke" points="1764,641 1764,654 " />
<polyline fill="none" vector-effect="non-scaling-stroke" points="1752,641 1752,654 " />
<polyline fill="none" vector-effect="non-scaling-stroke" points="1692,641 1692,654 " />
<polyline fill="none" vector-effect="non-scaling-stroke" points="2074,310 2087,310 " />
<polyline fill="none" vector-effect="non-scaling-stroke" points="2074,322 2087,322 " />
<polyline fill="none" vector-effect="non-scaling-stroke" points="2074,639 2087,639 " />
<polyline fill="none" vector-effect="non-scaling-stroke" points="2074,62 2087,62 " />
<polyline fill="none" vector-effect="non-scaling-stroke" points="1055,62 1055,897 " />
<polyline fill="none" vector-effect="non-scaling-stroke" points="790,268 790,616 " />
<polyline fill="none" vector-effect="non-scaling-stroke" points="1705,268 1705,616 " />
<polyline fill="none" vector-effect="non-scaling-stroke" points="790,268 790,616 " />
<polyline fill="none" vector-effect="non-scaling-stroke" points="815,243 815,641 " />
<polyline fill="none" vector-effect="non-scaling-stroke" points="420,243 815,243 " />
<polyline fill="none" vector-effect="non-scaling-stroke" points="420,268 815,268 " />
<polyline fill="none" vector-effect="non-scaling-stroke" points="420,616 815,616 " />
<polyline fill="none" vector-effect="non-scaling-stroke" points="420,641 815,641 " />
<polyline fill="none" vector-effect="non-scaling-stroke" points="1705,268 1705,616 " />
<polyline fill="none" vector-effect="non-scaling-stroke" points="1680,243 1680,641 " />
<polyline fill="none" vector-effect="non-scaling-stroke" points="1680,243 2074,243 " />
<polyline fill="none" vector-effect="non-scaling-stroke" points="1680,268 2074,268 " />
<polyline fill="none" vector-effect="non-scaling-stroke" points="1680,616 2074,616 " />
<polyline fill="none" vector-effect="non-scaling-stroke" points="1680,641 2074,641 " />
<polyline fill="none" vector-effect="non-scaling-stroke" points="2180,62 2352,235 " />
</g>
</g>
</svg>
