<?xml version="1.0" encoding="UTF-8" standalone="no"?>
<svg width="587.375mm" height="673.1mm"
 viewBox="0 0 1665 1908"
 xmlns="http://www.w3.org/2000/svg" xmlns:xlink="http://www.w3.org/1999/xlink"  version="1.2" baseProfile="tiny">
<title>Qt Svg Document</title>
<desc>Generated with Qt</desc>
<defs>
</defs>
<g fill="none" stroke="black" stroke-width="1" fill-rule="evenodd" stroke-linecap="square" stroke-linejoin="bevel" >

<g fill="#ffffff" fill-opacity="1" stroke="none" transform="matrix(1,0,0,1,0,0)"
font-family="Sans Serif" font-size="9" font-weight="400" font-style="normal" 
>
<path vector-effect="non-scaling-stroke" fill-rule="evenodd" d="M0,0 L1665,0 L1665,1908 L0,1908 L0,0"/>
</g>

<g fill="none" stroke="#000000" stroke-opacity="1" stroke-width="1" stroke-linecap="round" stroke-linejoin="round" transform="matrix(1,0,0,1,0,0)"
font-family="Sans Serif" font-size="9" font-weight="400" font-style="normal" 
>
</g>

<g fill="#000000" fill-opacity="1" stroke="none" transform="matrix(1,0,0,1,0,0)"
font-family="Sans Serif" font-size="9" font-weight="400" font-style="normal" 
>
<path vector-effect="non-scaling-stroke" fill-rule="evenodd" d="M196.5,1653 C196.5,1653.28 196.276,1653.5 196,1653.5 C195.724,1653.5 195.5,1653.28 195.5,1653 C195.5,1652.72 195.724,1652.5 196,1652.5 C196.276,1652.5 196.5,1652.72 196.5,1653 "/>
</g>

<g fill="none" stroke="#000000" stroke-opacity="1" stroke-width="1" stroke-linecap="round" stroke-linejoin="round" transform="matrix(1,0,0,1,0,0)"
font-family="Sans Serif" font-size="9" font-weight="400" font-style="normal" 
>
<polyline fill="none" vector-effect="non-scaling-stroke" points="216,1651 227,1662 " />
<polyline fill="none" vector-effect="non-scaling-stroke" points="205,1651 215,1662 " />
<polyline fill="none" vector-effect="non-scaling-stroke" points="196,1653 204,1662 " />
<polyline fill="none" vector-effect="non-scaling-stroke" points="227,1651 238,1662 " />
<polyline fill="none" vector-effect="non-scaling-stroke" points="239,1651 249,1662 " />
<polyline fill="none" vector-effect="non-scaling-stroke" points="250,1651 252,1653 " />
<polyline fill="none" vector-effect="non-scaling-stroke" points="272,1651 283,1662 " />
<polyline fill="none" vector-effect="non-scaling-stroke" points="261,1651 272,1662 " />
<polyline fill="none" vector-effect="non-scaling-stroke" points="252,1653 261,1662 " />
<polyline fill="none" vector-effect="non-scaling-stroke" points="284,1651 294,1662 " />
<polyline fill="none" vector-effect="non-scaling-stroke" points="295,1651 306,1662 " />
<polyline fill="none" vector-effect="non-scaling-stroke" points="306,1651 309,1653 " />
<polyline fill="none" vector-effect="non-scaling-stroke" points="329,1651 340,1662 " />
<polyline fill="none" vector-effect="non-scaling-stroke" points="318,1651 328,1662 " />
<polyline fill="none" vector-effect="non-scaling-stroke" points="309,1653 317,1662 " />
<polyline fill="none" vector-effect="non-scaling-stroke" points="340,1651 351,1662 " />
<polyline fill="none" vector-effect="non-scaling-stroke" points="351,1651 362,1662 " />
<polyline fill="none" vector-effect="non-scaling-stroke" points="363,1651 365,1653 " />
<polyline fill="none" vector-effect="non-scaling-stroke" points="385,1651 396,1662 " />
<polyline fill="none" vector-effect="non-scaling-stroke" points="374,1651 385,1662 " />
<polyline fill="none" vector-effect="non-scaling-stroke" points="365,1653 373,1662 " />
<polyline fill="none" vector-effect="non-scaling-stroke" points="396,1651 407,1662 " />
<polyline fill="none" vector-effect="non-scaling-stroke" points="408,1651 418,1662 " />
<polyline fill="none" vector-effect="non-scaling-stroke" points="419,1651 421,1653 " />
<polyline fill="none" vector-effect="non-scaling-stroke" points="442,1651 452,1662 " />
<polyline fill="none" vector-effect="non-scaling-stroke" points="430,1651 441,1662 " />
<polyline fill="none" vector-effect="non-scaling-stroke" points="421,1653 430,1662 " />
<polyline fill="none" vector-effect="non-scaling-stroke" points="453,1651 464,1662 " />
<polyline fill="none" vector-effect="non-scaling-stroke" points="464,1651 475,1662 " />
<polyline fill="none" vector-effect="non-scaling-stroke" points="475,1651 478,1653 " />
<polyline fill="none" vector-effect="non-scaling-stroke" points="498,1651 509,1662 " />
<polyline fill="none" vector-effect="non-scaling-stroke" points="487,1651 497,1662 " />
<polyline fill="none" vector-effect="non-scaling-stroke" points="478,1653 486,1662 " />
<polyline fill="none" vector-effect="non-scaling-stroke" points="509,1651 520,1662 " />
<polyline fill="none" vector-effect="non-scaling-stroke" points="521,1651 531,1662 " />
<polyline fill="none" vector-effect="non-scaling-stroke" points="532,1651 534,1653 " />
<polyline fill="none" vector-effect="non-scaling-stroke" points="554,1651 565,1662 " />
<polyline fill="none" vector-effect="non-scaling-stroke" points="543,1651 554,1662 " />
<polyline fill="none" vector-effect="non-scaling-stroke" points="534,1653 543,1662 " />
<polyline fill="none" vector-effect="non-scaling-stroke" points="566,1651 576,1662 " />
<polyline fill="none" vector-effect="non-scaling-stroke" points="577,1651 588,1662 " />
<polyline fill="none" vector-effect="non-scaling-stroke" points="588,1651 590,1653 " />
<polyline fill="none" vector-effect="non-scaling-stroke" points="611,1651 622,1662 " />
<polyline fill="none" vector-effect="non-scaling-stroke" points="600,1651 610,1662 " />
<polyline fill="none" vector-effect="non-scaling-stroke" points="590,1653 599,1662 " />
<polyline fill="none" vector-effect="non-scaling-stroke" points="622,1651 633,1662 " />
<polyline fill="none" vector-effect="non-scaling-stroke" points="633,1651 644,1662 " />
<polyline fill="none" vector-effect="non-scaling-stroke" points="645,1651 647,1653 " />
<polyline fill="none" vector-effect="non-scaling-stroke" points="667,1651 678,1662 " />
<polyline fill="none" vector-effect="non-scaling-stroke" points="656,1651 667,1662 " />
<polyline fill="none" vector-effect="non-scaling-stroke" points="647,1653 655,1662 " />
<polyline fill="none" vector-effect="non-scaling-stroke" points="678,1651 689,1662 " />
<polyline fill="none" vector-effect="non-scaling-stroke" points="690,1651 700,1662 " />
<polyline fill="none" vector-effect="non-scaling-stroke" points="701,1651 703,1653 " />
<polyline fill="none" vector-effect="non-scaling-stroke" points="724,1651 734,1662 " />
<polyline fill="none" vector-effect="non-scaling-stroke" points="712,1651 723,1662 " />
<polyline fill="none" vector-effect="non-scaling-stroke" points="703,1653 712,1662 " />
<polyline fill="none" vector-effect="non-scaling-stroke" points="735,1651 746,1662 " />
<polyline fill="none" vector-effect="non-scaling-stroke" points="746,1651 757,1662 " />
<polyline fill="none" vector-effect="non-scaling-stroke" points="757,1651 760,1653 " />
<polyline fill="none" vector-effect="non-scaling-stroke" points="780,1651 791,1662 " />
<polyline fill="none" vector-effect="non-scaling-stroke" points="769,1651 779,1662 " />
<polyline fill="none" vector-effect="non-scaling-stroke" points="760,1653 768,1662 " />
<polyline fill="none" vector-effect="non-scaling-stroke" points="791,1651 802,1662 " />
<polyline fill="none" vector-effect="non-scaling-stroke" points="803,1651 813,1662 " />
<polyline fill="none" vector-effect="non-scaling-stroke" points="814,1651 816,1653 " />
<polyline fill="none" vector-effect="non-scaling-stroke" points="836,1651 847,1662 " />
<polyline fill="none" vector-effect="non-scaling-stroke" points="825,1651 836,1662 " />
<polyline fill="none" vector-effect="non-scaling-stroke" points="816,1653 825,1662 " />
<polyline fill="none" vector-effect="non-scaling-stroke" points="848,1651 858,1662 " />
<polyline fill="none" vector-effect="non-scaling-stroke" points="859,1651 870,1662 " />
<polyline fill="none" vector-effect="non-scaling-stroke" points="870,1651 872,1653 " />
<polyline fill="none" vector-effect="non-scaling-stroke" points="893,1651 903,1662 " />
<polyline fill="none" vector-effect="non-scaling-stroke" points="881,1651 892,1662 " />
<polyline fill="none" vector-effect="non-scaling-stroke" points="872,1653 881,1662 " />
<polyline fill="none" vector-effect="non-scaling-stroke" points="904,1651 915,1662 " />
<polyline fill="none" vector-effect="non-scaling-stroke" points="915,1651 926,1662 " />
<polyline fill="none" vector-effect="non-scaling-stroke" points="927,1651 929,1653 " />
<polyline fill="none" vector-effect="non-scaling-stroke" points="949,1651 960,1662 " />
<polyline fill="none" vector-effect="non-scaling-stroke" points="938,1651 949,1662 " />
<polyline fill="none" vector-effect="non-scaling-stroke" points="929,1653 937,1662 " />
<polyline fill="none" vector-effect="non-scaling-stroke" points="960,1651 971,1662 " />
<polyline fill="none" vector-effect="non-scaling-stroke" points="972,1651 982,1662 " />
<polyline fill="none" vector-effect="non-scaling-stroke" points="983,1651 985,1653 " />
<polyline fill="none" vector-effect="non-scaling-stroke" points="1006,1651 1016,1662 " />
<polyline fill="none" vector-effect="non-scaling-stroke" points="994,1651 1005,1662 " />
<polyline fill="none" vector-effect="non-scaling-stroke" points="985,1653 994,1662 " />
<polyline fill="none" vector-effect="non-scaling-stroke" points="1017,1651 1028,1662 " />
<polyline fill="none" vector-effect="non-scaling-stroke" points="1028,1651 1039,1662 " />
<polyline fill="none" vector-effect="non-scaling-stroke" points="1039,1651 1042,1653 " />
<polyline fill="none" vector-effect="non-scaling-stroke" points="1062,1651 1073,1662 " />
<polyline fill="none" vector-effect="non-scaling-stroke" points="1051,1651 1061,1662 " />
<polyline fill="none" vector-effect="non-scaling-stroke" points="1042,1653 1050,1662 " />
<polyline fill="none" vector-effect="non-scaling-stroke" points="1073,1651 1084,1662 " />
<polyline fill="none" vector-effect="non-scaling-stroke" points="1084,1651 1095,1662 " />
<polyline fill="none" vector-effect="non-scaling-stroke" points="1096,1651 1098,1653 " />
<polyline fill="none" vector-effect="non-scaling-stroke" points="1118,1651 1129,1662 " />
<polyline fill="none" vector-effect="non-scaling-stroke" points="1107,1651 1118,1662 " />
<polyline fill="none" vector-effect="non-scaling-stroke" points="1098,1653 1106,1662 " />
<polyline fill="none" vector-effect="non-scaling-stroke" points="1130,1651 1140,1662 " />
<polyline fill="none" vector-effect="non-scaling-stroke" points="1141,1651 1152,1662 " />
<polyline fill="none" vector-effect="non-scaling-stroke" points="1152,1651 1154,1653 " />
<polyline fill="none" vector-effect="non-scaling-stroke" points="1175,1651 1185,1662 " />
<polyline fill="none" vector-effect="non-scaling-stroke" points="1163,1651 1174,1662 " />
<polyline fill="none" vector-effect="non-scaling-stroke" points="1154,1653 1163,1662 " />
<polyline fill="none" vector-effect="non-scaling-stroke" points="1186,1651 1197,1662 " />
<polyline fill="none" vector-effect="non-scaling-stroke" points="1197,1651 1208,1662 " />
<polyline fill="none" vector-effect="non-scaling-stroke" points="1209,1651 1211,1653 " />
<polyline fill="none" vector-effect="non-scaling-stroke" points="1231,1651 1242,1662 " />
<polyline fill="none" vector-effect="non-scaling-stroke" points="1220,1651 1231,1662 " />
<polyline fill="none" vector-effect="non-scaling-stroke" points="1211,1653 1219,1662 " />
<polyline fill="none" vector-effect="non-scaling-stroke" points="1242,1651 1253,1662 " />
<polyline fill="none" vector-effect="non-scaling-stroke" points="1254,1651 1264,1662 " />
<polyline fill="none" vector-effect="non-scaling-stroke" points="1265,1651 1267,1653 " />
<polyline fill="none" vector-effect="non-scaling-stroke" points="1288,1651 1298,1662 " />
<polyline fill="none" vector-effect="non-scaling-stroke" points="1276,1651 1287,1662 " />
<polyline fill="none" vector-effect="non-scaling-stroke" points="1267,1653 1276,1662 " />
<polyline fill="none" vector-effect="non-scaling-stroke" points="1299,1651 1310,1662 " />
<polyline fill="none" vector-effect="non-scaling-stroke" points="1310,1651 1321,1662 " />
<polyline fill="none" vector-effect="non-scaling-stroke" points="1321,1651 1324,1653 " />
<polyline fill="none" vector-effect="non-scaling-stroke" points="1344,1651 1355,1662 " />
<polyline fill="none" vector-effect="non-scaling-stroke" points="1333,1651 1343,1662 " />
<polyline fill="none" vector-effect="non-scaling-stroke" points="1324,1653 1332,1662 " />
<polyline fill="none" vector-effect="non-scaling-stroke" points="1355,1651 1366,1662 " />
<polyline fill="none" vector-effect="non-scaling-stroke" points="1366,1651 1377,1662 " />
<polyline fill="none" vector-effect="non-scaling-stroke" points="1378,1651 1380,1653 " />
<polyline fill="none" vector-effect="non-scaling-stroke" points="1400,1651 1411,1662 " />
<polyline fill="none" vector-effect="non-scaling-stroke" points="1389,1651 1400,1662 " />
<polyline fill="none" vector-effect="non-scaling-stroke" points="1380,1653 1388,1662 " />
<polyline fill="none" vector-effect="non-scaling-stroke" points="1412,1651 1422,1662 " />
<polyline fill="none" vector-effect="non-scaling-stroke" points="1423,1651 1434,1662 " />
<polyline fill="none" vector-effect="non-scaling-stroke" points="1434,1651 1436,1653 " />
<polyline fill="none" vector-effect="non-scaling-stroke" points="1457,1651 1467,1662 " />
<polyline fill="none" vector-effect="non-scaling-stroke" points="1445,1651 1456,1662 " />
<polyline fill="none" vector-effect="non-scaling-stroke" points="1436,1653 1445,1662 " />
<polyline fill="none" vector-effect="non-scaling-stroke" points="1468,1651 1479,1662 " />
<polyline fill="none" vector-effect="non-scaling-stroke" points="1479,1651 1490,1662 " />
<polyline fill="none" vector-effect="non-scaling-stroke" points="1491,1651 1493,1653 " />
<polyline fill="none" vector-effect="non-scaling-stroke" points="1502,1651 1504,1653 " />
<polyline fill="none" vector-effect="non-scaling-stroke" points="1493,1653 1501,1662 " />
<polyline fill="none" vector-effect="non-scaling-stroke" points="792,1824 816,1800 " />
<polyline fill="none" vector-effect="non-scaling-stroke" points="792,1835 816,1811 " />
<polyline fill="none" vector-effect="non-scaling-stroke" points="792,1847 816,1822 " />
<polyline fill="none" vector-effect="non-scaling-stroke" points="799,1851 816,1834 " />
<polyline fill="none" vector-effect="non-scaling-stroke" points="810,1851 816,1845 " />
<polyline fill="none" vector-effect="non-scaling-stroke" points="792,1813 805,1800 " />
<polyline fill="none" vector-effect="non-scaling-stroke" points="792,1802 794,1800 " />
<polyline fill="none" vector-effect="non-scaling-stroke" points="792,1790 799,1783 " />
<polyline fill="none" vector-effect="non-scaling-stroke" points="794,1800 810,1783 " />
<polyline fill="none" vector-effect="non-scaling-stroke" points="805,1800 816,1789 " />
<polyline fill="none" vector-effect="non-scaling-stroke" points="822,1851 872,1800 " />
<polyline fill="none" vector-effect="non-scaling-stroke" points="833,1851 872,1811 " />
<polyline fill="none" vector-effect="non-scaling-stroke" points="844,1851 872,1822 " />
<polyline fill="none" vector-effect="non-scaling-stroke" points="856,1851 872,1834 " />
<polyline fill="none" vector-effect="non-scaling-stroke" points="867,1851 872,1845 " />
<polyline fill="none" vector-effect="non-scaling-stroke" points="816,1845 861,1800 " />
<polyline fill="none" vector-effect="non-scaling-stroke" points="816,1834 850,1800 " />
<polyline fill="none" vector-effect="non-scaling-stroke" points="816,1822 839,1800 " />
<polyline fill="none" vector-effect="non-scaling-stroke" points="816,1811 827,1800 " />
<polyline fill="none" vector-effect="non-scaling-stroke" points="816,1800 833,1783 " />
<polyline fill="none" vector-effect="non-scaling-stroke" points="827,1800 844,1783 " />
<polyline fill="none" vector-effect="non-scaling-stroke" points="839,1800 856,1783 " />
<polyline fill="none" vector-effect="non-scaling-stroke" points="850,1800 867,1783 " />
<polyline fill="none" vector-effect="non-scaling-stroke" points="861,1800 872,1789 " />
<polyline fill="none" vector-effect="non-scaling-stroke" points="816,1789 822,1783 " />
<polyline fill="none" vector-effect="non-scaling-stroke" points="878,1851 908,1821 " />
<polyline fill="none" vector-effect="non-scaling-stroke" points="889,1851 908,1832 " />
<polyline fill="none" vector-effect="non-scaling-stroke" points="901,1851 908,1843 " />
<polyline fill="none" vector-effect="non-scaling-stroke" points="872,1845 908,1809 " />
<polyline fill="none" vector-effect="non-scaling-stroke" points="872,1834 906,1800 " />
<polyline fill="none" vector-effect="non-scaling-stroke" points="872,1822 895,1800 " />
<polyline fill="none" vector-effect="non-scaling-stroke" points="872,1811 884,1800 " />
<polyline fill="none" vector-effect="non-scaling-stroke" points="872,1800 889,1783 " />
<polyline fill="none" vector-effect="non-scaling-stroke" points="884,1800 901,1783 " />
<polyline fill="none" vector-effect="non-scaling-stroke" points="895,1800 908,1787 " />
<polyline fill="none" vector-effect="non-scaling-stroke" points="906,1800 908,1798 " />
<polyline fill="none" vector-effect="non-scaling-stroke" points="872,1789 878,1783 " />
<polyline fill="none" vector-effect="non-scaling-stroke" points="163,1833 196,1800 " />
<polyline fill="none" vector-effect="non-scaling-stroke" points="163,1844 196,1811 " />
<polyline fill="none" vector-effect="non-scaling-stroke" points="168,1851 196,1822 " />
<polyline fill="none" vector-effect="non-scaling-stroke" points="179,1851 196,1834 " />
<polyline fill="none" vector-effect="non-scaling-stroke" points="190,1851 196,1845 " />
<polyline fill="none" vector-effect="non-scaling-stroke" points="163,1821 184,1800 " />
<polyline fill="none" vector-effect="non-scaling-stroke" points="163,1810 173,1800 " />
<polyline fill="none" vector-effect="non-scaling-stroke" points="163,1787 168,1783 " />
<polyline fill="none" vector-effect="non-scaling-stroke" points="163,1799 179,1783 " />
<polyline fill="none" vector-effect="non-scaling-stroke" points="173,1800 190,1783 " />
<polyline fill="none" vector-effect="non-scaling-stroke" points="184,1800 196,1789 " />
<polyline fill="none" vector-effect="non-scaling-stroke" points="201,1851 252,1800 " />
<polyline fill="none" vector-effect="non-scaling-stroke" points="213,1851 252,1811 " />
<polyline fill="none" vector-effect="non-scaling-stroke" points="224,1851 252,1822 " />
<polyline fill="none" vector-effect="non-scaling-stroke" points="235,1851 252,1834 " />
<polyline fill="none" vector-effect="non-scaling-stroke" points="246,1851 252,1845 " />
<polyline fill="none" vector-effect="non-scaling-stroke" points="196,1845 241,1800 " />
<polyline fill="none" vector-effect="non-scaling-stroke" points="196,1834 230,1800 " />
<polyline fill="none" vector-effect="non-scaling-stroke" points="196,1822 218,1800 " />
<polyline fill="none" vector-effect="non-scaling-stroke" points="196,1811 207,1800 " />
<polyline fill="none" vector-effect="non-scaling-stroke" points="196,1800 213,1783 " />
<polyline fill="none" vector-effect="non-scaling-stroke" points="207,1800 224,1783 " />
<polyline fill="none" vector-effect="non-scaling-stroke" points="218,1800 235,1783 " />
<polyline fill="none" vector-effect="non-scaling-stroke" points="230,1800 246,1783 " />
<polyline fill="none" vector-effect="non-scaling-stroke" points="241,1800 252,1789 " />
<polyline fill="none" vector-effect="non-scaling-stroke" points="196,1789 201,1783 " />
<polyline fill="none" vector-effect="non-scaling-stroke" points="258,1851 279,1829 " />
<polyline fill="none" vector-effect="non-scaling-stroke" points="269,1851 279,1840 " />
<polyline fill="none" vector-effect="non-scaling-stroke" points="252,1845 279,1818 " />
<polyline fill="none" vector-effect="non-scaling-stroke" points="252,1834 279,1807 " />
<polyline fill="none" vector-effect="non-scaling-stroke" points="252,1822 275,1800 " />
<polyline fill="none" vector-effect="non-scaling-stroke" points="252,1811 263,1800 " />
<polyline fill="none" vector-effect="non-scaling-stroke" points="252,1800 269,1783 " />
<polyline fill="none" vector-effect="non-scaling-stroke" points="263,1800 279,1784 " />
<polyline fill="none" vector-effect="non-scaling-stroke" points="275,1800 279,1795 " />
<polyline fill="none" vector-effect="non-scaling-stroke" points="252,1789 258,1783 " />
<polyline fill="none" vector-effect="non-scaling-stroke" points="1421,1816 1436,1800 " />
<polyline fill="none" vector-effect="non-scaling-stroke" points="1421,1827 1436,1811 " />
<polyline fill="none" vector-effect="non-scaling-stroke" points="1421,1838 1436,1822 " />
<polyline fill="none" vector-effect="non-scaling-stroke" points="1421,1849 1436,1834 " />
<polyline fill="none" vector-effect="non-scaling-stroke" points="1431,1851 1436,1845 " />
<polyline fill="none" vector-effect="non-scaling-stroke" points="1421,1804 1425,1800 " />
<polyline fill="none" vector-effect="non-scaling-stroke" points="1421,1793 1431,1783 " />
<polyline fill="none" vector-effect="non-scaling-stroke" points="1425,1800 1436,1789 " />
<polyline fill="none" vector-effect="non-scaling-stroke" points="1442,1851 1493,1800 " />
<polyline fill="none" vector-effect="non-scaling-stroke" points="1453,1851 1493,1811 " />
<polyline fill="none" vector-effect="non-scaling-stroke" points="1465,1851 1493,1822 " />
<polyline fill="none" vector-effect="non-scaling-stroke" points="1476,1851 1493,1834 " />
<polyline fill="none" vector-effect="non-scaling-stroke" points="1487,1851 1493,1845 " />
<polyline fill="none" vector-effect="non-scaling-stroke" points="1436,1845 1482,1800 " />
<polyline fill="none" vector-effect="non-scaling-stroke" points="1436,1834 1470,1800 " />
<polyline fill="none" vector-effect="non-scaling-stroke" points="1436,1822 1459,1800 " />
<polyline fill="none" vector-effect="non-scaling-stroke" points="1436,1811 1448,1800 " />
<polyline fill="none" vector-effect="non-scaling-stroke" points="1436,1800 1453,1783 " />
<polyline fill="none" vector-effect="non-scaling-stroke" points="1448,1800 1465,1783 " />
<polyline fill="none" vector-effect="non-scaling-stroke" points="1459,1800 1476,1783 " />
<polyline fill="none" vector-effect="non-scaling-stroke" points="1470,1800 1487,1783 " />
<polyline fill="none" vector-effect="non-scaling-stroke" points="1482,1800 1493,1789 " />
<polyline fill="none" vector-effect="non-scaling-stroke" points="1436,1789 1442,1783 " />
<polyline fill="none" vector-effect="non-scaling-stroke" points="1498,1851 1537,1812 " />
<polyline fill="none" vector-effect="non-scaling-stroke" points="1510,1851 1537,1824 " />
<polyline fill="none" vector-effect="non-scaling-stroke" points="1521,1851 1537,1835 " />
<polyline fill="none" vector-effect="non-scaling-stroke" points="1532,1851 1537,1846 " />
<polyline fill="none" vector-effect="non-scaling-stroke" points="1493,1845 1537,1801 " />
<polyline fill="none" vector-effect="non-scaling-stroke" points="1493,1834 1527,1800 " />
<polyline fill="none" vector-effect="non-scaling-stroke" points="1493,1822 1515,1800 " />
<polyline fill="none" vector-effect="non-scaling-stroke" points="1493,1811 1504,1800 " />
<polyline fill="none" vector-effect="non-scaling-stroke" points="1493,1800 1510,1783 " />
<polyline fill="none" vector-effect="non-scaling-stroke" points="1504,1800 1521,1783 " />
<polyline fill="none" vector-effect="non-scaling-stroke" points="1515,1800 1532,1783 " />
<polyline fill="none" vector-effect="non-scaling-stroke" points="1527,1800 1537,1790 " />
<polyline fill="none" vector-effect="non-scaling-stroke" points="1493,1789 1498,1783 " />
<polyline fill="none" vector-effect="non-scaling-stroke" points="196,1651 1504,1651 " />
<polyline fill="none" vector-effect="non-scaling-stroke" points="196,1662 1504,1662 " />
<polyline fill="none" vector-effect="non-scaling-stroke" points="1504,1651 1504,1662 " />
<polyline fill="none" vector-effect="non-scaling-stroke" points="196,1687 1504,1687 " />
<polyline fill="none" vector-effect="non-scaling-stroke" points="196,1651 196,1662 " />
<polyline fill="none" vector-effect="non-scaling-stroke" points="196,1662 196,1687 " />
<polyline fill="none" vector-effect="non-scaling-stroke" points="1504,1651 1504,1662 " />
<polyline fill="none" vector-effect="non-scaling-stroke" points="1504,1662 1504,1687 " />
<polyline fill="none" vector-effect="non-scaling-stroke" points="196,1591 1504,1591 " />
<polyline fill="none" vector-effect="non-scaling-stroke" points="196,1602 1504,1602 " />
<polyline fill="none" vector-effect="non-scaling-stroke" points="196,1495 1504,1495 " />
<polyline fill="none" vector-effect="non-scaling-stroke" points="196,1507 1504,1507 " />
<polyline fill="none" vector-effect="non-scaling-stroke" points="196,1399 1504,1399 " />
<polyline fill="none" vector-effect="non-scaling-stroke" points="196,1411 1504,1411 " />
<polyline fill="none" vector-effect="non-scaling-stroke" points="196,1304 1504,1304 " />
<polyline fill="none" vector-effect="non-scaling-stroke" points="196,1315 1504,1315 " />
<polyline fill="none" vector-effect="non-scaling-stroke" points="196,1219 1504,1219 " />
<polyline fill="none" vector-effect="non-scaling-stroke" points="196,632 1504,632 " />
<polyline fill="none" vector-effect="non-scaling-stroke" points="196,537 1504,537 " />
<polyline fill="none" vector-effect="non-scaling-stroke" points="196,548 1504,548 " />
<polyline fill="none" vector-effect="non-scaling-stroke" points="196,441 1504,441 " />
<polyline fill="none" vector-effect="non-scaling-stroke" points="196,452 1504,452 " />
<polyline fill="none" vector-effect="non-scaling-stroke" points="307,1681 309,1681 " />
<polyline fill="none" vector-effect="non-scaling-stroke" points="359,1681 360,1681 " />
<polyline fill="none" vector-effect="non-scaling-stroke" points="334,1687 309,1687 " />
<polyline fill="none" vector-effect="non-scaling-stroke" points="359,1687 334,1687 " />
<polyline fill="none" vector-effect="non-scaling-stroke" points="823,1681 825,1681 " />
<polyline fill="none" vector-effect="non-scaling-stroke" points="875,1681 876,1681 " />
<polyline fill="none" vector-effect="non-scaling-stroke" points="850,1687 825,1687 " />
<polyline fill="none" vector-effect="non-scaling-stroke" points="875,1687 850,1687 " />
<polyline fill="none" vector-effect="non-scaling-stroke" points="1339,1681 1341,1681 " />
<polyline fill="none" vector-effect="non-scaling-stroke" points="1391,1681 1392,1681 " />
<polyline fill="none" vector-effect="non-scaling-stroke" points="1366,1687 1341,1687 " />
<polyline fill="none" vector-effect="non-scaling-stroke" points="1391,1687 1366,1687 " />
<polyline fill="none" vector-effect="non-scaling-stroke" points="792,1783 908,1783 " />
<polyline fill="none" vector-effect="non-scaling-stroke" points="792,1783 908,1783 " />
<polyline fill="none" vector-effect="non-scaling-stroke" points="196,1208 1504,1208 " />
<polyline fill="none" vector-effect="non-scaling-stroke" points="196,644 1504,644 " />
<polyline fill="none" vector-effect="non-scaling-stroke" points="196,1112 1504,1112 " />
<polyline fill="none" vector-effect="non-scaling-stroke" points="196,1123 1504,1123 " />
<polyline fill="none" vector-effect="non-scaling-stroke" points="196,1016 1504,1016 " />
<polyline fill="none" vector-effect="non-scaling-stroke" points="196,1027 1504,1027 " />
<polyline fill="none" vector-effect="non-scaling-stroke" points="196,931 1504,931 " />
<polyline fill="none" vector-effect="non-scaling-stroke" points="196,920 1504,920 " />
<polyline fill="none" vector-effect="non-scaling-stroke" points="196,824 1504,824 " />
<polyline fill="none" vector-effect="non-scaling-stroke" points="196,836 1504,836 " />
<polyline fill="none" vector-effect="non-scaling-stroke" points="196,740 1504,740 " />
<polyline fill="none" vector-effect="non-scaling-stroke" points="196,728 1504,728 " />
<polyline fill="none" vector-effect="non-scaling-stroke" points="196,1662 196,1653 " />
<polyline fill="none" vector-effect="non-scaling-stroke" points="221,1739 221,1783 " />
<polyline fill="none" vector-effect="non-scaling-stroke" points="163,1783 279,1783 " />
<polyline fill="none" vector-effect="non-scaling-stroke" points="163,1783 279,1783 " />
<polyline fill="none" vector-effect="non-scaling-stroke" points="1421,1783 1537,1783 " />
<polyline fill="none" vector-effect="non-scaling-stroke" points="1421,1783 1537,1783 " />
<polyline fill="none" vector-effect="non-scaling-stroke" points="196,298 1504,298 " />
<polyline fill="none" vector-effect="non-scaling-stroke" points="196,345 1504,345 " />
<polyline fill="none" vector-effect="non-scaling-stroke" points="196,356 1504,356 " />
<polyline fill="none" vector-effect="non-scaling-stroke" points="196,298 196,1651 " />
<polyline fill="none" vector-effect="non-scaling-stroke" points="1504,298 1504,1651 " />
<polyline fill="none" vector-effect="non-scaling-stroke" points="196,123 196,298 " />
<polyline fill="none" vector-effect="non-scaling-stroke" points="218,126 218,298 " />
<polyline fill="none" vector-effect="non-scaling-stroke" points="241,129 241,298 " />
<polyline fill="none" vector-effect="non-scaling-stroke" points="286,135 286,298 " />
<polyline fill="none" vector-effect="non-scaling-stroke" points="263,132 263,298 " />
<polyline fill="none" vector-effect="non-scaling-stroke" points="309,138 309,298 " />
<polyline fill="none" vector-effect="non-scaling-stroke" points="331,141 331,298 " />
<polyline fill="none" vector-effect="non-scaling-stroke" points="354,144 354,298 " />
<polyline fill="none" vector-effect="non-scaling-stroke" points="376,147 376,298 " />
<polyline fill="none" vector-effect="non-scaling-stroke" points="399,150 399,298 " />
<polyline fill="none" vector-effect="non-scaling-stroke" points="421,153 421,298 " />
<polyline fill="none" vector-effect="non-scaling-stroke" points="444,156 444,298 " />
<polyline fill="none" vector-effect="non-scaling-stroke" points="466,159 466,298 " />
<polyline fill="none" vector-effect="non-scaling-stroke" points="489,162 489,298 " />
<polyline fill="none" vector-effect="non-scaling-stroke" points="534,168 534,298 " />
<polyline fill="none" vector-effect="non-scaling-stroke" points="512,165 512,298 " />
<polyline fill="none" vector-effect="non-scaling-stroke" points="557,171 557,298 " />
<polyline fill="none" vector-effect="non-scaling-stroke" points="579,174 579,298 " />
<polyline fill="none" vector-effect="non-scaling-stroke" points="602,177 602,298 " />
<polyline fill="none" vector-effect="non-scaling-stroke" points="624,180 624,298 " />
<polyline fill="none" vector-effect="non-scaling-stroke" points="647,183 647,298 " />
<polyline fill="none" vector-effect="non-scaling-stroke" points="669,186 669,298 " />
<polyline fill="none" vector-effect="non-scaling-stroke" points="715,192 715,298 " />
<polyline fill="none" vector-effect="non-scaling-stroke" points="692,189 692,298 " />
<polyline fill="none" vector-effect="non-scaling-stroke" points="737,195 737,298 " />
<polyline fill="none" vector-effect="non-scaling-stroke" points="782,201 782,298 " />
<polyline fill="none" vector-effect="non-scaling-stroke" points="760,198 760,298 " />
<polyline fill="none" vector-effect="non-scaling-stroke" points="805,204 805,298 " />
<polyline fill="none" vector-effect="non-scaling-stroke" points="827,207 827,298 " />
<polyline fill="none" vector-effect="non-scaling-stroke" points="850,210 850,298 " />
<polyline fill="none" vector-effect="non-scaling-stroke" points="895,216 895,298 " />
<polyline fill="none" vector-effect="non-scaling-stroke" points="872,213 872,298 " />
<polyline fill="none" vector-effect="non-scaling-stroke" points="918,219 918,298 " />
<polyline fill="none" vector-effect="non-scaling-stroke" points="940,222 940,298 " />
<polyline fill="none" vector-effect="non-scaling-stroke" points="963,225 963,298 " />
<polyline fill="none" vector-effect="non-scaling-stroke" points="985,228 985,298 " />
<polyline fill="none" vector-effect="non-scaling-stroke" points="1030,234 1030,298 " />
<polyline fill="none" vector-effect="non-scaling-stroke" points="1008,231 1008,298 " />
<polyline fill="none" vector-effect="non-scaling-stroke" points="1053,237 1053,298 " />
<polyline fill="none" vector-effect="non-scaling-stroke" points="1075,240 1075,298 " />
<polyline fill="none" vector-effect="non-scaling-stroke" points="1098,243 1098,298 " />
<polyline fill="none" vector-effect="non-scaling-stroke" points="1121,246 1121,298 " />
<polyline fill="none" vector-effect="non-scaling-stroke" points="1143,249 1143,298 " />
<polyline fill="none" vector-effect="non-scaling-stroke" points="1166,252 1166,298 " />
<polyline fill="none" vector-effect="non-scaling-stroke" points="1188,255 1188,298 " />
<polyline fill="none" vector-effect="non-scaling-stroke" points="1211,258 1211,298 " />
<polyline fill="none" vector-effect="non-scaling-stroke" points="1256,264 1256,298 " />
<polyline fill="none" vector-effect="non-scaling-stroke" points="1278,267 1278,298 " />
<polyline fill="none" vector-effect="non-scaling-stroke" points="1233,261 1233,298 " />
<polyline fill="none" vector-effect="non-scaling-stroke" points="1301,270 1301,298 " />
<polyline fill="none" vector-effect="non-scaling-stroke" points="1324,273 1324,298 " />
<polyline fill="none" vector-effect="non-scaling-stroke" points="1346,276 1346,298 " />
<polyline fill="none" vector-effect="non-scaling-stroke" points="1369,279 1369,298 " />
<polyline fill="none" vector-effect="non-scaling-stroke" points="1391,282 1391,298 " />
<polyline fill="none" vector-effect="non-scaling-stroke" points="1414,285 1414,298 " />
<polyline fill="none" vector-effect="non-scaling-stroke" points="1436,288 1436,298 " />
<polyline fill="none" vector-effect="non-scaling-stroke" points="1459,291 1459,298 " />
<polyline fill="none" vector-effect="non-scaling-stroke" points="51,63 1616,273 " />
<polyline fill="none" vector-effect="non-scaling-stroke" points="51,102 1616,312 " />
<polyline fill="none" vector-effect="non-scaling-stroke" points="1616,273 1616,312 " />
<polyline fill="none" vector-effect="non-scaling-stroke" points="51,63 51,102 " />
<polyline fill="none" vector-effect="non-scaling-stroke" points="51,57 1616,267 " />
<polyline fill="none" vector-effect="non-scaling-stroke" points="196,1701 1504,1701 " />
<polyline fill="none" vector-effect="non-scaling-stroke" points="823,1753 823,1696 " />
<polyline fill="none" vector-effect="non-scaling-stroke" points="875,1753 823,1753 " />
<polyline fill="none" vector-effect="non-scaling-stroke" points="876,1696 876,1753 " />
<polyline fill="none" vector-effect="non-scaling-stroke" points="823,1696 825,1696 " />
<polyline fill="none" vector-effect="non-scaling-stroke" points="875,1696 876,1696 " />
<polyline fill="none" vector-effect="non-scaling-stroke" points="875,1753 876,1753 " />
<polyline fill="none" vector-effect="non-scaling-stroke" points="875,1696 875,1752 " />
<polyline fill="none" vector-effect="non-scaling-stroke" points="825,1752 825,1696 " />
<polyline fill="none" vector-effect="non-scaling-stroke" points="875,1752 825,1752 " />
<polyline fill="none" vector-effect="non-scaling-stroke" points="825,1752 850,1752 " />
<polyline fill="none" vector-effect="non-scaling-stroke" points="850,1752 850,1701 " />
<polyline fill="none" vector-effect="non-scaling-stroke" points="850,1701 825,1701 " />
<polyline fill="none" vector-effect="non-scaling-stroke" points="825,1701 825,1752 " />
<polyline fill="none" vector-effect="non-scaling-stroke" points="850,1752 875,1752 " />
<polyline fill="none" vector-effect="non-scaling-stroke" points="875,1752 875,1701 " />
<polyline fill="none" vector-effect="non-scaling-stroke" points="875,1701 850,1701 " />
<polyline fill="none" vector-effect="non-scaling-stroke" points="850,1701 850,1752 " />
<polyline fill="none" vector-effect="non-scaling-stroke" points="825,1701 850,1752 " />
<polyline fill="none" vector-effect="non-scaling-stroke" points="850,1701 825,1752 " />
<polyline fill="none" vector-effect="non-scaling-stroke" points="850,1701 875,1752 " />
<polyline fill="none" vector-effect="non-scaling-stroke" points="850,1752 875,1701 " />
<polyline fill="none" vector-effect="non-scaling-stroke" points="195,1753 195,1696 " />
<polyline fill="none" vector-effect="non-scaling-stroke" points="246,1753 195,1753 " />
<polyline fill="none" vector-effect="non-scaling-stroke" points="248,1696 248,1753 " />
<polyline fill="none" vector-effect="non-scaling-stroke" points="195,1696 196,1696 " />
<polyline fill="none" vector-effect="non-scaling-stroke" points="246,1696 248,1696 " />
<polyline fill="none" vector-effect="non-scaling-stroke" points="246,1753 248,1753 " />
<polyline fill="none" vector-effect="non-scaling-stroke" points="246,1696 246,1752 " />
<polyline fill="none" vector-effect="non-scaling-stroke" points="196,1752 196,1696 " />
<polyline fill="none" vector-effect="non-scaling-stroke" points="246,1752 196,1752 " />
<polyline fill="none" vector-effect="non-scaling-stroke" points="196,1752 221,1752 " />
<polyline fill="none" vector-effect="non-scaling-stroke" points="221,1752 221,1701 " />
<polyline fill="none" vector-effect="non-scaling-stroke" points="221,1701 196,1701 " />
<polyline fill="none" vector-effect="non-scaling-stroke" points="196,1701 196,1752 " />
<polyline fill="none" vector-effect="non-scaling-stroke" points="221,1752 246,1752 " />
<polyline fill="none" vector-effect="non-scaling-stroke" points="246,1752 246,1701 " />
<polyline fill="none" vector-effect="non-scaling-stroke" points="246,1701 221,1701 " />
<polyline fill="none" vector-effect="non-scaling-stroke" points="221,1701 221,1752 " />
<polyline fill="none" vector-effect="non-scaling-stroke" points="196,1701 221,1752 " />
<polyline fill="none" vector-effect="non-scaling-stroke" points="221,1701 196,1752 " />
<polyline fill="none" vector-effect="non-scaling-stroke" points="221,1701 246,1752 " />
<polyline fill="none" vector-effect="non-scaling-stroke" points="221,1752 246,1701 " />
<polyline fill="none" vector-effect="non-scaling-stroke" points="1452,1753 1452,1696 " />
<polyline fill="none" vector-effect="non-scaling-stroke" points="1504,1753 1452,1753 " />
<polyline fill="none" vector-effect="non-scaling-stroke" points="1505,1696 1505,1753 " />
<polyline fill="none" vector-effect="non-scaling-stroke" points="1452,1696 1453,1696 " />
<polyline fill="none" vector-effect="non-scaling-stroke" points="1504,1696 1505,1696 " />
<polyline fill="none" vector-effect="non-scaling-stroke" points="1504,1753 1505,1753 " />
<polyline fill="none" vector-effect="non-scaling-stroke" points="1504,1696 1504,1752 " />
<polyline fill="none" vector-effect="non-scaling-stroke" points="1453,1752 1453,1696 " />
<polyline fill="none" vector-effect="non-scaling-stroke" points="1504,1752 1453,1752 " />
<polyline fill="none" vector-effect="non-scaling-stroke" points="1453,1752 1479,1752 " />
<polyline fill="none" vector-effect="non-scaling-stroke" points="1479,1752 1479,1701 " />
<polyline fill="none" vector-effect="non-scaling-stroke" points="1479,1701 1453,1701 " />
<polyline fill="none" vector-effect="non-scaling-stroke" points="1453,1701 1453,1752 " />
<polyline fill="none" vector-effect="non-scaling-stroke" points="1479,1752 1504,1752 " />
<polyline fill="none" vector-effect="non-scaling-stroke" points="1504,1752 1504,1701 " />
<polyline fill="none" vector-effect="non-scaling-stroke" points="1504,1701 1479,1701 " />
<polyline fill="none" vector-effect="non-scaling-stroke" points="1479,1701 1479,1752 " />
<polyline fill="none" vector-effect="non-scaling-stroke" points="1453,1701 1479,1752 " />
<polyline fill="none" vector-effect="non-scaling-stroke" points="1479,1701 1453,1752 " />
<polyline fill="none" vector-effect="non-scaling-stroke" points="1479,1701 1504,1752 " />
<polyline fill="none" vector-effect="non-scaling-stroke" points="1479,1752 1504,1701 " />
<polyline fill="none" vector-effect="non-scaling-stroke" points="219,1753 219,1783 " />
<polyline fill="none" vector-effect="non-scaling-stroke" points="223,1753 223,1783 " />
<polyline fill="none" vector-effect="non-scaling-stroke" points="196,1651 196,1701 " />
<polyline fill="none" vector-effect="non-scaling-stroke" points="848,1753 848,1783 " />
<polyline fill="none" vector-effect="non-scaling-stroke" points="850,1753 850,1783 " />
<polyline fill="none" vector-effect="non-scaling-stroke" points="852,1753 852,1783 " />
<polyline fill="none" vector-effect="non-scaling-stroke" points="1477,1753 1477,1783 " />
<polyline fill="none" vector-effect="non-scaling-stroke" points="1479,1753 1479,1783 " />
<polyline fill="none" vector-effect="non-scaling-stroke" points="1480,1753 1480,1783 " />
<polyline fill="none" vector-effect="non-scaling-stroke" points="1504,1662 1504,1701 " />
</g>
</g>
</svg>
