999
dxfrw 0.5.11
0
SECTION
2
HEADER
9
$ACADVER
1
AC1021
9
$HANDSEED
5
20000
9
$DWGCODEPAGE
3
ANSI_1252
9
$INSBASE
10
0
20
0
30
0
9
$EXTMIN
10
10000000000
20
10000000000
30
0
9
$EXTMAX
10
-10000000000
20
-10000000000
30
0
9
$LIMMIN
10
0
20
0
9
$LIMMAX
10
420
20
297
9
$ORTHOMODE
70
0
9
$LTSCALE
40
1
9
$TEXTSTYLE
7
STANDARD
9
$CLAYER
8
Dimension
9
$DIMASZ
40
48
9
$DIMLFAC
40
1
9
$DIMSCALE
40
1
9
$DIMEXO
40
50
9
$DIMEXE
40
16
9
$DIMTXT
40
48
9
$DIMTSZ
40
0
9
$DIMAUNIT
70
0
9
$DIMADEC
70
2
9
$DIMLUNIT
70
2
9
$DIMSTYLE
2
STANDARD
9
$DIMGAP
40
20
9
$DIMTIH
70
0
9
$LUNITS
70
2
9
$LUPREC
70
4
9
$AUNITS
70
0
9
$AUPREC
70
2
9
$SPLINESEGS
70
8
9
$GRIDMODE
70
1
9
$SNAPSTYLE
70
0
9
$GRIDUNIT
10
0
20
0
9
$PINSBASE
10
0
20
0
30
0
9
$PLIMMIN
10
0
20
0
9
$PLIMMAX
10
297
20
210
9
$INSUNITS
70
4
9
$PSVPSCALE
40
1
0
ENDSEC
0
SECTION
2
CLASSES
0
ENDSEC
0
SECTION
2
TABLES
0
TABLE
2
VPORT
5
8
330
0
100
AcDbSymbolTable
70
1
0
VPORT
5
31
330
2
100
AcDbSymbolTableRecord
100
AcDbViewportTableRecord
2
*ACTIVE
70
0
10
0
20
0
11
1
21
1
12
4096.50256962
22
2337.2938519
13
0
23
0
14
10
24
10
15
10
25
10
16
0
26
0
36
1
17
0
27
0
37
0
40
4857.57868154
41
2.67636986301
42
50
43
0
44
0
50
0
51
0
71
0
72
100
73
1
74
3
75
0
76
1
77
0
78
0
281
0
65
1
110
0
120
0
130
0
111
1
121
0
131
0
112
0
122
1
132
0
79
0
146
0
348
10020
60
7
61
5
292
1
282
1
141
0
142
0
63
250
421
3358443
0
ENDTAB
0
TABLE
2
LTYPE
5
5
330
0
100
AcDbSymbolTable
70
4
0
LTYPE
5
14
330
5
100
AcDbSymbolTableRecord
100
AcDbLinetypeTableRecord
2
ByBlock
70
0
3

72
65
73
0
40
0
0
LTYPE
5
15
330
5
100
AcDbSymbolTableRecord
100
AcDbLinetypeTableRecord
2
ByLayer
70
0
3

72
65
73
0
40
0
0
LTYPE
5
16
330
5
100
AcDbSymbolTableRecord
100
AcDbLinetypeTableRecord
2
Continuous
70
0
3
Solid line
72
65
73
0
40
0
0
LTYPE
5
32
330
5
100
AcDbSymbolTableRecord
100
AcDbLinetypeTableRecord
2
DOT
70
0
3
Dot . . . . . . . . . . . . . . . . . . . . . .
72
65
73
2
40
6.35
49
0
74
0
49
-6.35
74
0
0
LTYPE
5
33
330
5
100
AcDbSymbolTableRecord
100
AcDbLinetypeTableRecord
2
DOT2
70
0
3
Dot (.5x) .....................................
72
65
73
2
40
3.175
49
0
74
0
49
-3.175
74
0
0
LTYPE
5
34
330
5
100
AcDbSymbolTableRecord
100
AcDbLinetypeTableRecord
2
DOTX2
70
0
3
Dot (2x) .  .  .  .  .  .  .  .  .  .  .  .  .
72
65
73
2
40
12.7
49
0
74
0
49
-12.7
74
0
0
LTYPE
5
35
330
5
100
AcDbSymbolTableRecord
100
AcDbLinetypeTableRecord
2
DASHED
70
0
3
Dot . . . . . . . . . . . . . . . . . . . . . .
72
65
73
2
40
19.05
49
12.7
74
0
49
-6.35
74
0
0
LTYPE
5
36
330
5
100
AcDbSymbolTableRecord
100
AcDbLinetypeTableRecord
2
DASHED2
70
0
3
Dashed (.5x) _ _ _ _ _ _ _ _ _ _ _ _ _ _ _ _ _
72
65
73
2
40
9.525
49
6.35
74
0
49
-3.175
74
0
0
LTYPE
5
37
330
5
100
AcDbSymbolTableRecord
100
AcDbLinetypeTableRecord
2
DASHEDX2
70
0
3
Dashed (2x) ____  ____  ____  ____  ____  ___
72
65
73
2
40
38.1
49
25.4
74
0
49
-12.7
74
0
0
LTYPE
5
38
330
5
100
AcDbSymbolTableRecord
100
AcDbLinetypeTableRecord
2
DASHDOT
70
0
3
Dash dot __ . __ . __ . __ . __ . __ . __ . __
72
65
73
4
40
25.4
49
12.7
74
0
49
-6.35
74
0
49
0
74
0
49
-6.35
74
0
0
LTYPE
5
39
330
5
100
AcDbSymbolTableRecord
100
AcDbLinetypeTableRecord
2
DASHDOT2
70
0
3
Dash dot (.5x) _._._._._._._._._._._._._._._.
72
65
73
4
40
12.7
49
6.35
74
0
49
-3.175
74
0
49
0
74
0
49
-3.175
74
0
0
LTYPE
5
3A
330
5
100
AcDbSymbolTableRecord
100
AcDbLinetypeTableRecord
2
DASHDOTX2
70
0
3
Dash dot (2x) ____  .  ____  .  ____  .  ___
72
65
73
4
40
50.8
49
25.4
74
0
49
-12.7
74
0
49
0
74
0
49
-12.7
74
0
0
LTYPE
5
3B
330
5
100
AcDbSymbolTableRecord
100
AcDbLinetypeTableRecord
2
DIVIDE
70
0
3
Divide ____ . . ____ . . ____ . . ____ . . ____
72
65
73
6
40
31.75
49
12.7
74
0
49
-6.35
74
0
49
0
74
0
49
-6.35
74
0
49
0
74
0
49
-6.35
74
0
0
LTYPE
5
3C
330
5
100
AcDbSymbolTableRecord
100
AcDbLinetypeTableRecord
2
DIVIDE2
70
0
3
Divide (.5x) __..__..__..__..__..__..__..__.._
72
65
73
6
40
15.875
49
6.35
74
0
49
-3.175
74
0
49
0
74
0
49
-3.175
74
0
49
0
74
0
49
-3.175
74
0
0
LTYPE
5
3D
330
5
100
AcDbSymbolTableRecord
100
AcDbLinetypeTableRecord
2
DIVIDEX2
70
0
3
Divide (2x) ________  .  .  ________  .  .  _
72
65
73
6
40
63.5
49
25.4
74
0
49
-12.7
74
0
49
0
74
0
49
-12.7
74
0
49
0
74
0
49
-12.7
74
0
0
LTYPE
5
3E
330
5
100
AcDbSymbolTableRecord
100
AcDbLinetypeTableRecord
2
BORDER
70
0
3
Border __ __ . __ __ . __ __ . __ __ . __ __ .
72
65
73
6
40
44.45
49
12.7
74
0
49
-6.35
74
0
49
12.7
74
0
49
-6.35
74
0
49
0
74
0
49
-6.35
74
0
0
LTYPE
5
3F
330
5
100
AcDbSymbolTableRecord
100
AcDbLinetypeTableRecord
2
BORDER2
70
0
3
Border (.5x) __.__.__.__.__.__.__.__.__.__.__.
72
65
73
6
40
22.225
49
6.35
74
0
49
-3.175
74
0
49
6.35
74
0
49
-3.175
74
0
49
0
74
0
49
-3.175
74
0
0
LTYPE
5
40
330
5
100
AcDbSymbolTableRecord
100
AcDbLinetypeTableRecord
2
BORDERX2
70
0
3
Border (2x) ____  ____  .  ____  ____  .  ___
72
65
73
6
40
88.9
49
25.4
74
0
49
-12.7
74
0
49
25.4
74
0
49
-12.7
74
0
49
0
74
0
49
-12.7
74
0
0
LTYPE
5
41
330
5
100
AcDbSymbolTableRecord
100
AcDbLinetypeTableRecord
2
CENTER
70
0
3
Center ____ _ ____ _ ____ _ ____ _ ____ _ ____
72
65
73
4
40
50.8
49
31.75
74
0
49
-6.35
74
0
49
6.35
74
0
49
-6.35
74
0
0
LTYPE
5
42
330
5
100
AcDbSymbolTableRecord
100
AcDbLinetypeTableRecord
2
CENTER2
70
0
3
Center (.5x) ___ _ ___ _ ___ _ ___ _ ___ _ ___
72
65
73
4
40
28.575
49
19.05
74
0
49
-3.175
74
0
49
3.175
74
0
49
-3.175
74
0
0
LTYPE
5
43
330
5
100
AcDbSymbolTableRecord
100
AcDbLinetypeTableRecord
2
CENTERX2
70
0
3
Center (2x) ________  __  ________  __  _____
72
65
73
4
40
101.6
49
63.5
74
0
49
-12.7
74
0
49
12.7
74
0
49
-12.7
74
0
0
ENDTAB
0
TABLE
2
LAYER
5
2
330
0
100
AcDbSymbolTable
70
1
0
LAYER
5
10
330
2
100
AcDbSymbolTableRecord
100
AcDbLayerTableRecord
2
0
70
0
62
7
6
CONTINUOUS
370
0
390
F
0
LAYER
5
44
330
2
100
AcDbSymbolTableRecord
100
AcDbLayerTableRecord
2
Foundation
70
0
62
7
6
CONTINUOUS
370
35
390
F
0
LAYER
5
45
330
2
100
AcDbSymbolTableRecord
100
AcDbLayerTableRecord
2
Dimension
70
0
62
4
6
CONTINUOUS
370
13
390
F
0
ENDTAB
0
TABLE
2
STYLE
5
3
330
0
100
AcDbSymbolTable
70
3
0
STYLE
5
46
330
2
100
AcDbSymbolTableRecord
100
AcDbTextStyleTableRecord
2
normal#0.500000#0.900000
70
0
40
0
41
1
50
0
71
0
42
1
3
normal#0.500000#0.900000
4

0
STYLE
5
47
330
2
100
AcDbSymbolTableRecord
100
AcDbTextStyleTableRecord
2
standard
70
0
40
0
41
1
50
0
71
0
42
1
3
standard
4

0
STYLE
5
48
330
2
100
AcDbSymbolTableRecord
100
AcDbTextStyleTableRecord
2
iso
70
0
40
0
41
1
50
0
71
0
42
1
3
iso
4

0
ENDTAB
0
TABLE
2
VIEW
5
6
330
0
100
AcDbSymbolTable
70
0
0
ENDTAB
0
TABLE
2
UCS
5
7
330
0
100
AcDbSymbolTable
70
0
0
ENDTAB
0
TABLE
2
APPID
5
9
330
0
100
AcDbSymbolTable
70
1
0
APPID
5
12
330
9
100
AcDbSymbolTableRecord
100
AcDbRegAppTableRecord
2
ACAD
70
0
0
ENDTAB
0
TABLE
2
DIMSTYLE
5
A
330
0
100
AcDbSymbolTable
70
1
100
AcDbDimStyleTable
71
1
0
DIMSTYLE
105
49
330
A
100
AcDbSymbolTableRecord
100
AcDbDimStyleTableRecord
2
Standard
70
0
40
1
41
48
42
50
43
0.38
44
16
45
0
46
0
47
0
48
0
140
48
141
0.09
142
0
143
25.4
144
1
145
0
146
1
147
20
148
0
71
0
72
0
73
0
74
1
75
0
76
0
77
0
78
0
79
0
170
0
171
2
172
0
173
0
174
0
175
0
176
0
177
0
178
0
179
0
271
4
272
4
273
2
274
2
275
0
276
0
277
2
278
46
279
0
280
0
281
0
282
0
283
1
284
0
285
0
286
0
288
0
289
3
340
Standard
341

371
-2
372
-2
0
ENDTAB
0
TABLE
2
BLOCK_RECORD
5
1
330
0
100
AcDbSymbolTable
70
2
0
BLOCK_RECORD
5
1F
330
1
100
AcDbSymbolTableRecord
100
AcDbBlockTableRecord
2
*Model_Space
70
0
280
1
281
0
0
BLOCK_RECORD
5
1E
330
1
100
AcDbSymbolTableRecord
100
AcDbBlockTableRecord
2
*Paper_Space
70
0
280
1
281
0
0
BLOCK_RECORD
5
4A
330
1
100
AcDbSymbolTableRecord
100
AcDbBlockTableRecord
2
*D4
70
0
280
1
281
0
0
BLOCK_RECORD
5
4D
330
1
100
AcDbSymbolTableRecord
100
AcDbBlockTableRecord
2
*D2
70
0
280
1
281
0
0
BLOCK_RECORD
5
50
330
1
100
AcDbSymbolTableRecord
100
AcDbBlockTableRecord
2
*D3
70
0
280
1
281
0
0
BLOCK_RECORD
5
53
330
1
100
AcDbSymbolTableRecord
100
AcDbBlockTableRecord
2
*D1
70
0
280
1
281
0
0
BLOCK_RECORD
5
56
330
1
100
AcDbSymbolTableRecord
100
AcDbBlockTableRecord
2
a3-0
70
0
280
1
281
0
0
BLOCK_RECORD
5
59
330
1
100
AcDbSymbolTableRecord
100
AcDbBlockTableRecord
2
A3_Xu-0
70
0
280
1
281
0
0
ENDTAB
0
ENDSEC
0
SECTION
2
BLOCKS
0
BLOCK
5
20
330
1F
100
AcDbEntity
8
0
100
AcDbBlockBegin
2
*Model_Space
70
0
10
0
20
0
30
0
3
*Model_Space
1

0
ENDBLK
5
21
330
1F
100
AcDbEntity
8
0
100
AcDbBlockEnd
0
BLOCK
5
1C
330
1B
100
AcDbEntity
8
0
100
AcDbBlockBegin
2
*Paper_Space
70
0
10
0
20
0
30
0
3
*Paper_Space
1

0
ENDBLK
5
1D
330
1F
100
AcDbEntity
8
0
100
AcDbBlockEnd
0
BLOCK
5
4B
330
4A
100
AcDbEntity
8
0
100
AcDbBlockBegin
2
*D4
70
1
10
0
20
0
3
*D4
1

0
LINE
5
5C
100
AcDbEntity
8
Dimension
6
CONTINUOUS
62
7
370
0
100
AcDbLine
10
2360
20
600
11
3475
21
600
0
SOLID
5
5D
100
AcDbEntity
8
Dimension
6
CONTINUOUS
62
7
370
0
100
AcDbTrace
10
2360
20
600
30
0
11
2408
21
607.992665429
31
0
12
2408
22
592.007334571
32
0
13
2408
23
592.007334571
33
0
0
SOLID
5
5E
100
AcDbEntity
8
Dimension
6
CONTINUOUS
62
7
370
0
100
AcDbTrace
10
3475
20
600
30
0
11
3427
21
592.007334571
31
0
12
3427
22
607.992665429
32
0
13
3427
23
607.992665429
33
0
0
MTEXT
5
5F
100
AcDbEntity
8
Dimension
6
CONTINUOUS
62
7
370
0
100
AcDbMText
10
2917.5
20
644
30
0
40
48
41
101.333333333
71
5
72
1
1
1115
7
standard
210
0
220
0
230
1
50
0
73
2
44
1
0
LINE
5
60
100
AcDbEntity
8
Dimension
6
CONTINUOUS
62
7
370
0
100
AcDbLine
10
2360
20
680
11
2360
21
584
0
LINE
5
61
100
AcDbEntity
8
Dimension
6
CONTINUOUS
62
7
370
0
100
AcDbLine
10
3475
20
680
11
3475
21
584
0
ENDBLK
5
4C
330
4A
100
AcDbEntity
8
0
100
AcDbBlockEnd
0
BLOCK
5
4E
330
4D
100
AcDbEntity
8
0
100
AcDbBlockBegin
2
*D2
70
1
10
0
20
0
3
*D2
1

0
LINE
5
62
100
AcDbEntity
8
Dimension
6
CONTINUOUS
62
7
370
0
100
AcDbLine
10
4100
20
1064
11
4100
21
829
0
SOLID
5
63
100
AcDbEntity
8
Dimension
6
CONTINUOUS
62
7
370
0
100
AcDbTrace
10
4100
20
1064
30
0
11
4107.99266543
21
1016
31
0
12
4092.00733457
22
1016
32
0
13
4092.00733457
23
1016
33
0
0
SOLID
5
64
100
AcDbEntity
8
Dimension
6
CONTINUOUS
62
7
370
0
100
AcDbTrace
10
4100
20
829
30
0
11
4092.00733457
21
877
31
0
12
4107.99266543
22
877
32
0
13
4107.99266543
23
877
33
0
0
MTEXT
5
65
100
AcDbEntity
8
Dimension
6
CONTINUOUS
62
7
370
0
100
AcDbMText
10
4056
20
946.5
30
0
40
48
41
96
71
5
72
1
1
235
7
standard
210
0
220
0
230
1
50
90
73
2
44
1
0
LINE
5
66
100
AcDbEntity
8
Dimension
6
CONTINUOUS
62
7
370
0
100
AcDbLine
10
3970
20
1064
11
4116
21
1064
0
LINE
5
67
100
AcDbEntity
8
Dimension
6
CONTINUOUS
62
7
370
0
100
AcDbLine
10
3970
20
829
11
4116
21
829
0
ENDBLK
5
4F
330
4D
100
AcDbEntity
8
0
100
AcDbBlockEnd
0
BLOCK
5
51
330
50
100
AcDbEntity
8
0
100
AcDbBlockBegin
2
*D3
70
1
10
0
20
0
3
*D3
1

0
LINE
5
68
100
AcDbEntity
8
Dimension
6
CONTINUOUS
62
7
370
0
100
AcDbLine
10
1245
20
600
11
2360
21
600
0
SOLID
5
69
100
AcDbEntity
8
Dimension
6
CONTINUOUS
62
7
370
0
100
AcDbTrace
10
1245
20
600
30
0
11
1293
21
607.992665429
31
0
12
1293
22
592.007334571
32
0
13
1293
23
592.007334571
33
0
0
SOLID
5
6A
100
AcDbEntity
8
Dimension
6
CONTINUOUS
62
7
370
0
100
AcDbTrace
10
2360
20
600
30
0
11
2312
21
592.007334571
31
0
12
2312
22
607.992665429
32
0
13
2312
23
607.992665429
33
0
0
MTEXT
5
6B
100
AcDbEntity
8
Dimension
6
CONTINUOUS
62
7
370
0
100
AcDbMText
10
1802.5
20
644
30
0
40
48
41
101.333333333
71
5
72
1
1
1115
7
standard
210
0
220
0
230
1
50
0
73
2
44
1
0
LINE
5
6C
100
AcDbEntity
8
Dimension
6
CONTINUOUS
62
7
370
0
100
AcDbLine
10
1245
20
680
11
1245
21
584
0
LINE
5
6D
100
AcDbEntity
8
Dimension
6
CONTINUOUS
62
7
370
0
100
AcDbLine
10
2360
20
680
11
2360
21
584
0
ENDBLK
5
52
330
50
100
AcDbEntity
8
0
100
AcDbBlockEnd
0
BLOCK
5
54
330
53
100
AcDbEntity
8
0
100
AcDbBlockBegin
2
*D1
70
1
10
0
20
0
3
*D1
1

0
LINE
5
6E
100
AcDbEntity
8
Dimension
6
CONTINUOUS
62
7
370
0
100
AcDbLine
10
1200
20
500
11
3520
21
500
0
SOLID
5
6F
100
AcDbEntity
8
Dimension
6
CONTINUOUS
62
7
370
0
100
AcDbTrace
10
1200
20
500
30
0
11
1248
21
507.992665429
31
0
12
1248
22
492.007334571
32
0
13
1248
23
492.007334571
33
0
0
SOLID
5
70
100
AcDbEntity
8
Dimension
6
CONTINUOUS
62
7
370
0
100
AcDbTrace
10
3520
20
500
30
0
11
3472
21
492.007334571
31
0
12
3472
22
507.992665429
32
0
13
3472
23
507.992665429
33
0
0
MTEXT
5
71
100
AcDbEntity
8
Dimension
6
CONTINUOUS
62
7
370
0
100
AcDbMText
10
2360
20
544
30
0
40
48
41
133.333333333
71
5
72
1
1
2320
7
standard
210
0
220
0
230
1
50
0
73
2
44
1
0
LINE
5
72
100
AcDbEntity
8
Dimension
6
CONTINUOUS
62
7
370
0
100
AcDbLine
10
1200
20
498.617263714
11
1200
21
484
0
LINE
5
73
100
AcDbEntity
8
Dimension
6
CONTINUOUS
62
7
370
0
100
AcDbLine
10
3520
20
486.861179491
11
3520
21
484
0
ENDBLK
5
55
330
53
100
AcDbEntity
8
0
100
AcDbBlockEnd
0
BLOCK
5
57
330
56
100
AcDbEntity
8
0
100
AcDbBlockBegin
2
a3-0
70
0
10
0
20
0
3
a3-0
1

0
LINE
5
74
100
AcDbEntity
8
0
6
ByLayer
62
256
370
-1
100
AcDbLine
10
4100
20
2870
11
4100
21
100
0
LINE
5
75
100
AcDbEntity
8
0
6
ByLayer
62
256
370
-1
100
AcDbLine
10
200
20
2870
11
200
21
100
0
LINE
5
76
100
AcDbEntity
8
0
6
ByLayer
62
256
370
-1
100
AcDbLine
10
200
20
100
11
4100
21
100
0
LINE
5
77
100
AcDbEntity
8
0
6
ByLayer
62
256
370
-1
100
AcDbLine
10
200
20
2870
11
4100
21
2870
0
LINE
5
78
100
AcDbEntity
8
0
6
ByLayer
62
7
370
-1
100
AcDbLine
10
3200
20
700
11
3900
21
700
0
LINE
5
79
100
AcDbEntity
8
0
6
ByLayer
62
256
370
-1
100
AcDbLine
10
3900
20
800
11
3900
21
600
0
LINE
5
7A
100
AcDbEntity
8
0
6
ByLayer
62
7
370
-1
100
AcDbLine
10
3500
20
800
11
3500
21
600
0
MTEXT
5
7B
100
AcDbEntity
8
0
6
ByLayer
62
256
370
-1
100
AcDbMText
10
3231.449088
20
769.746176
30
0
40
40
41
233.333324853
71
1
72
5
1
SIZE  A3
7
iso
210
0
220
0
230
1
50
0
73
2
44
0.96
0
MTEXT
5
7C
100
AcDbEntity
8
0
6
ByLayer
62
256
370
-1
100
AcDbMText
10
3229.61408
20
674.32576
30
0
40
40
41
243.333324853
71
1
72
5
1
SCALE 1:1
7
iso
210
0
220
0
230
1
50
0
73
2
44
0.96
0
MTEXT
5
7D
100
AcDbEntity
8
0
6
ByLayer
62
256
370
-1
100
AcDbMText
10
3609.460736
20
666.985728
30
0
40
40
41
168.888880409
71
1
72
5
1
AS1100
7
iso
210
0
220
0
230
1
50
0
73
2
44
0.96
0
MTEXT
5
7E
100
AcDbEntity
8
0
6
ByLayer
62
256
370
-1
100
AcDbMText
10
3444.310016
20
933.061888
30
0
40
60
41
365
71
1
72
5
1
ANDY XU
7
iso
210
0
220
0
230
1
50
0
73
2
44
0.96
0
MTEXT
5
7F
100
AcDbEntity
8
0
6
ByLayer
62
256
370
-1
100
AcDbMText
10
3920
20
748.333332468
30
0
40
30
41
103.344762494
71
7
72
5
1
sheet
7
normal#0.500000#0.900000
210
0
220
0
230
1
50
0
73
1
44
0.96
0
LINE
5
80
100
AcDbEntity
8
0
6
ByLayer
62
256
370
-1
100
AcDbLine
10
3800
20
600.001
11
3800
21
100
0
LINE
5
81
100
AcDbEntity
8
0
6
ByLayer
62
256
370
-1
100
AcDbLine
10
3948
20
228
11
3948
21
172
0
CIRCLE
5
82
100
AcDbEntity
8
0
6
ByLayer
62
256
370
-1
100
AcDbCircle
10
4012
20
200
40
28
0
LINE
5
83
100
AcDbEntity
8
0
6
ByLayer
62
256
370
-1
100
AcDbLine
10
3860
20
200
11
4060
21
200
0
LINE
5
84
100
AcDbEntity
8
0
6
ByLayer
62
256
370
-1
100
AcDbLine
10
3884
20
216
11
3948
21
228
0
LINE
5
85
100
AcDbEntity
8
0
6
ByLayer
62
256
370
-1
100
AcDbLine
10
3884
20
184
11
3948
21
172
0
LINE
5
86
100
AcDbEntity
8
0
6
ByLayer
62
256
370
-1
100
AcDbLine
10
3884
20
216
11
3884
21
184
0
LINE
5
87
100
AcDbEntity
8
0
6
ByLayer
62
256
370
-1
100
AcDbLine
10
4012
20
152
11
4012
21
248
0
CIRCLE
5
88
100
AcDbEntity
8
0
6
ByLayer
62
256
370
-1
100
AcDbCircle
10
4012
20
200
40
16
0
LINE
5
89
100
AcDbEntity
8
0
6
ByLayer
62
256
370
-1
100
AcDbLine
10
3200
20
1000
11
4100
21
1000
0
LINE
5
8A
100
AcDbEntity
8
0
6
ByLayer
62
256
370
-1
100
AcDbLine
10
3200
20
800.0005625
11
4100
21
800
0
LINE
5
8B
100
AcDbEntity
8
0
6
ByLayer
62
256
370
-1
100
AcDbLine
10
3200
20
600.001
11
4100
21
600.001
0
LINE
5
8C
100
AcDbEntity
8
0
6
ByLayer
62
256
370
-1
100
AcDbLine
10
3200
20
300
11
4100
21
300
0
LINE
5
8D
100
AcDbEntity
8
0
6
ByLayer
62
256
370
-1
100
AcDbLine
10
3200
20
1100.0005625
11
4100
21
1100
0
LINE
5
8E
100
AcDbEntity
8
0
6
ByLayer
62
256
370
-1
100
AcDbLine
10
3200
20
1100.0005625
11
3200
21
100
0
LINE
5
8F
100
AcDbEntity
8
0
6
ByLayer
62
256
370
-1
100
AcDbLine
10
3200
20
525.001
11
4100
21
525.001
0
LINE
5
90
100
AcDbEntity
8
0
6
ByLayer
62
256
370
-1
100
AcDbLine
10
3200
20
450.001
11
4100
21
450.001
0
LINE
5
91
100
AcDbEntity
8
0
6
ByLayer
62
256
370
-1
100
AcDbLine
10
3200
20
375.001
11
4100
21
375.001
0
ENDBLK
5
58
330
56
100
AcDbEntity
8
0
100
AcDbBlockEnd
0
BLOCK
5
5A
330
59
100
AcDbEntity
8
0
100
AcDbBlockBegin
2
A3_Xu-0
70
0
10
0
20
0
3
A3_Xu-0
1

0
INSERT
5
92
100
AcDbEntity
8
0
6
ByLayer
62
256
370
-1
100
AcDbBlockReference
2
a3-0
10
0
20
0
30
0
41
1
42
1
43
0
50
0
70
1
71
1
44
0
45
0
0
ENDBLK
5
5B
330
59
100
AcDbEntity
8
0
100
AcDbBlockEnd
0
ENDSEC
0
SECTION
2
ENTITIES
0
HATCH
5
93
100
AcDbEntity
8
Foundation
6
ByLayer
62
256
370
-1
100
AcDbHatch
10
0
20
0
30
0
210
0
220
0
230
1
2
kerpele
70
0
71
0
91
1
92
0
93
4
72
1
10
1200
20
1064
11
3520
21
1064
72
1
10
3520
20
1064
11
3520
21
1045
72
1
10
3520
20
1045
11
1200
21
1045
72
1
10
1200
20
1045
11
1200
21
1064
97
0
75
0
76
1
52
4.71238898038
41
1
77
0
78
0
98
0
0
HATCH
5
94
100
AcDbEntity
8
Foundation
6
ByLayer
62
256
370
-1
100
AcDbHatch
10
0
20
0
30
0
210
0
220
0
230
1
2
kerpele
70
0
71
0
91
1
92
0
93
4
72
1
10
2257
20
830
11
2463
21
830
72
1
10
2463
20
830
11
2463
21
710
72
1
10
2463
20
710
11
2257
21
710
72
1
10
2257
20
710
11
2257
21
830
97
0
75
0
76
1
52
0
41
1
77
0
78
0
98
0
0
HATCH
5
95
100
AcDbEntity
8
Foundation
6
ByLayer
62
256
370
-1
100
AcDbHatch
10
0
20
0
30
0
210
0
220
0
230
1
2
kerpele
70
0
71
0
91
1
92
0
93
4
72
1
10
1142
20
830
11
1348
21
830
72
1
10
1348
20
830
11
1348
21
710
72
1
10
1348
20
710
11
1142
21
710
72
1
10
1142
20
710
11
1142
21
830
97
0
75
0
76
1
52
0
41
1
77
0
78
0
98
0
0
HATCH
5
96
100
AcDbEntity
8
Foundation
6
ByLayer
62
256
370
-1
100
AcDbHatch
10
0
20
0
30
0
210
0
220
0
230
1
2
kerpele
70
0
71
0
91
1
92
0
93
4
72
1
10
3372
20
830
11
3578
21
830
72
1
10
3578
20
830
11
3578
21
710
72
1
10
3578
20
710
11
3372
21
710
72
1
10
3372
20
710
11
3372
21
830
97
0
75
0
76
1
52
0
41
1
77
0
78
0
98
0
0
INSERT
5
97
100
AcDbEntity
8
0
6
ByLayer
62
256
370
-1
100
AcDbBlockReference
2
A3_Xu-0
10
-320
20
-160
30
0
41
1.6
42
1.6
43
0
50
0
70
1
71
1
44
0
45
0
0
LINE
5
98
100
AcDbEntity
8
Foundation
6
ByLayer
62
256
370
-1
100
AcDbLine
10
1200
20
1064
11
3520
21
1064
0
LINE
5
99
100
AcDbEntity
8
Foundation
6
ByLayer
62
256
370
-1
100
AcDbLine
10
1200
20
1045
11
3520
21
1045
0
LINE
5
9A
100
AcDbEntity
8
Foundation
6
ByLayer
62
256
370
-1
100
AcDbLine
10
3520
20
1064
11
3520
21
1045
0
LINE
5
9B
100
AcDbEntity
8
Foundation
6
ByLayer
62
256
370
-1
100
AcDbLine
10
2257
20
830
11
2463
21
830
0
LINE
5
9C
100
AcDbEntity
8
Foundation
6
ByLayer
62
256
370
-1
100
AcDbLine
10
2257
20
830
11
2463
21
830
0
LINE
5
9D
100
AcDbEntity
8
Foundation
6
ByLayer
62
256
370
-1
100
AcDbLine
10
1200
20
1045
11
1200
21
1060
0
LINE
5
9E
100
AcDbEntity
8
Foundation
6
ByLayer
62
256
370
-1
100
AcDbLine
10
1245
20
908
11
1245
21
830
0
LINE
5
9F
100
AcDbEntity
8
Foundation
6
ByLayer
62
256
370
-1
100
AcDbLine
10
1142
20
830
11
1348
21
830
0
LINE
5
A0
100
AcDbEntity
8
Foundation
6
ByLayer
62
256
370
-1
100
AcDbLine
10
1142
20
830
11
1348
21
830
0
LINE
5
A1
100
AcDbEntity
8
Foundation
6
ByLayer
62
256
370
-1
100
AcDbLine
10
3372
20
830
11
3578
21
830
0
LINE
5
A2
100
AcDbEntity
8
Foundation
6
ByLayer
62
256
370
-1
100
AcDbLine
10
3372
20
830
11
3578
21
830
0
CIRCLE
5
A3
100
AcDbEntity
8
Dimension
6
ByLayer
62
256
370
-1
100
AcDbCircle
10
1307.5
20
226.71067915
40
72.2893208499
0
CIRCLE
5
A4
100
AcDbEntity
8
Dimension
6
ByLayer
62
256
370
-1
100
AcDbCircle
10
2359.5
20
226.71067915
40
72.2893208499
0
CIRCLE
5
A5
100
AcDbEntity
8
Dimension
6
ByLayer
62
256
370
-1
100
AcDbCircle
10
3412.5
20
226.71067915
40
72.2893208499
0
MTEXT
5
A6
100
AcDbEntity
8
Dimension
6
ByLayer
62
256
370
-1
100
AcDbMText
10
1295
20
260
30
0
40
64
41
42.6666666667
71
1
72
1
1
A
7
standard
210
0
220
0
230
1
50
0
73
2
44
1
0
MTEXT
5
A7
100
AcDbEntity
8
Dimension
6
ByLayer
62
256
370
-1
100
AcDbMText
10
2347
20
260
30
0
40
64
41
28.4444444444
71
1
72
1
1
C
7
standard
210
0
220
0
230
1
50
0
73
2
44
1
0
MTEXT
5
A8
100
AcDbEntity
8
Dimension
6
ByLayer
62
256
370
-1
100
AcDbMText
10
3400
20
260
30
0
40
64
41
28.4444444444
71
1
72
1
1
E
7
standard
210
0
220
0
230
1
50
0
73
2
44
1
0
DIMENSION
5
A9
100
AcDbEntity
8
Dimension
6
ByLayer
62
256
370
-1
100
AcDbDimension
2
*D1
10
3520
20
500
30
0
11
2360
21
544
31
0
70
32
71
5
3
Standard
53
0
210
0
220
0
230
1
100
AcDbAlignedDimension
13
1200
23
548.617263714
33
0
14
3520
24
536.861179491
34
0
100
AcDbRotatedDimension
0
CIRCLE
5
AA
100
AcDbEntity
8
Dimension
6
ByLayer
62
256
370
-1
100
AcDbCircle
10
1744.5
20
226.71067915
40
72.2893208499
0
MTEXT
5
AB
100
AcDbEntity
8
Dimension
6
ByLayer
62
256
370
-1
100
AcDbMText
10
1732
20
260
30
0
40
64
41
35.5555555556
71
1
72
1
1
B
7
standard
210
0
220
0
230
1
50
0
73
2
44
1
0
CIRCLE
5
AC
100
AcDbEntity
8
Dimension
6
ByLayer
62
256
370
-1
100
AcDbCircle
10
2974.5
20
226.71067915
40
72.2893208499
0
MTEXT
5
AD
100
AcDbEntity
8
Dimension
6
ByLayer
62
256
370
-1
100
AcDbMText
10
2962
20
260
30
0
40
64
41
35.5555555556
71
1
72
1
1
D
7
standard
210
0
220
0
230
1
50
0
73
2
44
1
0
LINE
5
AE
100
AcDbEntity
8
Foundation
6
ByLayer
62
256
370
-1
100
AcDbLine
10
1200
20
975
11
3520
21
975
0
LINE
5
AF
100
AcDbEntity
8
Foundation
6
ByLayer
62
256
370
-1
100
AcDbLine
10
2313
20
883
11
2313
21
985
0
LINE
5
B0
100
AcDbEntity
8
Foundation
6
ByLayer
62
256
370
-1
100
AcDbLine
10
2405
20
883
11
2313
21
883
0
LINE
5
B1
100
AcDbEntity
8
Foundation
6
ByLayer
62
256
370
-1
100
AcDbLine
10
2407
20
985
11
2407
21
883
0
LINE
5
B2
100
AcDbEntity
8
Foundation
6
ByLayer
62
256
370
-1
100
AcDbLine
10
2313
20
985
11
2315
21
985
0
LINE
5
B3
100
AcDbEntity
8
Foundation
6
ByLayer
62
256
370
-1
100
AcDbLine
10
2405
20
985
11
2407
21
985
0
LINE
5
B4
100
AcDbEntity
8
Foundation
6
ByLayer
62
256
370
-1
100
AcDbLine
10
2405
20
883
11
2407
21
883
0
LINE
5
B5
100
AcDbEntity
8
Foundation
6
ByLayer
62
256
370
-1
100
AcDbLine
10
2405
20
985
11
2405
21
885
0
LINE
5
B6
100
AcDbEntity
8
Foundation
6
ByLayer
62
256
370
-1
100
AcDbLine
10
2315
20
885
11
2315
21
985
0
LINE
5
B7
100
AcDbEntity
8
Foundation
6
ByLayer
62
256
370
-1
100
AcDbLine
10
2405
20
885
11
2315
21
885
0
LINE
5
B8
100
AcDbEntity
8
Foundation
6
ByLayer
62
256
370
-1
100
AcDbLine
10
2315
20
885
11
2360
21
885
0
LINE
5
B9
100
AcDbEntity
8
Foundation
6
ByLayer
62
256
370
-1
100
AcDbLine
10
2360
20
885
11
2360
21
975
0
LINE
5
BA
100
AcDbEntity
8
Foundation
6
ByLayer
62
256
370
-1
100
AcDbLine
10
2360
20
975
11
2315
21
975
0
LINE
5
BB
100
AcDbEntity
8
Foundation
6
ByLayer
62
256
370
-1
100
AcDbLine
10
2315
20
975
11
2315
21
885
0
LINE
5
BC
100
AcDbEntity
8
Foundation
6
ByLayer
62
256
370
-1
100
AcDbLine
10
2360
20
885
11
2405
21
885
0
LINE
5
BD
100
AcDbEntity
8
Foundation
6
ByLayer
62
256
370
-1
100
AcDbLine
10
2405
20
885
11
2405
21
975
0
LINE
5
BE
100
AcDbEntity
8
Foundation
6
ByLayer
62
256
370
-1
100
AcDbLine
10
2405
20
975
11
2360
21
975
0
LINE
5
BF
100
AcDbEntity
8
Foundation
6
ByLayer
62
256
370
-1
100
AcDbLine
10
2360
20
975
11
2360
21
885
0
LINE
5
C0
100
AcDbEntity
8
Foundation
6
ByLayer
62
256
370
-1
100
AcDbLine
10
2315
20
975
11
2360
21
885
0
LINE
5
C1
100
AcDbEntity
8
Foundation
6
ByLayer
62
256
370
-1
100
AcDbLine
10
2360
20
975
11
2315
21
885
0
LINE
5
C2
100
AcDbEntity
8
Foundation
6
ByLayer
62
256
370
-1
100
AcDbLine
10
2360
20
975
11
2405
21
885
0
LINE
5
C3
100
AcDbEntity
8
Foundation
6
ByLayer
62
256
370
-1
100
AcDbLine
10
2360
20
885
11
2405
21
975
0
LINE
5
C4
100
AcDbEntity
8
Foundation
6
ByLayer
62
256
370
-1
100
AcDbLine
10
1198
20
883
11
1198
21
985
0
LINE
5
C5
100
AcDbEntity
8
Foundation
6
ByLayer
62
256
370
-1
100
AcDbLine
10
1290
20
883
11
1198
21
883
0
LINE
5
C6
100
AcDbEntity
8
Foundation
6
ByLayer
62
256
370
-1
100
AcDbLine
10
1292
20
985
11
1292
21
883
0
LINE
5
C7
100
AcDbEntity
8
Foundation
6
ByLayer
62
256
370
-1
100
AcDbLine
10
1198
20
985
11
1200
21
985
0
LINE
5
C8
100
AcDbEntity
8
Foundation
6
ByLayer
62
256
370
-1
100
AcDbLine
10
1290
20
985
11
1292
21
985
0
LINE
5
C9
100
AcDbEntity
8
Foundation
6
ByLayer
62
256
370
-1
100
AcDbLine
10
1290
20
883
11
1292
21
883
0
LINE
5
CA
100
AcDbEntity
8
Foundation
6
ByLayer
62
256
370
-1
100
AcDbLine
10
1290
20
985
11
1290
21
885
0
LINE
5
CB
100
AcDbEntity
8
Foundation
6
ByLayer
62
256
370
-1
100
AcDbLine
10
1200
20
885
11
1200
21
985
0
LINE
5
CC
100
AcDbEntity
8
Foundation
6
ByLayer
62
256
370
-1
100
AcDbLine
10
1290
20
885
11
1200
21
885
0
LINE
5
CD
100
AcDbEntity
8
Foundation
6
ByLayer
62
256
370
-1
100
AcDbLine
10
1200
20
885
11
1245
21
885
0
LINE
5
CE
100
AcDbEntity
8
Foundation
6
ByLayer
62
256
370
-1
100
AcDbLine
10
1245
20
885
11
1245
21
975
0
LINE
5
CF
100
AcDbEntity
8
Foundation
6
ByLayer
62
256
370
-1
100
AcDbLine
10
1245
20
975
11
1200
21
975
0
LINE
5
D0
100
AcDbEntity
8
Foundation
6
ByLayer
62
256
370
-1
100
AcDbLine
10
1200
20
975
11
1200
21
885
0
LINE
5
D1
100
AcDbEntity
8
Foundation
6
ByLayer
62
256
370
-1
100
AcDbLine
10
1245
20
885
11
1290
21
885
0
LINE
5
D2
100
AcDbEntity
8
Foundation
6
ByLayer
62
256
370
-1
100
AcDbLine
10
1290
20
885
11
1290
21
975
0
LINE
5
D3
100
AcDbEntity
8
Foundation
6
ByLayer
62
256
370
-1
100
AcDbLine
10
1290
20
975
11
1245
21
975
0
LINE
5
D4
100
AcDbEntity
8
Foundation
6
ByLayer
62
256
370
-1
100
AcDbLine
10
1245
20
975
11
1245
21
885
0
LINE
5
D5
100
AcDbEntity
8
Foundation
6
ByLayer
62
256
370
-1
100
AcDbLine
10
1200
20
975
11
1245
21
885
0
LINE
5
D6
100
AcDbEntity
8
Foundation
6
ByLayer
62
256
370
-1
100
AcDbLine
10
1245
20
975
11
1200
21
885
0
LINE
5
D7
100
AcDbEntity
8
Foundation
6
ByLayer
62
256
370
-1
100
AcDbLine
10
1245
20
975
11
1290
21
885
0
LINE
5
D8
100
AcDbEntity
8
Foundation
6
ByLayer
62
256
370
-1
100
AcDbLine
10
1245
20
885
11
1290
21
975
0
LINE
5
D9
100
AcDbEntity
8
Foundation
6
ByLayer
62
256
370
-1
100
AcDbLine
10
3428
20
883
11
3428
21
985
0
LINE
5
DA
100
AcDbEntity
8
Foundation
6
ByLayer
62
256
370
-1
100
AcDbLine
10
3520
20
883
11
3428
21
883
0
LINE
5
DB
100
AcDbEntity
8
Foundation
6
ByLayer
62
256
370
-1
100
AcDbLine
10
3522
20
985
11
3522
21
883
0
LINE
5
DC
100
AcDbEntity
8
Foundation
6
ByLayer
62
256
370
-1
100
AcDbLine
10
3428
20
985
11
3430
21
985
0
LINE
5
DD
100
AcDbEntity
8
Foundation
6
ByLayer
62
256
370
-1
100
AcDbLine
10
3520
20
985
11
3522
21
985
0
LINE
5
DE
100
AcDbEntity
8
Foundation
6
ByLayer
62
256
370
-1
100
AcDbLine
10
3520
20
883
11
3522
21
883
0
LINE
5
DF
100
AcDbEntity
8
Foundation
6
ByLayer
62
256
370
-1
100
AcDbLine
10
3520
20
985
11
3520
21
885
0
LINE
5
E0
100
AcDbEntity
8
Foundation
6
ByLayer
62
256
370
-1
100
AcDbLine
10
3430
20
885
11
3430
21
985
0
LINE
5
E1
100
AcDbEntity
8
Foundation
6
ByLayer
62
256
370
-1
100
AcDbLine
10
3520
20
885
11
3430
21
885
0
LINE
5
E2
100
AcDbEntity
8
Foundation
6
ByLayer
62
256
370
-1
100
AcDbLine
10
3430
20
885
11
3475
21
885
0
LINE
5
E3
100
AcDbEntity
8
Foundation
6
ByLayer
62
256
370
-1
100
AcDbLine
10
3475
20
885
11
3475
21
975
0
LINE
5
E4
100
AcDbEntity
8
Foundation
6
ByLayer
62
256
370
-1
100
AcDbLine
10
3475
20
975
11
3430
21
975
0
LINE
5
E5
100
AcDbEntity
8
Foundation
6
ByLayer
62
256
370
-1
100
AcDbLine
10
3430
20
975
11
3430
21
885
0
LINE
5
E6
100
AcDbEntity
8
Foundation
6
ByLayer
62
256
370
-1
100
AcDbLine
10
3475
20
885
11
3520
21
885
0
LINE
5
E7
100
AcDbEntity
8
Foundation
6
ByLayer
62
256
370
-1
100
AcDbLine
10
3520
20
885
11
3520
21
975
0
LINE
5
E8
100
AcDbEntity
8
Foundation
6
ByLayer
62
256
370
-1
100
AcDbLine
10
3520
20
975
11
3475
21
975
0
LINE
5
E9
100
AcDbEntity
8
Foundation
6
ByLayer
62
256
370
-1
100
AcDbLine
10
3475
20
975
11
3475
21
885
0
LINE
5
EA
100
AcDbEntity
8
Foundation
6
ByLayer
62
256
370
-1
100
AcDbLine
10
3430
20
975
11
3475
21
885
0
LINE
5
EB
100
AcDbEntity
8
Foundation
6
ByLayer
62
256
370
-1
100
AcDbLine
10
3475
20
975
11
3430
21
885
0
LINE
5
EC
100
AcDbEntity
8
Foundation
6
ByLayer
62
256
370
-1
100
AcDbLine
10
3475
20
975
11
3520
21
885
0
LINE
5
ED
100
AcDbEntity
8
Foundation
6
ByLayer
62
256
370
-1
100
AcDbLine
10
3475
20
885
11
3520
21
975
0
LINE
5
EE
100
AcDbEntity
8
Foundation
6
ByLayer
62
256
370
-1
100
AcDbLine
10
1242
20
883
11
1242
21
830
0
LINE
5
EF
100
AcDbEntity
8
Foundation
6
ByLayer
62
256
370
-1
100
AcDbLine
10
1248
20
883
11
1248
21
830
0
LINE
5
F0
100
AcDbEntity
8
Foundation
6
ByLayer
62
256
370
-1
100
AcDbLine
10
1200
20
1064
11
1200
21
975
0
LINE
5
F1
100
AcDbEntity
8
Foundation
6
ByLayer
62
256
370
-1
100
AcDbLine
10
2357
20
883
11
2357
21
830
0
LINE
5
F2
100
AcDbEntity
8
Foundation
6
ByLayer
62
256
370
-1
100
AcDbLine
10
2360
20
883
11
2360
21
830
0
LINE
5
F3
100
AcDbEntity
8
Foundation
6
ByLayer
62
256
370
-1
100
AcDbLine
10
2363
20
883
11
2363
21
830
0
LINE
5
F4
100
AcDbEntity
8
Foundation
6
ByLayer
62
256
370
-1
100
AcDbLine
10
3472
20
883
11
3472
21
830
0
LINE
5
F5
100
AcDbEntity
8
Foundation
6
ByLayer
62
256
370
-1
100
AcDbLine
10
3475
20
883
11
3475
21
830
0
LINE
5
F6
100
AcDbEntity
8
Foundation
6
ByLayer
62
256
370
-1
100
AcDbLine
10
3478
20
883
11
3478
21
830
0
LINE
5
F7
100
AcDbEntity
8
Foundation
6
ByLayer
62
256
370
-1
100
AcDbLine
10
3520
20
1045
11
3520
21
975
0
CIRCLE
5
F8
100
AcDbEntity
8
Dimension
6
ByLayer
62
256
370
-1
100
AcDbCircle
10
4442.28932085
20
1064
40
72.2893208499
0
MTEXT
5
F9
100
AcDbEntity
8
Dimension
6
ByLayer
62
256
370
-1
100
AcDbMText
10
4400
20
1095
30
0
40
64
41
71.1111111111
71
1
72
1
1
H1
7
standard
210
0
220
0
230
1
50
0
73
2
44
1
0
LINE
5
FA
100
AcDbEntity
8
Dimension
6
CENTER2
62
256
370
-1
100
AcDbLine
10
3920
20
1064
11
4370
21
1064
0
LINE
5
FB
100
AcDbEntity
8
Dimension
6
ByLayer
62
256
370
-1
100
AcDbLine
10
4718.6998044
20
1155
11
4238.6998044
21
1155
0
LINE
5
FC
100
AcDbEntity
8
Dimension
6
ByLayer
62
256
370
-1
100
AcDbLine
10
4238.6998044
20
1155
11
4278.6998044
21
1065
0
LINE
5
FD
100
AcDbEntity
8
Dimension
6
ByLayer
62
256
370
-1
100
AcDbLine
10
4278.6998044
20
1065
11
4318.6998044
21
1155
0
LINE
5
FE
100
AcDbEntity
8
Dimension
6
CENTER2
62
256
370
-1
100
AcDbLine
10
3920
20
829
11
4370
21
829
0
LINE
5
FF
100
AcDbEntity
8
Dimension
6
ByLayer
62
256
370
-1
100
AcDbLine
10
4718.6998044
20
919
11
4238.6998044
21
919
0
LINE
5
100
100
AcDbEntity
8
Dimension
6
ByLayer
62
256
370
-1
100
AcDbLine
10
4238.6998044
20
919
11
4278.6998044
21
829
0
LINE
5
101
100
AcDbEntity
8
Dimension
6
ByLayer
62
256
370
-1
100
AcDbLine
10
4278.6998044
20
829
11
4318.6998044
21
919
0
MTEXT
5
102
100
AcDbEntity
8
Dimension
6
ByLayer
62
256
370
-1
100
AcDbMText
10
4510
20
999
30
0
40
64
41
99.5555555556
71
1
72
1
1
0.0
7
standard
210
0
220
0
230
1
50
0
73
2
44
1
0
DIMENSION
5
103
100
AcDbEntity
8
Dimension
6
ByLayer
62
256
370
-1
100
AcDbDimension
2
*D2
10
4100
20
829
30
0
11
4056
21
946.5
31
0
70
32
71
5
72
0
3
Standard
53
0
210
0
220
0
230
1
100
AcDbAlignedDimension
13
3920
23
1064
33
0
14
3920
24
829
34
0
50
90
100
AcDbRotatedDimension
0
MTEXT
5
104
100
AcDbEntity
8
Dimension
6
ByLayer
62
256
370
-1
100
AcDbMText
10
4510
20
1235
30
0
40
64
41
128
71
1
72
1
1
235
7
standard
210
0
220
0
230
1
50
0
73
2
44
1
0
LINE
5
105
100
AcDbEntity
8
Dimension
6
CENTER2
62
256
370
-1
100
AcDbLine
10
1245
20
730
11
1245
21
500
0
LINE
5
106
100
AcDbEntity
8
Dimension
6
CENTER2
62
256
370
-1
100
AcDbLine
10
1200
20
714
11
1200
21
414
0
LINE
5
107
100
AcDbEntity
8
Dimension
6
CENTER2
62
256
370
-1
100
AcDbLine
10
1307.5
20
699
11
1307.5
21
299
0
LINE
5
108
100
AcDbEntity
8
Dimension
6
CENTER2
62
256
370
-1
100
AcDbLine
10
1744.5
20
699
11
1744.5
21
299
0
LINE
5
109
100
AcDbEntity
8
Dimension
6
CENTER2
62
256
370
-1
100
AcDbLine
10
2359.5
20
649
11
2359.5
21
299
0
LINE
5
10A
100
AcDbEntity
8
Dimension
6
CENTER2
62
256
370
-1
100
AcDbLine
10
2974.5
20
699
11
2974.5
21
299
0
LINE
5
10B
100
AcDbEntity
8
Dimension
6
CENTER2
62
256
370
-1
100
AcDbLine
10
3412.5
20
699
11
3412.5
21
299
0
LINE
5
10C
100
AcDbEntity
8
Dimension
6
CENTER2
62
256
370
-1
100
AcDbLine
10
3520
20
714
11
3520
21
414
0
LINE
5
10D
100
AcDbEntity
8
Dimension
6
CENTER2
62
256
370
-1
100
AcDbLine
10
2360
20
730
11
2360
21
500
0
LINE
5
10E
100
AcDbEntity
8
Dimension
6
CENTER2
62
256
370
-1
100
AcDbLine
10
3475
20
730
11
3475
21
500
0
DIMENSION
5
10F
100
AcDbEntity
8
Dimension
6
ByLayer
62
256
370
-1
100
AcDbDimension
2
*D3
10
2360
20
600
30
0
11
1802.5
21
644
31
0
70
32
71
5
3
Standard
53
0
210
0
220
0
230
1
100
AcDbAlignedDimension
13
1245
23
730
33
0
14
2360
24
730
34
0
100
AcDbRotatedDimension
0
DIMENSION
5
110
100
AcDbEntity
8
Dimension
6
ByLayer
62
256
370
-1
100
AcDbDimension
2
*D4
10
3475
20
600
30
0
11
2917.5
21
644
31
0
70
32
71
5
3
Standard
53
0
210
0
220
0
230
1
100
AcDbAlignedDimension
13
2360
23
730
33
0
14
3475
24
730
34
0
100
AcDbRotatedDimension
0
ENDSEC
0
SECTION
2
OBJECTS
0
DICTIONARY
5
C
330
0
100
AcDbDictionary
281
1
3
ACAD_GROUP
350
D
0
DICTIONARY
5
D
330
C
100
AcDbDictionary
281
1
0
ENDSEC
0
EOF
