999
dxfrw 0.5.11
0
SECTION
2
HEADER
9
$ACADVER
1
AC1021
9
$HANDSEED
5
20000
9
$DWGCODEPAGE
3
ANSI_1252
9
$INSBASE
10
0
20
0
30
0
9
$EXTMIN
10
10000000000
20
10000000000
30
0
9
$EXTMAX
10
-10000000000
20
-10000000000
30
0
9
$LIMMIN
10
0
20
0
9
$LIMMAX
10
420
20
297
9
$ORTHOMODE
70
0
9
$LTSCALE
40
1
9
$TEXTSTYLE
7
STANDARD
9
$CLAYER
8
Dimension
9
$DIMASZ
40
50
9
$DIMLFAC
40
1
9
$DIMSCALE
40
1
9
$DIMEXO
40
50
9
$DIMEXE
40
1.25
9
$DIMTXT
40
64
9
$DIMTSZ
40
0
9
$DIMAUNIT
70
0
9
$DIMADEC
70
2
9
$DIMLUNIT
70
2
9
$DIMSTYLE
2
STANDARD
9
$DIMGAP
40
20
9
$DIMTIH
70
0
9
$LUNITS
70
2
9
$LUPREC
70
4
9
$AUNITS
70
0
9
$AUPREC
70
2
9
$SPLINESEGS
70
8
9
$GRIDMODE
70
1
9
$SNAPSTYLE
70
0
9
$GRIDUNIT
10
0
20
0
9
$PINSBASE
10
0
20
0
30
0
9
$PLIMMIN
10
0
20
0
9
$PLIMMAX
10
297
20
210
9
$INSUNITS
70
4
9
$PSVPSCALE
40
1
0
ENDSEC
0
SECTION
2
CLASSES
0
ENDSEC
0
SECTION
2
TABLES
0
TABLE
2
VPORT
5
8
330
0
100
AcDbSymbolTable
70
1
0
VPORT
5
31
330
2
100
AcDbSymbolTableRecord
100
AcDbViewportTableRecord
2
*ACTIVE
70
0
10
0
20
0
11
1
21
1
12
4328.24785345
22
1524.06954181
13
0
23
0
14
10
24
10
15
10
25
10
16
0
26
0
36
1
17
0
27
0
37
0
40
3201.64249071
41
2.67636986301
42
50
43
0
44
0
50
0
51
0
71
0
72
100
73
1
74
3
75
0
76
1
77
0
78
0
281
0
65
1
110
0
120
0
130
0
111
1
121
0
131
0
112
0
122
1
132
0
79
0
146
0
348
10020
60
7
61
5
292
1
282
1
141
0
142
0
63
250
421
3358443
0
ENDTAB
0
TABLE
2
LTYPE
5
5
330
0
100
AcDbSymbolTable
70
4
0
LTYPE
5
14
330
5
100
AcDbSymbolTableRecord
100
AcDbLinetypeTableRecord
2
ByBlock
70
0
3

72
65
73
0
40
0
0
LTYPE
5
15
330
5
100
AcDbSymbolTableRecord
100
AcDbLinetypeTableRecord
2
ByLayer
70
0
3

72
65
73
0
40
0
0
LTYPE
5
16
330
5
100
AcDbSymbolTableRecord
100
AcDbLinetypeTableRecord
2
Continuous
70
0
3
Solid line
72
65
73
0
40
0
0
LTYPE
5
32
330
5
100
AcDbSymbolTableRecord
100
AcDbLinetypeTableRecord
2
DOT
70
0
3
Dot . . . . . . . . . . . . . . . . . . . . . .
72
65
73
2
40
6.35
49
0
74
0
49
-6.35
74
0
0
LTYPE
5
33
330
5
100
AcDbSymbolTableRecord
100
AcDbLinetypeTableRecord
2
DOT2
70
0
3
Dot (.5x) .....................................
72
65
73
2
40
3.175
49
0
74
0
49
-3.175
74
0
0
LTYPE
5
34
330
5
100
AcDbSymbolTableRecord
100
AcDbLinetypeTableRecord
2
DOTX2
70
0
3
Dot (2x) .  .  .  .  .  .  .  .  .  .  .  .  .
72
65
73
2
40
12.7
49
0
74
0
49
-12.7
74
0
0
LTYPE
5
35
330
5
100
AcDbSymbolTableRecord
100
AcDbLinetypeTableRecord
2
DASHED
70
0
3
Dot . . . . . . . . . . . . . . . . . . . . . .
72
65
73
2
40
19.05
49
12.7
74
0
49
-6.35
74
0
0
LTYPE
5
36
330
5
100
AcDbSymbolTableRecord
100
AcDbLinetypeTableRecord
2
DASHED2
70
0
3
Dashed (.5x) _ _ _ _ _ _ _ _ _ _ _ _ _ _ _ _ _
72
65
73
2
40
9.525
49
6.35
74
0
49
-3.175
74
0
0
LTYPE
5
37
330
5
100
AcDbSymbolTableRecord
100
AcDbLinetypeTableRecord
2
DASHEDX2
70
0
3
Dashed (2x) ____  ____  ____  ____  ____  ___
72
65
73
2
40
38.1
49
25.4
74
0
49
-12.7
74
0
0
LTYPE
5
38
330
5
100
AcDbSymbolTableRecord
100
AcDbLinetypeTableRecord
2
DASHDOT
70
0
3
Dash dot __ . __ . __ . __ . __ . __ . __ . __
72
65
73
4
40
25.4
49
12.7
74
0
49
-6.35
74
0
49
0
74
0
49
-6.35
74
0
0
LTYPE
5
39
330
5
100
AcDbSymbolTableRecord
100
AcDbLinetypeTableRecord
2
DASHDOT2
70
0
3
Dash dot (.5x) _._._._._._._._._._._._._._._.
72
65
73
4
40
12.7
49
6.35
74
0
49
-3.175
74
0
49
0
74
0
49
-3.175
74
0
0
LTYPE
5
3A
330
5
100
AcDbSymbolTableRecord
100
AcDbLinetypeTableRecord
2
DASHDOTX2
70
0
3
Dash dot (2x) ____  .  ____  .  ____  .  ___
72
65
73
4
40
50.8
49
25.4
74
0
49
-12.7
74
0
49
0
74
0
49
-12.7
74
0
0
LTYPE
5
3B
330
5
100
AcDbSymbolTableRecord
100
AcDbLinetypeTableRecord
2
DIVIDE
70
0
3
Divide ____ . . ____ . . ____ . . ____ . . ____
72
65
73
6
40
31.75
49
12.7
74
0
49
-6.35
74
0
49
0
74
0
49
-6.35
74
0
49
0
74
0
49
-6.35
74
0
0
LTYPE
5
3C
330
5
100
AcDbSymbolTableRecord
100
AcDbLinetypeTableRecord
2
DIVIDE2
70
0
3
Divide (.5x) __..__..__..__..__..__..__..__.._
72
65
73
6
40
15.875
49
6.35
74
0
49
-3.175
74
0
49
0
74
0
49
-3.175
74
0
49
0
74
0
49
-3.175
74
0
0
LTYPE
5
3D
330
5
100
AcDbSymbolTableRecord
100
AcDbLinetypeTableRecord
2
DIVIDEX2
70
0
3
Divide (2x) ________  .  .  ________  .  .  _
72
65
73
6
40
63.5
49
25.4
74
0
49
-12.7
74
0
49
0
74
0
49
-12.7
74
0
49
0
74
0
49
-12.7
74
0
0
LTYPE
5
3E
330
5
100
AcDbSymbolTableRecord
100
AcDbLinetypeTableRecord
2
BORDER
70
0
3
Border __ __ . __ __ . __ __ . __ __ . __ __ .
72
65
73
6
40
44.45
49
12.7
74
0
49
-6.35
74
0
49
12.7
74
0
49
-6.35
74
0
49
0
74
0
49
-6.35
74
0
0
LTYPE
5
3F
330
5
100
AcDbSymbolTableRecord
100
AcDbLinetypeTableRecord
2
BORDER2
70
0
3
Border (.5x) __.__.__.__.__.__.__.__.__.__.__.
72
65
73
6
40
22.225
49
6.35
74
0
49
-3.175
74
0
49
6.35
74
0
49
-3.175
74
0
49
0
74
0
49
-3.175
74
0
0
LTYPE
5
40
330
5
100
AcDbSymbolTableRecord
100
AcDbLinetypeTableRecord
2
BORDERX2
70
0
3
Border (2x) ____  ____  .  ____  ____  .  ___
72
65
73
6
40
88.9
49
25.4
74
0
49
-12.7
74
0
49
25.4
74
0
49
-12.7
74
0
49
0
74
0
49
-12.7
74
0
0
LTYPE
5
41
330
5
100
AcDbSymbolTableRecord
100
AcDbLinetypeTableRecord
2
CENTER
70
0
3
Center ____ _ ____ _ ____ _ ____ _ ____ _ ____
72
65
73
4
40
50.8
49
31.75
74
0
49
-6.35
74
0
49
6.35
74
0
49
-6.35
74
0
0
LTYPE
5
42
330
5
100
AcDbSymbolTableRecord
100
AcDbLinetypeTableRecord
2
CENTER2
70
0
3
Center (.5x) ___ _ ___ _ ___ _ ___ _ ___ _ ___
72
65
73
4
40
28.575
49
19.05
74
0
49
-3.175
74
0
49
3.175
74
0
49
-3.175
74
0
0
LTYPE
5
43
330
5
100
AcDbSymbolTableRecord
100
AcDbLinetypeTableRecord
2
CENTERX2
70
0
3
Center (2x) ________  __  ________  __  _____
72
65
73
4
40
101.6
49
63.5
74
0
49
-12.7
74
0
49
12.7
74
0
49
-12.7
74
0
0
ENDTAB
0
TABLE
2
LAYER
5
2
330
0
100
AcDbSymbolTable
70
1
0
LAYER
5
10
330
2
100
AcDbSymbolTableRecord
100
AcDbLayerTableRecord
2
0
70
0
62
7
6
CONTINUOUS
370
0
390
F
0
LAYER
5
44
330
2
100
AcDbSymbolTableRecord
100
AcDbLayerTableRecord
2
Dimension
70
0
62
4
6
CONTINUOUS
370
13
390
F
0
LAYER
5
45
330
2
100
AcDbSymbolTableRecord
100
AcDbLayerTableRecord
2
Foundation
70
0
62
7
6
CONTINUOUS
370
35
390
F
0
ENDTAB
0
TABLE
2
STYLE
5
3
330
0
100
AcDbSymbolTable
70
3
0
STYLE
5
46
330
2
100
AcDbSymbolTableRecord
100
AcDbTextStyleTableRecord
2
normal#0.500000#0.900000
70
0
40
0
41
1
50
0
71
0
42
1
3
normal#0.500000#0.900000
4

0
STYLE
5
47
330
2
100
AcDbSymbolTableRecord
100
AcDbTextStyleTableRecord
2
STANDARD
70
0
40
0
41
1
50
0
71
0
42
1
3
STANDARD
4

0
STYLE
5
48
330
2
100
AcDbSymbolTableRecord
100
AcDbTextStyleTableRecord
2
standard
70
0
40
0
41
1
50
0
71
0
42
1
3
standard
4

0
STYLE
5
49
330
2
100
AcDbSymbolTableRecord
100
AcDbTextStyleTableRecord
2
iso
70
0
40
0
41
1
50
0
71
0
42
1
3
iso
4

0
ENDTAB
0
TABLE
2
VIEW
5
6
330
0
100
AcDbSymbolTable
70
0
0
ENDTAB
0
TABLE
2
UCS
5
7
330
0
100
AcDbSymbolTable
70
0
0
ENDTAB
0
TABLE
2
APPID
5
9
330
0
100
AcDbSymbolTable
70
1
0
APPID
5
12
330
9
100
AcDbSymbolTableRecord
100
AcDbRegAppTableRecord
2
ACAD
70
0
0
ENDTAB
0
TABLE
2
DIMSTYLE
5
A
330
0
100
AcDbSymbolTable
70
1
100
AcDbDimStyleTable
71
1
0
DIMSTYLE
105
4A
330
A
100
AcDbSymbolTableRecord
100
AcDbDimStyleTableRecord
2
Standard
70
0
40
1
41
50
42
50
43
0.38
44
1.25
45
0
46
0
47
0
48
0
140
64
141
0.09
142
0
143
25.4
144
1
145
0
146
1
147
20
148
0
71
0
72
0
73
0
74
1
75
0
76
0
77
0
78
0
79
0
170
0
171
2
172
0
173
0
174
0
175
0
176
0
177
0
178
0
179
0
271
4
272
4
273
2
274
2
275
0
276
0
277
2
278
46
279
0
280
0
281
0
282
0
283
1
284
0
285
0
286
0
288
0
289
3
340
Standard
341

371
-2
372
-2
0
ENDTAB
0
TABLE
2
BLOCK_RECORD
5
1
330
0
100
AcDbSymbolTable
70
2
0
BLOCK_RECORD
5
1F
330
1
100
AcDbSymbolTableRecord
100
AcDbBlockTableRecord
2
*Model_Space
70
0
280
1
281
0
0
BLOCK_RECORD
5
1E
330
1
100
AcDbSymbolTableRecord
100
AcDbBlockTableRecord
2
*Paper_Space
70
0
280
1
281
0
0
BLOCK_RECORD
5
4B
330
1
100
AcDbSymbolTableRecord
100
AcDbBlockTableRecord
2
*D3
70
0
280
1
281
0
0
BLOCK_RECORD
5
4E
330
1
100
AcDbSymbolTableRecord
100
AcDbBlockTableRecord
2
*D5
70
0
280
1
281
0
0
BLOCK_RECORD
5
51
330
1
100
AcDbSymbolTableRecord
100
AcDbBlockTableRecord
2
*D2
70
0
280
1
281
0
0
BLOCK_RECORD
5
54
330
1
100
AcDbSymbolTableRecord
100
AcDbBlockTableRecord
2
*D7
70
0
280
1
281
0
0
BLOCK_RECORD
5
57
330
1
100
AcDbSymbolTableRecord
100
AcDbBlockTableRecord
2
*D4
70
0
280
1
281
0
0
BLOCK_RECORD
5
5A
330
1
100
AcDbSymbolTableRecord
100
AcDbBlockTableRecord
2
*D1
70
0
280
1
281
0
0
BLOCK_RECORD
5
5D
330
1
100
AcDbSymbolTableRecord
100
AcDbBlockTableRecord
2
*D6
70
0
280
1
281
0
0
BLOCK_RECORD
5
60
330
1
100
AcDbSymbolTableRecord
100
AcDbBlockTableRecord
2
a3-0
70
0
280
1
281
0
0
BLOCK_RECORD
5
63
330
1
100
AcDbSymbolTableRecord
100
AcDbBlockTableRecord
2
A3_Xu-0
70
0
280
1
281
0
0
ENDTAB
0
ENDSEC
0
SECTION
2
BLOCKS
0
BLOCK
5
20
330
1F
100
AcDbEntity
8
0
100
AcDbBlockBegin
2
*Model_Space
70
0
10
0
20
0
30
0
3
*Model_Space
1

0
ENDBLK
5
21
330
1F
100
AcDbEntity
8
0
100
AcDbBlockEnd
0
BLOCK
5
1C
330
1B
100
AcDbEntity
8
0
100
AcDbBlockBegin
2
*Paper_Space
70
0
10
0
20
0
30
0
3
*Paper_Space
1

0
ENDBLK
5
1D
330
1F
100
AcDbEntity
8
0
100
AcDbBlockEnd
0
BLOCK
5
4C
330
4B
100
AcDbEntity
8
0
100
AcDbBlockBegin
2
*D3
70
1
10
0
20
0
3
*D3
1

0
LINE
5
66
100
AcDbEntity
8
Dimension
6
CONTINUOUS
62
7
370
0
100
AcDbLine
10
7312.5
20
2310
11
7800
21
2500
0
LINE
5
67
100
AcDbEntity
8
Dimension
6
CONTINUOUS
62
7
370
0
100
AcDbLine
10
7800
20
2500
11
8450
21
2500
0
SOLID
5
68
100
AcDbEntity
8
Dimension
6
CONTINUOUS
62
7
370
0
100
AcDbTrace
10
7312.5
20
2310
30
0
11
7356.0633955
21
2335.91423815
31
0
12
7362.11014498
22
2320.39955199
32
0
13
7362.11014498
23
2320.39955199
33
0
0
ENDBLK
5
4D
330
4B
100
AcDbEntity
8
0
100
AcDbBlockEnd
0
BLOCK
5
4F
330
4E
100
AcDbEntity
8
0
100
AcDbBlockBegin
2
*D5
70
1
10
0
20
0
3
*D5
1

0
LINE
5
69
100
AcDbEntity
8
Dimension
6
CONTINUOUS
62
7
370
0
100
AcDbLine
10
1215
20
1700
11
3190
21
1700
0
SOLID
5
6A
100
AcDbEntity
8
Dimension
6
CONTINUOUS
62
7
370
0
100
AcDbTrace
10
1215
20
1700
30
0
11
1265
21
1708.32569316
31
0
12
1265
22
1691.67430684
32
0
13
1265
23
1691.67430684
33
0
0
SOLID
5
6B
100
AcDbEntity
8
Dimension
6
CONTINUOUS
62
7
370
0
100
AcDbTrace
10
3190
20
1700
30
0
11
3140
21
1691.67430684
31
0
12
3140
22
1708.32569316
32
0
13
3140
23
1708.32569316
33
0
0
MTEXT
5
6C
100
AcDbEntity
8
Dimension
6
CONTINUOUS
62
7
370
0
100
AcDbMText
10
2202.5
20
1752
30
0
40
64
41
163.555555556
71
5
72
1
1
1975
7
standard
210
0
220
0
230
1
50
0
73
2
44
1
0
LINE
5
6D
100
AcDbEntity
8
Dimension
6
CONTINUOUS
62
7
370
0
100
AcDbLine
10
1215
20
1855
11
1215
21
1698.75
0
LINE
5
6E
100
AcDbEntity
8
Dimension
6
CONTINUOUS
62
7
370
0
100
AcDbLine
10
3190
20
1855
11
3190
21
1698.75
0
ENDBLK
5
50
330
4E
100
AcDbEntity
8
0
100
AcDbBlockEnd
0
BLOCK
5
52
330
51
100
AcDbEntity
8
0
100
AcDbBlockBegin
2
*D2
70
1
10
0
20
0
3
*D2
1

0
LINE
5
6F
100
AcDbEntity
8
Dimension
6
CONTINUOUS
62
7
370
0
100
AcDbLine
10
7220
20
2350
11
7800
21
2670
0
LINE
5
70
100
AcDbEntity
8
Dimension
6
CONTINUOUS
62
7
370
0
100
AcDbLine
10
7800
20
2670
11
8450
21
2670
0
SOLID
5
71
100
AcDbEntity
8
Dimension
6
CONTINUOUS
62
7
370
0
100
AcDbTrace
10
7220
20
2350
30
0
11
7259.75693047
21
2381.44365828
31
0
12
7267.80083793
22
2366.86407601
32
0
13
7267.80083793
23
2366.86407601
33
0
0
ENDBLK
5
53
330
51
100
AcDbEntity
8
0
100
AcDbBlockEnd
0
BLOCK
5
55
330
54
100
AcDbEntity
8
0
100
AcDbBlockBegin
2
*D7
70
1
10
0
20
0
3
*D7
1

0
LINE
5
72
100
AcDbEntity
8
Dimension
6
CONTINUOUS
62
7
370
0
100
AcDbLine
10
5245
20
1700
11
7220
21
1700
0
SOLID
5
73
100
AcDbEntity
8
Dimension
6
CONTINUOUS
62
7
370
0
100
AcDbTrace
10
5245
20
1700
30
0
11
5295
21
1708.32569316
31
0
12
5295
22
1691.67430684
32
0
13
5295
23
1691.67430684
33
0
0
SOLID
5
74
100
AcDbEntity
8
Dimension
6
CONTINUOUS
62
7
370
0
100
AcDbTrace
10
7220
20
1700
30
0
11
7170
21
1691.67430684
31
0
12
7170
22
1708.32569316
32
0
13
7170
23
1708.32569316
33
0
0
MTEXT
5
75
100
AcDbEntity
8
Dimension
6
CONTINUOUS
62
7
370
0
100
AcDbMText
10
6232.5
20
1752
30
0
40
64
41
163.555555556
71
5
72
1
1
1975
7
standard
210
0
220
0
230
1
50
0
73
2
44
1
0
LINE
5
76
100
AcDbEntity
8
Dimension
6
CONTINUOUS
62
7
370
0
100
AcDbLine
10
5245
20
1855
11
5245
21
1698.75
0
LINE
5
77
100
AcDbEntity
8
Dimension
6
CONTINUOUS
62
7
370
0
100
AcDbLine
10
7220
20
1855
11
7220
21
1698.75
0
ENDBLK
5
56
330
54
100
AcDbEntity
8
0
100
AcDbBlockEnd
0
BLOCK
5
58
330
57
100
AcDbEntity
8
0
100
AcDbBlockBegin
2
*D4
70
1
10
0
20
0
3
*D4
1

0
LINE
5
78
100
AcDbEntity
8
Dimension
6
CONTINUOUS
62
7
370
0
100
AcDbLine
10
7300
20
2200
11
7800
21
2300
0
LINE
5
79
100
AcDbEntity
8
Dimension
6
CONTINUOUS
62
7
370
0
100
AcDbLine
10
7800
20
2300
11
8450
21
2300
0
SOLID
5
7A
100
AcDbEntity
8
Dimension
6
CONTINUOUS
62
7
370
0
100
AcDbTrace
10
7300
20
2200
30
0
11
7347.39623102
21
2217.96982058
31
0
12
7350.66183655
22
2201.64179294
32
0
13
7350.66183655
23
2201.64179294
33
0
0
ENDBLK
5
59
330
57
100
AcDbEntity
8
0
100
AcDbBlockEnd
0
BLOCK
5
5B
330
5A
100
AcDbEntity
8
0
100
AcDbBlockBegin
2
*D1
70
1
10
0
20
0
3
*D1
1

0
LINE
5
7B
100
AcDbEntity
8
Dimension
6
CONTINUOUS
62
7
370
0
100
AcDbLine
10
1100
20
1400
11
7335
21
1400
0
SOLID
5
7C
100
AcDbEntity
8
Dimension
6
CONTINUOUS
62
7
370
0
100
AcDbTrace
10
1100
20
1400
30
0
11
1150
21
1408.32569316
31
0
12
1150
22
1391.67430684
32
0
13
1150
23
1391.67430684
33
0
0
SOLID
5
7D
100
AcDbEntity
8
Dimension
6
CONTINUOUS
62
7
370
0
100
AcDbTrace
10
7335
20
1400
30
0
11
7285
21
1391.67430684
31
0
12
7285
22
1408.32569316
32
0
13
7285
23
1408.32569316
33
0
0
MTEXT
5
7E
100
AcDbEntity
8
Dimension
6
CONTINUOUS
62
7
370
0
100
AcDbMText
10
4217.5
20
1452
30
0
40
64
41
177.777777778
71
5
72
1
1
6235
7
standard
210
0
220
0
230
1
50
0
73
2
44
1
0
LINE
5
7F
100
AcDbEntity
8
Dimension
6
CONTINUOUS
62
7
370
0
100
AcDbLine
10
1100
20
1405.19029352
11
1100
21
1398.75
0
LINE
5
80
100
AcDbEntity
8
Dimension
6
CONTINUOUS
62
7
370
0
100
AcDbLine
10
7335
20
1405.19029352
11
7335
21
1398.75
0
ENDBLK
5
5C
330
5A
100
AcDbEntity
8
0
100
AcDbBlockEnd
0
BLOCK
5
5E
330
5D
100
AcDbEntity
8
0
100
AcDbBlockBegin
2
*D6
70
1
10
0
20
0
3
*D6
1

0
LINE
5
81
100
AcDbEntity
8
Dimension
6
CONTINUOUS
62
7
370
0
100
AcDbLine
10
3190
20
1700
11
5245
21
1700
0
SOLID
5
82
100
AcDbEntity
8
Dimension
6
CONTINUOUS
62
7
370
0
100
AcDbTrace
10
3190
20
1700
30
0
11
3240
21
1708.32569316
31
0
12
3240
22
1691.67430684
32
0
13
3240
23
1691.67430684
33
0
0
SOLID
5
83
100
AcDbEntity
8
Dimension
6
CONTINUOUS
62
7
370
0
100
AcDbTrace
10
5245
20
1700
30
0
11
5195
21
1691.67430684
31
0
12
5195
22
1708.32569316
32
0
13
5195
23
1708.32569316
33
0
0
MTEXT
5
84
100
AcDbEntity
8
Dimension
6
CONTINUOUS
62
7
370
0
100
AcDbMText
10
4217.5
20
1752
30
0
40
64
41
177.777777778
71
5
72
1
1
2055
7
standard
210
0
220
0
230
1
50
0
73
2
44
1
0
LINE
5
85
100
AcDbEntity
8
Dimension
6
CONTINUOUS
62
7
370
0
100
AcDbLine
10
3190
20
1855
11
3190
21
1698.75
0
LINE
5
86
100
AcDbEntity
8
Dimension
6
CONTINUOUS
62
7
370
0
100
AcDbLine
10
5245
20
1855
11
5245
21
1698.75
0
ENDBLK
5
5F
330
5D
100
AcDbEntity
8
0
100
AcDbBlockEnd
0
BLOCK
5
61
330
60
100
AcDbEntity
8
0
100
AcDbBlockBegin
2
a3-0
70
0
10
0
20
0
3
a3-0
1

0
LINE
5
87
100
AcDbEntity
8
0
6
ByLayer
62
256
370
-1
100
AcDbLine
10
4100
20
2870
11
4100
21
100
0
LINE
5
88
100
AcDbEntity
8
0
6
ByLayer
62
256
370
-1
100
AcDbLine
10
200
20
2870
11
200
21
100
0
LINE
5
89
100
AcDbEntity
8
0
6
ByLayer
62
256
370
-1
100
AcDbLine
10
200
20
100
11
4100
21
100
0
LINE
5
8A
100
AcDbEntity
8
0
6
ByLayer
62
256
370
-1
100
AcDbLine
10
2500
20
600.001
11
4100
21
600
0
LINE
5
8B
100
AcDbEntity
8
0
6
ByLayer
62
256
370
-1
100
AcDbLine
10
2500
20
500
11
4100
21
500
0
LINE
5
8C
100
AcDbEntity
8
0
6
ByLayer
62
256
370
-1
100
AcDbLine
10
2500
20
600.001
11
2500
21
100
0
LINE
5
8D
100
AcDbEntity
8
0
6
ByLayer
62
256
370
-1
100
AcDbLine
10
2500
20
300.001
11
4100
21
300
0
LINE
5
8E
100
AcDbEntity
8
0
6
ByLayer
62
256
370
-1
100
AcDbLine
10
2900
20
600.001
11
2900
21
100
0
LINE
5
8F
100
AcDbEntity
8
0
6
ByLayer
62
256
370
-1
100
AcDbLine
10
3200
20
600.001
11
3200
21
100
0
LINE
5
90
100
AcDbEntity
8
0
6
ByLayer
62
7
370
-1
100
AcDbLine
10
3200
20
200
11
3900
21
200
0
LINE
5
91
100
AcDbEntity
8
0
6
ByLayer
62
256
370
-1
100
AcDbLine
10
3900
20
300
11
3900
21
100
0
LINE
5
92
100
AcDbEntity
8
0
6
ByLayer
62
7
370
-1
100
AcDbLine
10
3500
20
300
11
3500
21
100
0
MTEXT
5
93
100
AcDbEntity
8
0
6
ByLayer
62
256
370
-1
100
AcDbMText
10
3231.449088
20
269.746176
30
0
40
40
41
233.333324853
71
1
72
5
1
SIZE  A3
7
iso
210
0
220
0
230
1
50
0
73
2
44
0.96
0
MTEXT
5
94
100
AcDbEntity
8
0
6
ByLayer
62
256
370
-1
100
AcDbMText
10
3229.61408
20
174.32576
30
0
40
40
41
243.333324853
71
1
72
5
1
SCALE 1:1
7
iso
210
0
220
0
230
1
50
0
73
2
44
0.96
0
MTEXT
5
95
100
AcDbEntity
8
0
6
ByLayer
62
256
370
-1
100
AcDbMText
10
3609.460736
20
166.985728
30
0
40
40
41
168.888880409
71
1
72
5
1
AS1100
7
iso
210
0
220
0
230
1
50
0
73
2
44
0.96
0
MTEXT
5
96
100
AcDbEntity
8
0
6
ByLayer
62
256
370
-1
100
AcDbMText
10
3444.310016
20
433.061888
30
0
40
60
41
365
71
1
72
5
1
ANDY XU
7
iso
210
0
220
0
230
1
50
0
73
2
44
0.96
0
LINE
5
97
100
AcDbEntity
8
0
6
ByLayer
62
256
370
-1
100
AcDbLine
10
200
20
2870
11
4100
21
2870
0
LINE
5
98
100
AcDbEntity
8
0
6
ByLayer
62
256
370
-1
100
AcDbLine
10
2500
20
400
11
3200
21
400
0
LINE
5
99
100
AcDbEntity
8
0
6
ByLayer
62
256
370
-1
100
AcDbLine
10
2500
20
350
11
3200
21
350
0
LINE
5
9A
100
AcDbEntity
8
0
6
ByLayer
62
256
370
-1
100
AcDbLine
10
2500
20
450.001
11
3200
21
450.001
0
LINE
5
9B
100
AcDbEntity
8
0
6
ByLayer
62
256
370
-1
100
AcDbLine
10
3048
20
228
11
3048
21
172
0
CIRCLE
5
9C
100
AcDbEntity
8
0
6
ByLayer
62
256
370
-1
100
AcDbCircle
10
3112
20
200
40
28
0
LINE
5
9D
100
AcDbEntity
8
0
6
ByLayer
62
256
370
-1
100
AcDbLine
10
2960
20
200
11
3160
21
200
0
LINE
5
9E
100
AcDbEntity
8
0
6
ByLayer
62
256
370
-1
100
AcDbLine
10
2984
20
216
11
3048
21
228
0
LINE
5
9F
100
AcDbEntity
8
0
6
ByLayer
62
256
370
-1
100
AcDbLine
10
2984
20
184
11
3048
21
172
0
LINE
5
A0
100
AcDbEntity
8
0
6
ByLayer
62
256
370
-1
100
AcDbLine
10
2984
20
216
11
2984
21
184
0
LINE
5
A1
100
AcDbEntity
8
0
6
ByLayer
62
256
370
-1
100
AcDbLine
10
3112
20
152
11
3112
21
248
0
CIRCLE
5
A2
100
AcDbEntity
8
0
6
ByLayer
62
256
370
-1
100
AcDbCircle
10
3112
20
200
40
16
0
MTEXT
5
A3
100
AcDbEntity
8
0
6
ByLayer
62
256
370
-1
100
AcDbMText
10
3920
20
248.333332468
30
0
40
30
41
103.344762494
71
7
72
5
1
sheet
7
normal#0.500000#0.900000
210
0
220
0
230
1
50
0
73
1
44
0.96
0
ENDBLK
5
62
330
60
100
AcDbEntity
8
0
100
AcDbBlockEnd
0
BLOCK
5
64
330
63
100
AcDbEntity
8
0
100
AcDbBlockBegin
2
A3_Xu-0
70
0
10
0
20
0
3
A3_Xu-0
1

0
INSERT
5
A4
100
AcDbEntity
8
0
6
ByLayer
62
256
370
-1
100
AcDbBlockReference
2
a3-0
10
0
20
0
30
0
41
1
42
1
43
0
50
0
70
1
71
1
44
0
45
0
0
ENDBLK
5
65
330
63
100
AcDbEntity
8
0
100
AcDbBlockEnd
0
ENDSEC
0
SECTION
2
ENTITIES
0
HATCH
5
A5
100
AcDbEntity
8
Foundation
6
ByLayer
62
256
370
-1
100
AcDbHatch
10
0
20
0
30
0
210
0
220
0
230
1
2
kerpele
70
0
71
0
91
1
92
0
93
4
72
1
10
5142
20
2105
11
5348
21
2105
72
1
10
5348
20
2105
11
5348
21
1985
72
1
10
5348
20
1985
11
5142
21
1985
72
1
10
5142
20
1985
11
5142
21
2105
97
0
75
0
76
1
52
0
41
1
77
0
78
0
98
0
0
HATCH
5
A6
100
AcDbEntity
8
Foundation
6
ByLayer
62
256
370
-1
100
AcDbHatch
10
0
20
0
30
0
210
0
220
0
230
1
2
kerpele
70
0
71
0
91
1
92
0
93
4
72
1
10
3087
20
2105
11
3293
21
2105
72
1
10
3293
20
2105
11
3293
21
1985
72
1
10
3293
20
1985
11
3087
21
1985
72
1
10
3087
20
1985
11
3087
21
2105
97
0
75
0
76
1
52
0
41
1
77
0
78
0
98
0
0
HATCH
5
A7
100
AcDbEntity
8
Foundation
6
ByLayer
62
256
370
-1
100
AcDbHatch
10
0
20
0
30
0
210
0
220
0
230
1
2
kerpele
70
0
71
0
91
1
92
0
93
4
72
1
10
1112
20
2105
11
1318
21
2105
72
1
10
1318
20
2105
11
1318
21
1985
72
1
10
1318
20
1985
11
1112
21
1985
72
1
10
1112
20
1985
11
1112
21
2105
97
0
75
0
76
1
52
0
41
1
77
0
78
0
98
0
0
HATCH
5
A8
100
AcDbEntity
8
Foundation
6
ByLayer
62
256
370
-1
100
AcDbHatch
10
0
20
0
30
0
210
0
220
0
230
1
2
kerpele
70
0
71
0
91
1
92
0
93
4
72
1
10
7117
20
2105
11
7323
21
2105
72
1
10
7323
20
2105
11
7323
21
1985
72
1
10
7323
20
1985
11
7117
21
1985
72
1
10
7117
20
1985
11
7117
21
2105
97
0
75
0
76
1
52
0
41
1
77
0
78
0
98
0
0
HATCH
5
A9
100
AcDbEntity
8
Foundation
6
ByLayer
62
256
370
-1
100
AcDbHatch
10
0
20
0
30
0
210
0
220
0
230
1
2
kerpele
70
0
71
0
91
1
92
0
93
4
72
1
10
1100
20
2364
11
1100
21
2345
72
1
10
1100
20
2345
11
7335
21
2345
72
1
10
7335
20
2345
11
7335
21
2364
72
1
10
7335
20
2364
11
1100
21
2364
97
0
75
0
76
1
52
0
41
1
77
0
78
0
98
0
0
INSERT
5
AA
100
AcDbEntity
8
0
6
ByLayer
62
256
370
-1
100
AcDbBlockReference
2
A3_Xu-0
10
-440
20
-220
30
0
41
2.2
42
2.2
43
0
50
0
70
1
71
1
44
0
45
0
0
LINE
5
AB
100
AcDbEntity
8
Foundation
6
ByLayer
62
256
370
-1
100
AcDbLine
10
7335
20
2364
11
7335
21
2345
0
LINE
5
AC
100
AcDbEntity
8
Foundation
6
ByLayer
62
256
370
-1
100
AcDbLine
10
1100
20
2345
11
7335
21
2345
0
LINE
5
AD
100
AcDbEntity
8
Foundation
6
ByLayer
62
256
370
-1
100
AcDbLine
10
7335
20
2364
11
7335
21
2345
0
LINE
5
AE
100
AcDbEntity
8
Foundation
6
ByLayer
62
256
370
-1
100
AcDbLine
10
1100
20
2345
11
7335
21
2345
0
LINE
5
AF
100
AcDbEntity
8
Foundation
6
ByLayer
62
256
370
-1
100
AcDbLine
10
1100
20
2364
11
7335
21
2364
0
CIRCLE
5
B0
100
AcDbEntity
8
Dimension
6
ByLayer
62
256
370
-1
100
AcDbCircle
10
3020
20
1314
40
100
0
CIRCLE
5
B1
100
AcDbEntity
8
Dimension
6
ByLayer
62
256
370
-1
100
AcDbCircle
10
5415
20
1314
40
100
0
MTEXT
5
B2
100
AcDbEntity
8
Dimension
6
ByLayer
62
256
370
-1
100
AcDbMText
10
3000
20
1364
30
0
40
96
41
53.3333333333
71
1
72
1
1
4
7
standard
210
0
220
0
230
1
50
0
73
2
44
1
0
MTEXT
5
B3
100
AcDbEntity
8
Dimension
6
ByLayer
62
256
370
-1
100
AcDbMText
10
5395
20
1364
30
0
40
96
41
42.6666666667
71
1
72
1
1
8
7
standard
210
0
220
0
230
1
50
0
73
2
44
1
0
CIRCLE
5
B4
100
AcDbEntity
8
Dimension
6
ByLayer
62
256
370
-1
100
AcDbCircle
10
1100
20
1314
40
100
0
MTEXT
5
B5
100
AcDbEntity
8
Dimension
6
ByLayer
62
256
370
-1
100
AcDbMText
10
1080
20
1364
30
0
40
96
41
21.3333333333
71
1
72
1
1
1
7
standard
210
0
220
0
230
1
50
0
73
2
44
1
0
CIRCLE
5
B6
100
AcDbEntity
8
Dimension
6
ByLayer
62
256
370
-1
100
AcDbCircle
10
7335
20
1314
40
100
0
MTEXT
5
B7
100
AcDbEntity
8
Dimension
6
ByLayer
62
256
370
-1
100
AcDbMText
10
7287.5
20
1360
30
0
40
96
41
74.6666666667
71
1
72
1
1
11
7
standard
210
0
220
0
230
1
50
0
73
2
44
1
0
LINE
5
B8
100
AcDbEntity
8
Dimension
6
ByLayer
62
256
370
-1
100
AcDbLine
10
5060
20
1.7763568394e-14
11
3374
21
1.7763568394e-14
0
LINE
5
B9
100
AcDbEntity
8
Dimension
6
ByLayer
62
256
370
-1
100
AcDbLine
10
3374
20
1.7763568394e-14
11
3374
21
110
0
LINE
5
BA
100
AcDbEntity
8
Dimension
6
ByLayer
62
256
370
-1
100
AcDbLine
10
3374
20
110
11
5060
21
110
0
LINE
5
BB
100
AcDbEntity
8
Dimension
6
ByLayer
62
256
370
-1
100
AcDbLine
10
5060
20
110
11
5060
21
1.7763568394e-14
0
LINE
5
BC
100
AcDbEntity
8
Dimension
6
ByLayer
62
256
370
-1
100
AcDbLine
10
3374
20
110
11
3374
21
220
0
LINE
5
BD
100
AcDbEntity
8
Dimension
6
ByLayer
62
256
370
-1
100
AcDbLine
10
3374
20
220
11
5060
21
220
0
LINE
5
BE
100
AcDbEntity
8
Dimension
6
ByLayer
62
256
370
-1
100
AcDbLine
10
5060
20
220
11
5060
21
110
0
LINE
5
BF
100
AcDbEntity
8
Dimension
6
ByLayer
62
256
370
-1
100
AcDbLine
10
3374
20
220
11
3374
21
330
0
LINE
5
C0
100
AcDbEntity
8
Dimension
6
ByLayer
62
256
370
-1
100
AcDbLine
10
3374
20
330
11
5060
21
330
0
LINE
5
C1
100
AcDbEntity
8
Dimension
6
ByLayer
62
256
370
-1
100
AcDbLine
10
5060
20
330
11
5060
21
220
0
LINE
5
C2
100
AcDbEntity
8
Dimension
6
ByLayer
62
256
370
-1
100
AcDbLine
10
3374
20
330
11
3374
21
440
0
LINE
5
C3
100
AcDbEntity
8
Dimension
6
ByLayer
62
256
370
-1
100
AcDbLine
10
3374
20
440
11
5060
21
440
0
LINE
5
C4
100
AcDbEntity
8
Dimension
6
ByLayer
62
256
370
-1
100
AcDbLine
10
5060
20
440
11
5060
21
330
0
LINE
5
C5
100
AcDbEntity
8
Dimension
6
ByLayer
62
256
370
-1
100
AcDbLine
10
3374
20
440
11
3374
21
550
0
LINE
5
C6
100
AcDbEntity
8
Dimension
6
ByLayer
62
256
370
-1
100
AcDbLine
10
3374
20
550
11
5060
21
550
0
LINE
5
C7
100
AcDbEntity
8
Dimension
6
ByLayer
62
256
370
-1
100
AcDbLine
10
5060
20
550
11
5060
21
440
0
LINE
5
C8
100
AcDbEntity
8
Dimension
6
ByLayer
62
256
370
-1
100
AcDbLine
10
3374
20
550
11
3374
21
660
0
LINE
5
C9
100
AcDbEntity
8
Dimension
6
ByLayer
62
256
370
-1
100
AcDbLine
10
3374
20
660
11
5060
21
660
0
LINE
5
CA
100
AcDbEntity
8
Dimension
6
ByLayer
62
256
370
-1
100
AcDbLine
10
5060
20
660
11
5060
21
550
0
LINE
5
CB
100
AcDbEntity
8
Dimension
6
ByLayer
62
256
370
-1
100
AcDbLine
10
3374
20
660
11
3374
21
770
0
LINE
5
CC
100
AcDbEntity
8
Dimension
6
ByLayer
62
256
370
-1
100
AcDbLine
10
3374
20
770
11
5060
21
770
0
LINE
5
CD
100
AcDbEntity
8
Dimension
6
ByLayer
62
256
370
-1
100
AcDbLine
10
5060
20
770
11
5060
21
660
0
LINE
5
CE
100
AcDbEntity
8
Dimension
6
ByLayer
62
256
370
-1
100
AcDbLine
10
3374
20
770
11
3374
21
880
0
LINE
5
CF
100
AcDbEntity
8
Dimension
6
ByLayer
62
256
370
-1
100
AcDbLine
10
3374
20
880
11
5060
21
880
0
LINE
5
D0
100
AcDbEntity
8
Dimension
6
ByLayer
62
256
370
-1
100
AcDbLine
10
5060
20
880
11
5060
21
770
0
MTEXT
5
D1
100
AcDbEntity
8
Dimension
6
ByLayer
62
256
370
-1
100
AcDbMText
10
3400
20
860
30
0
40
64
41
419.555541987
71
1
72
1
1
DEMINSION
7
standard
210
0
220
0
230
1
50
0
73
2
44
1
0
LINE
5
D2
100
AcDbEntity
8
Dimension
6
ByLayer
62
256
370
-1
100
AcDbLine
10
3843.006957
20
880
11
3843.006957
21
1.7763568394e-14
0
MTEXT
5
D3
100
AcDbEntity
8
Dimension
6
ByLayer
62
256
370
-1
100
AcDbMText
10
3870
20
860
30
0
40
64
41
298.666666667
71
1
72
1
1
DEGREE
7
standard
210
0
220
0
230
1
50
0
73
2
44
1
0
LINE
5
D4
100
AcDbEntity
8
Dimension
6
ByLayer
62
256
370
-1
100
AcDbLine
10
4180.98677951
20
880
11
4180.98677951
21
1.7763568394e-14
0
MTEXT
5
D5
100
AcDbEntity
8
Dimension
6
ByLayer
62
256
370
-1
100
AcDbMText
10
4720
20
860
30
0
40
64
41
320
71
1
72
1
1
NUMBER
7
standard
210
0
220
0
230
1
50
0
73
2
44
1
0
LINE
5
D6
100
AcDbEntity
8
Dimension
6
ByLayer
62
256
370
-1
100
AcDbLine
10
4700.45203569
20
880
11
4700.45203569
21
1.7763568394e-14
0
MTEXT
5
D7
100
AcDbEntity
8
Dimension
6
ByLayer
62
256
370
-1
100
AcDbMText
10
4280
20
860
30
0
40
64
41
305.777777778
71
1
72
1
1
LENGTH
7
standard
210
0
220
0
230
1
50
0
73
2
44
1
0
LINE
5
D8
100
AcDbEntity
8
Dimension
6
ByLayer
62
256
370
-1
100
AcDbLine
10
3374
20
1.7763568394e-14
11
1688
21
1.7763568394e-14
0
LINE
5
D9
100
AcDbEntity
8
Dimension
6
ByLayer
62
256
370
-1
100
AcDbLine
10
1688
20
1.7763568394e-14
11
1688
21
110
0
LINE
5
DA
100
AcDbEntity
8
Dimension
6
ByLayer
62
256
370
-1
100
AcDbLine
10
1688
20
110
11
3374
21
110
0
LINE
5
DB
100
AcDbEntity
8
Dimension
6
ByLayer
62
256
370
-1
100
AcDbLine
10
3374
20
110
11
3374
21
1.7763568394e-14
0
LINE
5
DC
100
AcDbEntity
8
Dimension
6
ByLayer
62
256
370
-1
100
AcDbLine
10
1688
20
110
11
1688
21
220
0
LINE
5
DD
100
AcDbEntity
8
Dimension
6
ByLayer
62
256
370
-1
100
AcDbLine
10
1688
20
220
11
3374
21
220
0
LINE
5
DE
100
AcDbEntity
8
Dimension
6
ByLayer
62
256
370
-1
100
AcDbLine
10
3374
20
220
11
3374
21
110
0
LINE
5
DF
100
AcDbEntity
8
Dimension
6
ByLayer
62
256
370
-1
100
AcDbLine
10
1688
20
220
11
1688
21
330
0
LINE
5
E0
100
AcDbEntity
8
Dimension
6
ByLayer
62
256
370
-1
100
AcDbLine
10
1688
20
330
11
3374
21
330
0
LINE
5
E1
100
AcDbEntity
8
Dimension
6
ByLayer
62
256
370
-1
100
AcDbLine
10
3374
20
330
11
3374
21
220
0
LINE
5
E2
100
AcDbEntity
8
Dimension
6
ByLayer
62
256
370
-1
100
AcDbLine
10
1688
20
330
11
1688
21
440
0
LINE
5
E3
100
AcDbEntity
8
Dimension
6
ByLayer
62
256
370
-1
100
AcDbLine
10
1688
20
440
11
3374
21
440
0
LINE
5
E4
100
AcDbEntity
8
Dimension
6
ByLayer
62
256
370
-1
100
AcDbLine
10
3374
20
440
11
3374
21
330
0
LINE
5
E5
100
AcDbEntity
8
Dimension
6
ByLayer
62
256
370
-1
100
AcDbLine
10
1688
20
440
11
1688
21
550
0
LINE
5
E6
100
AcDbEntity
8
Dimension
6
ByLayer
62
256
370
-1
100
AcDbLine
10
1688
20
550
11
3374
21
550
0
LINE
5
E7
100
AcDbEntity
8
Dimension
6
ByLayer
62
256
370
-1
100
AcDbLine
10
3374
20
550
11
3374
21
440
0
LINE
5
E8
100
AcDbEntity
8
Dimension
6
ByLayer
62
256
370
-1
100
AcDbLine
10
1688
20
550
11
1688
21
660
0
LINE
5
E9
100
AcDbEntity
8
Dimension
6
ByLayer
62
256
370
-1
100
AcDbLine
10
1688
20
660
11
3374
21
660
0
LINE
5
EA
100
AcDbEntity
8
Dimension
6
ByLayer
62
256
370
-1
100
AcDbLine
10
3374
20
660
11
3374
21
550
0
LINE
5
EB
100
AcDbEntity
8
Dimension
6
ByLayer
62
256
370
-1
100
AcDbLine
10
1688
20
660
11
1688
21
770
0
LINE
5
EC
100
AcDbEntity
8
Dimension
6
ByLayer
62
256
370
-1
100
AcDbLine
10
1688
20
770
11
3374
21
770
0
LINE
5
ED
100
AcDbEntity
8
Dimension
6
ByLayer
62
256
370
-1
100
AcDbLine
10
3374
20
770
11
3374
21
660
0
LINE
5
EE
100
AcDbEntity
8
Dimension
6
ByLayer
62
256
370
-1
100
AcDbLine
10
1688
20
770
11
1688
21
880
0
LINE
5
EF
100
AcDbEntity
8
Dimension
6
ByLayer
62
256
370
-1
100
AcDbLine
10
1688
20
880
11
3374
21
880
0
LINE
5
F0
100
AcDbEntity
8
Dimension
6
ByLayer
62
256
370
-1
100
AcDbLine
10
3374
20
880
11
3374
21
770
0
MTEXT
5
F1
100
AcDbEntity
8
Dimension
6
ByLayer
62
256
370
-1
100
AcDbMText
10
1714
20
860
30
0
40
64
41
419.555541987
71
1
72
1
1
DEMINSION
7
standard
210
0
220
0
230
1
50
0
73
2
44
1
0
LINE
5
F2
100
AcDbEntity
8
Dimension
6
ByLayer
62
256
370
-1
100
AcDbLine
10
2157.006957
20
880
11
2157.006957
21
1.7763568394e-14
0
MTEXT
5
F3
100
AcDbEntity
8
Dimension
6
ByLayer
62
256
370
-1
100
AcDbMText
10
2184
20
860
30
0
40
64
41
298.666666667
71
1
72
1
1
DEGREE
7
standard
210
0
220
0
230
1
50
0
73
2
44
1
0
LINE
5
F4
100
AcDbEntity
8
Dimension
6
ByLayer
62
256
370
-1
100
AcDbLine
10
2494.98677951
20
880
11
2494.98677951
21
1.7763568394e-14
0
MTEXT
5
F5
100
AcDbEntity
8
Dimension
6
ByLayer
62
256
370
-1
100
AcDbMText
10
3034
20
860
30
0
40
64
41
320
71
1
72
1
1
NUMBER
7
standard
210
0
220
0
230
1
50
0
73
2
44
1
0
LINE
5
F6
100
AcDbEntity
8
Dimension
6
ByLayer
62
256
370
-1
100
AcDbLine
10
3014.45203569
20
880
11
3014.45203569
21
1.7763568394e-14
0
MTEXT
5
F7
100
AcDbEntity
8
Dimension
6
ByLayer
62
256
370
-1
100
AcDbMText
10
2594
20
860
30
0
40
64
41
305.777777778
71
1
72
1
1
LENGTH
7
standard
210
0
220
0
230
1
50
0
73
2
44
1
0
CIRCLE
5
F8
100
AcDbEntity
8
Dimension
6
ByLayer
62
256
370
-1
100
AcDbCircle
10
3020
20
5914
40
100
0
LINE
5
F9
100
AcDbEntity
8
Dimension
6
CENTER2
62
256
370
-1
100
AcDbLine
10
3020
20
4964
11
3020
21
5814
0
CIRCLE
5
FA
100
AcDbEntity
8
Dimension
6
ByLayer
62
256
370
-1
100
AcDbCircle
10
5415
20
5914
40
100
0
LINE
5
FB
100
AcDbEntity
8
Dimension
6
CENTER2
62
256
370
-1
100
AcDbLine
10
5415
20
4964
11
5415
21
5814
0
MTEXT
5
FC
100
AcDbEntity
8
Dimension
6
ByLayer
62
256
370
-1
100
AcDbMText
10
3000
20
5965
30
0
40
96
41
53.3333333333
71
1
72
1
1
4
7
standard
210
0
220
0
230
1
50
0
73
2
44
1
0
MTEXT
5
FD
100
AcDbEntity
8
Dimension
6
ByLayer
62
256
370
-1
100
AcDbMText
10
5395
20
5965
30
0
40
96
41
42.6666666667
71
1
72
1
1
8
7
standard
210
0
220
0
230
1
50
0
73
2
44
1
0
CIRCLE
5
FE
100
AcDbEntity
8
Dimension
6
ByLayer
62
256
370
-1
100
AcDbCircle
10
1100
20
5914
40
100
0
LINE
5
FF
100
AcDbEntity
8
Dimension
6
CENTER2
62
256
370
-1
100
AcDbLine
10
1100
20
4964
11
1100
21
5814
0
MTEXT
5
100
100
AcDbEntity
8
Dimension
6
ByLayer
62
256
370
-1
100
AcDbMText
10
1080
20
5965
30
0
40
96
41
21.3333333333
71
1
72
1
1
1
7
standard
210
0
220
0
230
1
50
0
73
2
44
1
0
CIRCLE
5
101
100
AcDbEntity
8
Dimension
6
ByLayer
62
256
370
-1
100
AcDbCircle
10
7335
20
5914
40
100
0
LINE
5
102
100
AcDbEntity
8
Dimension
6
CENTER2
62
256
370
-1
100
AcDbLine
10
7335
20
4964
11
7335
21
5814
0
MTEXT
5
103
100
AcDbEntity
8
Dimension
6
ByLayer
62
256
370
-1
100
AcDbMText
10
7287.5
20
5960
30
0
40
96
41
74.6666666667
71
1
72
1
1
11
7
standard
210
0
220
0
230
1
50
0
73
2
44
1
0
MTEXT
5
104
100
AcDbEntity
8
Dimension
6
ByLayer
62
256
370
-1
100
AcDbMText
10
2210
20
750
30
0
40
64
41
220.444444444
71
1
72
1
1
H3-10
7
standard
210
0
220
0
230
1
50
0
73
2
44
1
0
MTEXT
5
105
100
AcDbEntity
8
Dimension
6
ByLayer
62
256
370
-1
100
AcDbMText
10
1790
20
750
30
0
40
64
41
234.666666667
71
1
72
1
1
90x45
7
standard
210
0
220
0
230
1
50
0
73
2
44
1
0
MTEXT
5
106
100
AcDbEntity
8
Dimension
6
ByLayer
62
256
370
-1
100
AcDbMText
10
2210
20
640
30
0
40
64
41
220.444444444
71
1
72
1
1
H3-10
7
standard
210
0
220
0
230
1
50
0
73
2
44
1
0
MTEXT
5
107
100
AcDbEntity
8
Dimension
6
ByLayer
62
256
370
-1
100
AcDbMText
10
2210
20
530
30
0
40
64
41
220.444444444
71
1
72
1
1
H3-10
7
standard
210
0
220
0
230
1
50
0
73
2
44
1
0
LINE
5
108
100
AcDbEntity
8
Foundation
6
ByLayer
62
256
370
-1
100
AcDbLine
10
1100
20
2364
11
1100
21
2345
0
LINE
5
109
100
AcDbEntity
8
Foundation
6
ByLayer
62
256
370
-1
100
AcDbLine
10
1168
20
2183
11
1168
21
2285
0
LINE
5
10A
100
AcDbEntity
8
Foundation
6
ByLayer
62
256
370
-1
100
AcDbLine
10
1260
20
2183
11
1168
21
2183
0
LINE
5
10B
100
AcDbEntity
8
Foundation
6
ByLayer
62
256
370
-1
100
AcDbLine
10
1262
20
2285
11
1262
21
2183
0
LINE
5
10C
100
AcDbEntity
8
Foundation
6
ByLayer
62
256
370
-1
100
AcDbLine
10
1260
20
2183
11
1262
21
2183
0
LINE
5
10D
100
AcDbEntity
8
Foundation
6
ByLayer
62
256
370
-1
100
AcDbLine
10
1215
20
2183
11
1215
21
2105
0
LINE
5
10E
100
AcDbEntity
8
Foundation
6
ByLayer
62
256
370
-1
100
AcDbLine
10
1218
20
2183
11
1218
21
2105
0
LINE
5
10F
100
AcDbEntity
8
Foundation
6
ByLayer
62
256
370
-1
100
AcDbLine
10
1212
20
2183
11
1212
21
2105
0
LINE
5
110
100
AcDbEntity
8
Foundation
6
ByLayer
62
256
370
-1
100
AcDbLine
10
1112
20
2105
11
1318
21
2105
0
LINE
5
111
100
AcDbEntity
8
Foundation
6
ByLayer
62
256
370
-1
100
AcDbLine
10
1112
20
2105
11
1318
21
2105
0
LINE
5
112
100
AcDbEntity
8
Foundation
6
ByLayer
62
256
370
-1
100
AcDbLine
10
1168
20
2285
11
1262
21
2285
0
LINE
5
113
100
AcDbEntity
8
Foundation
6
ByLayer
62
256
370
-1
100
AcDbLine
10
1100
20
2275
11
1100
21
2185
0
LINE
5
114
100
AcDbEntity
8
Foundation
6
ByLayer
62
256
370
-1
100
AcDbLine
10
1100
20
2275
11
1168
21
2275
0
LINE
5
115
100
AcDbEntity
8
Foundation
6
ByLayer
62
256
370
-1
100
AcDbLine
10
1100
20
2185
11
1168
21
2185
0
LINE
5
116
100
AcDbEntity
8
Foundation
6
ByLayer
62
256
370
-1
100
AcDbLine
10
7173
20
2183
11
7173
21
2285
0
LINE
5
117
100
AcDbEntity
8
Foundation
6
ByLayer
62
256
370
-1
100
AcDbLine
10
7265
20
2183
11
7173
21
2183
0
LINE
5
118
100
AcDbEntity
8
Foundation
6
ByLayer
62
256
370
-1
100
AcDbLine
10
7267
20
2285
11
7267
21
2183
0
LINE
5
119
100
AcDbEntity
8
Foundation
6
ByLayer
62
256
370
-1
100
AcDbLine
10
7265
20
2183
11
7267
21
2183
0
LINE
5
11A
100
AcDbEntity
8
Foundation
6
ByLayer
62
256
370
-1
100
AcDbLine
10
7220
20
2183
11
7220
21
2105
0
LINE
5
11B
100
AcDbEntity
8
Foundation
6
ByLayer
62
256
370
-1
100
AcDbLine
10
7223
20
2183
11
7223
21
2105
0
LINE
5
11C
100
AcDbEntity
8
Foundation
6
ByLayer
62
256
370
-1
100
AcDbLine
10
7217
20
2183
11
7217
21
2105
0
LINE
5
11D
100
AcDbEntity
8
Foundation
6
ByLayer
62
256
370
-1
100
AcDbLine
10
7117
20
2105
11
7323
21
2105
0
LINE
5
11E
100
AcDbEntity
8
Foundation
6
ByLayer
62
256
370
-1
100
AcDbLine
10
7117
20
2105
11
7323
21
2105
0
LINE
5
11F
100
AcDbEntity
8
Foundation
6
ByLayer
62
256
370
-1
100
AcDbLine
10
7173
20
2285
11
7267
21
2285
0
LINE
5
120
100
AcDbEntity
8
Foundation
6
ByLayer
62
256
370
-1
100
AcDbLine
10
7267
20
2185
11
7335
21
2185
0
LINE
5
121
100
AcDbEntity
8
Foundation
6
ByLayer
62
256
370
-1
100
AcDbLine
10
7335
20
2275
11
7335
21
2185
0
LINE
5
122
100
AcDbEntity
8
Foundation
6
ByLayer
62
256
370
-1
100
AcDbLine
10
7267
20
2275
11
7335
21
2275
0
LINE
5
123
100
AcDbEntity
8
Foundation
6
ByLayer
62
256
370
-1
100
AcDbLine
10
1100
20
2345
11
1100
21
2275
0
LINE
5
124
100
AcDbEntity
8
Foundation
6
ByLayer
62
256
370
-1
100
AcDbLine
10
1145
20
2345
11
1145
21
2275
0
LINE
5
125
100
AcDbEntity
8
Foundation
6
ByLayer
62
256
370
-1
100
AcDbLine
10
1100
20
2345
11
1145
21
2275
0
LINE
5
126
100
AcDbEntity
8
Foundation
6
ByLayer
62
256
370
-1
100
AcDbLine
10
1145
20
2275
11
1145
21
2345
0
LINE
5
127
100
AcDbEntity
8
Foundation
6
ByLayer
62
256
370
-1
100
AcDbLine
10
1145
20
2345
11
1100
21
2275
0
LINE
5
128
100
AcDbEntity
8
Foundation
6
ByLayer
62
256
370
-1
100
AcDbLine
10
1425
20
2345
11
1425
21
2275
0
LINE
5
129
100
AcDbEntity
8
Foundation
6
ByLayer
62
256
370
-1
100
AcDbLine
10
1470
20
2345
11
1470
21
2275
0
LINE
5
12A
100
AcDbEntity
8
Foundation
6
ByLayer
62
256
370
-1
100
AcDbLine
10
1425
20
2345
11
1470
21
2275
0
LINE
5
12B
100
AcDbEntity
8
Foundation
6
ByLayer
62
256
370
-1
100
AcDbLine
10
1470
20
2275
11
1470
21
2345
0
LINE
5
12C
100
AcDbEntity
8
Foundation
6
ByLayer
62
256
370
-1
100
AcDbLine
10
1470
20
2345
11
1425
21
2275
0
LINE
5
12D
100
AcDbEntity
8
Foundation
6
ByLayer
62
256
370
-1
100
AcDbLine
10
1750
20
2345
11
1750
21
2275
0
LINE
5
12E
100
AcDbEntity
8
Foundation
6
ByLayer
62
256
370
-1
100
AcDbLine
10
1795
20
2345
11
1795
21
2275
0
LINE
5
12F
100
AcDbEntity
8
Foundation
6
ByLayer
62
256
370
-1
100
AcDbLine
10
1750
20
2345
11
1795
21
2275
0
LINE
5
130
100
AcDbEntity
8
Foundation
6
ByLayer
62
256
370
-1
100
AcDbLine
10
1795
20
2275
11
1795
21
2345
0
LINE
5
131
100
AcDbEntity
8
Foundation
6
ByLayer
62
256
370
-1
100
AcDbLine
10
1795
20
2345
11
1750
21
2275
0
LINE
5
132
100
AcDbEntity
8
Foundation
6
ByLayer
62
256
370
-1
100
AcDbLine
10
2075
20
2345
11
2075
21
2275
0
LINE
5
133
100
AcDbEntity
8
Foundation
6
ByLayer
62
256
370
-1
100
AcDbLine
10
2120
20
2345
11
2120
21
2275
0
LINE
5
134
100
AcDbEntity
8
Foundation
6
ByLayer
62
256
370
-1
100
AcDbLine
10
2075
20
2345
11
2120
21
2275
0
LINE
5
135
100
AcDbEntity
8
Foundation
6
ByLayer
62
256
370
-1
100
AcDbLine
10
2120
20
2275
11
2120
21
2345
0
LINE
5
136
100
AcDbEntity
8
Foundation
6
ByLayer
62
256
370
-1
100
AcDbLine
10
2120
20
2345
11
2075
21
2275
0
LINE
5
137
100
AcDbEntity
8
Foundation
6
ByLayer
62
256
370
-1
100
AcDbLine
10
2400
20
2345
11
2400
21
2275
0
LINE
5
138
100
AcDbEntity
8
Foundation
6
ByLayer
62
256
370
-1
100
AcDbLine
10
2445
20
2345
11
2445
21
2275
0
LINE
5
139
100
AcDbEntity
8
Foundation
6
ByLayer
62
256
370
-1
100
AcDbLine
10
2400
20
2345
11
2445
21
2275
0
LINE
5
13A
100
AcDbEntity
8
Foundation
6
ByLayer
62
256
370
-1
100
AcDbLine
10
2445
20
2275
11
2445
21
2345
0
LINE
5
13B
100
AcDbEntity
8
Foundation
6
ByLayer
62
256
370
-1
100
AcDbLine
10
2445
20
2345
11
2400
21
2275
0
LINE
5
13C
100
AcDbEntity
8
Foundation
6
ByLayer
62
256
370
-1
100
AcDbLine
10
2725
20
2345
11
2725
21
2275
0
LINE
5
13D
100
AcDbEntity
8
Foundation
6
ByLayer
62
256
370
-1
100
AcDbLine
10
2770
20
2345
11
2770
21
2275
0
LINE
5
13E
100
AcDbEntity
8
Foundation
6
ByLayer
62
256
370
-1
100
AcDbLine
10
2725
20
2345
11
2770
21
2275
0
LINE
5
13F
100
AcDbEntity
8
Foundation
6
ByLayer
62
256
370
-1
100
AcDbLine
10
2770
20
2345
11
2725
21
2275
0
LINE
5
140
100
AcDbEntity
8
Foundation
6
ByLayer
62
256
370
-1
100
AcDbLine
10
3050
20
2345
11
3050
21
2275
0
LINE
5
141
100
AcDbEntity
8
Foundation
6
ByLayer
62
256
370
-1
100
AcDbLine
10
3095
20
2345
11
3095
21
2275
0
LINE
5
142
100
AcDbEntity
8
Foundation
6
ByLayer
62
256
370
-1
100
AcDbLine
10
3050
20
2345
11
3095
21
2275
0
LINE
5
143
100
AcDbEntity
8
Foundation
6
ByLayer
62
256
370
-1
100
AcDbLine
10
3095
20
2275
11
3095
21
2345
0
LINE
5
144
100
AcDbEntity
8
Foundation
6
ByLayer
62
256
370
-1
100
AcDbLine
10
3095
20
2345
11
3050
21
2275
0
LINE
5
145
100
AcDbEntity
8
Foundation
6
ByLayer
62
256
370
-1
100
AcDbLine
10
3375
20
2345
11
3375
21
2275
0
LINE
5
146
100
AcDbEntity
8
Foundation
6
ByLayer
62
256
370
-1
100
AcDbLine
10
3420
20
2345
11
3420
21
2275
0
LINE
5
147
100
AcDbEntity
8
Foundation
6
ByLayer
62
256
370
-1
100
AcDbLine
10
3375
20
2345
11
3420
21
2275
0
LINE
5
148
100
AcDbEntity
8
Foundation
6
ByLayer
62
256
370
-1
100
AcDbLine
10
3420
20
2275
11
3420
21
2345
0
LINE
5
149
100
AcDbEntity
8
Foundation
6
ByLayer
62
256
370
-1
100
AcDbLine
10
3420
20
2345
11
3375
21
2275
0
LINE
5
14A
100
AcDbEntity
8
Foundation
6
ByLayer
62
256
370
-1
100
AcDbLine
10
3700
20
2345
11
3700
21
2275
0
LINE
5
14B
100
AcDbEntity
8
Foundation
6
ByLayer
62
256
370
-1
100
AcDbLine
10
3745
20
2345
11
3745
21
2275
0
LINE
5
14C
100
AcDbEntity
8
Foundation
6
ByLayer
62
256
370
-1
100
AcDbLine
10
3700
20
2345
11
3745
21
2275
0
LINE
5
14D
100
AcDbEntity
8
Foundation
6
ByLayer
62
256
370
-1
100
AcDbLine
10
3745
20
2275
11
3745
21
2345
0
LINE
5
14E
100
AcDbEntity
8
Foundation
6
ByLayer
62
256
370
-1
100
AcDbLine
10
3745
20
2345
11
3700
21
2275
0
LINE
5
14F
100
AcDbEntity
8
Foundation
6
ByLayer
62
256
370
-1
100
AcDbLine
10
4025
20
2345
11
4025
21
2275
0
LINE
5
150
100
AcDbEntity
8
Foundation
6
ByLayer
62
256
370
-1
100
AcDbLine
10
4070
20
2345
11
4070
21
2275
0
LINE
5
151
100
AcDbEntity
8
Foundation
6
ByLayer
62
256
370
-1
100
AcDbLine
10
4025
20
2345
11
4070
21
2275
0
LINE
5
152
100
AcDbEntity
8
Foundation
6
ByLayer
62
256
370
-1
100
AcDbLine
10
4070
20
2275
11
4070
21
2345
0
LINE
5
153
100
AcDbEntity
8
Foundation
6
ByLayer
62
256
370
-1
100
AcDbLine
10
4070
20
2345
11
4025
21
2275
0
LINE
5
154
100
AcDbEntity
8
Foundation
6
ByLayer
62
256
370
-1
100
AcDbLine
10
4350
20
2345
11
4350
21
2275
0
LINE
5
155
100
AcDbEntity
8
Foundation
6
ByLayer
62
256
370
-1
100
AcDbLine
10
4395
20
2345
11
4395
21
2275
0
LINE
5
156
100
AcDbEntity
8
Foundation
6
ByLayer
62
256
370
-1
100
AcDbLine
10
4350
20
2345
11
4395
21
2275
0
LINE
5
157
100
AcDbEntity
8
Foundation
6
ByLayer
62
256
370
-1
100
AcDbLine
10
4395
20
2275
11
4395
21
2345
0
LINE
5
158
100
AcDbEntity
8
Foundation
6
ByLayer
62
256
370
-1
100
AcDbLine
10
4395
20
2345
11
4350
21
2275
0
LINE
5
159
100
AcDbEntity
8
Foundation
6
ByLayer
62
256
370
-1
100
AcDbLine
10
4675
20
2345
11
4675
21
2275
0
LINE
5
15A
100
AcDbEntity
8
Foundation
6
ByLayer
62
256
370
-1
100
AcDbLine
10
4720
20
2345
11
4720
21
2275
0
LINE
5
15B
100
AcDbEntity
8
Foundation
6
ByLayer
62
256
370
-1
100
AcDbLine
10
4675
20
2345
11
4720
21
2275
0
LINE
5
15C
100
AcDbEntity
8
Foundation
6
ByLayer
62
256
370
-1
100
AcDbLine
10
4720
20
2275
11
4720
21
2345
0
LINE
5
15D
100
AcDbEntity
8
Foundation
6
ByLayer
62
256
370
-1
100
AcDbLine
10
4720
20
2345
11
4675
21
2275
0
LINE
5
15E
100
AcDbEntity
8
Foundation
6
ByLayer
62
256
370
-1
100
AcDbLine
10
5000
20
2345
11
5000
21
2275
0
LINE
5
15F
100
AcDbEntity
8
Foundation
6
ByLayer
62
256
370
-1
100
AcDbLine
10
5045
20
2345
11
5045
21
2275
0
LINE
5
160
100
AcDbEntity
8
Foundation
6
ByLayer
62
256
370
-1
100
AcDbLine
10
5000
20
2345
11
5045
21
2275
0
LINE
5
161
100
AcDbEntity
8
Foundation
6
ByLayer
62
256
370
-1
100
AcDbLine
10
5045
20
2275
11
5045
21
2345
0
LINE
5
162
100
AcDbEntity
8
Foundation
6
ByLayer
62
256
370
-1
100
AcDbLine
10
5045
20
2345
11
5000
21
2275
0
LINE
5
163
100
AcDbEntity
8
Foundation
6
ByLayer
62
256
370
-1
100
AcDbLine
10
5325
20
2345
11
5325
21
2275
0
LINE
5
164
100
AcDbEntity
8
Foundation
6
ByLayer
62
256
370
-1
100
AcDbLine
10
5370
20
2345
11
5370
21
2275
0
LINE
5
165
100
AcDbEntity
8
Foundation
6
ByLayer
62
256
370
-1
100
AcDbLine
10
5325
20
2345
11
5370
21
2275
0
LINE
5
166
100
AcDbEntity
8
Foundation
6
ByLayer
62
256
370
-1
100
AcDbLine
10
5370
20
2275
11
5370
21
2345
0
LINE
5
167
100
AcDbEntity
8
Foundation
6
ByLayer
62
256
370
-1
100
AcDbLine
10
5370
20
2345
11
5325
21
2275
0
LINE
5
168
100
AcDbEntity
8
Foundation
6
ByLayer
62
256
370
-1
100
AcDbLine
10
5650
20
2345
11
5650
21
2275
0
LINE
5
169
100
AcDbEntity
8
Foundation
6
ByLayer
62
256
370
-1
100
AcDbLine
10
5695
20
2345
11
5695
21
2275
0
LINE
5
16A
100
AcDbEntity
8
Foundation
6
ByLayer
62
256
370
-1
100
AcDbLine
10
5650
20
2345
11
5695
21
2275
0
LINE
5
16B
100
AcDbEntity
8
Foundation
6
ByLayer
62
256
370
-1
100
AcDbLine
10
5695
20
2275
11
5695
21
2345
0
LINE
5
16C
100
AcDbEntity
8
Foundation
6
ByLayer
62
256
370
-1
100
AcDbLine
10
5695
20
2345
11
5650
21
2275
0
LINE
5
16D
100
AcDbEntity
8
Foundation
6
ByLayer
62
256
370
-1
100
AcDbLine
10
5975
20
2345
11
5975
21
2275
0
LINE
5
16E
100
AcDbEntity
8
Foundation
6
ByLayer
62
256
370
-1
100
AcDbLine
10
6020
20
2345
11
6020
21
2275
0
LINE
5
16F
100
AcDbEntity
8
Foundation
6
ByLayer
62
256
370
-1
100
AcDbLine
10
5975
20
2345
11
6020
21
2275
0
LINE
5
170
100
AcDbEntity
8
Foundation
6
ByLayer
62
256
370
-1
100
AcDbLine
10
6020
20
2275
11
6020
21
2345
0
LINE
5
171
100
AcDbEntity
8
Foundation
6
ByLayer
62
256
370
-1
100
AcDbLine
10
6020
20
2345
11
5975
21
2275
0
LINE
5
172
100
AcDbEntity
8
Foundation
6
ByLayer
62
256
370
-1
100
AcDbLine
10
6300
20
2345
11
6300
21
2275
0
LINE
5
173
100
AcDbEntity
8
Foundation
6
ByLayer
62
256
370
-1
100
AcDbLine
10
6345
20
2345
11
6345
21
2275
0
LINE
5
174
100
AcDbEntity
8
Foundation
6
ByLayer
62
256
370
-1
100
AcDbLine
10
6300
20
2345
11
6345
21
2275
0
LINE
5
175
100
AcDbEntity
8
Foundation
6
ByLayer
62
256
370
-1
100
AcDbLine
10
6345
20
2275
11
6345
21
2345
0
LINE
5
176
100
AcDbEntity
8
Foundation
6
ByLayer
62
256
370
-1
100
AcDbLine
10
6345
20
2345
11
6300
21
2275
0
LINE
5
177
100
AcDbEntity
8
Foundation
6
ByLayer
62
256
370
-1
100
AcDbLine
10
6625
20
2345
11
6625
21
2275
0
LINE
5
178
100
AcDbEntity
8
Foundation
6
ByLayer
62
256
370
-1
100
AcDbLine
10
6670
20
2345
11
6670
21
2275
0
LINE
5
179
100
AcDbEntity
8
Foundation
6
ByLayer
62
256
370
-1
100
AcDbLine
10
6625
20
2345
11
6670
21
2275
0
LINE
5
17A
100
AcDbEntity
8
Foundation
6
ByLayer
62
256
370
-1
100
AcDbLine
10
6670
20
2275
11
6670
21
2345
0
LINE
5
17B
100
AcDbEntity
8
Foundation
6
ByLayer
62
256
370
-1
100
AcDbLine
10
6670
20
2345
11
6625
21
2275
0
LINE
5
17C
100
AcDbEntity
8
Foundation
6
ByLayer
62
256
370
-1
100
AcDbLine
10
6950
20
2345
11
6950
21
2275
0
LINE
5
17D
100
AcDbEntity
8
Foundation
6
ByLayer
62
256
370
-1
100
AcDbLine
10
6995
20
2345
11
6995
21
2275
0
LINE
5
17E
100
AcDbEntity
8
Foundation
6
ByLayer
62
256
370
-1
100
AcDbLine
10
6950
20
2345
11
6995
21
2275
0
LINE
5
17F
100
AcDbEntity
8
Foundation
6
ByLayer
62
256
370
-1
100
AcDbLine
10
6995
20
2275
11
6995
21
2345
0
LINE
5
180
100
AcDbEntity
8
Foundation
6
ByLayer
62
256
370
-1
100
AcDbLine
10
6995
20
2345
11
6950
21
2275
0
LINE
5
181
100
AcDbEntity
8
Foundation
6
ByLayer
62
256
370
-1
100
AcDbLine
10
7290
20
2345
11
7290
21
2275
0
LINE
5
182
100
AcDbEntity
8
Foundation
6
ByLayer
62
256
370
-1
100
AcDbLine
10
7335
20
2345
11
7335
21
2275
0
LINE
5
183
100
AcDbEntity
8
Foundation
6
ByLayer
62
256
370
-1
100
AcDbLine
10
7290
20
2345
11
7335
21
2275
0
LINE
5
184
100
AcDbEntity
8
Foundation
6
ByLayer
62
256
370
-1
100
AcDbLine
10
7335
20
2275
11
7335
21
2345
0
LINE
5
185
100
AcDbEntity
8
Foundation
6
ByLayer
62
256
370
-1
100
AcDbLine
10
7335
20
2345
11
7290
21
2275
0
LINE
5
186
100
AcDbEntity
8
Dimension
6
CENTER2
62
256
370
-1
100
AcDbLine
10
1100
20
2014
11
1100
21
1414
0
LINE
5
187
100
AcDbEntity
8
Dimension
6
CENTER2
62
256
370
-1
100
AcDbLine
10
3020
20
2014
11
3020
21
1414
0
LINE
5
188
100
AcDbEntity
8
Dimension
6
CENTER2
62
256
370
-1
100
AcDbLine
10
5415
20
2014
11
5415
21
1414
0
LINE
5
189
100
AcDbEntity
8
Dimension
6
CENTER2
62
256
370
-1
100
AcDbLine
10
7335
20
2014
11
7335
21
1414
0
LINE
5
18A
100
AcDbEntity
8
Dimension
6
CENTER2
62
256
370
-1
100
AcDbLine
10
1215
20
1905
11
1215
21
1600
0
LINE
5
18B
100
AcDbEntity
8
Dimension
6
CENTER2
62
256
370
-1
100
AcDbLine
10
7220
20
1905
11
7220
21
1600
0
DIMENSION
5
18C
100
AcDbEntity
8
Dimension
6
ByLayer
62
256
370
-1
100
AcDbDimension
2
*D1
10
7335
20
1400
30
0
11
4217.5
21
1452
31
0
70
32
71
5
72
0
3
Standard
53
0
210
0
220
0
230
1
100
AcDbAlignedDimension
13
1100
23
1455.19029352
33
0
14
7335
24
1455.19029352
34
0
100
AcDbRotatedDimension
0
TEXT
5
18D
100
AcDbEntity
8
Dimension
6
ByLayer
62
256
370
-1
100
AcDbText
10
7900
20
2340
30
0
40
64
1
90x45x2 H3
50
0
41
1
51
0
7
STANDARD
71
0
210
0
220
0
230
1
100
AcDbText
0
MTEXT
5
18E
100
AcDbEntity
8
Dimension
6
ByLayer
62
256
370
-1
100
AcDbMText
10
7900
20
2600
30
0
40
64
41
389.333333333
71
1
72
1
1
70x45 H3
7
STANDARD
210
0
220
0
230
1
50
0
73
2
44
1
0
LEADER
5
18F
100
AcDbEntity
8
Dimension
6
ByLayer
62
256
370
-1
100
AcDbLeader
3
Standard
71
1
72
0
73
3
74
0
75
0
40
1
41
10
76
3
76
3
10
7220
20
2350
30
0
10
7800
20
2670
30
0
10
8450
20
2670
30
0
0
LEADER
5
190
100
AcDbEntity
8
Dimension
6
ByLayer
62
256
370
-1
100
AcDbLeader
3
Standard
71
1
72
0
73
3
74
0
75
0
40
1
41
10
76
3
76
3
10
7312.5
20
2310
30
0
10
7800
20
2500
30
0
10
8450
20
2500
30
0
0
LEADER
5
191
100
AcDbEntity
8
Dimension
6
ByLayer
62
256
370
-1
100
AcDbLeader
3
Standard
71
1
72
0
73
3
74
0
75
0
40
1
41
10
76
3
76
3
10
7300
20
2200
30
0
10
7800
20
2300
30
0
10
8450
20
2300
30
0
0
MTEXT
5
192
100
AcDbEntity
8
Dimension
6
ByLayer
62
256
370
-1
100
AcDbMText
10
7740
20
2770
30
0
40
64
41
709.333333333
71
1
72
1
1
YELLOW TONGUE
7
STANDARD
210
0
220
0
230
1
50
0
73
2
44
1
0
MTEXT
5
193
100
AcDbEntity
8
Dimension
6
ByLayer
62
256
370
-1
100
AcDbMText
10
1790
20
640
30
0
40
64
41
234.666666667
71
1
72
1
1
70x45
7
standard
210
0
220
0
230
1
50
0
73
2
44
1
0
MTEXT
5
194
100
AcDbEntity
8
Dimension
6
ByLayer
62
256
370
-1
100
AcDbMText
10
2650
20
640
30
0
40
64
41
177.777777778
71
1
72
1
1
2320
7
standard
210
0
220
0
230
1
50
0
73
2
44
1
0
MTEXT
5
195
100
AcDbEntity
8
Dimension
6
ByLayer
62
256
370
-1
100
AcDbMText
10
3170
20
640
30
0
40
64
41
78.2222222222
71
1
72
1
1
20
7
standard
210
0
220
0
230
1
50
0
73
2
44
1
0
MTEXT
5
196
100
AcDbEntity
8
Dimension
6
ByLayer
62
256
370
-1
100
AcDbMText
10
1790
20
530
30
0
40
64
41
120.888888889
71
1
72
1
1
Y.T
7
standard
210
0
220
0
230
1
50
0
73
2
44
1
0
MTEXT
5
197
100
AcDbEntity
8
Dimension
6
ByLayer
62
256
370
-1
100
AcDbMText
10
2650
20
530
30
0
40
64
41
270.222222222
71
1
72
1
1
1.8X0.9
7
standard
210
0
220
0
230
1
50
0
73
2
44
1
0
MTEXT
5
198
100
AcDbEntity
8
Dimension
6
ByLayer
62
256
370
-1
100
AcDbMText
10
3170
20
530
30
0
40
64
41
64
71
1
72
1
1
10
7
standard
210
0
220
0
230
1
50
0
73
2
44
1
0
MTEXT
5
199
100
AcDbEntity
8
Dimension
6
ByLayer
62
256
370
-1
100
AcDbMText
10
1794
20
420
30
0
40
64
41
320
71
1
72
1
1
ANCHOR
7
standard
210
0
220
0
230
1
50
0
73
2
44
1
0
MTEXT
5
19A
100
AcDbEntity
8
Dimension
6
ByLayer
62
256
370
-1
100
AcDbMText
10
2650
20
420
30
0
40
64
41
227.555555556
71
1
72
1
1
90x90
7
standard
210
0
220
0
230
1
50
0
73
2
44
1
0
MTEXT
5
19B
100
AcDbEntity
8
Dimension
6
ByLayer
62
256
370
-1
100
AcDbMText
10
3170
20
420
30
0
40
64
41
64
71
1
72
1
1
12
7
standard
210
0
220
0
230
1
50
0
73
2
44
1
0
MTEXT
5
19C
100
AcDbEntity
8
Dimension
6
ByLayer
62
256
370
-1
100
AcDbMText
10
1790
20
310
30
0
40
64
41
355.555555556
71
1
72
1
1
CONCRET
7
standard
210
0
220
0
230
1
50
0
73
2
44
1
0
MTEXT
5
19D
100
AcDbEntity
8
Dimension
6
ByLayer
62
256
370
-1
100
AcDbMText
10
2650
20
310
30
0
40
64
41
192
71
1
72
1
1
20KG
7
standard
210
0
220
0
230
1
50
0
73
2
44
1
0
MTEXT
5
19E
100
AcDbEntity
8
Dimension
6
ByLayer
62
256
370
-1
100
AcDbMText
10
3170
20
310
30
0
40
64
41
64
71
1
72
1
1
12
7
standard
210
0
220
0
230
1
50
0
73
2
44
1
0
MTEXT
5
19F
100
AcDbEntity
8
Dimension
6
ByLayer
62
256
370
-1
100
AcDbMText
10
2210
20
310
30
0
40
64
41
248.888888889
71
1
72
1
1
GENER
7
standard
210
0
220
0
230
1
50
0
73
2
44
1
0
LINE
5
1A0
100
AcDbEntity
8
Foundation
6
ByLayer
62
256
370
-1
100
AcDbLine
10
3143
20
2183
11
3143
21
2285
0
LINE
5
1A1
100
AcDbEntity
8
Foundation
6
ByLayer
62
256
370
-1
100
AcDbLine
10
3235
20
2183
11
3143
21
2183
0
LINE
5
1A2
100
AcDbEntity
8
Foundation
6
ByLayer
62
256
370
-1
100
AcDbLine
10
3237
20
2285
11
3237
21
2183
0
LINE
5
1A3
100
AcDbEntity
8
Foundation
6
ByLayer
62
256
370
-1
100
AcDbLine
10
3235
20
2183
11
3237
21
2183
0
LINE
5
1A4
100
AcDbEntity
8
Foundation
6
ByLayer
62
256
370
-1
100
AcDbLine
10
3190
20
2183
11
3190
21
2105
0
LINE
5
1A5
100
AcDbEntity
8
Foundation
6
ByLayer
62
256
370
-1
100
AcDbLine
10
3193
20
2183
11
3193
21
2105
0
LINE
5
1A6
100
AcDbEntity
8
Foundation
6
ByLayer
62
256
370
-1
100
AcDbLine
10
3187
20
2183
11
3187
21
2105
0
LINE
5
1A7
100
AcDbEntity
8
Foundation
6
ByLayer
62
256
370
-1
100
AcDbLine
10
3087
20
2105
11
3293
21
2105
0
LINE
5
1A8
100
AcDbEntity
8
Foundation
6
ByLayer
62
256
370
-1
100
AcDbLine
10
3087
20
2105
11
3293
21
2105
0
LINE
5
1A9
100
AcDbEntity
8
Foundation
6
ByLayer
62
256
370
-1
100
AcDbLine
10
3143
20
2285
11
3237
21
2285
0
LINE
5
1AA
100
AcDbEntity
8
Foundation
6
ByLayer
62
256
370
-1
100
AcDbLine
10
5198
20
2183
11
5198
21
2285
0
LINE
5
1AB
100
AcDbEntity
8
Foundation
6
ByLayer
62
256
370
-1
100
AcDbLine
10
5290
20
2183
11
5198
21
2183
0
LINE
5
1AC
100
AcDbEntity
8
Foundation
6
ByLayer
62
256
370
-1
100
AcDbLine
10
5292
20
2285
11
5292
21
2183
0
LINE
5
1AD
100
AcDbEntity
8
Foundation
6
ByLayer
62
256
370
-1
100
AcDbLine
10
5290
20
2183
11
5292
21
2183
0
LINE
5
1AE
100
AcDbEntity
8
Foundation
6
ByLayer
62
256
370
-1
100
AcDbLine
10
5245
20
2183
11
5245
21
2105
0
LINE
5
1AF
100
AcDbEntity
8
Foundation
6
ByLayer
62
256
370
-1
100
AcDbLine
10
5248
20
2183
11
5248
21
2105
0
LINE
5
1B0
100
AcDbEntity
8
Foundation
6
ByLayer
62
256
370
-1
100
AcDbLine
10
5242
20
2183
11
5242
21
2105
0
LINE
5
1B1
100
AcDbEntity
8
Foundation
6
ByLayer
62
256
370
-1
100
AcDbLine
10
5142
20
2105
11
5348
21
2105
0
LINE
5
1B2
100
AcDbEntity
8
Foundation
6
ByLayer
62
256
370
-1
100
AcDbLine
10
5142
20
2105
11
5348
21
2105
0
LINE
5
1B3
100
AcDbEntity
8
Foundation
6
ByLayer
62
256
370
-1
100
AcDbLine
10
5198
20
2285
11
5292
21
2285
0
LINE
5
1B4
100
AcDbEntity
8
Foundation
6
ByLayer
62
256
370
-1
100
AcDbLine
10
5292
20
2275
11
7173
21
2275
0
LINE
5
1B5
100
AcDbEntity
8
Foundation
6
ByLayer
62
256
370
-1
100
AcDbLine
10
5292
20
2185
11
7173
21
2185
0
LINE
5
1B6
100
AcDbEntity
8
Foundation
6
ByLayer
62
256
370
-1
100
AcDbLine
10
3237
20
2275
11
5198
21
2275
0
LINE
5
1B7
100
AcDbEntity
8
Foundation
6
ByLayer
62
256
370
-1
100
AcDbLine
10
3237
20
2185
11
5198
21
2185
0
LINE
5
1B8
100
AcDbEntity
8
Foundation
6
ByLayer
62
256
370
-1
100
AcDbLine
10
1262
20
2275
11
3143
21
2275
0
LINE
5
1B9
100
AcDbEntity
8
Foundation
6
ByLayer
62
256
370
-1
100
AcDbLine
10
1262
20
2185
11
3143
21
2185
0
LINE
5
1BA
100
AcDbEntity
8
Dimension
6
CENTER2
62
256
370
-1
100
AcDbLine
10
3190
20
1905
11
3190
21
1600
0
LINE
5
1BB
100
AcDbEntity
8
Dimension
6
CENTER2
62
256
370
-1
100
AcDbLine
10
5245
20
1905
11
5245
21
1600
0
DIMENSION
5
1BC
100
AcDbEntity
8
Dimension
6
ByLayer
62
256
370
-1
100
AcDbDimension
2
*D5
10
3190
20
1700
30
0
11
2202.5
21
1752
31
0
70
32
71
5
3
Standard
53
0
210
0
220
0
230
1
100
AcDbAlignedDimension
13
1215
23
1905
33
0
14
3190
24
1905
34
0
100
AcDbRotatedDimension
0
DIMENSION
5
1BD
100
AcDbEntity
8
Dimension
6
ByLayer
62
256
370
-1
100
AcDbDimension
2
*D6
10
5245
20
1700
30
0
11
4217.5
21
1752
31
0
70
32
71
5
3
Standard
53
0
210
0
220
0
230
1
100
AcDbAlignedDimension
13
3190
23
1905
33
0
14
5245
24
1905
34
0
100
AcDbRotatedDimension
0
DIMENSION
5
1BE
100
AcDbEntity
8
Dimension
6
ByLayer
62
256
370
-1
100
AcDbDimension
2
*D7
10
7220
20
1700
30
0
11
6232.5
21
1752
31
0
70
32
71
5
3
Standard
53
0
210
0
220
0
230
1
100
AcDbAlignedDimension
13
5245
23
1905
33
0
14
7220
24
1905
34
0
100
AcDbRotatedDimension
0
MTEXT
5
1BF
100
AcDbEntity
8
Dimension
6
ByLayer
62
256
370
-1
100
AcDbMText
10
2650
20
750
30
0
40
64
41
184.888888889
71
1
72
1
1
2400
7
standard
210
0
220
0
230
1
50
0
73
2
44
1
0
MTEXT
5
1C0
100
AcDbEntity
8
Dimension
6
ByLayer
62
256
370
-1
100
AcDbMText
10
3170
20
750
30
0
40
64
41
64
71
1
72
1
1
18
7
standard
210
0
220
0
230
1
50
0
73
2
44
1
0
ENDSEC
0
SECTION
2
OBJECTS
0
DICTIONARY
5
C
330
0
100
AcDbDictionary
281
1
3
ACAD_GROUP
350
D
0
DICTIONARY
5
D
330
C
100
AcDbDictionary
281
1
0
ENDSEC
0
EOF
