999
dxfrw 0.5.11
0
SECTION
2
HEADER
9
$ACADVER
1
AC1021
9
$HANDSEED
5
20000
9
$DWGCODEPAGE
3
ANSI_1252
9
$INSBASE
10
0
20
0
30
0
9
$EXTMIN
10
0
20
0
30
0
9
$EXTMAX
10
8501.24515493
20
5988.81786566
30
0
9
$LIMMIN
10
0
20
0
9
$LIMMAX
10
420
20
297
9
$ORTHOMODE
70
0
9
$LTSCALE
40
1
9
$TEXTSTYLE
7
STANDARD
9
$CLAYER
8
0
9
$DIMASZ
40
64
9
$DIMLFAC
40
1
9
$DIMSCALE
40
1
9
$DIMEXO
40
50
9
$DIMEXE
40
16
9
$DIMTXT
40
64
9
$DIMTSZ
40
0
9
$DIMAUNIT
70
0
9
$DIMADEC
70
2
9
$DIMLUNIT
70
2
9
$DIMSTYLE
2
STANDARD
9
$DIMGAP
40
20
9
$DIMTIH
70
0
9
$LUNITS
70
2
9
$LUPREC
70
4
9
$AUNITS
70
0
9
$AUPREC
70
2
9
$SPLINESEGS
70
8
9
$GRIDMODE
70
1
9
$SNAPSTYLE
70
0
9
$GRIDUNIT
10
0
20
0
9
$PINSBASE
10
0
20
0
30
0
9
$PLIMMIN
10
0
20
0
9
$PLIMMAX
10
297
20
210
9
$INSUNITS
70
4
9
$PSVPSCALE
40
1
0
ENDSEC
0
SECTION
2
CLASSES
0
ENDSEC
0
SECTION
2
TABLES
0
TABLE
2
VPORT
5
8
330
0
100
AcDbSymbolTable
70
1
0
VPORT
5
31
330
2
100
AcDbSymbolTableRecord
100
AcDbViewportTableRecord
2
*ACTIVE
70
0
10
0
20
0
11
1
21
1
12
4875.58440668
22
2959.14590363
13
0
23
0
14
10
24
10
15
10
25
10
16
0
26
0
36
1
17
0
27
0
37
0
40
4789.03557106
41
2.67641996558
42
50
43
0
44
0
50
0
51
0
71
0
72
100
73
1
74
3
75
0
76
1
77
0
78
0
281
0
65
1
110
0
120
0
130
0
111
1
121
0
131
0
112
0
122
1
132
0
79
0
146
0
348
10020
60
7
61
5
292
1
282
1
141
0
142
0
63
250
421
3358443
0
ENDTAB
0
TABLE
2
LTYPE
5
5
330
0
100
AcDbSymbolTable
70
4
0
LTYPE
5
14
330
5
100
AcDbSymbolTableRecord
100
AcDbLinetypeTableRecord
2
ByBlock
70
0
3

72
65
73
0
40
0
0
LTYPE
5
15
330
5
100
AcDbSymbolTableRecord
100
AcDbLinetypeTableRecord
2
ByLayer
70
0
3

72
65
73
0
40
0
0
LTYPE
5
16
330
5
100
AcDbSymbolTableRecord
100
AcDbLinetypeTableRecord
2
Continuous
70
0
3
Solid line
72
65
73
0
40
0
0
LTYPE
5
32
330
5
100
AcDbSymbolTableRecord
100
AcDbLinetypeTableRecord
2
DOT
70
0
3
Dot . . . . . . . . . . . . . . . . . . . . . .
72
65
73
2
40
6.35
49
0
74
0
49
-6.35
74
0
0
LTYPE
5
33
330
5
100
AcDbSymbolTableRecord
100
AcDbLinetypeTableRecord
2
DOT2
70
0
3
Dot (.5x) .....................................
72
65
73
2
40
3.175
49
0
74
0
49
-3.175
74
0
0
LTYPE
5
34
330
5
100
AcDbSymbolTableRecord
100
AcDbLinetypeTableRecord
2
DOTX2
70
0
3
Dot (2x) .  .  .  .  .  .  .  .  .  .  .  .  .
72
65
73
2
40
12.7
49
0
74
0
49
-12.7
74
0
0
LTYPE
5
35
330
5
100
AcDbSymbolTableRecord
100
AcDbLinetypeTableRecord
2
DASHED
70
0
3
Dot . . . . . . . . . . . . . . . . . . . . . .
72
65
73
2
40
19.05
49
12.7
74
0
49
-6.35
74
0
0
LTYPE
5
36
330
5
100
AcDbSymbolTableRecord
100
AcDbLinetypeTableRecord
2
DASHED2
70
0
3
Dashed (.5x) _ _ _ _ _ _ _ _ _ _ _ _ _ _ _ _ _
72
65
73
2
40
9.525
49
6.35
74
0
49
-3.175
74
0
0
LTYPE
5
37
330
5
100
AcDbSymbolTableRecord
100
AcDbLinetypeTableRecord
2
DASHEDX2
70
0
3
Dashed (2x) ____  ____  ____  ____  ____  ___
72
65
73
2
40
38.1
49
25.4
74
0
49
-12.7
74
0
0
LTYPE
5
38
330
5
100
AcDbSymbolTableRecord
100
AcDbLinetypeTableRecord
2
DASHDOT
70
0
3
Dash dot __ . __ . __ . __ . __ . __ . __ . __
72
65
73
4
40
25.4
49
12.7
74
0
49
-6.35
74
0
49
0
74
0
49
-6.35
74
0
0
LTYPE
5
39
330
5
100
AcDbSymbolTableRecord
100
AcDbLinetypeTableRecord
2
DASHDOT2
70
0
3
Dash dot (.5x) _._._._._._._._._._._._._._._.
72
65
73
4
40
12.7
49
6.35
74
0
49
-3.175
74
0
49
0
74
0
49
-3.175
74
0
0
LTYPE
5
3A
330
5
100
AcDbSymbolTableRecord
100
AcDbLinetypeTableRecord
2
DASHDOTX2
70
0
3
Dash dot (2x) ____  .  ____  .  ____  .  ___
72
65
73
4
40
50.8
49
25.4
74
0
49
-12.7
74
0
49
0
74
0
49
-12.7
74
0
0
LTYPE
5
3B
330
5
100
AcDbSymbolTableRecord
100
AcDbLinetypeTableRecord
2
DIVIDE
70
0
3
Divide ____ . . ____ . . ____ . . ____ . . ____
72
65
73
6
40
31.75
49
12.7
74
0
49
-6.35
74
0
49
0
74
0
49
-6.35
74
0
49
0
74
0
49
-6.35
74
0
0
LTYPE
5
3C
330
5
100
AcDbSymbolTableRecord
100
AcDbLinetypeTableRecord
2
DIVIDE2
70
0
3
Divide (.5x) __..__..__..__..__..__..__..__.._
72
65
73
6
40
15.875
49
6.35
74
0
49
-3.175
74
0
49
0
74
0
49
-3.175
74
0
49
0
74
0
49
-3.175
74
0
0
LTYPE
5
3D
330
5
100
AcDbSymbolTableRecord
100
AcDbLinetypeTableRecord
2
DIVIDEX2
70
0
3
Divide (2x) ________  .  .  ________  .  .  _
72
65
73
6
40
63.5
49
25.4
74
0
49
-12.7
74
0
49
0
74
0
49
-12.7
74
0
49
0
74
0
49
-12.7
74
0
0
LTYPE
5
3E
330
5
100
AcDbSymbolTableRecord
100
AcDbLinetypeTableRecord
2
BORDER
70
0
3
Border __ __ . __ __ . __ __ . __ __ . __ __ .
72
65
73
6
40
44.45
49
12.7
74
0
49
-6.35
74
0
49
12.7
74
0
49
-6.35
74
0
49
0
74
0
49
-6.35
74
0
0
LTYPE
5
3F
330
5
100
AcDbSymbolTableRecord
100
AcDbLinetypeTableRecord
2
BORDER2
70
0
3
Border (.5x) __.__.__.__.__.__.__.__.__.__.__.
72
65
73
6
40
22.225
49
6.35
74
0
49
-3.175
74
0
49
6.35
74
0
49
-3.175
74
0
49
0
74
0
49
-3.175
74
0
0
LTYPE
5
40
330
5
100
AcDbSymbolTableRecord
100
AcDbLinetypeTableRecord
2
BORDERX2
70
0
3
Border (2x) ____  ____  .  ____  ____  .  ___
72
65
73
6
40
88.9
49
25.4
74
0
49
-12.7
74
0
49
25.4
74
0
49
-12.7
74
0
49
0
74
0
49
-12.7
74
0
0
LTYPE
5
41
330
5
100
AcDbSymbolTableRecord
100
AcDbLinetypeTableRecord
2
CENTER
70
0
3
Center ____ _ ____ _ ____ _ ____ _ ____ _ ____
72
65
73
4
40
50.8
49
31.75
74
0
49
-6.35
74
0
49
6.35
74
0
49
-6.35
74
0
0
LTYPE
5
42
330
5
100
AcDbSymbolTableRecord
100
AcDbLinetypeTableRecord
2
CENTER2
70
0
3
Center (.5x) ___ _ ___ _ ___ _ ___ _ ___ _ ___
72
65
73
4
40
28.575
49
19.05
74
0
49
-3.175
74
0
49
3.175
74
0
49
-3.175
74
0
0
LTYPE
5
43
330
5
100
AcDbSymbolTableRecord
100
AcDbLinetypeTableRecord
2
CENTERX2
70
0
3
Center (2x) ________  __  ________  __  _____
72
65
73
4
40
101.6
49
63.5
74
0
49
-12.7
74
0
49
12.7
74
0
49
-12.7
74
0
0
ENDTAB
0
TABLE
2
LAYER
5
2
330
0
100
AcDbSymbolTable
70
1
0
LAYER
5
10
330
2
100
AcDbSymbolTableRecord
100
AcDbLayerTableRecord
2
0
70
0
62
7
6
CONTINUOUS
370
0
390
F
0
LAYER
5
44
330
2
100
AcDbSymbolTableRecord
100
AcDbLayerTableRecord
2
1_base
70
0
62
7
6
CONTINUOUS
370
0
390
F
0
LAYER
5
45
330
2
100
AcDbSymbolTableRecord
100
AcDbLayerTableRecord
2
1_base_d
70
0
62
4
6
CONTINUOUS
370
13
390
F
0
LAYER
5
46
330
2
100
AcDbSymbolTableRecord
100
AcDbLayerTableRecord
2
2_subfloor_1
70
0
62
7
6
CONTINUOUS
370
0
390
F
0
LAYER
5
47
330
2
100
AcDbSymbolTableRecord
100
AcDbLayerTableRecord
2
2_subfloor_2
70
0
62
7
6
CONTINUOUS
370
35
390
F
0
LAYER
5
48
330
2
100
AcDbSymbolTableRecord
100
AcDbLayerTableRecord
2
2_subfloor_d
70
0
62
4
6
CONTINUOUS
370
13
390
F
0
ENDTAB
0
TABLE
2
STYLE
5
3
330
0
100
AcDbSymbolTable
70
3
0
STYLE
5
49
330
2
100
AcDbSymbolTableRecord
100
AcDbTextStyleTableRecord
2
normal#0.500000#0.900000
70
0
40
0
41
1
50
0
71
0
42
1
3
normal#0.500000#0.900000
4

0
STYLE
5
4A
330
2
100
AcDbSymbolTableRecord
100
AcDbTextStyleTableRecord
2
standard
70
0
40
0
41
1
50
0
71
0
42
1
3
standard
4

0
STYLE
5
4B
330
2
100
AcDbSymbolTableRecord
100
AcDbTextStyleTableRecord
2
iso
70
0
40
0
41
1
50
0
71
0
42
1
3
iso
4

0
ENDTAB
0
TABLE
2
VIEW
5
6
330
0
100
AcDbSymbolTable
70
0
0
ENDTAB
0
TABLE
2
UCS
5
7
330
0
100
AcDbSymbolTable
70
0
0
ENDTAB
0
TABLE
2
APPID
5
9
330
0
100
AcDbSymbolTable
70
1
0
APPID
5
12
330
9
100
AcDbSymbolTableRecord
100
AcDbRegAppTableRecord
2
ACAD
70
0
0
ENDTAB
0
TABLE
2
DIMSTYLE
5
A
330
0
100
AcDbSymbolTable
70
1
100
AcDbDimStyleTable
71
1
0
DIMSTYLE
105
4C
330
A
100
AcDbSymbolTableRecord
100
AcDbDimStyleTableRecord
2
Standard
70
0
40
1
41
64
42
50
43
0.38
44
16
45
0
46
0
47
0
48
0
140
64
141
0.09
142
0
143
25.4
144
1
145
0
146
1
147
20
148
0
71
0
72
0
73
0
74
1
75
0
76
0
77
0
78
0
79
0
170
0
171
2
172
0
173
0
174
0
175
0
176
0
177
0
178
0
179
0
271
4
272
4
273
2
274
2
275
0
276
0
277
2
278
46
279
0
280
0
281
0
282
0
283
1
284
0
285
0
286
0
288
0
289
3
340
Standard
341

371
-2
372
-2
0
ENDTAB
0
TABLE
2
BLOCK_RECORD
5
1
330
0
100
AcDbSymbolTable
70
2
0
BLOCK_RECORD
5
1F
330
1
100
AcDbSymbolTableRecord
100
AcDbBlockTableRecord
2
*Model_Space
70
0
280
1
281
0
0
BLOCK_RECORD
5
1E
330
1
100
AcDbSymbolTableRecord
100
AcDbBlockTableRecord
2
*Paper_Space
70
0
280
1
281
0
0
BLOCK_RECORD
5
4D
330
1
100
AcDbSymbolTableRecord
100
AcDbBlockTableRecord
2
*D7
70
0
280
1
281
0
0
BLOCK_RECORD
5
50
330
1
100
AcDbSymbolTableRecord
100
AcDbBlockTableRecord
2
*D20
70
0
280
1
281
0
0
BLOCK_RECORD
5
53
330
1
100
AcDbSymbolTableRecord
100
AcDbBlockTableRecord
2
*D29
70
0
280
1
281
0
0
BLOCK_RECORD
5
56
330
1
100
AcDbSymbolTableRecord
100
AcDbBlockTableRecord
2
*D36
70
0
280
1
281
0
0
BLOCK_RECORD
5
59
330
1
100
AcDbSymbolTableRecord
100
AcDbBlockTableRecord
2
*D28
70
0
280
1
281
0
0
BLOCK_RECORD
5
5C
330
1
100
AcDbSymbolTableRecord
100
AcDbBlockTableRecord
2
*D34
70
0
280
1
281
0
0
BLOCK_RECORD
5
5F
330
1
100
AcDbSymbolTableRecord
100
AcDbBlockTableRecord
2
*D14
70
0
280
1
281
0
0
BLOCK_RECORD
5
62
330
1
100
AcDbSymbolTableRecord
100
AcDbBlockTableRecord
2
*D9
70
0
280
1
281
0
0
BLOCK_RECORD
5
65
330
1
100
AcDbSymbolTableRecord
100
AcDbBlockTableRecord
2
*D11
70
0
280
1
281
0
0
BLOCK_RECORD
5
68
330
1
100
AcDbSymbolTableRecord
100
AcDbBlockTableRecord
2
*D17
70
0
280
1
281
0
0
BLOCK_RECORD
5
6B
330
1
100
AcDbSymbolTableRecord
100
AcDbBlockTableRecord
2
*D33
70
0
280
1
281
0
0
BLOCK_RECORD
5
6E
330
1
100
AcDbSymbolTableRecord
100
AcDbBlockTableRecord
2
*D15
70
0
280
1
281
0
0
BLOCK_RECORD
5
71
330
1
100
AcDbSymbolTableRecord
100
AcDbBlockTableRecord
2
*D5
70
0
280
1
281
0
0
BLOCK_RECORD
5
74
330
1
100
AcDbSymbolTableRecord
100
AcDbBlockTableRecord
2
*D23
70
0
280
1
281
0
0
BLOCK_RECORD
5
77
330
1
100
AcDbSymbolTableRecord
100
AcDbBlockTableRecord
2
*D16
70
0
280
1
281
0
0
BLOCK_RECORD
5
7A
330
1
100
AcDbSymbolTableRecord
100
AcDbBlockTableRecord
2
*D10
70
0
280
1
281
0
0
BLOCK_RECORD
5
7D
330
1
100
AcDbSymbolTableRecord
100
AcDbBlockTableRecord
2
*D25
70
0
280
1
281
0
0
BLOCK_RECORD
5
80
330
1
100
AcDbSymbolTableRecord
100
AcDbBlockTableRecord
2
*D1
70
0
280
1
281
0
0
BLOCK_RECORD
5
83
330
1
100
AcDbSymbolTableRecord
100
AcDbBlockTableRecord
2
*D12
70
0
280
1
281
0
0
BLOCK_RECORD
5
86
330
1
100
AcDbSymbolTableRecord
100
AcDbBlockTableRecord
2
*D31
70
0
280
1
281
0
0
BLOCK_RECORD
5
89
330
1
100
AcDbSymbolTableRecord
100
AcDbBlockTableRecord
2
*D2
70
0
280
1
281
0
0
BLOCK_RECORD
5
8C
330
1
100
AcDbSymbolTableRecord
100
AcDbBlockTableRecord
2
*D6
70
0
280
1
281
0
0
BLOCK_RECORD
5
8F
330
1
100
AcDbSymbolTableRecord
100
AcDbBlockTableRecord
2
*D18
70
0
280
1
281
0
0
BLOCK_RECORD
5
92
330
1
100
AcDbSymbolTableRecord
100
AcDbBlockTableRecord
2
*D8
70
0
280
1
281
0
0
BLOCK_RECORD
5
95
330
1
100
AcDbSymbolTableRecord
100
AcDbBlockTableRecord
2
*D32
70
0
280
1
281
0
0
BLOCK_RECORD
5
98
330
1
100
AcDbSymbolTableRecord
100
AcDbBlockTableRecord
2
*D19
70
0
280
1
281
0
0
BLOCK_RECORD
5
9B
330
1
100
AcDbSymbolTableRecord
100
AcDbBlockTableRecord
2
*D21
70
0
280
1
281
0
0
BLOCK_RECORD
5
9E
330
1
100
AcDbSymbolTableRecord
100
AcDbBlockTableRecord
2
*D4
70
0
280
1
281
0
0
BLOCK_RECORD
5
A1
330
1
100
AcDbSymbolTableRecord
100
AcDbBlockTableRecord
2
*D22
70
0
280
1
281
0
0
BLOCK_RECORD
5
A4
330
1
100
AcDbSymbolTableRecord
100
AcDbBlockTableRecord
2
*D27
70
0
280
1
281
0
0
BLOCK_RECORD
5
A7
330
1
100
AcDbSymbolTableRecord
100
AcDbBlockTableRecord
2
*D3
70
0
280
1
281
0
0
BLOCK_RECORD
5
AA
330
1
100
AcDbSymbolTableRecord
100
AcDbBlockTableRecord
2
*D24
70
0
280
1
281
0
0
BLOCK_RECORD
5
AD
330
1
100
AcDbSymbolTableRecord
100
AcDbBlockTableRecord
2
*D26
70
0
280
1
281
0
0
BLOCK_RECORD
5
B0
330
1
100
AcDbSymbolTableRecord
100
AcDbBlockTableRecord
2
*D37
70
0
280
1
281
0
0
BLOCK_RECORD
5
B3
330
1
100
AcDbSymbolTableRecord
100
AcDbBlockTableRecord
2
*D13
70
0
280
1
281
0
0
BLOCK_RECORD
5
B6
330
1
100
AcDbSymbolTableRecord
100
AcDbBlockTableRecord
2
*D35
70
0
280
1
281
0
0
BLOCK_RECORD
5
B9
330
1
100
AcDbSymbolTableRecord
100
AcDbBlockTableRecord
2
*D30
70
0
280
1
281
0
0
BLOCK_RECORD
5
BC
330
1
100
AcDbSymbolTableRecord
100
AcDbBlockTableRecord
2
a3-0
70
0
280
1
281
0
0
BLOCK_RECORD
5
BF
330
1
100
AcDbSymbolTableRecord
100
AcDbBlockTableRecord
2
A3_Xu-0
70
0
280
1
281
0
0
ENDTAB
0
ENDSEC
0
SECTION
2
BLOCKS
0
BLOCK
5
20
330
1F
100
AcDbEntity
8
0
100
AcDbBlockBegin
2
*Model_Space
70
0
10
0
20
0
30
0
3
*Model_Space
1

0
ENDBLK
5
21
330
1F
100
AcDbEntity
8
0
100
AcDbBlockEnd
0
BLOCK
5
1C
330
1B
100
AcDbEntity
8
0
100
AcDbBlockBegin
2
*Paper_Space
70
0
10
0
20
0
30
0
3
*Paper_Space
1

0
ENDBLK
5
1D
330
1F
100
AcDbEntity
8
0
100
AcDbBlockEnd
0
BLOCK
5
4E
330
4D
100
AcDbEntity
8
0
100
AcDbBlockBegin
2
*D7
70
1
10
0
20
0
3
*D7
1

0
LINE
5
C2
100
AcDbEntity
8
2_subfloor_d
6
CONTINUOUS
62
7
370
0
100
AcDbLine
10
8000
20
5025
11
8000
21
2705
0
SOLID
5
C3
100
AcDbEntity
8
2_subfloor_d
6
CONTINUOUS
62
7
370
0
100
AcDbTrace
10
8000
20
5025
30
0
11
8010.65688724
21
4961
31
0
12
7989.34311276
22
4961
32
0
13
7989.34311276
23
4961
33
0
0
SOLID
5
C4
100
AcDbEntity
8
2_subfloor_d
6
CONTINUOUS
62
7
370
0
100
AcDbTrace
10
8000
20
2705
30
0
11
7989.34311276
21
2769
31
0
12
8010.65688724
22
2769
32
0
13
8010.65688724
23
2769
33
0
0
MTEXT
5
C5
100
AcDbEntity
8
2_subfloor_d
6
CONTINUOUS
62
7
370
0
100
AcDbMText
10
7948
20
3865
30
0
40
64
41
177.777777778
71
5
72
1
1
2320
7
standard
210
0
220
0
230
1
50
90
73
2
44
1
0
LINE
5
C6
100
AcDbEntity
8
2_subfloor_d
6
CONTINUOUS
62
7
370
0
100
AcDbLine
10
7979.65693108
20
5025
11
8016
21
5025
0
LINE
5
C7
100
AcDbEntity
8
2_subfloor_d
6
CONTINUOUS
62
7
370
0
100
AcDbLine
10
8000.97321315
20
2705
11
8016
21
2705
0
ENDBLK
5
4F
330
4D
100
AcDbEntity
8
0
100
AcDbBlockEnd
0
BLOCK
5
51
330
50
100
AcDbEntity
8
0
100
AcDbBlockBegin
2
*D20
70
1
10
0
20
0
3
*D20
1

0
LINE
5
C8
100
AcDbEntity
8
2_subfloor_d
6
CONTINUOUS
62
7
370
0
100
AcDbLine
10
3639.5
20
2300
11
4040.5
21
2300
0
SOLID
5
C9
100
AcDbEntity
8
2_subfloor_d
6
CONTINUOUS
62
7
370
0
100
AcDbTrace
10
3767.5
20
2300
30
0
11
3703.5
21
2289.34311276
31
0
12
3703.5
22
2310.65688724
32
0
13
3703.5
23
2310.65688724
33
0
0
SOLID
5
CA
100
AcDbEntity
8
2_subfloor_d
6
CONTINUOUS
62
7
370
0
100
AcDbTrace
10
3912.5
20
2300
30
0
11
3976.5
21
2310.65688724
31
0
12
3976.5
22
2289.34311276
32
0
13
3976.5
23
2289.34311276
33
0
0
MTEXT
5
CB
100
AcDbEntity
8
2_subfloor_d
6
CONTINUOUS
62
7
370
0
100
AcDbMText
10
3840
20
2352
30
0
40
64
41
120.888888889
71
5
72
1
1
145
7
standard
210
0
220
0
230
1
50
0
73
2
44
1
0
LINE
5
CC
100
AcDbEntity
8
2_subfloor_d
6
CONTINUOUS
62
7
370
0
100
AcDbLine
10
3767.5
20
2299.58716489
11
3767.5
21
2284
0
LINE
5
CD
100
AcDbEntity
8
2_subfloor_d
6
CONTINUOUS
62
7
370
0
100
AcDbLine
10
3912.5
20
2299.58716489
11
3912.5
21
2284
0
ENDBLK
5
52
330
50
100
AcDbEntity
8
0
100
AcDbBlockEnd
0
BLOCK
5
54
330
53
100
AcDbEntity
8
0
100
AcDbBlockBegin
2
*D29
70
1
10
0
20
0
3
*D29
1

0
LINE
5
CE
100
AcDbEntity
8
2_subfloor_d
6
CONTINUOUS
62
7
370
0
100
AcDbLine
10
6987.5
20
2300
11
7417.5
21
2300
0
SOLID
5
CF
100
AcDbEntity
8
2_subfloor_d
6
CONTINUOUS
62
7
370
0
100
AcDbTrace
10
6987.5
20
2300
30
0
11
7051.5
21
2310.65688724
31
0
12
7051.5
22
2289.34311276
32
0
13
7051.5
23
2289.34311276
33
0
0
SOLID
5
D0
100
AcDbEntity
8
2_subfloor_d
6
CONTINUOUS
62
7
370
0
100
AcDbTrace
10
7417.5
20
2300
30
0
11
7353.5
21
2289.34311276
31
0
12
7353.5
22
2310.65688724
32
0
13
7353.5
23
2310.65688724
33
0
0
MTEXT
5
D1
100
AcDbEntity
8
2_subfloor_d
6
CONTINUOUS
62
7
370
0
100
AcDbMText
10
7202.5
20
2352
30
0
40
64
41
135.111111111
71
5
72
1
1
430
7
standard
210
0
220
0
230
1
50
0
73
2
44
1
0
LINE
5
D2
100
AcDbEntity
8
2_subfloor_d
6
CONTINUOUS
62
7
370
0
100
AcDbLine
10
6987.5
20
2298.70551867
11
6987.5
21
2284
0
LINE
5
D3
100
AcDbEntity
8
2_subfloor_d
6
CONTINUOUS
62
7
370
0
100
AcDbLine
10
7417.5
20
2302.23210353
11
7417.5
21
2284
0
ENDBLK
5
55
330
53
100
AcDbEntity
8
0
100
AcDbBlockEnd
0
BLOCK
5
57
330
56
100
AcDbEntity
8
0
100
AcDbBlockBegin
2
*D36
70
1
10
0
20
0
3
*D36
1

0
LINE
5
D4
100
AcDbEntity
8
1_base_d
6
CONTINUOUS
62
7
370
0
100
AcDbLine
10
7800
20
3865
11
7800
21
2755
0
SOLID
5
D5
100
AcDbEntity
8
1_base_d
6
CONTINUOUS
62
7
370
0
100
AcDbTrace
10
7800
20
3865
30
0
11
7810.65688724
21
3801
31
0
12
7789.34311276
22
3801
32
0
13
7789.34311276
23
3801
33
0
0
SOLID
5
D6
100
AcDbEntity
8
1_base_d
6
CONTINUOUS
62
7
370
0
100
AcDbTrace
10
7800
20
2755
30
0
11
7789.34311276
21
2819
31
0
12
7810.65688724
22
2819
32
0
13
7810.65688724
23
2819
33
0
0
MTEXT
5
D7
100
AcDbEntity
8
1_base_d
6
CONTINUOUS
62
7
370
0
100
AcDbMText
10
7748
20
3310
30
0
40
64
41
135.111111111
71
5
72
1
1
1115
7
standard
210
0
220
0
230
1
50
90
73
2
44
1
0
LINE
5
D8
100
AcDbEntity
8
1_base_d
6
CONTINUOUS
62
7
370
0
100
AcDbLine
10
7794.91581978
20
3865
11
7816
21
3865
0
LINE
5
D9
100
AcDbEntity
8
1_base_d
6
CONTINUOUS
62
7
370
0
100
AcDbLine
10
7802.02124714
20
2755
11
7816
21
2755
0
ENDBLK
5
58
330
56
100
AcDbEntity
8
0
100
AcDbBlockEnd
0
BLOCK
5
5A
330
59
100
AcDbEntity
8
0
100
AcDbBlockBegin
2
*D28
70
1
10
0
20
0
3
*D28
1

0
LINE
5
DA
100
AcDbEntity
8
2_subfloor_d
6
CONTINUOUS
62
7
370
0
100
AcDbLine
10
6562.5
20
2300
11
6987.5
21
2300
0
SOLID
5
DB
100
AcDbEntity
8
2_subfloor_d
6
CONTINUOUS
62
7
370
0
100
AcDbTrace
10
6562.5
20
2300
30
0
11
6626.5
21
2310.65688724
31
0
12
6626.5
22
2289.34311276
32
0
13
6626.5
23
2289.34311276
33
0
0
SOLID
5
DC
100
AcDbEntity
8
2_subfloor_d
6
CONTINUOUS
62
7
370
0
100
AcDbTrace
10
6987.5
20
2300
30
0
11
6923.5
21
2289.34311276
31
0
12
6923.5
22
2310.65688724
32
0
13
6923.5
23
2310.65688724
33
0
0
MTEXT
5
DD
100
AcDbEntity
8
2_subfloor_d
6
CONTINUOUS
62
7
370
0
100
AcDbMText
10
6775
20
2352
30
0
40
64
41
135.111111111
71
5
72
1
1
425
7
standard
210
0
220
0
230
1
50
0
73
2
44
1
0
LINE
5
DE
100
AcDbEntity
8
2_subfloor_d
6
CONTINUOUS
62
7
370
0
100
AcDbLine
10
6562.5
20
2295.17893381
11
6562.5
21
2284
0
LINE
5
DF
100
AcDbEntity
8
2_subfloor_d
6
CONTINUOUS
62
7
370
0
100
AcDbLine
10
6987.5
20
2298.70551867
11
6987.5
21
2284
0
ENDBLK
5
5B
330
59
100
AcDbEntity
8
0
100
AcDbBlockEnd
0
BLOCK
5
5D
330
5C
100
AcDbEntity
8
0
100
AcDbBlockBegin
2
*D34
70
1
10
0
20
0
3
*D34
1

0
LINE
5
E0
100
AcDbEntity
8
1_base_d
6
CONTINUOUS
62
7
370
0
100
AcDbLine
10
800
20
3865
11
800
21
2755
0
SOLID
5
E1
100
AcDbEntity
8
1_base_d
6
CONTINUOUS
62
7
370
0
100
AcDbTrace
10
800
20
3865
30
0
11
810.656887239
21
3801
31
0
12
789.343112761
22
3801
32
0
13
789.343112761
23
3801
33
0
0
SOLID
5
E2
100
AcDbEntity
8
1_base_d
6
CONTINUOUS
62
7
370
0
100
AcDbTrace
10
800
20
2755
30
0
11
789.343112761
21
2819
31
0
12
810.656887239
22
2819
32
0
13
810.656887239
23
2819
33
0
0
MTEXT
5
E3
100
AcDbEntity
8
1_base_d
6
CONTINUOUS
62
7
370
0
100
AcDbMText
10
748
20
3310
30
0
40
64
41
135.111111111
71
5
72
1
1
1115
7
standard
210
0
220
0
230
1
50
90
73
2
44
1
0
LINE
5
E4
100
AcDbEntity
8
1_base_d
6
CONTINUOUS
62
7
370
0
100
AcDbLine
10
791.1007002
20
3865
11
784
21
3865
0
LINE
5
E5
100
AcDbEntity
8
1_base_d
6
CONTINUOUS
62
7
370
0
100
AcDbLine
10
791.1007002
20
2755
11
784
21
2755
0
ENDBLK
5
5E
330
5C
100
AcDbEntity
8
0
100
AcDbBlockEnd
0
BLOCK
5
60
330
5F
100
AcDbEntity
8
0
100
AcDbBlockBegin
2
*D14
70
1
10
0
20
0
3
*D14
1

0
LINE
5
E6
100
AcDbEntity
8
2_subfloor_d
6
CONTINUOUS
62
7
370
0
100
AcDbLine
10
1753.5
20
2300
11
2017.5
21
2300
0
SOLID
5
E7
100
AcDbEntity
8
2_subfloor_d
6
CONTINUOUS
62
7
370
0
100
AcDbTrace
10
1753.5
20
2300
30
0
11
1817.5
21
2310.65688724
31
0
12
1817.5
22
2289.34311276
32
0
13
1817.5
23
2289.34311276
33
0
0
SOLID
5
E8
100
AcDbEntity
8
2_subfloor_d
6
CONTINUOUS
62
7
370
0
100
AcDbTrace
10
2017.5
20
2300
30
0
11
1953.5
21
2289.34311276
31
0
12
1953.5
22
2310.65688724
32
0
13
1953.5
23
2310.65688724
33
0
0
MTEXT
5
E9
100
AcDbEntity
8
2_subfloor_d
6
CONTINUOUS
62
7
370
0
100
AcDbMText
10
1885.5
20
2352
30
0
40
64
41
135.111111111
71
5
72
1
1
264
7
standard
210
0
220
0
230
1
50
0
73
2
44
1
0
LINE
5
EA
100
AcDbEntity
8
2_subfloor_d
6
CONTINUOUS
62
7
370
0
100
AcDbLine
10
1753.5
20
2290.77070273
11
1753.5
21
2284
0
LINE
5
EB
100
AcDbEntity
8
2_subfloor_d
6
CONTINUOUS
62
7
370
0
100
AcDbLine
10
2017.5
20
2290.77070273
11
2017.5
21
2284
0
ENDBLK
5
61
330
5F
100
AcDbEntity
8
0
100
AcDbBlockEnd
0
BLOCK
5
63
330
62
100
AcDbEntity
8
0
100
AcDbBlockBegin
2
*D9
70
1
10
0
20
0
3
*D9
1

0
LINE
5
EC
100
AcDbEntity
8
2_subfloor_d
6
CONTINUOUS
62
7
370
0
100
AcDbLine
10
7400
20
4600
11
7600
21
4700
0
LINE
5
ED
100
AcDbEntity
8
2_subfloor_d
6
CONTINUOUS
62
7
370
0
100
AcDbLine
10
7600
20
4700
11
8000
21
4700
0
SOLID
5
EE
100
AcDbEntity
8
2_subfloor_d
6
CONTINUOUS
62
7
370
0
100
AcDbTrace
10
7400
20
4600
30
0
11
7452.47743537
21
4638.15347983
31
0
12
7462.00924508
22
4619.08986039
32
0
13
7462.00924508
23
4619.08986039
33
0
0
ENDBLK
5
64
330
62
100
AcDbEntity
8
0
100
AcDbBlockEnd
0
BLOCK
5
66
330
65
100
AcDbEntity
8
0
100
AcDbBlockBegin
2
*D11
70
1
10
0
20
0
3
*D11
1

0
LINE
5
EF
100
AcDbEntity
8
1_base_d
6
CONTINUOUS
62
7
370
0
100
AcDbLine
10
5345
20
2100
11
7320
21
2100
0
SOLID
5
F0
100
AcDbEntity
8
1_base_d
6
CONTINUOUS
62
7
370
0
100
AcDbTrace
10
5345
20
2100
30
0
11
5409
21
2110.65688724
31
0
12
5409
22
2089.34311276
32
0
13
5409
23
2089.34311276
33
0
0
SOLID
5
F1
100
AcDbEntity
8
1_base_d
6
CONTINUOUS
62
7
370
0
100
AcDbTrace
10
7320
20
2100
30
0
11
7256
21
2089.34311276
31
0
12
7256
22
2110.65688724
32
0
13
7256
23
2110.65688724
33
0
0
MTEXT
5
F2
100
AcDbEntity
8
1_base_d
6
CONTINUOUS
62
7
370
0
100
AcDbMText
10
6332.5
20
2152
30
0
40
64
41
163.555555556
71
5
72
1
1
1975
7
standard
210
0
220
0
230
1
50
0
73
2
44
1
0
LINE
5
F3
100
AcDbEntity
8
1_base_d
6
CONTINUOUS
62
7
370
0
100
AcDbLine
10
5345
20
2092.96632384
11
5345
21
2116
0
LINE
5
F4
100
AcDbEntity
8
1_base_d
6
CONTINUOUS
62
7
370
0
100
AcDbLine
10
7320
20
2092.96632384
11
7320
21
2116
0
ENDBLK
5
67
330
65
100
AcDbEntity
8
0
100
AcDbBlockEnd
0
BLOCK
5
69
330
68
100
AcDbEntity
8
0
100
AcDbBlockBegin
2
*D17
70
1
10
0
20
0
3
*D17
1

0
LINE
5
F5
100
AcDbEntity
8
2_subfloor_d
6
CONTINUOUS
62
7
370
0
100
AcDbLine
10
2526.5
20
2300
11
2940.5
21
2300
0
SOLID
5
F6
100
AcDbEntity
8
2_subfloor_d
6
CONTINUOUS
62
7
370
0
100
AcDbTrace
10
2526.5
20
2300
30
0
11
2590.5
21
2310.65688724
31
0
12
2590.5
22
2289.34311276
32
0
13
2590.5
23
2289.34311276
33
0
0
SOLID
5
F7
100
AcDbEntity
8
2_subfloor_d
6
CONTINUOUS
62
7
370
0
100
AcDbTrace
10
2940.5
20
2300
30
0
11
2876.5
21
2289.34311276
31
0
12
2876.5
22
2310.65688724
32
0
13
2876.5
23
2310.65688724
33
0
0
MTEXT
5
F8
100
AcDbEntity
8
2_subfloor_d
6
CONTINUOUS
62
7
370
0
100
AcDbMText
10
2733.5
20
2352
30
0
40
64
41
128
71
5
72
1
1
414
7
standard
210
0
220
0
230
1
50
0
73
2
44
1
0
LINE
5
F9
100
AcDbEntity
8
2_subfloor_d
6
CONTINUOUS
62
7
370
0
100
AcDbLine
10
2526.5
20
2299.58716489
11
2526.5
21
2284
0
LINE
5
FA
100
AcDbEntity
8
2_subfloor_d
6
CONTINUOUS
62
7
370
0
100
AcDbLine
10
2940.5
20
2295.17893381
11
2940.5
21
2284
0
ENDBLK
5
6A
330
68
100
AcDbEntity
8
0
100
AcDbBlockEnd
0
BLOCK
5
6C
330
6B
100
AcDbEntity
8
0
100
AcDbBlockBegin
2
*D33
70
1
10
0
20
0
3
*D33
1

0
LINE
5
FB
100
AcDbEntity
8
1_base_d
6
CONTINUOUS
62
7
370
0
100
AcDbLine
10
800
20
4975
11
800
21
3865
0
SOLID
5
FC
100
AcDbEntity
8
1_base_d
6
CONTINUOUS
62
7
370
0
100
AcDbTrace
10
800
20
4975
30
0
11
810.656887239
21
4911
31
0
12
789.343112761
22
4911
32
0
13
789.343112761
23
4911
33
0
0
SOLID
5
FD
100
AcDbEntity
8
1_base_d
6
CONTINUOUS
62
7
370
0
100
AcDbTrace
10
800
20
3865
30
0
11
789.343112761
21
3929
31
0
12
810.656887239
22
3929
32
0
13
810.656887239
23
3929
33
0
0
MTEXT
5
FE
100
AcDbEntity
8
1_base_d
6
CONTINUOUS
62
7
370
0
100
AcDbMText
10
748
20
4420
30
0
40
64
41
135.111111111
71
5
72
1
1
1115
7
standard
210
0
220
0
230
1
50
90
73
2
44
1
0
LINE
5
FF
100
AcDbEntity
8
1_base_d
6
CONTINUOUS
62
7
370
0
100
AcDbLine
10
802.74223238
20
4975
11
784
21
4975
0
LINE
5
100
100
AcDbEntity
8
1_base_d
6
CONTINUOUS
62
7
370
0
100
AcDbLine
10
802.74223238
20
3865
11
784
21
3865
0
ENDBLK
5
6D
330
6B
100
AcDbEntity
8
0
100
AcDbBlockEnd
0
BLOCK
5
6F
330
6E
100
AcDbEntity
8
0
100
AcDbBlockBegin
2
*D15
70
1
10
0
20
0
3
*D15
1

0
LINE
5
101
100
AcDbEntity
8
2_subfloor_d
6
CONTINUOUS
62
7
370
0
100
AcDbLine
10
1889.5
20
2300
11
2240.5
21
2300
0
SOLID
5
102
100
AcDbEntity
8
2_subfloor_d
6
CONTINUOUS
62
7
370
0
100
AcDbTrace
10
2017.5
20
2300
30
0
11
1953.5
21
2289.34311276
31
0
12
1953.5
22
2310.65688724
32
0
13
1953.5
23
2310.65688724
33
0
0
SOLID
5
103
100
AcDbEntity
8
2_subfloor_d
6
CONTINUOUS
62
7
370
0
100
AcDbTrace
10
2112.5
20
2300
30
0
11
2176.5
21
2310.65688724
31
0
12
2176.5
22
2289.34311276
32
0
13
2176.5
23
2289.34311276
33
0
0
MTEXT
5
104
100
AcDbEntity
8
2_subfloor_d
6
CONTINUOUS
62
7
370
0
100
AcDbMText
10
2065
20
2352
30
0
40
64
41
78.2222222222
71
5
72
1
1
95
7
standard
210
0
220
0
230
1
50
0
73
2
44
1
0
LINE
5
105
100
AcDbEntity
8
2_subfloor_d
6
CONTINUOUS
62
7
370
0
100
AcDbLine
10
2017.5
20
2290.77070273
11
2017.5
21
2284
0
LINE
5
106
100
AcDbEntity
8
2_subfloor_d
6
CONTINUOUS
62
7
370
0
100
AcDbLine
10
2112.5
20
2290.77070273
11
2112.5
21
2284
0
ENDBLK
5
70
330
6E
100
AcDbEntity
8
0
100
AcDbBlockEnd
0
BLOCK
5
72
330
71
100
AcDbEntity
8
0
100
AcDbBlockBegin
2
*D5
70
1
10
0
20
0
3
*D5
1

0
LINE
5
107
100
AcDbEntity
8
1_base_d
6
CONTINUOUS
62
7
370
0
100
AcDbLine
10
1205
20
5700
11
7440
21
5700
0
SOLID
5
108
100
AcDbEntity
8
1_base_d
6
CONTINUOUS
62
7
370
0
100
AcDbTrace
10
1205
20
5700
30
0
11
1269
21
5710.65688724
31
0
12
1269
22
5689.34311276
32
0
13
1269
23
5689.34311276
33
0
0
SOLID
5
109
100
AcDbEntity
8
1_base_d
6
CONTINUOUS
62
7
370
0
100
AcDbTrace
10
7440
20
5700
30
0
11
7376
21
5689.34311276
31
0
12
7376
22
5710.65688724
32
0
13
7376
23
5710.65688724
33
0
0
MTEXT
5
10A
100
AcDbEntity
8
1_base_d
6
CONTINUOUS
62
7
370
0
100
AcDbMText
10
4322.5
20
5752
30
0
40
64
41
177.777777778
71
5
72
1
1
6235
7
standard
210
0
220
0
230
1
50
0
73
2
44
1
0
LINE
5
10B
100
AcDbEntity
8
1_base_d
6
CONTINUOUS
62
7
370
0
100
AcDbLine
10
1205
20
5691.70932193
11
1205
21
5716
0
LINE
5
10C
100
AcDbEntity
8
1_base_d
6
CONTINUOUS
62
7
370
0
100
AcDbLine
10
7440
20
5684.60389457
11
7440
21
5716
0
ENDBLK
5
73
330
71
100
AcDbEntity
8
0
100
AcDbBlockEnd
0
BLOCK
5
75
330
74
100
AcDbEntity
8
0
100
AcDbBlockBegin
2
*D23
70
1
10
0
20
0
3
*D23
1

0
LINE
5
10D
100
AcDbEntity
8
2_subfloor_d
6
CONTINUOUS
62
7
370
0
100
AcDbLine
10
4742.5
20
2300
11
5157.5
21
2300
0
SOLID
5
10E
100
AcDbEntity
8
2_subfloor_d
6
CONTINUOUS
62
7
370
0
100
AcDbTrace
10
4742.5
20
2300
30
0
11
4806.5
21
2310.65688724
31
0
12
4806.5
22
2289.34311276
32
0
13
4806.5
23
2289.34311276
33
0
0
SOLID
5
10F
100
AcDbEntity
8
2_subfloor_d
6
CONTINUOUS
62
7
370
0
100
AcDbTrace
10
5157.5
20
2300
30
0
11
5093.5
21
2289.34311276
31
0
12
5093.5
22
2310.65688724
32
0
13
5093.5
23
2310.65688724
33
0
0
MTEXT
5
110
100
AcDbEntity
8
2_subfloor_d
6
CONTINUOUS
62
7
370
0
100
AcDbMText
10
4950
20
2352
30
0
40
64
41
120.888888889
71
5
72
1
1
415
7
standard
210
0
220
0
230
1
50
0
73
2
44
1
0
LINE
5
111
100
AcDbEntity
8
2_subfloor_d
6
CONTINUOUS
62
7
370
0
100
AcDbLine
10
4742.5
20
2295.17893381
11
4742.5
21
2284
0
LINE
5
112
100
AcDbEntity
8
2_subfloor_d
6
CONTINUOUS
62
7
370
0
100
AcDbLine
10
5157.5
20
2295.17893381
11
5157.5
21
2284
0
ENDBLK
5
76
330
74
100
AcDbEntity
8
0
100
AcDbBlockEnd
0
BLOCK
5
78
330
77
100
AcDbEntity
8
0
100
AcDbBlockBegin
2
*D16
70
1
10
0
20
0
3
*D16
1

0
LINE
5
113
100
AcDbEntity
8
2_subfloor_d
6
CONTINUOUS
62
7
370
0
100
AcDbLine
10
2112.5
20
2300
11
2526.5
21
2300
0
SOLID
5
114
100
AcDbEntity
8
2_subfloor_d
6
CONTINUOUS
62
7
370
0
100
AcDbTrace
10
2112.5
20
2300
30
0
11
2176.5
21
2310.65688724
31
0
12
2176.5
22
2289.34311276
32
0
13
2176.5
23
2289.34311276
33
0
0
SOLID
5
115
100
AcDbEntity
8
2_subfloor_d
6
CONTINUOUS
62
7
370
0
100
AcDbTrace
10
2526.5
20
2300
30
0
11
2462.5
21
2289.34311276
31
0
12
2462.5
22
2310.65688724
32
0
13
2462.5
23
2310.65688724
33
0
0
MTEXT
5
116
100
AcDbEntity
8
2_subfloor_d
6
CONTINUOUS
62
7
370
0
100
AcDbMText
10
2319.5
20
2352
30
0
40
64
41
128
71
5
72
1
1
414
7
standard
210
0
220
0
230
1
50
0
73
2
44
1
0
LINE
5
117
100
AcDbEntity
8
2_subfloor_d
6
CONTINUOUS
62
7
370
0
100
AcDbLine
10
2112.5
20
2286.36247165
11
2112.5
21
2284
0
LINE
5
118
100
AcDbEntity
8
2_subfloor_d
6
CONTINUOUS
62
7
370
0
100
AcDbLine
10
2526.5
20
2290.77070273
11
2526.5
21
2284
0
ENDBLK
5
79
330
77
100
AcDbEntity
8
0
100
AcDbBlockEnd
0
BLOCK
5
7B
330
7A
100
AcDbEntity
8
0
100
AcDbBlockBegin
2
*D10
70
1
10
0
20
0
3
*D10
1

0
LINE
5
119
100
AcDbEntity
8
1_base_d
6
CONTINUOUS
62
7
370
0
100
AcDbLine
10
1325
20
2100
11
3300
21
2100
0
SOLID
5
11A
100
AcDbEntity
8
1_base_d
6
CONTINUOUS
62
7
370
0
100
AcDbTrace
10
1325
20
2100
30
0
11
1389
21
2110.65688724
31
0
12
1389
22
2089.34311276
32
0
13
1389
23
2089.34311276
33
0
0
SOLID
5
11B
100
AcDbEntity
8
1_base_d
6
CONTINUOUS
62
7
370
0
100
AcDbTrace
10
3300
20
2100
30
0
11
3236
21
2089.34311276
31
0
12
3236
22
2110.65688724
32
0
13
3236
23
2110.65688724
33
0
0
MTEXT
5
11C
100
AcDbEntity
8
1_base_d
6
CONTINUOUS
62
7
370
0
100
AcDbMText
10
2312.5
20
2152
30
0
40
64
41
163.555555556
71
5
72
1
1
1975
7
standard
210
0
220
0
230
1
50
0
73
2
44
1
0
LINE
5
11D
100
AcDbEntity
8
1_base_d
6
CONTINUOUS
62
7
370
0
100
AcDbLine
10
1325
20
2106.70824978
11
1325
21
2116
0
LINE
5
11E
100
AcDbEntity
8
1_base_d
6
CONTINUOUS
62
7
370
0
100
AcDbLine
10
3300
20
2106.70824978
11
3300
21
2116
0
ENDBLK
5
7C
330
7A
100
AcDbEntity
8
0
100
AcDbBlockEnd
0
BLOCK
5
7E
330
7D
100
AcDbEntity
8
0
100
AcDbBlockBegin
2
*D25
70
1
10
0
20
0
3
*D25
1

0
LINE
5
11F
100
AcDbEntity
8
2_subfloor_d
6
CONTINUOUS
62
7
370
0
100
AcDbLine
10
5439.5
20
2300
11
5840.5
21
2300
0
SOLID
5
120
100
AcDbEntity
8
2_subfloor_d
6
CONTINUOUS
62
7
370
0
100
AcDbTrace
10
5567.5
20
2300
30
0
11
5503.5
21
2289.34311276
31
0
12
5503.5
22
2310.65688724
32
0
13
5503.5
23
2310.65688724
33
0
0
SOLID
5
121
100
AcDbEntity
8
2_subfloor_d
6
CONTINUOUS
62
7
370
0
100
AcDbTrace
10
5712.5
20
2300
30
0
11
5776.5
21
2310.65688724
31
0
12
5776.5
22
2289.34311276
32
0
13
5776.5
23
2289.34311276
33
0
0
MTEXT
5
122
100
AcDbEntity
8
2_subfloor_d
6
CONTINUOUS
62
7
370
0
100
AcDbMText
10
5640
20
2352
30
0
40
64
41
120.888888889
71
5
72
1
1
145
7
standard
210
0
220
0
230
1
50
0
73
2
44
1
0
LINE
5
123
100
AcDbEntity
8
2_subfloor_d
6
CONTINUOUS
62
7
370
0
100
AcDbLine
10
5567.5
20
2281.95424057
11
5567.5
21
2284
0
LINE
5
124
100
AcDbEntity
8
2_subfloor_d
6
CONTINUOUS
62
7
370
0
100
AcDbLine
10
5712.5
20
2286.36247165
11
5712.5
21
2284
0
ENDBLK
5
7F
330
7D
100
AcDbEntity
8
0
100
AcDbBlockEnd
0
BLOCK
5
81
330
80
100
AcDbEntity
8
0
100
AcDbBlockBegin
2
*D1
70
1
10
0
20
0
3
*D1
1

0
ENDBLK
5
82
330
80
100
AcDbEntity
8
0
100
AcDbBlockEnd
0
BLOCK
5
84
330
83
100
AcDbEntity
8
0
100
AcDbBlockBegin
2
*D12
70
1
10
0
20
0
3
*D12
1

0
LINE
5
125
100
AcDbEntity
8
2_subfloor_d
6
CONTINUOUS
62
7
370
0
100
AcDbLine
10
1227.5
20
2300
11
1490.5
21
2300
0
SOLID
5
126
100
AcDbEntity
8
2_subfloor_d
6
CONTINUOUS
62
7
370
0
100
AcDbTrace
10
1227.5
20
2300
30
0
11
1291.5
21
2310.65688724
31
0
12
1291.5
22
2289.34311276
32
0
13
1291.5
23
2289.34311276
33
0
0
SOLID
5
127
100
AcDbEntity
8
2_subfloor_d
6
CONTINUOUS
62
7
370
0
100
AcDbTrace
10
1490.5
20
2300
30
0
11
1426.5
21
2289.34311276
31
0
12
1426.5
22
2310.65688724
32
0
13
1426.5
23
2310.65688724
33
0
0
MTEXT
5
128
100
AcDbEntity
8
2_subfloor_d
6
CONTINUOUS
62
7
370
0
100
AcDbMText
10
1359
20
2352
30
0
40
64
41
128
71
5
72
1
1
263
7
standard
210
0
220
0
230
1
50
0
73
2
44
1
0
LINE
5
129
100
AcDbEntity
8
2_subfloor_d
6
CONTINUOUS
62
7
370
0
100
AcDbLine
10
1227.5
20
2299.58716489
11
1227.5
21
2284
0
LINE
5
12A
100
AcDbEntity
8
2_subfloor_d
6
CONTINUOUS
62
7
370
0
100
AcDbLine
10
1490.5
20
2299.58716489
11
1490.5
21
2284
0
ENDBLK
5
85
330
83
100
AcDbEntity
8
0
100
AcDbBlockEnd
0
BLOCK
5
87
330
86
100
AcDbEntity
8
0
100
AcDbBlockBegin
2
*D31
70
1
10
0
20
0
3
*D31
1

0
LINE
5
12B
100
AcDbEntity
8
1_base_d
6
CONTINUOUS
62
7
370
0
100
AcDbLine
10
5345
20
5500
11
7320
21
5500
0
SOLID
5
12C
100
AcDbEntity
8
1_base_d
6
CONTINUOUS
62
7
370
0
100
AcDbTrace
10
5345
20
5500
30
0
11
5409
21
5510.65688724
31
0
12
5409
22
5489.34311276
32
0
13
5409
23
5489.34311276
33
0
0
SOLID
5
12D
100
AcDbEntity
8
1_base_d
6
CONTINUOUS
62
7
370
0
100
AcDbTrace
10
7320
20
5500
30
0
11
7256
21
5489.34311276
31
0
12
7256
22
5510.65688724
32
0
13
7256
23
5510.65688724
33
0
0
MTEXT
5
12E
100
AcDbEntity
8
1_base_d
6
CONTINUOUS
62
7
370
0
100
AcDbMText
10
6332.5
20
5552
30
0
40
64
41
163.555555556
71
5
72
1
1
1975
7
standard
210
0
220
0
230
1
50
0
73
2
44
1
0
LINE
5
12F
100
AcDbEntity
8
1_base_d
6
CONTINUOUS
62
7
370
0
100
AcDbLine
10
5345
20
5483.38346408
11
5345
21
5516
0
LINE
5
130
100
AcDbEntity
8
1_base_d
6
CONTINUOUS
62
7
370
0
100
AcDbLine
10
7320
20
5483.38346408
11
7320
21
5516
0
ENDBLK
5
88
330
86
100
AcDbEntity
8
0
100
AcDbBlockEnd
0
BLOCK
5
8A
330
89
100
AcDbEntity
8
0
100
AcDbBlockBegin
2
*D2
70
1
10
0
20
0
3
*D2
1

0
LINE
5
131
100
AcDbEntity
8
1_base_d
6
CONTINUOUS
62
7
370
0
100
AcDbLine
10
600
20
5025
11
600
21
2705
0
SOLID
5
132
100
AcDbEntity
8
1_base_d
6
CONTINUOUS
62
7
370
0
100
AcDbTrace
10
600
20
5025
30
0
11
610.656887239
21
4961
31
0
12
589.343112761
22
4961
32
0
13
589.343112761
23
4961
33
0
0
SOLID
5
133
100
AcDbEntity
8
1_base_d
6
CONTINUOUS
62
7
370
0
100
AcDbTrace
10
600
20
2705
30
0
11
589.343112761
21
2769
31
0
12
610.656887239
22
2769
32
0
13
610.656887239
23
2769
33
0
0
MTEXT
5
134
100
AcDbEntity
8
1_base_d
6
CONTINUOUS
62
7
370
0
100
AcDbMText
10
548
20
3865
30
0
40
64
41
177.777777778
71
5
72
1
1
2320
7
standard
210
0
220
0
230
1
50
90
73
2
44
1
0
LINE
5
135
100
AcDbEntity
8
1_base_d
6
CONTINUOUS
62
7
370
0
100
AcDbLine
10
639.760781824
20
5025
11
584
21
5025
0
LINE
5
136
100
AcDbEntity
8
1_base_d
6
CONTINUOUS
62
7
370
0
100
AcDbLine
10
642.67116487
20
2705
11
584
21
2705
0
ENDBLK
5
8B
330
89
100
AcDbEntity
8
0
100
AcDbBlockEnd
0
BLOCK
5
8D
330
8C
100
AcDbEntity
8
0
100
AcDbBlockBegin
2
*D6
70
1
10
0
20
0
3
*D6
1

0
LINE
5
137
100
AcDbEntity
8
2_subfloor_d
6
CONTINUOUS
62
7
370
0
100
AcDbLine
10
600
20
5025
11
600
21
2705
0
SOLID
5
138
100
AcDbEntity
8
2_subfloor_d
6
CONTINUOUS
62
7
370
0
100
AcDbTrace
10
600
20
5025
30
0
11
610.656887239
21
4961
31
0
12
589.343112761
22
4961
32
0
13
589.343112761
23
4961
33
0
0
SOLID
5
139
100
AcDbEntity
8
2_subfloor_d
6
CONTINUOUS
62
7
370
0
100
AcDbTrace
10
600
20
2705
30
0
11
589.343112761
21
2769
31
0
12
610.656887239
22
2769
32
0
13
610.656887239
23
2769
33
0
0
MTEXT
5
13A
100
AcDbEntity
8
2_subfloor_d
6
CONTINUOUS
62
7
370
0
100
AcDbMText
10
548
20
3865
30
0
40
64
41
177.777777778
71
5
72
1
1
2320
7
standard
210
0
220
0
230
1
50
90
73
2
44
1
0
LINE
5
13B
100
AcDbEntity
8
2_subfloor_d
6
CONTINUOUS
62
7
370
0
100
AcDbLine
10
639.760781824
20
5025
11
584
21
5025
0
LINE
5
13C
100
AcDbEntity
8
2_subfloor_d
6
CONTINUOUS
62
7
370
0
100
AcDbLine
10
642.67116487
20
2705
11
584
21
2705
0
ENDBLK
5
8E
330
8C
100
AcDbEntity
8
0
100
AcDbBlockEnd
0
BLOCK
5
90
330
8F
100
AcDbEntity
8
0
100
AcDbBlockBegin
2
*D18
70
1
10
0
20
0
3
*D18
1

0
LINE
5
13D
100
AcDbEntity
8
2_subfloor_d
6
CONTINUOUS
62
7
370
0
100
AcDbLine
10
2940.5
20
2300
11
3354.5
21
2300
0
SOLID
5
13E
100
AcDbEntity
8
2_subfloor_d
6
CONTINUOUS
62
7
370
0
100
AcDbTrace
10
2940.5
20
2300
30
0
11
3004.5
21
2310.65688724
31
0
12
3004.5
22
2289.34311276
32
0
13
3004.5
23
2289.34311276
33
0
0
SOLID
5
13F
100
AcDbEntity
8
2_subfloor_d
6
CONTINUOUS
62
7
370
0
100
AcDbTrace
10
3354.5
20
2300
30
0
11
3290.5
21
2289.34311276
31
0
12
3290.5
22
2310.65688724
32
0
13
3290.5
23
2310.65688724
33
0
0
MTEXT
5
140
100
AcDbEntity
8
2_subfloor_d
6
CONTINUOUS
62
7
370
0
100
AcDbMText
10
3147.5
20
2352
30
0
40
64
41
128
71
5
72
1
1
414
7
standard
210
0
220
0
230
1
50
0
73
2
44
1
0
LINE
5
141
100
AcDbEntity
8
2_subfloor_d
6
CONTINUOUS
62
7
370
0
100
AcDbLine
10
2940.5
20
2295.17893381
11
2940.5
21
2284
0
LINE
5
142
100
AcDbEntity
8
2_subfloor_d
6
CONTINUOUS
62
7
370
0
100
AcDbLine
10
3354.5
20
2295.17893381
11
3354.5
21
2284
0
ENDBLK
5
91
330
8F
100
AcDbEntity
8
0
100
AcDbBlockEnd
0
BLOCK
5
93
330
92
100
AcDbEntity
8
0
100
AcDbBlockBegin
2
*D8
70
1
10
0
20
0
3
*D8
1

0
LINE
5
143
100
AcDbEntity
8
2_subfloor_d
6
CONTINUOUS
62
7
370
0
100
AcDbLine
10
1205
20
5700
11
7440
21
5700
0
SOLID
5
144
100
AcDbEntity
8
2_subfloor_d
6
CONTINUOUS
62
7
370
0
100
AcDbTrace
10
1205
20
5700
30
0
11
1269
21
5710.65688724
31
0
12
1269
22
5689.34311276
32
0
13
1269
23
5689.34311276
33
0
0
SOLID
5
145
100
AcDbEntity
8
2_subfloor_d
6
CONTINUOUS
62
7
370
0
100
AcDbTrace
10
7440
20
5700
30
0
11
7376
21
5689.34311276
31
0
12
7376
22
5710.65688724
32
0
13
7376
23
5710.65688724
33
0
0
MTEXT
5
146
100
AcDbEntity
8
2_subfloor_d
6
CONTINUOUS
62
7
370
0
100
AcDbMText
10
4322.5
20
5752
30
0
40
64
41
177.777777778
71
5
72
1
1
6235
7
standard
210
0
220
0
230
1
50
0
73
2
44
1
0
LINE
5
147
100
AcDbEntity
8
2_subfloor_d
6
CONTINUOUS
62
7
370
0
100
AcDbLine
10
1205
20
5691.70932193
11
1205
21
5716
0
LINE
5
148
100
AcDbEntity
8
2_subfloor_d
6
CONTINUOUS
62
7
370
0
100
AcDbLine
10
7440
20
5684.60389457
11
7440
21
5716
0
ENDBLK
5
94
330
92
100
AcDbEntity
8
0
100
AcDbBlockEnd
0
BLOCK
5
96
330
95
100
AcDbEntity
8
0
100
AcDbBlockBegin
2
*D32
70
1
10
0
20
0
3
*D32
1

0
LINE
5
149
100
AcDbEntity
8
1_base_d
6
CONTINUOUS
62
7
370
0
100
AcDbLine
10
3300
20
2100
11
5345
21
2100
0
SOLID
5
14A
100
AcDbEntity
8
1_base_d
6
CONTINUOUS
62
7
370
0
100
AcDbTrace
10
3300
20
2100
30
0
11
3364
21
2110.65688724
31
0
12
3364
22
2089.34311276
32
0
13
3364
23
2089.34311276
33
0
0
SOLID
5
14B
100
AcDbEntity
8
1_base_d
6
CONTINUOUS
62
7
370
0
100
AcDbTrace
10
5345
20
2100
30
0
11
5281
21
2089.34311276
31
0
12
5281
22
2110.65688724
32
0
13
5281
23
2110.65688724
33
0
0
MTEXT
5
14C
100
AcDbEntity
8
1_base_d
6
CONTINUOUS
62
7
370
0
100
AcDbMText
10
4322.5
20
2152
30
0
40
64
41
177.777777778
71
5
72
1
1
2055
7
standard
210
0
220
0
230
1
50
0
73
2
44
1
0
LINE
5
14D
100
AcDbEntity
8
1_base_d
6
CONTINUOUS
62
7
370
0
100
AcDbLine
10
3300
20
2114.35333634
11
3300
21
2084
0
LINE
5
14E
100
AcDbEntity
8
1_base_d
6
CONTINUOUS
62
7
370
0
100
AcDbLine
10
5345
20
2108.62753386
11
5345
21
2084
0
ENDBLK
5
97
330
95
100
AcDbEntity
8
0
100
AcDbBlockEnd
0
BLOCK
5
99
330
98
100
AcDbEntity
8
0
100
AcDbBlockBegin
2
*D19
70
1
10
0
20
0
3
*D19
1

0
LINE
5
14F
100
AcDbEntity
8
2_subfloor_d
6
CONTINUOUS
62
7
370
0
100
AcDbLine
10
3354.5
20
2300
11
3767.5
21
2300
0
SOLID
5
150
100
AcDbEntity
8
2_subfloor_d
6
CONTINUOUS
62
7
370
0
100
AcDbTrace
10
3354.5
20
2300
30
0
11
3418.5
21
2310.65688724
31
0
12
3418.5
22
2289.34311276
32
0
13
3418.5
23
2289.34311276
33
0
0
SOLID
5
151
100
AcDbEntity
8
2_subfloor_d
6
CONTINUOUS
62
7
370
0
100
AcDbTrace
10
3767.5
20
2300
30
0
11
3703.5
21
2289.34311276
31
0
12
3703.5
22
2310.65688724
32
0
13
3703.5
23
2310.65688724
33
0
0
MTEXT
5
152
100
AcDbEntity
8
2_subfloor_d
6
CONTINUOUS
62
7
370
0
100
AcDbMText
10
3561
20
2352
30
0
40
64
41
120.888888889
71
5
72
1
1
413
7
standard
210
0
220
0
230
1
50
0
73
2
44
1
0
LINE
5
153
100
AcDbEntity
8
2_subfloor_d
6
CONTINUOUS
62
7
370
0
100
AcDbLine
10
3354.5
20
2303.99539596
11
3354.5
21
2284
0
LINE
5
154
100
AcDbEntity
8
2_subfloor_d
6
CONTINUOUS
62
7
370
0
100
AcDbLine
10
3767.5
20
2299.58716489
11
3767.5
21
2284
0
ENDBLK
5
9A
330
98
100
AcDbEntity
8
0
100
AcDbBlockEnd
0
BLOCK
5
9C
330
9B
100
AcDbEntity
8
0
100
AcDbBlockBegin
2
*D21
70
1
10
0
20
0
3
*D21
1

0
LINE
5
155
100
AcDbEntity
8
2_subfloor_d
6
CONTINUOUS
62
7
370
0
100
AcDbLine
10
3912.5
20
2300
11
4327.5
21
2300
0
SOLID
5
156
100
AcDbEntity
8
2_subfloor_d
6
CONTINUOUS
62
7
370
0
100
AcDbTrace
10
3912.5
20
2300
30
0
11
3976.5
21
2310.65688724
31
0
12
3976.5
22
2289.34311276
32
0
13
3976.5
23
2289.34311276
33
0
0
SOLID
5
157
100
AcDbEntity
8
2_subfloor_d
6
CONTINUOUS
62
7
370
0
100
AcDbTrace
10
4327.5
20
2300
30
0
11
4263.5
21
2289.34311276
31
0
12
4263.5
22
2310.65688724
32
0
13
4263.5
23
2310.65688724
33
0
0
MTEXT
5
158
100
AcDbEntity
8
2_subfloor_d
6
CONTINUOUS
62
7
370
0
100
AcDbMText
10
4120
20
2352
30
0
40
64
41
120.888888889
71
5
72
1
1
415
7
standard
210
0
220
0
230
1
50
0
73
2
44
1
0
LINE
5
159
100
AcDbEntity
8
2_subfloor_d
6
CONTINUOUS
62
7
370
0
100
AcDbLine
10
3912.5
20
2303.99539596
11
3912.5
21
2284
0
LINE
5
15A
100
AcDbEntity
8
2_subfloor_d
6
CONTINUOUS
62
7
370
0
100
AcDbLine
10
4327.5
20
2303.99539596
11
4327.5
21
2284
0
ENDBLK
5
9D
330
9B
100
AcDbEntity
8
0
100
AcDbBlockEnd
0
BLOCK
5
9F
330
9E
100
AcDbEntity
8
0
100
AcDbBlockBegin
2
*D4
70
1
10
0
20
0
3
*D4
1

0
LINE
5
15B
100
AcDbEntity
8
1_base_d
6
CONTINUOUS
62
7
370
0
100
AcDbLine
10
1205
20
1900
11
7440
21
1900
0
SOLID
5
15C
100
AcDbEntity
8
1_base_d
6
CONTINUOUS
62
7
370
0
100
AcDbTrace
10
1205
20
1900
30
0
11
1269
21
1910.65688724
31
0
12
1269
22
1889.34311276
32
0
13
1269
23
1889.34311276
33
0
0
SOLID
5
15D
100
AcDbEntity
8
1_base_d
6
CONTINUOUS
62
7
370
0
100
AcDbTrace
10
7440
20
1900
30
0
11
7376
21
1889.34311276
31
0
12
7376
22
1910.65688724
32
0
13
7376
23
1910.65688724
33
0
0
MTEXT
5
15E
100
AcDbEntity
8
1_base_d
6
CONTINUOUS
62
7
370
0
100
AcDbMText
10
4322.5
20
1952
30
0
40
64
41
177.777777778
71
5
72
1
1
6235
7
standard
210
0
220
0
230
1
50
0
73
2
44
1
0
LINE
5
15F
100
AcDbEntity
8
1_base_d
6
CONTINUOUS
62
7
370
0
100
AcDbLine
10
1205
20
1925.30880541
11
1205
21
1884
0
LINE
5
160
100
AcDbEntity
8
1_base_d
6
CONTINUOUS
62
7
370
0
100
AcDbLine
10
7440
20
1932.41423277
11
7440
21
1884
0
ENDBLK
5
A0
330
9E
100
AcDbEntity
8
0
100
AcDbBlockEnd
0
BLOCK
5
A2
330
A1
100
AcDbEntity
8
0
100
AcDbBlockBegin
2
*D22
70
1
10
0
20
0
3
*D22
1

0
LINE
5
161
100
AcDbEntity
8
2_subfloor_d
6
CONTINUOUS
62
7
370
0
100
AcDbLine
10
4327.5
20
2300
11
4742.5
21
2300
0
SOLID
5
162
100
AcDbEntity
8
2_subfloor_d
6
CONTINUOUS
62
7
370
0
100
AcDbTrace
10
4327.5
20
2300
30
0
11
4391.5
21
2310.65688724
31
0
12
4391.5
22
2289.34311276
32
0
13
4391.5
23
2289.34311276
33
0
0
SOLID
5
163
100
AcDbEntity
8
2_subfloor_d
6
CONTINUOUS
62
7
370
0
100
AcDbTrace
10
4742.5
20
2300
30
0
11
4678.5
21
2289.34311276
31
0
12
4678.5
22
2310.65688724
32
0
13
4678.5
23
2310.65688724
33
0
0
MTEXT
5
164
100
AcDbEntity
8
2_subfloor_d
6
CONTINUOUS
62
7
370
0
100
AcDbMText
10
4535
20
2352
30
0
40
64
41
120.888888889
71
5
72
1
1
415
7
standard
210
0
220
0
230
1
50
0
73
2
44
1
0
LINE
5
165
100
AcDbEntity
8
2_subfloor_d
6
CONTINUOUS
62
7
370
0
100
AcDbLine
10
4327.5
20
2303.99539596
11
4327.5
21
2284
0
LINE
5
166
100
AcDbEntity
8
2_subfloor_d
6
CONTINUOUS
62
7
370
0
100
AcDbLine
10
4742.5
20
2303.99539596
11
4742.5
21
2284
0
ENDBLK
5
A3
330
A1
100
AcDbEntity
8
0
100
AcDbBlockEnd
0
BLOCK
5
A5
330
A4
100
AcDbEntity
8
0
100
AcDbBlockBegin
2
*D27
70
1
10
0
20
0
3
*D27
1

0
LINE
5
167
100
AcDbEntity
8
2_subfloor_d
6
CONTINUOUS
62
7
370
0
100
AcDbLine
10
6137.5
20
2300
11
6562.5
21
2300
0
SOLID
5
168
100
AcDbEntity
8
2_subfloor_d
6
CONTINUOUS
62
7
370
0
100
AcDbTrace
10
6137.5
20
2300
30
0
11
6201.5
21
2310.65688724
31
0
12
6201.5
22
2289.34311276
32
0
13
6201.5
23
2289.34311276
33
0
0
SOLID
5
169
100
AcDbEntity
8
2_subfloor_d
6
CONTINUOUS
62
7
370
0
100
AcDbTrace
10
6562.5
20
2300
30
0
11
6498.5
21
2289.34311276
31
0
12
6498.5
22
2310.65688724
32
0
13
6498.5
23
2310.65688724
33
0
0
MTEXT
5
16A
100
AcDbEntity
8
2_subfloor_d
6
CONTINUOUS
62
7
370
0
100
AcDbMText
10
6350
20
2352
30
0
40
64
41
135.111111111
71
5
72
1
1
425
7
standard
210
0
220
0
230
1
50
0
73
2
44
1
0
LINE
5
16B
100
AcDbEntity
8
2_subfloor_d
6
CONTINUOUS
62
7
370
0
100
AcDbLine
10
6137.5
20
2308.40362704
11
6137.5
21
2284
0
LINE
5
16C
100
AcDbEntity
8
2_subfloor_d
6
CONTINUOUS
62
7
370
0
100
AcDbLine
10
6562.5
20
2299.58716489
11
6562.5
21
2284
0
ENDBLK
5
A6
330
A4
100
AcDbEntity
8
0
100
AcDbBlockEnd
0
BLOCK
5
A8
330
A7
100
AcDbEntity
8
0
100
AcDbBlockBegin
2
*D3
70
1
10
0
20
0
3
*D3
1

0
LINE
5
16D
100
AcDbEntity
8
1_base_d
6
CONTINUOUS
62
7
370
0
100
AcDbLine
10
8000
20
5025
11
8000
21
2705
0
SOLID
5
16E
100
AcDbEntity
8
1_base_d
6
CONTINUOUS
62
7
370
0
100
AcDbTrace
10
8000
20
5025
30
0
11
8010.65688724
21
4961
31
0
12
7989.34311276
22
4961
32
0
13
7989.34311276
23
4961
33
0
0
SOLID
5
16F
100
AcDbEntity
8
1_base_d
6
CONTINUOUS
62
7
370
0
100
AcDbTrace
10
8000
20
2705
30
0
11
7989.34311276
21
2769
31
0
12
8010.65688724
22
2769
32
0
13
8010.65688724
23
2769
33
0
0
MTEXT
5
170
100
AcDbEntity
8
1_base_d
6
CONTINUOUS
62
7
370
0
100
AcDbMText
10
7948
20
3865
30
0
40
64
41
177.777777778
71
5
72
1
1
2320
7
standard
210
0
220
0
230
1
50
90
73
2
44
1
0
LINE
5
171
100
AcDbEntity
8
1_base_d
6
CONTINUOUS
62
7
370
0
100
AcDbLine
10
7979.65693108
20
5025
11
8016
21
5025
0
LINE
5
172
100
AcDbEntity
8
1_base_d
6
CONTINUOUS
62
7
370
0
100
AcDbLine
10
8000.97321315
20
2705
11
8016
21
2705
0
ENDBLK
5
A9
330
A7
100
AcDbEntity
8
0
100
AcDbBlockEnd
0
BLOCK
5
AB
330
AA
100
AcDbEntity
8
0
100
AcDbBlockBegin
2
*D24
70
1
10
0
20
0
3
*D24
1

0
LINE
5
173
100
AcDbEntity
8
2_subfloor_d
6
CONTINUOUS
62
7
370
0
100
AcDbLine
10
5157.5
20
2300
11
5567.5
21
2300
0
SOLID
5
174
100
AcDbEntity
8
2_subfloor_d
6
CONTINUOUS
62
7
370
0
100
AcDbTrace
10
5157.5
20
2300
30
0
11
5221.5
21
2310.65688724
31
0
12
5221.5
22
2289.34311276
32
0
13
5221.5
23
2289.34311276
33
0
0
SOLID
5
175
100
AcDbEntity
8
2_subfloor_d
6
CONTINUOUS
62
7
370
0
100
AcDbTrace
10
5567.5
20
2300
30
0
11
5503.5
21
2289.34311276
31
0
12
5503.5
22
2310.65688724
32
0
13
5503.5
23
2310.65688724
33
0
0
MTEXT
5
176
100
AcDbEntity
8
2_subfloor_d
6
CONTINUOUS
62
7
370
0
100
AcDbMText
10
5362.5
20
2352
30
0
40
64
41
120.888888889
71
5
72
1
1
410
7
standard
210
0
220
0
230
1
50
0
73
2
44
1
0
LINE
5
177
100
AcDbEntity
8
2_subfloor_d
6
CONTINUOUS
62
7
370
0
100
AcDbLine
10
5157.5
20
2290.77070273
11
5157.5
21
2284
0
LINE
5
178
100
AcDbEntity
8
2_subfloor_d
6
CONTINUOUS
62
7
370
0
100
AcDbLine
10
5567.5
20
2290.77070273
11
5567.5
21
2284
0
ENDBLK
5
AC
330
AA
100
AcDbEntity
8
0
100
AcDbBlockEnd
0
BLOCK
5
AE
330
AD
100
AcDbEntity
8
0
100
AcDbBlockBegin
2
*D26
70
1
10
0
20
0
3
*D26
1

0
LINE
5
179
100
AcDbEntity
8
2_subfloor_d
6
CONTINUOUS
62
7
370
0
100
AcDbLine
10
5712.5
20
2300
11
6137.5
21
2300
0
SOLID
5
17A
100
AcDbEntity
8
2_subfloor_d
6
CONTINUOUS
62
7
370
0
100
AcDbTrace
10
5712.5
20
2300
30
0
11
5776.5
21
2310.65688724
31
0
12
5776.5
22
2289.34311276
32
0
13
5776.5
23
2289.34311276
33
0
0
SOLID
5
17B
100
AcDbEntity
8
2_subfloor_d
6
CONTINUOUS
62
7
370
0
100
AcDbTrace
10
6137.5
20
2300
30
0
11
6073.5
21
2289.34311276
31
0
12
6073.5
22
2310.65688724
32
0
13
6073.5
23
2310.65688724
33
0
0
MTEXT
5
17C
100
AcDbEntity
8
2_subfloor_d
6
CONTINUOUS
62
7
370
0
100
AcDbMText
10
5925
20
2352
30
0
40
64
41
135.111111111
71
5
72
1
1
425
7
standard
210
0
220
0
230
1
50
0
73
2
44
1
0
LINE
5
17D
100
AcDbEntity
8
2_subfloor_d
6
CONTINUOUS
62
7
370
0
100
AcDbLine
10
5712.5
20
2295.17893381
11
5712.5
21
2284
0
LINE
5
17E
100
AcDbEntity
8
2_subfloor_d
6
CONTINUOUS
62
7
370
0
100
AcDbLine
10
6137.5
20
2299.58716489
11
6137.5
21
2284
0
ENDBLK
5
AF
330
AD
100
AcDbEntity
8
0
100
AcDbBlockEnd
0
BLOCK
5
B1
330
B0
100
AcDbEntity
8
0
100
AcDbBlockBegin
2
*D37
70
1
10
0
20
0
3
*D37
1

0
LINE
5
17F
100
AcDbEntity
8
1_base_d
6
CONTINUOUS
62
7
370
0
100
AcDbLine
10
3300
20
5500
11
5345
21
5500
0
SOLID
5
180
100
AcDbEntity
8
1_base_d
6
CONTINUOUS
62
7
370
0
100
AcDbTrace
10
3300
20
5500
30
0
11
3364
21
5510.65688724
31
0
12
3364
22
5489.34311276
32
0
13
3364
23
5489.34311276
33
0
0
SOLID
5
181
100
AcDbEntity
8
1_base_d
6
CONTINUOUS
62
7
370
0
100
AcDbTrace
10
5345
20
5500
30
0
11
5281
21
5489.34311276
31
0
12
5281
22
5510.65688724
32
0
13
5281
23
5510.65688724
33
0
0
MTEXT
5
182
100
AcDbEntity
8
1_base_d
6
CONTINUOUS
62
7
370
0
100
AcDbMText
10
4322.5
20
5552
30
0
40
64
41
177.777777778
71
5
72
1
1
2055
7
standard
210
0
220
0
230
1
50
0
73
2
44
1
0
LINE
5
183
100
AcDbEntity
8
1_base_d
6
CONTINUOUS
62
7
370
0
100
AcDbLine
10
3300
20
5489.51235324
11
3300
21
5516
0
LINE
5
184
100
AcDbEntity
8
1_base_d
6
CONTINUOUS
62
7
370
0
100
AcDbLine
10
5345
20
5489.51235324
11
5345
21
5516
0
ENDBLK
5
B2
330
B0
100
AcDbEntity
8
0
100
AcDbBlockEnd
0
BLOCK
5
B4
330
B3
100
AcDbEntity
8
0
100
AcDbBlockBegin
2
*D13
70
1
10
0
20
0
3
*D13
1

0
LINE
5
185
100
AcDbEntity
8
2_subfloor_d
6
CONTINUOUS
62
7
370
0
100
AcDbLine
10
1490.5
20
2300
11
1753.5
21
2300
0
SOLID
5
186
100
AcDbEntity
8
2_subfloor_d
6
CONTINUOUS
62
7
370
0
100
AcDbTrace
10
1490.5
20
2300
30
0
11
1554.5
21
2310.65688724
31
0
12
1554.5
22
2289.34311276
32
0
13
1554.5
23
2289.34311276
33
0
0
SOLID
5
187
100
AcDbEntity
8
2_subfloor_d
6
CONTINUOUS
62
7
370
0
100
AcDbTrace
10
1753.5
20
2300
30
0
11
1689.5
21
2289.34311276
31
0
12
1689.5
22
2310.65688724
32
0
13
1689.5
23
2310.65688724
33
0
0
MTEXT
5
188
100
AcDbEntity
8
2_subfloor_d
6
CONTINUOUS
62
7
370
0
100
AcDbMText
10
1622
20
2352
30
0
40
64
41
128
71
5
72
1
1
263
7
standard
210
0
220
0
230
1
50
0
73
2
44
1
0
LINE
5
189
100
AcDbEntity
8
2_subfloor_d
6
CONTINUOUS
62
7
370
0
100
AcDbLine
10
1490.5
20
2295.17893381
11
1490.5
21
2284
0
LINE
5
18A
100
AcDbEntity
8
2_subfloor_d
6
CONTINUOUS
62
7
370
0
100
AcDbLine
10
1753.5
20
2290.77070273
11
1753.5
21
2284
0
ENDBLK
5
B5
330
B3
100
AcDbEntity
8
0
100
AcDbBlockEnd
0
BLOCK
5
B7
330
B6
100
AcDbEntity
8
0
100
AcDbBlockBegin
2
*D35
70
1
10
0
20
0
3
*D35
1

0
LINE
5
18B
100
AcDbEntity
8
1_base_d
6
CONTINUOUS
62
7
370
0
100
AcDbLine
10
7800
20
4975
11
7800
21
3865
0
SOLID
5
18C
100
AcDbEntity
8
1_base_d
6
CONTINUOUS
62
7
370
0
100
AcDbTrace
10
7800
20
4975
30
0
11
7810.65688724
21
4911
31
0
12
7789.34311276
22
4911
32
0
13
7789.34311276
23
4911
33
0
0
SOLID
5
18D
100
AcDbEntity
8
1_base_d
6
CONTINUOUS
62
7
370
0
100
AcDbTrace
10
7800
20
3865
30
0
11
7789.34311276
21
3929
31
0
12
7810.65688724
22
3929
32
0
13
7810.65688724
23
3929
33
0
0
MTEXT
5
18E
100
AcDbEntity
8
1_base_d
6
CONTINUOUS
62
7
370
0
100
AcDbMText
10
7748
20
4420
30
0
40
64
41
135.111111111
71
5
72
1
1
1115
7
standard
210
0
220
0
230
1
50
90
73
2
44
1
0
LINE
5
18F
100
AcDbEntity
8
1_base_d
6
CONTINUOUS
62
7
370
0
100
AcDbLine
10
7802.02124714
20
4975
11
7816
21
4975
0
LINE
5
190
100
AcDbEntity
8
1_base_d
6
CONTINUOUS
62
7
370
0
100
AcDbLine
10
7802.02124714
20
3865
11
7816
21
3865
0
ENDBLK
5
B8
330
B6
100
AcDbEntity
8
0
100
AcDbBlockEnd
0
BLOCK
5
BA
330
B9
100
AcDbEntity
8
0
100
AcDbBlockBegin
2
*D30
70
1
10
0
20
0
3
*D30
1

0
LINE
5
191
100
AcDbEntity
8
1_base_d
6
CONTINUOUS
62
7
370
0
100
AcDbLine
10
1325
20
5500
11
3300
21
5500
0
SOLID
5
192
100
AcDbEntity
8
1_base_d
6
CONTINUOUS
62
7
370
0
100
AcDbTrace
10
1325
20
5500
30
0
11
1389
21
5510.65688724
31
0
12
1389
22
5489.34311276
32
0
13
1389
23
5489.34311276
33
0
0
SOLID
5
193
100
AcDbEntity
8
1_base_d
6
CONTINUOUS
62
7
370
0
100
AcDbTrace
10
3300
20
5500
30
0
11
3236
21
5489.34311276
31
0
12
3236
22
5510.65688724
32
0
13
3236
23
5510.65688724
33
0
0
MTEXT
5
194
100
AcDbEntity
8
1_base_d
6
CONTINUOUS
62
7
370
0
100
AcDbMText
10
2312.5
20
5552
30
0
40
64
41
163.555555556
71
5
72
1
1
1975
7
standard
210
0
220
0
230
1
50
0
73
2
44
1
0
LINE
5
195
100
AcDbEntity
8
1_base_d
6
CONTINUOUS
62
7
370
0
100
AcDbLine
10
1325
20
5494.83506904
11
1325
21
5516
0
LINE
5
196
100
AcDbEntity
8
1_base_d
6
CONTINUOUS
62
7
370
0
100
AcDbLine
10
3300
20
5494.83506904
11
3300
21
5516
0
ENDBLK
5
BB
330
B9
100
AcDbEntity
8
0
100
AcDbBlockEnd
0
BLOCK
5
BD
330
BC
100
AcDbEntity
8
0
100
AcDbBlockBegin
2
a3-0
70
0
10
0
20
0
3
a3-0
1

0
LINE
5
197
100
AcDbEntity
8
0
6
ByLayer
62
256
370
-1
100
AcDbLine
10
4100
20
2870
11
4100
21
100
0
LINE
5
198
100
AcDbEntity
8
0
6
ByLayer
62
256
370
-1
100
AcDbLine
10
200
20
2870
11
200
21
100
0
LINE
5
199
100
AcDbEntity
8
0
6
ByLayer
62
256
370
-1
100
AcDbLine
10
200
20
100
11
4100
21
100
0
LINE
5
19A
100
AcDbEntity
8
0
6
ByLayer
62
256
370
-1
100
AcDbLine
10
2500
20
600.001
11
4100
21
600
0
LINE
5
19B
100
AcDbEntity
8
0
6
ByLayer
62
256
370
-1
100
AcDbLine
10
2500
20
500
11
4100
21
500
0
LINE
5
19C
100
AcDbEntity
8
0
6
ByLayer
62
256
370
-1
100
AcDbLine
10
2500
20
600.001
11
2500
21
100
0
LINE
5
19D
100
AcDbEntity
8
0
6
ByLayer
62
256
370
-1
100
AcDbLine
10
2500
20
300.001
11
4100
21
300
0
LINE
5
19E
100
AcDbEntity
8
0
6
ByLayer
62
256
370
-1
100
AcDbLine
10
2900
20
600.001
11
2900
21
100
0
LINE
5
19F
100
AcDbEntity
8
0
6
ByLayer
62
256
370
-1
100
AcDbLine
10
3200
20
600.001
11
3200
21
100
0
LINE
5
1A0
100
AcDbEntity
8
0
6
ByLayer
62
7
370
-1
100
AcDbLine
10
3200
20
200
11
3900
21
200
0
LINE
5
1A1
100
AcDbEntity
8
0
6
ByLayer
62
256
370
-1
100
AcDbLine
10
3900
20
300
11
3900
21
100
0
LINE
5
1A2
100
AcDbEntity
8
0
6
ByLayer
62
7
370
-1
100
AcDbLine
10
3500
20
300
11
3500
21
100
0
MTEXT
5
1A3
100
AcDbEntity
8
0
6
ByLayer
62
256
370
-1
100
AcDbMText
10
3231.449088
20
269.746176
30
0
40
40
41
233.333324853
71
1
72
5
1
SIZE  A3
7
iso
210
0
220
0
230
1
50
0
73
2
44
0.96
0
MTEXT
5
1A4
100
AcDbEntity
8
0
6
ByLayer
62
256
370
-1
100
AcDbMText
10
3229.61408
20
174.32576
30
0
40
40
41
243.333324853
71
1
72
5
1
SCALE 1:1
7
iso
210
0
220
0
230
1
50
0
73
2
44
0.96
0
MTEXT
5
1A5
100
AcDbEntity
8
0
6
ByLayer
62
256
370
-1
100
AcDbMText
10
3609.460736
20
166.985728
30
0
40
40
41
168.888880409
71
1
72
5
1
AS1100
7
iso
210
0
220
0
230
1
50
0
73
2
44
0.96
0
MTEXT
5
1A6
100
AcDbEntity
8
0
6
ByLayer
62
256
370
-1
100
AcDbMText
10
3444.310016
20
433.061888
30
0
40
60
41
365
71
1
72
5
1
ANDY XU
7
iso
210
0
220
0
230
1
50
0
73
2
44
0.96
0
LINE
5
1A7
100
AcDbEntity
8
0
6
ByLayer
62
256
370
-1
100
AcDbLine
10
200
20
2870
11
4100
21
2870
0
LINE
5
1A8
100
AcDbEntity
8
0
6
ByLayer
62
256
370
-1
100
AcDbLine
10
2500
20
400
11
3200
21
400
0
LINE
5
1A9
100
AcDbEntity
8
0
6
ByLayer
62
256
370
-1
100
AcDbLine
10
2500
20
350
11
3200
21
350
0
LINE
5
1AA
100
AcDbEntity
8
0
6
ByLayer
62
256
370
-1
100
AcDbLine
10
2500
20
450.001
11
3200
21
450.001
0
LINE
5
1AB
100
AcDbEntity
8
0
6
ByLayer
62
256
370
-1
100
AcDbLine
10
3048
20
228
11
3048
21
172
0
CIRCLE
5
1AC
100
AcDbEntity
8
0
6
ByLayer
62
256
370
-1
100
AcDbCircle
10
3112
20
200
40
28
0
LINE
5
1AD
100
AcDbEntity
8
0
6
ByLayer
62
256
370
-1
100
AcDbLine
10
2960
20
200
11
3160
21
200
0
LINE
5
1AE
100
AcDbEntity
8
0
6
ByLayer
62
256
370
-1
100
AcDbLine
10
2984
20
216
11
3048
21
228
0
LINE
5
1AF
100
AcDbEntity
8
0
6
ByLayer
62
256
370
-1
100
AcDbLine
10
2984
20
184
11
3048
21
172
0
LINE
5
1B0
100
AcDbEntity
8
0
6
ByLayer
62
256
370
-1
100
AcDbLine
10
2984
20
216
11
2984
21
184
0
LINE
5
1B1
100
AcDbEntity
8
0
6
ByLayer
62
256
370
-1
100
AcDbLine
10
3112
20
152
11
3112
21
248
0
CIRCLE
5
1B2
100
AcDbEntity
8
0
6
ByLayer
62
256
370
-1
100
AcDbCircle
10
3112
20
200
40
16
0
MTEXT
5
1B3
100
AcDbEntity
8
0
6
ByLayer
62
256
370
-1
100
AcDbMText
10
3920
20
248.333332468
30
0
40
30
41
103.344762494
71
7
72
5
1
sheet
7
normal#0.500000#0.900000
210
0
220
0
230
1
50
0
73
1
44
0.96
0
ENDBLK
5
BE
330
BC
100
AcDbEntity
8
0
100
AcDbBlockEnd
0
BLOCK
5
C0
330
BF
100
AcDbEntity
8
0
100
AcDbBlockBegin
2
A3_Xu-0
70
0
10
0
20
0
3
A3_Xu-0
1

0
INSERT
5
1B4
100
AcDbEntity
8
0
6
ByLayer
62
256
370
-1
100
AcDbBlockReference
2
a3-0
10
0
20
0
30
0
41
1
42
1
43
0
50
0
70
1
71
1
44
0
45
0
0
ENDBLK
5
C1
330
BF
100
AcDbEntity
8
0
100
AcDbBlockEnd
0
ENDSEC
0
SECTION
2
ENTITIES
0
INSERT
5
1B5
100
AcDbEntity
8
0
6
ByLayer
62
256
370
-1
100
AcDbBlockReference
2
A3_Xu-0
10
-440
20
-220
30
0
41
2.2
42
2.2
43
0
50
0
70
1
71
1
44
0
45
0
0
LINE
5
1B6
100
AcDbEntity
8
2_subfloor_1
6
ByLayer
62
256
370
-1
100
AcDbLine
10
1205
20
3820
11
1205
21
3910
0
LINE
5
1B7
100
AcDbEntity
8
2_subfloor_1
6
ByLayer
62
256
370
-1
100
AcDbLine
10
7440
20
3820
11
7440
21
3910
0
CIRCLE
5
1B8
100
AcDbEntity
8
1_base_d
6
ByLayer
62
256
370
-1
100
AcDbCircle
10
174.377422545
20
3864.99786516
40
80.622577483
0
LINE
5
1B9
100
AcDbEntity
8
1_base_d
6
BORDER2
62
256
370
-1
100
AcDbLine
10
1155
20
3865
11
255
21
3865
0
CIRCLE
5
1BA
100
AcDbEntity
8
1_base_d
6
ByLayer
62
256
370
-1
100
AcDbCircle
10
8420.62257745
20
3865.00213484
40
80.622577483
0
LINE
5
1BB
100
AcDbEntity
8
1_base_d
6
BORDER2
62
256
370
-1
100
AcDbLine
10
7490
20
3865
11
8340
21
3865
0
LINE
5
1BC
100
AcDbEntity
8
1_base
6
BORDER
62
256
370
-1
100
AcDbLine
10
7440
20
5025
11
1205
21
5025
0
LINE
5
1BD
100
AcDbEntity
8
1_base
6
BORDER
62
256
370
-1
100
AcDbLine
10
1205
20
5025
11
1205
21
2705
0
LINE
5
1BE
100
AcDbEntity
8
1_base
6
BORDER
62
256
370
-1
100
AcDbLine
10
1205
20
2705
11
7440
21
2705
0
LINE
5
1BF
100
AcDbEntity
8
1_base
6
BORDER
62
256
370
-1
100
AcDbLine
10
7440
20
2705
11
7440
21
5025
0
LEADER
5
1C0
100
AcDbEntity
8
2_subfloor_d
6
ByLayer
62
256
370
-1
100
AcDbLeader
3
Standard
71
1
72
0
73
3
74
0
75
0
40
1
41
10
76
0
76
0
0
LINE
5
1C1
100
AcDbEntity
8
2_subfloor_d
6
ByLayer
62
256
370
-1
100
AcDbLine
10
3319.74029541
20
0
11
5060
21
0
0
MTEXT
5
1C2
100
AcDbEntity
8
2_subfloor_d
6
ByLayer
62
256
370
-1
100
AcDbMText
10
4700
20
630.0011
30
0
40
56
41
309.555555556
71
1
72
1
1
2-2 A-A
7
standard
210
0
220
0
230
1
50
0
73
2
44
1
0
MTEXT
5
1C3
100
AcDbEntity
8
2_subfloor_d
6
ByLayer
62
256
370
-1
100
AcDbMText
10
4380
20
630.0011
30
0
40
56
41
280
71
1
72
1
1
NUMBER
7
standard
210
0
220
0
230
1
50
0
73
2
44
1
0
MTEXT
5
1C4
100
AcDbEntity
8
2_subfloor_d
6
ByLayer
62
256
370
-1
100
AcDbMText
10
4070
20
630.0011
30
0
40
56
41
267.555555556
71
1
72
1
1
LENGTH
7
standard
210
0
220
0
230
1
50
0
73
2
44
1
0
MTEXT
5
1C5
100
AcDbEntity
8
2_subfloor_d
6
ByLayer
62
256
370
-1
100
AcDbMText
10
3760
20
630.0011
30
0
40
56
41
261.333333333
71
1
72
1
1
DEGREE
7
standard
210
0
220
0
230
1
50
0
73
2
44
1
0
MTEXT
5
1C6
100
AcDbEntity
8
2_subfloor_d
6
ByLayer
62
256
370
-1
100
AcDbMText
10
3340
20
630.0011
30
0
40
56
41
367.111099239
71
1
72
1
1
DEMINSION
7
standard
210
0
220
0
230
1
50
0
73
2
44
1
0
LINE
5
1C7
100
AcDbEntity
8
2_subfloor_d
6
ByLayer
62
256
370
-1
100
AcDbLine
10
5060
20
660.0033
11
3319.74029541
21
660.0033
0
LINE
5
1C8
100
AcDbEntity
8
2_subfloor_d
6
ByLayer
62
256
370
-1
100
AcDbLine
10
3319.74029541
20
550.00275
11
5060
21
550.00275
0
LINE
5
1C9
100
AcDbEntity
8
2_subfloor_d
6
ByLayer
62
256
370
-1
100
AcDbLine
10
5060
20
440.0022
11
3319.74029541
21
440.0022
0
LINE
5
1CA
100
AcDbEntity
8
2_subfloor_d
6
ByLayer
62
256
370
-1
100
AcDbLine
10
3319.74029541
20
330.00165
11
5060
21
330.00165
0
LINE
5
1CB
100
AcDbEntity
8
2_subfloor_d
6
ByLayer
62
256
370
-1
100
AcDbLine
10
3319.74029541
20
220.0011
11
5060
21
220.0011
0
LINE
5
1CC
100
AcDbEntity
8
2_subfloor_d
6
ByLayer
62
256
370
-1
100
AcDbLine
10
3319.74029541
20
110.00055
11
5060
21
110.00055
0
LINE
5
1CD
100
AcDbEntity
8
2_subfloor_d
6
ByLayer
62
256
370
-1
100
AcDbLine
10
3319.74029541
20
0
11
3319.74029541
21
660.0033
0
LINE
5
1CE
100
AcDbEntity
8
2_subfloor_d
6
ByLayer
62
256
370
-1
100
AcDbLine
10
3729.24804688
20
0
11
3729.24804688
21
660.0033
0
LINE
5
1CF
100
AcDbEntity
8
2_subfloor_d
6
ByLayer
62
256
370
-1
100
AcDbLine
10
4047.62766421
20
0.00440000000003
11
4047.62766421
21
660.0033
0
LINE
5
1D0
100
AcDbEntity
8
2_subfloor_d
6
ByLayer
62
256
370
-1
100
AcDbLine
10
4679.27195132
20
0
11
4679.27195132
21
660.0033
0
LINE
5
1D1
100
AcDbEntity
8
2_subfloor_d
6
ByLayer
62
256
370
-1
100
AcDbLine
10
4360.23386538
20
0.00220000000002
11
4360.23386538
21
660.0033
0
LINE
5
1D2
100
AcDbEntity
8
2_subfloor_d
6
ByLayer
62
256
370
-1
100
AcDbLine
10
5060
20
0
11
5060
21
660.0033
0
MTEXT
5
1D3
100
AcDbEntity
8
2_subfloor_d
6
ByLayer
62
256
370
-1
100
AcDbMText
10
3400
20
530
30
0
40
56
41
205.333333333
71
1
72
1
1
90x45
7
standard
210
0
220
0
230
1
50
0
73
2
44
1
0
MTEXT
5
1D4
100
AcDbEntity
8
2_subfloor_d
6
ByLayer
62
256
370
-1
100
AcDbMText
10
3780
20
530
30
0
40
56
41
192.888888889
71
1
72
1
1
H3-10
7
standard
210
0
220
0
230
1
50
0
73
2
44
1
0
MTEXT
5
1D5
100
AcDbEntity
8
2_subfloor_d
6
ByLayer
62
256
370
-1
100
AcDbMText
10
3400
20
420
30
0
40
56
41
205.333333333
71
1
72
1
1
70x45
7
standard
210
0
220
0
230
1
50
0
73
2
44
1
0
MTEXT
5
1D6
100
AcDbEntity
8
2_subfloor_d
6
ByLayer
62
256
370
-1
100
AcDbMText
10
3780
20
420
30
0
40
56
41
192.888888889
71
1
72
1
1
H3-10
7
standard
210
0
220
0
230
1
50
0
73
2
44
1
0
MTEXT
5
1D7
100
AcDbEntity
8
2_subfloor_d
6
ByLayer
62
256
370
-1
100
AcDbMText
10
4100
20
420
30
0
40
56
41
155.555555556
71
1
72
1
1
2320
7
standard
210
0
220
0
230
1
50
0
73
2
44
1
0
MTEXT
5
1D8
100
AcDbEntity
8
2_subfloor_d
6
ByLayer
62
256
370
-1
100
AcDbMText
10
3400
20
310
30
0
40
56
41
242.666666667
71
1
72
1
1
300x90
7
standard
210
0
220
0
230
1
50
0
73
2
44
1
0
MTEXT
5
1D9
100
AcDbEntity
8
2_subfloor_d
6
ByLayer
62
256
370
-1
100
AcDbMText
10
3780
20
310
30
0
40
56
41
180.444432572
71
1
72
1
1
POST
7
standard
210
0
220
0
230
1
50
0
73
2
44
1
0
MTEXT
5
1DA
100
AcDbEntity
8
2_subfloor_d
6
ByLayer
62
256
370
-1
100
AcDbMText
10
4110
20
310
30
0
40
56
41
112
71
1
72
1
1
300
7
standard
210
0
220
0
230
1
50
0
73
2
44
1
0
MTEXT
5
1DB
100
AcDbEntity
8
2_subfloor_d
6
ByLayer
62
256
370
-1
100
AcDbMText
10
3410
20
200
30
0
40
56
41
168
71
1
72
1
1
20KG
7
standard
210
0
220
0
230
1
50
0
73
2
44
1
0
MTEXT
5
1DC
100
AcDbEntity
8
2_subfloor_d
6
ByLayer
62
256
370
-1
100
AcDbMText
10
3740
20
200
30
0
40
48
41
304
71
1
72
1
1
CONCRETE
7
standard
210
0
220
0
230
1
50
0
73
2
44
1
0
LINE
5
1DD
100
AcDbEntity
8
2_subfloor_1
6
ByLayer
62
256
370
-1
100
AcDbLine
10
1205
20
4930
11
1205
21
5020
0
LINE
5
1DE
100
AcDbEntity
8
2_subfloor_1
6
ByLayer
62
256
370
-1
100
AcDbLine
10
7440
20
4930
11
7440
21
5020
0
LINE
5
1DF
100
AcDbEntity
8
2_subfloor_1
6
ByLayer
62
256
370
-1
100
AcDbLine
10
1205
20
2710
11
1205
21
2800
0
LINE
5
1E0
100
AcDbEntity
8
2_subfloor_1
6
ByLayer
62
256
370
-1
100
AcDbLine
10
7440
20
2710
11
7440
21
2800
0
CIRCLE
5
1E1
100
AcDbEntity
8
1_base_d
6
ByLayer
62
256
370
-1
100
AcDbCircle
10
8420.62257745
20
4975.00213484
40
80.622577483
0
LINE
5
1E2
100
AcDbEntity
8
1_base_d
6
BORDER2
62
256
370
-1
100
AcDbLine
10
7490
20
4975
11
8340
21
4975
0
CIRCLE
5
1E3
100
AcDbEntity
8
1_base_d
6
ByLayer
62
256
370
-1
100
AcDbCircle
10
8420.62257745
20
2755.00213484
40
80.622577483
0
LINE
5
1E4
100
AcDbEntity
8
1_base_d
6
BORDER2
62
256
370
-1
100
AcDbLine
10
7490
20
2755
11
8340
21
2755
0
LINE
5
1E5
100
AcDbEntity
8
1_base_d
6
BORDER2
62
256
370
-1
100
AcDbLine
10
1205
20
2610
11
1205
21
1610
0
LINE
5
1E6
100
AcDbEntity
8
1_base_d
6
BORDER2
62
256
370
-1
100
AcDbLine
10
7440
20
2610
11
7440
21
1610
0
LINE
5
1E7
100
AcDbEntity
8
1_base_d
6
BORDER2
62
256
370
-1
100
AcDbLine
10
7490
20
2705
11
8240
21
2705
0
LINE
5
1E8
100
AcDbEntity
8
1_base_d
6
BORDER2
62
256
370
-1
100
AcDbLine
10
7490
20
5025
11
8240
21
5025
0
LINE
5
1E9
100
AcDbEntity
8
1_base_d
6
BORDER2
62
256
370
-1
100
AcDbLine
10
1155
20
5025
11
355
21
5025
0
LINE
5
1EA
100
AcDbEntity
8
1_base_d
6
BORDER2
62
256
370
-1
100
AcDbLine
10
1155
20
2705
11
355
21
2705
0
CIRCLE
5
1EB
100
AcDbEntity
8
1_base_d
6
ByLayer
62
256
370
-1
100
AcDbCircle
10
174.377422545
20
4974.99786516
40
80.622577483
0
LINE
5
1EC
100
AcDbEntity
8
1_base_d
6
BORDER2
62
256
370
-1
100
AcDbLine
10
1155
20
4975
11
255
21
4975
0
CIRCLE
5
1ED
100
AcDbEntity
8
1_base_d
6
ByLayer
62
256
370
-1
100
AcDbCircle
10
174.377422545
20
2754.99786516
40
80.622577483
0
LINE
5
1EE
100
AcDbEntity
8
1_base_d
6
BORDER2
62
256
370
-1
100
AcDbLine
10
1155
20
2755
11
255
21
2755
0
MTEXT
5
1EF
100
AcDbEntity
8
1_base_d
6
ByLayer
62
256
370
-1
100
AcDbMText
10
158.377422545
20
2791.99786516
30
0
40
72
41
48
71
1
72
1
1
A
7
standard
210
0
220
0
230
1
50
0
73
2
44
1
0
LINE
5
1F0
100
AcDbEntity
8
1_base_d
6
BORDER2
62
256
370
-1
100
AcDbLine
10
1205
20
5727.5727107
11
1205
21
5120
0
LINE
5
1F1
100
AcDbEntity
8
1_base_d
6
BORDER2
62
256
370
-1
100
AcDbLine
10
7440
20
5727.5727107
11
7440
21
5120
0
LINE
5
1F2
100
AcDbEntity
8
1_base_d
6
BORDER2
62
256
370
-1
100
AcDbLine
10
7440
20
5782.5727107
11
7440
21
5175
0
MTEXT
5
1F3
100
AcDbEntity
8
1_base_d
6
ByLayer
62
256
370
-1
100
AcDbMText
10
158.377422545
20
3901.99786516
30
0
40
72
41
40
71
1
72
1
1
B
7
standard
210
0
220
0
230
1
50
0
73
2
44
1
0
MTEXT
5
1F4
100
AcDbEntity
8
1_base_d
6
ByLayer
62
256
370
-1
100
AcDbMText
10
158.377422545
20
5011.99786516
30
0
40
72
41
32
71
1
72
1
1
C
7
standard
210
0
220
0
230
1
50
0
73
2
44
1
0
MTEXT
5
1F5
100
AcDbEntity
8
1_base_d
6
ByLayer
62
256
370
-1
100
AcDbMText
10
8394.62257745
20
2792.00213484
30
0
40
72
41
48
71
1
72
1
1
A
7
standard
210
0
220
0
230
1
50
360
73
2
44
1
0
MTEXT
5
1F6
100
AcDbEntity
8
1_base_d
6
ByLayer
62
256
370
-1
100
AcDbMText
10
8394.62257745
20
3902.00213484
30
0
40
72
41
40
71
1
72
1
1
B
7
standard
210
0
220
0
230
1
50
360
73
2
44
1
0
MTEXT
5
1F7
100
AcDbEntity
8
1_base_d
6
ByLayer
62
256
370
-1
100
AcDbMText
10
8394.62257745
20
5012.00213484
30
0
40
72
41
32
71
1
72
1
1
C
7
standard
210
0
220
0
230
1
50
360
73
2
44
1
0
DIMENSION
5
1F8
100
AcDbEntity
8
1_base_d
6
ByLayer
62
256
370
-1
100
AcDbDimension
2
*D2
10
600
20
2705
30
0
11
548
21
3865
31
0
70
32
71
5
3
Standard
53
0
210
0
220
0
230
1
100
AcDbAlignedDimension
13
689.760781824
23
5025
33
0
14
692.67116487
24
2705
34
0
50
90
100
AcDbRotatedDimension
0
DIMENSION
5
1F9
100
AcDbEntity
8
1_base_d
6
ByLayer
62
256
370
-1
100
AcDbDimension
2
*D3
10
8000
20
2705
30
0
11
7948
21
3865
31
0
70
32
71
5
3
Standard
53
0
210
0
220
0
230
1
100
AcDbAlignedDimension
13
7929.65693108
23
5025
33
0
14
7950.97321315
24
2705
34
0
50
90
100
AcDbRotatedDimension
0
DIMENSION
5
1FA
100
AcDbEntity
8
1_base_d
6
ByLayer
62
256
370
-1
100
AcDbDimension
2
*D4
10
7440
20
1900
30
0
11
4322.5
21
1952
31
0
70
32
71
5
3
Standard
53
0
210
0
220
0
230
1
100
AcDbAlignedDimension
13
1205
23
1975.30880541
33
0
14
7440
24
1982.41423277
34
0
100
AcDbRotatedDimension
0
DIMENSION
5
1FB
100
AcDbEntity
8
1_base_d
6
ByLayer
62
256
370
-1
100
AcDbDimension
2
*D5
10
7440
20
5700
30
0
11
4322.5
21
5752
31
0
70
32
71
5
3
Standard
53
0
210
0
220
0
230
1
100
AcDbAlignedDimension
13
1205
23
5641.70932193
33
0
14
7440
24
5634.60389457
34
0
100
AcDbRotatedDimension
0
LINE
5
1FC
100
AcDbEntity
8
2_subfloor_1
6
ByLayer
62
256
370
-1
100
AcDbLine
10
1205
20
5020
11
7440
21
5020
0
LINE
5
1FD
100
AcDbEntity
8
2_subfloor_1
6
ByLayer
62
256
370
-1
100
AcDbLine
10
7440
20
4930
11
1205
21
4930
0
LINE
5
1FE
100
AcDbEntity
8
2_subfloor_1
6
ByLayer
62
256
370
-1
100
AcDbLine
10
1205
20
4975
11
7440
21
4975
0
LINE
5
1FF
100
AcDbEntity
8
2_subfloor_1
6
ByLayer
62
256
370
-1
100
AcDbLine
10
1205
20
3910
11
7440
21
3910
0
LINE
5
200
100
AcDbEntity
8
2_subfloor_1
6
ByLayer
62
256
370
-1
100
AcDbLine
10
7440
20
3820
11
1205
21
3820
0
LINE
5
201
100
AcDbEntity
8
2_subfloor_1
6
ByLayer
62
256
370
-1
100
AcDbLine
10
1205
20
3865
11
7440
21
3865
0
LINE
5
202
100
AcDbEntity
8
2_subfloor_1
6
ByLayer
62
256
370
-1
100
AcDbLine
10
1205
20
2800
11
7440
21
2800
0
LINE
5
203
100
AcDbEntity
8
2_subfloor_1
6
ByLayer
62
256
370
-1
100
AcDbLine
10
7440
20
2710
11
1205
21
2710
0
LINE
5
204
100
AcDbEntity
8
2_subfloor_1
6
ByLayer
62
256
370
-1
100
AcDbLine
10
1205
20
2755
11
7440
21
2755
0
MTEXT
5
205
100
AcDbEntity
8
2_subfloor_d
6
ByLayer
62
256
370
-1
100
AcDbMText
10
8300
20
270
30
0
40
128
41
56.8888888889
71
1
72
1
1
2
7
standard
210
0
220
0
230
1
50
0
73
2
44
1
0
CIRCLE
5
206
100
AcDbEntity
8
2_subfloor_d
6
ByLayer
62
256
370
-1
100
AcDbCircle
10
174.377422545
20
3864.99786516
40
80.622577483
0
LINE
5
207
100
AcDbEntity
8
2_subfloor_d
6
BORDER2
62
256
370
-1
100
AcDbLine
10
1155
20
3865
11
255
21
3865
0
CIRCLE
5
208
100
AcDbEntity
8
2_subfloor_d
6
ByLayer
62
256
370
-1
100
AcDbCircle
10
8420.62257745
20
3865.00213484
40
80.622577483
0
LINE
5
209
100
AcDbEntity
8
2_subfloor_d
6
BORDER2
62
256
370
-1
100
AcDbLine
10
7490
20
3865
11
8340
21
3865
0
CIRCLE
5
20A
100
AcDbEntity
8
2_subfloor_d
6
ByLayer
62
256
370
-1
100
AcDbCircle
10
8420.62257745
20
4975.00213484
40
80.622577483
0
LINE
5
20B
100
AcDbEntity
8
2_subfloor_d
6
BORDER2
62
256
370
-1
100
AcDbLine
10
7490
20
4975
11
8340
21
4975
0
CIRCLE
5
20C
100
AcDbEntity
8
2_subfloor_d
6
ByLayer
62
256
370
-1
100
AcDbCircle
10
8420.62257745
20
2755.00213484
40
80.622577483
0
LINE
5
20D
100
AcDbEntity
8
2_subfloor_d
6
BORDER2
62
256
370
-1
100
AcDbLine
10
7490
20
2755
11
8340
21
2755
0
LINE
5
20E
100
AcDbEntity
8
2_subfloor_d
6
BORDER2
62
256
370
-1
100
AcDbLine
10
7490
20
2705
11
8240
21
2705
0
LINE
5
20F
100
AcDbEntity
8
2_subfloor_d
6
BORDER2
62
256
370
-1
100
AcDbLine
10
7490
20
5025
11
8240
21
5025
0
LINE
5
210
100
AcDbEntity
8
2_subfloor_d
6
BORDER2
62
256
370
-1
100
AcDbLine
10
1155
20
5025
11
355
21
5025
0
LINE
5
211
100
AcDbEntity
8
2_subfloor_d
6
BORDER2
62
256
370
-1
100
AcDbLine
10
1155
20
2705
11
355
21
2705
0
CIRCLE
5
212
100
AcDbEntity
8
2_subfloor_d
6
ByLayer
62
256
370
-1
100
AcDbCircle
10
174.377422545
20
4974.99786516
40
80.622577483
0
LINE
5
213
100
AcDbEntity
8
2_subfloor_d
6
BORDER2
62
256
370
-1
100
AcDbLine
10
1155
20
4975
11
255
21
4975
0
CIRCLE
5
214
100
AcDbEntity
8
2_subfloor_d
6
ByLayer
62
256
370
-1
100
AcDbCircle
10
174.377422545
20
2754.99786516
40
80.622577483
0
LINE
5
215
100
AcDbEntity
8
2_subfloor_d
6
BORDER2
62
256
370
-1
100
AcDbLine
10
1155
20
2755
11
255
21
2755
0
MTEXT
5
216
100
AcDbEntity
8
2_subfloor_d
6
ByLayer
62
256
370
-1
100
AcDbMText
10
158.377422545
20
2791.99786516
30
0
40
72
41
48
71
1
72
1
1
A
7
standard
210
0
220
0
230
1
50
0
73
2
44
1
0
MTEXT
5
217
100
AcDbEntity
8
2_subfloor_d
6
ByLayer
62
256
370
-1
100
AcDbMText
10
158.377422545
20
3901.99786516
30
0
40
72
41
40
71
1
72
1
1
B
7
standard
210
0
220
0
230
1
50
0
73
2
44
1
0
MTEXT
5
218
100
AcDbEntity
8
2_subfloor_d
6
ByLayer
62
256
370
-1
100
AcDbMText
10
158.377422545
20
5011.99786516
30
0
40
72
41
32
71
1
72
1
1
C
7
standard
210
0
220
0
230
1
50
0
73
2
44
1
0
MTEXT
5
219
100
AcDbEntity
8
2_subfloor_d
6
ByLayer
62
256
370
-1
100
AcDbMText
10
8394.62257745
20
2792.00213484
30
0
40
72
41
48
71
1
72
1
1
A
7
standard
210
0
220
0
230
1
50
360
73
2
44
1
0
MTEXT
5
21A
100
AcDbEntity
8
2_subfloor_d
6
ByLayer
62
256
370
-1
100
AcDbMText
10
8394.62257745
20
3902.00213484
30
0
40
72
41
40
71
1
72
1
1
B
7
standard
210
0
220
0
230
1
50
360
73
2
44
1
0
MTEXT
5
21B
100
AcDbEntity
8
2_subfloor_d
6
ByLayer
62
256
370
-1
100
AcDbMText
10
8394.62257745
20
5012.00213484
30
0
40
72
41
32
71
1
72
1
1
C
7
standard
210
0
220
0
230
1
50
360
73
2
44
1
0
DIMENSION
5
21C
100
AcDbEntity
8
2_subfloor_d
6
ByLayer
62
256
370
-1
100
AcDbDimension
2
*D6
10
600
20
2705
30
0
11
548
21
3865
31
0
70
32
71
5
3
Standard
53
0
210
0
220
0
230
1
100
AcDbAlignedDimension
13
689.760781824
23
5025
33
0
14
692.67116487
24
2705
34
0
50
90
100
AcDbRotatedDimension
0
DIMENSION
5
21D
100
AcDbEntity
8
2_subfloor_d
6
ByLayer
62
256
370
-1
100
AcDbDimension
2
*D7
10
8000
20
2705
30
0
11
7948
21
3865
31
0
70
32
71
5
3
Standard
53
0
210
0
220
0
230
1
100
AcDbAlignedDimension
13
7929.65693108
23
5025
33
0
14
7950.97321315
24
2705
34
0
50
90
100
AcDbRotatedDimension
0
LINE
5
21E
100
AcDbEntity
8
1_base
6
ByLayer
62
256
370
-1
100
AcDbLine
10
3250
20
4925
11
3350
21
4925
0
LINE
5
21F
100
AcDbEntity
8
1_base
6
ByLayer
62
256
370
-1
100
AcDbLine
10
3350
20
4925
11
3350
21
5025
0
LINE
5
220
100
AcDbEntity
8
1_base
6
ByLayer
62
256
370
-1
100
AcDbLine
10
3350
20
5025
11
3250
21
5025
0
LINE
5
221
100
AcDbEntity
8
1_base
6
ByLayer
62
256
370
-1
100
AcDbLine
10
3250
20
5025
11
3250
21
4925
0
CIRCLE
5
222
100
AcDbEntity
8
1_base
6
ByLayer
62
256
370
-1
100
AcDbCircle
10
3300
20
4975
40
130
0
LINE
5
223
100
AcDbEntity
8
1_base
6
ByLayer
62
256
370
-1
100
AcDbLine
10
3250
20
2705
11
3350
21
2705
0
LINE
5
224
100
AcDbEntity
8
1_base
6
ByLayer
62
256
370
-1
100
AcDbLine
10
3350
20
2705
11
3350
21
2805
0
LINE
5
225
100
AcDbEntity
8
1_base
6
ByLayer
62
256
370
-1
100
AcDbLine
10
3350
20
2805
11
3250
21
2805
0
LINE
5
226
100
AcDbEntity
8
1_base
6
ByLayer
62
256
370
-1
100
AcDbLine
10
3250
20
2805
11
3250
21
2705
0
CIRCLE
5
227
100
AcDbEntity
8
1_base
6
ByLayer
62
256
370
-1
100
AcDbCircle
10
3300
20
2755
40
130
0
LINE
5
228
100
AcDbEntity
8
1_base
6
ByLayer
62
256
370
-1
100
AcDbLine
10
3250
20
3815
11
3350
21
3815
0
LINE
5
229
100
AcDbEntity
8
1_base
6
ByLayer
62
256
370
-1
100
AcDbLine
10
3350
20
3815
11
3350
21
3915
0
LINE
5
22A
100
AcDbEntity
8
1_base
6
ByLayer
62
256
370
-1
100
AcDbLine
10
3350
20
3915
11
3250
21
3915
0
LINE
5
22B
100
AcDbEntity
8
1_base
6
ByLayer
62
256
370
-1
100
AcDbLine
10
3250
20
3915
11
3250
21
3815
0
CIRCLE
5
22C
100
AcDbEntity
8
1_base
6
ByLayer
62
256
370
-1
100
AcDbCircle
10
3300
20
3865
40
130
0
LINE
5
22D
100
AcDbEntity
8
1_base
6
ByLayer
62
256
370
-1
100
AcDbLine
10
5295
20
3815
11
5395
21
3815
0
LINE
5
22E
100
AcDbEntity
8
1_base
6
ByLayer
62
256
370
-1
100
AcDbLine
10
5395
20
3815
11
5395
21
3915
0
LINE
5
22F
100
AcDbEntity
8
1_base
6
ByLayer
62
256
370
-1
100
AcDbLine
10
5395
20
3915
11
5295
21
3915
0
LINE
5
230
100
AcDbEntity
8
1_base
6
ByLayer
62
256
370
-1
100
AcDbLine
10
5295
20
3915
11
5295
21
3815
0
CIRCLE
5
231
100
AcDbEntity
8
1_base
6
ByLayer
62
256
370
-1
100
AcDbCircle
10
5345
20
3865
40
130
0
LINE
5
232
100
AcDbEntity
8
1_base
6
ByLayer
62
256
370
-1
100
AcDbLine
10
5295
20
4925
11
5395
21
4925
0
LINE
5
233
100
AcDbEntity
8
1_base
6
ByLayer
62
256
370
-1
100
AcDbLine
10
5395
20
4925
11
5395
21
5025
0
LINE
5
234
100
AcDbEntity
8
1_base
6
ByLayer
62
256
370
-1
100
AcDbLine
10
5395
20
5025
11
5295
21
5025
0
LINE
5
235
100
AcDbEntity
8
1_base
6
ByLayer
62
256
370
-1
100
AcDbLine
10
5295
20
5025
11
5295
21
4925
0
CIRCLE
5
236
100
AcDbEntity
8
1_base
6
ByLayer
62
256
370
-1
100
AcDbCircle
10
5345
20
4975
40
130
0
LINE
5
237
100
AcDbEntity
8
1_base
6
ByLayer
62
256
370
-1
100
AcDbLine
10
5295
20
2705
11
5395
21
2705
0
LINE
5
238
100
AcDbEntity
8
1_base
6
ByLayer
62
256
370
-1
100
AcDbLine
10
5395
20
2705
11
5395
21
2805
0
LINE
5
239
100
AcDbEntity
8
1_base
6
ByLayer
62
256
370
-1
100
AcDbLine
10
5395
20
2805
11
5295
21
2805
0
LINE
5
23A
100
AcDbEntity
8
1_base
6
ByLayer
62
256
370
-1
100
AcDbLine
10
5295
20
2805
11
5295
21
2705
0
CIRCLE
5
23B
100
AcDbEntity
8
1_base
6
ByLayer
62
256
370
-1
100
AcDbCircle
10
5345
20
2755
40
130
0
LINE
5
23C
100
AcDbEntity
8
2_subfloor_1
6
ByLayer
62
256
370
-1
100
AcDbLine
10
3250
20
4925
11
3350
21
4925
0
LINE
5
23D
100
AcDbEntity
8
2_subfloor_1
6
ByLayer
62
256
370
-1
100
AcDbLine
10
3350
20
4925
11
3350
21
5025
0
LINE
5
23E
100
AcDbEntity
8
2_subfloor_1
6
ByLayer
62
256
370
-1
100
AcDbLine
10
3350
20
5025
11
3250
21
5025
0
LINE
5
23F
100
AcDbEntity
8
2_subfloor_1
6
ByLayer
62
256
370
-1
100
AcDbLine
10
3250
20
5025
11
3250
21
4925
0
LINE
5
240
100
AcDbEntity
8
2_subfloor_1
6
ByLayer
62
256
370
-1
100
AcDbLine
10
3250
20
2705
11
3350
21
2705
0
LINE
5
241
100
AcDbEntity
8
2_subfloor_1
6
ByLayer
62
256
370
-1
100
AcDbLine
10
3350
20
2705
11
3350
21
2805
0
LINE
5
242
100
AcDbEntity
8
2_subfloor_1
6
ByLayer
62
256
370
-1
100
AcDbLine
10
3350
20
2805
11
3250
21
2805
0
LINE
5
243
100
AcDbEntity
8
2_subfloor_1
6
ByLayer
62
256
370
-1
100
AcDbLine
10
3250
20
2805
11
3250
21
2705
0
LINE
5
244
100
AcDbEntity
8
2_subfloor_1
6
ByLayer
62
256
370
-1
100
AcDbLine
10
3250
20
3815
11
3350
21
3815
0
LINE
5
245
100
AcDbEntity
8
2_subfloor_1
6
ByLayer
62
256
370
-1
100
AcDbLine
10
3350
20
3815
11
3350
21
3915
0
LINE
5
246
100
AcDbEntity
8
2_subfloor_1
6
ByLayer
62
256
370
-1
100
AcDbLine
10
3350
20
3915
11
3250
21
3915
0
LINE
5
247
100
AcDbEntity
8
2_subfloor_1
6
ByLayer
62
256
370
-1
100
AcDbLine
10
3250
20
3915
11
3250
21
3815
0
LINE
5
248
100
AcDbEntity
8
2_subfloor_1
6
ByLayer
62
256
370
-1
100
AcDbLine
10
5295
20
3815
11
5395
21
3815
0
LINE
5
249
100
AcDbEntity
8
2_subfloor_1
6
ByLayer
62
256
370
-1
100
AcDbLine
10
5395
20
3815
11
5395
21
3915
0
LINE
5
24A
100
AcDbEntity
8
2_subfloor_1
6
ByLayer
62
256
370
-1
100
AcDbLine
10
5395
20
3915
11
5295
21
3915
0
LINE
5
24B
100
AcDbEntity
8
2_subfloor_1
6
ByLayer
62
256
370
-1
100
AcDbLine
10
5295
20
3915
11
5295
21
3815
0
LINE
5
24C
100
AcDbEntity
8
2_subfloor_1
6
ByLayer
62
256
370
-1
100
AcDbLine
10
5295
20
4925
11
5395
21
4925
0
LINE
5
24D
100
AcDbEntity
8
2_subfloor_1
6
ByLayer
62
256
370
-1
100
AcDbLine
10
5395
20
4925
11
5395
21
5025
0
LINE
5
24E
100
AcDbEntity
8
2_subfloor_1
6
ByLayer
62
256
370
-1
100
AcDbLine
10
5395
20
5025
11
5295
21
5025
0
LINE
5
24F
100
AcDbEntity
8
2_subfloor_1
6
ByLayer
62
256
370
-1
100
AcDbLine
10
5295
20
5025
11
5295
21
4925
0
LINE
5
250
100
AcDbEntity
8
2_subfloor_1
6
ByLayer
62
256
370
-1
100
AcDbLine
10
5295
20
2705
11
5395
21
2705
0
LINE
5
251
100
AcDbEntity
8
2_subfloor_1
6
ByLayer
62
256
370
-1
100
AcDbLine
10
5395
20
2705
11
5395
21
2805
0
LINE
5
252
100
AcDbEntity
8
2_subfloor_1
6
ByLayer
62
256
370
-1
100
AcDbLine
10
5395
20
2805
11
5295
21
2805
0
LINE
5
253
100
AcDbEntity
8
2_subfloor_1
6
ByLayer
62
256
370
-1
100
AcDbLine
10
5295
20
2805
11
5295
21
2705
0
LINE
5
254
100
AcDbEntity
8
2_subfloor_2
6
ByLayer
62
256
370
-1
100
AcDbLine
10
7440
20
2705
11
7440
21
5025
0
CIRCLE
5
255
100
AcDbEntity
8
1_base_d
6
ByLayer
62
256
370
-1
100
AcDbCircle
10
3300
20
5908.19528818
40
80.622577483
0
LINE
5
256
100
AcDbEntity
8
1_base_d
6
BORDER2
62
256
370
-1
100
AcDbLine
10
3300
20
5827.5727107
11
3300
21
5120
0
MTEXT
5
257
100
AcDbEntity
8
1_base_d
6
ByLayer
62
256
370
-1
100
AcDbMText
10
3284
20
5945.19528818
30
0
40
72
41
32
71
1
72
1
1
2
7
standard
210
0
220
0
230
1
50
0
73
2
44
1
0
CIRCLE
5
258
100
AcDbEntity
8
1_base_d
6
ByLayer
62
256
370
-1
100
AcDbCircle
10
3300
20
1310
40
80.622577483
0
LINE
5
259
100
AcDbEntity
8
1_base_d
6
BORDER2
62
256
370
-1
100
AcDbLine
10
3300
20
2610
11
3300
21
1390.62257748
0
MTEXT
5
25A
100
AcDbEntity
8
1_base_d
6
ByLayer
62
256
370
-1
100
AcDbMText
10
3284
20
1347
30
0
40
72
41
32
71
1
72
1
1
2
7
standard
210
0
220
0
230
1
50
0
73
2
44
1
0
CIRCLE
5
25B
100
AcDbEntity
8
1_base_d
6
ByLayer
62
256
370
-1
100
AcDbCircle
10
5345
20
1290
40
80.622577483
0
LINE
5
25C
100
AcDbEntity
8
1_base_d
6
BORDER2
62
256
370
-1
100
AcDbLine
10
5345
20
2590
11
5345
21
1370.62257748
0
MTEXT
5
25D
100
AcDbEntity
8
1_base_d
6
ByLayer
62
256
370
-1
100
AcDbMText
10
5329
20
1327
30
0
40
72
41
32
71
1
72
1
1
3
7
standard
210
0
220
0
230
1
50
0
73
2
44
1
0
CIRCLE
5
25E
100
AcDbEntity
8
1_base_d
6
ByLayer
62
256
370
-1
100
AcDbCircle
10
5345
20
5903.19528818
40
80.622577483
0
LINE
5
25F
100
AcDbEntity
8
1_base_d
6
BORDER2
62
256
370
-1
100
AcDbLine
10
5345
20
5822.5727107
11
5345
21
5115
0
MTEXT
5
260
100
AcDbEntity
8
1_base_d
6
ByLayer
62
256
370
-1
100
AcDbMText
10
5329
20
5940.19528818
30
0
40
72
41
32
71
1
72
1
1
3
7
standard
210
0
220
0
230
1
50
0
73
2
44
1
0
LINE
5
261
100
AcDbEntity
8
2_subfloor_d
6
BORDER2
62
256
370
-1
100
AcDbLine
10
1205
20
5727.5727107
11
1205
21
5120
0
LINE
5
262
100
AcDbEntity
8
2_subfloor_d
6
BORDER2
62
256
370
-1
100
AcDbLine
10
7440
20
5727.5727107
11
7440
21
5120
0
LINE
5
263
100
AcDbEntity
8
2_subfloor_d
6
BORDER2
62
256
370
-1
100
AcDbLine
10
7440
20
5782.5727107
11
7440
21
5175
0
DIMENSION
5
264
100
AcDbEntity
8
2_subfloor_d
6
ByLayer
62
256
370
-1
100
AcDbDimension
2
*D8
10
7440
20
5700
30
0
11
4322.5
21
5752
31
0
70
32
71
5
3
Standard
53
0
210
0
220
0
230
1
100
AcDbAlignedDimension
13
1205
23
5641.70932193
33
0
14
7440
24
5634.60389457
34
0
100
AcDbRotatedDimension
0
CIRCLE
5
265
100
AcDbEntity
8
2_subfloor_d
6
ByLayer
62
256
370
-1
100
AcDbCircle
10
3300
20
5908.19528818
40
80.622577483
0
LINE
5
266
100
AcDbEntity
8
2_subfloor_d
6
BORDER2
62
256
370
-1
100
AcDbLine
10
3300
20
5827.5727107
11
3300
21
5120
0
MTEXT
5
267
100
AcDbEntity
8
2_subfloor_d
6
ByLayer
62
256
370
-1
100
AcDbMText
10
3284
20
5945.19528818
30
0
40
72
41
32
71
1
72
1
1
2
7
standard
210
0
220
0
230
1
50
0
73
2
44
1
0
CIRCLE
5
268
100
AcDbEntity
8
2_subfloor_d
6
ByLayer
62
256
370
-1
100
AcDbCircle
10
3300
20
1310
40
80.622577483
0
LINE
5
269
100
AcDbEntity
8
2_subfloor_d
6
BORDER2
62
256
370
-1
100
AcDbLine
10
3300
20
2610
11
3300
21
1390.62257748
0
MTEXT
5
26A
100
AcDbEntity
8
2_subfloor_d
6
ByLayer
62
256
370
-1
100
AcDbMText
10
3284
20
1347
30
0
40
72
41
32
71
1
72
1
1
2
7
standard
210
0
220
0
230
1
50
0
73
2
44
1
0
CIRCLE
5
26B
100
AcDbEntity
8
2_subfloor_d
6
ByLayer
62
256
370
-1
100
AcDbCircle
10
5345
20
1290
40
80.622577483
0
LINE
5
26C
100
AcDbEntity
8
2_subfloor_d
6
BORDER2
62
256
370
-1
100
AcDbLine
10
5345
20
2590
11
5345
21
1370.62257748
0
MTEXT
5
26D
100
AcDbEntity
8
2_subfloor_d
6
ByLayer
62
256
370
-1
100
AcDbMText
10
5329
20
1327
30
0
40
72
41
32
71
1
72
1
1
3
7
standard
210
0
220
0
230
1
50
0
73
2
44
1
0
CIRCLE
5
26E
100
AcDbEntity
8
2_subfloor_d
6
ByLayer
62
256
370
-1
100
AcDbCircle
10
5345
20
5903.19528818
40
80.622577483
0
LINE
5
26F
100
AcDbEntity
8
2_subfloor_d
6
BORDER2
62
256
370
-1
100
AcDbLine
10
5345
20
5822.5727107
11
5345
21
5115
0
MTEXT
5
270
100
AcDbEntity
8
2_subfloor_d
6
ByLayer
62
256
370
-1
100
AcDbMText
10
5329
20
5940.19528818
30
0
40
72
41
32
71
1
72
1
1
3
7
standard
210
0
220
0
230
1
50
0
73
2
44
1
0
LEADER
5
271
100
AcDbEntity
8
2_subfloor_d
6
ByLayer
62
256
370
-1
100
AcDbLeader
3
Standard
71
1
72
0
73
3
74
0
75
0
40
1
41
10
76
3
76
3
10
7400
20
4600
30
0
10
7600
20
4700
30
0
10
8000
20
4700
30
0
0
MTEXT
5
272
100
AcDbEntity
8
2_subfloor_d
6
ByLayer
62
256
370
-1
100
AcDbMText
10
7630
20
4770
30
0
40
56
41
340.666666667
71
1
72
1
1
70x45 H3
7
standard
210
0
220
0
230
1
50
0
73
2
44
1
0
LINE
5
273
100
AcDbEntity
8
1_base
6
ByLayer
62
256
370
-1
100
AcDbLine
10
7270
20
3815
11
7370
21
3815
0
LINE
5
274
100
AcDbEntity
8
1_base
6
ByLayer
62
256
370
-1
100
AcDbLine
10
7370
20
3815
11
7370
21
3915
0
LINE
5
275
100
AcDbEntity
8
1_base
6
ByLayer
62
256
370
-1
100
AcDbLine
10
7370
20
3915
11
7270
21
3915
0
LINE
5
276
100
AcDbEntity
8
1_base
6
ByLayer
62
256
370
-1
100
AcDbLine
10
7270
20
3915
11
7270
21
3815
0
CIRCLE
5
277
100
AcDbEntity
8
1_base
6
ByLayer
62
256
370
-1
100
AcDbCircle
10
7320
20
3865
40
130
0
LINE
5
278
100
AcDbEntity
8
1_base
6
ByLayer
62
256
370
-1
100
AcDbLine
10
7270
20
4925
11
7370
21
4925
0
LINE
5
279
100
AcDbEntity
8
1_base
6
ByLayer
62
256
370
-1
100
AcDbLine
10
7370
20
4925
11
7370
21
5025
0
LINE
5
27A
100
AcDbEntity
8
1_base
6
ByLayer
62
256
370
-1
100
AcDbLine
10
7370
20
5025
11
7270
21
5025
0
LINE
5
27B
100
AcDbEntity
8
1_base
6
ByLayer
62
256
370
-1
100
AcDbLine
10
7270
20
5025
11
7270
21
4925
0
CIRCLE
5
27C
100
AcDbEntity
8
1_base
6
ByLayer
62
256
370
-1
100
AcDbCircle
10
7320
20
4975
40
130
0
LINE
5
27D
100
AcDbEntity
8
1_base
6
ByLayer
62
256
370
-1
100
AcDbLine
10
7270
20
2705
11
7370
21
2705
0
LINE
5
27E
100
AcDbEntity
8
1_base
6
ByLayer
62
256
370
-1
100
AcDbLine
10
7370
20
2705
11
7370
21
2805
0
LINE
5
27F
100
AcDbEntity
8
1_base
6
ByLayer
62
256
370
-1
100
AcDbLine
10
7370
20
2805
11
7270
21
2805
0
LINE
5
280
100
AcDbEntity
8
1_base
6
ByLayer
62
256
370
-1
100
AcDbLine
10
7270
20
2805
11
7270
21
2705
0
CIRCLE
5
281
100
AcDbEntity
8
1_base
6
ByLayer
62
256
370
-1
100
AcDbCircle
10
7320
20
2755
40
130
0
LINE
5
282
100
AcDbEntity
8
1_base
6
ByLayer
62
256
370
-1
100
AcDbLine
10
1275
20
3815
11
1375
21
3815
0
LINE
5
283
100
AcDbEntity
8
1_base
6
ByLayer
62
256
370
-1
100
AcDbLine
10
1375
20
3815
11
1375
21
3915
0
LINE
5
284
100
AcDbEntity
8
1_base
6
ByLayer
62
256
370
-1
100
AcDbLine
10
1375
20
3915
11
1275
21
3915
0
LINE
5
285
100
AcDbEntity
8
1_base
6
ByLayer
62
256
370
-1
100
AcDbLine
10
1275
20
3915
11
1275
21
3815
0
CIRCLE
5
286
100
AcDbEntity
8
1_base
6
ByLayer
62
256
370
-1
100
AcDbCircle
10
1325
20
3865
40
130
0
LINE
5
287
100
AcDbEntity
8
1_base
6
ByLayer
62
256
370
-1
100
AcDbLine
10
1275
20
4925
11
1375
21
4925
0
LINE
5
288
100
AcDbEntity
8
1_base
6
ByLayer
62
256
370
-1
100
AcDbLine
10
1375
20
4925
11
1375
21
5025
0
LINE
5
289
100
AcDbEntity
8
1_base
6
ByLayer
62
256
370
-1
100
AcDbLine
10
1375
20
5025
11
1275
21
5025
0
LINE
5
28A
100
AcDbEntity
8
1_base
6
ByLayer
62
256
370
-1
100
AcDbLine
10
1275
20
5025
11
1275
21
4925
0
CIRCLE
5
28B
100
AcDbEntity
8
1_base
6
ByLayer
62
256
370
-1
100
AcDbCircle
10
1325
20
4975
40
130
0
LINE
5
28C
100
AcDbEntity
8
1_base
6
ByLayer
62
256
370
-1
100
AcDbLine
10
1275
20
2705
11
1375
21
2705
0
LINE
5
28D
100
AcDbEntity
8
1_base
6
ByLayer
62
256
370
-1
100
AcDbLine
10
1375
20
2705
11
1375
21
2805
0
LINE
5
28E
100
AcDbEntity
8
1_base
6
ByLayer
62
256
370
-1
100
AcDbLine
10
1375
20
2805
11
1275
21
2805
0
LINE
5
28F
100
AcDbEntity
8
1_base
6
ByLayer
62
256
370
-1
100
AcDbLine
10
1275
20
2805
11
1275
21
2705
0
CIRCLE
5
290
100
AcDbEntity
8
1_base
6
ByLayer
62
256
370
-1
100
AcDbCircle
10
1325
20
2755
40
130
0
CIRCLE
5
291
100
AcDbEntity
8
1_base_d
6
ByLayer
62
256
370
-1
100
AcDbCircle
10
1325
20
5908.19528818
40
80.622577483
0
MTEXT
5
292
100
AcDbEntity
8
1_base_d
6
ByLayer
62
256
370
-1
100
AcDbMText
10
1309
20
5945.19528818
30
0
40
72
41
16
71
1
72
1
1
1
7
standard
210
0
220
0
230
1
50
0
73
2
44
1
0
LINE
5
293
100
AcDbEntity
8
1_base_d
6
BORDER2
62
256
370
-1
100
AcDbLine
10
1325
20
5827.5727107
11
1325
21
5120
0
CIRCLE
5
294
100
AcDbEntity
8
1_base_d
6
ByLayer
62
256
370
-1
100
AcDbCircle
10
1325
20
1310
40
80.622577483
0
MTEXT
5
295
100
AcDbEntity
8
1_base_d
6
ByLayer
62
256
370
-1
100
AcDbMText
10
1309
20
1347
30
0
40
72
41
16
71
1
72
1
1
1
7
standard
210
0
220
0
230
1
50
0
73
2
44
1
0
LINE
5
296
100
AcDbEntity
8
1_base_d
6
BORDER2
62
256
370
-1
100
AcDbLine
10
1325
20
2610
11
1325
21
1390.62257748
0
CIRCLE
5
297
100
AcDbEntity
8
1_base_d
6
ByLayer
62
256
370
-1
100
AcDbCircle
10
7320
20
5908.19528818
40
80.622577483
0
LINE
5
298
100
AcDbEntity
8
1_base_d
6
BORDER2
62
256
370
-1
100
AcDbLine
10
7320
20
5827.5727107
11
7320
21
5120
0
MTEXT
5
299
100
AcDbEntity
8
1_base_d
6
ByLayer
62
256
370
-1
100
AcDbMText
10
7304
20
5945.19528818
30
0
40
72
41
40
71
1
72
1
1
4
7
standard
210
0
220
0
230
1
50
0
73
2
44
1
0
CIRCLE
5
29A
100
AcDbEntity
8
1_base_d
6
ByLayer
62
256
370
-1
100
AcDbCircle
10
7320
20
1310
40
80.622577483
0
LINE
5
29B
100
AcDbEntity
8
1_base_d
6
BORDER2
62
256
370
-1
100
AcDbLine
10
7320
20
2610
11
7320
21
1390.62257748
0
MTEXT
5
29C
100
AcDbEntity
8
1_base_d
6
ByLayer
62
256
370
-1
100
AcDbMText
10
7304
20
1347
30
0
40
72
41
40
71
1
72
1
1
4
7
standard
210
0
220
0
230
1
50
0
73
2
44
1
0
DIMENSION
5
29D
100
AcDbEntity
8
1_base_d
6
ByLayer
62
256
370
-1
100
AcDbDimension
2
*D10
10
3300
20
2100
30
0
11
2312.5
21
2152
31
0
70
32
71
5
72
0
3
Standard
53
0
210
0
220
0
230
1
100
AcDbAlignedDimension
13
1325
23
2056.70824978
33
0
14
3300
24
2056.70824978
34
0
100
AcDbRotatedDimension
0
DIMENSION
5
29E
100
AcDbEntity
8
1_base_d
6
ByLayer
62
256
370
-1
100
AcDbDimension
2
*D11
10
7320
20
2100
30
0
11
6332.5
21
2152
31
0
70
32
71
5
72
0
3
Standard
53
0
210
0
220
0
230
1
100
AcDbAlignedDimension
13
5345
23
2042.96632384
33
0
14
7320
24
2042.96632384
34
0
100
AcDbRotatedDimension
0
CIRCLE
5
29F
100
AcDbEntity
8
2_subfloor_d
6
ByLayer
62
256
370
-1
100
AcDbCircle
10
1325
20
5908.19528818
40
80.622577483
0
MTEXT
5
2A0
100
AcDbEntity
8
2_subfloor_d
6
ByLayer
62
256
370
-1
100
AcDbMText
10
1309
20
5945.19528818
30
0
40
72
41
16
71
1
72
1
1
1
7
standard
210
0
220
0
230
1
50
0
73
2
44
1
0
LINE
5
2A1
100
AcDbEntity
8
2_subfloor_d
6
BORDER2
62
256
370
-1
100
AcDbLine
10
1325
20
5827.5727107
11
1325
21
5120
0
CIRCLE
5
2A2
100
AcDbEntity
8
2_subfloor_d
6
ByLayer
62
256
370
-1
100
AcDbCircle
10
1325
20
1310
40
80.622577483
0
MTEXT
5
2A3
100
AcDbEntity
8
2_subfloor_d
6
ByLayer
62
256
370
-1
100
AcDbMText
10
1309
20
1347
30
0
40
72
41
16
71
1
72
1
1
1
7
standard
210
0
220
0
230
1
50
0
73
2
44
1
0
LINE
5
2A4
100
AcDbEntity
8
2_subfloor_d
6
BORDER2
62
256
370
-1
100
AcDbLine
10
1325
20
2610
11
1325
21
1390.62257748
0
CIRCLE
5
2A5
100
AcDbEntity
8
2_subfloor_d
6
ByLayer
62
256
370
-1
100
AcDbCircle
10
7320
20
5908.19528818
40
80.622577483
0
LINE
5
2A6
100
AcDbEntity
8
2_subfloor_d
6
BORDER2
62
256
370
-1
100
AcDbLine
10
7320
20
5827.5727107
11
7320
21
5120
0
MTEXT
5
2A7
100
AcDbEntity
8
2_subfloor_d
6
ByLayer
62
256
370
-1
100
AcDbMText
10
7304
20
5945.19528818
30
0
40
72
41
40
71
1
72
1
1
4
7
standard
210
0
220
0
230
1
50
0
73
2
44
1
0
CIRCLE
5
2A8
100
AcDbEntity
8
2_subfloor_d
6
ByLayer
62
256
370
-1
100
AcDbCircle
10
7320
20
1310
40
80.622577483
0
LINE
5
2A9
100
AcDbEntity
8
2_subfloor_d
6
BORDER2
62
256
370
-1
100
AcDbLine
10
7320
20
2610
11
7320
21
1390.62257748
0
MTEXT
5
2AA
100
AcDbEntity
8
2_subfloor_d
6
ByLayer
62
256
370
-1
100
AcDbMText
10
7304
20
1347
30
0
40
72
41
40
71
1
72
1
1
4
7
standard
210
0
220
0
230
1
50
0
73
2
44
1
0
MTEXT
5
2AB
100
AcDbEntity
8
2_subfloor_d
6
ByLayer
62
256
370
-1
100
AcDbMText
10
4450
20
310
30
0
40
56
41
56
71
1
72
1
1
12
7
standard
210
0
220
0
230
1
50
0
73
2
44
1
0
MTEXT
5
2AC
100
AcDbEntity
8
2_subfloor_d
6
ByLayer
62
256
370
-1
100
AcDbMText
10
3400
20
89.9989
30
0
40
56
41
180.444444444
71
1
72
1
1
14-10
7
standard
210
0
220
0
230
1
50
0
73
2
44
1
0
MTEXT
5
2AD
100
AcDbEntity
8
2_subfloor_d
6
ByLayer
62
256
370
-1
100
AcDbMText
10
3780
20
89.99835
30
0
40
56
41
236.444432572
71
1
72
1
1
SCREW
7
standard
210
0
220
0
230
1
50
0
73
2
44
1
0
LINE
5
2AE
100
AcDbEntity
8
2_subfloor_2
6
ByLayer
62
256
370
-1
100
AcDbLine
10
5590
20
2705
11
5590
21
5025
0
LINE
5
2AF
100
AcDbEntity
8
2_subfloor_2
6
ByLayer
62
256
370
-1
100
AcDbLine
10
5690
20
2705
11
5690
21
5025
0
LINE
5
2B0
100
AcDbEntity
8
2_subfloor_2
6
ByLayer
62
256
370
-1
100
AcDbLine
10
5735
20
2705
11
5735
21
5025
0
LINE
5
2B1
100
AcDbEntity
8
2_subfloor_2
6
ByLayer
62
256
370
-1
100
AcDbLine
10
6115
20
2705
11
6115
21
5025
0
LINE
5
2B2
100
AcDbEntity
8
2_subfloor_2
6
ByLayer
62
256
370
-1
100
AcDbLine
10
6160
20
2705
11
6160
21
5025
0
LINE
5
2B3
100
AcDbEntity
8
2_subfloor_2
6
ByLayer
62
256
370
-1
100
AcDbLine
10
6540
20
2705
11
6540
21
5025
0
LINE
5
2B4
100
AcDbEntity
8
2_subfloor_2
6
ByLayer
62
256
370
-1
100
AcDbLine
10
6585
20
2705
11
6585
21
5025
0
LINE
5
2B5
100
AcDbEntity
8
2_subfloor_2
6
ByLayer
62
256
370
-1
100
AcDbLine
10
6965
20
2705
11
6965
21
5025
0
LINE
5
2B6
100
AcDbEntity
8
2_subfloor_2
6
ByLayer
62
256
370
-1
100
AcDbLine
10
7010
20
2705
11
7010
21
5025
0
LINE
5
2B7
100
AcDbEntity
8
2_subfloor_2
6
ByLayer
62
256
370
-1
100
AcDbLine
10
7395
20
2705
11
7395
21
5025
0
LINE
5
2B8
100
AcDbEntity
8
2_subfloor_2
6
ByLayer
62
256
370
-1
100
AcDbLine
10
5545
20
2705
11
5545
21
5025
0
LINE
5
2B9
100
AcDbEntity
8
2_subfloor_2
6
ByLayer
62
256
370
-1
100
AcDbLine
10
3890
20
2705
11
3890
21
5025
0
LINE
5
2BA
100
AcDbEntity
8
2_subfloor_2
6
ByLayer
62
256
370
-1
100
AcDbLine
10
3935
20
2705
11
3935
21
5025
0
LINE
5
2BB
100
AcDbEntity
8
2_subfloor_2
6
ByLayer
62
256
370
-1
100
AcDbLine
10
4305
20
2705
11
4305
21
5025
0
LINE
5
2BC
100
AcDbEntity
8
2_subfloor_2
6
ByLayer
62
256
370
-1
100
AcDbLine
10
4350
20
2705
11
4350
21
5025
0
LINE
5
2BD
100
AcDbEntity
8
2_subfloor_2
6
ByLayer
62
256
370
-1
100
AcDbLine
10
4720
20
2705
11
4720
21
5025
0
LINE
5
2BE
100
AcDbEntity
8
2_subfloor_2
6
ByLayer
62
256
370
-1
100
AcDbLine
10
4765
20
2705
11
4765
21
5025
0
LINE
5
2BF
100
AcDbEntity
8
2_subfloor_2
6
ByLayer
62
256
370
-1
100
AcDbLine
10
5135
20
2705
11
5135
21
5025
0
LINE
5
2C0
100
AcDbEntity
8
2_subfloor_2
6
ByLayer
62
256
370
-1
100
AcDbLine
10
5180
20
2705
11
5180
21
5025
0
LINE
5
2C1
100
AcDbEntity
8
2_subfloor_2
6
ByLayer
62
256
370
-1
100
AcDbLine
10
3745
20
2705
11
3745
21
5025
0
LINE
5
2C2
100
AcDbEntity
8
2_subfloor_2
6
ByLayer
62
256
370
-1
100
AcDbLine
10
3790
20
2705
11
3790
21
5025
0
LINE
5
2C3
100
AcDbEntity
8
2_subfloor_2
6
ByLayer
62
256
370
-1
100
AcDbLine
10
2090
20
2705
11
2090
21
5025
0
LINE
5
2C4
100
AcDbEntity
8
2_subfloor_2
6
ByLayer
62
256
370
-1
100
AcDbLine
10
2135
20
2705
11
2135
21
5025
0
LINE
5
2C5
100
AcDbEntity
8
2_subfloor_2
6
ByLayer
62
256
370
-1
100
AcDbLine
10
2504
20
2705
11
2504
21
5025
0
LINE
5
2C6
100
AcDbEntity
8
2_subfloor_2
6
ByLayer
62
256
370
-1
100
AcDbLine
10
2549
20
2705
11
2549
21
5025
0
LINE
5
2C7
100
AcDbEntity
8
2_subfloor_2
6
ByLayer
62
256
370
-1
100
AcDbLine
10
2918
20
2705
11
2918
21
5025
0
LINE
5
2C8
100
AcDbEntity
8
2_subfloor_2
6
ByLayer
62
256
370
-1
100
AcDbLine
10
2963
20
2705
11
2963
21
5025
0
LINE
5
2C9
100
AcDbEntity
8
2_subfloor_2
6
ByLayer
62
256
370
-1
100
AcDbLine
10
3332
20
2705
11
3332
21
5025
0
LINE
5
2CA
100
AcDbEntity
8
2_subfloor_2
6
ByLayer
62
256
370
-1
100
AcDbLine
10
3377
20
2705
11
3377
21
5025
0
LINE
5
2CB
100
AcDbEntity
8
2_subfloor_2
6
ByLayer
62
256
370
-1
100
AcDbLine
10
1205
20
2705
11
1205
21
5025
0
LINE
5
2CC
100
AcDbEntity
8
2_subfloor_2
6
ByLayer
62
256
370
-1
100
AcDbLine
10
1250
20
2705
11
1250
21
5025
0
LINE
5
2CD
100
AcDbEntity
8
2_subfloor_2
6
ByLayer
62
256
370
-1
100
AcDbLine
10
1995
20
2705
11
1995
21
5025
0
LINE
5
2CE
100
AcDbEntity
8
2_subfloor_2
6
ByLayer
62
256
370
-1
100
AcDbLine
10
2040
20
2705
11
2040
21
5025
0
LINE
5
2CF
100
AcDbEntity
8
2_subfloor_2
6
ByLayer
62
256
370
-1
100
AcDbLine
10
1468
20
2705
11
1468
21
5025
0
LINE
5
2D0
100
AcDbEntity
8
2_subfloor_2
6
ByLayer
62
256
370
-1
100
AcDbLine
10
1513
20
2705
11
1513
21
5025
0
LINE
5
2D1
100
AcDbEntity
8
2_subfloor_2
6
ByLayer
62
256
370
-1
100
AcDbLine
10
1731
20
2705
11
1731
21
5025
0
LINE
5
2D2
100
AcDbEntity
8
2_subfloor_2
6
ByLayer
62
256
370
-1
100
AcDbLine
10
1776
20
2705
11
1776
21
5025
0
LINE
5
2D3
100
AcDbEntity
8
2_subfloor_2
6
ByLayer
62
256
370
-1
100
AcDbLine
10
1205
20
5025
11
1250
21
5025
0
LINE
5
2D4
100
AcDbEntity
8
2_subfloor_2
6
ByLayer
62
256
370
-1
100
AcDbLine
10
1468
20
5025
11
1513
21
5025
0
LINE
5
2D5
100
AcDbEntity
8
2_subfloor_2
6
ByLayer
62
256
370
-1
100
AcDbLine
10
1731
20
5025
11
1776
21
5025
0
LINE
5
2D6
100
AcDbEntity
8
2_subfloor_2
6
ByLayer
62
256
370
-1
100
AcDbLine
10
1995
20
5025
11
2040
21
5025
0
LINE
5
2D7
100
AcDbEntity
8
2_subfloor_2
6
ByLayer
62
256
370
-1
100
AcDbLine
10
2090
20
5025
11
2135
21
5025
0
LINE
5
2D8
100
AcDbEntity
8
2_subfloor_2
6
ByLayer
62
256
370
-1
100
AcDbLine
10
2504
20
5025
11
2549
21
5025
0
LINE
5
2D9
100
AcDbEntity
8
2_subfloor_2
6
ByLayer
62
256
370
-1
100
AcDbLine
10
2918
20
5025
11
2963
21
5025
0
LINE
5
2DA
100
AcDbEntity
8
2_subfloor_2
6
ByLayer
62
256
370
-1
100
AcDbLine
10
3332
20
5025
11
3377
21
5025
0
LINE
5
2DB
100
AcDbEntity
8
2_subfloor_2
6
ByLayer
62
256
370
-1
100
AcDbLine
10
3745
20
5025
11
3790
21
5025
0
LINE
5
2DC
100
AcDbEntity
8
2_subfloor_2
6
ByLayer
62
256
370
-1
100
AcDbLine
10
3890
20
5025
11
3935
21
5025
0
LINE
5
2DD
100
AcDbEntity
8
2_subfloor_2
6
ByLayer
62
256
370
-1
100
AcDbLine
10
4305
20
5025
11
4350
21
5025
0
LINE
5
2DE
100
AcDbEntity
8
2_subfloor_2
6
ByLayer
62
256
370
-1
100
AcDbLine
10
4720
20
5025
11
4765
21
5025
0
LINE
5
2DF
100
AcDbEntity
8
2_subfloor_2
6
ByLayer
62
256
370
-1
100
AcDbLine
10
5135
20
5025
11
5180
21
5025
0
LINE
5
2E0
100
AcDbEntity
8
2_subfloor_2
6
ByLayer
62
256
370
-1
100
AcDbLine
10
5545
20
5025
11
5590
21
5025
0
LINE
5
2E1
100
AcDbEntity
8
2_subfloor_2
6
ByLayer
62
256
370
-1
100
AcDbLine
10
5690
20
5025
11
5735
21
5025
0
LINE
5
2E2
100
AcDbEntity
8
2_subfloor_2
6
ByLayer
62
256
370
-1
100
AcDbLine
10
6115
20
5025
11
6160
21
5025
0
LINE
5
2E3
100
AcDbEntity
8
2_subfloor_2
6
ByLayer
62
256
370
-1
100
AcDbLine
10
6540
20
5025
11
6585
21
5025
0
LINE
5
2E4
100
AcDbEntity
8
2_subfloor_2
6
ByLayer
62
256
370
-1
100
AcDbLine
10
6965
20
5025
11
7010
21
5025
0
LINE
5
2E5
100
AcDbEntity
8
2_subfloor_2
6
ByLayer
62
256
370
-1
100
AcDbLine
10
7395
20
5025
11
7440
21
5025
0
LINE
5
2E6
100
AcDbEntity
8
2_subfloor_2
6
ByLayer
62
256
370
-1
100
AcDbLine
10
7440
20
2705
11
7395
21
2705
0
LINE
5
2E7
100
AcDbEntity
8
2_subfloor_2
6
ByLayer
62
256
370
-1
100
AcDbLine
10
7010
20
2705
11
6965
21
2705
0
LINE
5
2E8
100
AcDbEntity
8
2_subfloor_2
6
ByLayer
62
256
370
-1
100
AcDbLine
10
6585
20
2705
11
6540
21
2705
0
LINE
5
2E9
100
AcDbEntity
8
2_subfloor_2
6
ByLayer
62
256
370
-1
100
AcDbLine
10
6160
20
2705
11
6115
21
2705
0
LINE
5
2EA
100
AcDbEntity
8
2_subfloor_2
6
ByLayer
62
256
370
-1
100
AcDbLine
10
5735
20
2705
11
5690
21
2705
0
LINE
5
2EB
100
AcDbEntity
8
2_subfloor_2
6
ByLayer
62
256
370
-1
100
AcDbLine
10
5590
20
2705
11
5545
21
2705
0
LINE
5
2EC
100
AcDbEntity
8
2_subfloor_2
6
ByLayer
62
256
370
-1
100
AcDbLine
10
5180
20
2705
11
5135
21
2705
0
LINE
5
2ED
100
AcDbEntity
8
2_subfloor_2
6
ByLayer
62
256
370
-1
100
AcDbLine
10
4765
20
2705
11
4720
21
2705
0
LINE
5
2EE
100
AcDbEntity
8
2_subfloor_2
6
ByLayer
62
256
370
-1
100
AcDbLine
10
4350
20
2705
11
4305
21
2705
0
LINE
5
2EF
100
AcDbEntity
8
2_subfloor_2
6
ByLayer
62
256
370
-1
100
AcDbLine
10
3935
20
2705
11
3890
21
2705
0
LINE
5
2F0
100
AcDbEntity
8
2_subfloor_2
6
ByLayer
62
256
370
-1
100
AcDbLine
10
3790
20
2705
11
3745
21
2705
0
LINE
5
2F1
100
AcDbEntity
8
2_subfloor_2
6
ByLayer
62
256
370
-1
100
AcDbLine
10
3377
20
2705
11
3332
21
2705
0
LINE
5
2F2
100
AcDbEntity
8
2_subfloor_2
6
ByLayer
62
256
370
-1
100
AcDbLine
10
2963
20
2705
11
2918
21
2705
0
LINE
5
2F3
100
AcDbEntity
8
2_subfloor_2
6
ByLayer
62
256
370
-1
100
AcDbLine
10
2549
20
2705
11
2504
21
2705
0
LINE
5
2F4
100
AcDbEntity
8
2_subfloor_2
6
ByLayer
62
256
370
-1
100
AcDbLine
10
2135
20
2705
11
2090
21
2705
0
LINE
5
2F5
100
AcDbEntity
8
2_subfloor_2
6
ByLayer
62
256
370
-1
100
AcDbLine
10
2040
20
2705
11
1995
21
2705
0
LINE
5
2F6
100
AcDbEntity
8
2_subfloor_2
6
ByLayer
62
256
370
-1
100
AcDbLine
10
1776
20
2705
11
1731
21
2705
0
LINE
5
2F7
100
AcDbEntity
8
2_subfloor_2
6
ByLayer
62
256
370
-1
100
AcDbLine
10
1513
20
2705
11
1468
21
2705
0
LINE
5
2F8
100
AcDbEntity
8
2_subfloor_2
6
ByLayer
62
256
370
-1
100
AcDbLine
10
1250
20
2705
11
1205
21
2705
0
MTEXT
5
2F9
100
AcDbEntity
8
2_subfloor_d
6
ByLayer
62
256
370
-1
100
AcDbMText
10
4450
20
420
30
0
40
56
41
56
71
1
72
1
1
19
7
standard
210
0
220
0
230
1
50
0
73
2
44
1
0
MTEXT
5
2FA
100
AcDbEntity
8
2_subfloor_d
6
ByLayer
62
256
370
-1
100
AcDbMText
10
4110
20
89.9989
30
0
40
56
41
99.5555555556
71
1
72
1
1
125
7
standard
210
0
220
0
230
1
50
0
73
2
44
1
0
MTEXT
5
2FB
100
AcDbEntity
8
2_subfloor_d
6
ByLayer
62
256
370
-1
100
AcDbMText
10
4450
20
89.99945
30
0
40
56
41
68.4444444444
71
1
72
1
1
50
7
standard
210
0
220
0
230
1
50
0
73
2
44
1
0
LINE
5
2FC
100
AcDbEntity
8
2_subfloor_d
6
BORDER2
62
256
370
-1
100
AcDbLine
10
1227.5
20
2610
11
1227.5
21
2010
0
LINE
5
2FD
100
AcDbEntity
8
2_subfloor_d
6
BORDER2
62
256
370
-1
100
AcDbLine
10
1490.5
20
2610
11
1490.5
21
2010
0
LINE
5
2FE
100
AcDbEntity
8
2_subfloor_d
6
BORDER2
62
256
370
-1
100
AcDbLine
10
1753.5
20
2610
11
1753.5
21
2010
0
LINE
5
2FF
100
AcDbEntity
8
2_subfloor_d
6
BORDER2
62
256
370
-1
100
AcDbLine
10
2017.5
20
2610
11
2017.5
21
2010
0
LINE
5
300
100
AcDbEntity
8
2_subfloor_d
6
BORDER2
62
256
370
-1
100
AcDbLine
10
2112.5
20
2610
11
2112.5
21
2010
0
LINE
5
301
100
AcDbEntity
8
2_subfloor_d
6
BORDER2
62
256
370
-1
100
AcDbLine
10
2526.5
20
2610
11
2526.5
21
2010
0
LINE
5
302
100
AcDbEntity
8
2_subfloor_d
6
BORDER2
62
256
370
-1
100
AcDbLine
10
2940.5
20
2610
11
2940.5
21
2010
0
LINE
5
303
100
AcDbEntity
8
2_subfloor_d
6
BORDER2
62
256
370
-1
100
AcDbLine
10
3354.5
20
2610
11
3354.5
21
2010
0
LINE
5
304
100
AcDbEntity
8
2_subfloor_d
6
BORDER2
62
256
370
-1
100
AcDbLine
10
3767.5
20
2610
11
3767.5
21
2010
0
LINE
5
305
100
AcDbEntity
8
2_subfloor_d
6
BORDER2
62
256
370
-1
100
AcDbLine
10
3912.5
20
2610
11
3912.5
21
2010
0
LINE
5
306
100
AcDbEntity
8
2_subfloor_d
6
BORDER2
62
256
370
-1
100
AcDbLine
10
4327.5
20
2610
11
4327.5
21
2010
0
LINE
5
307
100
AcDbEntity
8
2_subfloor_d
6
BORDER2
62
256
370
-1
100
AcDbLine
10
4742.5
20
2610
11
4742.5
21
2010
0
LINE
5
308
100
AcDbEntity
8
2_subfloor_d
6
BORDER2
62
256
370
-1
100
AcDbLine
10
5157.5
20
2610
11
5157.5
21
2010
0
LINE
5
309
100
AcDbEntity
8
2_subfloor_d
6
BORDER2
62
256
370
-1
100
AcDbLine
10
5567.5
20
2610
11
5567.5
21
2010
0
LINE
5
30A
100
AcDbEntity
8
2_subfloor_d
6
BORDER2
62
256
370
-1
100
AcDbLine
10
5712.5
20
2610
11
5712.5
21
2010
0
LINE
5
30B
100
AcDbEntity
8
2_subfloor_d
6
BORDER2
62
256
370
-1
100
AcDbLine
10
6137.5
20
2610
11
6137.5
21
2010
0
LINE
5
30C
100
AcDbEntity
8
2_subfloor_d
6
BORDER2
62
256
370
-1
100
AcDbLine
10
6562.5
20
2610
11
6562.5
21
2010
0
LINE
5
30D
100
AcDbEntity
8
2_subfloor_d
6
BORDER2
62
256
370
-1
100
AcDbLine
10
6987.5
20
2610
11
6987.5
21
2010
0
LINE
5
30E
100
AcDbEntity
8
2_subfloor_d
6
BORDER2
62
256
370
-1
100
AcDbLine
10
7417.5
20
2610
11
7417.5
21
2010
0
DIMENSION
5
30F
100
AcDbEntity
8
2_subfloor_d
6
ByLayer
62
256
370
-1
100
AcDbDimension
2
*D12
10
1490.5
20
2300
30
0
11
1359
21
2352
31
0
70
32
71
5
72
0
3
Standard
53
0
210
0
220
0
230
1
100
AcDbAlignedDimension
13
1227.5
23
2349.58716489
33
0
14
1490.5
24
2349.58716489
34
0
100
AcDbRotatedDimension
0
DIMENSION
5
310
100
AcDbEntity
8
2_subfloor_d
6
ByLayer
62
256
370
-1
100
AcDbDimension
2
*D13
10
1753.5
20
2300
30
0
11
1622
21
2352
31
0
70
32
71
5
72
0
3
Standard
53
0
210
0
220
0
230
1
100
AcDbAlignedDimension
13
1490.5
23
2345.17893381
33
0
14
1753.5
24
2340.77070273
34
0
100
AcDbRotatedDimension
0
DIMENSION
5
311
100
AcDbEntity
8
2_subfloor_d
6
ByLayer
62
256
370
-1
100
AcDbDimension
2
*D14
10
2017.5
20
2300
30
0
11
1885.5
21
2352
31
0
70
32
71
5
72
0
3
Standard
53
0
210
0
220
0
230
1
100
AcDbAlignedDimension
13
1753.5
23
2340.77070273
33
0
14
2017.5
24
2340.77070273
34
0
100
AcDbRotatedDimension
0
DIMENSION
5
312
100
AcDbEntity
8
2_subfloor_d
6
ByLayer
62
256
370
-1
100
AcDbDimension
2
*D15
10
2112.5
20
2300
30
0
11
2065
21
2352
31
0
70
32
71
5
72
0
3
Standard
53
0
210
0
220
0
230
1
100
AcDbAlignedDimension
13
2017.5
23
2340.77070273
33
0
14
2112.5
24
2340.77070273
34
0
100
AcDbRotatedDimension
0
DIMENSION
5
313
100
AcDbEntity
8
2_subfloor_d
6
ByLayer
62
256
370
-1
100
AcDbDimension
2
*D16
10
2526.5
20
2300
30
0
11
2319.5
21
2352
31
0
70
32
71
5
72
0
3
Standard
53
0
210
0
220
0
230
1
100
AcDbAlignedDimension
13
2112.5
23
2336.36247165
33
0
14
2526.5
24
2340.77070273
34
0
100
AcDbRotatedDimension
0
DIMENSION
5
314
100
AcDbEntity
8
2_subfloor_d
6
ByLayer
62
256
370
-1
100
AcDbDimension
2
*D17
10
2940.5
20
2300
30
0
11
2733.5
21
2352
31
0
70
32
71
5
72
0
3
Standard
53
0
210
0
220
0
230
1
100
AcDbAlignedDimension
13
2526.5
23
2349.58716489
33
0
14
2940.5
24
2345.17893381
34
0
100
AcDbRotatedDimension
0
DIMENSION
5
315
100
AcDbEntity
8
2_subfloor_d
6
ByLayer
62
256
370
-1
100
AcDbDimension
2
*D18
10
3354.5
20
2300
30
0
11
3147.5
21
2352
31
0
70
32
71
5
72
0
3
Standard
53
0
210
0
220
0
230
1
100
AcDbAlignedDimension
13
2940.5
23
2345.17893381
33
0
14
3354.5
24
2345.17893381
34
0
100
AcDbRotatedDimension
0
DIMENSION
5
316
100
AcDbEntity
8
2_subfloor_d
6
ByLayer
62
256
370
-1
100
AcDbDimension
2
*D19
10
3767.5
20
2300
30
0
11
3561
21
2352
31
0
70
32
71
5
72
0
3
Standard
53
0
210
0
220
0
230
1
100
AcDbAlignedDimension
13
3354.5
23
2353.99539596
33
0
14
3767.5
24
2349.58716489
34
0
100
AcDbRotatedDimension
0
DIMENSION
5
317
100
AcDbEntity
8
2_subfloor_d
6
ByLayer
62
256
370
-1
100
AcDbDimension
2
*D20
10
3912.5
20
2300
30
0
11
3840
21
2352
31
0
70
32
71
5
72
0
3
Standard
53
0
210
0
220
0
230
1
100
AcDbAlignedDimension
13
3767.5
23
2349.58716489
33
0
14
3912.5
24
2349.58716489
34
0
100
AcDbRotatedDimension
0
DIMENSION
5
318
100
AcDbEntity
8
2_subfloor_d
6
ByLayer
62
256
370
-1
100
AcDbDimension
2
*D21
10
4327.5
20
2300
30
0
11
4120
21
2352
31
0
70
32
71
5
72
0
3
Standard
53
0
210
0
220
0
230
1
100
AcDbAlignedDimension
13
3912.5
23
2353.99539596
33
0
14
4327.5
24
2353.99539596
34
0
100
AcDbRotatedDimension
0
DIMENSION
5
319
100
AcDbEntity
8
2_subfloor_d
6
ByLayer
62
256
370
-1
100
AcDbDimension
2
*D22
10
4742.5
20
2300
30
0
11
4535
21
2352
31
0
70
32
71
5
72
0
3
Standard
53
0
210
0
220
0
230
1
100
AcDbAlignedDimension
13
4327.5
23
2353.99539596
33
0
14
4742.5
24
2353.99539596
34
0
100
AcDbRotatedDimension
0
DIMENSION
5
31A
100
AcDbEntity
8
2_subfloor_d
6
ByLayer
62
256
370
-1
100
AcDbDimension
2
*D23
10
5157.5
20
2300
30
0
11
4950
21
2352
31
0
70
32
71
5
72
0
3
Standard
53
0
210
0
220
0
230
1
100
AcDbAlignedDimension
13
4742.5
23
2345.17893381
33
0
14
5157.5
24
2345.17893381
34
0
100
AcDbRotatedDimension
0
DIMENSION
5
31B
100
AcDbEntity
8
2_subfloor_d
6
ByLayer
62
256
370
-1
100
AcDbDimension
2
*D24
10
5567.5
20
2300
30
0
11
5362.5
21
2352
31
0
70
32
71
5
72
0
3
Standard
53
0
210
0
220
0
230
1
100
AcDbAlignedDimension
13
5157.5
23
2340.77070273
33
0
14
5567.5
24
2340.77070273
34
0
100
AcDbRotatedDimension
0
DIMENSION
5
31C
100
AcDbEntity
8
2_subfloor_d
6
ByLayer
62
256
370
-1
100
AcDbDimension
2
*D25
10
5712.5
20
2300
30
0
11
5640
21
2352
31
0
70
32
71
5
72
0
3
Standard
53
0
210
0
220
0
230
1
100
AcDbAlignedDimension
13
5567.5
23
2331.95424057
33
0
14
5712.5
24
2336.36247165
34
0
100
AcDbRotatedDimension
0
DIMENSION
5
31D
100
AcDbEntity
8
2_subfloor_d
6
ByLayer
62
256
370
-1
100
AcDbDimension
2
*D26
10
6137.5
20
2300
30
0
11
5925
21
2352
31
0
70
32
71
5
72
0
3
Standard
53
0
210
0
220
0
230
1
100
AcDbAlignedDimension
13
5712.5
23
2345.17893381
33
0
14
6137.5
24
2349.58716489
34
0
100
AcDbRotatedDimension
0
DIMENSION
5
31E
100
AcDbEntity
8
2_subfloor_d
6
ByLayer
62
256
370
-1
100
AcDbDimension
2
*D27
10
6562.5
20
2300
30
0
11
6350
21
2352
31
0
70
32
71
5
72
0
3
Standard
53
0
210
0
220
0
230
1
100
AcDbAlignedDimension
13
6137.5
23
2358.40362704
33
0
14
6562.5
24
2349.58716489
34
0
100
AcDbRotatedDimension
0
DIMENSION
5
31F
100
AcDbEntity
8
2_subfloor_d
6
ByLayer
62
256
370
-1
100
AcDbDimension
2
*D28
10
6987.5
20
2300
30
0
11
6775
21
2352
31
0
70
32
71
5
72
0
3
Standard
53
0
210
0
220
0
230
1
100
AcDbAlignedDimension
13
6562.5
23
2345.17893381
33
0
14
6987.5
24
2348.70551867
34
0
100
AcDbRotatedDimension
0
DIMENSION
5
320
100
AcDbEntity
8
2_subfloor_d
6
ByLayer
62
256
370
-1
100
AcDbDimension
2
*D29
10
7417.5
20
2300
30
0
11
7202.5
21
2352
31
0
70
32
71
5
72
0
3
Standard
53
0
210
0
220
0
230
1
100
AcDbAlignedDimension
13
6987.5
23
2348.70551867
33
0
14
7417.5
24
2352.23210353
34
0
100
AcDbRotatedDimension
0
DIMENSION
5
321
100
AcDbEntity
8
1_base_d
6
ByLayer
62
256
370
-1
100
AcDbDimension
2
*D30
10
3300
20
5500
30
0
11
2312.5
21
5552
31
0
70
32
71
5
72
0
3
Standard
53
0
210
0
220
0
230
1
100
AcDbAlignedDimension
13
1325
23
5444.83506904
33
0
14
3300
24
5444.83506904
34
0
100
AcDbRotatedDimension
0
DIMENSION
5
322
100
AcDbEntity
8
1_base_d
6
ByLayer
62
256
370
-1
100
AcDbDimension
2
*D31
10
7320
20
5500
30
0
11
6332.5
21
5552
31
0
70
32
71
5
72
0
3
Standard
53
0
210
0
220
0
230
1
100
AcDbAlignedDimension
13
5345
23
5433.38346408
33
0
14
7320
24
5433.38346408
34
0
100
AcDbRotatedDimension
0
DIMENSION
5
323
100
AcDbEntity
8
1_base_d
6
ByLayer
62
256
370
-1
100
AcDbDimension
2
*D32
10
5345
20
2100
30
0
11
4322.5
21
2152
31
0
70
32
1
2055
71
5
72
0
3
Standard
53
0
210
0
220
0
230
1
100
AcDbAlignedDimension
13
3300
23
2164.35333634
33
0
14
5345
24
2158.62753386
34
0
100
AcDbRotatedDimension
0
DIMENSION
5
324
100
AcDbEntity
8
1_base_d
6
ByLayer
62
256
370
-1
100
AcDbDimension
2
*D33
10
800
20
3865
30
0
11
748
21
4420
31
0
70
32
1
1115
71
5
3
Standard
53
0
210
0
220
0
230
1
100
AcDbAlignedDimension
13
852.74223238
23
4975
33
0
14
852.74223238
24
3865
34
0
50
90
100
AcDbRotatedDimension
0
DIMENSION
5
325
100
AcDbEntity
8
1_base_d
6
ByLayer
62
256
370
-1
100
AcDbDimension
2
*D34
10
800
20
2755
30
0
11
748
21
3310
31
0
70
32
1
1115
71
5
3
Standard
53
0
210
0
220
0
230
1
100
AcDbAlignedDimension
13
841.1007002
23
3865
33
0
14
841.1007002
24
2755
34
0
50
90
100
AcDbRotatedDimension
0
DIMENSION
5
326
100
AcDbEntity
8
1_base_d
6
ByLayer
62
256
370
-1
100
AcDbDimension
2
*D35
10
7800
20
3865
30
0
11
7748
21
4420
31
0
70
32
1
1115
71
5
3
Standard
53
0
210
0
220
0
230
1
100
AcDbAlignedDimension
13
7752.02124714
23
4975
33
0
14
7752.02124714
24
3865
34
0
50
90
100
AcDbRotatedDimension
0
DIMENSION
5
327
100
AcDbEntity
8
1_base_d
6
ByLayer
62
256
370
-1
100
AcDbDimension
2
*D36
10
7800
20
2755
30
0
11
7748
21
3310
31
0
70
32
1
1115
71
5
3
Standard
53
0
210
0
220
0
230
1
100
AcDbAlignedDimension
13
7744.91581978
23
3865
33
0
14
7752.02124714
24
2755
34
0
50
90
100
AcDbRotatedDimension
0
DIMENSION
5
328
100
AcDbEntity
8
1_base_d
6
ByLayer
62
256
370
-1
100
AcDbDimension
2
*D37
10
5345
20
5500
30
0
11
4322.5
21
5552
31
0
70
32
1
2055
71
5
72
0
3
Standard
53
0
210
0
220
0
230
1
100
AcDbAlignedDimension
13
3300
23
5439.51235324
33
0
14
5345
24
5439.51235324
34
0
100
AcDbRotatedDimension
0
MTEXT
5
329
100
AcDbEntity
8
2_subfloor_d
6
ByLayer
62
256
370
-1
100
AcDbMText
10
4100
20
530
30
0
40
56
41
161.777777778
71
1
72
1
1
2400
7
standard
210
0
220
0
230
1
50
0
73
2
44
1
0
MTEXT
5
32A
100
AcDbEntity
8
2_subfloor_d
6
ByLayer
62
256
370
-1
100
AcDbMText
10
4450
20
530
30
0
40
56
41
56
71
1
72
1
1
18
7
standard
210
0
220
0
230
1
50
0
73
2
44
1
0
MTEXT
5
32B
100
AcDbEntity
8
2_subfloor_d
6
ByLayer
62
256
370
-1
100
AcDbMText
10
4450
20
200
30
0
40
56
41
56
71
1
72
1
1
12
7
standard
210
0
220
0
230
1
50
0
73
2
44
1
0
MTEXT
5
32C
100
AcDbEntity
8
1_base_d
6
ByLayer
62
256
370
-1
100
AcDbMText
10
6760
20
1060
30
0
40
128
41
1390.22219509
71
1
72
1
1
FLOOR SUPPORT
7
standard
210
0
220
0
230
1
50
0
73
2
44
1
0
ENDSEC
0
SECTION
2
OBJECTS
0
DICTIONARY
5
C
330
0
100
AcDbDictionary
281
1
3
ACAD_GROUP
350
D
0
DICTIONARY
5
D
330
C
100
AcDbDictionary
281
1
0
ENDSEC
0
EOF
