<?xml version="1.0" encoding="UTF-8" standalone="no"?>
<svg width="1598.08mm" height="211.667mm"
 viewBox="0 0 4530 600"
 xmlns="http://www.w3.org/2000/svg" xmlns:xlink="http://www.w3.org/1999/xlink"  version="1.2" baseProfile="tiny">
<title>Qt Svg Document</title>
<desc>Generated with Qt</desc>
<defs>
</defs>
<g fill="none" stroke="black" stroke-width="1" fill-rule="evenodd" stroke-linecap="square" stroke-linejoin="bevel" >

<g fill="#ffffff" fill-opacity="1" stroke="none" transform="matrix(1,0,0,1,0,0)"
font-family="Sans Serif" font-size="9" font-weight="400" font-style="normal" 
>
<path vector-effect="non-scaling-stroke" fill-rule="evenodd" d="M0,0 L4530,0 L4530,600 L0,600 L0,0"/>
</g>

<g fill="none" stroke="#000000" stroke-opacity="1" stroke-width="1" stroke-linecap="round" stroke-linejoin="round" transform="matrix(1,0,0,1,0,0)"
font-family="Sans Serif" font-size="9" font-weight="400" font-style="normal" 
>
<polyline fill="none" vector-effect="non-scaling-stroke" points="4153,492 4153,550 " />
<polyline fill="none" vector-effect="non-scaling-stroke" points="4153,50 4153,108 " />
<polyline fill="none" vector-effect="non-scaling-stroke" points="4095,108 4095,492 " />
<polyline fill="none" vector-effect="non-scaling-stroke" points="4153,492 4153,108 " />
<polyline fill="none" vector-effect="non-scaling-stroke" points="1012,108 1012,492 " />
<polyline fill="none" vector-effect="non-scaling-stroke" points="953,550 953,108 " />
<polyline fill="none" vector-effect="non-scaling-stroke" points="953,492 4153,492 " />
<polyline fill="none" vector-effect="non-scaling-stroke" points="4153,550 953,550 " />
<polyline fill="none" vector-effect="non-scaling-stroke" points="1807,108 1807,492 " />
<polyline fill="none" vector-effect="non-scaling-stroke" points="1748,492 1748,108 " />
<polyline fill="none" vector-effect="non-scaling-stroke" points="2602,108 2602,492 " />
<polyline fill="none" vector-effect="non-scaling-stroke" points="2543,492 2543,108 " />
<polyline fill="none" vector-effect="non-scaling-stroke" points="3397,108 3397,492 " />
<polyline fill="none" vector-effect="non-scaling-stroke" points="3338,492 3338,108 " />
<polyline fill="none" vector-effect="non-scaling-stroke" points="378,108 378,50 " />
<polyline fill="none" vector-effect="non-scaling-stroke" points="378,50 4153,50 " />
<polyline fill="none" vector-effect="non-scaling-stroke" points="4153,108 378,108 " />
</g>
</g>
</svg>
