<?xml version="1.0" encoding="UTF-8" standalone="no"?>
<svg width="1598.08mm" height="211.667mm"
 viewBox="0 0 4530 600"
 xmlns="http://www.w3.org/2000/svg" xmlns:xlink="http://www.w3.org/1999/xlink"  version="1.2" baseProfile="tiny">
<title>Qt Svg Document</title>
<desc>Generated with Qt</desc>
<defs>
</defs>
<g fill="none" stroke="black" stroke-width="1" fill-rule="evenodd" stroke-linecap="square" stroke-linejoin="bevel" >

<g fill="#ffffff" fill-opacity="1" stroke="none" transform="matrix(1,0,0,1,0,0)"
font-family="Sans Serif" font-size="9" font-weight="400" font-style="normal" 
>
<path vector-effect="non-scaling-stroke" fill-rule="evenodd" d="M0,0 L4530,0 L4530,600 L0,600 L0,0"/>
</g>

<g fill="none" stroke="#000000" stroke-opacity="1" stroke-width="1" stroke-linecap="round" stroke-linejoin="round" transform="matrix(1,0,0,1,0,0)"
font-family="Sans Serif" font-size="9" font-weight="400" font-style="normal" 
>
<polyline fill="none" vector-effect="non-scaling-stroke" points="378,492 378,550 " />
<polyline fill="none" vector-effect="non-scaling-stroke" points="378,50 378,108 " />
<polyline fill="none" vector-effect="non-scaling-stroke" points="378,492 378,108 " />
<polyline fill="none" vector-effect="non-scaling-stroke" points="436,108 436,492 " />
<polyline fill="none" vector-effect="non-scaling-stroke" points="3520,108 3520,492 " />
<polyline fill="none" vector-effect="non-scaling-stroke" points="3578,550 3578,108 " />
<polyline fill="none" vector-effect="non-scaling-stroke" points="3578,492 378,492 " />
<polyline fill="none" vector-effect="non-scaling-stroke" points="378,550 3578,550 " />
<polyline fill="none" vector-effect="non-scaling-stroke" points="1195,108 1195,492 " />
<polyline fill="none" vector-effect="non-scaling-stroke" points="1136,492 1136,108 " />
<polyline fill="none" vector-effect="non-scaling-stroke" points="1990,108 1990,492 " />
<polyline fill="none" vector-effect="non-scaling-stroke" points="1931,492 1931,108 " />
<polyline fill="none" vector-effect="non-scaling-stroke" points="2785,108 2785,492 " />
<polyline fill="none" vector-effect="non-scaling-stroke" points="2726,492 2726,108 " />
<polyline fill="none" vector-effect="non-scaling-stroke" points="4153,108 4153,50 " />
<polyline fill="none" vector-effect="non-scaling-stroke" points="378,108 4153,108 " />
<polyline fill="none" vector-effect="non-scaling-stroke" points="4153,50 378,50 " />
</g>
</g>
</svg>
