<?xml version="1.0" encoding="UTF-8" standalone="no"?>
<svg width="1689.81mm" height="211.667mm"
 viewBox="0 0 4790 600"
 xmlns="http://www.w3.org/2000/svg" xmlns:xlink="http://www.w3.org/1999/xlink"  version="1.2" baseProfile="tiny">
<title>Qt Svg Document</title>
<desc>Generated with Qt</desc>
<defs>
</defs>
<g fill="none" stroke="black" stroke-width="1" fill-rule="evenodd" stroke-linecap="square" stroke-linejoin="bevel" >

<g fill="#ffffff" fill-opacity="1" stroke="none" transform="matrix(1,0,0,1,0,0)"
font-family="Sans Serif" font-size="9" font-weight="400" font-style="normal" 
>
<path vector-effect="non-scaling-stroke" fill-rule="evenodd" d="M0,0 L4790,0 L4790,600 L0,600 L0,0"/>
</g>

<g fill="none" stroke="#000000" stroke-opacity="1" stroke-width="1" stroke-linecap="round" stroke-linejoin="round" transform="matrix(1,0,0,1,0,0)"
font-family="Sans Serif" font-size="9" font-weight="400" font-style="normal" 
>
<polyline fill="none" vector-effect="non-scaling-stroke" points="399,492 399,550 " />
<polyline fill="none" vector-effect="non-scaling-stroke" points="4391,492 4391,550 " />
<polyline fill="none" vector-effect="non-scaling-stroke" points="399,550 4391,550 " />
<polyline fill="none" vector-effect="non-scaling-stroke" points="4391,550 4391,492 " />
<polyline fill="none" vector-effect="non-scaling-stroke" points="4391,492 399,492 " />
<polyline fill="none" vector-effect="non-scaling-stroke" points="399,492 399,550 " />
<polyline fill="none" vector-effect="non-scaling-stroke" points="399,50 399,108 " />
<polyline fill="none" vector-effect="non-scaling-stroke" points="4391,50 4391,108 " />
<polyline fill="none" vector-effect="non-scaling-stroke" points="399,108 4391,108 " />
<polyline fill="none" vector-effect="non-scaling-stroke" points="4391,108 4391,50 " />
<polyline fill="none" vector-effect="non-scaling-stroke" points="4391,50 399,50 " />
<polyline fill="none" vector-effect="non-scaling-stroke" points="399,50 399,108 " />
<polyline fill="none" vector-effect="non-scaling-stroke" points="399,492 399,108 " />
<polyline fill="none" vector-effect="non-scaling-stroke" points="458,108 458,492 " />
<polyline fill="none" vector-effect="non-scaling-stroke" points="4333,108 4333,492 " />
<polyline fill="none" vector-effect="non-scaling-stroke" points="4391,492 4391,108 " />
<polyline fill="none" vector-effect="non-scaling-stroke" points="1233,108 1233,492 " />
<polyline fill="none" vector-effect="non-scaling-stroke" points="1174,492 1174,108 " />
<polyline fill="none" vector-effect="non-scaling-stroke" points="2028,108 2028,492 " />
<polyline fill="none" vector-effect="non-scaling-stroke" points="1969,492 1969,108 " />
<polyline fill="none" vector-effect="non-scaling-stroke" points="2823,108 2823,492 " />
<polyline fill="none" vector-effect="non-scaling-stroke" points="2764,492 2764,108 " />
<polyline fill="none" vector-effect="non-scaling-stroke" points="3618,108 3618,492 " />
<polyline fill="none" vector-effect="non-scaling-stroke" points="3559,492 3559,108 " />
</g>
</g>
</svg>
