999
dxfrw 0.5.11
0
SECTION
2
HEADER
9
$ACADVER
1
AC1021
9
$HANDSEED
5
20000
9
$DWGCODEPAGE
3
ANSI_1252
9
$INSBASE
10
0
20
0
30
0
9
$EXTMIN
10
3.5527136788e-14
20
0
30
0
9
$EXTMAX
10
8580
20
6094
30
0
9
$LIMMIN
10
0
20
0
9
$LIMMAX
10
420
20
297
9
$ORTHOMODE
70
0
9
$LTSCALE
40
1
9
$TEXTSTYLE
7
STANDARD
9
$CLAYER
8
0
9
$DIMASZ
40
64
9
$DIMLFAC
40
1
9
$DIMSCALE
40
1
9
$DIMEXO
40
50
9
$DIMEXE
40
16
9
$DIMTXT
40
64
9
$DIMTSZ
40
0
9
$DIMAUNIT
70
0
9
$DIMADEC
70
2
9
$DIMLUNIT
70
2
9
$DIMSTYLE
2
STANDARD
9
$DIMGAP
40
20
9
$DIMTIH
70
0
9
$LUNITS
70
2
9
$LUPREC
70
4
9
$AUNITS
70
0
9
$AUPREC
70
2
9
$SPLINESEGS
70
8
9
$GRIDMODE
70
1
9
$SNAPSTYLE
70
0
9
$GRIDUNIT
10
0
20
0
9
$PINSBASE
10
0
20
0
30
0
9
$PLIMMIN
10
0
20
0
9
$PLIMMAX
10
297
20
210
9
$INSUNITS
70
4
9
$PSVPSCALE
40
1
0
ENDSEC
0
SECTION
2
CLASSES
0
ENDSEC
0
SECTION
2
TABLES
0
TABLE
2
VPORT
5
8
330
0
100
AcDbSymbolTable
70
1
0
VPORT
5
31
330
2
100
AcDbSymbolTableRecord
100
AcDbViewportTableRecord
2
*ACTIVE
70
0
10
0
20
0
11
1
21
1
12
4916.79813795
22
3053.93748551
13
0
23
0
14
10
24
10
15
10
25
10
16
0
26
0
36
1
17
0
27
0
37
0
40
4789.03557108
41
2.67641996558
42
50
43
0
44
0
50
0
51
0
71
0
72
100
73
1
74
3
75
0
76
1
77
0
78
0
281
0
65
1
110
0
120
0
130
0
111
1
121
0
131
0
112
0
122
1
132
0
79
0
146
0
348
10020
60
7
61
5
292
1
282
1
141
0
142
0
63
250
421
3358443
0
ENDTAB
0
TABLE
2
LTYPE
5
5
330
0
100
AcDbSymbolTable
70
4
0
LTYPE
5
14
330
5
100
AcDbSymbolTableRecord
100
AcDbLinetypeTableRecord
2
ByBlock
70
0
3

72
65
73
0
40
0
0
LTYPE
5
15
330
5
100
AcDbSymbolTableRecord
100
AcDbLinetypeTableRecord
2
ByLayer
70
0
3

72
65
73
0
40
0
0
LTYPE
5
16
330
5
100
AcDbSymbolTableRecord
100
AcDbLinetypeTableRecord
2
Continuous
70
0
3
Solid line
72
65
73
0
40
0
0
LTYPE
5
32
330
5
100
AcDbSymbolTableRecord
100
AcDbLinetypeTableRecord
2
DOT
70
0
3
Dot . . . . . . . . . . . . . . . . . . . . . .
72
65
73
2
40
6.35
49
0
74
0
49
-6.35
74
0
0
LTYPE
5
33
330
5
100
AcDbSymbolTableRecord
100
AcDbLinetypeTableRecord
2
DOT2
70
0
3
Dot (.5x) .....................................
72
65
73
2
40
3.175
49
0
74
0
49
-3.175
74
0
0
LTYPE
5
34
330
5
100
AcDbSymbolTableRecord
100
AcDbLinetypeTableRecord
2
DOTX2
70
0
3
Dot (2x) .  .  .  .  .  .  .  .  .  .  .  .  .
72
65
73
2
40
12.7
49
0
74
0
49
-12.7
74
0
0
LTYPE
5
35
330
5
100
AcDbSymbolTableRecord
100
AcDbLinetypeTableRecord
2
DASHED
70
0
3
Dot . . . . . . . . . . . . . . . . . . . . . .
72
65
73
2
40
19.05
49
12.7
74
0
49
-6.35
74
0
0
LTYPE
5
36
330
5
100
AcDbSymbolTableRecord
100
AcDbLinetypeTableRecord
2
DASHED2
70
0
3
Dashed (.5x) _ _ _ _ _ _ _ _ _ _ _ _ _ _ _ _ _
72
65
73
2
40
9.525
49
6.35
74
0
49
-3.175
74
0
0
LTYPE
5
37
330
5
100
AcDbSymbolTableRecord
100
AcDbLinetypeTableRecord
2
DASHEDX2
70
0
3
Dashed (2x) ____  ____  ____  ____  ____  ___
72
65
73
2
40
38.1
49
25.4
74
0
49
-12.7
74
0
0
LTYPE
5
38
330
5
100
AcDbSymbolTableRecord
100
AcDbLinetypeTableRecord
2
DASHDOT
70
0
3
Dash dot __ . __ . __ . __ . __ . __ . __ . __
72
65
73
4
40
25.4
49
12.7
74
0
49
-6.35
74
0
49
0
74
0
49
-6.35
74
0
0
LTYPE
5
39
330
5
100
AcDbSymbolTableRecord
100
AcDbLinetypeTableRecord
2
DASHDOT2
70
0
3
Dash dot (.5x) _._._._._._._._._._._._._._._.
72
65
73
4
40
12.7
49
6.35
74
0
49
-3.175
74
0
49
0
74
0
49
-3.175
74
0
0
LTYPE
5
3A
330
5
100
AcDbSymbolTableRecord
100
AcDbLinetypeTableRecord
2
DASHDOTX2
70
0
3
Dash dot (2x) ____  .  ____  .  ____  .  ___
72
65
73
4
40
50.8
49
25.4
74
0
49
-12.7
74
0
49
0
74
0
49
-12.7
74
0
0
LTYPE
5
3B
330
5
100
AcDbSymbolTableRecord
100
AcDbLinetypeTableRecord
2
DIVIDE
70
0
3
Divide ____ . . ____ . . ____ . . ____ . . ____
72
65
73
6
40
31.75
49
12.7
74
0
49
-6.35
74
0
49
0
74
0
49
-6.35
74
0
49
0
74
0
49
-6.35
74
0
0
LTYPE
5
3C
330
5
100
AcDbSymbolTableRecord
100
AcDbLinetypeTableRecord
2
DIVIDE2
70
0
3
Divide (.5x) __..__..__..__..__..__..__..__.._
72
65
73
6
40
15.875
49
6.35
74
0
49
-3.175
74
0
49
0
74
0
49
-3.175
74
0
49
0
74
0
49
-3.175
74
0
0
LTYPE
5
3D
330
5
100
AcDbSymbolTableRecord
100
AcDbLinetypeTableRecord
2
DIVIDEX2
70
0
3
Divide (2x) ________  .  .  ________  .  .  _
72
65
73
6
40
63.5
49
25.4
74
0
49
-12.7
74
0
49
0
74
0
49
-12.7
74
0
49
0
74
0
49
-12.7
74
0
0
LTYPE
5
3E
330
5
100
AcDbSymbolTableRecord
100
AcDbLinetypeTableRecord
2
BORDER
70
0
3
Border __ __ . __ __ . __ __ . __ __ . __ __ .
72
65
73
6
40
44.45
49
12.7
74
0
49
-6.35
74
0
49
12.7
74
0
49
-6.35
74
0
49
0
74
0
49
-6.35
74
0
0
LTYPE
5
3F
330
5
100
AcDbSymbolTableRecord
100
AcDbLinetypeTableRecord
2
BORDER2
70
0
3
Border (.5x) __.__.__.__.__.__.__.__.__.__.__.
72
65
73
6
40
22.225
49
6.35
74
0
49
-3.175
74
0
49
6.35
74
0
49
-3.175
74
0
49
0
74
0
49
-3.175
74
0
0
LTYPE
5
40
330
5
100
AcDbSymbolTableRecord
100
AcDbLinetypeTableRecord
2
BORDERX2
70
0
3
Border (2x) ____  ____  .  ____  ____  .  ___
72
65
73
6
40
88.9
49
25.4
74
0
49
-12.7
74
0
49
25.4
74
0
49
-12.7
74
0
49
0
74
0
49
-12.7
74
0
0
LTYPE
5
41
330
5
100
AcDbSymbolTableRecord
100
AcDbLinetypeTableRecord
2
CENTER
70
0
3
Center ____ _ ____ _ ____ _ ____ _ ____ _ ____
72
65
73
4
40
50.8
49
31.75
74
0
49
-6.35
74
0
49
6.35
74
0
49
-6.35
74
0
0
LTYPE
5
42
330
5
100
AcDbSymbolTableRecord
100
AcDbLinetypeTableRecord
2
CENTER2
70
0
3
Center (.5x) ___ _ ___ _ ___ _ ___ _ ___ _ ___
72
65
73
4
40
28.575
49
19.05
74
0
49
-3.175
74
0
49
3.175
74
0
49
-3.175
74
0
0
LTYPE
5
43
330
5
100
AcDbSymbolTableRecord
100
AcDbLinetypeTableRecord
2
CENTERX2
70
0
3
Center (2x) ________  __  ________  __  _____
72
65
73
4
40
101.6
49
63.5
74
0
49
-12.7
74
0
49
12.7
74
0
49
-12.7
74
0
0
ENDTAB
0
TABLE
2
LAYER
5
2
330
0
100
AcDbSymbolTable
70
1
0
LAYER
5
10
330
2
100
AcDbSymbolTableRecord
100
AcDbLayerTableRecord
2
0
70
0
62
7
6
CONTINUOUS
370
0
390
F
0
LAYER
5
44
330
2
100
AcDbSymbolTableRecord
100
AcDbLayerTableRecord
2
6_roof_rack
70
1
62
7
6
CONTINUOUS
370
0
390
F
0
LAYER
5
45
330
2
100
AcDbSymbolTableRecord
100
AcDbLayerTableRecord
2
6_roof_rack_d
70
1
62
4
6
CONTINUOUS
370
13
390
F
0
LAYER
5
46
330
2
100
AcDbSymbolTableRecord
100
AcDbLayerTableRecord
2
7_roof_rafter
70
0
62
7
6
CONTINUOUS
370
35
390
F
0
LAYER
5
47
330
2
100
AcDbSymbolTableRecord
100
AcDbLayerTableRecord
2
7_roof_rafter_d
70
0
62
4
6
CONTINUOUS
370
13
390
F
0
LAYER
5
48
330
2
100
AcDbSymbolTableRecord
100
AcDbLayerTableRecord
2
8_roof
70
1
62
7
6
CONTINUOUS
370
35
390
F
0
ENDTAB
0
TABLE
2
STYLE
5
3
330
0
100
AcDbSymbolTable
70
3
0
STYLE
5
49
330
2
100
AcDbSymbolTableRecord
100
AcDbTextStyleTableRecord
2
normal#0.500000#0.900000
70
0
40
0
41
1
50
0
71
0
42
1
3
normal#0.500000#0.900000
4

0
STYLE
5
4A
330
2
100
AcDbSymbolTableRecord
100
AcDbTextStyleTableRecord
2
standard
70
0
40
0
41
1
50
0
71
0
42
1
3
standard
4

0
STYLE
5
4B
330
2
100
AcDbSymbolTableRecord
100
AcDbTextStyleTableRecord
2
iso
70
0
40
0
41
1
50
0
71
0
42
1
3
iso
4

0
ENDTAB
0
TABLE
2
VIEW
5
6
330
0
100
AcDbSymbolTable
70
0
0
ENDTAB
0
TABLE
2
UCS
5
7
330
0
100
AcDbSymbolTable
70
0
0
ENDTAB
0
TABLE
2
APPID
5
9
330
0
100
AcDbSymbolTable
70
1
0
APPID
5
12
330
9
100
AcDbSymbolTableRecord
100
AcDbRegAppTableRecord
2
ACAD
70
0
0
ENDTAB
0
TABLE
2
DIMSTYLE
5
A
330
0
100
AcDbSymbolTable
70
1
100
AcDbDimStyleTable
71
1
0
DIMSTYLE
105
4C
330
A
100
AcDbSymbolTableRecord
100
AcDbDimStyleTableRecord
2
Standard
70
0
40
1
41
64
42
50
43
0.38
44
16
45
0
46
0
47
0
48
0
140
64
141
0.09
142
0
143
25.4
144
1
145
0
146
1
147
20
148
0
71
0
72
0
73
0
74
1
75
0
76
0
77
0
78
0
79
0
170
0
171
2
172
0
173
0
174
0
175
0
176
0
177
0
178
0
179
0
271
4
272
4
273
2
274
2
275
0
276
0
277
2
278
46
279
0
280
0
281
0
282
0
283
1
284
0
285
0
286
0
288
0
289
3
340
Standard
341

371
-2
372
-2
0
ENDTAB
0
TABLE
2
BLOCK_RECORD
5
1
330
0
100
AcDbSymbolTable
70
2
0
BLOCK_RECORD
5
1F
330
1
100
AcDbSymbolTableRecord
100
AcDbBlockTableRecord
2
*Model_Space
70
0
280
1
281
0
0
BLOCK_RECORD
5
1E
330
1
100
AcDbSymbolTableRecord
100
AcDbBlockTableRecord
2
*Paper_Space
70
0
280
1
281
0
0
BLOCK_RECORD
5
4D
330
1
100
AcDbSymbolTableRecord
100
AcDbBlockTableRecord
2
*D1
70
0
280
1
281
0
0
BLOCK_RECORD
5
50
330
1
100
AcDbSymbolTableRecord
100
AcDbBlockTableRecord
2
*D17
70
0
280
1
281
0
0
BLOCK_RECORD
5
53
330
1
100
AcDbSymbolTableRecord
100
AcDbBlockTableRecord
2
*D27
70
0
280
1
281
0
0
BLOCK_RECORD
5
56
330
1
100
AcDbSymbolTableRecord
100
AcDbBlockTableRecord
2
*D4
70
0
280
1
281
0
0
BLOCK_RECORD
5
59
330
1
100
AcDbSymbolTableRecord
100
AcDbBlockTableRecord
2
*D21
70
0
280
1
281
0
0
BLOCK_RECORD
5
5C
330
1
100
AcDbSymbolTableRecord
100
AcDbBlockTableRecord
2
*D40
70
0
280
1
281
0
0
BLOCK_RECORD
5
5F
330
1
100
AcDbSymbolTableRecord
100
AcDbBlockTableRecord
2
*D42
70
0
280
1
281
0
0
BLOCK_RECORD
5
62
330
1
100
AcDbSymbolTableRecord
100
AcDbBlockTableRecord
2
*D9
70
0
280
1
281
0
0
BLOCK_RECORD
5
65
330
1
100
AcDbSymbolTableRecord
100
AcDbBlockTableRecord
2
*D14
70
0
280
1
281
0
0
BLOCK_RECORD
5
68
330
1
100
AcDbSymbolTableRecord
100
AcDbBlockTableRecord
2
*D37
70
0
280
1
281
0
0
BLOCK_RECORD
5
6B
330
1
100
AcDbSymbolTableRecord
100
AcDbBlockTableRecord
2
*D33
70
0
280
1
281
0
0
BLOCK_RECORD
5
6E
330
1
100
AcDbSymbolTableRecord
100
AcDbBlockTableRecord
2
*D25
70
0
280
1
281
0
0
BLOCK_RECORD
5
71
330
1
100
AcDbSymbolTableRecord
100
AcDbBlockTableRecord
2
*D22
70
0
280
1
281
0
0
BLOCK_RECORD
5
74
330
1
100
AcDbSymbolTableRecord
100
AcDbBlockTableRecord
2
*D39
70
0
280
1
281
0
0
BLOCK_RECORD
5
77
330
1
100
AcDbSymbolTableRecord
100
AcDbBlockTableRecord
2
*D19
70
0
280
1
281
0
0
BLOCK_RECORD
5
7A
330
1
100
AcDbSymbolTableRecord
100
AcDbBlockTableRecord
2
*D29
70
0
280
1
281
0
0
BLOCK_RECORD
5
7D
330
1
100
AcDbSymbolTableRecord
100
AcDbBlockTableRecord
2
*D44
70
0
280
1
281
0
0
BLOCK_RECORD
5
80
330
1
100
AcDbSymbolTableRecord
100
AcDbBlockTableRecord
2
*D10
70
0
280
1
281
0
0
BLOCK_RECORD
5
83
330
1
100
AcDbSymbolTableRecord
100
AcDbBlockTableRecord
2
*D41
70
0
280
1
281
0
0
BLOCK_RECORD
5
86
330
1
100
AcDbSymbolTableRecord
100
AcDbBlockTableRecord
2
*D45
70
0
280
1
281
0
0
BLOCK_RECORD
5
89
330
1
100
AcDbSymbolTableRecord
100
AcDbBlockTableRecord
2
*D12
70
0
280
1
281
0
0
BLOCK_RECORD
5
8C
330
1
100
AcDbSymbolTableRecord
100
AcDbBlockTableRecord
2
*D32
70
0
280
1
281
0
0
BLOCK_RECORD
5
8F
330
1
100
AcDbSymbolTableRecord
100
AcDbBlockTableRecord
2
*D6
70
0
280
1
281
0
0
BLOCK_RECORD
5
92
330
1
100
AcDbSymbolTableRecord
100
AcDbBlockTableRecord
2
*D2
70
0
280
1
281
0
0
BLOCK_RECORD
5
95
330
1
100
AcDbSymbolTableRecord
100
AcDbBlockTableRecord
2
*D18
70
0
280
1
281
0
0
BLOCK_RECORD
5
98
330
1
100
AcDbSymbolTableRecord
100
AcDbBlockTableRecord
2
*D11
70
0
280
1
281
0
0
BLOCK_RECORD
5
9B
330
1
100
AcDbSymbolTableRecord
100
AcDbBlockTableRecord
2
*D3
70
0
280
1
281
0
0
BLOCK_RECORD
5
9E
330
1
100
AcDbSymbolTableRecord
100
AcDbBlockTableRecord
2
*D38
70
0
280
1
281
0
0
BLOCK_RECORD
5
A1
330
1
100
AcDbSymbolTableRecord
100
AcDbBlockTableRecord
2
*D15
70
0
280
1
281
0
0
BLOCK_RECORD
5
A4
330
1
100
AcDbSymbolTableRecord
100
AcDbBlockTableRecord
2
*D8
70
0
280
1
281
0
0
BLOCK_RECORD
5
A7
330
1
100
AcDbSymbolTableRecord
100
AcDbBlockTableRecord
2
*D35
70
0
280
1
281
0
0
BLOCK_RECORD
5
AA
330
1
100
AcDbSymbolTableRecord
100
AcDbBlockTableRecord
2
*D5
70
0
280
1
281
0
0
BLOCK_RECORD
5
AD
330
1
100
AcDbSymbolTableRecord
100
AcDbBlockTableRecord
2
*D43
70
0
280
1
281
0
0
BLOCK_RECORD
5
B0
330
1
100
AcDbSymbolTableRecord
100
AcDbBlockTableRecord
2
*D26
70
0
280
1
281
0
0
BLOCK_RECORD
5
B3
330
1
100
AcDbSymbolTableRecord
100
AcDbBlockTableRecord
2
*D16
70
0
280
1
281
0
0
BLOCK_RECORD
5
B6
330
1
100
AcDbSymbolTableRecord
100
AcDbBlockTableRecord
2
*D24
70
0
280
1
281
0
0
BLOCK_RECORD
5
B9
330
1
100
AcDbSymbolTableRecord
100
AcDbBlockTableRecord
2
*D7
70
0
280
1
281
0
0
BLOCK_RECORD
5
BC
330
1
100
AcDbSymbolTableRecord
100
AcDbBlockTableRecord
2
*D34
70
0
280
1
281
0
0
BLOCK_RECORD
5
BF
330
1
100
AcDbSymbolTableRecord
100
AcDbBlockTableRecord
2
*D36
70
0
280
1
281
0
0
BLOCK_RECORD
5
C2
330
1
100
AcDbSymbolTableRecord
100
AcDbBlockTableRecord
2
*D20
70
0
280
1
281
0
0
BLOCK_RECORD
5
C5
330
1
100
AcDbSymbolTableRecord
100
AcDbBlockTableRecord
2
*D13
70
0
280
1
281
0
0
BLOCK_RECORD
5
C8
330
1
100
AcDbSymbolTableRecord
100
AcDbBlockTableRecord
2
*D23
70
0
280
1
281
0
0
BLOCK_RECORD
5
CB
330
1
100
AcDbSymbolTableRecord
100
AcDbBlockTableRecord
2
*D30
70
0
280
1
281
0
0
BLOCK_RECORD
5
CE
330
1
100
AcDbSymbolTableRecord
100
AcDbBlockTableRecord
2
*D31
70
0
280
1
281
0
0
BLOCK_RECORD
5
D1
330
1
100
AcDbSymbolTableRecord
100
AcDbBlockTableRecord
2
*D28
70
0
280
1
281
0
0
BLOCK_RECORD
5
D4
330
1
100
AcDbSymbolTableRecord
100
AcDbBlockTableRecord
2
a3-0
70
0
280
1
281
0
0
BLOCK_RECORD
5
D7
330
1
100
AcDbSymbolTableRecord
100
AcDbBlockTableRecord
2
A3_Xu-0
70
0
280
1
281
0
0
ENDTAB
0
ENDSEC
0
SECTION
2
BLOCKS
0
BLOCK
5
20
330
1F
100
AcDbEntity
8
0
100
AcDbBlockBegin
2
*Model_Space
70
0
10
0
20
0
30
0
3
*Model_Space
1

0
ENDBLK
5
21
330
1F
100
AcDbEntity
8
0
100
AcDbBlockEnd
0
BLOCK
5
1C
330
1B
100
AcDbEntity
8
0
100
AcDbBlockBegin
2
*Paper_Space
70
0
10
0
20
0
30
0
3
*Paper_Space
1

0
ENDBLK
5
1D
330
1F
100
AcDbEntity
8
0
100
AcDbBlockEnd
0
BLOCK
5
4E
330
4D
100
AcDbEntity
8
0
100
AcDbBlockBegin
2
*D1
70
1
10
0
20
0
3
*D1
1

0
LINE
5
DA
100
AcDbEntity
8
6_roof_rack_d
6
CONTINUOUS
62
7
370
0
100
AcDbLine
10
8000
20
4935
11
8000
21
2795
0
SOLID
5
DB
100
AcDbEntity
8
6_roof_rack_d
6
CONTINUOUS
62
7
370
0
100
AcDbTrace
10
8000
20
4935
30
0
11
8010.65688724
21
4871
31
0
12
7989.34311276
22
4871
32
0
13
7989.34311276
23
4871
33
0
0
SOLID
5
DC
100
AcDbEntity
8
6_roof_rack_d
6
CONTINUOUS
62
7
370
0
100
AcDbTrace
10
8000
20
2795
30
0
11
7989.34311276
21
2859
31
0
12
8010.65688724
22
2859
32
0
13
8010.65688724
23
2859
33
0
0
MTEXT
5
DD
100
AcDbEntity
8
6_roof_rack_d
6
CONTINUOUS
62
7
370
0
100
AcDbMText
10
7948
20
3865
30
0
40
64
41
170.666666667
71
5
72
1
1
2140
7
standard
210
0
220
0
230
1
50
90
73
2
44
1
0
LINE
5
DE
100
AcDbEntity
8
6_roof_rack_d
6
CONTINUOUS
62
7
370
0
100
AcDbLine
10
7998.25609773
20
4935
11
8016
21
4935
0
LINE
5
DF
100
AcDbEntity
8
6_roof_rack_d
6
CONTINUOUS
62
7
370
0
100
AcDbLine
10
7998.25609773
20
2795
11
8016
21
2795
0
ENDBLK
5
4F
330
4D
100
AcDbEntity
8
0
100
AcDbBlockEnd
0
BLOCK
5
51
330
50
100
AcDbEntity
8
0
100
AcDbBlockBegin
2
*D17
70
1
10
0
20
0
3
*D17
1

0
LINE
5
E0
100
AcDbEntity
8
7_roof_rafter_d
6
CONTINUOUS
62
7
370
0
100
AcDbLine
10
1222
20
1900
11
3125
21
1900
0
SOLID
5
E1
100
AcDbEntity
8
7_roof_rafter_d
6
CONTINUOUS
62
7
370
0
100
AcDbTrace
10
1222
20
1900
30
0
11
1286
21
1910.65688724
31
0
12
1286
22
1889.34311276
32
0
13
1286
23
1889.34311276
33
0
0
SOLID
5
E2
100
AcDbEntity
8
7_roof_rafter_d
6
CONTINUOUS
62
7
370
0
100
AcDbTrace
10
3125
20
1900
30
0
11
3061
21
1889.34311276
31
0
12
3061
22
1910.65688724
32
0
13
3061
23
1910.65688724
33
0
0
MTEXT
5
E3
100
AcDbEntity
8
7_roof_rafter_d
6
CONTINUOUS
62
7
370
0
100
AcDbMText
10
2173.5
20
1952
30
0
40
64
41
163.555555556
71
5
72
1
1
1903
7
standard
210
0
220
0
230
1
50
0
73
2
44
1
0
LINE
5
E4
100
AcDbEntity
8
7_roof_rafter_d
6
CONTINUOUS
62
7
370
0
100
AcDbLine
10
1222
20
1854.25453184
11
1222
21
1884
0
LINE
5
E5
100
AcDbEntity
8
7_roof_rafter_d
6
CONTINUOUS
62
7
370
0
100
AcDbLine
10
3125
20
1871.3075575
11
3125
21
1884
0
ENDBLK
5
52
330
50
100
AcDbEntity
8
0
100
AcDbBlockEnd
0
BLOCK
5
54
330
53
100
AcDbEntity
8
0
100
AcDbBlockBegin
2
*D27
70
1
10
0
20
0
3
*D27
1

0
LINE
5
E6
100
AcDbEntity
8
7_roof_rafter_d
6
CONTINUOUS
62
7
370
0
100
AcDbLine
10
6365
20
5500
11
5894
21
5500
0
SOLID
5
E7
100
AcDbEntity
8
7_roof_rafter_d
6
CONTINUOUS
62
7
370
0
100
AcDbTrace
10
6365
20
5500
30
0
11
6301
21
5489.34311276
31
0
12
6301
22
5510.65688724
32
0
13
6301
23
5510.65688724
33
0
0
SOLID
5
E8
100
AcDbEntity
8
7_roof_rafter_d
6
CONTINUOUS
62
7
370
0
100
AcDbTrace
10
5894
20
5500
30
0
11
5958
21
5510.65688724
31
0
12
5958
22
5489.34311276
32
0
13
5958
23
5489.34311276
33
0
0
MTEXT
5
E9
100
AcDbEntity
8
7_roof_rafter_d
6
CONTINUOUS
62
7
370
0
100
AcDbMText
10
6129.5
20
5552
30
0
40
64
41
120.888888889
71
5
72
1
1
471
7
standard
210
0
220
0
230
1
50
360
73
2
44
1
0
LINE
5
EA
100
AcDbEntity
8
7_roof_rafter_d
6
CONTINUOUS
62
7
370
0
100
AcDbLine
10
6365
20
5510.30036374
11
6365
21
5516
0
LINE
5
EB
100
AcDbEntity
8
7_roof_rafter_d
6
CONTINUOUS
62
7
370
0
100
AcDbLine
10
5894
20
5506.40571298
11
5894
21
5516
0
ENDBLK
5
55
330
53
100
AcDbEntity
8
0
100
AcDbBlockEnd
0
BLOCK
5
57
330
56
100
AcDbEntity
8
0
100
AcDbBlockBegin
2
*D4
70
1
10
0
20
0
3
*D4
1

0
LINE
5
EC
100
AcDbEntity
8
6_roof_rack_d
6
CONTINUOUS
62
7
370
0
100
AcDbLine
10
5539.6875
20
2744.375
11
5692.1875
21
2464.375
0
LINE
5
ED
100
AcDbEntity
8
6_roof_rack_d
6
CONTINUOUS
62
7
370
0
100
AcDbLine
10
5692.1875
20
2464.375
11
6392.1875
21
2464.375
0
SOLID
5
EE
100
AcDbEntity
8
6_roof_rack_d
6
CONTINUOUS
62
7
370
0
100
AcDbTrace
10
5539.6875
20
2744.375
30
0
11
5579.65769631
21
2693.26773385
31
0
12
5560.94004489
22
2683.07329871
32
0
13
5560.94004489
23
2683.07329871
33
0
0
ENDBLK
5
58
330
56
100
AcDbEntity
8
0
100
AcDbBlockEnd
0
BLOCK
5
5A
330
59
100
AcDbEntity
8
0
100
AcDbBlockBegin
2
*D21
70
1
10
0
20
0
3
*D21
1

0
LINE
5
EF
100
AcDbEntity
8
7_roof_rafter_d
6
CONTINUOUS
62
7
370
0
100
AcDbLine
10
3125
20
5700
11
5520
21
5700
0
SOLID
5
F0
100
AcDbEntity
8
7_roof_rafter_d
6
CONTINUOUS
62
7
370
0
100
AcDbTrace
10
3125
20
5700
30
0
11
3189
21
5710.65688724
31
0
12
3189
22
5689.34311276
32
0
13
3189
23
5689.34311276
33
0
0
SOLID
5
F1
100
AcDbEntity
8
7_roof_rafter_d
6
CONTINUOUS
62
7
370
0
100
AcDbTrace
10
5520
20
5700
30
0
11
5456
21
5689.34311276
31
0
12
5456
22
5710.65688724
32
0
13
5456
23
5710.65688724
33
0
0
MTEXT
5
F2
100
AcDbEntity
8
7_roof_rafter_d
6
CONTINUOUS
62
7
370
0
100
AcDbMText
10
4322.5
20
5752
30
0
40
64
41
177.777777778
71
5
72
1
1
2395
7
standard
210
0
220
0
230
1
50
0
73
2
44
1
0
LINE
5
F3
100
AcDbEntity
8
7_roof_rafter_d
6
CONTINUOUS
62
7
370
0
100
AcDbLine
10
3125
20
5743.39241592
11
3125
21
5716
0
LINE
5
F4
100
AcDbEntity
8
7_roof_rafter_d
6
CONTINUOUS
62
7
370
0
100
AcDbLine
10
5520
20
5749.0767578
11
5520
21
5716
0
ENDBLK
5
5B
330
59
100
AcDbEntity
8
0
100
AcDbBlockEnd
0
BLOCK
5
5D
330
5C
100
AcDbEntity
8
0
100
AcDbBlockBegin
2
*D40
70
1
10
0
20
0
3
*D40
1

0
LINE
5
F5
100
AcDbEntity
8
6_roof_rack_d
6
CONTINUOUS
62
7
370
0
100
AcDbLine
10
7900
20
4917
11
7900
21
4479
0
SOLID
5
F6
100
AcDbEntity
8
6_roof_rack_d
6
CONTINUOUS
62
7
370
0
100
AcDbTrace
10
7900
20
4917
30
0
11
7910.65688724
21
4853
31
0
12
7889.34311276
22
4853
32
0
13
7889.34311276
23
4853
33
0
0
SOLID
5
F7
100
AcDbEntity
8
6_roof_rack_d
6
CONTINUOUS
62
7
370
0
100
AcDbTrace
10
7900
20
4479
30
0
11
7889.34311276
21
4543
31
0
12
7910.65688724
22
4543
32
0
13
7910.65688724
23
4543
33
0
0
MTEXT
5
F8
100
AcDbEntity
8
6_roof_rack_d
6
CONTINUOUS
62
7
370
0
100
AcDbMText
10
7848
20
4698
30
0
40
64
41
135.111111111
71
5
72
1
1
438
7
standard
210
0
220
0
230
1
50
90
73
2
44
1
0
LINE
5
F9
100
AcDbEntity
8
6_roof_rack_d
6
CONTINUOUS
62
7
370
0
100
AcDbLine
10
7913.18218644
20
4917
11
7916
21
4917
0
LINE
5
FA
100
AcDbEntity
8
6_roof_rack_d
6
CONTINUOUS
62
7
370
0
100
AcDbLine
10
7924.20276414
20
4479
11
7916
21
4479
0
ENDBLK
5
5E
330
5C
100
AcDbEntity
8
0
100
AcDbBlockEnd
0
BLOCK
5
60
330
5F
100
AcDbEntity
8
0
100
AcDbBlockBegin
2
*D42
70
1
10
0
20
0
3
*D42
1

0
LINE
5
FB
100
AcDbEntity
8
6_roof_rack_d
6
CONTINUOUS
62
7
370
0
100
AcDbLine
10
7900
20
3249
11
7900
21
2812
0
SOLID
5
FC
100
AcDbEntity
8
6_roof_rack_d
6
CONTINUOUS
62
7
370
0
100
AcDbTrace
10
7900
20
3249
30
0
11
7910.65688724
21
3185
31
0
12
7889.34311276
22
3185
32
0
13
7889.34311276
23
3185
33
0
0
SOLID
5
FD
100
AcDbEntity
8
6_roof_rack_d
6
CONTINUOUS
62
7
370
0
100
AcDbTrace
10
7900
20
2812
30
0
11
7889.34311276
21
2876
31
0
12
7910.65688724
22
2876
32
0
13
7910.65688724
23
2876
33
0
0
MTEXT
5
FE
100
AcDbEntity
8
6_roof_rack_d
6
CONTINUOUS
62
7
370
0
100
AcDbMText
10
7848
20
3030.5
30
0
40
64
41
135.111111111
71
5
72
1
1
437
7
standard
210
0
220
0
230
1
50
90
73
2
44
1
0
LINE
5
FF
100
AcDbEntity
8
6_roof_rack_d
6
CONTINUOUS
62
7
370
0
100
AcDbLine
10
7891.14103105
20
3249
11
7916
21
3249
0
LINE
5
100
100
AcDbEntity
8
6_roof_rack_d
6
CONTINUOUS
62
7
370
0
100
AcDbLine
10
7896.6513199
20
2812
11
7916
21
2812
0
ENDBLK
5
61
330
5F
100
AcDbEntity
8
0
100
AcDbBlockEnd
0
BLOCK
5
63
330
62
100
AcDbEntity
8
0
100
AcDbBlockBegin
2
*D9
70
1
10
0
20
0
3
*D9
1

0
LINE
5
101
100
AcDbEntity
8
6_roof_rack_d
6
CONTINUOUS
62
7
370
0
100
AcDbLine
10
1222
20
1900
11
3125
21
1900
0
SOLID
5
102
100
AcDbEntity
8
6_roof_rack_d
6
CONTINUOUS
62
7
370
0
100
AcDbTrace
10
1222
20
1900
30
0
11
1286
21
1910.65688724
31
0
12
1286
22
1889.34311276
32
0
13
1286
23
1889.34311276
33
0
0
SOLID
5
103
100
AcDbEntity
8
6_roof_rack_d
6
CONTINUOUS
62
7
370
0
100
AcDbTrace
10
3125
20
1900
30
0
11
3061
21
1889.34311276
31
0
12
3061
22
1910.65688724
32
0
13
3061
23
1910.65688724
33
0
0
MTEXT
5
104
100
AcDbEntity
8
6_roof_rack_d
6
CONTINUOUS
62
7
370
0
100
AcDbMText
10
2173.5
20
1952
30
0
40
64
41
163.555555556
71
5
72
1
1
1903
7
standard
210
0
220
0
230
1
50
0
73
2
44
1
0
LINE
5
105
100
AcDbEntity
8
6_roof_rack_d
6
CONTINUOUS
62
7
370
0
100
AcDbLine
10
1222
20
1854.25453184
11
1222
21
1884
0
LINE
5
106
100
AcDbEntity
8
6_roof_rack_d
6
CONTINUOUS
62
7
370
0
100
AcDbLine
10
3125
20
1871.3075575
11
3125
21
1884
0
ENDBLK
5
64
330
62
100
AcDbEntity
8
0
100
AcDbBlockEnd
0
BLOCK
5
66
330
65
100
AcDbEntity
8
0
100
AcDbBlockBegin
2
*D14
70
1
10
0
20
0
3
*D14
1

0
LINE
5
107
100
AcDbEntity
8
6_roof_rack_d
6
CONTINUOUS
62
7
370
0
100
AcDbLine
10
5520
20
5400
11
7783
21
5400
0
SOLID
5
108
100
AcDbEntity
8
6_roof_rack_d
6
CONTINUOUS
62
7
370
0
100
AcDbTrace
10
5520
20
5400
30
0
11
5584
21
5410.65688724
31
0
12
5584
22
5389.34311276
32
0
13
5584
23
5389.34311276
33
0
0
SOLID
5
109
100
AcDbEntity
8
6_roof_rack_d
6
CONTINUOUS
62
7
370
0
100
AcDbTrace
10
7783
20
5400
30
0
11
7719
21
5389.34311276
31
0
12
7719
22
5410.65688724
32
0
13
7719
23
5410.65688724
33
0
0
MTEXT
5
10A
100
AcDbEntity
8
6_roof_rack_d
6
CONTINUOUS
62
7
370
0
100
AcDbMText
10
6651.5
20
5452
30
0
40
64
41
177.777777778
71
5
72
1
1
2263
7
standard
210
0
220
0
230
1
50
0
73
2
44
1
0
LINE
5
10B
100
AcDbEntity
8
6_roof_rack_d
6
CONTINUOUS
62
7
370
0
100
AcDbLine
10
5520
20
5392.69297022
11
5520
21
5384
0
LINE
5
10C
100
AcDbEntity
8
6_roof_rack_d
6
CONTINUOUS
62
7
370
0
100
AcDbLine
10
7783
20
5392.69297022
11
7783
21
5384
0
ENDBLK
5
67
330
65
100
AcDbEntity
8
0
100
AcDbBlockEnd
0
BLOCK
5
69
330
68
100
AcDbEntity
8
0
100
AcDbBlockBegin
2
*D37
70
1
10
0
20
0
3
*D37
1

0
LINE
5
10D
100
AcDbEntity
8
6_roof_rack_d
6
CONTINUOUS
62
7
370
0
100
AcDbLine
10
800
20
4917
11
800
21
4479
0
SOLID
5
10E
100
AcDbEntity
8
6_roof_rack_d
6
CONTINUOUS
62
7
370
0
100
AcDbTrace
10
800
20
4917
30
0
11
810.656887239
21
4853
31
0
12
789.343112761
22
4853
32
0
13
789.343112761
23
4853
33
0
0
SOLID
5
10F
100
AcDbEntity
8
6_roof_rack_d
6
CONTINUOUS
62
7
370
0
100
AcDbTrace
10
800
20
4479
30
0
11
789.343112761
21
4543
31
0
12
810.656887239
22
4543
32
0
13
810.656887239
23
4543
33
0
0
MTEXT
5
110
100
AcDbEntity
8
6_roof_rack_d
6
CONTINUOUS
62
7
370
0
100
AcDbMText
10
748
20
4698
30
0
40
64
41
135.111111111
71
5
72
1
1
438
7
standard
210
0
220
0
230
1
50
90
73
2
44
1
0
LINE
5
111
100
AcDbEntity
8
6_roof_rack_d
6
CONTINUOUS
62
7
370
0
100
AcDbLine
10
798.584482629
20
4917
11
784
21
4917
0
LINE
5
112
100
AcDbEntity
8
6_roof_rack_d
6
CONTINUOUS
62
7
370
0
100
AcDbLine
10
798.584482629
20
4479
11
784
21
4479
0
ENDBLK
5
6A
330
68
100
AcDbEntity
8
0
100
AcDbBlockEnd
0
BLOCK
5
6C
330
6B
100
AcDbEntity
8
0
100
AcDbBlockBegin
2
*D33
70
1
10
0
20
0
3
*D33
1

0
LINE
5
113
100
AcDbEntity
8
7_roof_rafter_d
6
CONTINUOUS
62
7
370
0
100
AcDbLine
10
4346
20
5500
11
4817
21
5500
0
SOLID
5
114
100
AcDbEntity
8
7_roof_rafter_d
6
CONTINUOUS
62
7
370
0
100
AcDbTrace
10
4346
20
5500
30
0
11
4410
21
5510.65688724
31
0
12
4410
22
5489.34311276
32
0
13
4410
23
5489.34311276
33
0
0
SOLID
5
115
100
AcDbEntity
8
7_roof_rafter_d
6
CONTINUOUS
62
7
370
0
100
AcDbTrace
10
4817
20
5500
30
0
11
4753
21
5489.34311276
31
0
12
4753
22
5510.65688724
32
0
13
4753
23
5510.65688724
33
0
0
MTEXT
5
116
100
AcDbEntity
8
7_roof_rafter_d
6
CONTINUOUS
62
7
370
0
100
AcDbMText
10
4581.5
20
5552
30
0
40
64
41
120.888888889
71
5
72
1
1
471
7
standard
210
0
220
0
230
1
50
0
73
2
44
1
0
LINE
5
117
100
AcDbEntity
8
7_roof_rafter_d
6
CONTINUOUS
62
7
370
0
100
AcDbLine
10
4346
20
5510.30036374
11
4346
21
5516
0
LINE
5
118
100
AcDbEntity
8
7_roof_rafter_d
6
CONTINUOUS
62
7
370
0
100
AcDbLine
10
4817
20
5502.51106222
11
4817
21
5516
0
ENDBLK
5
6D
330
6B
100
AcDbEntity
8
0
100
AcDbBlockEnd
0
BLOCK
5
6F
330
6E
100
AcDbEntity
8
0
100
AcDbBlockBegin
2
*D25
70
1
10
0
20
0
3
*D25
1

0
LINE
5
119
100
AcDbEntity
8
7_roof_rafter_d
6
CONTINUOUS
62
7
370
0
100
AcDbLine
10
6926
20
5500
11
7396
21
5500
0
SOLID
5
11A
100
AcDbEntity
8
7_roof_rafter_d
6
CONTINUOUS
62
7
370
0
100
AcDbTrace
10
6926
20
5500
30
0
11
6990
21
5510.65688724
31
0
12
6990
22
5489.34311276
32
0
13
6990
23
5489.34311276
33
0
0
SOLID
5
11B
100
AcDbEntity
8
7_roof_rafter_d
6
CONTINUOUS
62
7
370
0
100
AcDbTrace
10
7396
20
5500
30
0
11
7332
21
5489.34311276
31
0
12
7332
22
5510.65688724
32
0
13
7332
23
5510.65688724
33
0
0
MTEXT
5
11C
100
AcDbEntity
8
7_roof_rafter_d
6
CONTINUOUS
62
7
370
0
100
AcDbMText
10
7161
20
5552
30
0
40
64
41
135.111111111
71
5
72
1
1
470
7
standard
210
0
220
0
230
1
50
0
73
2
44
1
0
LINE
5
11D
100
AcDbEntity
8
7_roof_rafter_d
6
CONTINUOUS
62
7
370
0
100
AcDbLine
10
6926
20
5510.30036374
11
6926
21
5516
0
LINE
5
11E
100
AcDbEntity
8
7_roof_rafter_d
6
CONTINUOUS
62
7
370
0
100
AcDbLine
10
7396
20
5514.1950145
11
7396
21
5516
0
ENDBLK
5
70
330
6E
100
AcDbEntity
8
0
100
AcDbBlockEnd
0
BLOCK
5
72
330
71
100
AcDbEntity
8
0
100
AcDbBlockBegin
2
*D22
70
1
10
0
20
0
3
*D22
1

0
LINE
5
11F
100
AcDbEntity
8
7_roof_rafter_d
6
CONTINUOUS
62
7
370
0
100
AcDbLine
10
5520
20
5700
11
7422
21
5700
0
SOLID
5
120
100
AcDbEntity
8
7_roof_rafter_d
6
CONTINUOUS
62
7
370
0
100
AcDbTrace
10
5520
20
5700
30
0
11
5584
21
5710.65688724
31
0
12
5584
22
5689.34311276
32
0
13
5584
23
5689.34311276
33
0
0
SOLID
5
121
100
AcDbEntity
8
7_roof_rafter_d
6
CONTINUOUS
62
7
370
0
100
AcDbTrace
10
7422
20
5700
30
0
11
7358
21
5689.34311276
31
0
12
7358
22
5710.65688724
32
0
13
7358
23
5710.65688724
33
0
0
MTEXT
5
122
100
AcDbEntity
8
7_roof_rafter_d
6
CONTINUOUS
62
7
370
0
100
AcDbMText
10
6471
20
5752
30
0
40
64
41
163.555555556
71
5
72
1
1
1902
7
standard
210
0
220
0
230
1
50
0
73
2
44
1
0
LINE
5
123
100
AcDbEntity
8
7_roof_rafter_d
6
CONTINUOUS
62
7
370
0
100
AcDbLine
10
5520
20
5720.65504837
11
5520
21
5716
0
LINE
5
124
100
AcDbEntity
8
7_roof_rafter_d
6
CONTINUOUS
62
7
370
0
100
AcDbLine
10
7422
20
5726.33939026
11
7422
21
5716
0
ENDBLK
5
73
330
71
100
AcDbEntity
8
0
100
AcDbBlockEnd
0
BLOCK
5
75
330
74
100
AcDbEntity
8
0
100
AcDbBlockBegin
2
*D39
70
1
10
0
20
0
3
*D39
1

0
LINE
5
125
100
AcDbEntity
8
6_roof_rack_d
6
CONTINUOUS
62
7
370
0
100
AcDbLine
10
800
20
3249
11
800
21
2812
0
SOLID
5
126
100
AcDbEntity
8
6_roof_rack_d
6
CONTINUOUS
62
7
370
0
100
AcDbTrace
10
800
20
3249
30
0
11
810.656887239
21
3185
31
0
12
789.343112761
22
3185
32
0
13
789.343112761
23
3185
33
0
0
SOLID
5
127
100
AcDbEntity
8
6_roof_rack_d
6
CONTINUOUS
62
7
370
0
100
AcDbTrace
10
800
20
2812
30
0
11
789.343112761
21
2876
31
0
12
810.656887239
22
2876
32
0
13
810.656887239
23
2876
33
0
0
MTEXT
5
128
100
AcDbEntity
8
6_roof_rack_d
6
CONTINUOUS
62
7
370
0
100
AcDbMText
10
748
20
3030.5
30
0
40
64
41
135.111111111
71
5
72
1
1
437
7
standard
210
0
220
0
230
1
50
90
73
2
44
1
0
LINE
5
129
100
AcDbEntity
8
6_roof_rack_d
6
CONTINUOUS
62
7
370
0
100
AcDbLine
10
809.605060326
20
3249
11
784
21
3249
0
LINE
5
12A
100
AcDbEntity
8
6_roof_rack_d
6
CONTINUOUS
62
7
370
0
100
AcDbLine
10
804.094771477
20
2812
11
784
21
2812
0
ENDBLK
5
76
330
74
100
AcDbEntity
8
0
100
AcDbBlockEnd
0
BLOCK
5
78
330
77
100
AcDbEntity
8
0
100
AcDbBlockBegin
2
*D19
70
1
10
0
20
0
3
*D19
1

0
LINE
5
12B
100
AcDbEntity
8
7_roof_rafter_d
6
CONTINUOUS
62
7
370
0
100
AcDbLine
10
5520
20
1900
11
7422
21
1900
0
SOLID
5
12C
100
AcDbEntity
8
7_roof_rafter_d
6
CONTINUOUS
62
7
370
0
100
AcDbTrace
10
5520
20
1900
30
0
11
5584
21
1910.65688724
31
0
12
5584
22
1889.34311276
32
0
13
5584
23
1889.34311276
33
0
0
SOLID
5
12D
100
AcDbEntity
8
7_roof_rafter_d
6
CONTINUOUS
62
7
370
0
100
AcDbTrace
10
7422
20
1900
30
0
11
7358
21
1889.34311276
31
0
12
7358
22
1910.65688724
32
0
13
7358
23
1910.65688724
33
0
0
MTEXT
5
12E
100
AcDbEntity
8
7_roof_rafter_d
6
CONTINUOUS
62
7
370
0
100
AcDbMText
10
6471
20
1952
30
0
40
64
41
163.555555556
71
5
72
1
1
1902
7
standard
210
0
220
0
230
1
50
0
73
2
44
1
0
LINE
5
12F
100
AcDbEntity
8
7_roof_rafter_d
6
CONTINUOUS
62
7
370
0
100
AcDbLine
10
5520
20
1894.04492504
11
5520
21
1884
0
LINE
5
130
100
AcDbEntity
8
7_roof_rafter_d
6
CONTINUOUS
62
7
370
0
100
AcDbLine
10
7422
20
1888.36058316
11
7422
21
1884
0
ENDBLK
5
79
330
77
100
AcDbEntity
8
0
100
AcDbBlockEnd
0
BLOCK
5
7B
330
7A
100
AcDbEntity
8
0
100
AcDbBlockBegin
2
*D29
70
1
10
0
20
0
3
*D29
1

0
LINE
5
131
100
AcDbEntity
8
7_roof_rafter_d
6
CONTINUOUS
62
7
370
0
100
AcDbLine
10
2282
20
5500
11
2753
21
5500
0
SOLID
5
132
100
AcDbEntity
8
7_roof_rafter_d
6
CONTINUOUS
62
7
370
0
100
AcDbTrace
10
2282
20
5500
30
0
11
2346
21
5510.65688724
31
0
12
2346
22
5489.34311276
32
0
13
2346
23
5489.34311276
33
0
0
SOLID
5
133
100
AcDbEntity
8
7_roof_rafter_d
6
CONTINUOUS
62
7
370
0
100
AcDbTrace
10
2753
20
5500
30
0
11
2689
21
5489.34311276
31
0
12
2689
22
5510.65688724
32
0
13
2689
23
5510.65688724
33
0
0
MTEXT
5
134
100
AcDbEntity
8
7_roof_rafter_d
6
CONTINUOUS
62
7
370
0
100
AcDbMText
10
2517.5
20
5552
30
0
40
64
41
120.888888889
71
5
72
1
1
471
7
standard
210
0
220
0
230
1
50
0
73
2
44
1
0
LINE
5
135
100
AcDbEntity
8
7_roof_rafter_d
6
CONTINUOUS
62
7
370
0
100
AcDbLine
10
2282
20
5498.61641146
11
2282
21
5516
0
LINE
5
136
100
AcDbEntity
8
7_roof_rafter_d
6
CONTINUOUS
62
7
370
0
100
AcDbLine
10
2753
20
5502.51106222
11
2753
21
5516
0
ENDBLK
5
7C
330
7A
100
AcDbEntity
8
0
100
AcDbBlockEnd
0
BLOCK
5
7E
330
7D
100
AcDbEntity
8
0
100
AcDbBlockBegin
2
*D44
70
1
10
0
20
0
3
*D44
1

0
LINE
5
137
100
AcDbEntity
8
6_roof_rack_d
6
CONTINUOUS
62
7
370
0
100
AcDbLine
10
3125
20
3900
11
5520
21
3900
0
SOLID
5
138
100
AcDbEntity
8
6_roof_rack_d
6
CONTINUOUS
62
7
370
0
100
AcDbTrace
10
3125
20
3900
30
0
11
3189
21
3910.65688724
31
0
12
3189
22
3889.34311276
32
0
13
3189
23
3889.34311276
33
0
0
SOLID
5
139
100
AcDbEntity
8
6_roof_rack_d
6
CONTINUOUS
62
7
370
0
100
AcDbTrace
10
5520
20
3900
30
0
11
5456
21
3889.34311276
31
0
12
5456
22
3910.65688724
32
0
13
5456
23
3910.65688724
33
0
0
MTEXT
5
13A
100
AcDbEntity
8
6_roof_rack_d
6
CONTINUOUS
62
7
370
0
100
AcDbMText
10
4322.5
20
3952
30
0
40
64
41
177.777777778
71
5
72
1
1
2395
7
standard
210
0
220
0
230
1
50
0
73
2
44
1
0
LINE
5
13B
100
AcDbEntity
8
6_roof_rack_d
6
CONTINUOUS
62
7
370
0
100
AcDbLine
10
3125
20
3917.40797073
11
3125
21
3884
0
LINE
5
13C
100
AcDbEntity
8
6_roof_rack_d
6
CONTINUOUS
62
7
370
0
100
AcDbLine
10
5520
20
3917.40797073
11
5520
21
3884
0
ENDBLK
5
7F
330
7D
100
AcDbEntity
8
0
100
AcDbBlockEnd
0
BLOCK
5
81
330
80
100
AcDbEntity
8
0
100
AcDbBlockBegin
2
*D10
70
1
10
0
20
0
3
*D10
1

0
LINE
5
13D
100
AcDbEntity
8
6_roof_rack_d
6
CONTINUOUS
62
7
370
0
100
AcDbLine
10
3125
20
1900
11
5520
21
1900
0
SOLID
5
13E
100
AcDbEntity
8
6_roof_rack_d
6
CONTINUOUS
62
7
370
0
100
AcDbTrace
10
3125
20
1900
30
0
11
3189
21
1910.65688724
31
0
12
3189
22
1889.34311276
32
0
13
3189
23
1889.34311276
33
0
0
SOLID
5
13F
100
AcDbEntity
8
6_roof_rack_d
6
CONTINUOUS
62
7
370
0
100
AcDbTrace
10
5520
20
1900
30
0
11
5456
21
1889.34311276
31
0
12
5456
22
1910.65688724
32
0
13
5456
23
1910.65688724
33
0
0
MTEXT
5
140
100
AcDbEntity
8
6_roof_rack_d
6
CONTINUOUS
62
7
370
0
100
AcDbMText
10
4322.5
20
1952
30
0
40
64
41
177.777777778
71
5
72
1
1
2395
7
standard
210
0
220
0
230
1
50
0
73
2
44
1
0
LINE
5
141
100
AcDbEntity
8
6_roof_rack_d
6
CONTINUOUS
62
7
370
0
100
AcDbLine
10
3125
20
1894.04492504
11
3125
21
1884
0
LINE
5
142
100
AcDbEntity
8
6_roof_rack_d
6
CONTINUOUS
62
7
370
0
100
AcDbLine
10
5520
20
1894.04492504
11
5520
21
1884
0
ENDBLK
5
82
330
80
100
AcDbEntity
8
0
100
AcDbBlockEnd
0
BLOCK
5
84
330
83
100
AcDbEntity
8
0
100
AcDbBlockBegin
2
*D41
70
1
10
0
20
0
3
*D41
1

0
LINE
5
143
100
AcDbEntity
8
6_roof_rack_d
6
CONTINUOUS
62
7
370
0
100
AcDbLine
10
7900
20
4479
11
7900
21
3249
0
SOLID
5
144
100
AcDbEntity
8
6_roof_rack_d
6
CONTINUOUS
62
7
370
0
100
AcDbTrace
10
7900
20
4479
30
0
11
7910.65688724
21
4415
31
0
12
7889.34311276
22
4415
32
0
13
7889.34311276
23
4415
33
0
0
SOLID
5
145
100
AcDbEntity
8
6_roof_rack_d
6
CONTINUOUS
62
7
370
0
100
AcDbTrace
10
7900
20
3249
30
0
11
7889.34311276
21
3313
31
0
12
7910.65688724
22
3313
32
0
13
7910.65688724
23
3313
33
0
0
MTEXT
5
146
100
AcDbEntity
8
6_roof_rack_d
6
CONTINUOUS
62
7
370
0
100
AcDbMText
10
7848
20
3864
30
0
40
64
41
163.555555556
71
5
72
1
1
1230
7
standard
210
0
220
0
230
1
50
90
73
2
44
1
0
LINE
5
147
100
AcDbEntity
8
6_roof_rack_d
6
CONTINUOUS
62
7
370
0
100
AcDbLine
10
7907.67189759
20
4479
11
7916
21
4479
0
LINE
5
148
100
AcDbEntity
8
6_roof_rack_d
6
CONTINUOUS
62
7
370
0
100
AcDbLine
10
7902.16160874
20
3249
11
7916
21
3249
0
ENDBLK
5
85
330
83
100
AcDbEntity
8
0
100
AcDbBlockEnd
0
BLOCK
5
87
330
86
100
AcDbEntity
8
0
100
AcDbBlockBegin
2
*D45
70
1
10
0
20
0
3
*D45
1

0
LINE
5
149
100
AcDbEntity
8
6_roof_rack_d
6
CONTINUOUS
62
7
370
0
100
AcDbLine
10
1330.35533906
20
4361.64466094
11
1569.80808363
21
4122.19191637
0
LINE
5
14A
100
AcDbEntity
8
6_roof_rack_d
6
CONTINUOUS
62
7
370
0
100
AcDbLine
10
1868.35533906
20
4899.64466094
11
2107.80808363
21
4660.19191637
0
LINE
5
14B
100
AcDbEntity
8
6_roof_rack_d
6
CONTINUOUS
62
7
370
0
100
AcDbLine
10
1558.49437513
20
4133.50562487
11
2096.49437513
21
4671.50562487
0
SOLID
5
14C
100
AcDbEntity
8
6_roof_rack_d
6
CONTINUOUS
62
7
370
0
100
AcDbTrace
10
1558.49437513
20
4133.50562487
30
0
11
1596.21365189
21
4186.2960161
31
0
12
1611.28476636
22
4171.22490163
32
0
13
1611.28476636
23
4171.22490163
33
0
0
SOLID
5
14D
100
AcDbEntity
8
6_roof_rack_d
6
CONTINUOUS
62
7
370
0
100
AcDbTrace
10
2096.49437513
20
4671.50562487
30
0
11
2058.77509837
21
4618.71523364
31
0
12
2043.7039839
22
4633.78634811
32
0
13
2043.7039839
23
4633.78634811
33
0
0
MTEXT
5
14E
100
AcDbEntity
8
6_roof_rack_d
6
CONTINUOUS
62
7
370
0
100
AcDbMText
10
1790.72482251
20
4439.27517749
30
0
40
64
41
128
71
5
72
1
1
760
7
standard
210
0
220
0
230
1
50
45
73
2
44
1
0
ENDBLK
5
88
330
86
100
AcDbEntity
8
0
100
AcDbBlockEnd
0
BLOCK
5
8A
330
89
100
AcDbEntity
8
0
100
AcDbBlockBegin
2
*D12
70
1
10
0
20
0
3
*D12
1

0
LINE
5
14F
100
AcDbEntity
8
6_roof_rack_d
6
CONTINUOUS
62
7
370
0
100
AcDbLine
10
5717.5
20
4480
11
5870
21
4200
0
LINE
5
150
100
AcDbEntity
8
6_roof_rack_d
6
CONTINUOUS
62
7
370
0
100
AcDbLine
10
5870
20
4200
11
6570
21
4200
0
SOLID
5
151
100
AcDbEntity
8
6_roof_rack_d
6
CONTINUOUS
62
7
370
0
100
AcDbTrace
10
5717.5
20
4480
30
0
11
5757.47019631
21
4428.89273385
31
0
12
5738.75254489
22
4418.69829871
32
0
13
5738.75254489
23
4418.69829871
33
0
0
ENDBLK
5
8B
330
89
100
AcDbEntity
8
0
100
AcDbBlockEnd
0
BLOCK
5
8D
330
8C
100
AcDbEntity
8
0
100
AcDbBlockBegin
2
*D32
70
1
10
0
20
0
3
*D32
1

0
LINE
5
152
100
AcDbEntity
8
7_roof_rafter_d
6
CONTINUOUS
62
7
370
0
100
AcDbLine
10
3830
20
5500
11
4301
21
5500
0
SOLID
5
153
100
AcDbEntity
8
7_roof_rafter_d
6
CONTINUOUS
62
7
370
0
100
AcDbTrace
10
3830
20
5500
30
0
11
3894
21
5510.65688724
31
0
12
3894
22
5489.34311276
32
0
13
3894
23
5489.34311276
33
0
0
SOLID
5
154
100
AcDbEntity
8
7_roof_rafter_d
6
CONTINUOUS
62
7
370
0
100
AcDbTrace
10
4301
20
5500
30
0
11
4237
21
5489.34311276
31
0
12
4237
22
5510.65688724
32
0
13
4237
23
5510.65688724
33
0
0
MTEXT
5
155
100
AcDbEntity
8
7_roof_rafter_d
6
CONTINUOUS
62
7
370
0
100
AcDbMText
10
4065.5
20
5552
30
0
40
64
41
120.888888889
71
5
72
1
1
471
7
standard
210
0
220
0
230
1
50
0
73
2
44
1
0
LINE
5
156
100
AcDbEntity
8
7_roof_rafter_d
6
CONTINUOUS
62
7
370
0
100
AcDbLine
10
3830
20
5502.51106222
11
3830
21
5516
0
LINE
5
157
100
AcDbEntity
8
7_roof_rafter_d
6
CONTINUOUS
62
7
370
0
100
AcDbLine
10
4301
20
5502.51106222
11
4301
21
5516
0
ENDBLK
5
8E
330
8C
100
AcDbEntity
8
0
100
AcDbBlockEnd
0
BLOCK
5
90
330
8F
100
AcDbEntity
8
0
100
AcDbBlockBegin
2
*D6
70
1
10
0
20
0
3
*D6
1

0
LINE
5
158
100
AcDbEntity
8
6_roof_rack_d
6
CONTINUOUS
62
7
370
0
100
AcDbLine
10
1222
20
5600
11
3125
21
5600
0
SOLID
5
159
100
AcDbEntity
8
6_roof_rack_d
6
CONTINUOUS
62
7
370
0
100
AcDbTrace
10
1222
20
5600
30
0
11
1286
21
5610.65688724
31
0
12
1286
22
5589.34311276
32
0
13
1286
23
5589.34311276
33
0
0
SOLID
5
15A
100
AcDbEntity
8
6_roof_rack_d
6
CONTINUOUS
62
7
370
0
100
AcDbTrace
10
3125
20
5600
30
0
11
3061
21
5589.34311276
31
0
12
3061
22
5610.65688724
32
0
13
3061
23
5610.65688724
33
0
0
MTEXT
5
15B
100
AcDbEntity
8
6_roof_rack_d
6
CONTINUOUS
62
7
370
0
100
AcDbMText
10
2173.5
20
5652
30
0
40
64
41
163.555555556
71
5
72
1
1
1903
7
standard
210
0
220
0
230
1
50
0
73
2
44
1
0
LINE
5
15C
100
AcDbEntity
8
6_roof_rack_d
6
CONTINUOUS
62
7
370
0
100
AcDbLine
10
1222
20
5643.39241592
11
1222
21
5616
0
LINE
5
15D
100
AcDbEntity
8
6_roof_rack_d
6
CONTINUOUS
62
7
370
0
100
AcDbLine
10
3125
20
5637.70807403
11
3125
21
5616
0
ENDBLK
5
91
330
8F
100
AcDbEntity
8
0
100
AcDbBlockEnd
0
BLOCK
5
93
330
92
100
AcDbEntity
8
0
100
AcDbBlockBegin
2
*D2
70
1
10
0
20
0
3
*D2
1

0
LINE
5
15E
100
AcDbEntity
8
6_roof_rack_d
6
CONTINUOUS
62
7
370
0
100
AcDbLine
10
600
20
4935
11
600
21
2795
0
SOLID
5
15F
100
AcDbEntity
8
6_roof_rack_d
6
CONTINUOUS
62
7
370
0
100
AcDbTrace
10
600
20
4935
30
0
11
610.656887239
21
4871
31
0
12
589.343112761
22
4871
32
0
13
589.343112761
23
4871
33
0
0
SOLID
5
160
100
AcDbEntity
8
6_roof_rack_d
6
CONTINUOUS
62
7
370
0
100
AcDbTrace
10
600
20
2795
30
0
11
589.343112761
21
2859
31
0
12
610.656887239
22
2859
32
0
13
610.656887239
23
2859
33
0
0
MTEXT
5
161
100
AcDbEntity
8
6_roof_rack_d
6
CONTINUOUS
62
7
370
0
100
AcDbMText
10
548
20
3865
30
0
40
64
41
170.666666667
71
5
72
1
1
2140
7
standard
210
0
220
0
230
1
50
90
73
2
44
1
0
LINE
5
162
100
AcDbEntity
8
6_roof_rack_d
6
CONTINUOUS
62
7
370
0
100
AcDbLine
10
614.614310861
20
4935
11
616
21
4935
0
LINE
5
163
100
AcDbEntity
8
6_roof_rack_d
6
CONTINUOUS
62
7
370
0
100
AcDbLine
10
602.972778678
20
2795
11
616
21
2795
0
ENDBLK
5
94
330
92
100
AcDbEntity
8
0
100
AcDbBlockEnd
0
BLOCK
5
96
330
95
100
AcDbEntity
8
0
100
AcDbBlockBegin
2
*D18
70
1
10
0
20
0
3
*D18
1

0
LINE
5
164
100
AcDbEntity
8
7_roof_rafter_d
6
CONTINUOUS
62
7
370
0
100
AcDbLine
10
3125
20
1900
11
5520
21
1900
0
SOLID
5
165
100
AcDbEntity
8
7_roof_rafter_d
6
CONTINUOUS
62
7
370
0
100
AcDbTrace
10
3125
20
1900
30
0
11
3189
21
1910.65688724
31
0
12
3189
22
1889.34311276
32
0
13
3189
23
1889.34311276
33
0
0
SOLID
5
166
100
AcDbEntity
8
7_roof_rafter_d
6
CONTINUOUS
62
7
370
0
100
AcDbTrace
10
5520
20
1900
30
0
11
5456
21
1889.34311276
31
0
12
5456
22
1910.65688724
32
0
13
5456
23
1910.65688724
33
0
0
MTEXT
5
167
100
AcDbEntity
8
7_roof_rafter_d
6
CONTINUOUS
62
7
370
0
100
AcDbMText
10
4322.5
20
1952
30
0
40
64
41
177.777777778
71
5
72
1
1
2395
7
standard
210
0
220
0
230
1
50
0
73
2
44
1
0
LINE
5
168
100
AcDbEntity
8
7_roof_rafter_d
6
CONTINUOUS
62
7
370
0
100
AcDbLine
10
3125
20
1894.04492504
11
3125
21
1884
0
LINE
5
169
100
AcDbEntity
8
7_roof_rafter_d
6
CONTINUOUS
62
7
370
0
100
AcDbLine
10
5520
20
1894.04492504
11
5520
21
1884
0
ENDBLK
5
97
330
95
100
AcDbEntity
8
0
100
AcDbBlockEnd
0
BLOCK
5
99
330
98
100
AcDbEntity
8
0
100
AcDbBlockBegin
2
*D11
70
1
10
0
20
0
3
*D11
1

0
LINE
5
16A
100
AcDbEntity
8
6_roof_rack_d
6
CONTINUOUS
62
7
370
0
100
AcDbLine
10
5520
20
1900
11
7422
21
1900
0
SOLID
5
16B
100
AcDbEntity
8
6_roof_rack_d
6
CONTINUOUS
62
7
370
0
100
AcDbTrace
10
5520
20
1900
30
0
11
5584
21
1910.65688724
31
0
12
5584
22
1889.34311276
32
0
13
5584
23
1889.34311276
33
0
0
SOLID
5
16C
100
AcDbEntity
8
6_roof_rack_d
6
CONTINUOUS
62
7
370
0
100
AcDbTrace
10
7422
20
1900
30
0
11
7358
21
1889.34311276
31
0
12
7358
22
1910.65688724
32
0
13
7358
23
1910.65688724
33
0
0
MTEXT
5
16D
100
AcDbEntity
8
6_roof_rack_d
6
CONTINUOUS
62
7
370
0
100
AcDbMText
10
6471
20
1952
30
0
40
64
41
163.555555556
71
5
72
1
1
1902
7
standard
210
0
220
0
230
1
50
0
73
2
44
1
0
LINE
5
16E
100
AcDbEntity
8
6_roof_rack_d
6
CONTINUOUS
62
7
370
0
100
AcDbLine
10
5520
20
1894.04492504
11
5520
21
1884
0
LINE
5
16F
100
AcDbEntity
8
6_roof_rack_d
6
CONTINUOUS
62
7
370
0
100
AcDbLine
10
7422
20
1888.36058316
11
7422
21
1884
0
ENDBLK
5
9A
330
98
100
AcDbEntity
8
0
100
AcDbBlockEnd
0
BLOCK
5
9C
330
9B
100
AcDbEntity
8
0
100
AcDbBlockBegin
2
*D3
70
1
10
0
20
0
3
*D3
1

0
ENDBLK
5
9D
330
9B
100
AcDbEntity
8
0
100
AcDbBlockEnd
0
BLOCK
5
9F
330
9E
100
AcDbEntity
8
0
100
AcDbBlockBegin
2
*D38
70
1
10
0
20
0
3
*D38
1

0
LINE
5
170
100
AcDbEntity
8
6_roof_rack_d
6
CONTINUOUS
62
7
370
0
100
AcDbLine
10
800
20
4479
11
800
21
3249
0
SOLID
5
171
100
AcDbEntity
8
6_roof_rack_d
6
CONTINUOUS
62
7
370
0
100
AcDbTrace
10
800
20
4479
30
0
11
810.656887239
21
4415
31
0
12
789.343112761
22
4415
32
0
13
789.343112761
23
4415
33
0
0
SOLID
5
172
100
AcDbEntity
8
6_roof_rack_d
6
CONTINUOUS
62
7
370
0
100
AcDbTrace
10
800
20
3249
30
0
11
789.343112761
21
3313
31
0
12
810.656887239
22
3313
32
0
13
810.656887239
23
3313
33
0
0
MTEXT
5
173
100
AcDbEntity
8
6_roof_rack_d
6
CONTINUOUS
62
7
370
0
100
AcDbMText
10
748
20
3864
30
0
40
64
41
163.555555556
71
5
72
1
1
1230
7
standard
210
0
220
0
230
1
50
90
73
2
44
1
0
LINE
5
174
100
AcDbEntity
8
6_roof_rack_d
6
CONTINUOUS
62
7
370
0
100
AcDbLine
10
798.584482629
20
4479
11
784
21
4479
0
LINE
5
175
100
AcDbEntity
8
6_roof_rack_d
6
CONTINUOUS
62
7
370
0
100
AcDbLine
10
798.584482629
20
3249
11
784
21
3249
0
ENDBLK
5
A0
330
9E
100
AcDbEntity
8
0
100
AcDbBlockEnd
0
BLOCK
5
A2
330
A1
100
AcDbEntity
8
0
100
AcDbBlockBegin
2
*D15
70
1
10
0
20
0
3
*D15
1

0
LINE
5
176
100
AcDbEntity
8
7_roof_rafter_d
6
CONTINUOUS
62
7
370
0
100
AcDbLine
10
8000
20
4935
11
8000
21
2795
0
SOLID
5
177
100
AcDbEntity
8
7_roof_rafter_d
6
CONTINUOUS
62
7
370
0
100
AcDbTrace
10
8000
20
4935
30
0
11
8010.65688724
21
4871
31
0
12
7989.34311276
22
4871
32
0
13
7989.34311276
23
4871
33
0
0
SOLID
5
178
100
AcDbEntity
8
7_roof_rafter_d
6
CONTINUOUS
62
7
370
0
100
AcDbTrace
10
8000
20
2795
30
0
11
7989.34311276
21
2859
31
0
12
8010.65688724
22
2859
32
0
13
8010.65688724
23
2859
33
0
0
MTEXT
5
179
100
AcDbEntity
8
7_roof_rafter_d
6
CONTINUOUS
62
7
370
0
100
AcDbMText
10
7948
20
3865
30
0
40
64
41
170.666666667
71
5
72
1
1
2140
7
standard
210
0
220
0
230
1
50
90
73
2
44
1
0
LINE
5
17A
100
AcDbEntity
8
7_roof_rafter_d
6
CONTINUOUS
62
7
370
0
100
AcDbLine
10
7998.25609773
20
4935
11
8016
21
4935
0
LINE
5
17B
100
AcDbEntity
8
7_roof_rafter_d
6
CONTINUOUS
62
7
370
0
100
AcDbLine
10
7998.25609773
20
2795
11
8016
21
2795
0
ENDBLK
5
A3
330
A1
100
AcDbEntity
8
0
100
AcDbBlockEnd
0
BLOCK
5
A5
330
A4
100
AcDbEntity
8
0
100
AcDbBlockBegin
2
*D8
70
1
10
0
20
0
3
*D8
1

0
LINE
5
17C
100
AcDbEntity
8
6_roof_rack_d
6
CONTINUOUS
62
7
370
0
100
AcDbLine
10
5520
20
5600
11
7422
21
5600
0
SOLID
5
17D
100
AcDbEntity
8
6_roof_rack_d
6
CONTINUOUS
62
7
370
0
100
AcDbTrace
10
5520
20
5600
30
0
11
5584
21
5610.65688724
31
0
12
5584
22
5589.34311276
32
0
13
5584
23
5589.34311276
33
0
0
SOLID
5
17E
100
AcDbEntity
8
6_roof_rack_d
6
CONTINUOUS
62
7
370
0
100
AcDbTrace
10
7422
20
5600
30
0
11
7358
21
5589.34311276
31
0
12
7358
22
5610.65688724
32
0
13
7358
23
5610.65688724
33
0
0
MTEXT
5
17F
100
AcDbEntity
8
6_roof_rack_d
6
CONTINUOUS
62
7
370
0
100
AcDbMText
10
6471
20
5652
30
0
40
64
41
163.555555556
71
5
72
1
1
1902
7
standard
210
0
220
0
230
1
50
0
73
2
44
1
0
LINE
5
180
100
AcDbEntity
8
6_roof_rack_d
6
CONTINUOUS
62
7
370
0
100
AcDbLine
10
5520
20
5620.65504837
11
5520
21
5616
0
LINE
5
181
100
AcDbEntity
8
6_roof_rack_d
6
CONTINUOUS
62
7
370
0
100
AcDbLine
10
7422
20
5626.33939026
11
7422
21
5616
0
ENDBLK
5
A6
330
A4
100
AcDbEntity
8
0
100
AcDbBlockEnd
0
BLOCK
5
A8
330
A7
100
AcDbEntity
8
0
100
AcDbBlockBegin
2
*D35
70
1
10
0
20
0
3
*D35
1

0
LINE
5
182
100
AcDbEntity
8
7_roof_rafter_d
6
CONTINUOUS
62
7
370
0
100
AcDbLine
10
910
20
5500
11
1205
21
5500
0
SOLID
5
183
100
AcDbEntity
8
7_roof_rafter_d
6
CONTINUOUS
62
7
370
0
100
AcDbTrace
10
910
20
5500
30
0
11
974
21
5510.65688724
31
0
12
974
22
5489.34311276
32
0
13
974
23
5489.34311276
33
0
0
SOLID
5
184
100
AcDbEntity
8
7_roof_rafter_d
6
CONTINUOUS
62
7
370
0
100
AcDbTrace
10
1205
20
5500
30
0
11
1141
21
5489.34311276
31
0
12
1141
22
5510.65688724
32
0
13
1141
23
5510.65688724
33
0
0
MTEXT
5
185
100
AcDbEntity
8
7_roof_rafter_d
6
CONTINUOUS
62
7
370
0
100
AcDbMText
10
1057.5
20
5552
30
0
40
64
41
128
71
5
72
1
1
295
7
standard
210
0
220
0
230
1
50
0
73
2
44
1
0
LINE
5
186
100
AcDbEntity
8
7_roof_rafter_d
6
CONTINUOUS
62
7
370
0
100
AcDbLine
10
910
20
5516.20653745
11
910
21
5516
0
LINE
5
187
100
AcDbEntity
8
7_roof_rafter_d
6
CONTINUOUS
62
7
370
0
100
AcDbLine
10
1205
20
5519.73312231
11
1205
21
5516
0
ENDBLK
5
A9
330
A7
100
AcDbEntity
8
0
100
AcDbBlockEnd
0
BLOCK
5
AB
330
AA
100
AcDbEntity
8
0
100
AcDbBlockBegin
2
*D5
70
1
10
0
20
0
3
*D5
1

0
LINE
5
188
100
AcDbEntity
8
6_roof_rack_d
6
CONTINUOUS
62
7
370
0
100
AcDbLine
10
3147.5
20
2750
11
3300
21
2470
0
LINE
5
189
100
AcDbEntity
8
6_roof_rack_d
6
CONTINUOUS
62
7
370
0
100
AcDbLine
10
3300
20
2470
11
4000
21
2470
0
SOLID
5
18A
100
AcDbEntity
8
6_roof_rack_d
6
CONTINUOUS
62
7
370
0
100
AcDbTrace
10
3147.5
20
2750
30
0
11
3187.47019631
21
2698.89273385
31
0
12
3168.75254489
22
2688.69829871
32
0
13
3168.75254489
23
2688.69829871
33
0
0
ENDBLK
5
AC
330
AA
100
AcDbEntity
8
0
100
AcDbBlockEnd
0
BLOCK
5
AE
330
AD
100
AcDbEntity
8
0
100
AcDbBlockBegin
2
*D43
70
1
10
0
20
0
3
*D43
1

0
LINE
5
18B
100
AcDbEntity
8
6_roof_rack_d
6
CONTINUOUS
62
7
370
0
100
AcDbLine
10
1205
20
3900
11
3125
21
3900
0
SOLID
5
18C
100
AcDbEntity
8
6_roof_rack_d
6
CONTINUOUS
62
7
370
0
100
AcDbTrace
10
1205
20
3900
30
0
11
1269
21
3910.65688724
31
0
12
1269
22
3889.34311276
32
0
13
1269
23
3889.34311276
33
0
0
SOLID
5
18D
100
AcDbEntity
8
6_roof_rack_d
6
CONTINUOUS
62
7
370
0
100
AcDbTrace
10
3125
20
3900
30
0
11
3061
21
3889.34311276
31
0
12
3061
22
3910.65688724
32
0
13
3061
23
3910.65688724
33
0
0
MTEXT
5
18E
100
AcDbEntity
8
6_roof_rack_d
6
CONTINUOUS
62
7
370
0
100
AcDbMText
10
2165
20
3952
30
0
40
64
41
163.555555556
71
5
72
1
1
1920
7
standard
210
0
220
0
230
1
50
0
73
2
44
1
0
LINE
5
18F
100
AcDbEntity
8
6_roof_rack_d
6
CONTINUOUS
62
7
370
0
100
AcDbLine
10
1205
20
3906.38739304
11
1205
21
3884
0
LINE
5
190
100
AcDbEntity
8
6_roof_rack_d
6
CONTINUOUS
62
7
370
0
100
AcDbLine
10
3125
20
3906.38739304
11
3125
21
3884
0
ENDBLK
5
AF
330
AD
100
AcDbEntity
8
0
100
AcDbBlockEnd
0
BLOCK
5
B1
330
B0
100
AcDbEntity
8
0
100
AcDbBlockBegin
2
*D26
70
1
10
0
20
0
3
*D26
1

0
LINE
5
191
100
AcDbEntity
8
7_roof_rafter_d
6
CONTINUOUS
62
7
370
0
100
AcDbLine
10
6881
20
5500
11
6410
21
5500
0
SOLID
5
192
100
AcDbEntity
8
7_roof_rafter_d
6
CONTINUOUS
62
7
370
0
100
AcDbTrace
10
6881
20
5500
30
0
11
6817
21
5489.34311276
31
0
12
6817
22
5510.65688724
32
0
13
6817
23
5510.65688724
33
0
0
SOLID
5
193
100
AcDbEntity
8
7_roof_rafter_d
6
CONTINUOUS
62
7
370
0
100
AcDbTrace
10
6410
20
5500
30
0
11
6474
21
5510.65688724
31
0
12
6474
22
5489.34311276
32
0
13
6474
23
5489.34311276
33
0
0
MTEXT
5
194
100
AcDbEntity
8
7_roof_rafter_d
6
CONTINUOUS
62
7
370
0
100
AcDbMText
10
6645.5
20
5552
30
0
40
64
41
120.888888889
71
5
72
1
1
471
7
standard
210
0
220
0
230
1
50
360
73
2
44
1
0
LINE
5
195
100
AcDbEntity
8
7_roof_rafter_d
6
CONTINUOUS
62
7
370
0
100
AcDbLine
10
6881
20
5510.30036374
11
6881
21
5516
0
LINE
5
196
100
AcDbEntity
8
7_roof_rafter_d
6
CONTINUOUS
62
7
370
0
100
AcDbLine
10
6410
20
5510.30036374
11
6410
21
5516
0
ENDBLK
5
B2
330
B0
100
AcDbEntity
8
0
100
AcDbBlockEnd
0
BLOCK
5
B4
330
B3
100
AcDbEntity
8
0
100
AcDbBlockBegin
2
*D16
70
1
10
0
20
0
3
*D16
1

0
LINE
5
197
100
AcDbEntity
8
7_roof_rafter_d
6
CONTINUOUS
62
7
370
0
100
AcDbLine
10
600
20
4935
11
600
21
2795
0
SOLID
5
198
100
AcDbEntity
8
7_roof_rafter_d
6
CONTINUOUS
62
7
370
0
100
AcDbTrace
10
600
20
4935
30
0
11
610.656887239
21
4871
31
0
12
589.343112761
22
4871
32
0
13
589.343112761
23
4871
33
0
0
SOLID
5
199
100
AcDbEntity
8
7_roof_rafter_d
6
CONTINUOUS
62
7
370
0
100
AcDbTrace
10
600
20
2795
30
0
11
589.343112761
21
2859
31
0
12
610.656887239
22
2859
32
0
13
610.656887239
23
2859
33
0
0
MTEXT
5
19A
100
AcDbEntity
8
7_roof_rafter_d
6
CONTINUOUS
62
7
370
0
100
AcDbMText
10
548
20
3865
30
0
40
64
41
170.666666667
71
5
72
1
1
2140
7
standard
210
0
220
0
230
1
50
90
73
2
44
1
0
LINE
5
19B
100
AcDbEntity
8
7_roof_rafter_d
6
CONTINUOUS
62
7
370
0
100
AcDbLine
10
614.614310861
20
4935
11
616
21
4935
0
LINE
5
19C
100
AcDbEntity
8
7_roof_rafter_d
6
CONTINUOUS
62
7
370
0
100
AcDbLine
10
602.972778678
20
2795
11
616
21
2795
0
ENDBLK
5
B5
330
B3
100
AcDbEntity
8
0
100
AcDbBlockEnd
0
BLOCK
5
B7
330
B6
100
AcDbEntity
8
0
100
AcDbBlockBegin
2
*D24
70
1
10
0
20
0
3
*D24
1

0
LINE
5
19D
100
AcDbEntity
8
7_roof_rafter_d
6
CONTINUOUS
62
7
370
0
100
AcDbLine
10
1766
20
5500
11
2237
21
5500
0
SOLID
5
19E
100
AcDbEntity
8
7_roof_rafter_d
6
CONTINUOUS
62
7
370
0
100
AcDbTrace
10
1766
20
5500
30
0
11
1830
21
5510.65688724
31
0
12
1830
22
5489.34311276
32
0
13
1830
23
5489.34311276
33
0
0
SOLID
5
19F
100
AcDbEntity
8
7_roof_rafter_d
6
CONTINUOUS
62
7
370
0
100
AcDbTrace
10
2237
20
5500
30
0
11
2173
21
5489.34311276
31
0
12
2173
22
5510.65688724
32
0
13
2173
23
5510.65688724
33
0
0
MTEXT
5
1A0
100
AcDbEntity
8
7_roof_rafter_d
6
CONTINUOUS
62
7
370
0
100
AcDbMText
10
2001.5
20
5552
30
0
40
64
41
120.888888889
71
5
72
1
1
471
7
standard
210
0
220
0
230
1
50
0
73
2
44
1
0
LINE
5
1A1
100
AcDbEntity
8
7_roof_rafter_d
6
CONTINUOUS
62
7
370
0
100
AcDbLine
10
1766
20
5508.74250344
11
1766
21
5516
0
LINE
5
1A2
100
AcDbEntity
8
7_roof_rafter_d
6
CONTINUOUS
62
7
370
0
100
AcDbLine
10
2237
20
5511.85822404
11
2237
21
5516
0
ENDBLK
5
B8
330
B6
100
AcDbEntity
8
0
100
AcDbBlockEnd
0
BLOCK
5
BA
330
B9
100
AcDbEntity
8
0
100
AcDbBlockBegin
2
*D7
70
1
10
0
20
0
3
*D7
1

0
LINE
5
1A3
100
AcDbEntity
8
6_roof_rack_d
6
CONTINUOUS
62
7
370
0
100
AcDbLine
10
3125
20
5600
11
5520
21
5600
0
SOLID
5
1A4
100
AcDbEntity
8
6_roof_rack_d
6
CONTINUOUS
62
7
370
0
100
AcDbTrace
10
3125
20
5600
30
0
11
3189
21
5610.65688724
31
0
12
3189
22
5589.34311276
32
0
13
3189
23
5589.34311276
33
0
0
SOLID
5
1A5
100
AcDbEntity
8
6_roof_rack_d
6
CONTINUOUS
62
7
370
0
100
AcDbTrace
10
5520
20
5600
30
0
11
5456
21
5589.34311276
31
0
12
5456
22
5610.65688724
32
0
13
5456
23
5610.65688724
33
0
0
MTEXT
5
1A6
100
AcDbEntity
8
6_roof_rack_d
6
CONTINUOUS
62
7
370
0
100
AcDbMText
10
4322.5
20
5652
30
0
40
64
41
177.777777778
71
5
72
1
1
2395
7
standard
210
0
220
0
230
1
50
0
73
2
44
1
0
LINE
5
1A7
100
AcDbEntity
8
6_roof_rack_d
6
CONTINUOUS
62
7
370
0
100
AcDbLine
10
3125
20
5643.39241592
11
3125
21
5616
0
LINE
5
1A8
100
AcDbEntity
8
6_roof_rack_d
6
CONTINUOUS
62
7
370
0
100
AcDbLine
10
5520
20
5649.0767578
11
5520
21
5616
0
ENDBLK
5
BB
330
B9
100
AcDbEntity
8
0
100
AcDbBlockEnd
0
BLOCK
5
BD
330
BC
100
AcDbEntity
8
0
100
AcDbBlockBegin
2
*D34
70
1
10
0
20
0
3
*D34
1

0
LINE
5
1A9
100
AcDbEntity
8
7_roof_rafter_d
6
CONTINUOUS
62
7
370
0
100
AcDbLine
10
4862
20
5500
11
5333
21
5500
0
SOLID
5
1AA
100
AcDbEntity
8
7_roof_rafter_d
6
CONTINUOUS
62
7
370
0
100
AcDbTrace
10
4862
20
5500
30
0
11
4926
21
5510.65688724
31
0
12
4926
22
5489.34311276
32
0
13
4926
23
5489.34311276
33
0
0
SOLID
5
1AB
100
AcDbEntity
8
7_roof_rafter_d
6
CONTINUOUS
62
7
370
0
100
AcDbTrace
10
5333
20
5500
30
0
11
5269
21
5489.34311276
31
0
12
5269
22
5510.65688724
32
0
13
5269
23
5510.65688724
33
0
0
MTEXT
5
1AC
100
AcDbEntity
8
7_roof_rafter_d
6
CONTINUOUS
62
7
370
0
100
AcDbMText
10
5097.5
20
5552
30
0
40
64
41
120.888888889
71
5
72
1
1
471
7
standard
210
0
220
0
230
1
50
0
73
2
44
1
0
LINE
5
1AD
100
AcDbEntity
8
7_roof_rafter_d
6
CONTINUOUS
62
7
370
0
100
AcDbLine
10
4862
20
5514.1950145
11
4862
21
5516
0
LINE
5
1AE
100
AcDbEntity
8
7_roof_rafter_d
6
CONTINUOUS
62
7
370
0
100
AcDbLine
10
5333
20
5518.08966526
11
5333
21
5516
0
ENDBLK
5
BE
330
BC
100
AcDbEntity
8
0
100
AcDbBlockEnd
0
BLOCK
5
C0
330
BF
100
AcDbEntity
8
0
100
AcDbBlockBegin
2
*D36
70
1
10
0
20
0
3
*D36
1

0
LINE
5
1AF
100
AcDbEntity
8
7_roof_rafter_d
6
CONTINUOUS
62
7
370
0
100
AcDbLine
10
7441
20
5500
11
7736
21
5500
0
SOLID
5
1B0
100
AcDbEntity
8
7_roof_rafter_d
6
CONTINUOUS
62
7
370
0
100
AcDbTrace
10
7441
20
5500
30
0
11
7505
21
5510.65688724
31
0
12
7505
22
5489.34311276
32
0
13
7505
23
5489.34311276
33
0
0
SOLID
5
1B1
100
AcDbEntity
8
7_roof_rafter_d
6
CONTINUOUS
62
7
370
0
100
AcDbTrace
10
7736
20
5500
30
0
11
7672
21
5489.34311276
31
0
12
7672
22
5510.65688724
32
0
13
7672
23
5510.65688724
33
0
0
MTEXT
5
1B2
100
AcDbEntity
8
7_roof_rafter_d
6
CONTINUOUS
62
7
370
0
100
AcDbMText
10
7588.5
20
5552
30
0
40
64
41
128
71
5
72
1
1
295
7
standard
210
0
220
0
230
1
50
0
73
2
44
1
0
LINE
5
1B3
100
AcDbEntity
8
7_roof_rafter_d
6
CONTINUOUS
62
7
370
0
100
AcDbLine
10
7441
20
5523.25970717
11
7441
21
5516
0
LINE
5
1B4
100
AcDbEntity
8
7_roof_rafter_d
6
CONTINUOUS
62
7
370
0
100
AcDbLine
10
7736
20
5523.25970717
11
7736
21
5516
0
ENDBLK
5
C1
330
BF
100
AcDbEntity
8
0
100
AcDbBlockEnd
0
BLOCK
5
C3
330
C2
100
AcDbEntity
8
0
100
AcDbBlockBegin
2
*D20
70
1
10
0
20
0
3
*D20
1

0
LINE
5
1B5
100
AcDbEntity
8
7_roof_rafter_d
6
CONTINUOUS
62
7
370
0
100
AcDbLine
10
1222
20
5700
11
3125
21
5700
0
SOLID
5
1B6
100
AcDbEntity
8
7_roof_rafter_d
6
CONTINUOUS
62
7
370
0
100
AcDbTrace
10
1222
20
5700
30
0
11
1286
21
5710.65688724
31
0
12
1286
22
5689.34311276
32
0
13
1286
23
5689.34311276
33
0
0
SOLID
5
1B7
100
AcDbEntity
8
7_roof_rafter_d
6
CONTINUOUS
62
7
370
0
100
AcDbTrace
10
3125
20
5700
30
0
11
3061
21
5689.34311276
31
0
12
3061
22
5710.65688724
32
0
13
3061
23
5710.65688724
33
0
0
MTEXT
5
1B8
100
AcDbEntity
8
7_roof_rafter_d
6
CONTINUOUS
62
7
370
0
100
AcDbMText
10
2173.5
20
5752
30
0
40
64
41
163.555555556
71
5
72
1
1
1903
7
standard
210
0
220
0
230
1
50
0
73
2
44
1
0
LINE
5
1B9
100
AcDbEntity
8
7_roof_rafter_d
6
CONTINUOUS
62
7
370
0
100
AcDbLine
10
1222
20
5743.39241592
11
1222
21
5716
0
LINE
5
1BA
100
AcDbEntity
8
7_roof_rafter_d
6
CONTINUOUS
62
7
370
0
100
AcDbLine
10
3125
20
5737.70807403
11
3125
21
5716
0
ENDBLK
5
C4
330
C2
100
AcDbEntity
8
0
100
AcDbBlockEnd
0
BLOCK
5
C6
330
C5
100
AcDbEntity
8
0
100
AcDbBlockBegin
2
*D13
70
1
10
0
20
0
3
*D13
1

0
LINE
5
1BB
100
AcDbEntity
8
6_roof_rack_d
6
CONTINUOUS
62
7
370
0
100
AcDbLine
10
863
20
5400
11
3125
21
5400
0
SOLID
5
1BC
100
AcDbEntity
8
6_roof_rack_d
6
CONTINUOUS
62
7
370
0
100
AcDbTrace
10
863
20
5400
30
0
11
927
21
5410.65688724
31
0
12
927
22
5389.34311276
32
0
13
927
23
5389.34311276
33
0
0
SOLID
5
1BD
100
AcDbEntity
8
6_roof_rack_d
6
CONTINUOUS
62
7
370
0
100
AcDbTrace
10
3125
20
5400
30
0
11
3061
21
5389.34311276
31
0
12
3061
22
5410.65688724
32
0
13
3061
23
5410.65688724
33
0
0
MTEXT
5
1BE
100
AcDbEntity
8
6_roof_rack_d
6
CONTINUOUS
62
7
370
0
100
AcDbMText
10
1994
20
5452
30
0
40
64
41
177.777777778
71
5
72
1
1
2262
7
standard
210
0
220
0
230
1
50
0
73
2
44
1
0
LINE
5
1BF
100
AcDbEntity
8
6_roof_rack_d
6
CONTINUOUS
62
7
370
0
100
AcDbLine
10
863
20
5406.37954098
11
863
21
5384
0
LINE
5
1C0
100
AcDbEntity
8
6_roof_rack_d
6
CONTINUOUS
62
7
370
0
100
AcDbLine
10
3125
20
5406.37954098
11
3125
21
5384
0
ENDBLK
5
C7
330
C5
100
AcDbEntity
8
0
100
AcDbBlockEnd
0
BLOCK
5
C9
330
C8
100
AcDbEntity
8
0
100
AcDbBlockBegin
2
*D23
70
1
10
0
20
0
3
*D23
1

0
LINE
5
1C1
100
AcDbEntity
8
7_roof_rafter_d
6
CONTINUOUS
62
7
370
0
100
AcDbLine
10
1250
20
5500
11
1721
21
5500
0
SOLID
5
1C2
100
AcDbEntity
8
7_roof_rafter_d
6
CONTINUOUS
62
7
370
0
100
AcDbTrace
10
1250
20
5500
30
0
11
1314
21
5510.65688724
31
0
12
1314
22
5489.34311276
32
0
13
1314
23
5489.34311276
33
0
0
SOLID
5
1C3
100
AcDbEntity
8
7_roof_rafter_d
6
CONTINUOUS
62
7
370
0
100
AcDbTrace
10
1721
20
5500
30
0
11
1657
21
5489.34311276
31
0
12
1657
22
5510.65688724
32
0
13
1657
23
5510.65688724
33
0
0
MTEXT
5
1C4
100
AcDbEntity
8
7_roof_rafter_d
6
CONTINUOUS
62
7
370
0
100
AcDbMText
10
1485.5
20
5552
30
0
40
64
41
120.888888889
71
5
72
1
1
471
7
standard
210
0
220
0
230
1
50
0
73
2
44
1
0
LINE
5
1C5
100
AcDbEntity
8
7_roof_rafter_d
6
CONTINUOUS
62
7
370
0
100
AcDbLine
10
1250
20
5514.97394465
11
1250
21
5516
0
LINE
5
1C6
100
AcDbEntity
8
7_roof_rafter_d
6
CONTINUOUS
62
7
370
0
100
AcDbLine
10
1721
20
5514.97394465
11
1721
21
5516
0
ENDBLK
5
CA
330
C8
100
AcDbEntity
8
0
100
AcDbBlockEnd
0
BLOCK
5
CC
330
CB
100
AcDbEntity
8
0
100
AcDbBlockBegin
2
*D30
70
1
10
0
20
0
3
*D30
1

0
LINE
5
1C7
100
AcDbEntity
8
7_roof_rafter_d
6
CONTINUOUS
62
7
370
0
100
AcDbLine
10
2798
20
5500
11
3269
21
5500
0
SOLID
5
1C8
100
AcDbEntity
8
7_roof_rafter_d
6
CONTINUOUS
62
7
370
0
100
AcDbTrace
10
2798
20
5500
30
0
11
2862
21
5510.65688724
31
0
12
2862
22
5489.34311276
32
0
13
2862
23
5489.34311276
33
0
0
SOLID
5
1C9
100
AcDbEntity
8
7_roof_rafter_d
6
CONTINUOUS
62
7
370
0
100
AcDbTrace
10
3269
20
5500
30
0
11
3205
21
5489.34311276
31
0
12
3205
22
5510.65688724
32
0
13
3205
23
5510.65688724
33
0
0
MTEXT
5
1CA
100
AcDbEntity
8
7_roof_rafter_d
6
CONTINUOUS
62
7
370
0
100
AcDbMText
10
3033.5
20
5552
30
0
40
64
41
120.888888889
71
5
72
1
1
471
7
standard
210
0
220
0
230
1
50
0
73
2
44
1
0
LINE
5
1CB
100
AcDbEntity
8
7_roof_rafter_d
6
CONTINUOUS
62
7
370
0
100
AcDbLine
10
2798
20
5498.61641146
11
2798
21
5516
0
LINE
5
1CC
100
AcDbEntity
8
7_roof_rafter_d
6
CONTINUOUS
62
7
370
0
100
AcDbLine
10
3269
20
5490.82710995
11
3269
21
5516
0
ENDBLK
5
CD
330
CB
100
AcDbEntity
8
0
100
AcDbBlockEnd
0
BLOCK
5
CF
330
CE
100
AcDbEntity
8
0
100
AcDbBlockBegin
2
*D31
70
1
10
0
20
0
3
*D31
1

0
LINE
5
1CD
100
AcDbEntity
8
7_roof_rafter_d
6
CONTINUOUS
62
7
370
0
100
AcDbLine
10
3314
20
5500
11
3785
21
5500
0
SOLID
5
1CE
100
AcDbEntity
8
7_roof_rafter_d
6
CONTINUOUS
62
7
370
0
100
AcDbTrace
10
3314
20
5500
30
0
11
3378
21
5510.65688724
31
0
12
3378
22
5489.34311276
32
0
13
3378
23
5489.34311276
33
0
0
SOLID
5
1CF
100
AcDbEntity
8
7_roof_rafter_d
6
CONTINUOUS
62
7
370
0
100
AcDbTrace
10
3785
20
5500
30
0
11
3721
21
5489.34311276
31
0
12
3721
22
5510.65688724
32
0
13
3721
23
5510.65688724
33
0
0
MTEXT
5
1D0
100
AcDbEntity
8
7_roof_rafter_d
6
CONTINUOUS
62
7
370
0
100
AcDbMText
10
3549.5
20
5552
30
0
40
64
41
120.888888889
71
5
72
1
1
471
7
standard
210
0
220
0
230
1
50
0
73
2
44
1
0
LINE
5
1D1
100
AcDbEntity
8
7_roof_rafter_d
6
CONTINUOUS
62
7
370
0
100
AcDbLine
10
3314
20
5494.7217607
11
3314
21
5516
0
LINE
5
1D2
100
AcDbEntity
8
7_roof_rafter_d
6
CONTINUOUS
62
7
370
0
100
AcDbLine
10
3785
20
5502.51106222
11
3785
21
5516
0
ENDBLK
5
D0
330
CE
100
AcDbEntity
8
0
100
AcDbBlockEnd
0
BLOCK
5
D2
330
D1
100
AcDbEntity
8
0
100
AcDbBlockBegin
2
*D28
70
1
10
0
20
0
3
*D28
1

0
LINE
5
1D3
100
AcDbEntity
8
7_roof_rafter_d
6
CONTINUOUS
62
7
370
0
100
AcDbLine
10
5849
20
5500
11
5378
21
5500
0
SOLID
5
1D4
100
AcDbEntity
8
7_roof_rafter_d
6
CONTINUOUS
62
7
370
0
100
AcDbTrace
10
5849
20
5500
30
0
11
5785
21
5489.34311276
31
0
12
5785
22
5510.65688724
32
0
13
5785
23
5510.65688724
33
0
0
SOLID
5
1D5
100
AcDbEntity
8
7_roof_rafter_d
6
CONTINUOUS
62
7
370
0
100
AcDbTrace
10
5378
20
5500
30
0
11
5442
21
5510.65688724
31
0
12
5442
22
5489.34311276
32
0
13
5442
23
5489.34311276
33
0
0
MTEXT
5
1D6
100
AcDbEntity
8
7_roof_rafter_d
6
CONTINUOUS
62
7
370
0
100
AcDbMText
10
5613.5
20
5552
30
0
40
64
41
120.888888889
71
5
72
1
1
471
7
standard
210
0
220
0
230
1
50
360
73
2
44
1
0
LINE
5
1D7
100
AcDbEntity
8
7_roof_rafter_d
6
CONTINUOUS
62
7
370
0
100
AcDbLine
10
5849
20
5518.08966526
11
5849
21
5516
0
LINE
5
1D8
100
AcDbEntity
8
7_roof_rafter_d
6
CONTINUOUS
62
7
370
0
100
AcDbLine
10
5378
20
5510.30036374
11
5378
21
5516
0
ENDBLK
5
D3
330
D1
100
AcDbEntity
8
0
100
AcDbBlockEnd
0
BLOCK
5
D5
330
D4
100
AcDbEntity
8
0
100
AcDbBlockBegin
2
a3-0
70
0
10
0
20
0
3
a3-0
1

0
LINE
5
1D9
100
AcDbEntity
8
0
6
ByLayer
62
256
370
-1
100
AcDbLine
10
4100
20
2870
11
4100
21
100
0
LINE
5
1DA
100
AcDbEntity
8
0
6
ByLayer
62
256
370
-1
100
AcDbLine
10
200
20
2870
11
200
21
100
0
LINE
5
1DB
100
AcDbEntity
8
0
6
ByLayer
62
256
370
-1
100
AcDbLine
10
200
20
100
11
4100
21
100
0
LINE
5
1DC
100
AcDbEntity
8
0
6
ByLayer
62
256
370
-1
100
AcDbLine
10
2500
20
600.001
11
4100
21
600
0
LINE
5
1DD
100
AcDbEntity
8
0
6
ByLayer
62
256
370
-1
100
AcDbLine
10
2500
20
500
11
4100
21
500
0
LINE
5
1DE
100
AcDbEntity
8
0
6
ByLayer
62
256
370
-1
100
AcDbLine
10
2500
20
600.001
11
2500
21
100
0
LINE
5
1DF
100
AcDbEntity
8
0
6
ByLayer
62
256
370
-1
100
AcDbLine
10
2500
20
300.001
11
4100
21
300
0
LINE
5
1E0
100
AcDbEntity
8
0
6
ByLayer
62
256
370
-1
100
AcDbLine
10
2900
20
600.001
11
2900
21
100
0
LINE
5
1E1
100
AcDbEntity
8
0
6
ByLayer
62
256
370
-1
100
AcDbLine
10
3200
20
600.001
11
3200
21
100
0
LINE
5
1E2
100
AcDbEntity
8
0
6
ByLayer
62
7
370
-1
100
AcDbLine
10
3200
20
200
11
3900
21
200
0
LINE
5
1E3
100
AcDbEntity
8
0
6
ByLayer
62
256
370
-1
100
AcDbLine
10
3900
20
300
11
3900
21
100
0
LINE
5
1E4
100
AcDbEntity
8
0
6
ByLayer
62
7
370
-1
100
AcDbLine
10
3500
20
300
11
3500
21
100
0
MTEXT
5
1E5
100
AcDbEntity
8
0
6
ByLayer
62
256
370
-1
100
AcDbMText
10
3231.449088
20
269.746176
30
0
40
40
41
233.333324853
71
1
72
5
1
SIZE  A3
7
iso
210
0
220
0
230
1
50
0
73
2
44
0.96
0
MTEXT
5
1E6
100
AcDbEntity
8
0
6
ByLayer
62
256
370
-1
100
AcDbMText
10
3229.61408
20
174.32576
30
0
40
40
41
243.333324853
71
1
72
5
1
SCALE 1:1
7
iso
210
0
220
0
230
1
50
0
73
2
44
0.96
0
MTEXT
5
1E7
100
AcDbEntity
8
0
6
ByLayer
62
256
370
-1
100
AcDbMText
10
3609.460736
20
166.985728
30
0
40
40
41
168.888880409
71
1
72
5
1
AS1100
7
iso
210
0
220
0
230
1
50
0
73
2
44
0.96
0
MTEXT
5
1E8
100
AcDbEntity
8
0
6
ByLayer
62
256
370
-1
100
AcDbMText
10
3444.310016
20
433.061888
30
0
40
60
41
365
71
1
72
5
1
ANDY XU
7
iso
210
0
220
0
230
1
50
0
73
2
44
0.96
0
LINE
5
1E9
100
AcDbEntity
8
0
6
ByLayer
62
256
370
-1
100
AcDbLine
10
200
20
2870
11
4100
21
2870
0
LINE
5
1EA
100
AcDbEntity
8
0
6
ByLayer
62
256
370
-1
100
AcDbLine
10
2500
20
400
11
3200
21
400
0
LINE
5
1EB
100
AcDbEntity
8
0
6
ByLayer
62
256
370
-1
100
AcDbLine
10
2500
20
350
11
3200
21
350
0
LINE
5
1EC
100
AcDbEntity
8
0
6
ByLayer
62
256
370
-1
100
AcDbLine
10
2500
20
450.001
11
3200
21
450.001
0
LINE
5
1ED
100
AcDbEntity
8
0
6
ByLayer
62
256
370
-1
100
AcDbLine
10
3048
20
228
11
3048
21
172
0
CIRCLE
5
1EE
100
AcDbEntity
8
0
6
ByLayer
62
256
370
-1
100
AcDbCircle
10
3112
20
200
40
28
0
LINE
5
1EF
100
AcDbEntity
8
0
6
ByLayer
62
256
370
-1
100
AcDbLine
10
2960
20
200
11
3160
21
200
0
LINE
5
1F0
100
AcDbEntity
8
0
6
ByLayer
62
256
370
-1
100
AcDbLine
10
2984
20
216
11
3048
21
228
0
LINE
5
1F1
100
AcDbEntity
8
0
6
ByLayer
62
256
370
-1
100
AcDbLine
10
2984
20
184
11
3048
21
172
0
LINE
5
1F2
100
AcDbEntity
8
0
6
ByLayer
62
256
370
-1
100
AcDbLine
10
2984
20
216
11
2984
21
184
0
LINE
5
1F3
100
AcDbEntity
8
0
6
ByLayer
62
256
370
-1
100
AcDbLine
10
3112
20
152
11
3112
21
248
0
CIRCLE
5
1F4
100
AcDbEntity
8
0
6
ByLayer
62
256
370
-1
100
AcDbCircle
10
3112
20
200
40
16
0
MTEXT
5
1F5
100
AcDbEntity
8
0
6
ByLayer
62
256
370
-1
100
AcDbMText
10
3920
20
248.333332468
30
0
40
30
41
103.344762494
71
7
72
5
1
sheet
7
normal#0.500000#0.900000
210
0
220
0
230
1
50
0
73
1
44
0.96
0
ENDBLK
5
D6
330
D4
100
AcDbEntity
8
0
100
AcDbBlockEnd
0
BLOCK
5
D8
330
D7
100
AcDbEntity
8
0
100
AcDbBlockBegin
2
A3_Xu-0
70
0
10
0
20
0
3
A3_Xu-0
1

0
INSERT
5
1F6
100
AcDbEntity
8
0
6
ByLayer
62
256
370
-1
100
AcDbBlockReference
2
a3-0
10
0
20
0
30
0
41
1
42
1
43
0
50
0
70
1
71
1
44
0
45
0
0
ENDBLK
5
D9
330
D7
100
AcDbEntity
8
0
100
AcDbBlockEnd
0
ENDSEC
0
SECTION
2
ENTITIES
0
INSERT
5
1F7
100
AcDbEntity
8
0
6
ByLayer
62
256
370
-1
100
AcDbBlockReference
2
A3_Xu-0
10
-440
20
-220
30
0
41
2.2
42
2.2
43
0
50
0
70
1
71
1
44
0
45
0
0
LINE
5
1F8
100
AcDbEntity
8
6_roof_rack
6
ByLayer
62
256
370
-1
100
AcDbLine
10
3125
20
5025
11
3125
21
4935
0
LINE
5
1F9
100
AcDbEntity
8
6_roof_rack
6
ByLayer
62
256
370
-1
100
AcDbLine
10
3125
20
2795
11
3125
21
2705
0
LINE
5
1FA
100
AcDbEntity
8
6_roof_rack
6
ByLayer
62
256
370
-1
100
AcDbLine
10
5520
20
5025
11
5520
21
4935
0
LINE
5
1FB
100
AcDbEntity
8
6_roof_rack
6
ByLayer
62
256
370
-1
100
AcDbLine
10
5520
20
2795
11
5520
21
2705
0
LINE
5
1FC
100
AcDbEntity
8
6_roof_rack
6
ByLayer
62
256
370
-1
100
AcDbLine
10
1205
20
4450
11
1205
21
4485
0
LINE
5
1FD
100
AcDbEntity
8
6_roof_rack
6
ByLayer
62
256
370
-1
100
AcDbLine
10
7440
20
4450
11
7440
21
4485
0
LINE
5
1FE
100
AcDbEntity
8
6_roof_rack
6
ByLayer
62
256
370
-1
100
AcDbLine
10
1205
20
3280
11
1205
21
3245
0
LINE
5
1FF
100
AcDbEntity
8
6_roof_rack
6
ByLayer
62
256
370
-1
100
AcDbLine
10
7440
20
3245
11
7440
21
3280
0
LINE
5
200
100
AcDbEntity
8
6_roof_rack
6
ByLayer
62
256
370
-1
100
AcDbLine
10
3170
20
4935
11
5475
21
4935
0
LINE
5
201
100
AcDbEntity
8
6_roof_rack
6
ByLayer
62
256
370
-1
100
AcDbLine
10
3170
20
2795
11
5475
21
2795
0
CIRCLE
5
202
100
AcDbEntity
8
6_roof_rack_d
6
ByLayer
62
256
370
-1
100
AcDbCircle
10
3125
20
5913.19528818
40
80.622577483
0
MTEXT
5
203
100
AcDbEntity
8
6_roof_rack_d
6
ByLayer
62
256
370
-1
100
AcDbMText
10
3109
20
5950.19528818
30
0
40
72
41
40
71
1
72
1
1
4
7
standard
210
0
220
0
230
1
50
0
73
2
44
1
0
LINE
5
204
100
AcDbEntity
8
6_roof_rack_d
6
BORDER2
62
256
370
-1
100
AcDbLine
10
3125
20
5832.5727107
11
3125
21
5125
0
CIRCLE
5
205
100
AcDbEntity
8
6_roof_rack_d
6
ByLayer
62
256
370
-1
100
AcDbCircle
10
5520
20
5913.19528818
40
80.622577483
0
LINE
5
206
100
AcDbEntity
8
6_roof_rack_d
6
BORDER2
62
256
370
-1
100
AcDbLine
10
5520
20
5832.5727107
11
5520
21
5125
0
MTEXT
5
207
100
AcDbEntity
8
6_roof_rack_d
6
ByLayer
62
256
370
-1
100
AcDbMText
10
5504
20
5950.19528818
30
0
40
72
41
32
71
1
72
1
1
8
7
standard
210
0
220
0
230
1
50
0
73
2
44
1
0
CIRCLE
5
208
100
AcDbEntity
8
6_roof_rack_d
6
ByLayer
62
256
370
-1
100
AcDbCircle
10
8420.62257745
20
2812.00213484
40
80.622577483
0
CIRCLE
5
209
100
AcDbEntity
8
6_roof_rack_d
6
ByLayer
62
256
370
-1
100
AcDbCircle
10
174.377422545
20
2811.99786516
40
80.622577483
0
MTEXT
5
20A
100
AcDbEntity
8
6_roof_rack_d
6
ByLayer
62
256
370
-1
100
AcDbMText
10
158.377422545
20
2848.99786516
30
0
40
72
41
48
71
1
72
1
1
A
7
standard
210
0
220
0
230
1
50
0
73
2
44
1
0
MTEXT
5
20B
100
AcDbEntity
8
6_roof_rack_d
6
ByLayer
62
256
370
-1
100
AcDbMText
10
8394.62257745
20
2849.00213484
30
0
40
72
41
48
71
1
72
1
1
A
7
standard
210
0
220
0
230
1
50
360
73
2
44
1
0
LINE
5
20C
100
AcDbEntity
8
6_roof_rack_d
6
BORDER2
62
256
370
-1
100
AcDbLine
10
7490
20
2812
11
8340
21
2812
0
LINE
5
20D
100
AcDbEntity
8
6_roof_rack_d
6
BORDER2
62
256
370
-1
100
AcDbLine
10
1155
20
2812
11
255
21
2812
0
CIRCLE
5
20E
100
AcDbEntity
8
6_roof_rack_d
6
ByLayer
62
256
370
-1
100
AcDbCircle
10
8420.62257745
20
3864.00213484
40
80.622577483
0
CIRCLE
5
20F
100
AcDbEntity
8
6_roof_rack_d
6
ByLayer
62
256
370
-1
100
AcDbCircle
10
174.377422545
20
3863.99786516
40
80.622577483
0
CIRCLE
5
210
100
AcDbEntity
8
6_roof_rack_d
6
ByLayer
62
256
370
-1
100
AcDbCircle
10
8420.62257745
20
4917.00213484
40
80.622577483
0
CIRCLE
5
211
100
AcDbEntity
8
6_roof_rack_d
6
ByLayer
62
256
370
-1
100
AcDbCircle
10
174.377422545
20
4916.99786516
40
80.622577483
0
LINE
5
212
100
AcDbEntity
8
6_roof_rack_d
6
BORDER2
62
256
370
-1
100
AcDbLine
10
7490
20
4917
11
8340
21
4917
0
LINE
5
213
100
AcDbEntity
8
6_roof_rack_d
6
BORDER2
62
256
370
-1
100
AcDbLine
10
1155
20
4917
11
255
21
4917
0
MTEXT
5
214
100
AcDbEntity
8
6_roof_rack_d
6
ByLayer
62
256
370
-1
100
AcDbMText
10
158.377422545
20
3900.99786516
30
0
40
72
41
32
71
1
72
1
1
C
7
standard
210
0
220
0
230
1
50
0
73
2
44
1
0
MTEXT
5
215
100
AcDbEntity
8
6_roof_rack_d
6
ByLayer
62
256
370
-1
100
AcDbMText
10
158.377422545
20
4953.99786516
30
0
40
72
41
32
71
1
72
1
1
E
7
standard
210
0
220
0
230
1
50
0
73
2
44
1
0
MTEXT
5
216
100
AcDbEntity
8
6_roof_rack_d
6
ByLayer
62
256
370
-1
100
AcDbMText
10
8394.62257745
20
3901.00213484
30
0
40
72
41
32
71
1
72
1
1
C
7
standard
210
0
220
0
230
1
50
360
73
2
44
1
0
MTEXT
5
217
100
AcDbEntity
8
6_roof_rack_d
6
ByLayer
62
256
370
-1
100
AcDbMText
10
8394.62257745
20
4954.00213484
30
0
40
72
41
32
71
1
72
1
1
E
7
standard
210
0
220
0
230
1
50
360
73
2
44
1
0
LINE
5
218
100
AcDbEntity
8
6_roof_rack_d
6
BORDER2
62
256
370
-1
100
AcDbLine
10
7490
20
2795
11
8290
21
2795
0
LINE
5
219
100
AcDbEntity
8
6_roof_rack_d
6
BORDER2
62
256
370
-1
100
AcDbLine
10
7490
20
4935
11
8290
21
4935
0
DIMENSION
5
21A
100
AcDbEntity
8
6_roof_rack_d
6
ByLayer
62
256
370
-1
100
AcDbDimension
2
*D1
10
8000
20
2795
30
0
11
7948
21
3865
31
0
70
32
71
5
72
0
3
Standard
53
0
210
0
220
0
230
1
100
AcDbAlignedDimension
13
7948.25609773
23
4935
33
0
14
7948.25609773
24
2795
34
0
50
90
100
AcDbRotatedDimension
0
LINE
5
21B
100
AcDbEntity
8
6_roof_rack_d
6
BORDER2
62
256
370
-1
100
AcDbLine
10
355
20
2795
11
1155
21
2795
0
LINE
5
21C
100
AcDbEntity
8
6_roof_rack_d
6
BORDER2
62
256
370
-1
100
AcDbLine
10
355
20
4935
11
1155
21
4935
0
DIMENSION
5
21D
100
AcDbEntity
8
6_roof_rack_d
6
ByLayer
62
256
370
-1
100
AcDbDimension
2
*D2
10
600
20
2795
30
0
11
548
21
3865
31
0
70
32
71
5
72
0
3
Standard
53
0
210
0
220
0
230
1
100
AcDbAlignedDimension
13
564.614310861
23
4935
33
0
14
552.972778678
24
2795
34
0
50
90
100
AcDbRotatedDimension
0
LEADER
5
21E
100
AcDbEntity
8
6_roof_rack_d
6
ByLayer
62
256
370
-1
100
AcDbLeader
3
Standard
71
1
72
0
73
3
74
0
75
0
40
1
41
10
76
0
76
0
0
LEADER
5
21F
100
AcDbEntity
8
6_roof_rack_d
6
ByLayer
62
256
370
-1
100
AcDbLeader
3
Standard
71
1
72
0
73
3
74
0
75
0
40
1
41
10
76
3
76
3
10
5539.6875
20
2744.375
30
0
10
5692.1875
20
2464.375
30
0
10
6392.1875
20
2464.375
30
0
0
MTEXT
5
220
100
AcDbEntity
8
6_roof_rack_d
6
ByLayer
62
256
370
-1
100
AcDbMText
10
5722.1875
20
2564.375
30
0
40
64
41
536.888888889
71
1
72
1
1
90x45 H3 x2
7
standard
210
0
220
0
230
1
50
0
73
2
44
1
0
LEADER
5
221
100
AcDbEntity
8
6_roof_rack_d
6
ByLayer
62
256
370
-1
100
AcDbLeader
3
Standard
71
1
72
0
73
3
74
0
75
0
40
1
41
10
76
3
76
3
10
3147.5
20
2750
30
0
10
3300
20
2470
30
0
10
4000
20
2470
30
0
0
MTEXT
5
222
100
AcDbEntity
8
6_roof_rack_d
6
ByLayer
62
256
370
-1
100
AcDbMText
10
3330
20
2570
30
0
40
64
41
536.888888889
71
1
72
1
1
90x45 H3 x2
7
standard
210
0
220
0
230
1
50
0
73
2
44
1
0
CIRCLE
5
223
100
AcDbEntity
8
6_roof_rack_d
6
ByLayer
62
256
370
-1
100
AcDbCircle
10
1222
20
5913.19528818
40
80.622577483
0
MTEXT
5
224
100
AcDbEntity
8
6_roof_rack_d
6
ByLayer
62
256
370
-1
100
AcDbMText
10
1206
20
5950.19528818
30
0
40
72
41
16
71
1
72
1
1
1
7
standard
210
0
220
0
230
1
50
0
73
2
44
1
0
LINE
5
225
100
AcDbEntity
8
6_roof_rack_d
6
BORDER2
62
256
370
-1
100
AcDbLine
10
1222
20
5832.5727107
11
1222
21
5125
0
CIRCLE
5
226
100
AcDbEntity
8
6_roof_rack_d
6
ByLayer
62
256
370
-1
100
AcDbCircle
10
7422
20
5913.19528818
40
80.622577483
0
LINE
5
227
100
AcDbEntity
8
6_roof_rack_d
6
BORDER2
62
256
370
-1
100
AcDbLine
10
7422
20
5832.5727107
11
7422
21
5125
0
MTEXT
5
228
100
AcDbEntity
8
6_roof_rack_d
6
ByLayer
62
256
370
-1
100
AcDbMText
10
7390
20
5953.19528818
30
0
40
72
41
56
71
1
72
1
1
11
7
standard
210
0
220
0
230
1
50
0
73
2
44
1
0
CIRCLE
5
229
100
AcDbEntity
8
6_roof_rack_d
6
ByLayer
62
256
370
-1
100
AcDbCircle
10
3125
20
1305
40
80.622577483
0
MTEXT
5
22A
100
AcDbEntity
8
6_roof_rack_d
6
ByLayer
62
256
370
-1
100
AcDbMText
10
3109
20
1342
30
0
40
72
41
40
71
1
72
1
1
4
7
standard
210
0
220
0
230
1
50
0
73
2
44
1
0
LINE
5
22B
100
AcDbEntity
8
6_roof_rack_d
6
BORDER2
62
256
370
-1
100
AcDbLine
10
3125
20
2605
11
3125
21
1385.62257748
0
CIRCLE
5
22C
100
AcDbEntity
8
6_roof_rack_d
6
ByLayer
62
256
370
-1
100
AcDbCircle
10
5520
20
1305
40
80.622577483
0
LINE
5
22D
100
AcDbEntity
8
6_roof_rack_d
6
BORDER2
62
256
370
-1
100
AcDbLine
10
5520
20
2605
11
5520
21
1385.62257748
0
MTEXT
5
22E
100
AcDbEntity
8
6_roof_rack_d
6
ByLayer
62
256
370
-1
100
AcDbMText
10
5504
20
1342
30
0
40
72
41
32
71
1
72
1
1
8
7
standard
210
0
220
0
230
1
50
0
73
2
44
1
0
CIRCLE
5
22F
100
AcDbEntity
8
6_roof_rack_d
6
ByLayer
62
256
370
-1
100
AcDbCircle
10
1222
20
1305
40
80.622577483
0
MTEXT
5
230
100
AcDbEntity
8
6_roof_rack_d
6
ByLayer
62
256
370
-1
100
AcDbMText
10
1206
20
1342
30
0
40
72
41
16
71
1
72
1
1
1
7
standard
210
0
220
0
230
1
50
0
73
2
44
1
0
LINE
5
231
100
AcDbEntity
8
6_roof_rack_d
6
BORDER2
62
256
370
-1
100
AcDbLine
10
1222
20
2605
11
1222
21
1385.62257748
0
CIRCLE
5
232
100
AcDbEntity
8
6_roof_rack_d
6
ByLayer
62
256
370
-1
100
AcDbCircle
10
7422
20
1305
40
80.622577483
0
LINE
5
233
100
AcDbEntity
8
6_roof_rack_d
6
BORDER2
62
256
370
-1
100
AcDbLine
10
7422
20
2605
11
7422
21
1385.62257748
0
MTEXT
5
234
100
AcDbEntity
8
6_roof_rack_d
6
ByLayer
62
256
370
-1
100
AcDbMText
10
7390
20
1345
30
0
40
72
41
56
71
1
72
1
1
11
7
standard
210
0
220
0
230
1
50
0
73
2
44
1
0
DIMENSION
5
235
100
AcDbEntity
8
6_roof_rack_d
6
ByLayer
62
256
370
-1
100
AcDbDimension
2
*D6
10
3125
20
5600
30
0
11
2173.5
21
5652
31
0
70
32
71
5
3
Standard
53
0
210
0
220
0
230
1
100
AcDbAlignedDimension
13
1222
23
5593.39241592
33
0
14
3125
24
5587.70807403
34
0
100
AcDbRotatedDimension
0
DIMENSION
5
236
100
AcDbEntity
8
6_roof_rack_d
6
ByLayer
62
256
370
-1
100
AcDbDimension
2
*D7
10
5520
20
5600
30
0
11
4322.5
21
5652
31
0
70
32
71
5
3
Standard
53
0
210
0
220
0
230
1
100
AcDbAlignedDimension
13
3125
23
5593.39241592
33
0
14
5520
24
5599.0767578
34
0
100
AcDbRotatedDimension
0
DIMENSION
5
237
100
AcDbEntity
8
6_roof_rack_d
6
ByLayer
62
256
370
-1
100
AcDbDimension
2
*D8
10
7422
20
5600
30
0
11
6471
21
5652
31
0
70
32
71
5
3
Standard
53
0
210
0
220
0
230
1
100
AcDbAlignedDimension
13
5520
23
5570.65504837
33
0
14
7422
24
5576.33939026
34
0
100
AcDbRotatedDimension
0
DIMENSION
5
238
100
AcDbEntity
8
6_roof_rack_d
6
ByLayer
62
256
370
-1
100
AcDbDimension
2
*D9
10
3125
20
1900
30
0
11
2173.5
21
1952
31
0
70
32
71
5
3
Standard
53
0
210
0
220
0
230
1
100
AcDbAlignedDimension
13
1222
23
1904.25453184
33
0
14
3125
24
1921.3075575
34
0
100
AcDbRotatedDimension
0
DIMENSION
5
239
100
AcDbEntity
8
6_roof_rack_d
6
ByLayer
62
256
370
-1
100
AcDbDimension
2
*D10
10
5520
20
1900
30
0
11
4322.5
21
1952
31
0
70
32
71
5
3
Standard
53
0
210
0
220
0
230
1
100
AcDbAlignedDimension
13
3125
23
1944.04492504
33
0
14
5520
24
1944.04492504
34
0
100
AcDbRotatedDimension
0
DIMENSION
5
23A
100
AcDbEntity
8
6_roof_rack_d
6
ByLayer
62
256
370
-1
100
AcDbDimension
2
*D11
10
7422
20
1900
30
0
11
6471
21
1952
31
0
70
32
71
5
3
Standard
53
0
210
0
220
0
230
1
100
AcDbAlignedDimension
13
5520
23
1944.04492504
33
0
14
7422
24
1938.36058316
34
0
100
AcDbRotatedDimension
0
MTEXT
5
23B
100
AcDbEntity
8
6_roof_rack_d
6
ByLayer
62
256
370
-1
100
AcDbMText
10
8300
20
270
30
0
40
128
41
71.1111111111
71
1
72
1
1
4
7
standard
210
0
220
0
230
1
50
0
73
2
44
1
0
LEADER
5
23C
100
AcDbEntity
8
6_roof_rack_d
6
ByLayer
62
256
370
-1
100
AcDbLeader
3
Standard
71
1
72
0
73
3
74
0
75
0
40
1
41
10
76
3
76
3
10
5717.5
20
4480
30
0
10
5870
20
4200
30
0
10
6570
20
4200
30
0
0
LINE
5
23D
100
AcDbEntity
8
6_roof_rack_d
6
ByLayer
62
256
370
-1
100
AcDbLine
10
3319.74029541
20
0
11
5060
21
0
0
LINE
5
23E
100
AcDbEntity
8
6_roof_rack_d
6
ByLayer
62
256
370
-1
100
AcDbLine
10
5060
20
660.0033
11
3319.74029541
21
660.0033
0
LINE
5
23F
100
AcDbEntity
8
6_roof_rack_d
6
ByLayer
62
256
370
-1
100
AcDbLine
10
3319.74029541
20
550.00275
11
5060
21
550.00275
0
LINE
5
240
100
AcDbEntity
8
6_roof_rack_d
6
ByLayer
62
256
370
-1
100
AcDbLine
10
5060
20
440.0022
11
3319.74029541
21
440.0022
0
LINE
5
241
100
AcDbEntity
8
6_roof_rack_d
6
ByLayer
62
256
370
-1
100
AcDbLine
10
3319.74029541
20
330.00165
11
5060
21
330.00165
0
LINE
5
242
100
AcDbEntity
8
6_roof_rack_d
6
ByLayer
62
256
370
-1
100
AcDbLine
10
3319.74029541
20
220.0011
11
5060
21
220.0011
0
LINE
5
243
100
AcDbEntity
8
6_roof_rack_d
6
ByLayer
62
256
370
-1
100
AcDbLine
10
3319.74029541
20
110.00055
11
5060
21
110.00055
0
LINE
5
244
100
AcDbEntity
8
6_roof_rack_d
6
ByLayer
62
256
370
-1
100
AcDbLine
10
3319.74029541
20
0
11
3319.74029541
21
660.0033
0
LINE
5
245
100
AcDbEntity
8
6_roof_rack_d
6
ByLayer
62
256
370
-1
100
AcDbLine
10
5060
20
0
11
5060
21
660.0033
0
MTEXT
5
246
100
AcDbEntity
8
6_roof_rack_d
6
ByLayer
62
256
370
-1
100
AcDbMText
10
4380
20
1070.0033
30
0
40
56
41
280
71
1
72
1
1
NUMBER
7
standard
210
0
220
0
230
1
50
0
73
2
44
1
0
MTEXT
5
247
100
AcDbEntity
8
6_roof_rack_d
6
ByLayer
62
256
370
-1
100
AcDbMText
10
4070
20
1070.0033
30
0
40
56
41
267.555555556
71
1
72
1
1
LENGTH
7
standard
210
0
220
0
230
1
50
0
73
2
44
1
0
MTEXT
5
248
100
AcDbEntity
8
6_roof_rack_d
6
ByLayer
62
256
370
-1
100
AcDbMText
10
3760
20
1070.0033
30
0
40
56
41
261.333333333
71
1
72
1
1
DEGREE
7
standard
210
0
220
0
230
1
50
0
73
2
44
1
0
MTEXT
5
249
100
AcDbEntity
8
6_roof_rack_d
6
ByLayer
62
256
370
-1
100
AcDbMText
10
3340
20
1070.0033
30
0
40
56
41
367.111099239
71
1
72
1
1
DEMINSION
7
standard
210
0
220
0
230
1
50
0
73
2
44
1
0
LINE
5
24A
100
AcDbEntity
8
6_roof_rack_d
6
ByLayer
62
256
370
-1
100
AcDbLine
10
5060
20
1100.0055
11
3319.74029541
21
1100.0055
0
LINE
5
24B
100
AcDbEntity
8
6_roof_rack_d
6
ByLayer
62
256
370
-1
100
AcDbLine
10
3319.74029541
20
990.00495
11
5060
21
990.00495
0
LINE
5
24C
100
AcDbEntity
8
6_roof_rack_d
6
ByLayer
62
256
370
-1
100
AcDbLine
10
5060
20
880.0044
11
3319.74029541
21
880.0044
0
LINE
5
24D
100
AcDbEntity
8
6_roof_rack_d
6
ByLayer
62
256
370
-1
100
AcDbLine
10
3319.74029541
20
770.00385
11
5060
21
770.00385
0
LINE
5
24E
100
AcDbEntity
8
6_roof_rack_d
6
ByLayer
62
256
370
-1
100
AcDbLine
10
3319.74029541
20
440.0022
11
3319.74029541
21
1100.0055
0
LINE
5
24F
100
AcDbEntity
8
6_roof_rack_d
6
ByLayer
62
256
370
-1
100
AcDbLine
10
5060
20
440.0022
11
5060
21
1100.0055
0
LINE
5
250
100
AcDbEntity
8
6_roof_rack_d
6
ByLayer
62
256
370
-1
100
AcDbLine
10
3729.24804688
20
0
11
3729.24804688
21
1100.0055
0
LINE
5
251
100
AcDbEntity
8
6_roof_rack_d
6
ByLayer
62
256
370
-1
100
AcDbLine
10
4047.62766421
20
0.00440000000003
11
4047.62766421
21
1100.0055
0
LINE
5
252
100
AcDbEntity
8
6_roof_rack_d
6
ByLayer
62
256
370
-1
100
AcDbLine
10
4360.23386538
20
0.00220000000002
11
4360.23386538
21
1100.0055
0
LINE
5
253
100
AcDbEntity
8
6_roof_rack_d
6
ByLayer
62
256
370
-1
100
AcDbLine
10
4679.27195132
20
0
11
4679.27195132
21
1100.0055
0
MTEXT
5
254
100
AcDbEntity
8
6_roof_rack_d
6
ByLayer
62
256
370
-1
100
AcDbMText
10
3400
20
970.0022
30
0
40
56
41
205.333333333
71
1
72
1
1
90x45
7
standard
210
0
220
0
230
1
50
0
73
2
44
1
0
MTEXT
5
255
100
AcDbEntity
8
6_roof_rack_d
6
ByLayer
62
256
370
-1
100
AcDbMText
10
3780
20
970.0022
30
0
40
56
41
192.888888889
71
1
72
1
1
H3-10
7
standard
210
0
220
0
230
1
50
0
73
2
44
1
0
MTEXT
5
256
100
AcDbEntity
8
6_roof_rack_d
6
ByLayer
62
256
370
-1
100
AcDbMText
10
3780
20
860.0022
30
0
40
56
41
192.888888889
71
1
72
1
1
H3-10
7
standard
210
0
220
0
230
1
50
0
73
2
44
1
0
MTEXT
5
257
100
AcDbEntity
8
6_roof_rack_d
6
ByLayer
62
256
370
-1
100
AcDbMText
10
4100
20
970.0022
30
0
40
56
41
155.555555556
71
1
72
1
1
2320
7
standard
210
0
220
0
230
1
50
0
73
2
44
1
0
MTEXT
5
258
100
AcDbEntity
8
6_roof_rack_d
6
ByLayer
62
256
370
-1
100
AcDbMText
10
4450
20
970.0022
30
0
40
56
41
31.1111111111
71
1
72
1
1
4
7
standard
210
0
220
0
230
1
50
0
73
2
44
1
0
MTEXT
5
259
100
AcDbEntity
8
6_roof_rack_d
6
ByLayer
62
256
370
-1
100
AcDbMText
10
3400
20
860.0022
30
0
40
56
41
199.111111111
71
1
72
1
1
90x35
7
standard
210
0
220
0
230
1
50
0
73
2
44
1
0
MTEXT
5
25A
100
AcDbEntity
8
6_roof_rack_d
6
ByLayer
62
256
370
-1
100
AcDbMText
10
4450
20
860.0022
30
0
40
56
41
56
71
1
72
1
1
12
7
standard
210
0
220
0
230
1
50
0
73
2
44
1
0
MTEXT
5
25B
100
AcDbEntity
8
6_roof_rack_d
6
ByLayer
62
256
370
-1
100
AcDbMText
10
4700
20
1070.0033
30
0
40
56
41
273.777765906
71
1
72
1
1
OTHERS
7
standard
210
0
220
0
230
1
50
0
73
2
44
1
0
LINE
5
25C
100
AcDbEntity
8
6_roof_rack
6
ByLayer
62
256
370
-1
100
AcDbLine
10
3125
20
4935
11
3125
21
2795
0
LINE
5
25D
100
AcDbEntity
8
6_roof_rack
6
ByLayer
62
256
370
-1
100
AcDbLine
10
5520
20
2795
11
5520
21
4935
0
LINE
5
25E
100
AcDbEntity
8
6_roof_rack
6
ByLayer
62
256
370
-1
100
AcDbLine
10
1205
20
4935
11
1205
21
2705
0
LINE
5
25F
100
AcDbEntity
8
6_roof_rack
6
ByLayer
62
256
370
-1
100
AcDbLine
10
7440
20
2705
11
7440
21
4935
0
LINE
5
260
100
AcDbEntity
8
6_roof_rack
6
ByLayer
62
256
370
-1
100
AcDbLine
10
5565
20
2795
11
7440
21
2795
0
LINE
5
261
100
AcDbEntity
8
6_roof_rack
6
ByLayer
62
256
370
-1
100
AcDbLine
10
1205
20
2795
11
3080
21
2795
0
LINE
5
262
100
AcDbEntity
8
6_roof_rack
6
ByLayer
62
256
370
-1
100
AcDbLine
10
1205
20
2705
11
7440
21
2705
0
LINE
5
263
100
AcDbEntity
8
6_roof_rack
6
ByLayer
62
256
370
-1
100
AcDbLine
10
863
20
5025
11
863
21
4935
0
LINE
5
264
100
AcDbEntity
8
6_roof_rack
6
ByLayer
62
256
370
-1
100
AcDbLine
10
863
20
4935
11
3080
21
4935
0
LINE
5
265
100
AcDbEntity
8
6_roof_rack
6
ByLayer
62
256
370
-1
100
AcDbLine
10
7783
20
5025
11
7783
21
4935
0
LINE
5
266
100
AcDbEntity
8
6_roof_rack
6
ByLayer
62
256
370
-1
100
AcDbLine
10
863
20
5025
11
7783
21
5025
0
LINE
5
267
100
AcDbEntity
8
6_roof_rack
6
ByLayer
62
256
370
-1
100
AcDbLine
10
5565
20
4935
11
7783
21
4935
0
LINE
5
268
100
AcDbEntity
8
8_roof
6
ByLayer
62
256
370
-1
100
AcDbLine
10
863
20
5325
11
1703
21
5325
0
LINE
5
269
100
AcDbEntity
8
8_roof
6
ByLayer
62
256
370
-1
100
AcDbLine
10
1703
20
5325
11
1703
21
2350
0
LINE
5
26A
100
AcDbEntity
8
8_roof
6
ByLayer
62
256
370
-1
100
AcDbLine
10
863
20
5325
11
863
21
2350
0
LINE
5
26B
100
AcDbEntity
8
8_roof
6
ByLayer
62
256
370
-1
100
AcDbLine
10
908
20
5325
11
908
21
2350
0
LINE
5
26C
100
AcDbEntity
8
8_roof
6
ByLayer
62
256
370
-1
100
AcDbLine
10
953
20
5325
11
953
21
2350
0
LINE
5
26D
100
AcDbEntity
8
8_roof
6
ByLayer
62
256
370
-1
100
AcDbLine
10
998
20
5325
11
998
21
2350
0
LINE
5
26E
100
AcDbEntity
8
8_roof
6
ByLayer
62
256
370
-1
100
AcDbLine
10
1043
20
5325
11
1043
21
2350
0
LINE
5
26F
100
AcDbEntity
8
8_roof
6
ByLayer
62
256
370
-1
100
AcDbLine
10
1088
20
5325
11
1088
21
2350
0
LINE
5
270
100
AcDbEntity
8
8_roof
6
ByLayer
62
256
370
-1
100
AcDbLine
10
1133
20
5325
11
1133
21
2350
0
LINE
5
271
100
AcDbEntity
8
8_roof
6
ByLayer
62
256
370
-1
100
AcDbLine
10
1178
20
5325
11
1178
21
2350
0
LINE
5
272
100
AcDbEntity
8
8_roof
6
ByLayer
62
256
370
-1
100
AcDbLine
10
1223
20
5325
11
1223
21
2350
0
LINE
5
273
100
AcDbEntity
8
8_roof
6
ByLayer
62
256
370
-1
100
AcDbLine
10
1268
20
5325
11
1268
21
2350
0
LINE
5
274
100
AcDbEntity
8
8_roof
6
ByLayer
62
256
370
-1
100
AcDbLine
10
1313
20
5325
11
1313
21
2350
0
LINE
5
275
100
AcDbEntity
8
8_roof
6
ByLayer
62
256
370
-1
100
AcDbLine
10
1358
20
5325
11
1358
21
2350
0
LINE
5
276
100
AcDbEntity
8
8_roof
6
ByLayer
62
256
370
-1
100
AcDbLine
10
1403
20
5325
11
1403
21
2350
0
LINE
5
277
100
AcDbEntity
8
8_roof
6
ByLayer
62
256
370
-1
100
AcDbLine
10
1448
20
5325
11
1448
21
2350
0
LINE
5
278
100
AcDbEntity
8
8_roof
6
ByLayer
62
256
370
-1
100
AcDbLine
10
1493
20
5325
11
1493
21
2350
0
LINE
5
279
100
AcDbEntity
8
8_roof
6
ByLayer
62
256
370
-1
100
AcDbLine
10
1538
20
5325
11
1538
21
2350
0
LINE
5
27A
100
AcDbEntity
8
8_roof
6
ByLayer
62
256
370
-1
100
AcDbLine
10
1583
20
5325
11
1583
21
2350
0
LINE
5
27B
100
AcDbEntity
8
8_roof
6
ByLayer
62
256
370
-1
100
AcDbLine
10
1628
20
5325
11
1628
21
2350
0
LINE
5
27C
100
AcDbEntity
8
8_roof
6
ByLayer
62
256
370
-1
100
AcDbLine
10
1673
20
5325
11
1673
21
2350
0
LINE
5
27D
100
AcDbEntity
8
8_roof
6
ByLayer
62
256
370
-1
100
AcDbLine
10
1623
20
5325
11
2463
21
5325
0
LINE
5
27E
100
AcDbEntity
8
8_roof
6
ByLayer
62
256
370
-1
100
AcDbLine
10
2463
20
5325
11
2463
21
2350
0
LINE
5
27F
100
AcDbEntity
8
8_roof
6
ByLayer
62
256
370
-1
100
AcDbLine
10
1623
20
5325
11
1623
21
2350
0
LINE
5
280
100
AcDbEntity
8
8_roof
6
ByLayer
62
256
370
-1
100
AcDbLine
10
1668
20
5325
11
1668
21
2350
0
LINE
5
281
100
AcDbEntity
8
8_roof
6
ByLayer
62
256
370
-1
100
AcDbLine
10
1713
20
5325
11
1713
21
2350
0
LINE
5
282
100
AcDbEntity
8
8_roof
6
ByLayer
62
256
370
-1
100
AcDbLine
10
1758
20
5325
11
1758
21
2350
0
LINE
5
283
100
AcDbEntity
8
8_roof
6
ByLayer
62
256
370
-1
100
AcDbLine
10
1803
20
5325
11
1803
21
2350
0
LINE
5
284
100
AcDbEntity
8
8_roof
6
ByLayer
62
256
370
-1
100
AcDbLine
10
1848
20
5325
11
1848
21
2350
0
LINE
5
285
100
AcDbEntity
8
8_roof
6
ByLayer
62
256
370
-1
100
AcDbLine
10
1893
20
5325
11
1893
21
2350
0
LINE
5
286
100
AcDbEntity
8
8_roof
6
ByLayer
62
256
370
-1
100
AcDbLine
10
1938
20
5325
11
1938
21
2350
0
LINE
5
287
100
AcDbEntity
8
8_roof
6
ByLayer
62
256
370
-1
100
AcDbLine
10
1983
20
5325
11
1983
21
2350
0
LINE
5
288
100
AcDbEntity
8
8_roof
6
ByLayer
62
256
370
-1
100
AcDbLine
10
2028
20
5325
11
2028
21
2350
0
LINE
5
289
100
AcDbEntity
8
8_roof
6
ByLayer
62
256
370
-1
100
AcDbLine
10
2073
20
5325
11
2073
21
2350
0
LINE
5
28A
100
AcDbEntity
8
8_roof
6
ByLayer
62
256
370
-1
100
AcDbLine
10
2118
20
5325
11
2118
21
2350
0
LINE
5
28B
100
AcDbEntity
8
8_roof
6
ByLayer
62
256
370
-1
100
AcDbLine
10
2163
20
5325
11
2163
21
2350
0
LINE
5
28C
100
AcDbEntity
8
8_roof
6
ByLayer
62
256
370
-1
100
AcDbLine
10
2208
20
5325
11
2208
21
2350
0
LINE
5
28D
100
AcDbEntity
8
8_roof
6
ByLayer
62
256
370
-1
100
AcDbLine
10
2253
20
5325
11
2253
21
2350
0
LINE
5
28E
100
AcDbEntity
8
8_roof
6
ByLayer
62
256
370
-1
100
AcDbLine
10
2298
20
5325
11
2298
21
2350
0
LINE
5
28F
100
AcDbEntity
8
8_roof
6
ByLayer
62
256
370
-1
100
AcDbLine
10
2343
20
5325
11
2343
21
2350
0
LINE
5
290
100
AcDbEntity
8
8_roof
6
ByLayer
62
256
370
-1
100
AcDbLine
10
2388
20
5325
11
2388
21
2350
0
LINE
5
291
100
AcDbEntity
8
8_roof
6
ByLayer
62
256
370
-1
100
AcDbLine
10
2433
20
5325
11
2433
21
2350
0
LINE
5
292
100
AcDbEntity
8
8_roof
6
ByLayer
62
256
370
-1
100
AcDbLine
10
2383
20
5325
11
3223
21
5325
0
LINE
5
293
100
AcDbEntity
8
8_roof
6
ByLayer
62
256
370
-1
100
AcDbLine
10
3223
20
5325
11
3223
21
2350
0
LINE
5
294
100
AcDbEntity
8
8_roof
6
ByLayer
62
256
370
-1
100
AcDbLine
10
2383
20
5325
11
2383
21
2350
0
LINE
5
295
100
AcDbEntity
8
8_roof
6
ByLayer
62
256
370
-1
100
AcDbLine
10
2428
20
5325
11
2428
21
2350
0
LINE
5
296
100
AcDbEntity
8
8_roof
6
ByLayer
62
256
370
-1
100
AcDbLine
10
2473
20
5325
11
2473
21
2350
0
LINE
5
297
100
AcDbEntity
8
8_roof
6
ByLayer
62
256
370
-1
100
AcDbLine
10
2518
20
5325
11
2518
21
2350
0
LINE
5
298
100
AcDbEntity
8
8_roof
6
ByLayer
62
256
370
-1
100
AcDbLine
10
2563
20
5325
11
2563
21
2350
0
LINE
5
299
100
AcDbEntity
8
8_roof
6
ByLayer
62
256
370
-1
100
AcDbLine
10
2608
20
5325
11
2608
21
2350
0
LINE
5
29A
100
AcDbEntity
8
8_roof
6
ByLayer
62
256
370
-1
100
AcDbLine
10
2653
20
5325
11
2653
21
2350
0
LINE
5
29B
100
AcDbEntity
8
8_roof
6
ByLayer
62
256
370
-1
100
AcDbLine
10
2698
20
5325
11
2698
21
2350
0
LINE
5
29C
100
AcDbEntity
8
8_roof
6
ByLayer
62
256
370
-1
100
AcDbLine
10
2743
20
5325
11
2743
21
2350
0
LINE
5
29D
100
AcDbEntity
8
8_roof
6
ByLayer
62
256
370
-1
100
AcDbLine
10
2788
20
5325
11
2788
21
2350
0
LINE
5
29E
100
AcDbEntity
8
8_roof
6
ByLayer
62
256
370
-1
100
AcDbLine
10
2833
20
5325
11
2833
21
2350
0
LINE
5
29F
100
AcDbEntity
8
8_roof
6
ByLayer
62
256
370
-1
100
AcDbLine
10
2878
20
5325
11
2878
21
2350
0
LINE
5
2A0
100
AcDbEntity
8
8_roof
6
ByLayer
62
256
370
-1
100
AcDbLine
10
2923
20
5325
11
2923
21
2350
0
LINE
5
2A1
100
AcDbEntity
8
8_roof
6
ByLayer
62
256
370
-1
100
AcDbLine
10
2968
20
5325
11
2968
21
2350
0
LINE
5
2A2
100
AcDbEntity
8
8_roof
6
ByLayer
62
256
370
-1
100
AcDbLine
10
3013
20
5325
11
3013
21
2350
0
LINE
5
2A3
100
AcDbEntity
8
8_roof
6
ByLayer
62
256
370
-1
100
AcDbLine
10
3058
20
5325
11
3058
21
2350
0
LINE
5
2A4
100
AcDbEntity
8
8_roof
6
ByLayer
62
256
370
-1
100
AcDbLine
10
3103
20
5325
11
3103
21
2350
0
LINE
5
2A5
100
AcDbEntity
8
8_roof
6
ByLayer
62
256
370
-1
100
AcDbLine
10
3148
20
5325
11
3148
21
2350
0
LINE
5
2A6
100
AcDbEntity
8
8_roof
6
ByLayer
62
256
370
-1
100
AcDbLine
10
3193
20
5325
11
3193
21
2350
0
LINE
5
2A7
100
AcDbEntity
8
8_roof
6
ByLayer
62
256
370
-1
100
AcDbLine
10
3143
20
5325
11
3983
21
5325
0
LINE
5
2A8
100
AcDbEntity
8
8_roof
6
ByLayer
62
256
370
-1
100
AcDbLine
10
3983
20
5325
11
3983
21
2350
0
LINE
5
2A9
100
AcDbEntity
8
8_roof
6
ByLayer
62
256
370
-1
100
AcDbLine
10
3143
20
5325
11
3143
21
2350
0
LINE
5
2AA
100
AcDbEntity
8
8_roof
6
ByLayer
62
256
370
-1
100
AcDbLine
10
3188
20
5325
11
3188
21
2350
0
LINE
5
2AB
100
AcDbEntity
8
8_roof
6
ByLayer
62
256
370
-1
100
AcDbLine
10
3233
20
5325
11
3233
21
2350
0
LINE
5
2AC
100
AcDbEntity
8
8_roof
6
ByLayer
62
256
370
-1
100
AcDbLine
10
3278
20
5325
11
3278
21
2350
0
LINE
5
2AD
100
AcDbEntity
8
8_roof
6
ByLayer
62
256
370
-1
100
AcDbLine
10
3323
20
5325
11
3323
21
2350
0
LINE
5
2AE
100
AcDbEntity
8
8_roof
6
ByLayer
62
256
370
-1
100
AcDbLine
10
3368
20
5325
11
3368
21
2350
0
LINE
5
2AF
100
AcDbEntity
8
8_roof
6
ByLayer
62
256
370
-1
100
AcDbLine
10
3413
20
5325
11
3413
21
2350
0
LINE
5
2B0
100
AcDbEntity
8
8_roof
6
ByLayer
62
256
370
-1
100
AcDbLine
10
3458
20
5325
11
3458
21
2350
0
LINE
5
2B1
100
AcDbEntity
8
8_roof
6
ByLayer
62
256
370
-1
100
AcDbLine
10
3503
20
5325
11
3503
21
2350
0
LINE
5
2B2
100
AcDbEntity
8
8_roof
6
ByLayer
62
256
370
-1
100
AcDbLine
10
3548
20
5325
11
3548
21
2350
0
LINE
5
2B3
100
AcDbEntity
8
8_roof
6
ByLayer
62
256
370
-1
100
AcDbLine
10
3593
20
5325
11
3593
21
2350
0
LINE
5
2B4
100
AcDbEntity
8
8_roof
6
ByLayer
62
256
370
-1
100
AcDbLine
10
3638
20
5325
11
3638
21
2350
0
LINE
5
2B5
100
AcDbEntity
8
8_roof
6
ByLayer
62
256
370
-1
100
AcDbLine
10
3683
20
5325
11
3683
21
2350
0
LINE
5
2B6
100
AcDbEntity
8
8_roof
6
ByLayer
62
256
370
-1
100
AcDbLine
10
3728
20
5325
11
3728
21
2350
0
LINE
5
2B7
100
AcDbEntity
8
8_roof
6
ByLayer
62
256
370
-1
100
AcDbLine
10
3773
20
5325
11
3773
21
2350
0
LINE
5
2B8
100
AcDbEntity
8
8_roof
6
ByLayer
62
256
370
-1
100
AcDbLine
10
3818
20
5325
11
3818
21
2350
0
LINE
5
2B9
100
AcDbEntity
8
8_roof
6
ByLayer
62
256
370
-1
100
AcDbLine
10
3863
20
5325
11
3863
21
2350
0
LINE
5
2BA
100
AcDbEntity
8
8_roof
6
ByLayer
62
256
370
-1
100
AcDbLine
10
3908
20
5325
11
3908
21
2350
0
LINE
5
2BB
100
AcDbEntity
8
8_roof
6
ByLayer
62
256
370
-1
100
AcDbLine
10
3953
20
5325
11
3953
21
2350
0
LINE
5
2BC
100
AcDbEntity
8
8_roof
6
ByLayer
62
256
370
-1
100
AcDbLine
10
3903
20
5325
11
4743
21
5325
0
LINE
5
2BD
100
AcDbEntity
8
8_roof
6
ByLayer
62
256
370
-1
100
AcDbLine
10
4743
20
5325
11
4743
21
2350
0
LINE
5
2BE
100
AcDbEntity
8
8_roof
6
ByLayer
62
256
370
-1
100
AcDbLine
10
3903
20
5325
11
3903
21
2350
0
LINE
5
2BF
100
AcDbEntity
8
8_roof
6
ByLayer
62
256
370
-1
100
AcDbLine
10
3948
20
5325
11
3948
21
2350
0
LINE
5
2C0
100
AcDbEntity
8
8_roof
6
ByLayer
62
256
370
-1
100
AcDbLine
10
3993
20
5325
11
3993
21
2350
0
LINE
5
2C1
100
AcDbEntity
8
8_roof
6
ByLayer
62
256
370
-1
100
AcDbLine
10
4038
20
5325
11
4038
21
2350
0
LINE
5
2C2
100
AcDbEntity
8
8_roof
6
ByLayer
62
256
370
-1
100
AcDbLine
10
4083
20
5325
11
4083
21
2350
0
LINE
5
2C3
100
AcDbEntity
8
8_roof
6
ByLayer
62
256
370
-1
100
AcDbLine
10
4128
20
5325
11
4128
21
2350
0
LINE
5
2C4
100
AcDbEntity
8
8_roof
6
ByLayer
62
256
370
-1
100
AcDbLine
10
4173
20
5325
11
4173
21
2350
0
LINE
5
2C5
100
AcDbEntity
8
8_roof
6
ByLayer
62
256
370
-1
100
AcDbLine
10
4218
20
5325
11
4218
21
2350
0
LINE
5
2C6
100
AcDbEntity
8
8_roof
6
ByLayer
62
256
370
-1
100
AcDbLine
10
4263
20
5325
11
4263
21
2350
0
LINE
5
2C7
100
AcDbEntity
8
8_roof
6
ByLayer
62
256
370
-1
100
AcDbLine
10
4308
20
5325
11
4308
21
2350
0
LINE
5
2C8
100
AcDbEntity
8
8_roof
6
ByLayer
62
256
370
-1
100
AcDbLine
10
4353
20
5325
11
4353
21
2350
0
LINE
5
2C9
100
AcDbEntity
8
8_roof
6
ByLayer
62
256
370
-1
100
AcDbLine
10
4398
20
5325
11
4398
21
2350
0
LINE
5
2CA
100
AcDbEntity
8
8_roof
6
ByLayer
62
256
370
-1
100
AcDbLine
10
4443
20
5325
11
4443
21
2350
0
LINE
5
2CB
100
AcDbEntity
8
8_roof
6
ByLayer
62
256
370
-1
100
AcDbLine
10
4488
20
5325
11
4488
21
2350
0
LINE
5
2CC
100
AcDbEntity
8
8_roof
6
ByLayer
62
256
370
-1
100
AcDbLine
10
4533
20
5325
11
4533
21
2350
0
LINE
5
2CD
100
AcDbEntity
8
8_roof
6
ByLayer
62
256
370
-1
100
AcDbLine
10
4578
20
5325
11
4578
21
2350
0
LINE
5
2CE
100
AcDbEntity
8
8_roof
6
ByLayer
62
256
370
-1
100
AcDbLine
10
4623
20
5325
11
4623
21
2350
0
LINE
5
2CF
100
AcDbEntity
8
8_roof
6
ByLayer
62
256
370
-1
100
AcDbLine
10
4668
20
5325
11
4668
21
2350
0
LINE
5
2D0
100
AcDbEntity
8
8_roof
6
ByLayer
62
256
370
-1
100
AcDbLine
10
4713
20
5325
11
4713
21
2350
0
LINE
5
2D1
100
AcDbEntity
8
8_roof
6
ByLayer
62
256
370
-1
100
AcDbLine
10
4663
20
5325
11
5503
21
5325
0
LINE
5
2D2
100
AcDbEntity
8
8_roof
6
ByLayer
62
256
370
-1
100
AcDbLine
10
5503
20
5325
11
5503
21
2350
0
LINE
5
2D3
100
AcDbEntity
8
8_roof
6
ByLayer
62
256
370
-1
100
AcDbLine
10
4663
20
5325
11
4663
21
2350
0
LINE
5
2D4
100
AcDbEntity
8
8_roof
6
ByLayer
62
256
370
-1
100
AcDbLine
10
4708
20
5325
11
4708
21
2350
0
LINE
5
2D5
100
AcDbEntity
8
8_roof
6
ByLayer
62
256
370
-1
100
AcDbLine
10
4753
20
5325
11
4753
21
2350
0
LINE
5
2D6
100
AcDbEntity
8
8_roof
6
ByLayer
62
256
370
-1
100
AcDbLine
10
4798
20
5325
11
4798
21
2350
0
LINE
5
2D7
100
AcDbEntity
8
8_roof
6
ByLayer
62
256
370
-1
100
AcDbLine
10
4843
20
5325
11
4843
21
2350
0
LINE
5
2D8
100
AcDbEntity
8
8_roof
6
ByLayer
62
256
370
-1
100
AcDbLine
10
4888
20
5325
11
4888
21
2350
0
LINE
5
2D9
100
AcDbEntity
8
8_roof
6
ByLayer
62
256
370
-1
100
AcDbLine
10
4933
20
5325
11
4933
21
2350
0
LINE
5
2DA
100
AcDbEntity
8
8_roof
6
ByLayer
62
256
370
-1
100
AcDbLine
10
4978
20
5325
11
4978
21
2350
0
LINE
5
2DB
100
AcDbEntity
8
8_roof
6
ByLayer
62
256
370
-1
100
AcDbLine
10
5023
20
5325
11
5023
21
2350
0
LINE
5
2DC
100
AcDbEntity
8
8_roof
6
ByLayer
62
256
370
-1
100
AcDbLine
10
5068
20
5325
11
5068
21
2350
0
LINE
5
2DD
100
AcDbEntity
8
8_roof
6
ByLayer
62
256
370
-1
100
AcDbLine
10
5113
20
5325
11
5113
21
2350
0
LINE
5
2DE
100
AcDbEntity
8
8_roof
6
ByLayer
62
256
370
-1
100
AcDbLine
10
5158
20
5325
11
5158
21
2350
0
LINE
5
2DF
100
AcDbEntity
8
8_roof
6
ByLayer
62
256
370
-1
100
AcDbLine
10
5203
20
5325
11
5203
21
2350
0
LINE
5
2E0
100
AcDbEntity
8
8_roof
6
ByLayer
62
256
370
-1
100
AcDbLine
10
5248
20
5325
11
5248
21
2350
0
LINE
5
2E1
100
AcDbEntity
8
8_roof
6
ByLayer
62
256
370
-1
100
AcDbLine
10
5293
20
5325
11
5293
21
2350
0
LINE
5
2E2
100
AcDbEntity
8
8_roof
6
ByLayer
62
256
370
-1
100
AcDbLine
10
5338
20
5325
11
5338
21
2350
0
LINE
5
2E3
100
AcDbEntity
8
8_roof
6
ByLayer
62
256
370
-1
100
AcDbLine
10
5383
20
5325
11
5383
21
2350
0
LINE
5
2E4
100
AcDbEntity
8
8_roof
6
ByLayer
62
256
370
-1
100
AcDbLine
10
5428
20
5325
11
5428
21
2350
0
LINE
5
2E5
100
AcDbEntity
8
8_roof
6
ByLayer
62
256
370
-1
100
AcDbLine
10
5473
20
5325
11
5473
21
2350
0
LINE
5
2E6
100
AcDbEntity
8
8_roof
6
ByLayer
62
256
370
-1
100
AcDbLine
10
5423
20
5325
11
6263
21
5325
0
LINE
5
2E7
100
AcDbEntity
8
8_roof
6
ByLayer
62
256
370
-1
100
AcDbLine
10
6263
20
5325
11
6263
21
2350
0
LINE
5
2E8
100
AcDbEntity
8
8_roof
6
ByLayer
62
256
370
-1
100
AcDbLine
10
5423
20
5325
11
5423
21
2350
0
LINE
5
2E9
100
AcDbEntity
8
8_roof
6
ByLayer
62
256
370
-1
100
AcDbLine
10
5468
20
5325
11
5468
21
2350
0
LINE
5
2EA
100
AcDbEntity
8
8_roof
6
ByLayer
62
256
370
-1
100
AcDbLine
10
5513
20
5325
11
5513
21
2350
0
LINE
5
2EB
100
AcDbEntity
8
8_roof
6
ByLayer
62
256
370
-1
100
AcDbLine
10
5558
20
5325
11
5558
21
2350
0
LINE
5
2EC
100
AcDbEntity
8
8_roof
6
ByLayer
62
256
370
-1
100
AcDbLine
10
5603
20
5325
11
5603
21
2350
0
LINE
5
2ED
100
AcDbEntity
8
8_roof
6
ByLayer
62
256
370
-1
100
AcDbLine
10
5648
20
5325
11
5648
21
2350
0
LINE
5
2EE
100
AcDbEntity
8
8_roof
6
ByLayer
62
256
370
-1
100
AcDbLine
10
5693
20
5325
11
5693
21
2350
0
LINE
5
2EF
100
AcDbEntity
8
8_roof
6
ByLayer
62
256
370
-1
100
AcDbLine
10
5738
20
5325
11
5738
21
2350
0
LINE
5
2F0
100
AcDbEntity
8
8_roof
6
ByLayer
62
256
370
-1
100
AcDbLine
10
5783
20
5325
11
5783
21
2350
0
LINE
5
2F1
100
AcDbEntity
8
8_roof
6
ByLayer
62
256
370
-1
100
AcDbLine
10
5828
20
5325
11
5828
21
2350
0
LINE
5
2F2
100
AcDbEntity
8
8_roof
6
ByLayer
62
256
370
-1
100
AcDbLine
10
5873
20
5325
11
5873
21
2350
0
LINE
5
2F3
100
AcDbEntity
8
8_roof
6
ByLayer
62
256
370
-1
100
AcDbLine
10
5918
20
5325
11
5918
21
2350
0
LINE
5
2F4
100
AcDbEntity
8
8_roof
6
ByLayer
62
256
370
-1
100
AcDbLine
10
5963
20
5325
11
5963
21
2350
0
LINE
5
2F5
100
AcDbEntity
8
8_roof
6
ByLayer
62
256
370
-1
100
AcDbLine
10
6008
20
5325
11
6008
21
2350
0
LINE
5
2F6
100
AcDbEntity
8
8_roof
6
ByLayer
62
256
370
-1
100
AcDbLine
10
6053
20
5325
11
6053
21
2350
0
LINE
5
2F7
100
AcDbEntity
8
8_roof
6
ByLayer
62
256
370
-1
100
AcDbLine
10
6098
20
5325
11
6098
21
2350
0
LINE
5
2F8
100
AcDbEntity
8
8_roof
6
ByLayer
62
256
370
-1
100
AcDbLine
10
6143
20
5325
11
6143
21
2350
0
LINE
5
2F9
100
AcDbEntity
8
8_roof
6
ByLayer
62
256
370
-1
100
AcDbLine
10
6188
20
5325
11
6188
21
2350
0
LINE
5
2FA
100
AcDbEntity
8
8_roof
6
ByLayer
62
256
370
-1
100
AcDbLine
10
6233
20
5325
11
6233
21
2350
0
LINE
5
2FB
100
AcDbEntity
8
8_roof
6
ByLayer
62
256
370
-1
100
AcDbLine
10
6183
20
5325
11
7023
21
5325
0
LINE
5
2FC
100
AcDbEntity
8
8_roof
6
ByLayer
62
256
370
-1
100
AcDbLine
10
7023
20
5325
11
7023
21
2350
0
LINE
5
2FD
100
AcDbEntity
8
8_roof
6
ByLayer
62
256
370
-1
100
AcDbLine
10
6183
20
5325
11
6183
21
2350
0
LINE
5
2FE
100
AcDbEntity
8
8_roof
6
ByLayer
62
256
370
-1
100
AcDbLine
10
6228
20
5325
11
6228
21
2350
0
LINE
5
2FF
100
AcDbEntity
8
8_roof
6
ByLayer
62
256
370
-1
100
AcDbLine
10
6273
20
5325
11
6273
21
2350
0
LINE
5
300
100
AcDbEntity
8
8_roof
6
ByLayer
62
256
370
-1
100
AcDbLine
10
6318
20
5325
11
6318
21
2350
0
LINE
5
301
100
AcDbEntity
8
8_roof
6
ByLayer
62
256
370
-1
100
AcDbLine
10
6363
20
5325
11
6363
21
2350
0
LINE
5
302
100
AcDbEntity
8
8_roof
6
ByLayer
62
256
370
-1
100
AcDbLine
10
6408
20
5325
11
6408
21
2350
0
LINE
5
303
100
AcDbEntity
8
8_roof
6
ByLayer
62
256
370
-1
100
AcDbLine
10
6453
20
5325
11
6453
21
2350
0
LINE
5
304
100
AcDbEntity
8
8_roof
6
ByLayer
62
256
370
-1
100
AcDbLine
10
6498
20
5325
11
6498
21
2350
0
LINE
5
305
100
AcDbEntity
8
8_roof
6
ByLayer
62
256
370
-1
100
AcDbLine
10
6543
20
5325
11
6543
21
2350
0
LINE
5
306
100
AcDbEntity
8
8_roof
6
ByLayer
62
256
370
-1
100
AcDbLine
10
6588
20
5325
11
6588
21
2350
0
LINE
5
307
100
AcDbEntity
8
8_roof
6
ByLayer
62
256
370
-1
100
AcDbLine
10
6633
20
5325
11
6633
21
2350
0
LINE
5
308
100
AcDbEntity
8
8_roof
6
ByLayer
62
256
370
-1
100
AcDbLine
10
6678
20
5325
11
6678
21
2350
0
LINE
5
309
100
AcDbEntity
8
8_roof
6
ByLayer
62
256
370
-1
100
AcDbLine
10
6723
20
5325
11
6723
21
2350
0
LINE
5
30A
100
AcDbEntity
8
8_roof
6
ByLayer
62
256
370
-1
100
AcDbLine
10
6768
20
5325
11
6768
21
2350
0
LINE
5
30B
100
AcDbEntity
8
8_roof
6
ByLayer
62
256
370
-1
100
AcDbLine
10
6813
20
5325
11
6813
21
2350
0
LINE
5
30C
100
AcDbEntity
8
8_roof
6
ByLayer
62
256
370
-1
100
AcDbLine
10
6858
20
5325
11
6858
21
2350
0
LINE
5
30D
100
AcDbEntity
8
8_roof
6
ByLayer
62
256
370
-1
100
AcDbLine
10
6903
20
5325
11
6903
21
2350
0
LINE
5
30E
100
AcDbEntity
8
8_roof
6
ByLayer
62
256
370
-1
100
AcDbLine
10
6948
20
5325
11
6948
21
2350
0
LINE
5
30F
100
AcDbEntity
8
8_roof
6
ByLayer
62
256
370
-1
100
AcDbLine
10
6993
20
5325
11
6993
21
2350
0
LINE
5
310
100
AcDbEntity
8
8_roof
6
ByLayer
62
256
370
-1
100
AcDbLine
10
6943
20
5325
11
7783
21
5325
0
LINE
5
311
100
AcDbEntity
8
8_roof
6
ByLayer
62
256
370
-1
100
AcDbLine
10
7783
20
5325
11
7783
21
2350
0
LINE
5
312
100
AcDbEntity
8
8_roof
6
ByLayer
62
256
370
-1
100
AcDbLine
10
6943
20
5325
11
6943
21
2350
0
LINE
5
313
100
AcDbEntity
8
8_roof
6
ByLayer
62
256
370
-1
100
AcDbLine
10
6988
20
5325
11
6988
21
2350
0
LINE
5
314
100
AcDbEntity
8
8_roof
6
ByLayer
62
256
370
-1
100
AcDbLine
10
7033
20
5325
11
7033
21
2350
0
LINE
5
315
100
AcDbEntity
8
8_roof
6
ByLayer
62
256
370
-1
100
AcDbLine
10
7078
20
5325
11
7078
21
2350
0
LINE
5
316
100
AcDbEntity
8
8_roof
6
ByLayer
62
256
370
-1
100
AcDbLine
10
7123
20
5325
11
7123
21
2350
0
LINE
5
317
100
AcDbEntity
8
8_roof
6
ByLayer
62
256
370
-1
100
AcDbLine
10
7168
20
5325
11
7168
21
2350
0
LINE
5
318
100
AcDbEntity
8
8_roof
6
ByLayer
62
256
370
-1
100
AcDbLine
10
7213
20
5325
11
7213
21
2350
0
LINE
5
319
100
AcDbEntity
8
8_roof
6
ByLayer
62
256
370
-1
100
AcDbLine
10
7258
20
5325
11
7258
21
2350
0
LINE
5
31A
100
AcDbEntity
8
8_roof
6
ByLayer
62
256
370
-1
100
AcDbLine
10
7303
20
5325
11
7303
21
2350
0
LINE
5
31B
100
AcDbEntity
8
8_roof
6
ByLayer
62
256
370
-1
100
AcDbLine
10
7348
20
5325
11
7348
21
2350
0
LINE
5
31C
100
AcDbEntity
8
8_roof
6
ByLayer
62
256
370
-1
100
AcDbLine
10
7393
20
5325
11
7393
21
2350
0
LINE
5
31D
100
AcDbEntity
8
8_roof
6
ByLayer
62
256
370
-1
100
AcDbLine
10
7438
20
5325
11
7438
21
2350
0
LINE
5
31E
100
AcDbEntity
8
8_roof
6
ByLayer
62
256
370
-1
100
AcDbLine
10
7483
20
5325
11
7483
21
2350
0
LINE
5
31F
100
AcDbEntity
8
8_roof
6
ByLayer
62
256
370
-1
100
AcDbLine
10
7528
20
5325
11
7528
21
2350
0
LINE
5
320
100
AcDbEntity
8
8_roof
6
ByLayer
62
256
370
-1
100
AcDbLine
10
7573
20
5325
11
7573
21
2350
0
LINE
5
321
100
AcDbEntity
8
8_roof
6
ByLayer
62
256
370
-1
100
AcDbLine
10
7618
20
5325
11
7618
21
2350
0
LINE
5
322
100
AcDbEntity
8
8_roof
6
ByLayer
62
256
370
-1
100
AcDbLine
10
7663
20
5325
11
7663
21
2350
0
LINE
5
323
100
AcDbEntity
8
8_roof
6
ByLayer
62
256
370
-1
100
AcDbLine
10
7708
20
5325
11
7708
21
2350
0
LINE
5
324
100
AcDbEntity
8
8_roof
6
ByLayer
62
256
370
-1
100
AcDbLine
10
7753
20
5325
11
7753
21
2350
0
LINE
5
325
100
AcDbEntity
8
8_roof
6
ByLayer
62
256
370
-1
100
AcDbLine
10
863
20
2350
11
7783
21
2350
0
MTEXT
5
326
100
AcDbEntity
8
6_roof_rack_d
6
ByLayer
62
256
370
-1
100
AcDbMText
10
7000
20
1060
30
0
40
128
41
949.333333333
71
1
72
1
1
ROOF RACK
7
standard
210
0
220
0
230
1
50
0
73
2
44
1
0
LINE
5
327
100
AcDbEntity
8
7_roof_rafter_d
6
ByLayer
62
256
370
-1
100
AcDbLine
10
3319.74029541
20
0
11
5060
21
0
0
LINE
5
328
100
AcDbEntity
8
7_roof_rafter_d
6
ByLayer
62
256
370
-1
100
AcDbLine
10
5060
20
660.0033
11
3319.74029541
21
660.0033
0
LINE
5
329
100
AcDbEntity
8
7_roof_rafter_d
6
ByLayer
62
256
370
-1
100
AcDbLine
10
3319.74029541
20
550.00275
11
5060
21
550.00275
0
LINE
5
32A
100
AcDbEntity
8
7_roof_rafter_d
6
ByLayer
62
256
370
-1
100
AcDbLine
10
5060
20
440.0022
11
3319.74029541
21
440.0022
0
LINE
5
32B
100
AcDbEntity
8
7_roof_rafter_d
6
ByLayer
62
256
370
-1
100
AcDbLine
10
3319.74029541
20
330.00165
11
5060
21
330.00165
0
LINE
5
32C
100
AcDbEntity
8
7_roof_rafter_d
6
ByLayer
62
256
370
-1
100
AcDbLine
10
3319.74029541
20
220.0011
11
5060
21
220.0011
0
LINE
5
32D
100
AcDbEntity
8
7_roof_rafter_d
6
ByLayer
62
256
370
-1
100
AcDbLine
10
3319.74029541
20
110.00055
11
5060
21
110.00055
0
LINE
5
32E
100
AcDbEntity
8
7_roof_rafter_d
6
ByLayer
62
256
370
-1
100
AcDbLine
10
3319.74029541
20
0
11
3319.74029541
21
660.0033
0
LINE
5
32F
100
AcDbEntity
8
7_roof_rafter_d
6
ByLayer
62
256
370
-1
100
AcDbLine
10
5060
20
0
11
5060
21
660.0033
0
MTEXT
5
330
100
AcDbEntity
8
7_roof_rafter_d
6
ByLayer
62
256
370
-1
100
AcDbMText
10
4380
20
1070.0033
30
0
40
56
41
280
71
1
72
1
1
NUMBER
7
standard
210
0
220
0
230
1
50
0
73
2
44
1
0
MTEXT
5
331
100
AcDbEntity
8
7_roof_rafter_d
6
ByLayer
62
256
370
-1
100
AcDbMText
10
4070
20
1070.0033
30
0
40
56
41
267.555555556
71
1
72
1
1
LENGTH
7
standard
210
0
220
0
230
1
50
0
73
2
44
1
0
MTEXT
5
332
100
AcDbEntity
8
7_roof_rafter_d
6
ByLayer
62
256
370
-1
100
AcDbMText
10
3760
20
1070.0033
30
0
40
56
41
261.333333333
71
1
72
1
1
DEGREE
7
standard
210
0
220
0
230
1
50
0
73
2
44
1
0
MTEXT
5
333
100
AcDbEntity
8
7_roof_rafter_d
6
ByLayer
62
256
370
-1
100
AcDbMText
10
3340
20
1070.0033
30
0
40
56
41
367.111099239
71
1
72
1
1
DEMINSION
7
standard
210
0
220
0
230
1
50
0
73
2
44
1
0
LINE
5
334
100
AcDbEntity
8
7_roof_rafter_d
6
ByLayer
62
256
370
-1
100
AcDbLine
10
5060
20
1100.0055
11
3319.74029541
21
1100.0055
0
LINE
5
335
100
AcDbEntity
8
7_roof_rafter_d
6
ByLayer
62
256
370
-1
100
AcDbLine
10
3319.74029541
20
990.00495
11
5060
21
990.00495
0
LINE
5
336
100
AcDbEntity
8
7_roof_rafter_d
6
ByLayer
62
256
370
-1
100
AcDbLine
10
5060
20
880.0044
11
3319.74029541
21
880.0044
0
LINE
5
337
100
AcDbEntity
8
7_roof_rafter_d
6
ByLayer
62
256
370
-1
100
AcDbLine
10
3319.74029541
20
770.00385
11
5060
21
770.00385
0
LINE
5
338
100
AcDbEntity
8
7_roof_rafter_d
6
ByLayer
62
256
370
-1
100
AcDbLine
10
3319.74029541
20
440.0022
11
3319.74029541
21
1100.0055
0
LINE
5
339
100
AcDbEntity
8
7_roof_rafter_d
6
ByLayer
62
256
370
-1
100
AcDbLine
10
5060
20
440.0022
11
5060
21
1100.0055
0
LINE
5
33A
100
AcDbEntity
8
7_roof_rafter_d
6
ByLayer
62
256
370
-1
100
AcDbLine
10
3729.24804688
20
0
11
3729.24804688
21
1100.0055
0
LINE
5
33B
100
AcDbEntity
8
7_roof_rafter_d
6
ByLayer
62
256
370
-1
100
AcDbLine
10
4047.62766421
20
0.00440000000003
11
4047.62766421
21
1100.0055
0
LINE
5
33C
100
AcDbEntity
8
7_roof_rafter_d
6
ByLayer
62
256
370
-1
100
AcDbLine
10
4360.23386538
20
0.00220000000002
11
4360.23386538
21
1100.0055
0
LINE
5
33D
100
AcDbEntity
8
7_roof_rafter_d
6
ByLayer
62
256
370
-1
100
AcDbLine
10
4679.27195132
20
0
11
4679.27195132
21
1100.0055
0
MTEXT
5
33E
100
AcDbEntity
8
7_roof_rafter_d
6
ByLayer
62
256
370
-1
100
AcDbMText
10
4700
20
1070.0033
30
0
40
56
41
273.777765906
71
1
72
1
1
OTHERS
7
standard
210
0
220
0
230
1
50
0
73
2
44
1
0
MTEXT
5
33F
100
AcDbEntity
8
7_roof_rafter_d
6
ByLayer
62
256
370
-1
100
AcDbMText
10
3400
20
860.00275
30
0
40
56
41
199.111111111
71
1
72
1
1
70x35
7
standard
210
0
220
0
230
1
50
0
73
2
44
1
0
MTEXT
5
340
100
AcDbEntity
8
7_roof_rafter_d
6
ByLayer
62
256
370
-1
100
AcDbMText
10
3400
20
750.0022
30
0
40
56
41
199.111111111
71
1
72
1
1
70x35
7
standard
210
0
220
0
230
1
50
0
73
2
44
1
0
MTEXT
5
341
100
AcDbEntity
8
7_roof_rafter_d
6
ByLayer
62
256
370
-1
100
AcDbMText
10
3410
20
640.00165
30
0
40
64
41
163.555555556
71
1
72
1
1
ZINC
7
standard
210
0
220
0
230
1
50
0
73
2
44
1
0
MTEXT
5
342
100
AcDbEntity
8
7_roof_rafter_d
6
ByLayer
62
256
370
-1
100
AcDbMText
10
4100
20
640.00165
30
0
40
56
41
118.222222222
71
1
72
1
1
840
7
standard
210
0
220
0
230
1
50
0
73
2
44
1
0
MTEXT
5
343
100
AcDbEntity
8
7_roof_rafter_d
6
ByLayer
62
256
370
-1
100
AcDbMText
10
8300
20
270
30
0
40
128
41
56.8888888889
71
1
72
1
1
5
7
standard
210
0
220
0
230
1
50
0
73
2
44
1
0
LINE
5
344
100
AcDbEntity
8
6_roof_rack_d
6
BORDER2
62
256
370
-1
100
AcDbLine
10
455
20
3864
11
255
21
3864
0
LINE
5
345
100
AcDbEntity
8
6_roof_rack_d
6
BORDER2
62
256
370
-1
100
AcDbLine
10
8090
20
3864
11
8340
21
3864
0
MTEXT
5
346
100
AcDbEntity
8
6_roof_rack_d
6
ByLayer
62
256
370
-1
100
AcDbMText
10
3400
20
750.0022
30
0
40
56
41
199.111111111
71
1
72
1
1
70x35
7
standard
210
0
220
0
230
1
50
0
73
2
44
1
0
MTEXT
5
347
100
AcDbEntity
8
6_roof_rack_d
6
ByLayer
62
256
370
-1
100
AcDbMText
10
4450
20
750.0022
30
0
40
56
41
31.1111111111
71
1
72
1
1
4
7
standard
210
0
220
0
230
1
50
0
73
2
44
1
0
MTEXT
5
348
100
AcDbEntity
8
6_roof_rack_d
6
ByLayer
62
256
370
-1
100
AcDbMText
10
4100
20
640.00165
30
0
40
56
41
155.555555556
71
1
72
1
1
2395
7
standard
210
0
220
0
230
1
50
0
73
2
44
1
0
MTEXT
5
349
100
AcDbEntity
8
6_roof_rack_d
6
ByLayer
62
256
370
-1
100
AcDbMText
10
3780
20
750.0022
30
0
40
56
41
230.22221035
71
1
72
1
1
NSTRU
7
standard
210
0
220
0
230
1
50
0
73
2
44
1
0
MTEXT
5
34A
100
AcDbEntity
8
6_roof_rack_d
6
ByLayer
62
256
370
-1
100
AcDbMText
10
3780
20
640.00165
30
0
40
56
41
230.22221035
71
1
72
1
1
NSTRU
7
standard
210
0
220
0
230
1
50
0
73
2
44
1
0
MTEXT
5
34B
100
AcDbEntity
8
6_roof_rack_d
6
ByLayer
62
256
370
-1
100
AcDbMText
10
3400
20
640.00165
30
0
40
56
41
199.111111111
71
1
72
1
1
70x35
7
standard
210
0
220
0
230
1
50
0
73
2
44
1
0
MTEXT
5
34C
100
AcDbEntity
8
6_roof_rack_d
6
ByLayer
62
256
370
-1
100
AcDbMText
10
4100
20
750.0022
30
0
40
56
41
143.111111111
71
1
72
1
1
1920
7
standard
210
0
220
0
230
1
50
0
73
2
44
1
0
MTEXT
5
34D
100
AcDbEntity
8
6_roof_rack_d
6
ByLayer
62
256
370
-1
100
AcDbMText
10
4450
20
640.00165
30
0
40
56
41
24.8888888889
71
1
72
1
1
2
7
standard
210
0
220
0
230
1
50
0
73
2
44
1
0
MTEXT
5
34E
100
AcDbEntity
8
7_roof_rafter_d
6
ByLayer
62
256
370
-1
100
AcDbMText
10
5200
20
860
30
0
40
64
41
508.444444444
71
1
72
1
1
28 Feb 2017
7
standard
210
0
220
0
230
1
50
0
73
2
44
1
0
MTEXT
5
34F
100
AcDbEntity
8
6_roof_rack_d
6
ByLayer
62
256
370
-1
100
AcDbMText
10
5200
20
860
30
0
40
64
41
508.444444444
71
1
72
1
1
28 Feb 2017
7
standard
210
0
220
0
230
1
50
0
73
2
44
1
0
LINE
5
350
100
AcDbEntity
8
6_roof_rack_d
6
BORDER2
62
256
370
-1
100
AcDbLine
10
7783
20
5832.5727107
11
7783
21
5125
0
LINE
5
351
100
AcDbEntity
8
6_roof_rack_d
6
BORDER2
62
256
370
-1
100
AcDbLine
10
863
20
5832.5727107
11
863
21
5125
0
DIMENSION
5
352
100
AcDbEntity
8
6_roof_rack_d
6
ByLayer
62
256
370
-1
100
AcDbDimension
2
*D13
10
3125
20
5400
30
0
11
1994
21
5452
31
0
70
32
71
5
72
0
3
Standard
53
0
210
0
220
0
230
1
100
AcDbAlignedDimension
13
863
23
5456.37954098
33
0
14
3125
24
5456.37954098
34
0
100
AcDbRotatedDimension
0
DIMENSION
5
353
100
AcDbEntity
8
6_roof_rack_d
6
ByLayer
62
256
370
-1
100
AcDbDimension
2
*D14
10
7783
20
5400
30
0
11
6651.5
21
5452
31
0
70
32
71
5
72
0
3
Standard
53
0
210
0
220
0
230
1
100
AcDbAlignedDimension
13
5520
23
5442.69297022
33
0
14
7783
24
5442.69297022
34
0
100
AcDbRotatedDimension
0
LINE
5
354
100
AcDbEntity
8
7_roof_rafter
6
ByLayer
62
256
370
-1
100
AcDbLine
10
1205
20
5325
11
1205
21
2350
0
LINE
5
355
100
AcDbEntity
8
7_roof_rafter
6
ByLayer
62
256
370
-1
100
AcDbLine
10
1250
20
5325
11
1250
21
2350
0
LINE
5
356
100
AcDbEntity
8
7_roof_rafter
6
ByLayer
62
256
370
-1
100
AcDbLine
10
1205
20
5325
11
1250
21
5325
0
LINE
5
357
100
AcDbEntity
8
7_roof_rafter
6
ByLayer
62
256
370
-1
100
AcDbLine
10
1205
20
2350
11
1250
21
2350
0
LINE
5
358
100
AcDbEntity
8
7_roof_rafter
6
ByLayer
62
256
370
-1
100
AcDbLine
10
7396
20
5325
11
7396
21
2350
0
LINE
5
359
100
AcDbEntity
8
7_roof_rafter
6
ByLayer
62
256
370
-1
100
AcDbLine
10
7441
20
5325
11
7441
21
2350
0
LINE
5
35A
100
AcDbEntity
8
7_roof_rafter
6
ByLayer
62
256
370
-1
100
AcDbLine
10
7441
20
5025
11
7738
21
5025
0
LINE
5
35B
100
AcDbEntity
8
7_roof_rafter
6
ByLayer
62
256
370
-1
100
AcDbLine
10
7441
20
4935
11
7738
21
4935
0
LINE
5
35C
100
AcDbEntity
8
7_roof_rafter
6
ByLayer
62
256
370
-1
100
AcDbLine
10
7441
20
2795
11
7738
21
2795
0
LINE
5
35D
100
AcDbEntity
8
7_roof_rafter
6
ByLayer
62
256
370
-1
100
AcDbLine
10
7441
20
2705
11
7738
21
2705
0
LINE
5
35E
100
AcDbEntity
8
7_roof_rafter
6
ByLayer
62
256
370
-1
100
AcDbLine
10
7396
20
2350
11
7441
21
2350
0
LINE
5
35F
100
AcDbEntity
8
7_roof_rafter
6
ByLayer
62
256
370
-1
100
AcDbLine
10
7396
20
5325
11
7441
21
5325
0
LINE
5
360
100
AcDbEntity
8
7_roof_rafter
6
ByLayer
62
256
370
-1
100
AcDbLine
10
908
20
5025
11
1205
21
5025
0
LINE
5
361
100
AcDbEntity
8
7_roof_rafter
6
ByLayer
62
256
370
-1
100
AcDbLine
10
908
20
4935
11
1205
21
4935
0
LINE
5
362
100
AcDbEntity
8
7_roof_rafter
6
ByLayer
62
256
370
-1
100
AcDbLine
10
908
20
2795
11
1205
21
2795
0
LINE
5
363
100
AcDbEntity
8
7_roof_rafter
6
ByLayer
62
256
370
-1
100
AcDbLine
10
908
20
2705
11
1205
21
2705
0
CIRCLE
5
364
100
AcDbEntity
8
7_roof_rafter_d
6
ByLayer
62
256
370
-1
100
AcDbCircle
10
3125
20
5913.19528818
40
80.622577483
0
MTEXT
5
365
100
AcDbEntity
8
7_roof_rafter_d
6
ByLayer
62
256
370
-1
100
AcDbMText
10
3109
20
5950.19528818
30
0
40
72
41
40
71
1
72
1
1
4
7
standard
210
0
220
0
230
1
50
0
73
2
44
1
0
LINE
5
366
100
AcDbEntity
8
7_roof_rafter_d
6
BORDER2
62
256
370
-1
100
AcDbLine
10
3125
20
5832.5727107
11
3125
21
5125
0
CIRCLE
5
367
100
AcDbEntity
8
7_roof_rafter_d
6
ByLayer
62
256
370
-1
100
AcDbCircle
10
5520
20
5913.19528818
40
80.622577483
0
LINE
5
368
100
AcDbEntity
8
7_roof_rafter_d
6
BORDER2
62
256
370
-1
100
AcDbLine
10
5520
20
5832.5727107
11
5520
21
5125
0
MTEXT
5
369
100
AcDbEntity
8
7_roof_rafter_d
6
ByLayer
62
256
370
-1
100
AcDbMText
10
5504
20
5950.19528818
30
0
40
72
41
32
71
1
72
1
1
8
7
standard
210
0
220
0
230
1
50
0
73
2
44
1
0
CIRCLE
5
36A
100
AcDbEntity
8
7_roof_rafter_d
6
ByLayer
62
256
370
-1
100
AcDbCircle
10
8420.62257745
20
2812.00213484
40
80.622577483
0
CIRCLE
5
36B
100
AcDbEntity
8
7_roof_rafter_d
6
ByLayer
62
256
370
-1
100
AcDbCircle
10
174.377422545
20
2811.99786516
40
80.622577483
0
MTEXT
5
36C
100
AcDbEntity
8
7_roof_rafter_d
6
ByLayer
62
256
370
-1
100
AcDbMText
10
158.377422545
20
2848.99786516
30
0
40
72
41
48
71
1
72
1
1
A
7
standard
210
0
220
0
230
1
50
0
73
2
44
1
0
MTEXT
5
36D
100
AcDbEntity
8
7_roof_rafter_d
6
ByLayer
62
256
370
-1
100
AcDbMText
10
8394.62257745
20
2849.00213484
30
0
40
72
41
48
71
1
72
1
1
A
7
standard
210
0
220
0
230
1
50
360
73
2
44
1
0
LINE
5
36E
100
AcDbEntity
8
7_roof_rafter_d
6
BORDER2
62
256
370
-1
100
AcDbLine
10
7490
20
2812
11
8340
21
2812
0
LINE
5
36F
100
AcDbEntity
8
7_roof_rafter_d
6
BORDER2
62
256
370
-1
100
AcDbLine
10
1155
20
2812
11
255
21
2812
0
CIRCLE
5
370
100
AcDbEntity
8
7_roof_rafter_d
6
ByLayer
62
256
370
-1
100
AcDbCircle
10
8420.62257745
20
3864.00213484
40
80.622577483
0
CIRCLE
5
371
100
AcDbEntity
8
7_roof_rafter_d
6
ByLayer
62
256
370
-1
100
AcDbCircle
10
174.377422545
20
3863.99786516
40
80.622577483
0
LINE
5
372
100
AcDbEntity
8
7_roof_rafter_d
6
BORDER2
62
256
370
-1
100
AcDbLine
10
7490
20
3864
11
8340
21
3864
0
LINE
5
373
100
AcDbEntity
8
7_roof_rafter_d
6
BORDER2
62
256
370
-1
100
AcDbLine
10
1155
20
3864
11
255
21
3864
0
CIRCLE
5
374
100
AcDbEntity
8
7_roof_rafter_d
6
ByLayer
62
256
370
-1
100
AcDbCircle
10
8420.62257745
20
4917.00213484
40
80.622577483
0
CIRCLE
5
375
100
AcDbEntity
8
7_roof_rafter_d
6
ByLayer
62
256
370
-1
100
AcDbCircle
10
174.377422545
20
4916.99786516
40
80.622577483
0
LINE
5
376
100
AcDbEntity
8
7_roof_rafter_d
6
BORDER2
62
256
370
-1
100
AcDbLine
10
7490
20
4917
11
8340
21
4917
0
LINE
5
377
100
AcDbEntity
8
7_roof_rafter_d
6
BORDER2
62
256
370
-1
100
AcDbLine
10
1155
20
4917
11
255
21
4917
0
MTEXT
5
378
100
AcDbEntity
8
7_roof_rafter_d
6
ByLayer
62
256
370
-1
100
AcDbMText
10
158.377422545
20
3900.99786516
30
0
40
72
41
32
71
1
72
1
1
C
7
standard
210
0
220
0
230
1
50
0
73
2
44
1
0
MTEXT
5
379
100
AcDbEntity
8
7_roof_rafter_d
6
ByLayer
62
256
370
-1
100
AcDbMText
10
158.377422545
20
4953.99786516
30
0
40
72
41
32
71
1
72
1
1
E
7
standard
210
0
220
0
230
1
50
0
73
2
44
1
0
MTEXT
5
37A
100
AcDbEntity
8
7_roof_rafter_d
6
ByLayer
62
256
370
-1
100
AcDbMText
10
8394.62257745
20
3901.00213484
30
0
40
72
41
32
71
1
72
1
1
C
7
standard
210
0
220
0
230
1
50
360
73
2
44
1
0
MTEXT
5
37B
100
AcDbEntity
8
7_roof_rafter_d
6
ByLayer
62
256
370
-1
100
AcDbMText
10
8394.62257745
20
4954.00213484
30
0
40
72
41
32
71
1
72
1
1
E
7
standard
210
0
220
0
230
1
50
360
73
2
44
1
0
LINE
5
37C
100
AcDbEntity
8
7_roof_rafter_d
6
BORDER2
62
256
370
-1
100
AcDbLine
10
7490
20
2795
11
8290
21
2795
0
LINE
5
37D
100
AcDbEntity
8
7_roof_rafter_d
6
BORDER2
62
256
370
-1
100
AcDbLine
10
7490
20
4935
11
8290
21
4935
0
DIMENSION
5
37E
100
AcDbEntity
8
7_roof_rafter_d
6
ByLayer
62
256
370
-1
100
AcDbDimension
2
*D15
10
8000
20
2795
30
0
11
7948
21
3865
31
0
70
32
71
5
72
0
3
Standard
53
0
210
0
220
0
230
1
100
AcDbAlignedDimension
13
7948.25609773
23
4935
33
0
14
7948.25609773
24
2795
34
0
50
90
100
AcDbRotatedDimension
0
LINE
5
37F
100
AcDbEntity
8
7_roof_rafter_d
6
BORDER2
62
256
370
-1
100
AcDbLine
10
355
20
2795
11
1155
21
2795
0
LINE
5
380
100
AcDbEntity
8
7_roof_rafter_d
6
BORDER2
62
256
370
-1
100
AcDbLine
10
355
20
4935
11
1155
21
4935
0
DIMENSION
5
381
100
AcDbEntity
8
7_roof_rafter_d
6
ByLayer
62
256
370
-1
100
AcDbDimension
2
*D16
10
600
20
2795
30
0
11
548
21
3865
31
0
70
32
71
5
72
0
3
Standard
53
0
210
0
220
0
230
1
100
AcDbAlignedDimension
13
564.614310861
23
4935
33
0
14
552.972778678
24
2795
34
0
50
90
100
AcDbRotatedDimension
0
CIRCLE
5
382
100
AcDbEntity
8
7_roof_rafter_d
6
ByLayer
62
256
370
-1
100
AcDbCircle
10
1222
20
5913.19528818
40
80.622577483
0
MTEXT
5
383
100
AcDbEntity
8
7_roof_rafter_d
6
ByLayer
62
256
370
-1
100
AcDbMText
10
1206
20
5950.19528818
30
0
40
72
41
16
71
1
72
1
1
1
7
standard
210
0
220
0
230
1
50
0
73
2
44
1
0
LINE
5
384
100
AcDbEntity
8
7_roof_rafter_d
6
BORDER2
62
256
370
-1
100
AcDbLine
10
1222
20
5832.5727107
11
1222
21
5125
0
CIRCLE
5
385
100
AcDbEntity
8
7_roof_rafter_d
6
ByLayer
62
256
370
-1
100
AcDbCircle
10
7422
20
5913.19528818
40
80.622577483
0
LINE
5
386
100
AcDbEntity
8
7_roof_rafter_d
6
BORDER2
62
256
370
-1
100
AcDbLine
10
7422
20
5832.5727107
11
7422
21
5125
0
MTEXT
5
387
100
AcDbEntity
8
7_roof_rafter_d
6
ByLayer
62
256
370
-1
100
AcDbMText
10
7390
20
5953.19528818
30
0
40
72
41
56
71
1
72
1
1
11
7
standard
210
0
220
0
230
1
50
0
73
2
44
1
0
CIRCLE
5
388
100
AcDbEntity
8
7_roof_rafter_d
6
ByLayer
62
256
370
-1
100
AcDbCircle
10
3125
20
1305
40
80.622577483
0
MTEXT
5
389
100
AcDbEntity
8
7_roof_rafter_d
6
ByLayer
62
256
370
-1
100
AcDbMText
10
3109
20
1342
30
0
40
72
41
40
71
1
72
1
1
4
7
standard
210
0
220
0
230
1
50
0
73
2
44
1
0
LINE
5
38A
100
AcDbEntity
8
7_roof_rafter_d
6
BORDER2
62
256
370
-1
100
AcDbLine
10
3125
20
2605
11
3125
21
1385.62257748
0
CIRCLE
5
38B
100
AcDbEntity
8
7_roof_rafter_d
6
ByLayer
62
256
370
-1
100
AcDbCircle
10
5520
20
1305
40
80.622577483
0
LINE
5
38C
100
AcDbEntity
8
7_roof_rafter_d
6
BORDER2
62
256
370
-1
100
AcDbLine
10
5520
20
2605
11
5520
21
1385.62257748
0
MTEXT
5
38D
100
AcDbEntity
8
7_roof_rafter_d
6
ByLayer
62
256
370
-1
100
AcDbMText
10
5504
20
1342
30
0
40
72
41
32
71
1
72
1
1
8
7
standard
210
0
220
0
230
1
50
0
73
2
44
1
0
CIRCLE
5
38E
100
AcDbEntity
8
7_roof_rafter_d
6
ByLayer
62
256
370
-1
100
AcDbCircle
10
1222
20
1305
40
80.622577483
0
MTEXT
5
38F
100
AcDbEntity
8
7_roof_rafter_d
6
ByLayer
62
256
370
-1
100
AcDbMText
10
1206
20
1342
30
0
40
72
41
16
71
1
72
1
1
1
7
standard
210
0
220
0
230
1
50
0
73
2
44
1
0
LINE
5
390
100
AcDbEntity
8
7_roof_rafter_d
6
BORDER2
62
256
370
-1
100
AcDbLine
10
1222
20
2605
11
1222
21
1385.62257748
0
CIRCLE
5
391
100
AcDbEntity
8
7_roof_rafter_d
6
ByLayer
62
256
370
-1
100
AcDbCircle
10
7422
20
1305
40
80.622577483
0
LINE
5
392
100
AcDbEntity
8
7_roof_rafter_d
6
BORDER2
62
256
370
-1
100
AcDbLine
10
7422
20
2605
11
7422
21
1385.62257748
0
MTEXT
5
393
100
AcDbEntity
8
7_roof_rafter_d
6
ByLayer
62
256
370
-1
100
AcDbMText
10
7390
20
1345
30
0
40
72
41
56
71
1
72
1
1
11
7
standard
210
0
220
0
230
1
50
0
73
2
44
1
0
DIMENSION
5
394
100
AcDbEntity
8
7_roof_rafter_d
6
ByLayer
62
256
370
-1
100
AcDbDimension
2
*D17
10
3125
20
1900
30
0
11
2173.5
21
1952
31
0
70
32
71
5
3
Standard
53
0
210
0
220
0
230
1
100
AcDbAlignedDimension
13
1222
23
1904.25453184
33
0
14
3125
24
1921.3075575
34
0
100
AcDbRotatedDimension
0
DIMENSION
5
395
100
AcDbEntity
8
7_roof_rafter_d
6
ByLayer
62
256
370
-1
100
AcDbDimension
2
*D18
10
5520
20
1900
30
0
11
4322.5
21
1952
31
0
70
32
71
5
3
Standard
53
0
210
0
220
0
230
1
100
AcDbAlignedDimension
13
3125
23
1944.04492504
33
0
14
5520
24
1944.04492504
34
0
100
AcDbRotatedDimension
0
DIMENSION
5
396
100
AcDbEntity
8
7_roof_rafter_d
6
ByLayer
62
256
370
-1
100
AcDbDimension
2
*D19
10
7422
20
1900
30
0
11
6471
21
1952
31
0
70
32
71
5
3
Standard
53
0
210
0
220
0
230
1
100
AcDbAlignedDimension
13
5520
23
1944.04492504
33
0
14
7422
24
1938.36058316
34
0
100
AcDbRotatedDimension
0
MTEXT
5
397
100
AcDbEntity
8
7_roof_rafter_d
6
ByLayer
62
256
370
-1
100
AcDbMText
10
7000
20
1060
30
0
40
128
41
1162.66666667
71
1
72
1
1
ROOF RAFTER
7
standard
210
0
220
0
230
1
50
0
73
2
44
1
0
DIMENSION
5
398
100
AcDbEntity
8
7_roof_rafter_d
6
ByLayer
62
256
370
-1
100
AcDbDimension
2
*D20
10
3125
20
5700
30
0
11
2173.5
21
5752
31
0
70
32
71
5
3
Standard
53
0
210
0
220
0
230
1
100
AcDbAlignedDimension
13
1222
23
5693.39241592
33
0
14
3125
24
5687.70807403
34
0
100
AcDbRotatedDimension
0
DIMENSION
5
399
100
AcDbEntity
8
7_roof_rafter_d
6
ByLayer
62
256
370
-1
100
AcDbDimension
2
*D21
10
5520
20
5700
30
0
11
4322.5
21
5752
31
0
70
32
71
5
3
Standard
53
0
210
0
220
0
230
1
100
AcDbAlignedDimension
13
3125
23
5693.39241592
33
0
14
5520
24
5699.0767578
34
0
100
AcDbRotatedDimension
0
DIMENSION
5
39A
100
AcDbEntity
8
7_roof_rafter_d
6
ByLayer
62
256
370
-1
100
AcDbDimension
2
*D22
10
7422
20
5700
30
0
11
6471
21
5752
31
0
70
32
71
5
3
Standard
53
0
210
0
220
0
230
1
100
AcDbAlignedDimension
13
5520
23
5670.65504837
33
0
14
7422
24
5676.33939026
34
0
100
AcDbRotatedDimension
0
LINE
5
39B
100
AcDbEntity
8
7_roof_rafter_d
6
BORDER2
62
256
370
-1
100
AcDbLine
10
1205
20
5582.5727107
11
1205
21
5375
0
LINE
5
39C
100
AcDbEntity
8
7_roof_rafter_d
6
BORDER2
62
256
370
-1
100
AcDbLine
10
1250
20
5582.5727107
11
1250
21
5375
0
LINE
5
39D
100
AcDbEntity
8
7_roof_rafter_d
6
BORDER2
62
256
370
-1
100
AcDbLine
10
7396
20
5582.5727107
11
7396
21
5375
0
LINE
5
39E
100
AcDbEntity
8
7_roof_rafter_d
6
BORDER2
62
256
370
-1
100
AcDbLine
10
7441
20
5582.5727107
11
7441
21
5375
0
LINE
5
39F
100
AcDbEntity
8
7_roof_rafter
6
ByLayer
62
256
370
-1
100
AcDbLine
10
1721
20
5325
11
1721
21
2350
0
LINE
5
3A0
100
AcDbEntity
8
7_roof_rafter
6
ByLayer
62
256
370
-1
100
AcDbLine
10
1766
20
5325
11
1766
21
2350
0
LINE
5
3A1
100
AcDbEntity
8
7_roof_rafter
6
ByLayer
62
256
370
-1
100
AcDbLine
10
1721
20
5325
11
1766
21
5325
0
LINE
5
3A2
100
AcDbEntity
8
7_roof_rafter
6
ByLayer
62
256
370
-1
100
AcDbLine
10
1721
20
2350
11
1766
21
2350
0
LINE
5
3A3
100
AcDbEntity
8
7_roof_rafter_d
6
BORDER2
62
256
370
-1
100
AcDbLine
10
1721
20
5582.5727107
11
1721
21
5375
0
LINE
5
3A4
100
AcDbEntity
8
7_roof_rafter_d
6
BORDER2
62
256
370
-1
100
AcDbLine
10
1766
20
5582.5727107
11
1766
21
5375
0
LINE
5
3A5
100
AcDbEntity
8
7_roof_rafter
6
ByLayer
62
256
370
-1
100
AcDbLine
10
2237
20
5325
11
2237
21
2350
0
LINE
5
3A6
100
AcDbEntity
8
7_roof_rafter
6
ByLayer
62
256
370
-1
100
AcDbLine
10
2282
20
5325
11
2282
21
2350
0
LINE
5
3A7
100
AcDbEntity
8
7_roof_rafter
6
ByLayer
62
256
370
-1
100
AcDbLine
10
2237
20
5325
11
2282
21
5325
0
LINE
5
3A8
100
AcDbEntity
8
7_roof_rafter
6
ByLayer
62
256
370
-1
100
AcDbLine
10
2237
20
2350
11
2282
21
2350
0
LINE
5
3A9
100
AcDbEntity
8
7_roof_rafter_d
6
BORDER2
62
256
370
-1
100
AcDbLine
10
2237
20
5582.5727107
11
2237
21
5375
0
LINE
5
3AA
100
AcDbEntity
8
7_roof_rafter_d
6
BORDER2
62
256
370
-1
100
AcDbLine
10
2282
20
5582.5727107
11
2282
21
5375
0
LINE
5
3AB
100
AcDbEntity
8
7_roof_rafter
6
ByLayer
62
256
370
-1
100
AcDbLine
10
2753
20
5325
11
2753
21
2350
0
LINE
5
3AC
100
AcDbEntity
8
7_roof_rafter
6
ByLayer
62
256
370
-1
100
AcDbLine
10
2798
20
5325
11
2798
21
2350
0
LINE
5
3AD
100
AcDbEntity
8
7_roof_rafter
6
ByLayer
62
256
370
-1
100
AcDbLine
10
2753
20
5325
11
2798
21
5325
0
LINE
5
3AE
100
AcDbEntity
8
7_roof_rafter
6
ByLayer
62
256
370
-1
100
AcDbLine
10
2753
20
2350
11
2798
21
2350
0
LINE
5
3AF
100
AcDbEntity
8
7_roof_rafter_d
6
BORDER2
62
256
370
-1
100
AcDbLine
10
2753
20
5582.5727107
11
2753
21
5375
0
LINE
5
3B0
100
AcDbEntity
8
7_roof_rafter_d
6
BORDER2
62
256
370
-1
100
AcDbLine
10
2798
20
5582.5727107
11
2798
21
5375
0
LINE
5
3B1
100
AcDbEntity
8
7_roof_rafter
6
ByLayer
62
256
370
-1
100
AcDbLine
10
3269
20
5325
11
3269
21
2350
0
LINE
5
3B2
100
AcDbEntity
8
7_roof_rafter
6
ByLayer
62
256
370
-1
100
AcDbLine
10
3314
20
5325
11
3314
21
2350
0
LINE
5
3B3
100
AcDbEntity
8
7_roof_rafter
6
ByLayer
62
256
370
-1
100
AcDbLine
10
3269
20
5325
11
3314
21
5325
0
LINE
5
3B4
100
AcDbEntity
8
7_roof_rafter
6
ByLayer
62
256
370
-1
100
AcDbLine
10
3269
20
2350
11
3314
21
2350
0
LINE
5
3B5
100
AcDbEntity
8
7_roof_rafter_d
6
BORDER2
62
256
370
-1
100
AcDbLine
10
3269
20
5582.5727107
11
3269
21
5375
0
LINE
5
3B6
100
AcDbEntity
8
7_roof_rafter_d
6
BORDER2
62
256
370
-1
100
AcDbLine
10
3314
20
5582.5727107
11
3314
21
5375
0
LINE
5
3B7
100
AcDbEntity
8
7_roof_rafter
6
ByLayer
62
256
370
-1
100
AcDbLine
10
3785
20
5325
11
3785
21
2350
0
LINE
5
3B8
100
AcDbEntity
8
7_roof_rafter
6
ByLayer
62
256
370
-1
100
AcDbLine
10
3830
20
5325
11
3830
21
2350
0
LINE
5
3B9
100
AcDbEntity
8
7_roof_rafter
6
ByLayer
62
256
370
-1
100
AcDbLine
10
3785
20
5325
11
3830
21
5325
0
LINE
5
3BA
100
AcDbEntity
8
7_roof_rafter
6
ByLayer
62
256
370
-1
100
AcDbLine
10
3785
20
2350
11
3830
21
2350
0
LINE
5
3BB
100
AcDbEntity
8
7_roof_rafter_d
6
BORDER2
62
256
370
-1
100
AcDbLine
10
3785
20
5582.5727107
11
3785
21
5375
0
LINE
5
3BC
100
AcDbEntity
8
7_roof_rafter_d
6
BORDER2
62
256
370
-1
100
AcDbLine
10
3830
20
5582.5727107
11
3830
21
5375
0
LINE
5
3BD
100
AcDbEntity
8
7_roof_rafter
6
ByLayer
62
256
370
-1
100
AcDbLine
10
4301
20
5325
11
4301
21
2350
0
LINE
5
3BE
100
AcDbEntity
8
7_roof_rafter
6
ByLayer
62
256
370
-1
100
AcDbLine
10
4346
20
5325
11
4346
21
2350
0
LINE
5
3BF
100
AcDbEntity
8
7_roof_rafter
6
ByLayer
62
256
370
-1
100
AcDbLine
10
4301
20
5325
11
4346
21
5325
0
LINE
5
3C0
100
AcDbEntity
8
7_roof_rafter
6
ByLayer
62
256
370
-1
100
AcDbLine
10
4301
20
2350
11
4346
21
2350
0
LINE
5
3C1
100
AcDbEntity
8
7_roof_rafter_d
6
BORDER2
62
256
370
-1
100
AcDbLine
10
4301
20
5582.5727107
11
4301
21
5375
0
LINE
5
3C2
100
AcDbEntity
8
7_roof_rafter_d
6
BORDER2
62
256
370
-1
100
AcDbLine
10
4346
20
5582.5727107
11
4346
21
5375
0
LINE
5
3C3
100
AcDbEntity
8
7_roof_rafter
6
ByLayer
62
256
370
-1
100
AcDbLine
10
4817
20
5325
11
4817
21
2350
0
LINE
5
3C4
100
AcDbEntity
8
7_roof_rafter
6
ByLayer
62
256
370
-1
100
AcDbLine
10
4862
20
5325
11
4862
21
2350
0
LINE
5
3C5
100
AcDbEntity
8
7_roof_rafter
6
ByLayer
62
256
370
-1
100
AcDbLine
10
4817
20
5325
11
4862
21
5325
0
LINE
5
3C6
100
AcDbEntity
8
7_roof_rafter
6
ByLayer
62
256
370
-1
100
AcDbLine
10
4817
20
2350
11
4862
21
2350
0
LINE
5
3C7
100
AcDbEntity
8
7_roof_rafter_d
6
BORDER2
62
256
370
-1
100
AcDbLine
10
4817
20
5582.5727107
11
4817
21
5375
0
LINE
5
3C8
100
AcDbEntity
8
7_roof_rafter_d
6
BORDER2
62
256
370
-1
100
AcDbLine
10
4862
20
5582.5727107
11
4862
21
5375
0
LINE
5
3C9
100
AcDbEntity
8
7_roof_rafter
6
ByLayer
62
256
370
-1
100
AcDbLine
10
5333
20
5325
11
5333
21
2350
0
LINE
5
3CA
100
AcDbEntity
8
7_roof_rafter
6
ByLayer
62
256
370
-1
100
AcDbLine
10
5378
20
5325
11
5378
21
2350
0
LINE
5
3CB
100
AcDbEntity
8
7_roof_rafter
6
ByLayer
62
256
370
-1
100
AcDbLine
10
5333
20
5325
11
5378
21
5325
0
LINE
5
3CC
100
AcDbEntity
8
7_roof_rafter
6
ByLayer
62
256
370
-1
100
AcDbLine
10
5333
20
2350
11
5378
21
2350
0
LINE
5
3CD
100
AcDbEntity
8
7_roof_rafter_d
6
BORDER2
62
256
370
-1
100
AcDbLine
10
5333
20
5582.5727107
11
5333
21
5375
0
LINE
5
3CE
100
AcDbEntity
8
7_roof_rafter_d
6
BORDER2
62
256
370
-1
100
AcDbLine
10
5378
20
5582.5727107
11
5378
21
5375
0
LINE
5
3CF
100
AcDbEntity
8
7_roof_rafter
6
ByLayer
62
256
370
-1
100
AcDbLine
10
5849
20
5325
11
5849
21
2350
0
LINE
5
3D0
100
AcDbEntity
8
7_roof_rafter
6
ByLayer
62
256
370
-1
100
AcDbLine
10
5894
20
5325
11
5894
21
2350
0
LINE
5
3D1
100
AcDbEntity
8
7_roof_rafter
6
ByLayer
62
256
370
-1
100
AcDbLine
10
5849
20
5325
11
5894
21
5325
0
LINE
5
3D2
100
AcDbEntity
8
7_roof_rafter
6
ByLayer
62
256
370
-1
100
AcDbLine
10
5849
20
2350
11
5894
21
2350
0
LINE
5
3D3
100
AcDbEntity
8
7_roof_rafter_d
6
BORDER2
62
256
370
-1
100
AcDbLine
10
5849
20
5582.5727107
11
5849
21
5375
0
LINE
5
3D4
100
AcDbEntity
8
7_roof_rafter_d
6
BORDER2
62
256
370
-1
100
AcDbLine
10
5894
20
5582.5727107
11
5894
21
5375
0
LINE
5
3D5
100
AcDbEntity
8
7_roof_rafter
6
ByLayer
62
256
370
-1
100
AcDbLine
10
6365
20
5325
11
6365
21
2350
0
LINE
5
3D6
100
AcDbEntity
8
7_roof_rafter
6
ByLayer
62
256
370
-1
100
AcDbLine
10
6410
20
5325
11
6410
21
2350
0
LINE
5
3D7
100
AcDbEntity
8
7_roof_rafter
6
ByLayer
62
256
370
-1
100
AcDbLine
10
6365
20
5325
11
6410
21
5325
0
LINE
5
3D8
100
AcDbEntity
8
7_roof_rafter
6
ByLayer
62
256
370
-1
100
AcDbLine
10
6365
20
2350
11
6410
21
2350
0
LINE
5
3D9
100
AcDbEntity
8
7_roof_rafter_d
6
BORDER2
62
256
370
-1
100
AcDbLine
10
6365
20
5582.5727107
11
6365
21
5375
0
LINE
5
3DA
100
AcDbEntity
8
7_roof_rafter_d
6
BORDER2
62
256
370
-1
100
AcDbLine
10
6410
20
5582.5727107
11
6410
21
5375
0
LINE
5
3DB
100
AcDbEntity
8
7_roof_rafter
6
ByLayer
62
256
370
-1
100
AcDbLine
10
6881
20
5325
11
6881
21
2350
0
LINE
5
3DC
100
AcDbEntity
8
7_roof_rafter
6
ByLayer
62
256
370
-1
100
AcDbLine
10
6926
20
5325
11
6926
21
2350
0
LINE
5
3DD
100
AcDbEntity
8
7_roof_rafter
6
ByLayer
62
256
370
-1
100
AcDbLine
10
6881
20
5325
11
6926
21
5325
0
LINE
5
3DE
100
AcDbEntity
8
7_roof_rafter
6
ByLayer
62
256
370
-1
100
AcDbLine
10
6881
20
2350
11
6926
21
2350
0
LINE
5
3DF
100
AcDbEntity
8
7_roof_rafter_d
6
BORDER2
62
256
370
-1
100
AcDbLine
10
6881
20
5582.5727107
11
6881
21
5375
0
LINE
5
3E0
100
AcDbEntity
8
7_roof_rafter_d
6
BORDER2
62
256
370
-1
100
AcDbLine
10
6926
20
5582.5727107
11
6926
21
5375
0
DIMENSION
5
3E1
100
AcDbEntity
8
7_roof_rafter_d
6
ByLayer
62
256
370
-1
100
AcDbDimension
2
*D23
10
1721
20
5500
30
0
11
1485.5
21
5552
31
0
70
32
71
5
72
0
3
Standard
53
0
210
0
220
0
230
1
100
AcDbAlignedDimension
13
1250
23
5464.97394465
33
0
14
1721
24
5464.97394465
34
0
100
AcDbRotatedDimension
0
DIMENSION
5
3E2
100
AcDbEntity
8
7_roof_rafter_d
6
ByLayer
62
256
370
-1
100
AcDbDimension
2
*D24
10
2237
20
5500
30
0
11
2001.5
21
5552
31
0
70
32
71
5
72
0
3
Standard
53
0
210
0
220
0
230
1
100
AcDbAlignedDimension
13
1766
23
5458.74250344
33
0
14
2237
24
5461.85822404
34
0
100
AcDbRotatedDimension
0
DIMENSION
5
3E3
100
AcDbEntity
8
7_roof_rafter_d
6
ByLayer
62
256
370
-1
100
AcDbDimension
2
*D25
10
7396
20
5500
30
0
11
7161
21
5552
31
0
70
32
71
5
72
0
3
Standard
53
0
210
0
220
0
230
1
100
AcDbAlignedDimension
13
6926
23
5460.30036374
33
0
14
7396
24
5464.1950145
34
0
100
AcDbRotatedDimension
0
DIMENSION
5
3E4
100
AcDbEntity
8
7_roof_rafter_d
6
ByLayer
62
256
370
-1
100
AcDbDimension
2
*D26
10
6410
20
5500
30
0
11
6645.5
21
5552
31
0
70
32
71
5
72
0
3
Standard
53
0
210
0
220
0
230
1
100
AcDbAlignedDimension
13
6881
23
5460.30036374
33
0
14
6410
24
5460.30036374
34
0
100
AcDbRotatedDimension
0
DIMENSION
5
3E5
100
AcDbEntity
8
7_roof_rafter_d
6
ByLayer
62
256
370
-1
100
AcDbDimension
2
*D27
10
5894
20
5500
30
0
11
6129.5
21
5552
31
0
70
32
71
5
72
0
3
Standard
53
0
210
0
220
0
230
1
100
AcDbAlignedDimension
13
6365
23
5460.30036374
33
0
14
5894
24
5456.40571298
34
0
100
AcDbRotatedDimension
0
DIMENSION
5
3E6
100
AcDbEntity
8
7_roof_rafter_d
6
ByLayer
62
256
370
-1
100
AcDbDimension
2
*D28
10
5378
20
5500
30
0
11
5613.5
21
5552
31
0
70
32
71
5
72
0
3
Standard
53
0
210
0
220
0
230
1
100
AcDbAlignedDimension
13
5849
23
5468.08966526
33
0
14
5378
24
5460.30036374
34
0
100
AcDbRotatedDimension
0
DIMENSION
5
3E7
100
AcDbEntity
8
7_roof_rafter_d
6
ByLayer
62
256
370
-1
100
AcDbDimension
2
*D29
10
2753
20
5500
30
0
11
2517.5
21
5552
31
0
70
32
71
5
72
0
3
Standard
53
0
210
0
220
0
230
1
100
AcDbAlignedDimension
13
2282
23
5448.61641146
33
0
14
2753
24
5452.51106222
34
0
100
AcDbRotatedDimension
0
DIMENSION
5
3E8
100
AcDbEntity
8
7_roof_rafter_d
6
ByLayer
62
256
370
-1
100
AcDbDimension
2
*D30
10
3269
20
5500
30
0
11
3033.5
21
5552
31
0
70
32
71
5
72
0
3
Standard
53
0
210
0
220
0
230
1
100
AcDbAlignedDimension
13
2798
23
5448.61641146
33
0
14
3269
24
5440.82710995
34
0
100
AcDbRotatedDimension
0
DIMENSION
5
3E9
100
AcDbEntity
8
7_roof_rafter_d
6
ByLayer
62
256
370
-1
100
AcDbDimension
2
*D31
10
3785
20
5500
30
0
11
3549.5
21
5552
31
0
70
32
71
5
72
0
3
Standard
53
0
210
0
220
0
230
1
100
AcDbAlignedDimension
13
3314
23
5444.7217607
33
0
14
3785
24
5452.51106222
34
0
100
AcDbRotatedDimension
0
DIMENSION
5
3EA
100
AcDbEntity
8
7_roof_rafter_d
6
ByLayer
62
256
370
-1
100
AcDbDimension
2
*D32
10
4301
20
5500
30
0
11
4065.5
21
5552
31
0
70
32
71
5
72
0
3
Standard
53
0
210
0
220
0
230
1
100
AcDbAlignedDimension
13
3830
23
5452.51106222
33
0
14
4301
24
5452.51106222
34
0
100
AcDbRotatedDimension
0
DIMENSION
5
3EB
100
AcDbEntity
8
7_roof_rafter_d
6
ByLayer
62
256
370
-1
100
AcDbDimension
2
*D33
10
4817
20
5500
30
0
11
4581.5
21
5552
31
0
70
32
71
5
72
0
3
Standard
53
0
210
0
220
0
230
1
100
AcDbAlignedDimension
13
4346
23
5460.30036374
33
0
14
4817
24
5452.51106222
34
0
100
AcDbRotatedDimension
0
DIMENSION
5
3EC
100
AcDbEntity
8
7_roof_rafter_d
6
ByLayer
62
256
370
-1
100
AcDbDimension
2
*D34
10
5333
20
5500
30
0
11
5097.5
21
5552
31
0
70
32
71
5
72
0
3
Standard
53
0
210
0
220
0
230
1
100
AcDbAlignedDimension
13
4862
23
5464.1950145
33
0
14
5333
24
5468.08966526
34
0
100
AcDbRotatedDimension
0
LINE
5
3ED
100
AcDbEntity
8
7_roof_rafter
6
ByLayer
62
256
370
-1
100
AcDbLine
10
1250
20
5025
11
1721
21
5025
0
LINE
5
3EE
100
AcDbEntity
8
7_roof_rafter
6
ByLayer
62
256
370
-1
100
AcDbLine
10
1250
20
4935
11
1721
21
4935
0
LINE
5
3EF
100
AcDbEntity
8
7_roof_rafter
6
ByLayer
62
256
370
-1
100
AcDbLine
10
1250
20
2795
11
1721
21
2795
0
LINE
5
3F0
100
AcDbEntity
8
7_roof_rafter
6
ByLayer
62
256
370
-1
100
AcDbLine
10
1250
20
2705
11
1721
21
2705
0
LINE
5
3F1
100
AcDbEntity
8
7_roof_rafter
6
ByLayer
62
256
370
-1
100
AcDbLine
10
1767
20
5025
11
2237
21
5025
0
LINE
5
3F2
100
AcDbEntity
8
7_roof_rafter
6
ByLayer
62
256
370
-1
100
AcDbLine
10
1767
20
4935
11
2237
21
4935
0
LINE
5
3F3
100
AcDbEntity
8
7_roof_rafter
6
ByLayer
62
256
370
-1
100
AcDbLine
10
1767
20
2795
11
2237
21
2795
0
LINE
5
3F4
100
AcDbEntity
8
7_roof_rafter
6
ByLayer
62
256
370
-1
100
AcDbLine
10
1767
20
2705
11
2237
21
2705
0
LINE
5
3F5
100
AcDbEntity
8
7_roof_rafter
6
ByLayer
62
256
370
-1
100
AcDbLine
10
6926
20
5025
11
7396
21
5025
0
LINE
5
3F6
100
AcDbEntity
8
7_roof_rafter
6
ByLayer
62
256
370
-1
100
AcDbLine
10
6926
20
4935
11
7396
21
4935
0
LINE
5
3F7
100
AcDbEntity
8
7_roof_rafter
6
ByLayer
62
256
370
-1
100
AcDbLine
10
6926
20
2795
11
7396
21
2795
0
LINE
5
3F8
100
AcDbEntity
8
7_roof_rafter
6
ByLayer
62
256
370
-1
100
AcDbLine
10
6926
20
2705
11
7396
21
2705
0
LINE
5
3F9
100
AcDbEntity
8
7_roof_rafter
6
ByLayer
62
256
370
-1
100
AcDbLine
10
6410
20
2795
11
6881
21
2795
0
LINE
5
3FA
100
AcDbEntity
8
7_roof_rafter
6
ByLayer
62
256
370
-1
100
AcDbLine
10
6410
20
2705
11
6881
21
2705
0
LINE
5
3FB
100
AcDbEntity
8
7_roof_rafter
6
ByLayer
62
256
370
-1
100
AcDbLine
10
6410
20
4935
11
6881
21
4935
0
LINE
5
3FC
100
AcDbEntity
8
7_roof_rafter
6
ByLayer
62
256
370
-1
100
AcDbLine
10
6410
20
5025
11
6881
21
5025
0
LINE
5
3FD
100
AcDbEntity
8
7_roof_rafter
6
ByLayer
62
256
370
-1
100
AcDbLine
10
5894
20
5025
11
6365
21
5025
0
LINE
5
3FE
100
AcDbEntity
8
7_roof_rafter
6
ByLayer
62
256
370
-1
100
AcDbLine
10
5894
20
4935
11
6365
21
4935
0
LINE
5
3FF
100
AcDbEntity
8
7_roof_rafter
6
ByLayer
62
256
370
-1
100
AcDbLine
10
5894
20
2795
11
6365
21
2795
0
LINE
5
400
100
AcDbEntity
8
7_roof_rafter
6
ByLayer
62
256
370
-1
100
AcDbLine
10
5894
20
2705
11
6365
21
2705
0
LINE
5
401
100
AcDbEntity
8
7_roof_rafter
6
ByLayer
62
256
370
-1
100
AcDbLine
10
5378
20
5025
11
5849
21
5025
0
LINE
5
402
100
AcDbEntity
8
7_roof_rafter
6
ByLayer
62
256
370
-1
100
AcDbLine
10
5378
20
4935
11
5849
21
4935
0
LINE
5
403
100
AcDbEntity
8
7_roof_rafter
6
ByLayer
62
256
370
-1
100
AcDbLine
10
5378
20
2795
11
5849
21
2795
0
LINE
5
404
100
AcDbEntity
8
7_roof_rafter
6
ByLayer
62
256
370
-1
100
AcDbLine
10
5378
20
2705
11
5849
21
2705
0
LINE
5
405
100
AcDbEntity
8
7_roof_rafter
6
ByLayer
62
256
370
-1
100
AcDbLine
10
4862
20
5025
11
5333
21
5025
0
LINE
5
406
100
AcDbEntity
8
7_roof_rafter
6
ByLayer
62
256
370
-1
100
AcDbLine
10
4862
20
4935
11
5333
21
4935
0
LINE
5
407
100
AcDbEntity
8
7_roof_rafter
6
ByLayer
62
256
370
-1
100
AcDbLine
10
4862
20
2795
11
5333
21
2795
0
LINE
5
408
100
AcDbEntity
8
7_roof_rafter
6
ByLayer
62
256
370
-1
100
AcDbLine
10
4862
20
2705
11
5333
21
2705
0
LINE
5
409
100
AcDbEntity
8
7_roof_rafter
6
ByLayer
62
256
370
-1
100
AcDbLine
10
4346
20
5025
11
4817
21
5025
0
LINE
5
40A
100
AcDbEntity
8
7_roof_rafter
6
ByLayer
62
256
370
-1
100
AcDbLine
10
4346
20
4935
11
4817
21
4935
0
LINE
5
40B
100
AcDbEntity
8
7_roof_rafter
6
ByLayer
62
256
370
-1
100
AcDbLine
10
4346
20
2795
11
4817
21
2795
0
LINE
5
40C
100
AcDbEntity
8
7_roof_rafter
6
ByLayer
62
256
370
-1
100
AcDbLine
10
4346
20
2705
11
4817
21
2705
0
LINE
5
40D
100
AcDbEntity
8
7_roof_rafter
6
ByLayer
62
256
370
-1
100
AcDbLine
10
3830
20
5025
11
4301
21
5025
0
LINE
5
40E
100
AcDbEntity
8
7_roof_rafter
6
ByLayer
62
256
370
-1
100
AcDbLine
10
3830
20
4935
11
4301
21
4935
0
LINE
5
40F
100
AcDbEntity
8
7_roof_rafter
6
ByLayer
62
256
370
-1
100
AcDbLine
10
3830
20
2795
11
4301
21
2795
0
LINE
5
410
100
AcDbEntity
8
7_roof_rafter
6
ByLayer
62
256
370
-1
100
AcDbLine
10
3830
20
2705
11
4301
21
2705
0
LINE
5
411
100
AcDbEntity
8
7_roof_rafter
6
ByLayer
62
256
370
-1
100
AcDbLine
10
3785
20
5025
11
3314
21
5025
0
LINE
5
412
100
AcDbEntity
8
7_roof_rafter
6
ByLayer
62
256
370
-1
100
AcDbLine
10
3314
20
4935
11
3785
21
4935
0
LINE
5
413
100
AcDbEntity
8
7_roof_rafter
6
ByLayer
62
256
370
-1
100
AcDbLine
10
3314
20
2795
11
3785
21
2795
0
LINE
5
414
100
AcDbEntity
8
7_roof_rafter
6
ByLayer
62
256
370
-1
100
AcDbLine
10
3314
20
2705
11
3785
21
2705
0
LINE
5
415
100
AcDbEntity
8
7_roof_rafter
6
ByLayer
62
256
370
-1
100
AcDbLine
10
2798
20
5025
11
3269
21
5025
0
LINE
5
416
100
AcDbEntity
8
7_roof_rafter
6
ByLayer
62
256
370
-1
100
AcDbLine
10
2798
20
4935
11
3269
21
4935
0
LINE
5
417
100
AcDbEntity
8
7_roof_rafter
6
ByLayer
62
256
370
-1
100
AcDbLine
10
2798
20
2795
11
3269
21
2795
0
LINE
5
418
100
AcDbEntity
8
7_roof_rafter
6
ByLayer
62
256
370
-1
100
AcDbLine
10
2798
20
2705
11
3269
21
2705
0
LINE
5
419
100
AcDbEntity
8
7_roof_rafter
6
ByLayer
62
256
370
-1
100
AcDbLine
10
2282
20
5025
11
2753
21
5025
0
LINE
5
41A
100
AcDbEntity
8
7_roof_rafter
6
ByLayer
62
256
370
-1
100
AcDbLine
10
2282
20
4935
11
2753
21
4935
0
LINE
5
41B
100
AcDbEntity
8
7_roof_rafter
6
ByLayer
62
256
370
-1
100
AcDbLine
10
2282
20
2795
11
2753
21
2795
0
LINE
5
41C
100
AcDbEntity
8
7_roof_rafter
6
ByLayer
62
256
370
-1
100
AcDbLine
10
2282
20
2705
11
2753
21
2705
0
MTEXT
5
41D
100
AcDbEntity
8
7_roof_rafter_d
6
ByLayer
62
256
370
-1
100
AcDbMText
10
5200
20
750.0022
30
0
40
64
41
508.444444444
71
1
72
1
1
10 Aug 2017
7
standard
210
0
220
0
230
1
50
0
73
2
44
1
0
MTEXT
5
41E
100
AcDbEntity
8
7_roof_rafter_d
6
ByLayer
62
256
370
-1
100
AcDbMText
10
3400
20
970.0033
30
0
40
56
41
205.333333333
71
1
72
1
1
70x45
7
standard
210
0
220
0
230
1
50
0
73
2
44
1
0
MTEXT
5
41F
100
AcDbEntity
8
7_roof_rafter_d
6
ByLayer
62
256
370
-1
100
AcDbMText
10
4100
20
970.0033
30
0
40
56
41
155.555555556
71
1
72
1
1
2800
7
standard
210
0
220
0
230
1
50
0
73
2
44
1
0
MTEXT
5
420
100
AcDbEntity
8
7_roof_rafter_d
6
ByLayer
62
256
370
-1
100
AcDbMText
10
4450
20
970.0033
30
0
40
56
41
56
71
1
72
1
1
15
7
standard
210
0
220
0
230
1
50
0
73
2
44
1
0
MTEXT
5
421
100
AcDbEntity
8
7_roof_rafter_d
6
ByLayer
62
256
370
-1
100
AcDbMText
10
4100
20
860.00275
30
0
40
56
41
105.777777778
71
1
72
1
1
471
7
standard
210
0
220
0
230
1
50
0
73
2
44
1
0
MTEXT
5
422
100
AcDbEntity
8
7_roof_rafter_d
6
ByLayer
62
256
370
-1
100
AcDbMText
10
4450
20
860.00275
30
0
40
56
41
74.6666666667
71
1
72
1
1
48
7
standard
210
0
220
0
230
1
50
0
73
2
44
1
0
MTEXT
5
423
100
AcDbEntity
8
7_roof_rafter_d
6
ByLayer
62
256
370
-1
100
AcDbMText
10
4100
20
750.0022
30
0
40
56
41
112
71
1
72
1
1
297
7
standard
210
0
220
0
230
1
50
0
73
2
44
1
0
MTEXT
5
424
100
AcDbEntity
8
7_roof_rafter_d
6
ByLayer
62
256
370
-1
100
AcDbMText
10
4450
20
750.0022
30
0
40
56
41
24.8888888889
71
1
72
1
1
8
7
standard
210
0
220
0
230
1
50
0
73
2
44
1
0
MTEXT
5
425
100
AcDbEntity
8
7_roof_rafter_d
6
ByLayer
62
256
370
-1
100
AcDbMText
10
4450
20
640.00165
30
0
40
56
41
56
71
1
72
1
1
10
7
standard
210
0
220
0
230
1
50
0
73
2
44
1
0
MTEXT
5
426
100
AcDbEntity
8
7_roof_rafter_d
6
ByLayer
62
256
370
-1
100
AcDbMText
10
3820
20
640.00165
30
0
40
56
41
155.555555556
71
1
72
1
1
2800
7
standard
210
0
220
0
230
1
50
0
73
2
44
1
0
MTEXT
5
427
100
AcDbEntity
8
7_roof_rafter_d
6
ByLayer
62
256
370
-1
100
AcDbMText
10
3780
20
970.0033
30
0
40
56
41
180.444432572
71
1
72
1
1
NSTR
7
standard
210
0
220
0
230
1
50
0
73
2
44
1
0
MTEXT
5
428
100
AcDbEntity
8
7_roof_rafter_d
6
ByLayer
62
256
370
-1
100
AcDbMText
10
3780
20
860.00275
30
0
40
56
41
180.444432572
71
1
72
1
1
NSTR
7
standard
210
0
220
0
230
1
50
0
73
2
44
1
0
MTEXT
5
429
100
AcDbEntity
8
7_roof_rafter_d
6
ByLayer
62
256
370
-1
100
AcDbMText
10
3780
20
750.0022
30
0
40
56
41
180.444432572
71
1
72
1
1
NSTR
7
standard
210
0
220
0
230
1
50
0
73
2
44
1
0
LINE
5
42A
100
AcDbEntity
8
7_roof_rafter
6
ByLayer
62
256
370
-1
100
AcDbLine
10
865
20
5025
11
865
21
4935
0
LINE
5
42B
100
AcDbEntity
8
7_roof_rafter
6
ByLayer
62
256
370
-1
100
AcDbLine
10
865
20
2705
11
865
21
2795
0
LINE
5
42C
100
AcDbEntity
8
7_roof_rafter
6
ByLayer
62
256
370
-1
100
AcDbLine
10
865
20
5325
11
865
21
2350
0
LINE
5
42D
100
AcDbEntity
8
7_roof_rafter
6
ByLayer
62
256
370
-1
100
AcDbLine
10
910
20
5325
11
910
21
2350
0
LINE
5
42E
100
AcDbEntity
8
7_roof_rafter
6
ByLayer
62
256
370
-1
100
AcDbLine
10
865
20
5325
11
910
21
5325
0
LINE
5
42F
100
AcDbEntity
8
7_roof_rafter
6
ByLayer
62
256
370
-1
100
AcDbLine
10
865
20
2350
11
910
21
2350
0
LINE
5
430
100
AcDbEntity
8
7_roof_rafter
6
ByLayer
62
256
370
-1
100
AcDbLine
10
7781
20
5025
11
7781
21
4935
0
LINE
5
431
100
AcDbEntity
8
7_roof_rafter
6
ByLayer
62
256
370
-1
100
AcDbLine
10
7781
20
2795
11
7781
21
2705
0
LINE
5
432
100
AcDbEntity
8
7_roof_rafter
6
ByLayer
62
256
370
-1
100
AcDbLine
10
7781
20
5325
11
7781
21
2350
0
LINE
5
433
100
AcDbEntity
8
7_roof_rafter
6
ByLayer
62
256
370
-1
100
AcDbLine
10
7736
20
5325
11
7736
21
2350
0
LINE
5
434
100
AcDbEntity
8
7_roof_rafter
6
ByLayer
62
256
370
-1
100
AcDbLine
10
7736
20
2350
11
7781
21
2350
0
LINE
5
435
100
AcDbEntity
8
7_roof_rafter
6
ByLayer
62
256
370
-1
100
AcDbLine
10
7736
20
5325
11
7781
21
5325
0
LINE
5
436
100
AcDbEntity
8
7_roof_rafter_d
6
BORDER2
62
256
370
-1
100
AcDbLine
10
7736
20
5582.5727107
11
7736
21
5375
0
LINE
5
437
100
AcDbEntity
8
7_roof_rafter_d
6
BORDER2
62
256
370
-1
100
AcDbLine
10
910
20
5582.5727107
11
910
21
5375
0
DIMENSION
5
438
100
AcDbEntity
8
7_roof_rafter_d
6
ByLayer
62
256
370
-1
100
AcDbDimension
2
*D35
10
1205
20
5500
30
0
11
1057.5
21
5552
31
0
70
32
71
5
3
Standard
53
0
210
0
220
0
230
1
100
AcDbAlignedDimension
13
910
23
5466.20653745
33
0
14
1205
24
5469.73312231
34
0
100
AcDbRotatedDimension
0
DIMENSION
5
439
100
AcDbEntity
8
7_roof_rafter_d
6
ByLayer
62
256
370
-1
100
AcDbDimension
2
*D36
10
7736
20
5500
30
0
11
7588.5
21
5552
31
0
70
32
71
5
3
Standard
53
0
210
0
220
0
230
1
100
AcDbAlignedDimension
13
7441
23
5473.25970717
33
0
14
7736
24
5473.25970717
34
0
100
AcDbRotatedDimension
0
LINE
5
43A
100
AcDbEntity
8
6_roof_rack
6
ByLayer
62
256
370
-1
100
AcDbLine
10
3015
20
4462
11
3080
21
4397
0
LINE
5
43B
100
AcDbEntity
8
6_roof_rack
6
ByLayer
62
256
370
-1
100
AcDbLine
10
1360
20
4462
11
1295
21
4397
0
LINE
5
43C
100
AcDbEntity
8
6_roof_rack
6
ByLayer
62
256
370
-1
100
AcDbLine
10
3235
20
4462
11
3170
21
4397
0
LINE
5
43D
100
AcDbEntity
8
6_roof_rack
6
ByLayer
62
256
370
-1
100
AcDbLine
10
5410
20
4462
11
5475
21
4397
0
LINE
5
43E
100
AcDbEntity
8
6_roof_rack
6
ByLayer
62
256
370
-1
100
AcDbLine
10
5630
20
4462
11
5565
21
4397
0
LINE
5
43F
100
AcDbEntity
8
6_roof_rack
6
ByLayer
62
256
370
-1
100
AcDbLine
10
7285
20
4462
11
7350
21
4397
0
LINE
5
440
100
AcDbEntity
8
6_roof_rack
6
ByLayer
62
256
370
-1
100
AcDbLine
10
1205
20
4497
11
3125
21
4497
0
LINE
5
441
100
AcDbEntity
8
6_roof_rack
6
ByLayer
62
256
370
-1
100
AcDbLine
10
3125
20
4462
11
1205
21
4462
0
LINE
5
442
100
AcDbEntity
8
6_roof_rack
6
ByLayer
62
256
370
-1
100
AcDbLine
10
5520
20
4462
11
7440
21
4462
0
LINE
5
443
100
AcDbEntity
8
6_roof_rack
6
ByLayer
62
256
370
-1
100
AcDbLine
10
7440
20
4497
11
5520
21
4497
0
LINE
5
444
100
AcDbEntity
8
6_roof_rack
6
ByLayer
62
256
370
-1
100
AcDbLine
10
5520
20
4497
11
3125
21
4497
0
LINE
5
445
100
AcDbEntity
8
6_roof_rack
6
ByLayer
62
256
370
-1
100
AcDbLine
10
3125
20
4462
11
5520
21
4462
0
LINE
5
446
100
AcDbEntity
8
6_roof_rack
6
ByLayer
62
256
370
-1
100
AcDbLine
10
1733
20
4935
11
1295
21
4497
0
LINE
5
447
100
AcDbEntity
8
6_roof_rack
6
ByLayer
62
256
370
-1
100
AcDbLine
10
1833
20
4935
11
1395
21
4497
0
LINE
5
448
100
AcDbEntity
8
6_roof_rack
6
ByLayer
62
256
370
-1
100
AcDbLine
10
2542
20
4935
11
2980
21
4497
0
LINE
5
449
100
AcDbEntity
8
6_roof_rack
6
ByLayer
62
256
370
-1
100
AcDbLine
10
2642
20
4935
11
3080
21
4497
0
LINE
5
44A
100
AcDbEntity
8
6_roof_rack
6
ByLayer
62
256
370
-1
100
AcDbLine
10
1295
20
4497
11
1295
21
4935
0
LINE
5
44B
100
AcDbEntity
8
6_roof_rack
6
ByLayer
62
256
370
-1
100
AcDbLine
10
3080
20
4497
11
3080
21
5025
0
LINE
5
44C
100
AcDbEntity
8
6_roof_rack
6
ByLayer
62
256
370
-1
100
AcDbLine
10
3608
20
4935
11
3170
21
4497
0
LINE
5
44D
100
AcDbEntity
8
6_roof_rack
6
ByLayer
62
256
370
-1
100
AcDbLine
10
3708
20
4935
11
3270
21
4497
0
LINE
5
44E
100
AcDbEntity
8
6_roof_rack
6
ByLayer
62
256
370
-1
100
AcDbLine
10
4937
20
4935
11
5375
21
4497
0
LINE
5
44F
100
AcDbEntity
8
6_roof_rack
6
ByLayer
62
256
370
-1
100
AcDbLine
10
5037
20
4935
11
5475
21
4497
0
LINE
5
450
100
AcDbEntity
8
6_roof_rack
6
ByLayer
62
256
370
-1
100
AcDbLine
10
3170
20
4497
11
3170
21
5025
0
LINE
5
451
100
AcDbEntity
8
6_roof_rack
6
ByLayer
62
256
370
-1
100
AcDbLine
10
5475
20
5025
11
5475
21
4497
0
LINE
5
452
100
AcDbEntity
8
6_roof_rack
6
ByLayer
62
256
370
-1
100
AcDbLine
10
6003
20
4935
11
5565
21
4497
0
LINE
5
453
100
AcDbEntity
8
6_roof_rack
6
ByLayer
62
256
370
-1
100
AcDbLine
10
6103
20
4935
11
5665
21
4497
0
LINE
5
454
100
AcDbEntity
8
6_roof_rack
6
ByLayer
62
256
370
-1
100
AcDbLine
10
6812
20
4935
11
7250
21
4497
0
LINE
5
455
100
AcDbEntity
8
6_roof_rack
6
ByLayer
62
256
370
-1
100
AcDbLine
10
6912
20
4935
11
7350
21
4497
0
LINE
5
456
100
AcDbEntity
8
6_roof_rack
6
ByLayer
62
256
370
-1
100
AcDbLine
10
7350
20
4935
11
7350
21
4497
0
LINE
5
457
100
AcDbEntity
8
6_roof_rack
6
ByLayer
62
256
370
-1
100
AcDbLine
10
5565
20
5025
11
5565
21
4497
0
LINE
5
458
100
AcDbEntity
8
6_roof_rack
6
ByLayer
62
256
370
-1
100
AcDbLine
10
5630
20
3267
11
5565
21
3332
0
LINE
5
459
100
AcDbEntity
8
6_roof_rack
6
ByLayer
62
256
370
-1
100
AcDbLine
10
7285
20
3267
11
7350
21
3332
0
LINE
5
45A
100
AcDbEntity
8
6_roof_rack
6
ByLayer
62
256
370
-1
100
AcDbLine
10
5410
20
3267
11
5475
21
3332
0
LINE
5
45B
100
AcDbEntity
8
6_roof_rack
6
ByLayer
62
256
370
-1
100
AcDbLine
10
3235
20
3267
11
3170
21
3332
0
LINE
5
45C
100
AcDbEntity
8
6_roof_rack
6
ByLayer
62
256
370
-1
100
AcDbLine
10
1360
20
3267
11
1295
21
3332
0
LINE
5
45D
100
AcDbEntity
8
6_roof_rack
6
ByLayer
62
256
370
-1
100
AcDbLine
10
3015
20
3267
11
3080
21
3332
0
LINE
5
45E
100
AcDbEntity
8
6_roof_rack
6
ByLayer
62
256
370
-1
100
AcDbLine
10
3125
20
3267
11
1205
21
3267
0
LINE
5
45F
100
AcDbEntity
8
6_roof_rack
6
ByLayer
62
256
370
-1
100
AcDbLine
10
1205
20
3232
11
3125
21
3232
0
LINE
5
460
100
AcDbEntity
8
6_roof_rack
6
ByLayer
62
256
370
-1
100
AcDbLine
10
5520
20
3267
11
3125
21
3267
0
LINE
5
461
100
AcDbEntity
8
6_roof_rack
6
ByLayer
62
256
370
-1
100
AcDbLine
10
3125
20
3232
11
5520
21
3232
0
LINE
5
462
100
AcDbEntity
8
6_roof_rack
6
ByLayer
62
256
370
-1
100
AcDbLine
10
5520
20
3232
11
7440
21
3232
0
LINE
5
463
100
AcDbEntity
8
6_roof_rack
6
ByLayer
62
256
370
-1
100
AcDbLine
10
7440
20
3267
11
5520
21
3267
0
LINE
5
464
100
AcDbEntity
8
6_roof_rack
6
ByLayer
62
256
370
-1
100
AcDbLine
10
1732
20
2795
11
1295
21
3232
0
LINE
5
465
100
AcDbEntity
8
6_roof_rack
6
ByLayer
62
256
370
-1
100
AcDbLine
10
1832
20
2795
11
1395
21
3232
0
LINE
5
466
100
AcDbEntity
8
6_roof_rack
6
ByLayer
62
256
370
-1
100
AcDbLine
10
2543
20
2795
11
2980
21
3232
0
LINE
5
467
100
AcDbEntity
8
6_roof_rack
6
ByLayer
62
256
370
-1
100
AcDbLine
10
2643
20
2795
11
3080
21
3232
0
LINE
5
468
100
AcDbEntity
8
6_roof_rack
6
ByLayer
62
256
370
-1
100
AcDbLine
10
1295
20
2795
11
1295
21
3232
0
LINE
5
469
100
AcDbEntity
8
6_roof_rack
6
ByLayer
62
256
370
-1
100
AcDbLine
10
3080
20
2705
11
3080
21
3232
0
LINE
5
46A
100
AcDbEntity
8
6_roof_rack
6
ByLayer
62
256
370
-1
100
AcDbLine
10
3080
20
3267
11
3080
21
4462
0
LINE
5
46B
100
AcDbEntity
8
6_roof_rack
6
ByLayer
62
256
370
-1
100
AcDbLine
10
1295
20
3267
11
1295
21
4462
0
LINE
5
46C
100
AcDbEntity
8
6_roof_rack
6
ByLayer
62
256
370
-1
100
AcDbLine
10
3170
20
2705
11
3170
21
3232
0
LINE
5
46D
100
AcDbEntity
8
6_roof_rack
6
ByLayer
62
256
370
-1
100
AcDbLine
10
5475
20
3232
11
5475
21
2705
0
LINE
5
46E
100
AcDbEntity
8
6_roof_rack
6
ByLayer
62
256
370
-1
100
AcDbLine
10
5475
20
4462
11
5475
21
3267
0
LINE
5
46F
100
AcDbEntity
8
6_roof_rack
6
ByLayer
62
256
370
-1
100
AcDbLine
10
3170
20
3267
11
3170
21
4462
0
LINE
5
470
100
AcDbEntity
8
6_roof_rack
6
ByLayer
62
256
370
-1
100
AcDbLine
10
3607
20
2795
11
3170
21
3232
0
LINE
5
471
100
AcDbEntity
8
6_roof_rack
6
ByLayer
62
256
370
-1
100
AcDbLine
10
3707
20
2795
11
3270
21
3232
0
LINE
5
472
100
AcDbEntity
8
6_roof_rack
6
ByLayer
62
256
370
-1
100
AcDbLine
10
4938
20
2795
11
5375
21
3232
0
LINE
5
473
100
AcDbEntity
8
6_roof_rack
6
ByLayer
62
256
370
-1
100
AcDbLine
10
5038
20
2795
11
5475
21
3232
0
LINE
5
474
100
AcDbEntity
8
6_roof_rack
6
ByLayer
62
256
370
-1
100
AcDbLine
10
6002
20
2795
11
5565
21
3232
0
LINE
5
475
100
AcDbEntity
8
6_roof_rack
6
ByLayer
62
256
370
-1
100
AcDbLine
10
6102
20
2795
11
5665
21
3232
0
LINE
5
476
100
AcDbEntity
8
6_roof_rack
6
ByLayer
62
256
370
-1
100
AcDbLine
10
6813
20
2795
11
7250
21
3232
0
LINE
5
477
100
AcDbEntity
8
6_roof_rack
6
ByLayer
62
256
370
-1
100
AcDbLine
10
6913
20
2795
11
7350
21
3232
0
LINE
5
478
100
AcDbEntity
8
6_roof_rack
6
ByLayer
62
256
370
-1
100
AcDbLine
10
5565
20
3232
11
5565
21
2705
0
LINE
5
479
100
AcDbEntity
8
6_roof_rack
6
ByLayer
62
256
370
-1
100
AcDbLine
10
7350
20
3232
11
7350
21
2795
0
LINE
5
47A
100
AcDbEntity
8
6_roof_rack
6
ByLayer
62
256
370
-1
100
AcDbLine
10
7350
20
4462
11
7350
21
3267
0
LINE
5
47B
100
AcDbEntity
8
6_roof_rack
6
ByLayer
62
256
370
-1
100
AcDbLine
10
5565
20
4462
11
5565
21
3267
0
CIRCLE
5
47C
100
AcDbEntity
8
6_roof_rack_d
6
ByLayer
62
256
370
-1
100
AcDbCircle
10
8420.62257745
20
4479.00213484
40
80.622577483
0
CIRCLE
5
47D
100
AcDbEntity
8
6_roof_rack_d
6
ByLayer
62
256
370
-1
100
AcDbCircle
10
174.377422545
20
4478.99786516
40
80.622577483
0
LINE
5
47E
100
AcDbEntity
8
6_roof_rack_d
6
BORDER2
62
256
370
-1
100
AcDbLine
10
7490
20
4479
11
8340
21
4479
0
LINE
5
47F
100
AcDbEntity
8
6_roof_rack_d
6
BORDER2
62
256
370
-1
100
AcDbLine
10
1155
20
4479
11
255
21
4479
0
MTEXT
5
480
100
AcDbEntity
8
6_roof_rack_d
6
ByLayer
62
256
370
-1
100
AcDbMText
10
158.377422545
20
4515.99786516
30
0
40
72
41
40
71
1
72
1
1
D
7
standard
210
0
220
0
230
1
50
0
73
2
44
1
0
MTEXT
5
481
100
AcDbEntity
8
6_roof_rack_d
6
ByLayer
62
256
370
-1
100
AcDbMText
10
8394.62257745
20
4516.00213484
30
0
40
72
41
40
71
1
72
1
1
D
7
standard
210
0
220
0
230
1
50
360
73
2
44
1
0
CIRCLE
5
482
100
AcDbEntity
8
6_roof_rack_d
6
ByLayer
62
256
370
-1
100
AcDbCircle
10
8420.62257745
20
3249.00213484
40
80.622577483
0
CIRCLE
5
483
100
AcDbEntity
8
6_roof_rack_d
6
ByLayer
62
256
370
-1
100
AcDbCircle
10
174.377422545
20
3248.99786516
40
80.622577483
0
LINE
5
484
100
AcDbEntity
8
6_roof_rack_d
6
BORDER2
62
256
370
-1
100
AcDbLine
10
7490
20
3249
11
8340
21
3249
0
LINE
5
485
100
AcDbEntity
8
6_roof_rack_d
6
BORDER2
62
256
370
-1
100
AcDbLine
10
1155
20
3249
11
255
21
3249
0
MTEXT
5
486
100
AcDbEntity
8
6_roof_rack_d
6
ByLayer
62
256
370
-1
100
AcDbMText
10
158.377422545
20
3285.99786516
30
0
40
72
41
40
71
1
72
1
1
B
7
standard
210
0
220
0
230
1
50
0
73
2
44
1
0
MTEXT
5
487
100
AcDbEntity
8
6_roof_rack_d
6
ByLayer
62
256
370
-1
100
AcDbMText
10
8394.62257745
20
3286.00213484
30
0
40
72
41
40
71
1
72
1
1
B
7
standard
210
0
220
0
230
1
50
360
73
2
44
1
0
DIMENSION
5
488
100
AcDbEntity
8
6_roof_rack_d
6
ByLayer
62
256
370
-1
100
AcDbDimension
2
*D37
10
800
20
4479
30
0
11
748
21
4698
31
0
70
32
71
5
72
0
3
Standard
53
0
210
0
220
0
230
1
100
AcDbAlignedDimension
13
848.584482629
23
4917
33
0
14
848.584482629
24
4479
34
0
50
90
100
AcDbRotatedDimension
0
DIMENSION
5
489
100
AcDbEntity
8
6_roof_rack_d
6
ByLayer
62
256
370
-1
100
AcDbDimension
2
*D38
10
800
20
3249
30
0
11
748
21
3864
31
0
70
32
71
5
72
0
3
Standard
53
0
210
0
220
0
230
1
100
AcDbAlignedDimension
13
848.584482629
23
4479
33
0
14
848.584482629
24
3249
34
0
50
90
100
AcDbRotatedDimension
0
DIMENSION
5
48A
100
AcDbEntity
8
6_roof_rack_d
6
ByLayer
62
256
370
-1
100
AcDbDimension
2
*D39
10
800
20
2812
30
0
11
748
21
3030.5
31
0
70
32
71
5
72
0
3
Standard
53
0
210
0
220
0
230
1
100
AcDbAlignedDimension
13
859.605060326
23
3249
33
0
14
854.094771477
24
2812
34
0
50
90
100
AcDbRotatedDimension
0
DIMENSION
5
48B
100
AcDbEntity
8
6_roof_rack_d
6
ByLayer
62
256
370
-1
100
AcDbDimension
2
*D40
10
7900
20
4479
30
0
11
7848
21
4698
31
0
70
32
71
5
72
0
3
Standard
53
0
210
0
220
0
230
1
100
AcDbAlignedDimension
13
7863.18218644
23
4917
33
0
14
7874.20276414
24
4479
34
0
50
90
100
AcDbRotatedDimension
0
DIMENSION
5
48C
100
AcDbEntity
8
6_roof_rack_d
6
ByLayer
62
256
370
-1
100
AcDbDimension
2
*D41
10
7900
20
3249
30
0
11
7848
21
3864
31
0
70
32
71
5
72
0
3
Standard
53
0
210
0
220
0
230
1
100
AcDbAlignedDimension
13
7857.67189759
23
4479
33
0
14
7852.16160874
24
3249
34
0
50
90
100
AcDbRotatedDimension
0
DIMENSION
5
48D
100
AcDbEntity
8
6_roof_rack_d
6
ByLayer
62
256
370
-1
100
AcDbDimension
2
*D42
10
7900
20
2812
30
0
11
7848
21
3030.5
31
0
70
32
71
5
72
0
3
Standard
53
0
210
0
220
0
230
1
100
AcDbAlignedDimension
13
7841.14103105
23
3249
33
0
14
7846.6513199
24
2812
34
0
50
90
100
AcDbRotatedDimension
0
DIMENSION
5
48E
100
AcDbEntity
8
6_roof_rack_d
6
ByLayer
62
256
370
-1
100
AcDbDimension
2
*D43
10
3125
20
3900
30
0
11
2165
21
3952
31
0
70
32
71
5
72
0
3
Standard
53
0
210
0
220
0
230
1
100
AcDbAlignedDimension
13
1205
23
3956.38739304
33
0
14
3125
24
3956.38739304
34
0
100
AcDbRotatedDimension
0
DIMENSION
5
48F
100
AcDbEntity
8
6_roof_rack_d
6
ByLayer
62
256
370
-1
100
AcDbDimension
2
*D44
10
5520
20
3900
30
0
11
4322.5
21
3952
31
0
70
32
71
5
72
0
3
Standard
53
0
210
0
220
0
230
1
100
AcDbAlignedDimension
13
3125
23
3967.40797073
33
0
14
5520
24
3967.40797073
34
0
100
AcDbRotatedDimension
0
DIMENSION
5
490
100
AcDbEntity
8
6_roof_rack_d
6
ByLayer
62
256
370
-1
100
AcDbDimension
2
*D45
10
2096.49437513
20
4671.50562487
30
0
11
1790.72482251
21
4439.27517749
31
0
70
33
1
760
71
5
72
0
3
Standard
53
0
210
0
220
0
230
1
100
AcDbAlignedDimension
13
1295
23
4397
33
0
14
1833
24
4935
34
0
0
MTEXT
5
491
100
AcDbEntity
8
6_roof_rack_d
6
ByLayer
62
256
370
-1
100
AcDbMText
10
5900
20
4300
30
0
40
64
41
396.444430876
71
1
72
1
1
70x45 NS
7
standard
210
0
220
0
230
1
50
0
73
2
44
1
0
MTEXT
5
492
100
AcDbEntity
8
6_roof_rack_d
6
ByLayer
62
256
370
-1
100
AcDbMText
10
4100
20
860.0022
30
0
40
56
41
166.133333333
71
1
72
1
1
760*
7
standard
210
0
220
0
230
1
50
0
73
2
44
1
0
MTEXT
5
493
100
AcDbEntity
8
6_roof_rack_d
6
ByLayer
62
256
370
-1
100
AcDbMText
10
5200
20
750.0022
30
0
40
64
41
522.666666667
71
1
72
1
1
26 Aug 2017
7
standard
210
0
220
0
230
1
50
0
73
2
44
1
0
ENDSEC
0
SECTION
2
OBJECTS
0
DICTIONARY
5
C
330
0
100
AcDbDictionary
281
1
3
ACAD_GROUP
350
D
0
DICTIONARY
5
D
330
C
100
AcDbDictionary
281
1
0
ENDSEC
0
EOF
