999
dxfrw 0.5.11
0
SECTION
2
HEADER
9
$ACADVER
1
AC1021
9
$HANDSEED
5
20000
9
$DWGCODEPAGE
3
ANSI_1252
9
$INSBASE
10
0
20
0
30
0
9
$EXTMIN
10
3.5527136788e-14
20
0
30
0
9
$EXTMAX
10
8580
20
6094
30
0
9
$LIMMIN
10
0
20
0
9
$LIMMAX
10
420
20
297
9
$ORTHOMODE
70
0
9
$LTSCALE
40
1
9
$TEXTSTYLE
7
STANDARD
9
$CLAYER
8
0
9
$DIMASZ
40
64
9
$DIMLFAC
40
1
9
$DIMSCALE
40
1
9
$DIMEXO
40
50
9
$DIMEXE
40
16
9
$DIMTXT
40
64
9
$DIMTSZ
40
0
9
$DIMAUNIT
70
0
9
$DIMADEC
70
2
9
$DIMLUNIT
70
2
9
$DIMSTYLE
2
STANDARD
9
$DIMGAP
40
20
9
$DIMTIH
70
0
9
$LUNITS
70
2
9
$LUPREC
70
4
9
$AUNITS
70
0
9
$AUPREC
70
2
9
$SPLINESEGS
70
8
9
$GRIDMODE
70
1
9
$SNAPSTYLE
70
0
9
$GRIDUNIT
10
0
20
0
9
$PINSBASE
10
0
20
0
30
0
9
$PLIMMIN
10
0
20
0
9
$PLIMMAX
10
297
20
210
9
$INSUNITS
70
4
9
$PSVPSCALE
40
1
0
ENDSEC
0
SECTION
2
CLASSES
0
ENDSEC
0
SECTION
2
TABLES
0
TABLE
2
VPORT
5
8
330
0
100
AcDbSymbolTable
70
1
0
VPORT
5
31
330
2
100
AcDbSymbolTableRecord
100
AcDbViewportTableRecord
2
*ACTIVE
70
0
10
0
20
0
11
1
21
1
12
4035.64856384
22
2851.99020238
13
0
23
0
14
10
24
10
15
10
25
10
16
0
26
0
36
1
17
0
27
0
37
0
40
3831.22845684
41
2.67641996558
42
50
43
0
44
0
50
0
51
0
71
0
72
100
73
1
74
3
75
0
76
1
77
0
78
0
281
0
65
1
110
0
120
0
130
0
111
1
121
0
131
0
112
0
122
1
132
0
79
0
146
0
348
10020
60
7
61
5
292
1
282
1
141
0
142
0
63
250
421
3358443
0
ENDTAB
0
TABLE
2
LTYPE
5
5
330
0
100
AcDbSymbolTable
70
4
0
LTYPE
5
14
330
5
100
AcDbSymbolTableRecord
100
AcDbLinetypeTableRecord
2
ByBlock
70
0
3

72
65
73
0
40
0
0
LTYPE
5
15
330
5
100
AcDbSymbolTableRecord
100
AcDbLinetypeTableRecord
2
ByLayer
70
0
3

72
65
73
0
40
0
0
LTYPE
5
16
330
5
100
AcDbSymbolTableRecord
100
AcDbLinetypeTableRecord
2
Continuous
70
0
3
Solid line
72
65
73
0
40
0
0
LTYPE
5
32
330
5
100
AcDbSymbolTableRecord
100
AcDbLinetypeTableRecord
2
DOT
70
0
3
Dot . . . . . . . . . . . . . . . . . . . . . .
72
65
73
2
40
6.35
49
0
74
0
49
-6.35
74
0
0
LTYPE
5
33
330
5
100
AcDbSymbolTableRecord
100
AcDbLinetypeTableRecord
2
DOT2
70
0
3
Dot (.5x) .....................................
72
65
73
2
40
3.175
49
0
74
0
49
-3.175
74
0
0
LTYPE
5
34
330
5
100
AcDbSymbolTableRecord
100
AcDbLinetypeTableRecord
2
DOTX2
70
0
3
Dot (2x) .  .  .  .  .  .  .  .  .  .  .  .  .
72
65
73
2
40
12.7
49
0
74
0
49
-12.7
74
0
0
LTYPE
5
35
330
5
100
AcDbSymbolTableRecord
100
AcDbLinetypeTableRecord
2
DASHED
70
0
3
Dot . . . . . . . . . . . . . . . . . . . . . .
72
65
73
2
40
19.05
49
12.7
74
0
49
-6.35
74
0
0
LTYPE
5
36
330
5
100
AcDbSymbolTableRecord
100
AcDbLinetypeTableRecord
2
DASHED2
70
0
3
Dashed (.5x) _ _ _ _ _ _ _ _ _ _ _ _ _ _ _ _ _
72
65
73
2
40
9.525
49
6.35
74
0
49
-3.175
74
0
0
LTYPE
5
37
330
5
100
AcDbSymbolTableRecord
100
AcDbLinetypeTableRecord
2
DASHEDX2
70
0
3
Dashed (2x) ____  ____  ____  ____  ____  ___
72
65
73
2
40
38.1
49
25.4
74
0
49
-12.7
74
0
0
LTYPE
5
38
330
5
100
AcDbSymbolTableRecord
100
AcDbLinetypeTableRecord
2
DASHDOT
70
0
3
Dash dot __ . __ . __ . __ . __ . __ . __ . __
72
65
73
4
40
25.4
49
12.7
74
0
49
-6.35
74
0
49
0
74
0
49
-6.35
74
0
0
LTYPE
5
39
330
5
100
AcDbSymbolTableRecord
100
AcDbLinetypeTableRecord
2
DASHDOT2
70
0
3
Dash dot (.5x) _._._._._._._._._._._._._._._.
72
65
73
4
40
12.7
49
6.35
74
0
49
-3.175
74
0
49
0
74
0
49
-3.175
74
0
0
LTYPE
5
3A
330
5
100
AcDbSymbolTableRecord
100
AcDbLinetypeTableRecord
2
DASHDOTX2
70
0
3
Dash dot (2x) ____  .  ____  .  ____  .  ___
72
65
73
4
40
50.8
49
25.4
74
0
49
-12.7
74
0
49
0
74
0
49
-12.7
74
0
0
LTYPE
5
3B
330
5
100
AcDbSymbolTableRecord
100
AcDbLinetypeTableRecord
2
DIVIDE
70
0
3
Divide ____ . . ____ . . ____ . . ____ . . ____
72
65
73
6
40
31.75
49
12.7
74
0
49
-6.35
74
0
49
0
74
0
49
-6.35
74
0
49
0
74
0
49
-6.35
74
0
0
LTYPE
5
3C
330
5
100
AcDbSymbolTableRecord
100
AcDbLinetypeTableRecord
2
DIVIDE2
70
0
3
Divide (.5x) __..__..__..__..__..__..__..__.._
72
65
73
6
40
15.875
49
6.35
74
0
49
-3.175
74
0
49
0
74
0
49
-3.175
74
0
49
0
74
0
49
-3.175
74
0
0
LTYPE
5
3D
330
5
100
AcDbSymbolTableRecord
100
AcDbLinetypeTableRecord
2
DIVIDEX2
70
0
3
Divide (2x) ________  .  .  ________  .  .  _
72
65
73
6
40
63.5
49
25.4
74
0
49
-12.7
74
0
49
0
74
0
49
-12.7
74
0
49
0
74
0
49
-12.7
74
0
0
LTYPE
5
3E
330
5
100
AcDbSymbolTableRecord
100
AcDbLinetypeTableRecord
2
BORDER
70
0
3
Border __ __ . __ __ . __ __ . __ __ . __ __ .
72
65
73
6
40
44.45
49
12.7
74
0
49
-6.35
74
0
49
12.7
74
0
49
-6.35
74
0
49
0
74
0
49
-6.35
74
0
0
LTYPE
5
3F
330
5
100
AcDbSymbolTableRecord
100
AcDbLinetypeTableRecord
2
BORDER2
70
0
3
Border (.5x) __.__.__.__.__.__.__.__.__.__.__.
72
65
73
6
40
22.225
49
6.35
74
0
49
-3.175
74
0
49
6.35
74
0
49
-3.175
74
0
49
0
74
0
49
-3.175
74
0
0
LTYPE
5
40
330
5
100
AcDbSymbolTableRecord
100
AcDbLinetypeTableRecord
2
BORDERX2
70
0
3
Border (2x) ____  ____  .  ____  ____  .  ___
72
65
73
6
40
88.9
49
25.4
74
0
49
-12.7
74
0
49
25.4
74
0
49
-12.7
74
0
49
0
74
0
49
-12.7
74
0
0
LTYPE
5
41
330
5
100
AcDbSymbolTableRecord
100
AcDbLinetypeTableRecord
2
CENTER
70
0
3
Center ____ _ ____ _ ____ _ ____ _ ____ _ ____
72
65
73
4
40
50.8
49
31.75
74
0
49
-6.35
74
0
49
6.35
74
0
49
-6.35
74
0
0
LTYPE
5
42
330
5
100
AcDbSymbolTableRecord
100
AcDbLinetypeTableRecord
2
CENTER2
70
0
3
Center (.5x) ___ _ ___ _ ___ _ ___ _ ___ _ ___
72
65
73
4
40
28.575
49
19.05
74
0
49
-3.175
74
0
49
3.175
74
0
49
-3.175
74
0
0
LTYPE
5
43
330
5
100
AcDbSymbolTableRecord
100
AcDbLinetypeTableRecord
2
CENTERX2
70
0
3
Center (2x) ________  __  ________  __  _____
72
65
73
4
40
101.6
49
63.5
74
0
49
-12.7
74
0
49
12.7
74
0
49
-12.7
74
0
0
ENDTAB
0
TABLE
2
LAYER
5
2
330
0
100
AcDbSymbolTable
70
1
0
LAYER
5
10
330
2
100
AcDbSymbolTableRecord
100
AcDbLayerTableRecord
2
0
70
0
62
7
6
CONTINUOUS
370
0
390
F
0
LAYER
5
44
330
2
100
AcDbSymbolTableRecord
100
AcDbLayerTableRecord
2
4_frame
70
1
62
7
6
CONTINUOUS
370
35
390
F
0
LAYER
5
45
330
2
100
AcDbSymbolTableRecord
100
AcDbLayerTableRecord
2
4_frame_d
70
1
62
4
6
CONTINUOUS
370
13
390
F
0
LAYER
5
46
330
2
100
AcDbSymbolTableRecord
100
AcDbLayerTableRecord
2
6_roof_rack
70
0
62
7
6
CONTINUOUS
370
0
390
F
0
LAYER
5
47
330
2
100
AcDbSymbolTableRecord
100
AcDbLayerTableRecord
2
6_roof_rack_d
70
0
62
4
6
CONTINUOUS
370
13
390
F
0
ENDTAB
0
TABLE
2
STYLE
5
3
330
0
100
AcDbSymbolTable
70
3
0
STYLE
5
48
330
2
100
AcDbSymbolTableRecord
100
AcDbTextStyleTableRecord
2
normal#0.500000#0.900000
70
0
40
0
41
1
50
0
71
0
42
1
3
normal#0.500000#0.900000
4

0
STYLE
5
49
330
2
100
AcDbSymbolTableRecord
100
AcDbTextStyleTableRecord
2
STANDARD
70
0
40
0
41
1
50
0
71
0
42
1
3
STANDARD
4

0
STYLE
5
4A
330
2
100
AcDbSymbolTableRecord
100
AcDbTextStyleTableRecord
2
standard
70
0
40
0
41
1
50
0
71
0
42
1
3
standard
4

0
STYLE
5
4B
330
2
100
AcDbSymbolTableRecord
100
AcDbTextStyleTableRecord
2
iso
70
0
40
0
41
1
50
0
71
0
42
1
3
iso
4

0
ENDTAB
0
TABLE
2
VIEW
5
6
330
0
100
AcDbSymbolTable
70
0
0
ENDTAB
0
TABLE
2
UCS
5
7
330
0
100
AcDbSymbolTable
70
0
0
ENDTAB
0
TABLE
2
APPID
5
9
330
0
100
AcDbSymbolTable
70
1
0
APPID
5
12
330
9
100
AcDbSymbolTableRecord
100
AcDbRegAppTableRecord
2
ACAD
70
0
0
ENDTAB
0
TABLE
2
DIMSTYLE
5
A
330
0
100
AcDbSymbolTable
70
1
100
AcDbDimStyleTable
71
1
0
DIMSTYLE
105
4C
330
A
100
AcDbSymbolTableRecord
100
AcDbDimStyleTableRecord
2
Standard
70
0
40
1
41
64
42
50
43
0.38
44
16
45
0
46
0
47
0
48
0
140
64
141
0.09
142
0
143
25.4
144
1
145
0
146
1
147
20
148
0
71
0
72
0
73
0
74
1
75
0
76
0
77
0
78
0
79
0
170
0
171
2
172
0
173
0
174
0
175
0
176
0
177
0
178
0
179
0
271
4
272
4
273
2
274
2
275
0
276
0
277
2
278
46
279
0
280
0
281
0
282
0
283
1
284
0
285
0
286
0
288
0
289
3
340
Standard
341

371
-2
372
-2
0
ENDTAB
0
TABLE
2
BLOCK_RECORD
5
1
330
0
100
AcDbSymbolTable
70
2
0
BLOCK_RECORD
5
1F
330
1
100
AcDbSymbolTableRecord
100
AcDbBlockTableRecord
2
*Model_Space
70
0
280
1
281
0
0
BLOCK_RECORD
5
1E
330
1
100
AcDbSymbolTableRecord
100
AcDbBlockTableRecord
2
*Paper_Space
70
0
280
1
281
0
0
BLOCK_RECORD
5
4D
330
1
100
AcDbSymbolTableRecord
100
AcDbBlockTableRecord
2
*D19
70
0
280
1
281
0
0
BLOCK_RECORD
5
50
330
1
100
AcDbSymbolTableRecord
100
AcDbBlockTableRecord
2
*D2
70
0
280
1
281
0
0
BLOCK_RECORD
5
53
330
1
100
AcDbSymbolTableRecord
100
AcDbBlockTableRecord
2
*D25
70
0
280
1
281
0
0
BLOCK_RECORD
5
56
330
1
100
AcDbSymbolTableRecord
100
AcDbBlockTableRecord
2
*D24
70
0
280
1
281
0
0
BLOCK_RECORD
5
59
330
1
100
AcDbSymbolTableRecord
100
AcDbBlockTableRecord
2
*D9
70
0
280
1
281
0
0
BLOCK_RECORD
5
5C
330
1
100
AcDbSymbolTableRecord
100
AcDbBlockTableRecord
2
*D13
70
0
280
1
281
0
0
BLOCK_RECORD
5
5F
330
1
100
AcDbSymbolTableRecord
100
AcDbBlockTableRecord
2
*D37
70
0
280
1
281
0
0
BLOCK_RECORD
5
62
330
1
100
AcDbSymbolTableRecord
100
AcDbBlockTableRecord
2
*D61
70
0
280
1
281
0
0
BLOCK_RECORD
5
65
330
1
100
AcDbSymbolTableRecord
100
AcDbBlockTableRecord
2
*D22
70
0
280
1
281
0
0
BLOCK_RECORD
5
68
330
1
100
AcDbSymbolTableRecord
100
AcDbBlockTableRecord
2
*D23
70
0
280
1
281
0
0
BLOCK_RECORD
5
6B
330
1
100
AcDbSymbolTableRecord
100
AcDbBlockTableRecord
2
*D48
70
0
280
1
281
0
0
BLOCK_RECORD
5
6E
330
1
100
AcDbSymbolTableRecord
100
AcDbBlockTableRecord
2
*D7
70
0
280
1
281
0
0
BLOCK_RECORD
5
71
330
1
100
AcDbSymbolTableRecord
100
AcDbBlockTableRecord
2
*D14
70
0
280
1
281
0
0
BLOCK_RECORD
5
74
330
1
100
AcDbSymbolTableRecord
100
AcDbBlockTableRecord
2
*D49
70
0
280
1
281
0
0
BLOCK_RECORD
5
77
330
1
100
AcDbSymbolTableRecord
100
AcDbBlockTableRecord
2
*D30
70
0
280
1
281
0
0
BLOCK_RECORD
5
7A
330
1
100
AcDbSymbolTableRecord
100
AcDbBlockTableRecord
2
*D6
70
0
280
1
281
0
0
BLOCK_RECORD
5
7D
330
1
100
AcDbSymbolTableRecord
100
AcDbBlockTableRecord
2
*D51
70
0
280
1
281
0
0
BLOCK_RECORD
5
80
330
1
100
AcDbSymbolTableRecord
100
AcDbBlockTableRecord
2
*D36
70
0
280
1
281
0
0
BLOCK_RECORD
5
83
330
1
100
AcDbSymbolTableRecord
100
AcDbBlockTableRecord
2
*D46
70
0
280
1
281
0
0
BLOCK_RECORD
5
86
330
1
100
AcDbSymbolTableRecord
100
AcDbBlockTableRecord
2
*D4
70
0
280
1
281
0
0
BLOCK_RECORD
5
89
330
1
100
AcDbSymbolTableRecord
100
AcDbBlockTableRecord
2
*D16
70
0
280
1
281
0
0
BLOCK_RECORD
5
8C
330
1
100
AcDbSymbolTableRecord
100
AcDbBlockTableRecord
2
*D59
70
0
280
1
281
0
0
BLOCK_RECORD
5
8F
330
1
100
AcDbSymbolTableRecord
100
AcDbBlockTableRecord
2
*D32
70
0
280
1
281
0
0
BLOCK_RECORD
5
92
330
1
100
AcDbSymbolTableRecord
100
AcDbBlockTableRecord
2
*D44
70
0
280
1
281
0
0
BLOCK_RECORD
5
95
330
1
100
AcDbSymbolTableRecord
100
AcDbBlockTableRecord
2
*D29
70
0
280
1
281
0
0
BLOCK_RECORD
5
98
330
1
100
AcDbSymbolTableRecord
100
AcDbBlockTableRecord
2
*D31
70
0
280
1
281
0
0
BLOCK_RECORD
5
9B
330
1
100
AcDbSymbolTableRecord
100
AcDbBlockTableRecord
2
*D58
70
0
280
1
281
0
0
BLOCK_RECORD
5
9E
330
1
100
AcDbSymbolTableRecord
100
AcDbBlockTableRecord
2
*D12
70
0
280
1
281
0
0
BLOCK_RECORD
5
A1
330
1
100
AcDbSymbolTableRecord
100
AcDbBlockTableRecord
2
*D40
70
0
280
1
281
0
0
BLOCK_RECORD
5
A4
330
1
100
AcDbSymbolTableRecord
100
AcDbBlockTableRecord
2
*D57
70
0
280
1
281
0
0
BLOCK_RECORD
5
A7
330
1
100
AcDbSymbolTableRecord
100
AcDbBlockTableRecord
2
*D47
70
0
280
1
281
0
0
BLOCK_RECORD
5
AA
330
1
100
AcDbSymbolTableRecord
100
AcDbBlockTableRecord
2
*D63
70
0
280
1
281
0
0
BLOCK_RECORD
5
AD
330
1
100
AcDbSymbolTableRecord
100
AcDbBlockTableRecord
2
*D21
70
0
280
1
281
0
0
BLOCK_RECORD
5
B0
330
1
100
AcDbSymbolTableRecord
100
AcDbBlockTableRecord
2
*D43
70
0
280
1
281
0
0
BLOCK_RECORD
5
B3
330
1
100
AcDbSymbolTableRecord
100
AcDbBlockTableRecord
2
*D50
70
0
280
1
281
0
0
BLOCK_RECORD
5
B6
330
1
100
AcDbSymbolTableRecord
100
AcDbBlockTableRecord
2
*D17
70
0
280
1
281
0
0
BLOCK_RECORD
5
B9
330
1
100
AcDbSymbolTableRecord
100
AcDbBlockTableRecord
2
*D15
70
0
280
1
281
0
0
BLOCK_RECORD
5
BC
330
1
100
AcDbSymbolTableRecord
100
AcDbBlockTableRecord
2
*D54
70
0
280
1
281
0
0
BLOCK_RECORD
5
BF
330
1
100
AcDbSymbolTableRecord
100
AcDbBlockTableRecord
2
*D55
70
0
280
1
281
0
0
BLOCK_RECORD
5
C2
330
1
100
AcDbSymbolTableRecord
100
AcDbBlockTableRecord
2
*D3
70
0
280
1
281
0
0
BLOCK_RECORD
5
C5
330
1
100
AcDbSymbolTableRecord
100
AcDbBlockTableRecord
2
*D11
70
0
280
1
281
0
0
BLOCK_RECORD
5
C8
330
1
100
AcDbSymbolTableRecord
100
AcDbBlockTableRecord
2
*D1
70
0
280
1
281
0
0
BLOCK_RECORD
5
CB
330
1
100
AcDbSymbolTableRecord
100
AcDbBlockTableRecord
2
*D62
70
0
280
1
281
0
0
BLOCK_RECORD
5
CE
330
1
100
AcDbSymbolTableRecord
100
AcDbBlockTableRecord
2
*D64
70
0
280
1
281
0
0
BLOCK_RECORD
5
D1
330
1
100
AcDbSymbolTableRecord
100
AcDbBlockTableRecord
2
*D60
70
0
280
1
281
0
0
BLOCK_RECORD
5
D4
330
1
100
AcDbSymbolTableRecord
100
AcDbBlockTableRecord
2
*D27
70
0
280
1
281
0
0
BLOCK_RECORD
5
D7
330
1
100
AcDbSymbolTableRecord
100
AcDbBlockTableRecord
2
*D52
70
0
280
1
281
0
0
BLOCK_RECORD
5
DA
330
1
100
AcDbSymbolTableRecord
100
AcDbBlockTableRecord
2
*D42
70
0
280
1
281
0
0
BLOCK_RECORD
5
DD
330
1
100
AcDbSymbolTableRecord
100
AcDbBlockTableRecord
2
*D56
70
0
280
1
281
0
0
BLOCK_RECORD
5
E0
330
1
100
AcDbSymbolTableRecord
100
AcDbBlockTableRecord
2
*D53
70
0
280
1
281
0
0
BLOCK_RECORD
5
E3
330
1
100
AcDbSymbolTableRecord
100
AcDbBlockTableRecord
2
*D41
70
0
280
1
281
0
0
BLOCK_RECORD
5
E6
330
1
100
AcDbSymbolTableRecord
100
AcDbBlockTableRecord
2
*D18
70
0
280
1
281
0
0
BLOCK_RECORD
5
E9
330
1
100
AcDbSymbolTableRecord
100
AcDbBlockTableRecord
2
*D8
70
0
280
1
281
0
0
BLOCK_RECORD
5
EC
330
1
100
AcDbSymbolTableRecord
100
AcDbBlockTableRecord
2
*D26
70
0
280
1
281
0
0
BLOCK_RECORD
5
EF
330
1
100
AcDbSymbolTableRecord
100
AcDbBlockTableRecord
2
*D5
70
0
280
1
281
0
0
BLOCK_RECORD
5
F2
330
1
100
AcDbSymbolTableRecord
100
AcDbBlockTableRecord
2
*D20
70
0
280
1
281
0
0
BLOCK_RECORD
5
F5
330
1
100
AcDbSymbolTableRecord
100
AcDbBlockTableRecord
2
*D28
70
0
280
1
281
0
0
BLOCK_RECORD
5
F8
330
1
100
AcDbSymbolTableRecord
100
AcDbBlockTableRecord
2
*D39
70
0
280
1
281
0
0
BLOCK_RECORD
5
FB
330
1
100
AcDbSymbolTableRecord
100
AcDbBlockTableRecord
2
*D35
70
0
280
1
281
0
0
BLOCK_RECORD
5
FE
330
1
100
AcDbSymbolTableRecord
100
AcDbBlockTableRecord
2
*D10
70
0
280
1
281
0
0
BLOCK_RECORD
5
101
330
1
100
AcDbSymbolTableRecord
100
AcDbBlockTableRecord
2
*D38
70
0
280
1
281
0
0
BLOCK_RECORD
5
104
330
1
100
AcDbSymbolTableRecord
100
AcDbBlockTableRecord
2
*D33
70
0
280
1
281
0
0
BLOCK_RECORD
5
107
330
1
100
AcDbSymbolTableRecord
100
AcDbBlockTableRecord
2
*D34
70
0
280
1
281
0
0
BLOCK_RECORD
5
10A
330
1
100
AcDbSymbolTableRecord
100
AcDbBlockTableRecord
2
*D45
70
0
280
1
281
0
0
BLOCK_RECORD
5
10D
330
1
100
AcDbSymbolTableRecord
100
AcDbBlockTableRecord
2
a3-0
70
0
280
1
281
0
0
BLOCK_RECORD
5
110
330
1
100
AcDbSymbolTableRecord
100
AcDbBlockTableRecord
2
A3_Xu-0
70
0
280
1
281
0
0
ENDTAB
0
ENDSEC
0
SECTION
2
BLOCKS
0
BLOCK
5
20
330
1F
100
AcDbEntity
8
0
100
AcDbBlockBegin
2
*Model_Space
70
0
10
0
20
0
30
0
3
*Model_Space
1

0
ENDBLK
5
21
330
1F
100
AcDbEntity
8
0
100
AcDbBlockEnd
0
BLOCK
5
1C
330
1B
100
AcDbEntity
8
0
100
AcDbBlockBegin
2
*Paper_Space
70
0
10
0
20
0
30
0
3
*Paper_Space
1

0
ENDBLK
5
1D
330
1F
100
AcDbEntity
8
0
100
AcDbBlockEnd
0
BLOCK
5
4E
330
4D
100
AcDbEntity
8
0
100
AcDbBlockBegin
2
*D19
70
1
10
0
20
0
3
*D19
1

0
LINE
5
113
100
AcDbEntity
8
6_roof_rack_d
6
CONTINUOUS
62
7
370
0
100
AcDbLine
10
5520
20
5600
11
7422
21
5600
0
SOLID
5
114
100
AcDbEntity
8
6_roof_rack_d
6
CONTINUOUS
62
7
370
0
100
AcDbTrace
10
5520
20
5600
30
0
11
5584
21
5610.65688724
31
0
12
5584
22
5589.34311276
32
0
13
5584
23
5589.34311276
33
0
0
SOLID
5
115
100
AcDbEntity
8
6_roof_rack_d
6
CONTINUOUS
62
7
370
0
100
AcDbTrace
10
7422
20
5600
30
0
11
7358
21
5589.34311276
31
0
12
7358
22
5610.65688724
32
0
13
7358
23
5610.65688724
33
0
0
MTEXT
5
116
100
AcDbEntity
8
6_roof_rack_d
6
CONTINUOUS
62
7
370
0
100
AcDbMText
10
6471
20
5652
30
0
40
64
41
163.555555556
71
5
72
1
1
1902
7
standard
210
0
220
0
230
1
50
0
73
2
44
1
0
LINE
5
117
100
AcDbEntity
8
6_roof_rack_d
6
CONTINUOUS
62
7
370
0
100
AcDbLine
10
5520
20
5620.65504837
11
5520
21
5616
0
LINE
5
118
100
AcDbEntity
8
6_roof_rack_d
6
CONTINUOUS
62
7
370
0
100
AcDbLine
10
7422
20
5626.33939026
11
7422
21
5616
0
ENDBLK
5
4F
330
4D
100
AcDbEntity
8
0
100
AcDbBlockEnd
0
BLOCK
5
51
330
50
100
AcDbEntity
8
0
100
AcDbBlockBegin
2
*D2
70
1
10
0
20
0
3
*D2
1

0
LINE
5
119
100
AcDbEntity
8
4_frame_d
6
CONTINUOUS
62
7
370
0
100
AcDbLine
10
600
20
4935
11
600
21
2795
0
SOLID
5
11A
100
AcDbEntity
8
4_frame_d
6
CONTINUOUS
62
7
370
0
100
AcDbTrace
10
600
20
4935
30
0
11
610.656887239
21
4871
31
0
12
589.343112761
22
4871
32
0
13
589.343112761
23
4871
33
0
0
SOLID
5
11B
100
AcDbEntity
8
4_frame_d
6
CONTINUOUS
62
7
370
0
100
AcDbTrace
10
600
20
2795
30
0
11
589.343112761
21
2859
31
0
12
610.656887239
22
2859
32
0
13
610.656887239
23
2859
33
0
0
MTEXT
5
11C
100
AcDbEntity
8
4_frame_d
6
CONTINUOUS
62
7
370
0
100
AcDbMText
10
548
20
3865
30
0
40
64
41
170.666666667
71
5
72
1
1
2140
7
standard
210
0
220
0
230
1
50
90
73
2
44
1
0
LINE
5
11D
100
AcDbEntity
8
4_frame_d
6
CONTINUOUS
62
7
370
0
100
AcDbLine
10
614.614310861
20
4935
11
616
21
4935
0
LINE
5
11E
100
AcDbEntity
8
4_frame_d
6
CONTINUOUS
62
7
370
0
100
AcDbLine
10
602.972778678
20
2795
11
616
21
2795
0
ENDBLK
5
52
330
50
100
AcDbEntity
8
0
100
AcDbBlockEnd
0
BLOCK
5
54
330
53
100
AcDbEntity
8
0
100
AcDbBlockBegin
2
*D25
70
1
10
0
20
0
3
*D25
1

0
LINE
5
11F
100
AcDbEntity
8
4_frame_d
6
CONTINUOUS
62
7
370
0
100
AcDbLine
10
5539.6875
20
2744.375
11
5692.1875
21
2994.375
0
LINE
5
120
100
AcDbEntity
8
4_frame_d
6
CONTINUOUS
62
7
370
0
100
AcDbLine
10
5692.1875
20
2994.375
11
6292.1875
21
2994.375
0
SOLID
5
121
100
AcDbEntity
8
4_frame_d
6
CONTINUOUS
62
7
370
0
100
AcDbTrace
10
5539.6875
20
2744.375
30
0
11
5563.91826582
21
2804.56170313
31
0
12
5582.11391204
22
2793.46235894
32
0
13
5582.11391204
23
2793.46235894
33
0
0
ENDBLK
5
55
330
53
100
AcDbEntity
8
0
100
AcDbBlockEnd
0
BLOCK
5
57
330
56
100
AcDbEntity
8
0
100
AcDbBlockBegin
2
*D24
70
1
10
0
20
0
3
*D24
1

0
LINE
5
122
100
AcDbEntity
8
4_frame_d
6
CONTINUOUS
62
7
370
0
100
AcDbLine
10
3147.5
20
2750
11
3300
21
3000
0
LINE
5
123
100
AcDbEntity
8
4_frame_d
6
CONTINUOUS
62
7
370
0
100
AcDbLine
10
3300
20
3000
11
3900
21
3000
0
SOLID
5
124
100
AcDbEntity
8
4_frame_d
6
CONTINUOUS
62
7
370
0
100
AcDbTrace
10
3147.5
20
2750
30
0
11
3171.73076582
21
2810.18670313
31
0
12
3189.92641204
22
2799.08735894
32
0
13
3189.92641204
23
2799.08735894
33
0
0
ENDBLK
5
58
330
56
100
AcDbEntity
8
0
100
AcDbBlockEnd
0
BLOCK
5
5A
330
59
100
AcDbEntity
8
0
100
AcDbBlockBegin
2
*D9
70
1
10
0
20
0
3
*D9
1

0
LINE
5
125
100
AcDbEntity
8
4_frame_d
6
CONTINUOUS
62
7
370
0
100
AcDbLine
10
1222
20
1900
11
3125
21
1900
0
SOLID
5
126
100
AcDbEntity
8
4_frame_d
6
CONTINUOUS
62
7
370
0
100
AcDbTrace
10
1222
20
1900
30
0
11
1286
21
1910.65688724
31
0
12
1286
22
1889.34311276
32
0
13
1286
23
1889.34311276
33
0
0
SOLID
5
127
100
AcDbEntity
8
4_frame_d
6
CONTINUOUS
62
7
370
0
100
AcDbTrace
10
3125
20
1900
30
0
11
3061
21
1889.34311276
31
0
12
3061
22
1910.65688724
32
0
13
3061
23
1910.65688724
33
0
0
MTEXT
5
128
100
AcDbEntity
8
4_frame_d
6
CONTINUOUS
62
7
370
0
100
AcDbMText
10
2173.5
20
1952
30
0
40
64
41
163.555555556
71
5
72
1
1
1903
7
standard
210
0
220
0
230
1
50
0
73
2
44
1
0
LINE
5
129
100
AcDbEntity
8
4_frame_d
6
CONTINUOUS
62
7
370
0
100
AcDbLine
10
1222
20
1854.25453184
11
1222
21
1884
0
LINE
5
12A
100
AcDbEntity
8
4_frame_d
6
CONTINUOUS
62
7
370
0
100
AcDbLine
10
3125
20
1871.3075575
11
3125
21
1884
0
ENDBLK
5
5B
330
59
100
AcDbEntity
8
0
100
AcDbBlockEnd
0
BLOCK
5
5D
330
5C
100
AcDbEntity
8
0
100
AcDbBlockBegin
2
*D13
70
1
10
0
20
0
3
*D13
1

0
LINE
5
12B
100
AcDbEntity
8
6_roof_rack_d
6
CONTINUOUS
62
7
370
0
100
AcDbLine
10
600
20
4935
11
600
21
2795
0
SOLID
5
12C
100
AcDbEntity
8
6_roof_rack_d
6
CONTINUOUS
62
7
370
0
100
AcDbTrace
10
600
20
4935
30
0
11
610.656887239
21
4871
31
0
12
589.343112761
22
4871
32
0
13
589.343112761
23
4871
33
0
0
SOLID
5
12D
100
AcDbEntity
8
6_roof_rack_d
6
CONTINUOUS
62
7
370
0
100
AcDbTrace
10
600
20
2795
30
0
11
589.343112761
21
2859
31
0
12
610.656887239
22
2859
32
0
13
610.656887239
23
2859
33
0
0
MTEXT
5
12E
100
AcDbEntity
8
6_roof_rack_d
6
CONTINUOUS
62
7
370
0
100
AcDbMText
10
548
20
3865
30
0
40
64
41
170.666666667
71
5
72
1
1
2140
7
standard
210
0
220
0
230
1
50
90
73
2
44
1
0
LINE
5
12F
100
AcDbEntity
8
6_roof_rack_d
6
CONTINUOUS
62
7
370
0
100
AcDbLine
10
614.614310861
20
4935
11
616
21
4935
0
LINE
5
130
100
AcDbEntity
8
6_roof_rack_d
6
CONTINUOUS
62
7
370
0
100
AcDbLine
10
602.972778678
20
2795
11
616
21
2795
0
ENDBLK
5
5E
330
5C
100
AcDbEntity
8
0
100
AcDbBlockEnd
0
BLOCK
5
60
330
5F
100
AcDbEntity
8
0
100
AcDbBlockBegin
2
*D37
70
1
10
0
20
0
3
*D37
1

0
LINE
5
131
100
AcDbEntity
8
6_roof_rack_d
6
CONTINUOUS
62
7
370
0
100
AcDbLine
10
800
20
4479
11
800
21
3249
0
SOLID
5
132
100
AcDbEntity
8
6_roof_rack_d
6
CONTINUOUS
62
7
370
0
100
AcDbTrace
10
800
20
4479
30
0
11
810.656887239
21
4415
31
0
12
789.343112761
22
4415
32
0
13
789.343112761
23
4415
33
0
0
SOLID
5
133
100
AcDbEntity
8
6_roof_rack_d
6
CONTINUOUS
62
7
370
0
100
AcDbTrace
10
800
20
3249
30
0
11
789.343112761
21
3313
31
0
12
810.656887239
22
3313
32
0
13
810.656887239
23
3313
33
0
0
MTEXT
5
134
100
AcDbEntity
8
6_roof_rack_d
6
CONTINUOUS
62
7
370
0
100
AcDbMText
10
748
20
3864
30
0
40
64
41
163.555555556
71
5
72
1
1
1230
7
standard
210
0
220
0
230
1
50
90
73
2
44
1
0
LINE
5
135
100
AcDbEntity
8
6_roof_rack_d
6
CONTINUOUS
62
7
370
0
100
AcDbLine
10
798.584482629
20
4479
11
784
21
4479
0
LINE
5
136
100
AcDbEntity
8
6_roof_rack_d
6
CONTINUOUS
62
7
370
0
100
AcDbLine
10
798.584482629
20
3249
11
784
21
3249
0
ENDBLK
5
61
330
5F
100
AcDbEntity
8
0
100
AcDbBlockEnd
0
BLOCK
5
63
330
62
100
AcDbEntity
8
0
100
AcDbBlockBegin
2
*D61
70
1
10
0
20
0
3
*D61
1

0
LINE
5
137
100
AcDbEntity
8
4_frame_d
6
CONTINUOUS
62
7
370
0
100
AcDbLine
10
6162
20
5400
11
6807
21
5400
0
SOLID
5
138
100
AcDbEntity
8
4_frame_d
6
CONTINUOUS
62
7
370
0
100
AcDbTrace
10
6162
20
5400
30
0
11
6226
21
5410.65688724
31
0
12
6226
22
5389.34311276
32
0
13
6226
23
5389.34311276
33
0
0
SOLID
5
139
100
AcDbEntity
8
4_frame_d
6
CONTINUOUS
62
7
370
0
100
AcDbTrace
10
6807
20
5400
30
0
11
6743
21
5389.34311276
31
0
12
6743
22
5410.65688724
32
0
13
6743
23
5410.65688724
33
0
0
MTEXT
5
13A
100
AcDbEntity
8
4_frame_d
6
CONTINUOUS
62
7
370
0
100
AcDbMText
10
6484.5
20
5452
30
0
40
64
41
135.111111111
71
5
72
1
1
645
7
standard
210
0
220
0
230
1
50
0
73
2
44
1
0
LINE
5
13B
100
AcDbEntity
8
4_frame_d
6
CONTINUOUS
62
7
370
0
100
AcDbLine
10
6162
20
5379.55137402
11
6162
21
5416
0
LINE
5
13C
100
AcDbEntity
8
4_frame_d
6
CONTINUOUS
62
7
370
0
100
AcDbLine
10
6807
20
5392.77606725
11
6807
21
5416
0
ENDBLK
5
64
330
62
100
AcDbEntity
8
0
100
AcDbBlockEnd
0
BLOCK
5
66
330
65
100
AcDbEntity
8
0
100
AcDbBlockBegin
2
*D22
70
1
10
0
20
0
3
*D22
1

0
LINE
5
13D
100
AcDbEntity
8
6_roof_rack_d
6
CONTINUOUS
62
7
370
0
100
AcDbLine
10
5520
20
1900
11
7422
21
1900
0
SOLID
5
13E
100
AcDbEntity
8
6_roof_rack_d
6
CONTINUOUS
62
7
370
0
100
AcDbTrace
10
5520
20
1900
30
0
11
5584
21
1910.65688724
31
0
12
5584
22
1889.34311276
32
0
13
5584
23
1889.34311276
33
0
0
SOLID
5
13F
100
AcDbEntity
8
6_roof_rack_d
6
CONTINUOUS
62
7
370
0
100
AcDbTrace
10
7422
20
1900
30
0
11
7358
21
1889.34311276
31
0
12
7358
22
1910.65688724
32
0
13
7358
23
1910.65688724
33
0
0
MTEXT
5
140
100
AcDbEntity
8
6_roof_rack_d
6
CONTINUOUS
62
7
370
0
100
AcDbMText
10
6471
20
1952
30
0
40
64
41
163.555555556
71
5
72
1
1
1902
7
standard
210
0
220
0
230
1
50
0
73
2
44
1
0
LINE
5
141
100
AcDbEntity
8
6_roof_rack_d
6
CONTINUOUS
62
7
370
0
100
AcDbLine
10
5520
20
1894.04492504
11
5520
21
1884
0
LINE
5
142
100
AcDbEntity
8
6_roof_rack_d
6
CONTINUOUS
62
7
370
0
100
AcDbLine
10
7422
20
1888.36058316
11
7422
21
1884
0
ENDBLK
5
67
330
65
100
AcDbEntity
8
0
100
AcDbBlockEnd
0
BLOCK
5
69
330
68
100
AcDbEntity
8
0
100
AcDbBlockBegin
2
*D23
70
1
10
0
20
0
3
*D23
1

0
LINE
5
143
100
AcDbEntity
8
6_roof_rack_d
6
CONTINUOUS
62
7
370
0
100
AcDbLine
10
5717.5
20
4480
11
5870
21
4200
0
LINE
5
144
100
AcDbEntity
8
6_roof_rack_d
6
CONTINUOUS
62
7
370
0
100
AcDbLine
10
5870
20
4200
11
6570
21
4200
0
SOLID
5
145
100
AcDbEntity
8
6_roof_rack_d
6
CONTINUOUS
62
7
370
0
100
AcDbTrace
10
5717.5
20
4480
30
0
11
5757.47019631
21
4428.89273385
31
0
12
5738.75254489
22
4418.69829871
32
0
13
5738.75254489
23
4418.69829871
33
0
0
ENDBLK
5
6A
330
68
100
AcDbEntity
8
0
100
AcDbBlockEnd
0
BLOCK
5
6C
330
6B
100
AcDbEntity
8
0
100
AcDbBlockBegin
2
*D48
70
1
10
0
20
0
3
*D48
1

0
LINE
5
146
100
AcDbEntity
8
4_frame_d
6
CONTINUOUS
62
7
370
0
100
AcDbLine
10
800
20
3249
11
800
21
2812
0
SOLID
5
147
100
AcDbEntity
8
4_frame_d
6
CONTINUOUS
62
7
370
0
100
AcDbTrace
10
800
20
3249
30
0
11
810.656887239
21
3185
31
0
12
789.343112761
22
3185
32
0
13
789.343112761
23
3185
33
0
0
SOLID
5
148
100
AcDbEntity
8
4_frame_d
6
CONTINUOUS
62
7
370
0
100
AcDbTrace
10
800
20
2812
30
0
11
789.343112761
21
2876
31
0
12
810.656887239
22
2876
32
0
13
810.656887239
23
2876
33
0
0
MTEXT
5
149
100
AcDbEntity
8
4_frame_d
6
CONTINUOUS
62
7
370
0
100
AcDbMText
10
748
20
3030.5
30
0
40
64
41
135.111111111
71
5
72
1
1
437
7
standard
210
0
220
0
230
1
50
90
73
2
44
1
0
LINE
5
14A
100
AcDbEntity
8
4_frame_d
6
CONTINUOUS
62
7
370
0
100
AcDbLine
10
798.584482629
20
3249
11
784
21
3249
0
LINE
5
14B
100
AcDbEntity
8
4_frame_d
6
CONTINUOUS
62
7
370
0
100
AcDbLine
10
804.094771477
20
2812
11
784
21
2812
0
ENDBLK
5
6D
330
6B
100
AcDbEntity
8
0
100
AcDbBlockEnd
0
BLOCK
5
6F
330
6E
100
AcDbEntity
8
0
100
AcDbBlockBegin
2
*D7
70
1
10
0
20
0
3
*D7
1

0
LINE
5
14C
100
AcDbEntity
8
4_frame_d
6
CONTINUOUS
62
7
370
0
100
AcDbLine
10
3125
20
5600
11
5520
21
5600
0
SOLID
5
14D
100
AcDbEntity
8
4_frame_d
6
CONTINUOUS
62
7
370
0
100
AcDbTrace
10
3125
20
5600
30
0
11
3189
21
5610.65688724
31
0
12
3189
22
5589.34311276
32
0
13
3189
23
5589.34311276
33
0
0
SOLID
5
14E
100
AcDbEntity
8
4_frame_d
6
CONTINUOUS
62
7
370
0
100
AcDbTrace
10
5520
20
5600
30
0
11
5456
21
5589.34311276
31
0
12
5456
22
5610.65688724
32
0
13
5456
23
5610.65688724
33
0
0
MTEXT
5
14F
100
AcDbEntity
8
4_frame_d
6
CONTINUOUS
62
7
370
0
100
AcDbMText
10
4322.5
20
5652
30
0
40
64
41
177.777777778
71
5
72
1
1
2395
7
standard
210
0
220
0
230
1
50
0
73
2
44
1
0
LINE
5
150
100
AcDbEntity
8
4_frame_d
6
CONTINUOUS
62
7
370
0
100
AcDbLine
10
3125
20
5643.39241592
11
3125
21
5616
0
LINE
5
151
100
AcDbEntity
8
4_frame_d
6
CONTINUOUS
62
7
370
0
100
AcDbLine
10
5520
20
5649.0767578
11
5520
21
5616
0
ENDBLK
5
70
330
6E
100
AcDbEntity
8
0
100
AcDbBlockEnd
0
BLOCK
5
72
330
71
100
AcDbEntity
8
0
100
AcDbBlockBegin
2
*D14
70
1
10
0
20
0
3
*D14
1

0
ENDBLK
5
73
330
71
100
AcDbEntity
8
0
100
AcDbBlockEnd
0
BLOCK
5
75
330
74
100
AcDbEntity
8
0
100
AcDbBlockBegin
2
*D49
70
1
10
0
20
0
3
*D49
1

0
LINE
5
152
100
AcDbEntity
8
4_frame_d
6
CONTINUOUS
62
7
370
0
100
AcDbLine
10
7800
20
2812
11
7800
21
3249
0
SOLID
5
153
100
AcDbEntity
8
4_frame_d
6
CONTINUOUS
62
7
370
0
100
AcDbTrace
10
7800
20
2812
30
0
11
7789.34311276
21
2876
31
0
12
7810.65688724
22
2876
32
0
13
7810.65688724
23
2876
33
0
0
SOLID
5
154
100
AcDbEntity
8
4_frame_d
6
CONTINUOUS
62
7
370
0
100
AcDbTrace
10
7800
20
3249
30
0
11
7810.65688724
21
3185
31
0
12
7789.34311276
22
3185
32
0
13
7789.34311276
23
3185
33
0
0
MTEXT
5
155
100
AcDbEntity
8
4_frame_d
6
CONTINUOUS
62
7
370
0
100
AcDbMText
10
7748
20
3030.5
30
0
40
64
41
135.111111111
71
5
72
1
1
437
7
standard
210
0
220
0
230
1
50
90
73
2
44
1
0
LINE
5
156
100
AcDbEntity
8
4_frame_d
6
CONTINUOUS
62
7
370
0
100
AcDbLine
10
7813.99698717
20
2812
11
7816
21
2812
0
LINE
5
157
100
AcDbEntity
8
4_frame_d
6
CONTINUOUS
62
7
370
0
100
AcDbLine
10
7813.99698717
20
3249
11
7816
21
3249
0
ENDBLK
5
76
330
74
100
AcDbEntity
8
0
100
AcDbBlockEnd
0
BLOCK
5
78
330
77
100
AcDbEntity
8
0
100
AcDbBlockBegin
2
*D30
70
1
10
0
20
0
3
*D30
1

0
LINE
5
158
100
AcDbEntity
8
4_frame_d
6
CONTINUOUS
62
7
370
0
100
AcDbLine
10
3820
20
2100
11
4825
21
2100
0
SOLID
5
159
100
AcDbEntity
8
4_frame_d
6
CONTINUOUS
62
7
370
0
100
AcDbTrace
10
3820
20
2100
30
0
11
3884
21
2110.65688724
31
0
12
3884
22
2089.34311276
32
0
13
3884
23
2089.34311276
33
0
0
SOLID
5
15A
100
AcDbEntity
8
4_frame_d
6
CONTINUOUS
62
7
370
0
100
AcDbTrace
10
4825
20
2100
30
0
11
4761
21
2089.34311276
31
0
12
4761
22
2110.65688724
32
0
13
4761
23
2110.65688724
33
0
0
MTEXT
5
15B
100
AcDbEntity
8
4_frame_d
6
CONTINUOUS
62
7
370
0
100
AcDbMText
10
4322.5
20
2152
30
0
40
64
41
163.555555556
71
5
72
1
1
1005
7
standard
210
0
220
0
230
1
50
0
73
2
44
1
0
LINE
5
15C
100
AcDbEntity
8
4_frame_d
6
CONTINUOUS
62
7
370
0
100
AcDbLine
10
3820
20
2077.12120483
11
3820
21
2084
0
LINE
5
15D
100
AcDbEntity
8
4_frame_d
6
CONTINUOUS
62
7
370
0
100
AcDbLine
10
4825
20
2082.82394265
11
4825
21
2084
0
ENDBLK
5
79
330
77
100
AcDbEntity
8
0
100
AcDbBlockEnd
0
BLOCK
5
7B
330
7A
100
AcDbEntity
8
0
100
AcDbBlockBegin
2
*D6
70
1
10
0
20
0
3
*D6
1

0
LINE
5
15E
100
AcDbEntity
8
4_frame_d
6
CONTINUOUS
62
7
370
0
100
AcDbLine
10
1222
20
5600
11
3125
21
5600
0
SOLID
5
15F
100
AcDbEntity
8
4_frame_d
6
CONTINUOUS
62
7
370
0
100
AcDbTrace
10
1222
20
5600
30
0
11
1286
21
5610.65688724
31
0
12
1286
22
5589.34311276
32
0
13
1286
23
5589.34311276
33
0
0
SOLID
5
160
100
AcDbEntity
8
4_frame_d
6
CONTINUOUS
62
7
370
0
100
AcDbTrace
10
3125
20
5600
30
0
11
3061
21
5589.34311276
31
0
12
3061
22
5610.65688724
32
0
13
3061
23
5610.65688724
33
0
0
MTEXT
5
161
100
AcDbEntity
8
4_frame_d
6
CONTINUOUS
62
7
370
0
100
AcDbMText
10
2173.5
20
5652
30
0
40
64
41
163.555555556
71
5
72
1
1
1903
7
standard
210
0
220
0
230
1
50
0
73
2
44
1
0
LINE
5
162
100
AcDbEntity
8
4_frame_d
6
CONTINUOUS
62
7
370
0
100
AcDbLine
10
1222
20
5643.39241592
11
1222
21
5616
0
LINE
5
163
100
AcDbEntity
8
4_frame_d
6
CONTINUOUS
62
7
370
0
100
AcDbLine
10
3125
20
5637.70807403
11
3125
21
5616
0
ENDBLK
5
7C
330
7A
100
AcDbEntity
8
0
100
AcDbBlockEnd
0
BLOCK
5
7E
330
7D
100
AcDbEntity
8
0
100
AcDbBlockBegin
2
*D51
70
1
10
0
20
0
3
*D51
1

0
LINE
5
164
100
AcDbEntity
8
4_frame_d
6
CONTINUOUS
62
7
370
0
100
AcDbLine
10
7800
20
3864
11
7800
21
4479
0
SOLID
5
165
100
AcDbEntity
8
4_frame_d
6
CONTINUOUS
62
7
370
0
100
AcDbTrace
10
7800
20
3864
30
0
11
7789.34311276
21
3928
31
0
12
7810.65688724
22
3928
32
0
13
7810.65688724
23
3928
33
0
0
SOLID
5
166
100
AcDbEntity
8
4_frame_d
6
CONTINUOUS
62
7
370
0
100
AcDbTrace
10
7800
20
4479
30
0
11
7810.65688724
21
4415
31
0
12
7789.34311276
22
4415
32
0
13
7789.34311276
23
4415
33
0
0
MTEXT
5
167
100
AcDbEntity
8
4_frame_d
6
CONTINUOUS
62
7
370
0
100
AcDbMText
10
7748
20
4171.5
30
0
40
64
41
113.777777778
71
5
72
1
1
615
7
standard
210
0
220
0
230
1
50
90
73
2
44
1
0
LINE
5
168
100
AcDbEntity
8
4_frame_d
6
CONTINUOUS
62
7
370
0
100
AcDbLine
10
7808.48669832
20
3864
11
7816
21
3864
0
LINE
5
169
100
AcDbEntity
8
4_frame_d
6
CONTINUOUS
62
7
370
0
100
AcDbLine
10
7813.99698717
20
4479
11
7816
21
4479
0
ENDBLK
5
7F
330
7D
100
AcDbEntity
8
0
100
AcDbBlockEnd
0
BLOCK
5
81
330
80
100
AcDbEntity
8
0
100
AcDbBlockBegin
2
*D36
70
1
10
0
20
0
3
*D36
1

0
LINE
5
16A
100
AcDbEntity
8
6_roof_rack_d
6
CONTINUOUS
62
7
370
0
100
AcDbLine
10
800
20
4917
11
800
21
4479
0
SOLID
5
16B
100
AcDbEntity
8
6_roof_rack_d
6
CONTINUOUS
62
7
370
0
100
AcDbTrace
10
800
20
4917
30
0
11
810.656887239
21
4853
31
0
12
789.343112761
22
4853
32
0
13
789.343112761
23
4853
33
0
0
SOLID
5
16C
100
AcDbEntity
8
6_roof_rack_d
6
CONTINUOUS
62
7
370
0
100
AcDbTrace
10
800
20
4479
30
0
11
789.343112761
21
4543
31
0
12
810.656887239
22
4543
32
0
13
810.656887239
23
4543
33
0
0
MTEXT
5
16D
100
AcDbEntity
8
6_roof_rack_d
6
CONTINUOUS
62
7
370
0
100
AcDbMText
10
748
20
4698
30
0
40
64
41
135.111111111
71
5
72
1
1
438
7
standard
210
0
220
0
230
1
50
90
73
2
44
1
0
LINE
5
16E
100
AcDbEntity
8
6_roof_rack_d
6
CONTINUOUS
62
7
370
0
100
AcDbLine
10
798.584482629
20
4917
11
784
21
4917
0
LINE
5
16F
100
AcDbEntity
8
6_roof_rack_d
6
CONTINUOUS
62
7
370
0
100
AcDbLine
10
798.584482629
20
4479
11
784
21
4479
0
ENDBLK
5
82
330
80
100
AcDbEntity
8
0
100
AcDbBlockEnd
0
BLOCK
5
84
330
83
100
AcDbEntity
8
0
100
AcDbBlockBegin
2
*D46
70
1
10
0
20
0
3
*D46
1

0
LINE
5
170
100
AcDbEntity
8
4_frame_d
6
CONTINUOUS
62
7
370
0
100
AcDbLine
10
800
20
4479
11
800
21
3864
0
SOLID
5
171
100
AcDbEntity
8
4_frame_d
6
CONTINUOUS
62
7
370
0
100
AcDbTrace
10
800
20
4479
30
0
11
810.656887239
21
4415
31
0
12
789.343112761
22
4415
32
0
13
789.343112761
23
4415
33
0
0
SOLID
5
172
100
AcDbEntity
8
4_frame_d
6
CONTINUOUS
62
7
370
0
100
AcDbTrace
10
800
20
3864
30
0
11
789.343112761
21
3928
31
0
12
810.656887239
22
3928
32
0
13
810.656887239
23
3928
33
0
0
MTEXT
5
173
100
AcDbEntity
8
4_frame_d
6
CONTINUOUS
62
7
370
0
100
AcDbMText
10
748
20
4171.5
30
0
40
64
41
113.777777778
71
5
72
1
1
615
7
standard
210
0
220
0
230
1
50
90
73
2
44
1
0
LINE
5
174
100
AcDbEntity
8
4_frame_d
6
CONTINUOUS
62
7
370
0
100
AcDbLine
10
804.094771477
20
4479
11
784
21
4479
0
LINE
5
175
100
AcDbEntity
8
4_frame_d
6
CONTINUOUS
62
7
370
0
100
AcDbLine
10
798.584482629
20
3864
11
784
21
3864
0
ENDBLK
5
85
330
83
100
AcDbEntity
8
0
100
AcDbBlockEnd
0
BLOCK
5
87
330
86
100
AcDbEntity
8
0
100
AcDbBlockBegin
2
*D4
70
1
10
0
20
0
3
*D4
1

0
LINE
5
176
100
AcDbEntity
8
4_frame_d
6
CONTINUOUS
62
7
370
0
100
AcDbLine
10
3147.5
20
4980
11
3300
21
4700
0
LINE
5
177
100
AcDbEntity
8
4_frame_d
6
CONTINUOUS
62
7
370
0
100
AcDbLine
10
3300
20
4700
11
4000
21
4700
0
SOLID
5
178
100
AcDbEntity
8
4_frame_d
6
CONTINUOUS
62
7
370
0
100
AcDbTrace
10
3147.5
20
4980
30
0
11
3187.47019631
21
4928.89273385
31
0
12
3168.75254489
22
4918.69829871
32
0
13
3168.75254489
23
4918.69829871
33
0
0
ENDBLK
5
88
330
86
100
AcDbEntity
8
0
100
AcDbBlockEnd
0
BLOCK
5
8A
330
89
100
AcDbEntity
8
0
100
AcDbBlockBegin
2
*D16
70
1
10
0
20
0
3
*D16
1

0
LINE
5
179
100
AcDbEntity
8
6_roof_rack_d
6
CONTINUOUS
62
7
370
0
100
AcDbLine
10
3147.5
20
2750
11
3300
21
2470
0
LINE
5
17A
100
AcDbEntity
8
6_roof_rack_d
6
CONTINUOUS
62
7
370
0
100
AcDbLine
10
3300
20
2470
11
4000
21
2470
0
SOLID
5
17B
100
AcDbEntity
8
6_roof_rack_d
6
CONTINUOUS
62
7
370
0
100
AcDbTrace
10
3147.5
20
2750
30
0
11
3187.47019631
21
2698.89273385
31
0
12
3168.75254489
22
2688.69829871
32
0
13
3168.75254489
23
2688.69829871
33
0
0
ENDBLK
5
8B
330
89
100
AcDbEntity
8
0
100
AcDbBlockEnd
0
BLOCK
5
8D
330
8C
100
AcDbEntity
8
0
100
AcDbBlockBegin
2
*D59
70
1
10
0
20
0
3
*D59
1

0
LINE
5
17C
100
AcDbEntity
8
4_frame_d
6
CONTINUOUS
62
7
370
0
100
AcDbLine
10
4877
20
5400
11
5520
21
5400
0
SOLID
5
17D
100
AcDbEntity
8
4_frame_d
6
CONTINUOUS
62
7
370
0
100
AcDbTrace
10
4877
20
5400
30
0
11
4941
21
5410.65688724
31
0
12
4941
22
5389.34311276
32
0
13
4941
23
5389.34311276
33
0
0
SOLID
5
17E
100
AcDbEntity
8
4_frame_d
6
CONTINUOUS
62
7
370
0
100
AcDbTrace
10
5520
20
5400
30
0
11
5456
21
5389.34311276
31
0
12
5456
22
5410.65688724
32
0
13
5456
23
5410.65688724
33
0
0
MTEXT
5
17F
100
AcDbEntity
8
4_frame_d
6
CONTINUOUS
62
7
370
0
100
AcDbMText
10
5198.5
20
5452
30
0
40
64
41
135.111111111
71
5
72
1
1
643
7
standard
210
0
220
0
230
1
50
0
73
2
44
1
0
LINE
5
180
100
AcDbEntity
8
4_frame_d
6
CONTINUOUS
62
7
370
0
100
AcDbLine
10
4877
20
5375.14314294
11
4877
21
5416
0
LINE
5
181
100
AcDbEntity
8
4_frame_d
6
CONTINUOUS
62
7
370
0
100
AcDbLine
10
5520
20
5375.14314294
11
5520
21
5416
0
ENDBLK
5
8E
330
8C
100
AcDbEntity
8
0
100
AcDbBlockEnd
0
BLOCK
5
90
330
8F
100
AcDbEntity
8
0
100
AcDbBlockBegin
2
*D32
70
1
10
0
20
0
3
*D32
1

0
LINE
5
182
100
AcDbEntity
8
4_frame_d
6
CONTINUOUS
62
7
370
0
100
AcDbLine
10
5520
20
2100
11
6595
21
2100
0
SOLID
5
183
100
AcDbEntity
8
4_frame_d
6
CONTINUOUS
62
7
370
0
100
AcDbTrace
10
5520
20
2100
30
0
11
5584
21
2110.65688724
31
0
12
5584
22
2089.34311276
32
0
13
5584
23
2089.34311276
33
0
0
SOLID
5
184
100
AcDbEntity
8
4_frame_d
6
CONTINUOUS
62
7
370
0
100
AcDbTrace
10
6595
20
2100
30
0
11
6531
21
2089.34311276
31
0
12
6531
22
2110.65688724
32
0
13
6531
23
2110.65688724
33
0
0
MTEXT
5
185
100
AcDbEntity
8
4_frame_d
6
CONTINUOUS
62
7
370
0
100
AcDbMText
10
6057.5
20
2152
30
0
40
64
41
163.555555556
71
5
72
1
1
1075
7
standard
210
0
220
0
230
1
50
0
73
2
44
1
0
LINE
5
186
100
AcDbEntity
8
4_frame_d
6
CONTINUOUS
62
7
370
0
100
AcDbLine
10
5520
20
2094.22941828
11
5520
21
2084
0
LINE
5
187
100
AcDbEntity
8
4_frame_d
6
CONTINUOUS
62
7
370
0
100
AcDbLine
10
6595
20
2094.22941828
11
6595
21
2084
0
ENDBLK
5
91
330
8F
100
AcDbEntity
8
0
100
AcDbBlockEnd
0
BLOCK
5
93
330
92
100
AcDbEntity
8
0
100
AcDbBlockBegin
2
*D44
70
1
10
0
20
0
3
*D44
1

0
LINE
5
188
100
AcDbEntity
8
6_roof_rack_d
6
CONTINUOUS
62
7
370
0
100
AcDbLine
10
1330.35533906
20
4361.64466094
11
1569.80808363
21
4122.19191637
0
LINE
5
189
100
AcDbEntity
8
6_roof_rack_d
6
CONTINUOUS
62
7
370
0
100
AcDbLine
10
1868.35533906
20
4899.64466094
11
2107.80808363
21
4660.19191637
0
LINE
5
18A
100
AcDbEntity
8
6_roof_rack_d
6
CONTINUOUS
62
7
370
0
100
AcDbLine
10
1558.49437513
20
4133.50562487
11
2096.49437513
21
4671.50562487
0
SOLID
5
18B
100
AcDbEntity
8
6_roof_rack_d
6
CONTINUOUS
62
7
370
0
100
AcDbTrace
10
1558.49437513
20
4133.50562487
30
0
11
1596.21365189
21
4186.2960161
31
0
12
1611.28476636
22
4171.22490163
32
0
13
1611.28476636
23
4171.22490163
33
0
0
SOLID
5
18C
100
AcDbEntity
8
6_roof_rack_d
6
CONTINUOUS
62
7
370
0
100
AcDbTrace
10
2096.49437513
20
4671.50562487
30
0
11
2058.77509837
21
4618.71523364
31
0
12
2043.7039839
22
4633.78634811
32
0
13
2043.7039839
23
4633.78634811
33
0
0
MTEXT
5
18D
100
AcDbEntity
8
6_roof_rack_d
6
CONTINUOUS
62
7
370
0
100
AcDbMText
10
1790.72482251
20
4439.27517749
30
0
40
64
41
128
71
5
72
1
1
760
7
standard
210
0
220
0
230
1
50
45
73
2
44
1
0
ENDBLK
5
94
330
92
100
AcDbEntity
8
0
100
AcDbBlockEnd
0
BLOCK
5
96
330
95
100
AcDbEntity
8
0
100
AcDbBlockBegin
2
*D29
70
1
10
0
20
0
3
*D29
1

0
LINE
5
18E
100
AcDbEntity
8
4_frame_d
6
CONTINUOUS
62
7
370
0
100
AcDbLine
10
3125
20
2100
11
3820
21
2100
0
SOLID
5
18F
100
AcDbEntity
8
4_frame_d
6
CONTINUOUS
62
7
370
0
100
AcDbTrace
10
3125
20
2100
30
0
11
3189
21
2110.65688724
31
0
12
3189
22
2089.34311276
32
0
13
3189
23
2089.34311276
33
0
0
SOLID
5
190
100
AcDbEntity
8
4_frame_d
6
CONTINUOUS
62
7
370
0
100
AcDbTrace
10
3820
20
2100
30
0
11
3756
21
2089.34311276
31
0
12
3756
22
2110.65688724
32
0
13
3756
23
2110.65688724
33
0
0
MTEXT
5
191
100
AcDbEntity
8
4_frame_d
6
CONTINUOUS
62
7
370
0
100
AcDbMText
10
3472.5
20
2152
30
0
40
64
41
128
71
5
72
1
1
695
7
standard
210
0
220
0
230
1
50
0
73
2
44
1
0
LINE
5
192
100
AcDbEntity
8
4_frame_d
6
CONTINUOUS
62
7
370
0
100
AcDbLine
10
3125
20
2088.52668046
11
3125
21
2084
0
LINE
5
193
100
AcDbEntity
8
4_frame_d
6
CONTINUOUS
62
7
370
0
100
AcDbLine
10
3820
20
2088.52668046
11
3820
21
2084
0
ENDBLK
5
97
330
95
100
AcDbEntity
8
0
100
AcDbBlockEnd
0
BLOCK
5
99
330
98
100
AcDbEntity
8
0
100
AcDbBlockBegin
2
*D31
70
1
10
0
20
0
3
*D31
1

0
LINE
5
194
100
AcDbEntity
8
4_frame_d
6
CONTINUOUS
62
7
370
0
100
AcDbLine
10
4825
20
2100
11
5520
21
2100
0
SOLID
5
195
100
AcDbEntity
8
4_frame_d
6
CONTINUOUS
62
7
370
0
100
AcDbTrace
10
4825
20
2100
30
0
11
4889
21
2110.65688724
31
0
12
4889
22
2089.34311276
32
0
13
4889
23
2089.34311276
33
0
0
SOLID
5
196
100
AcDbEntity
8
4_frame_d
6
CONTINUOUS
62
7
370
0
100
AcDbTrace
10
5520
20
2100
30
0
11
5456
21
2089.34311276
31
0
12
5456
22
2110.65688724
32
0
13
5456
23
2110.65688724
33
0
0
MTEXT
5
197
100
AcDbEntity
8
4_frame_d
6
CONTINUOUS
62
7
370
0
100
AcDbMText
10
5172.5
20
2152
30
0
40
64
41
128
71
5
72
1
1
695
7
standard
210
0
220
0
230
1
50
0
73
2
44
1
0
LINE
5
198
100
AcDbEntity
8
4_frame_d
6
CONTINUOUS
62
7
370
0
100
AcDbLine
10
4825
20
2082.82394265
11
4825
21
2084
0
LINE
5
199
100
AcDbEntity
8
4_frame_d
6
CONTINUOUS
62
7
370
0
100
AcDbLine
10
5520
20
2094.22941828
11
5520
21
2084
0
ENDBLK
5
9A
330
98
100
AcDbEntity
8
0
100
AcDbBlockEnd
0
BLOCK
5
9C
330
9B
100
AcDbEntity
8
0
100
AcDbBlockBegin
2
*D58
70
1
10
0
20
0
3
*D58
1

0
LINE
5
19A
100
AcDbEntity
8
4_frame_d
6
CONTINUOUS
62
7
370
0
100
AcDbLine
10
4322
20
5400
11
4877
21
5400
0
SOLID
5
19B
100
AcDbEntity
8
4_frame_d
6
CONTINUOUS
62
7
370
0
100
AcDbTrace
10
4322
20
5400
30
0
11
4386
21
5410.65688724
31
0
12
4386
22
5389.34311276
32
0
13
4386
23
5389.34311276
33
0
0
SOLID
5
19C
100
AcDbEntity
8
4_frame_d
6
CONTINUOUS
62
7
370
0
100
AcDbTrace
10
4877
20
5400
30
0
11
4813
21
5389.34311276
31
0
12
4813
22
5410.65688724
32
0
13
4813
23
5410.65688724
33
0
0
MTEXT
5
19D
100
AcDbEntity
8
4_frame_d
6
CONTINUOUS
62
7
370
0
100
AcDbMText
10
4599.5
20
5452
30
0
40
64
41
128
71
5
72
1
1
555
7
standard
210
0
220
0
230
1
50
0
73
2
44
1
0
LINE
5
19E
100
AcDbEntity
8
4_frame_d
6
CONTINUOUS
62
7
370
0
100
AcDbLine
10
4322
20
5388.36783618
11
4322
21
5416
0
LINE
5
19F
100
AcDbEntity
8
4_frame_d
6
CONTINUOUS
62
7
370
0
100
AcDbLine
10
4877
20
5383.9596051
11
4877
21
5416
0
ENDBLK
5
9D
330
9B
100
AcDbEntity
8
0
100
AcDbBlockEnd
0
BLOCK
5
9F
330
9E
100
AcDbEntity
8
0
100
AcDbBlockBegin
2
*D12
70
1
10
0
20
0
3
*D12
1

0
LINE
5
1A0
100
AcDbEntity
8
6_roof_rack_d
6
CONTINUOUS
62
7
370
0
100
AcDbLine
10
8000
20
4935
11
8000
21
2795
0
SOLID
5
1A1
100
AcDbEntity
8
6_roof_rack_d
6
CONTINUOUS
62
7
370
0
100
AcDbTrace
10
8000
20
4935
30
0
11
8010.65688724
21
4871
31
0
12
7989.34311276
22
4871
32
0
13
7989.34311276
23
4871
33
0
0
SOLID
5
1A2
100
AcDbEntity
8
6_roof_rack_d
6
CONTINUOUS
62
7
370
0
100
AcDbTrace
10
8000
20
2795
30
0
11
7989.34311276
21
2859
31
0
12
8010.65688724
22
2859
32
0
13
8010.65688724
23
2859
33
0
0
MTEXT
5
1A3
100
AcDbEntity
8
6_roof_rack_d
6
CONTINUOUS
62
7
370
0
100
AcDbMText
10
7948
20
3865
30
0
40
64
41
170.666666667
71
5
72
1
1
2140
7
standard
210
0
220
0
230
1
50
90
73
2
44
1
0
LINE
5
1A4
100
AcDbEntity
8
6_roof_rack_d
6
CONTINUOUS
62
7
370
0
100
AcDbLine
10
7998.25609773
20
4935
11
8016
21
4935
0
LINE
5
1A5
100
AcDbEntity
8
6_roof_rack_d
6
CONTINUOUS
62
7
370
0
100
AcDbLine
10
7998.25609773
20
2795
11
8016
21
2795
0
ENDBLK
5
A0
330
9E
100
AcDbEntity
8
0
100
AcDbBlockEnd
0
BLOCK
5
A2
330
A1
100
AcDbEntity
8
0
100
AcDbBlockBegin
2
*D40
70
1
10
0
20
0
3
*D40
1

0
LINE
5
1A6
100
AcDbEntity
8
6_roof_rack_d
6
CONTINUOUS
62
7
370
0
100
AcDbLine
10
7900
20
4479
11
7900
21
3249
0
SOLID
5
1A7
100
AcDbEntity
8
6_roof_rack_d
6
CONTINUOUS
62
7
370
0
100
AcDbTrace
10
7900
20
4479
30
0
11
7910.65688724
21
4415
31
0
12
7889.34311276
22
4415
32
0
13
7889.34311276
23
4415
33
0
0
SOLID
5
1A8
100
AcDbEntity
8
6_roof_rack_d
6
CONTINUOUS
62
7
370
0
100
AcDbTrace
10
7900
20
3249
30
0
11
7889.34311276
21
3313
31
0
12
7910.65688724
22
3313
32
0
13
7910.65688724
23
3313
33
0
0
MTEXT
5
1A9
100
AcDbEntity
8
6_roof_rack_d
6
CONTINUOUS
62
7
370
0
100
AcDbMText
10
7848
20
3864
30
0
40
64
41
163.555555556
71
5
72
1
1
1230
7
standard
210
0
220
0
230
1
50
90
73
2
44
1
0
LINE
5
1AA
100
AcDbEntity
8
6_roof_rack_d
6
CONTINUOUS
62
7
370
0
100
AcDbLine
10
7907.67189759
20
4479
11
7916
21
4479
0
LINE
5
1AB
100
AcDbEntity
8
6_roof_rack_d
6
CONTINUOUS
62
7
370
0
100
AcDbLine
10
7902.16160874
20
3249
11
7916
21
3249
0
ENDBLK
5
A3
330
A1
100
AcDbEntity
8
0
100
AcDbBlockEnd
0
BLOCK
5
A5
330
A4
100
AcDbEntity
8
0
100
AcDbBlockBegin
2
*D57
70
1
10
0
20
0
3
*D57
1

0
LINE
5
1AC
100
AcDbEntity
8
4_frame_d
6
CONTINUOUS
62
7
370
0
100
AcDbLine
10
3767
20
5400
11
4322
21
5400
0
SOLID
5
1AD
100
AcDbEntity
8
4_frame_d
6
CONTINUOUS
62
7
370
0
100
AcDbTrace
10
3767
20
5400
30
0
11
3831
21
5410.65688724
31
0
12
3831
22
5389.34311276
32
0
13
3831
23
5389.34311276
33
0
0
SOLID
5
1AE
100
AcDbEntity
8
4_frame_d
6
CONTINUOUS
62
7
370
0
100
AcDbTrace
10
4322
20
5400
30
0
11
4258
21
5389.34311276
31
0
12
4258
22
5410.65688724
32
0
13
4258
23
5410.65688724
33
0
0
MTEXT
5
1AF
100
AcDbEntity
8
4_frame_d
6
CONTINUOUS
62
7
370
0
100
AcDbMText
10
4044.5
20
5452
30
0
40
64
41
128
71
5
72
1
1
555
7
standard
210
0
220
0
230
1
50
0
73
2
44
1
0
LINE
5
1B0
100
AcDbEntity
8
4_frame_d
6
CONTINUOUS
62
7
370
0
100
AcDbLine
10
3767
20
5401.59252941
11
3767
21
5416
0
LINE
5
1B1
100
AcDbEntity
8
4_frame_d
6
CONTINUOUS
62
7
370
0
100
AcDbLine
10
4322
20
5406.00076049
11
4322
21
5416
0
ENDBLK
5
A6
330
A4
100
AcDbEntity
8
0
100
AcDbBlockEnd
0
BLOCK
5
A8
330
A7
100
AcDbEntity
8
0
100
AcDbBlockBegin
2
*D47
70
1
10
0
20
0
3
*D47
1

0
LINE
5
1B2
100
AcDbEntity
8
4_frame_d
6
CONTINUOUS
62
7
370
0
100
AcDbLine
10
800
20
3864
11
800
21
3249
0
SOLID
5
1B3
100
AcDbEntity
8
4_frame_d
6
CONTINUOUS
62
7
370
0
100
AcDbTrace
10
800
20
3864
30
0
11
810.656887239
21
3800
31
0
12
789.343112761
22
3800
32
0
13
789.343112761
23
3800
33
0
0
SOLID
5
1B4
100
AcDbEntity
8
4_frame_d
6
CONTINUOUS
62
7
370
0
100
AcDbTrace
10
800
20
3249
30
0
11
789.343112761
21
3313
31
0
12
810.656887239
22
3313
32
0
13
810.656887239
23
3313
33
0
0
MTEXT
5
1B5
100
AcDbEntity
8
4_frame_d
6
CONTINUOUS
62
7
370
0
100
AcDbMText
10
748
20
3556.5
30
0
40
64
41
113.777777778
71
5
72
1
1
615
7
standard
210
0
220
0
230
1
50
90
73
2
44
1
0
LINE
5
1B6
100
AcDbEntity
8
4_frame_d
6
CONTINUOUS
62
7
370
0
100
AcDbLine
10
820.625638022
20
3864
11
784
21
3864
0
LINE
5
1B7
100
AcDbEntity
8
4_frame_d
6
CONTINUOUS
62
7
370
0
100
AcDbLine
10
798.584482629
20
3249
11
784
21
3249
0
ENDBLK
5
A9
330
A7
100
AcDbEntity
8
0
100
AcDbBlockEnd
0
BLOCK
5
AB
330
AA
100
AcDbEntity
8
0
100
AcDbBlockBegin
2
*D63
70
1
10
0
20
0
3
*D63
1

0
LINE
5
1B8
100
AcDbEntity
8
4_frame_d
6
CONTINUOUS
62
7
370
0
100
AcDbLine
10
3837.5
20
2750
11
5100
21
3400
0
LINE
5
1B9
100
AcDbEntity
8
4_frame_d
6
CONTINUOUS
62
7
370
0
100
AcDbLine
10
5100
20
3400
11
6200
21
3400
0
SOLID
5
1BA
100
AcDbEntity
8
4_frame_d
6
CONTINUOUS
62
7
370
0
100
AcDbTrace
10
3837.5
20
2750
30
0
11
3889.52317522
21
2788.7705879
31
0
12
3899.27946531
22
2769.82087059
32
0
13
3899.27946531
23
2769.82087059
33
0
0
ENDBLK
5
AC
330
AA
100
AcDbEntity
8
0
100
AcDbBlockEnd
0
BLOCK
5
AE
330
AD
100
AcDbEntity
8
0
100
AcDbBlockBegin
2
*D21
70
1
10
0
20
0
3
*D21
1

0
LINE
5
1BB
100
AcDbEntity
8
6_roof_rack_d
6
CONTINUOUS
62
7
370
0
100
AcDbLine
10
3125
20
1900
11
5520
21
1900
0
SOLID
5
1BC
100
AcDbEntity
8
6_roof_rack_d
6
CONTINUOUS
62
7
370
0
100
AcDbTrace
10
3125
20
1900
30
0
11
3189
21
1910.65688724
31
0
12
3189
22
1889.34311276
32
0
13
3189
23
1889.34311276
33
0
0
SOLID
5
1BD
100
AcDbEntity
8
6_roof_rack_d
6
CONTINUOUS
62
7
370
0
100
AcDbTrace
10
5520
20
1900
30
0
11
5456
21
1889.34311276
31
0
12
5456
22
1910.65688724
32
0
13
5456
23
1910.65688724
33
0
0
MTEXT
5
1BE
100
AcDbEntity
8
6_roof_rack_d
6
CONTINUOUS
62
7
370
0
100
AcDbMText
10
4322.5
20
1952
30
0
40
64
41
177.777777778
71
5
72
1
1
2395
7
standard
210
0
220
0
230
1
50
0
73
2
44
1
0
LINE
5
1BF
100
AcDbEntity
8
6_roof_rack_d
6
CONTINUOUS
62
7
370
0
100
AcDbLine
10
3125
20
1894.04492504
11
3125
21
1884
0
LINE
5
1C0
100
AcDbEntity
8
6_roof_rack_d
6
CONTINUOUS
62
7
370
0
100
AcDbLine
10
5520
20
1894.04492504
11
5520
21
1884
0
ENDBLK
5
AF
330
AD
100
AcDbEntity
8
0
100
AcDbBlockEnd
0
BLOCK
5
B1
330
B0
100
AcDbEntity
8
0
100
AcDbBlockBegin
2
*D43
70
1
10
0
20
0
3
*D43
1

0
LINE
5
1C1
100
AcDbEntity
8
6_roof_rack_d
6
CONTINUOUS
62
7
370
0
100
AcDbLine
10
3125
20
3900
11
5520
21
3900
0
SOLID
5
1C2
100
AcDbEntity
8
6_roof_rack_d
6
CONTINUOUS
62
7
370
0
100
AcDbTrace
10
3125
20
3900
30
0
11
3189
21
3910.65688724
31
0
12
3189
22
3889.34311276
32
0
13
3189
23
3889.34311276
33
0
0
SOLID
5
1C3
100
AcDbEntity
8
6_roof_rack_d
6
CONTINUOUS
62
7
370
0
100
AcDbTrace
10
5520
20
3900
30
0
11
5456
21
3889.34311276
31
0
12
5456
22
3910.65688724
32
0
13
5456
23
3910.65688724
33
0
0
MTEXT
5
1C4
100
AcDbEntity
8
6_roof_rack_d
6
CONTINUOUS
62
7
370
0
100
AcDbMText
10
4322.5
20
3952
30
0
40
64
41
177.777777778
71
5
72
1
1
2395
7
standard
210
0
220
0
230
1
50
0
73
2
44
1
0
LINE
5
1C5
100
AcDbEntity
8
6_roof_rack_d
6
CONTINUOUS
62
7
370
0
100
AcDbLine
10
3125
20
3917.40797073
11
3125
21
3884
0
LINE
5
1C6
100
AcDbEntity
8
6_roof_rack_d
6
CONTINUOUS
62
7
370
0
100
AcDbLine
10
5520
20
3917.40797073
11
5520
21
3884
0
ENDBLK
5
B2
330
B0
100
AcDbEntity
8
0
100
AcDbBlockEnd
0
BLOCK
5
B4
330
B3
100
AcDbEntity
8
0
100
AcDbBlockBegin
2
*D50
70
1
10
0
20
0
3
*D50
1

0
LINE
5
1C7
100
AcDbEntity
8
4_frame_d
6
CONTINUOUS
62
7
370
0
100
AcDbLine
10
7800
20
3249
11
7800
21
3864
0
SOLID
5
1C8
100
AcDbEntity
8
4_frame_d
6
CONTINUOUS
62
7
370
0
100
AcDbTrace
10
7800
20
3249
30
0
11
7789.34311276
21
3313
31
0
12
7810.65688724
22
3313
32
0
13
7810.65688724
23
3313
33
0
0
SOLID
5
1C9
100
AcDbEntity
8
4_frame_d
6
CONTINUOUS
62
7
370
0
100
AcDbTrace
10
7800
20
3864
30
0
11
7810.65688724
21
3800
31
0
12
7789.34311276
22
3800
32
0
13
7789.34311276
23
3800
33
0
0
MTEXT
5
1CA
100
AcDbEntity
8
4_frame_d
6
CONTINUOUS
62
7
370
0
100
AcDbMText
10
7748
20
3556.5
30
0
40
64
41
113.777777778
71
5
72
1
1
615
7
standard
210
0
220
0
230
1
50
90
73
2
44
1
0
LINE
5
1CB
100
AcDbEntity
8
4_frame_d
6
CONTINUOUS
62
7
370
0
100
AcDbLine
10
7813.99698717
20
3249
11
7816
21
3249
0
LINE
5
1CC
100
AcDbEntity
8
4_frame_d
6
CONTINUOUS
62
7
370
0
100
AcDbLine
10
7808.48669832
20
3864
11
7816
21
3864
0
ENDBLK
5
B5
330
B3
100
AcDbEntity
8
0
100
AcDbBlockEnd
0
BLOCK
5
B7
330
B6
100
AcDbEntity
8
0
100
AcDbBlockBegin
2
*D17
70
1
10
0
20
0
3
*D17
1

0
LINE
5
1CD
100
AcDbEntity
8
6_roof_rack_d
6
CONTINUOUS
62
7
370
0
100
AcDbLine
10
1222
20
5600
11
3125
21
5600
0
SOLID
5
1CE
100
AcDbEntity
8
6_roof_rack_d
6
CONTINUOUS
62
7
370
0
100
AcDbTrace
10
1222
20
5600
30
0
11
1286
21
5610.65688724
31
0
12
1286
22
5589.34311276
32
0
13
1286
23
5589.34311276
33
0
0
SOLID
5
1CF
100
AcDbEntity
8
6_roof_rack_d
6
CONTINUOUS
62
7
370
0
100
AcDbTrace
10
3125
20
5600
30
0
11
3061
21
5589.34311276
31
0
12
3061
22
5610.65688724
32
0
13
3061
23
5610.65688724
33
0
0
MTEXT
5
1D0
100
AcDbEntity
8
6_roof_rack_d
6
CONTINUOUS
62
7
370
0
100
AcDbMText
10
2173.5
20
5652
30
0
40
64
41
163.555555556
71
5
72
1
1
1903
7
standard
210
0
220
0
230
1
50
0
73
2
44
1
0
LINE
5
1D1
100
AcDbEntity
8
6_roof_rack_d
6
CONTINUOUS
62
7
370
0
100
AcDbLine
10
1222
20
5643.39241592
11
1222
21
5616
0
LINE
5
1D2
100
AcDbEntity
8
6_roof_rack_d
6
CONTINUOUS
62
7
370
0
100
AcDbLine
10
3125
20
5637.70807403
11
3125
21
5616
0
ENDBLK
5
B8
330
B6
100
AcDbEntity
8
0
100
AcDbBlockEnd
0
BLOCK
5
BA
330
B9
100
AcDbEntity
8
0
100
AcDbBlockBegin
2
*D15
70
1
10
0
20
0
3
*D15
1

0
LINE
5
1D3
100
AcDbEntity
8
6_roof_rack_d
6
CONTINUOUS
62
7
370
0
100
AcDbLine
10
5539.6875
20
2744.375
11
5692.1875
21
2464.375
0
LINE
5
1D4
100
AcDbEntity
8
6_roof_rack_d
6
CONTINUOUS
62
7
370
0
100
AcDbLine
10
5692.1875
20
2464.375
11
6392.1875
21
2464.375
0
SOLID
5
1D5
100
AcDbEntity
8
6_roof_rack_d
6
CONTINUOUS
62
7
370
0
100
AcDbTrace
10
5539.6875
20
2744.375
30
0
11
5579.65769631
21
2693.26773385
31
0
12
5560.94004489
22
2683.07329871
32
0
13
5560.94004489
23
2683.07329871
33
0
0
ENDBLK
5
BB
330
B9
100
AcDbEntity
8
0
100
AcDbBlockEnd
0
BLOCK
5
BD
330
BC
100
AcDbEntity
8
0
100
AcDbBlockBegin
2
*D54
70
1
10
0
20
0
3
*D54
1

0
LINE
5
1D6
100
AcDbEntity
8
4_frame_d
6
CONTINUOUS
62
7
370
0
100
AcDbLine
10
1837
20
5400
11
2482
21
5400
0
SOLID
5
1D7
100
AcDbEntity
8
4_frame_d
6
CONTINUOUS
62
7
370
0
100
AcDbTrace
10
1837
20
5400
30
0
11
1901
21
5410.65688724
31
0
12
1901
22
5389.34311276
32
0
13
1901
23
5389.34311276
33
0
0
SOLID
5
1D8
100
AcDbEntity
8
4_frame_d
6
CONTINUOUS
62
7
370
0
100
AcDbTrace
10
2482
20
5400
30
0
11
2418
21
5389.34311276
31
0
12
2418
22
5410.65688724
32
0
13
2418
23
5410.65688724
33
0
0
MTEXT
5
1D9
100
AcDbEntity
8
4_frame_d
6
CONTINUOUS
62
7
370
0
100
AcDbMText
10
2159.5
20
5452
30
0
40
64
41
135.111111111
71
5
72
1
1
645
7
standard
210
0
220
0
230
1
50
0
73
2
44
1
0
LINE
5
1DA
100
AcDbEntity
8
4_frame_d
6
CONTINUOUS
62
7
370
0
100
AcDbLine
10
1837
20
5411.51104934
11
1837
21
5416
0
LINE
5
1DB
100
AcDbEntity
8
4_frame_d
6
CONTINUOUS
62
7
370
0
100
AcDbLine
10
2482
20
5400.49047164
11
2482
21
5416
0
ENDBLK
5
BE
330
BC
100
AcDbEntity
8
0
100
AcDbBlockEnd
0
BLOCK
5
C0
330
BF
100
AcDbEntity
8
0
100
AcDbBlockBegin
2
*D55
70
1
10
0
20
0
3
*D55
1

0
LINE
5
1DC
100
AcDbEntity
8
4_frame_d
6
CONTINUOUS
62
7
370
0
100
AcDbLine
10
2482
20
5400
11
3125
21
5400
0
SOLID
5
1DD
100
AcDbEntity
8
4_frame_d
6
CONTINUOUS
62
7
370
0
100
AcDbTrace
10
2482
20
5400
30
0
11
2546
21
5410.65688724
31
0
12
2546
22
5389.34311276
32
0
13
2546
23
5389.34311276
33
0
0
SOLID
5
1DE
100
AcDbEntity
8
4_frame_d
6
CONTINUOUS
62
7
370
0
100
AcDbTrace
10
3125
20
5400
30
0
11
3061
21
5389.34311276
31
0
12
3061
22
5410.65688724
32
0
13
3061
23
5410.65688724
33
0
0
MTEXT
5
1DF
100
AcDbEntity
8
4_frame_d
6
CONTINUOUS
62
7
370
0
100
AcDbMText
10
2803.5
20
5452
30
0
40
64
41
135.111111111
71
5
72
1
1
643
7
standard
210
0
220
0
230
1
50
0
73
2
44
1
0
LINE
5
1E0
100
AcDbEntity
8
4_frame_d
6
CONTINUOUS
62
7
370
0
100
AcDbLine
10
2482
20
5378.44931625
11
2482
21
5416
0
LINE
5
1E1
100
AcDbEntity
8
4_frame_d
6
CONTINUOUS
62
7
370
0
100
AcDbLine
10
3125
20
5389.46989395
11
3125
21
5416
0
ENDBLK
5
C1
330
BF
100
AcDbEntity
8
0
100
AcDbBlockEnd
0
BLOCK
5
C3
330
C2
100
AcDbEntity
8
0
100
AcDbBlockBegin
2
*D3
70
1
10
0
20
0
3
*D3
1

0
ENDBLK
5
C4
330
C2
100
AcDbEntity
8
0
100
AcDbBlockEnd
0
BLOCK
5
C6
330
C5
100
AcDbEntity
8
0
100
AcDbBlockBegin
2
*D11
70
1
10
0
20
0
3
*D11
1

0
LINE
5
1E2
100
AcDbEntity
8
4_frame_d
6
CONTINUOUS
62
7
370
0
100
AcDbLine
10
5520
20
1900
11
7422
21
1900
0
SOLID
5
1E3
100
AcDbEntity
8
4_frame_d
6
CONTINUOUS
62
7
370
0
100
AcDbTrace
10
5520
20
1900
30
0
11
5584
21
1910.65688724
31
0
12
5584
22
1889.34311276
32
0
13
5584
23
1889.34311276
33
0
0
SOLID
5
1E4
100
AcDbEntity
8
4_frame_d
6
CONTINUOUS
62
7
370
0
100
AcDbTrace
10
7422
20
1900
30
0
11
7358
21
1889.34311276
31
0
12
7358
22
1910.65688724
32
0
13
7358
23
1910.65688724
33
0
0
MTEXT
5
1E5
100
AcDbEntity
8
4_frame_d
6
CONTINUOUS
62
7
370
0
100
AcDbMText
10
6471
20
1952
30
0
40
64
41
163.555555556
71
5
72
1
1
1902
7
standard
210
0
220
0
230
1
50
0
73
2
44
1
0
LINE
5
1E6
100
AcDbEntity
8
4_frame_d
6
CONTINUOUS
62
7
370
0
100
AcDbLine
10
5520
20
1894.04492504
11
5520
21
1884
0
LINE
5
1E7
100
AcDbEntity
8
4_frame_d
6
CONTINUOUS
62
7
370
0
100
AcDbLine
10
7422
20
1888.36058316
11
7422
21
1884
0
ENDBLK
5
C7
330
C5
100
AcDbEntity
8
0
100
AcDbBlockEnd
0
BLOCK
5
C9
330
C8
100
AcDbEntity
8
0
100
AcDbBlockBegin
2
*D1
70
1
10
0
20
0
3
*D1
1

0
LINE
5
1E8
100
AcDbEntity
8
4_frame_d
6
CONTINUOUS
62
7
370
0
100
AcDbLine
10
8000
20
4935
11
8000
21
2795
0
SOLID
5
1E9
100
AcDbEntity
8
4_frame_d
6
CONTINUOUS
62
7
370
0
100
AcDbTrace
10
8000
20
4935
30
0
11
8010.65688724
21
4871
31
0
12
7989.34311276
22
4871
32
0
13
7989.34311276
23
4871
33
0
0
SOLID
5
1EA
100
AcDbEntity
8
4_frame_d
6
CONTINUOUS
62
7
370
0
100
AcDbTrace
10
8000
20
2795
30
0
11
7989.34311276
21
2859
31
0
12
8010.65688724
22
2859
32
0
13
8010.65688724
23
2859
33
0
0
MTEXT
5
1EB
100
AcDbEntity
8
4_frame_d
6
CONTINUOUS
62
7
370
0
100
AcDbMText
10
7948
20
3865
30
0
40
64
41
170.666666667
71
5
72
1
1
2140
7
standard
210
0
220
0
230
1
50
90
73
2
44
1
0
LINE
5
1EC
100
AcDbEntity
8
4_frame_d
6
CONTINUOUS
62
7
370
0
100
AcDbLine
10
7998.25609773
20
4935
11
8016
21
4935
0
LINE
5
1ED
100
AcDbEntity
8
4_frame_d
6
CONTINUOUS
62
7
370
0
100
AcDbLine
10
7998.25609773
20
2795
11
8016
21
2795
0
ENDBLK
5
CA
330
C8
100
AcDbEntity
8
0
100
AcDbBlockEnd
0
BLOCK
5
CC
330
CB
100
AcDbEntity
8
0
100
AcDbBlockBegin
2
*D62
70
1
10
0
20
0
3
*D62
1

0
LINE
5
1EE
100
AcDbEntity
8
4_frame_d
6
CONTINUOUS
62
7
370
0
100
AcDbLine
10
6807
20
5400
11
7422
21
5400
0
SOLID
5
1EF
100
AcDbEntity
8
4_frame_d
6
CONTINUOUS
62
7
370
0
100
AcDbTrace
10
6807
20
5400
30
0
11
6871
21
5410.65688724
31
0
12
6871
22
5389.34311276
32
0
13
6871
23
5389.34311276
33
0
0
SOLID
5
1F0
100
AcDbEntity
8
4_frame_d
6
CONTINUOUS
62
7
370
0
100
AcDbTrace
10
7422
20
5400
30
0
11
7358
21
5389.34311276
31
0
12
7358
22
5410.65688724
32
0
13
7358
23
5410.65688724
33
0
0
MTEXT
5
1F1
100
AcDbEntity
8
4_frame_d
6
CONTINUOUS
62
7
370
0
100
AcDbMText
10
7114.5
20
5452
30
0
40
64
41
113.777777778
71
5
72
1
1
615
7
standard
210
0
220
0
230
1
50
0
73
2
44
1
0
LINE
5
1F2
100
AcDbEntity
8
4_frame_d
6
CONTINUOUS
62
7
370
0
100
AcDbLine
10
6807
20
5392.77606725
11
6807
21
5416
0
LINE
5
1F3
100
AcDbEntity
8
4_frame_d
6
CONTINUOUS
62
7
370
0
100
AcDbLine
10
7422
20
5388.36783618
11
7422
21
5416
0
ENDBLK
5
CD
330
CB
100
AcDbEntity
8
0
100
AcDbBlockEnd
0
BLOCK
5
CF
330
CE
100
AcDbEntity
8
0
100
AcDbBlockBegin
2
*D64
70
1
10
0
20
0
3
*D64
1

0
LINE
5
1F4
100
AcDbEntity
8
4_frame_d
6
CONTINUOUS
62
7
370
0
100
AcDbLine
10
4842.5
20
2750
11
5100
21
3400
0
SOLID
5
1F5
100
AcDbEntity
8
4_frame_d
6
CONTINUOUS
62
7
370
0
100
AcDbTrace
10
4842.5
20
2750
30
0
11
4856.16383036
21
2813.42609073
31
0
12
4875.97934462
22
2805.57609855
32
0
13
4875.97934462
23
2805.57609855
33
0
0
ENDBLK
5
D0
330
CE
100
AcDbEntity
8
0
100
AcDbBlockEnd
0
BLOCK
5
D2
330
D1
100
AcDbEntity
8
0
100
AcDbBlockBegin
2
*D60
70
1
10
0
20
0
3
*D60
1

0
LINE
5
1F6
100
AcDbEntity
8
4_frame_d
6
CONTINUOUS
62
7
370
0
100
AcDbLine
10
5520
20
5400
11
6162
21
5400
0
SOLID
5
1F7
100
AcDbEntity
8
4_frame_d
6
CONTINUOUS
62
7
370
0
100
AcDbTrace
10
5520
20
5400
30
0
11
5584
21
5410.65688724
31
0
12
5584
22
5389.34311276
32
0
13
5584
23
5389.34311276
33
0
0
SOLID
5
1F8
100
AcDbEntity
8
4_frame_d
6
CONTINUOUS
62
7
370
0
100
AcDbTrace
10
6162
20
5400
30
0
11
6098
21
5389.34311276
31
0
12
6098
22
5410.65688724
32
0
13
6098
23
5410.65688724
33
0
0
MTEXT
5
1F9
100
AcDbEntity
8
4_frame_d
6
CONTINUOUS
62
7
370
0
100
AcDbMText
10
5841
20
5452
30
0
40
64
41
135.111111111
71
5
72
1
1
642
7
standard
210
0
220
0
230
1
50
0
73
2
44
1
0
LINE
5
1FA
100
AcDbEntity
8
4_frame_d
6
CONTINUOUS
62
7
370
0
100
AcDbLine
10
5520
20
5370.73491186
11
5520
21
5416
0
LINE
5
1FB
100
AcDbEntity
8
4_frame_d
6
CONTINUOUS
62
7
370
0
100
AcDbLine
10
6162
20
5375.14314294
11
6162
21
5416
0
ENDBLK
5
D3
330
D1
100
AcDbEntity
8
0
100
AcDbBlockEnd
0
BLOCK
5
D5
330
D4
100
AcDbEntity
8
0
100
AcDbBlockBegin
2
*D27
70
1
10
0
20
0
3
*D27
1

0
LINE
5
1FC
100
AcDbEntity
8
4_frame_d
6
CONTINUOUS
62
7
370
0
100
AcDbLine
10
1222
20
2100
11
2050
21
2100
0
SOLID
5
1FD
100
AcDbEntity
8
4_frame_d
6
CONTINUOUS
62
7
370
0
100
AcDbTrace
10
1222
20
2100
30
0
11
1286
21
2110.65688724
31
0
12
1286
22
2089.34311276
32
0
13
1286
23
2089.34311276
33
0
0
SOLID
5
1FE
100
AcDbEntity
8
4_frame_d
6
CONTINUOUS
62
7
370
0
100
AcDbTrace
10
2050
20
2100
30
0
11
1986
21
2089.34311276
31
0
12
1986
22
2110.65688724
32
0
13
1986
23
2110.65688724
33
0
0
MTEXT
5
1FF
100
AcDbEntity
8
4_frame_d
6
CONTINUOUS
62
7
370
0
100
AcDbMText
10
1636
20
2152
30
0
40
64
41
128
71
5
72
1
1
828
7
standard
210
0
220
0
230
1
50
0
73
2
44
1
0
LINE
5
200
100
AcDbEntity
8
4_frame_d
6
CONTINUOUS
62
7
370
0
100
AcDbLine
10
1222
20
2088.52668046
11
1222
21
2084
0
LINE
5
201
100
AcDbEntity
8
4_frame_d
6
CONTINUOUS
62
7
370
0
100
AcDbLine
10
2050
20
2088.52668046
11
2050
21
2084
0
ENDBLK
5
D6
330
D4
100
AcDbEntity
8
0
100
AcDbBlockEnd
0
BLOCK
5
D8
330
D7
100
AcDbEntity
8
0
100
AcDbBlockBegin
2
*D52
70
1
10
0
20
0
3
*D52
1

0
LINE
5
202
100
AcDbEntity
8
4_frame_d
6
CONTINUOUS
62
7
370
0
100
AcDbLine
10
7800
20
4479
11
7800
21
4917
0
SOLID
5
203
100
AcDbEntity
8
4_frame_d
6
CONTINUOUS
62
7
370
0
100
AcDbTrace
10
7800
20
4479
30
0
11
7789.34311276
21
4543
31
0
12
7810.65688724
22
4543
32
0
13
7810.65688724
23
4543
33
0
0
SOLID
5
204
100
AcDbEntity
8
4_frame_d
6
CONTINUOUS
62
7
370
0
100
AcDbTrace
10
7800
20
4917
30
0
11
7810.65688724
21
4853
31
0
12
7789.34311276
22
4853
32
0
13
7789.34311276
23
4853
33
0
0
MTEXT
5
205
100
AcDbEntity
8
4_frame_d
6
CONTINUOUS
62
7
370
0
100
AcDbMText
10
7748
20
4698
30
0
40
64
41
135.111111111
71
5
72
1
1
438
7
standard
210
0
220
0
230
1
50
90
73
2
44
1
0
LINE
5
206
100
AcDbEntity
8
4_frame_d
6
CONTINUOUS
62
7
370
0
100
AcDbLine
10
7813.99698717
20
4479
11
7816
21
4479
0
LINE
5
207
100
AcDbEntity
8
4_frame_d
6
CONTINUOUS
62
7
370
0
100
AcDbLine
10
7808.48669832
20
4917
11
7816
21
4917
0
ENDBLK
5
D9
330
D7
100
AcDbEntity
8
0
100
AcDbBlockEnd
0
BLOCK
5
DB
330
DA
100
AcDbEntity
8
0
100
AcDbBlockBegin
2
*D42
70
1
10
0
20
0
3
*D42
1

0
LINE
5
208
100
AcDbEntity
8
6_roof_rack_d
6
CONTINUOUS
62
7
370
0
100
AcDbLine
10
1205
20
3900
11
3125
21
3900
0
SOLID
5
209
100
AcDbEntity
8
6_roof_rack_d
6
CONTINUOUS
62
7
370
0
100
AcDbTrace
10
1205
20
3900
30
0
11
1269
21
3910.65688724
31
0
12
1269
22
3889.34311276
32
0
13
1269
23
3889.34311276
33
0
0
SOLID
5
20A
100
AcDbEntity
8
6_roof_rack_d
6
CONTINUOUS
62
7
370
0
100
AcDbTrace
10
3125
20
3900
30
0
11
3061
21
3889.34311276
31
0
12
3061
22
3910.65688724
32
0
13
3061
23
3910.65688724
33
0
0
MTEXT
5
20B
100
AcDbEntity
8
6_roof_rack_d
6
CONTINUOUS
62
7
370
0
100
AcDbMText
10
2165
20
3952
30
0
40
64
41
163.555555556
71
5
72
1
1
1920
7
standard
210
0
220
0
230
1
50
0
73
2
44
1
0
LINE
5
20C
100
AcDbEntity
8
6_roof_rack_d
6
CONTINUOUS
62
7
370
0
100
AcDbLine
10
1205
20
3906.38739304
11
1205
21
3884
0
LINE
5
20D
100
AcDbEntity
8
6_roof_rack_d
6
CONTINUOUS
62
7
370
0
100
AcDbLine
10
3125
20
3906.38739304
11
3125
21
3884
0
ENDBLK
5
DC
330
DA
100
AcDbEntity
8
0
100
AcDbBlockEnd
0
BLOCK
5
DE
330
DD
100
AcDbEntity
8
0
100
AcDbBlockBegin
2
*D56
70
1
10
0
20
0
3
*D56
1

0
LINE
5
20E
100
AcDbEntity
8
4_frame_d
6
CONTINUOUS
62
7
370
0
100
AcDbLine
10
3125
20
5400
11
3767
21
5400
0
SOLID
5
20F
100
AcDbEntity
8
4_frame_d
6
CONTINUOUS
62
7
370
0
100
AcDbTrace
10
3125
20
5400
30
0
11
3189
21
5410.65688724
31
0
12
3189
22
5389.34311276
32
0
13
3189
23
5389.34311276
33
0
0
SOLID
5
210
100
AcDbEntity
8
4_frame_d
6
CONTINUOUS
62
7
370
0
100
AcDbTrace
10
3767
20
5400
30
0
11
3703
21
5389.34311276
31
0
12
3703
22
5410.65688724
32
0
13
3703
23
5410.65688724
33
0
0
MTEXT
5
211
100
AcDbEntity
8
4_frame_d
6
CONTINUOUS
62
7
370
0
100
AcDbMText
10
3446
20
5452
30
0
40
64
41
135.111111111
71
5
72
1
1
642
7
standard
210
0
220
0
230
1
50
0
73
2
44
1
0
LINE
5
212
100
AcDbEntity
8
4_frame_d
6
CONTINUOUS
62
7
370
0
100
AcDbLine
10
3125
20
5410.40899157
11
3125
21
5416
0
LINE
5
213
100
AcDbEntity
8
4_frame_d
6
CONTINUOUS
62
7
370
0
100
AcDbLine
10
3767
20
5406.00076049
11
3767
21
5416
0
ENDBLK
5
DF
330
DD
100
AcDbEntity
8
0
100
AcDbBlockEnd
0
BLOCK
5
E1
330
E0
100
AcDbEntity
8
0
100
AcDbBlockBegin
2
*D53
70
1
10
0
20
0
3
*D53
1

0
LINE
5
214
100
AcDbEntity
8
4_frame_d
6
CONTINUOUS
62
7
370
0
100
AcDbLine
10
1222
20
5400
11
1837
21
5400
0
SOLID
5
215
100
AcDbEntity
8
4_frame_d
6
CONTINUOUS
62
7
370
0
100
AcDbTrace
10
1222
20
5400
30
0
11
1286
21
5410.65688724
31
0
12
1286
22
5389.34311276
32
0
13
1286
23
5389.34311276
33
0
0
SOLID
5
216
100
AcDbEntity
8
4_frame_d
6
CONTINUOUS
62
7
370
0
100
AcDbTrace
10
1837
20
5400
30
0
11
1773
21
5389.34311276
31
0
12
1773
22
5410.65688724
32
0
13
1773
23
5410.65688724
33
0
0
MTEXT
5
217
100
AcDbEntity
8
4_frame_d
6
CONTINUOUS
62
7
370
0
100
AcDbMText
10
1529.5
20
5452
30
0
40
64
41
113.777777778
71
5
72
1
1
615
7
standard
210
0
220
0
230
1
50
0
73
2
44
1
0
LINE
5
218
100
AcDbEntity
8
4_frame_d
6
CONTINUOUS
62
7
370
0
100
AcDbLine
10
1222
20
5417.02133819
11
1222
21
5416
0
LINE
5
219
100
AcDbEntity
8
4_frame_d
6
CONTINUOUS
62
7
370
0
100
AcDbLine
10
1837
20
5406.00076049
11
1837
21
5416
0
ENDBLK
5
E2
330
E0
100
AcDbEntity
8
0
100
AcDbBlockEnd
0
BLOCK
5
E4
330
E3
100
AcDbEntity
8
0
100
AcDbBlockBegin
2
*D41
70
1
10
0
20
0
3
*D41
1

0
LINE
5
21A
100
AcDbEntity
8
6_roof_rack_d
6
CONTINUOUS
62
7
370
0
100
AcDbLine
10
7900
20
3249
11
7900
21
2812
0
SOLID
5
21B
100
AcDbEntity
8
6_roof_rack_d
6
CONTINUOUS
62
7
370
0
100
AcDbTrace
10
7900
20
3249
30
0
11
7910.65688724
21
3185
31
0
12
7889.34311276
22
3185
32
0
13
7889.34311276
23
3185
33
0
0
SOLID
5
21C
100
AcDbEntity
8
6_roof_rack_d
6
CONTINUOUS
62
7
370
0
100
AcDbTrace
10
7900
20
2812
30
0
11
7889.34311276
21
2876
31
0
12
7910.65688724
22
2876
32
0
13
7910.65688724
23
2876
33
0
0
MTEXT
5
21D
100
AcDbEntity
8
6_roof_rack_d
6
CONTINUOUS
62
7
370
0
100
AcDbMText
10
7848
20
3030.5
30
0
40
64
41
135.111111111
71
5
72
1
1
437
7
standard
210
0
220
0
230
1
50
90
73
2
44
1
0
LINE
5
21E
100
AcDbEntity
8
6_roof_rack_d
6
CONTINUOUS
62
7
370
0
100
AcDbLine
10
7891.14103105
20
3249
11
7916
21
3249
0
LINE
5
21F
100
AcDbEntity
8
6_roof_rack_d
6
CONTINUOUS
62
7
370
0
100
AcDbLine
10
7896.6513199
20
2812
11
7916
21
2812
0
ENDBLK
5
E5
330
E3
100
AcDbEntity
8
0
100
AcDbBlockEnd
0
BLOCK
5
E7
330
E6
100
AcDbEntity
8
0
100
AcDbBlockBegin
2
*D18
70
1
10
0
20
0
3
*D18
1

0
LINE
5
220
100
AcDbEntity
8
6_roof_rack_d
6
CONTINUOUS
62
7
370
0
100
AcDbLine
10
3125
20
5600
11
5520
21
5600
0
SOLID
5
221
100
AcDbEntity
8
6_roof_rack_d
6
CONTINUOUS
62
7
370
0
100
AcDbTrace
10
3125
20
5600
30
0
11
3189
21
5610.65688724
31
0
12
3189
22
5589.34311276
32
0
13
3189
23
5589.34311276
33
0
0
SOLID
5
222
100
AcDbEntity
8
6_roof_rack_d
6
CONTINUOUS
62
7
370
0
100
AcDbTrace
10
5520
20
5600
30
0
11
5456
21
5589.34311276
31
0
12
5456
22
5610.65688724
32
0
13
5456
23
5610.65688724
33
0
0
MTEXT
5
223
100
AcDbEntity
8
6_roof_rack_d
6
CONTINUOUS
62
7
370
0
100
AcDbMText
10
4322.5
20
5652
30
0
40
64
41
177.777777778
71
5
72
1
1
2395
7
standard
210
0
220
0
230
1
50
0
73
2
44
1
0
LINE
5
224
100
AcDbEntity
8
6_roof_rack_d
6
CONTINUOUS
62
7
370
0
100
AcDbLine
10
3125
20
5643.39241592
11
3125
21
5616
0
LINE
5
225
100
AcDbEntity
8
6_roof_rack_d
6
CONTINUOUS
62
7
370
0
100
AcDbLine
10
5520
20
5649.0767578
11
5520
21
5616
0
ENDBLK
5
E8
330
E6
100
AcDbEntity
8
0
100
AcDbBlockEnd
0
BLOCK
5
EA
330
E9
100
AcDbEntity
8
0
100
AcDbBlockBegin
2
*D8
70
1
10
0
20
0
3
*D8
1

0
LINE
5
226
100
AcDbEntity
8
4_frame_d
6
CONTINUOUS
62
7
370
0
100
AcDbLine
10
5520
20
5600
11
7422
21
5600
0
SOLID
5
227
100
AcDbEntity
8
4_frame_d
6
CONTINUOUS
62
7
370
0
100
AcDbTrace
10
5520
20
5600
30
0
11
5584
21
5610.65688724
31
0
12
5584
22
5589.34311276
32
0
13
5584
23
5589.34311276
33
0
0
SOLID
5
228
100
AcDbEntity
8
4_frame_d
6
CONTINUOUS
62
7
370
0
100
AcDbTrace
10
7422
20
5600
30
0
11
7358
21
5589.34311276
31
0
12
7358
22
5610.65688724
32
0
13
7358
23
5610.65688724
33
0
0
MTEXT
5
229
100
AcDbEntity
8
4_frame_d
6
CONTINUOUS
62
7
370
0
100
AcDbMText
10
6471
20
5652
30
0
40
64
41
163.555555556
71
5
72
1
1
1902
7
standard
210
0
220
0
230
1
50
0
73
2
44
1
0
LINE
5
22A
100
AcDbEntity
8
4_frame_d
6
CONTINUOUS
62
7
370
0
100
AcDbLine
10
5520
20
5620.65504837
11
5520
21
5616
0
LINE
5
22B
100
AcDbEntity
8
4_frame_d
6
CONTINUOUS
62
7
370
0
100
AcDbLine
10
7422
20
5626.33939026
11
7422
21
5616
0
ENDBLK
5
EB
330
E9
100
AcDbEntity
8
0
100
AcDbBlockEnd
0
BLOCK
5
ED
330
EC
100
AcDbEntity
8
0
100
AcDbBlockBegin
2
*D26
70
1
10
0
20
0
3
*D26
1

0
ENDBLK
5
EE
330
EC
100
AcDbEntity
8
0
100
AcDbBlockEnd
0
BLOCK
5
F0
330
EF
100
AcDbEntity
8
0
100
AcDbBlockBegin
2
*D5
70
1
10
0
20
0
3
*D5
1

0
LINE
5
22C
100
AcDbEntity
8
4_frame_d
6
CONTINUOUS
62
7
370
0
100
AcDbLine
10
5542.5
20
4980
11
5695
21
4700
0
LINE
5
22D
100
AcDbEntity
8
4_frame_d
6
CONTINUOUS
62
7
370
0
100
AcDbLine
10
5695
20
4700
11
6395
21
4700
0
SOLID
5
22E
100
AcDbEntity
8
4_frame_d
6
CONTINUOUS
62
7
370
0
100
AcDbTrace
10
5542.5
20
4980
30
0
11
5582.47019631
21
4928.89273385
31
0
12
5563.75254489
22
4918.69829871
32
0
13
5563.75254489
23
4918.69829871
33
0
0
ENDBLK
5
F1
330
EF
100
AcDbEntity
8
0
100
AcDbBlockEnd
0
BLOCK
5
F3
330
F2
100
AcDbEntity
8
0
100
AcDbBlockBegin
2
*D20
70
1
10
0
20
0
3
*D20
1

0
LINE
5
22F
100
AcDbEntity
8
6_roof_rack_d
6
CONTINUOUS
62
7
370
0
100
AcDbLine
10
1222
20
1900
11
3125
21
1900
0
SOLID
5
230
100
AcDbEntity
8
6_roof_rack_d
6
CONTINUOUS
62
7
370
0
100
AcDbTrace
10
1222
20
1900
30
0
11
1286
21
1910.65688724
31
0
12
1286
22
1889.34311276
32
0
13
1286
23
1889.34311276
33
0
0
SOLID
5
231
100
AcDbEntity
8
6_roof_rack_d
6
CONTINUOUS
62
7
370
0
100
AcDbTrace
10
3125
20
1900
30
0
11
3061
21
1889.34311276
31
0
12
3061
22
1910.65688724
32
0
13
3061
23
1910.65688724
33
0
0
MTEXT
5
232
100
AcDbEntity
8
6_roof_rack_d
6
CONTINUOUS
62
7
370
0
100
AcDbMText
10
2173.5
20
1952
30
0
40
64
41
163.555555556
71
5
72
1
1
1903
7
standard
210
0
220
0
230
1
50
0
73
2
44
1
0
LINE
5
233
100
AcDbEntity
8
6_roof_rack_d
6
CONTINUOUS
62
7
370
0
100
AcDbLine
10
1222
20
1854.25453184
11
1222
21
1884
0
LINE
5
234
100
AcDbEntity
8
6_roof_rack_d
6
CONTINUOUS
62
7
370
0
100
AcDbLine
10
3125
20
1871.3075575
11
3125
21
1884
0
ENDBLK
5
F4
330
F2
100
AcDbEntity
8
0
100
AcDbBlockEnd
0
BLOCK
5
F6
330
F5
100
AcDbEntity
8
0
100
AcDbBlockBegin
2
*D28
70
1
10
0
20
0
3
*D28
1

0
LINE
5
235
100
AcDbEntity
8
4_frame_d
6
CONTINUOUS
62
7
370
0
100
AcDbLine
10
2050
20
2100
11
3125
21
2100
0
SOLID
5
236
100
AcDbEntity
8
4_frame_d
6
CONTINUOUS
62
7
370
0
100
AcDbTrace
10
2050
20
2100
30
0
11
2114
21
2110.65688724
31
0
12
2114
22
2089.34311276
32
0
13
2114
23
2089.34311276
33
0
0
SOLID
5
237
100
AcDbEntity
8
4_frame_d
6
CONTINUOUS
62
7
370
0
100
AcDbTrace
10
3125
20
2100
30
0
11
3061
21
2089.34311276
31
0
12
3061
22
2110.65688724
32
0
13
3061
23
2110.65688724
33
0
0
MTEXT
5
238
100
AcDbEntity
8
4_frame_d
6
CONTINUOUS
62
7
370
0
100
AcDbMText
10
2587.5
20
2152
30
0
40
64
41
163.555555556
71
5
72
1
1
1075
7
standard
210
0
220
0
230
1
50
0
73
2
44
1
0
LINE
5
239
100
AcDbEntity
8
4_frame_d
6
CONTINUOUS
62
7
370
0
100
AcDbLine
10
2050
20
2094.22941828
11
2050
21
2084
0
LINE
5
23A
100
AcDbEntity
8
4_frame_d
6
CONTINUOUS
62
7
370
0
100
AcDbLine
10
3125
20
2099.93215609
11
3125
21
2084
0
ENDBLK
5
F7
330
F5
100
AcDbEntity
8
0
100
AcDbBlockEnd
0
BLOCK
5
F9
330
F8
100
AcDbEntity
8
0
100
AcDbBlockBegin
2
*D39
70
1
10
0
20
0
3
*D39
1

0
LINE
5
23B
100
AcDbEntity
8
6_roof_rack_d
6
CONTINUOUS
62
7
370
0
100
AcDbLine
10
7900
20
4917
11
7900
21
4479
0
SOLID
5
23C
100
AcDbEntity
8
6_roof_rack_d
6
CONTINUOUS
62
7
370
0
100
AcDbTrace
10
7900
20
4917
30
0
11
7910.65688724
21
4853
31
0
12
7889.34311276
22
4853
32
0
13
7889.34311276
23
4853
33
0
0
SOLID
5
23D
100
AcDbEntity
8
6_roof_rack_d
6
CONTINUOUS
62
7
370
0
100
AcDbTrace
10
7900
20
4479
30
0
11
7889.34311276
21
4543
31
0
12
7910.65688724
22
4543
32
0
13
7910.65688724
23
4543
33
0
0
MTEXT
5
23E
100
AcDbEntity
8
6_roof_rack_d
6
CONTINUOUS
62
7
370
0
100
AcDbMText
10
7848
20
4698
30
0
40
64
41
135.111111111
71
5
72
1
1
438
7
standard
210
0
220
0
230
1
50
90
73
2
44
1
0
LINE
5
23F
100
AcDbEntity
8
6_roof_rack_d
6
CONTINUOUS
62
7
370
0
100
AcDbLine
10
7913.18218644
20
4917
11
7916
21
4917
0
LINE
5
240
100
AcDbEntity
8
6_roof_rack_d
6
CONTINUOUS
62
7
370
0
100
AcDbLine
10
7924.20276414
20
4479
11
7916
21
4479
0
ENDBLK
5
FA
330
F8
100
AcDbEntity
8
0
100
AcDbBlockEnd
0
BLOCK
5
FC
330
FB
100
AcDbEntity
8
0
100
AcDbBlockBegin
2
*D35
70
1
10
0
20
0
3
*D35
1

0
LINE
5
241
100
AcDbEntity
8
6_roof_rack_d
6
CONTINUOUS
62
7
370
0
100
AcDbLine
10
5520
20
5400
11
7783
21
5400
0
SOLID
5
242
100
AcDbEntity
8
6_roof_rack_d
6
CONTINUOUS
62
7
370
0
100
AcDbTrace
10
5520
20
5400
30
0
11
5584
21
5410.65688724
31
0
12
5584
22
5389.34311276
32
0
13
5584
23
5389.34311276
33
0
0
SOLID
5
243
100
AcDbEntity
8
6_roof_rack_d
6
CONTINUOUS
62
7
370
0
100
AcDbTrace
10
7783
20
5400
30
0
11
7719
21
5389.34311276
31
0
12
7719
22
5410.65688724
32
0
13
7719
23
5410.65688724
33
0
0
MTEXT
5
244
100
AcDbEntity
8
6_roof_rack_d
6
CONTINUOUS
62
7
370
0
100
AcDbMText
10
6651.5
20
5452
30
0
40
64
41
177.777777778
71
5
72
1
1
2263
7
standard
210
0
220
0
230
1
50
0
73
2
44
1
0
LINE
5
245
100
AcDbEntity
8
6_roof_rack_d
6
CONTINUOUS
62
7
370
0
100
AcDbLine
10
5520
20
5392.69297022
11
5520
21
5384
0
LINE
5
246
100
AcDbEntity
8
6_roof_rack_d
6
CONTINUOUS
62
7
370
0
100
AcDbLine
10
7783
20
5392.69297022
11
7783
21
5384
0
ENDBLK
5
FD
330
FB
100
AcDbEntity
8
0
100
AcDbBlockEnd
0
BLOCK
5
FF
330
FE
100
AcDbEntity
8
0
100
AcDbBlockBegin
2
*D10
70
1
10
0
20
0
3
*D10
1

0
LINE
5
247
100
AcDbEntity
8
4_frame_d
6
CONTINUOUS
62
7
370
0
100
AcDbLine
10
3125
20
1900
11
5520
21
1900
0
SOLID
5
248
100
AcDbEntity
8
4_frame_d
6
CONTINUOUS
62
7
370
0
100
AcDbTrace
10
3125
20
1900
30
0
11
3189
21
1910.65688724
31
0
12
3189
22
1889.34311276
32
0
13
3189
23
1889.34311276
33
0
0
SOLID
5
249
100
AcDbEntity
8
4_frame_d
6
CONTINUOUS
62
7
370
0
100
AcDbTrace
10
5520
20
1900
30
0
11
5456
21
1889.34311276
31
0
12
5456
22
1910.65688724
32
0
13
5456
23
1910.65688724
33
0
0
MTEXT
5
24A
100
AcDbEntity
8
4_frame_d
6
CONTINUOUS
62
7
370
0
100
AcDbMText
10
4322.5
20
1952
30
0
40
64
41
177.777777778
71
5
72
1
1
2395
7
standard
210
0
220
0
230
1
50
0
73
2
44
1
0
LINE
5
24B
100
AcDbEntity
8
4_frame_d
6
CONTINUOUS
62
7
370
0
100
AcDbLine
10
3125
20
1894.04492504
11
3125
21
1884
0
LINE
5
24C
100
AcDbEntity
8
4_frame_d
6
CONTINUOUS
62
7
370
0
100
AcDbLine
10
5520
20
1894.04492504
11
5520
21
1884
0
ENDBLK
5
100
330
FE
100
AcDbEntity
8
0
100
AcDbBlockEnd
0
BLOCK
5
102
330
101
100
AcDbEntity
8
0
100
AcDbBlockBegin
2
*D38
70
1
10
0
20
0
3
*D38
1

0
LINE
5
24D
100
AcDbEntity
8
6_roof_rack_d
6
CONTINUOUS
62
7
370
0
100
AcDbLine
10
800
20
3249
11
800
21
2812
0
SOLID
5
24E
100
AcDbEntity
8
6_roof_rack_d
6
CONTINUOUS
62
7
370
0
100
AcDbTrace
10
800
20
3249
30
0
11
810.656887239
21
3185
31
0
12
789.343112761
22
3185
32
0
13
789.343112761
23
3185
33
0
0
SOLID
5
24F
100
AcDbEntity
8
6_roof_rack_d
6
CONTINUOUS
62
7
370
0
100
AcDbTrace
10
800
20
2812
30
0
11
789.343112761
21
2876
31
0
12
810.656887239
22
2876
32
0
13
810.656887239
23
2876
33
0
0
MTEXT
5
250
100
AcDbEntity
8
6_roof_rack_d
6
CONTINUOUS
62
7
370
0
100
AcDbMText
10
748
20
3030.5
30
0
40
64
41
135.111111111
71
5
72
1
1
437
7
standard
210
0
220
0
230
1
50
90
73
2
44
1
0
LINE
5
251
100
AcDbEntity
8
6_roof_rack_d
6
CONTINUOUS
62
7
370
0
100
AcDbLine
10
809.605060326
20
3249
11
784
21
3249
0
LINE
5
252
100
AcDbEntity
8
6_roof_rack_d
6
CONTINUOUS
62
7
370
0
100
AcDbLine
10
804.094771477
20
2812
11
784
21
2812
0
ENDBLK
5
103
330
101
100
AcDbEntity
8
0
100
AcDbBlockEnd
0
BLOCK
5
105
330
104
100
AcDbEntity
8
0
100
AcDbBlockBegin
2
*D33
70
1
10
0
20
0
3
*D33
1

0
LINE
5
253
100
AcDbEntity
8
4_frame_d
6
CONTINUOUS
62
7
370
0
100
AcDbLine
10
6595
20
2100
11
7422
21
2100
0
SOLID
5
254
100
AcDbEntity
8
4_frame_d
6
CONTINUOUS
62
7
370
0
100
AcDbTrace
10
6595
20
2100
30
0
11
6659
21
2110.65688724
31
0
12
6659
22
2089.34311276
32
0
13
6659
23
2089.34311276
33
0
0
SOLID
5
255
100
AcDbEntity
8
4_frame_d
6
CONTINUOUS
62
7
370
0
100
AcDbTrace
10
7422
20
2100
30
0
11
7358
21
2089.34311276
31
0
12
7358
22
2110.65688724
32
0
13
7358
23
2110.65688724
33
0
0
MTEXT
5
256
100
AcDbEntity
8
4_frame_d
6
CONTINUOUS
62
7
370
0
100
AcDbMText
10
7008.5
20
2152
30
0
40
64
41
128
71
5
72
1
1
827
7
standard
210
0
220
0
230
1
50
0
73
2
44
1
0
LINE
5
257
100
AcDbEntity
8
4_frame_d
6
CONTINUOUS
62
7
370
0
100
AcDbLine
10
6595
20
2094.22941828
11
6595
21
2084
0
LINE
5
258
100
AcDbEntity
8
4_frame_d
6
CONTINUOUS
62
7
370
0
100
AcDbLine
10
7422
20
2094.22941828
11
7422
21
2084
0
ENDBLK
5
106
330
104
100
AcDbEntity
8
0
100
AcDbBlockEnd
0
BLOCK
5
108
330
107
100
AcDbEntity
8
0
100
AcDbBlockBegin
2
*D34
70
1
10
0
20
0
3
*D34
1

0
LINE
5
259
100
AcDbEntity
8
6_roof_rack_d
6
CONTINUOUS
62
7
370
0
100
AcDbLine
10
863
20
5400
11
3125
21
5400
0
SOLID
5
25A
100
AcDbEntity
8
6_roof_rack_d
6
CONTINUOUS
62
7
370
0
100
AcDbTrace
10
863
20
5400
30
0
11
927
21
5410.65688724
31
0
12
927
22
5389.34311276
32
0
13
927
23
5389.34311276
33
0
0
SOLID
5
25B
100
AcDbEntity
8
6_roof_rack_d
6
CONTINUOUS
62
7
370
0
100
AcDbTrace
10
3125
20
5400
30
0
11
3061
21
5389.34311276
31
0
12
3061
22
5410.65688724
32
0
13
3061
23
5410.65688724
33
0
0
MTEXT
5
25C
100
AcDbEntity
8
6_roof_rack_d
6
CONTINUOUS
62
7
370
0
100
AcDbMText
10
1994
20
5452
30
0
40
64
41
177.777777778
71
5
72
1
1
2262
7
standard
210
0
220
0
230
1
50
0
73
2
44
1
0
LINE
5
25D
100
AcDbEntity
8
6_roof_rack_d
6
CONTINUOUS
62
7
370
0
100
AcDbLine
10
863
20
5406.37954098
11
863
21
5384
0
LINE
5
25E
100
AcDbEntity
8
6_roof_rack_d
6
CONTINUOUS
62
7
370
0
100
AcDbLine
10
3125
20
5406.37954098
11
3125
21
5384
0
ENDBLK
5
109
330
107
100
AcDbEntity
8
0
100
AcDbBlockEnd
0
BLOCK
5
10B
330
10A
100
AcDbEntity
8
0
100
AcDbBlockBegin
2
*D45
70
1
10
0
20
0
3
*D45
1

0
LINE
5
25F
100
AcDbEntity
8
4_frame_d
6
CONTINUOUS
62
7
370
0
100
AcDbLine
10
800
20
4917
11
800
21
4479
0
SOLID
5
260
100
AcDbEntity
8
4_frame_d
6
CONTINUOUS
62
7
370
0
100
AcDbTrace
10
800
20
4917
30
0
11
810.656887239
21
4853
31
0
12
789.343112761
22
4853
32
0
13
789.343112761
23
4853
33
0
0
SOLID
5
261
100
AcDbEntity
8
4_frame_d
6
CONTINUOUS
62
7
370
0
100
AcDbTrace
10
800
20
4479
30
0
11
789.343112761
21
4543
31
0
12
810.656887239
22
4543
32
0
13
810.656887239
23
4543
33
0
0
MTEXT
5
262
100
AcDbEntity
8
4_frame_d
6
CONTINUOUS
62
7
370
0
100
AcDbMText
10
748
20
4698
30
0
40
64
41
135.111111111
71
5
72
1
1
438
7
standard
210
0
220
0
230
1
50
90
73
2
44
1
0
LINE
5
263
100
AcDbEntity
8
4_frame_d
6
CONTINUOUS
62
7
370
0
100
AcDbLine
10
798.584482629
20
4917
11
784
21
4917
0
LINE
5
264
100
AcDbEntity
8
4_frame_d
6
CONTINUOUS
62
7
370
0
100
AcDbLine
10
804.094771477
20
4479
11
784
21
4479
0
ENDBLK
5
10C
330
10A
100
AcDbEntity
8
0
100
AcDbBlockEnd
0
BLOCK
5
10E
330
10D
100
AcDbEntity
8
0
100
AcDbBlockBegin
2
a3-0
70
0
10
0
20
0
3
a3-0
1

0
LINE
5
265
100
AcDbEntity
8
0
6
ByLayer
62
256
370
-1
100
AcDbLine
10
4100
20
2870
11
4100
21
100
0
LINE
5
266
100
AcDbEntity
8
0
6
ByLayer
62
256
370
-1
100
AcDbLine
10
200
20
2870
11
200
21
100
0
LINE
5
267
100
AcDbEntity
8
0
6
ByLayer
62
256
370
-1
100
AcDbLine
10
200
20
100
11
4100
21
100
0
LINE
5
268
100
AcDbEntity
8
0
6
ByLayer
62
256
370
-1
100
AcDbLine
10
2500
20
600.001
11
4100
21
600
0
LINE
5
269
100
AcDbEntity
8
0
6
ByLayer
62
256
370
-1
100
AcDbLine
10
2500
20
500
11
4100
21
500
0
LINE
5
26A
100
AcDbEntity
8
0
6
ByLayer
62
256
370
-1
100
AcDbLine
10
2500
20
600.001
11
2500
21
100
0
LINE
5
26B
100
AcDbEntity
8
0
6
ByLayer
62
256
370
-1
100
AcDbLine
10
2500
20
300.001
11
4100
21
300
0
LINE
5
26C
100
AcDbEntity
8
0
6
ByLayer
62
256
370
-1
100
AcDbLine
10
2900
20
600.001
11
2900
21
100
0
LINE
5
26D
100
AcDbEntity
8
0
6
ByLayer
62
256
370
-1
100
AcDbLine
10
3200
20
600.001
11
3200
21
100
0
LINE
5
26E
100
AcDbEntity
8
0
6
ByLayer
62
7
370
-1
100
AcDbLine
10
3200
20
200
11
3900
21
200
0
LINE
5
26F
100
AcDbEntity
8
0
6
ByLayer
62
256
370
-1
100
AcDbLine
10
3900
20
300
11
3900
21
100
0
LINE
5
270
100
AcDbEntity
8
0
6
ByLayer
62
7
370
-1
100
AcDbLine
10
3500
20
300
11
3500
21
100
0
MTEXT
5
271
100
AcDbEntity
8
0
6
ByLayer
62
256
370
-1
100
AcDbMText
10
3231.449088
20
269.746176
30
0
40
40
41
233.333324853
71
1
72
5
1
SIZE  A3
7
iso
210
0
220
0
230
1
50
0
73
2
44
0.96
0
MTEXT
5
272
100
AcDbEntity
8
0
6
ByLayer
62
256
370
-1
100
AcDbMText
10
3229.61408
20
174.32576
30
0
40
40
41
243.333324853
71
1
72
5
1
SCALE 1:1
7
iso
210
0
220
0
230
1
50
0
73
2
44
0.96
0
MTEXT
5
273
100
AcDbEntity
8
0
6
ByLayer
62
256
370
-1
100
AcDbMText
10
3609.460736
20
166.985728
30
0
40
40
41
168.888880409
71
1
72
5
1
AS1100
7
iso
210
0
220
0
230
1
50
0
73
2
44
0.96
0
MTEXT
5
274
100
AcDbEntity
8
0
6
ByLayer
62
256
370
-1
100
AcDbMText
10
3444.310016
20
433.061888
30
0
40
60
41
365
71
1
72
5
1
ANDY XU
7
iso
210
0
220
0
230
1
50
0
73
2
44
0.96
0
LINE
5
275
100
AcDbEntity
8
0
6
ByLayer
62
256
370
-1
100
AcDbLine
10
200
20
2870
11
4100
21
2870
0
LINE
5
276
100
AcDbEntity
8
0
6
ByLayer
62
256
370
-1
100
AcDbLine
10
2500
20
400
11
3200
21
400
0
LINE
5
277
100
AcDbEntity
8
0
6
ByLayer
62
256
370
-1
100
AcDbLine
10
2500
20
350
11
3200
21
350
0
LINE
5
278
100
AcDbEntity
8
0
6
ByLayer
62
256
370
-1
100
AcDbLine
10
2500
20
450.001
11
3200
21
450.001
0
LINE
5
279
100
AcDbEntity
8
0
6
ByLayer
62
256
370
-1
100
AcDbLine
10
3048
20
228
11
3048
21
172
0
CIRCLE
5
27A
100
AcDbEntity
8
0
6
ByLayer
62
256
370
-1
100
AcDbCircle
10
3112
20
200
40
28
0
LINE
5
27B
100
AcDbEntity
8
0
6
ByLayer
62
256
370
-1
100
AcDbLine
10
2960
20
200
11
3160
21
200
0
LINE
5
27C
100
AcDbEntity
8
0
6
ByLayer
62
256
370
-1
100
AcDbLine
10
2984
20
216
11
3048
21
228
0
LINE
5
27D
100
AcDbEntity
8
0
6
ByLayer
62
256
370
-1
100
AcDbLine
10
2984
20
184
11
3048
21
172
0
LINE
5
27E
100
AcDbEntity
8
0
6
ByLayer
62
256
370
-1
100
AcDbLine
10
2984
20
216
11
2984
21
184
0
LINE
5
27F
100
AcDbEntity
8
0
6
ByLayer
62
256
370
-1
100
AcDbLine
10
3112
20
152
11
3112
21
248
0
CIRCLE
5
280
100
AcDbEntity
8
0
6
ByLayer
62
256
370
-1
100
AcDbCircle
10
3112
20
200
40
16
0
MTEXT
5
281
100
AcDbEntity
8
0
6
ByLayer
62
256
370
-1
100
AcDbMText
10
3920
20
248.333332468
30
0
40
30
41
103.344762494
71
7
72
5
1
sheet
7
normal#0.500000#0.900000
210
0
220
0
230
1
50
0
73
1
44
0.96
0
ENDBLK
5
10F
330
10D
100
AcDbEntity
8
0
100
AcDbBlockEnd
0
BLOCK
5
111
330
110
100
AcDbEntity
8
0
100
AcDbBlockBegin
2
A3_Xu-0
70
0
10
0
20
0
3
A3_Xu-0
1

0
INSERT
5
282
100
AcDbEntity
8
0
6
ByLayer
62
256
370
-1
100
AcDbBlockReference
2
a3-0
10
0
20
0
30
0
41
1
42
1
43
0
50
0
70
1
71
1
44
0
45
0
0
ENDBLK
5
112
330
110
100
AcDbEntity
8
0
100
AcDbBlockEnd
0
ENDSEC
0
SECTION
2
ENTITIES
0
INSERT
5
283
100
AcDbEntity
8
0
6
ByLayer
62
256
370
-1
100
AcDbBlockReference
2
A3_Xu-0
10
-440
20
-220
30
0
41
2.2
42
2.2
43
0
50
0
70
1
71
1
44
0
45
0
0
LINE
5
284
100
AcDbEntity
8
4_frame
6
ByLayer
62
256
370
-1
100
AcDbLine
10
7440
20
2795
11
7440
21
2705
0
LINE
5
285
100
AcDbEntity
8
4_frame
6
ByLayer
62
256
370
-1
100
AcDbLine
10
7440
20
5025
11
7440
21
4935
0
LINE
5
286
100
AcDbEntity
8
4_frame
6
ByLayer
62
256
370
-1
100
AcDbLine
10
1205
20
4935
11
1205
21
5025
0
LINE
5
287
100
AcDbEntity
8
4_frame
6
ByLayer
62
256
370
-1
100
AcDbLine
10
1205
20
2795
11
1295
21
2795
0
LINE
5
288
100
AcDbEntity
8
4_frame
6
ByLayer
62
256
370
-1
100
AcDbLine
10
1295
20
4935
11
1205
21
4935
0
LINE
5
289
100
AcDbEntity
8
4_frame
6
ByLayer
62
256
370
-1
100
AcDbLine
10
4770
20
2795
11
4770
21
2705
0
LINE
5
28A
100
AcDbEntity
8
4_frame
6
ByLayer
62
256
370
-1
100
AcDbLine
10
1205
20
2830
11
1295
21
2830
0
LINE
5
28B
100
AcDbEntity
8
4_frame
6
ByLayer
62
256
370
-1
100
AcDbLine
10
1240
20
5025
11
1240
21
4935
0
LINE
5
28C
100
AcDbEntity
8
4_frame
6
ByLayer
62
256
370
-1
100
AcDbLine
10
1240
20
5025
11
1205
21
4935
0
LINE
5
28D
100
AcDbEntity
8
4_frame
6
ByLayer
62
256
370
-1
100
AcDbLine
10
1205
20
5025
11
1240
21
4935
0
LINE
5
28E
100
AcDbEntity
8
4_frame
6
ByLayer
62
256
370
-1
100
AcDbLine
10
7405
20
2795
11
7405
21
2705
0
LINE
5
28F
100
AcDbEntity
8
4_frame
6
ByLayer
62
256
370
-1
100
AcDbLine
10
7440
20
2795
11
7440
21
2705
0
LINE
5
290
100
AcDbEntity
8
4_frame
6
ByLayer
62
256
370
-1
100
AcDbLine
10
7440
20
2795
11
7405
21
2705
0
LINE
5
291
100
AcDbEntity
8
4_frame
6
ByLayer
62
256
370
-1
100
AcDbLine
10
7405
20
2795
11
7440
21
2705
0
LINE
5
292
100
AcDbEntity
8
4_frame
6
ByLayer
62
256
370
-1
100
AcDbLine
10
7405
20
5025
11
7405
21
4935
0
LINE
5
293
100
AcDbEntity
8
4_frame
6
ByLayer
62
256
370
-1
100
AcDbLine
10
7440
20
5025
11
7440
21
4935
0
LINE
5
294
100
AcDbEntity
8
4_frame
6
ByLayer
62
256
370
-1
100
AcDbLine
10
7440
20
5025
11
7405
21
4935
0
LINE
5
295
100
AcDbEntity
8
4_frame
6
ByLayer
62
256
370
-1
100
AcDbLine
10
7405
20
5025
11
7440
21
4935
0
LINE
5
296
100
AcDbEntity
8
4_frame
6
ByLayer
62
256
370
-1
100
AcDbLine
10
1295
20
2830
11
1205
21
2795
0
LINE
5
297
100
AcDbEntity
8
4_frame
6
ByLayer
62
256
370
-1
100
AcDbLine
10
1205
20
2830
11
1295
21
2795
0
LINE
5
298
100
AcDbEntity
8
4_frame
6
ByLayer
62
256
370
-1
100
AcDbLine
10
1205
20
4900
11
1295
21
4900
0
LINE
5
299
100
AcDbEntity
8
4_frame
6
ByLayer
62
256
370
-1
100
AcDbLine
10
1205
20
4935
11
1295
21
4935
0
LINE
5
29A
100
AcDbEntity
8
4_frame
6
ByLayer
62
256
370
-1
100
AcDbLine
10
1295
20
4935
11
1205
21
4900
0
LINE
5
29B
100
AcDbEntity
8
4_frame
6
ByLayer
62
256
370
-1
100
AcDbLine
10
1205
20
4935
11
1295
21
4900
0
LINE
5
29C
100
AcDbEntity
8
4_frame
6
ByLayer
62
256
370
-1
100
AcDbLine
10
7350
20
4900
11
7440
21
4900
0
LINE
5
29D
100
AcDbEntity
8
4_frame
6
ByLayer
62
256
370
-1
100
AcDbLine
10
7350
20
4935
11
7440
21
4935
0
LINE
5
29E
100
AcDbEntity
8
4_frame
6
ByLayer
62
256
370
-1
100
AcDbLine
10
7440
20
4935
11
7350
21
4900
0
LINE
5
29F
100
AcDbEntity
8
4_frame
6
ByLayer
62
256
370
-1
100
AcDbLine
10
7350
20
4935
11
7440
21
4900
0
LINE
5
2A0
100
AcDbEntity
8
4_frame
6
ByLayer
62
256
370
-1
100
AcDbLine
10
7350
20
2795
11
7440
21
2795
0
LINE
5
2A1
100
AcDbEntity
8
4_frame
6
ByLayer
62
256
370
-1
100
AcDbLine
10
7350
20
2830
11
7440
21
2830
0
LINE
5
2A2
100
AcDbEntity
8
4_frame
6
ByLayer
62
256
370
-1
100
AcDbLine
10
7440
20
2830
11
7350
21
2795
0
LINE
5
2A3
100
AcDbEntity
8
4_frame
6
ByLayer
62
256
370
-1
100
AcDbLine
10
7350
20
2830
11
7440
21
2795
0
LINE
5
2A4
100
AcDbEntity
8
4_frame
6
ByLayer
62
256
370
-1
100
AcDbLine
10
4770
20
3620
11
4770
21
2705
0
LINE
5
2A5
100
AcDbEntity
8
4_frame
6
ByLayer
62
256
370
-1
100
AcDbLine
10
1205
20
2705
11
7440
21
2705
0
LINE
5
2A6
100
AcDbEntity
8
4_frame
6
ByLayer
62
256
370
-1
100
AcDbLine
10
7440
20
5025
11
1205
21
5025
0
LINE
5
2A7
100
AcDbEntity
8
4_frame
6
ByLayer
62
256
370
-1
100
AcDbLine
10
1205
20
2795
11
1205
21
2705
0
LINE
5
2A8
100
AcDbEntity
8
4_frame
6
ByLayer
62
256
370
-1
100
AcDbLine
10
7440
20
2795
11
7440
21
2705
0
LINE
5
2A9
100
AcDbEntity
8
4_frame
6
ByLayer
62
256
370
-1
100
AcDbLine
10
7440
20
5025
11
7440
21
4935
0
LINE
5
2AA
100
AcDbEntity
8
4_frame
6
ByLayer
62
256
370
-1
100
AcDbLine
10
1205
20
4935
11
1205
21
5025
0
LINE
5
2AB
100
AcDbEntity
8
4_frame
6
ByLayer
62
256
370
-1
100
AcDbLine
10
1205
20
2795
11
1295
21
2795
0
LINE
5
2AC
100
AcDbEntity
8
4_frame
6
ByLayer
62
256
370
-1
100
AcDbLine
10
1295
20
4935
11
1205
21
4935
0
LINE
5
2AD
100
AcDbEntity
8
4_frame
6
ByLayer
62
256
370
-1
100
AcDbLine
10
1205
20
4935
11
1205
21
2795
0
LINE
5
2AE
100
AcDbEntity
8
4_frame
6
ByLayer
62
256
370
-1
100
AcDbLine
10
7440
20
2795
11
7440
21
4935
0
LINE
5
2AF
100
AcDbEntity
8
4_frame
6
ByLayer
62
256
370
-1
100
AcDbLine
10
7350
20
4935
11
7350
21
2795
0
LINE
5
2B0
100
AcDbEntity
8
4_frame
6
ByLayer
62
256
370
-1
100
AcDbLine
10
4790
20
2795
11
4790
21
2705
0
LINE
5
2B1
100
AcDbEntity
8
4_frame
6
ByLayer
62
256
370
-1
100
AcDbLine
10
4770
20
2795
11
4770
21
2705
0
LINE
5
2B2
100
AcDbEntity
8
4_frame
6
ByLayer
62
256
370
-1
100
AcDbLine
10
1205
20
2830
11
1295
21
2830
0
LINE
5
2B3
100
AcDbEntity
8
4_frame
6
ByLayer
62
256
370
-1
100
AcDbLine
10
1240
20
2795
11
1240
21
2705
0
LINE
5
2B4
100
AcDbEntity
8
4_frame
6
ByLayer
62
256
370
-1
100
AcDbLine
10
1240
20
2795
11
1205
21
2705
0
LINE
5
2B5
100
AcDbEntity
8
4_frame
6
ByLayer
62
256
370
-1
100
AcDbLine
10
1205
20
2795
11
1240
21
2705
0
LINE
5
2B6
100
AcDbEntity
8
4_frame
6
ByLayer
62
256
370
-1
100
AcDbLine
10
1240
20
5025
11
1240
21
4935
0
LINE
5
2B7
100
AcDbEntity
8
4_frame
6
ByLayer
62
256
370
-1
100
AcDbLine
10
1240
20
5025
11
1205
21
4935
0
LINE
5
2B8
100
AcDbEntity
8
4_frame
6
ByLayer
62
256
370
-1
100
AcDbLine
10
1205
20
5025
11
1240
21
4935
0
LINE
5
2B9
100
AcDbEntity
8
4_frame
6
ByLayer
62
256
370
-1
100
AcDbLine
10
7405
20
2795
11
7405
21
2705
0
LINE
5
2BA
100
AcDbEntity
8
4_frame
6
ByLayer
62
256
370
-1
100
AcDbLine
10
7440
20
2795
11
7440
21
2705
0
LINE
5
2BB
100
AcDbEntity
8
4_frame
6
ByLayer
62
256
370
-1
100
AcDbLine
10
7440
20
2795
11
7405
21
2705
0
LINE
5
2BC
100
AcDbEntity
8
4_frame
6
ByLayer
62
256
370
-1
100
AcDbLine
10
7405
20
2795
11
7440
21
2705
0
LINE
5
2BD
100
AcDbEntity
8
4_frame
6
ByLayer
62
256
370
-1
100
AcDbLine
10
7405
20
5025
11
7405
21
4935
0
LINE
5
2BE
100
AcDbEntity
8
4_frame
6
ByLayer
62
256
370
-1
100
AcDbLine
10
7440
20
5025
11
7440
21
4935
0
LINE
5
2BF
100
AcDbEntity
8
4_frame
6
ByLayer
62
256
370
-1
100
AcDbLine
10
7440
20
5025
11
7405
21
4935
0
LINE
5
2C0
100
AcDbEntity
8
4_frame
6
ByLayer
62
256
370
-1
100
AcDbLine
10
7405
20
5025
11
7440
21
4935
0
LINE
5
2C1
100
AcDbEntity
8
4_frame
6
ByLayer
62
256
370
-1
100
AcDbLine
10
1295
20
2795
11
7440
21
2795
0
LINE
5
2C2
100
AcDbEntity
8
4_frame
6
ByLayer
62
256
370
-1
100
AcDbLine
10
1295
20
2830
11
1205
21
2795
0
LINE
5
2C3
100
AcDbEntity
8
4_frame
6
ByLayer
62
256
370
-1
100
AcDbLine
10
1205
20
2830
11
1295
21
2795
0
LINE
5
2C4
100
AcDbEntity
8
4_frame
6
ByLayer
62
256
370
-1
100
AcDbLine
10
1295
20
2795
11
1295
21
4935
0
LINE
5
2C5
100
AcDbEntity
8
4_frame
6
ByLayer
62
256
370
-1
100
AcDbLine
10
1205
20
4900
11
1295
21
4900
0
LINE
5
2C6
100
AcDbEntity
8
4_frame
6
ByLayer
62
256
370
-1
100
AcDbLine
10
1205
20
4935
11
1295
21
4935
0
LINE
5
2C7
100
AcDbEntity
8
4_frame
6
ByLayer
62
256
370
-1
100
AcDbLine
10
1295
20
4935
11
1205
21
4900
0
LINE
5
2C8
100
AcDbEntity
8
4_frame
6
ByLayer
62
256
370
-1
100
AcDbLine
10
1205
20
4935
11
1295
21
4900
0
LINE
5
2C9
100
AcDbEntity
8
4_frame
6
ByLayer
62
256
370
-1
100
AcDbLine
10
7350
20
4900
11
7440
21
4900
0
LINE
5
2CA
100
AcDbEntity
8
4_frame
6
ByLayer
62
256
370
-1
100
AcDbLine
10
7350
20
4935
11
7440
21
4935
0
LINE
5
2CB
100
AcDbEntity
8
4_frame
6
ByLayer
62
256
370
-1
100
AcDbLine
10
7440
20
4935
11
7350
21
4900
0
LINE
5
2CC
100
AcDbEntity
8
4_frame
6
ByLayer
62
256
370
-1
100
AcDbLine
10
7350
20
4935
11
7440
21
4900
0
LINE
5
2CD
100
AcDbEntity
8
4_frame
6
ByLayer
62
256
370
-1
100
AcDbLine
10
7350
20
2795
11
7440
21
2795
0
LINE
5
2CE
100
AcDbEntity
8
4_frame
6
ByLayer
62
256
370
-1
100
AcDbLine
10
7350
20
2830
11
7440
21
2830
0
LINE
5
2CF
100
AcDbEntity
8
4_frame
6
ByLayer
62
256
370
-1
100
AcDbLine
10
7440
20
2830
11
7350
21
2795
0
LINE
5
2D0
100
AcDbEntity
8
4_frame
6
ByLayer
62
256
370
-1
100
AcDbLine
10
7350
20
2830
11
7440
21
2795
0
LINE
5
2D1
100
AcDbEntity
8
4_frame
6
ByLayer
62
256
370
-1
100
AcDbLine
10
4790
20
2795
11
4790
21
2705
0
ARC
5
2D2
100
AcDbEntity
8
4_frame
6
ByLayer
62
256
370
-1
100
AcDbCircle
10
4770
20
2705
40
915
100
AcDbArc
50
90
51
180
0
LINE
5
2D3
100
AcDbEntity
8
4_frame
6
ByLayer
62
256
370
-1
100
AcDbLine
10
4770
20
3620
11
4770
21
2705
0
LINE
5
2D4
100
AcDbEntity
8
4_frame
6
ByLayer
62
256
370
-1
100
AcDbLine
10
4305
20
5025
11
4305
21
4935
0
LINE
5
2D5
100
AcDbEntity
8
4_frame
6
ByLayer
62
256
370
-1
100
AcDbLine
10
4340
20
5025
11
4340
21
4935
0
LINE
5
2D6
100
AcDbEntity
8
4_frame
6
ByLayer
62
256
370
-1
100
AcDbLine
10
4305
20
5025
11
4340
21
4935
0
LINE
5
2D7
100
AcDbEntity
8
4_frame
6
ByLayer
62
256
370
-1
100
AcDbLine
10
4340
20
5025
11
4305
21
4935
0
LINE
5
2D8
100
AcDbEntity
8
4_frame
6
ByLayer
62
256
370
-1
100
AcDbLine
10
4305
20
5025
11
4305
21
4935
0
LINE
5
2D9
100
AcDbEntity
8
4_frame
6
ByLayer
62
256
370
-1
100
AcDbLine
10
4340
20
5025
11
4340
21
4935
0
LINE
5
2DA
100
AcDbEntity
8
4_frame
6
ByLayer
62
256
370
-1
100
AcDbLine
10
4305
20
5025
11
4340
21
4935
0
LINE
5
2DB
100
AcDbEntity
8
4_frame
6
ByLayer
62
256
370
-1
100
AcDbLine
10
4340
20
5025
11
4305
21
4935
0
LINE
5
2DC
100
AcDbEntity
8
4_frame
6
ByLayer
62
256
370
-1
100
AcDbLine
10
3125
20
5025
11
3125
21
4935
0
LINE
5
2DD
100
AcDbEntity
8
4_frame
6
ByLayer
62
256
370
-1
100
AcDbLine
10
5520
20
5025
11
5520
21
4935
0
LINE
5
2DE
100
AcDbEntity
8
4_frame
6
ByLayer
62
256
370
-1
100
AcDbLine
10
3125
20
2795
11
3125
21
2705
0
LINE
5
2DF
100
AcDbEntity
8
4_frame
6
ByLayer
62
256
370
-1
100
AcDbLine
10
1295
20
3882
11
1205
21
3882
0
LINE
5
2E0
100
AcDbEntity
8
4_frame
6
ByLayer
62
256
370
-1
100
AcDbLine
10
1205
20
3847
11
1295
21
3847
0
LINE
5
2E1
100
AcDbEntity
8
4_frame
6
ByLayer
62
256
370
-1
100
AcDbLine
10
1295
20
3882
11
1205
21
3847
0
LINE
5
2E2
100
AcDbEntity
8
4_frame
6
ByLayer
62
256
370
-1
100
AcDbLine
10
1205
20
3882
11
1295
21
3847
0
LINE
5
2E3
100
AcDbEntity
8
4_frame
6
ByLayer
62
256
370
-1
100
AcDbLine
10
1205
20
3847
11
1295
21
3847
0
LINE
5
2E4
100
AcDbEntity
8
4_frame
6
ByLayer
62
256
370
-1
100
AcDbLine
10
1295
20
3882
11
1205
21
3847
0
LINE
5
2E5
100
AcDbEntity
8
4_frame
6
ByLayer
62
256
370
-1
100
AcDbLine
10
1205
20
3882
11
1295
21
3847
0
LINE
5
2E6
100
AcDbEntity
8
4_frame
6
ByLayer
62
256
370
-1
100
AcDbLine
10
7440
20
3882
11
7350
21
3882
0
LINE
5
2E7
100
AcDbEntity
8
4_frame
6
ByLayer
62
256
370
-1
100
AcDbLine
10
7350
20
3847
11
7440
21
3847
0
LINE
5
2E8
100
AcDbEntity
8
4_frame
6
ByLayer
62
256
370
-1
100
AcDbLine
10
7440
20
3882
11
7350
21
3847
0
LINE
5
2E9
100
AcDbEntity
8
4_frame
6
ByLayer
62
256
370
-1
100
AcDbLine
10
7350
20
3882
11
7440
21
3847
0
LINE
5
2EA
100
AcDbEntity
8
4_frame
6
ByLayer
62
256
370
-1
100
AcDbLine
10
7350
20
3847
11
7440
21
3847
0
LINE
5
2EB
100
AcDbEntity
8
4_frame
6
ByLayer
62
256
370
-1
100
AcDbLine
10
7440
20
3882
11
7350
21
3847
0
LINE
5
2EC
100
AcDbEntity
8
4_frame
6
ByLayer
62
256
370
-1
100
AcDbLine
10
7350
20
3882
11
7440
21
3847
0
LINE
5
2ED
100
AcDbEntity
8
4_frame
6
ByLayer
62
256
370
-1
100
AcDbLine
10
7350
20
4450
11
7350
21
4520
0
LINE
5
2EE
100
AcDbEntity
8
4_frame
6
ByLayer
62
256
370
-1
100
AcDbLine
10
1295
20
4935
11
7350
21
4935
0
LINE
5
2EF
100
AcDbEntity
8
4_frame
6
ByLayer
62
256
370
-1
100
AcDbLine
10
4357
20
4935
11
4287
21
4935
0
LINE
5
2F0
100
AcDbEntity
8
4_frame
6
ByLayer
62
256
370
-1
100
AcDbLine
10
7350
20
4865
11
7350
21
4935
0
LINE
5
2F1
100
AcDbEntity
8
4_frame
6
ByLayer
62
256
370
-1
100
AcDbLine
10
5520
20
2795
11
5520
21
2705
0
LINE
5
2F2
100
AcDbEntity
8
4_frame
6
ByLayer
62
256
370
-1
100
AcDbLine
10
5555
20
2705
11
5485
21
2705
0
LINE
5
2F3
100
AcDbEntity
8
6_roof_rack
6
ByLayer
62
256
370
-1
100
AcDbLine
10
3125
20
5025
11
3125
21
4935
0
LINE
5
2F4
100
AcDbEntity
8
6_roof_rack
6
ByLayer
62
256
370
-1
100
AcDbLine
10
3125
20
2795
11
3125
21
2705
0
LINE
5
2F5
100
AcDbEntity
8
6_roof_rack
6
ByLayer
62
256
370
-1
100
AcDbLine
10
5520
20
5025
11
5520
21
4935
0
LINE
5
2F6
100
AcDbEntity
8
6_roof_rack
6
ByLayer
62
256
370
-1
100
AcDbLine
10
5520
20
2795
11
5520
21
2705
0
CIRCLE
5
2F7
100
AcDbEntity
8
4_frame_d
6
ByLayer
62
256
370
-1
100
AcDbCircle
10
3125
20
5913.19528818
40
80.622577483
0
MTEXT
5
2F8
100
AcDbEntity
8
4_frame_d
6
ByLayer
62
256
370
-1
100
AcDbMText
10
3109
20
5950.19528818
30
0
40
72
41
40
71
1
72
1
1
4
7
standard
210
0
220
0
230
1
50
0
73
2
44
1
0
LINE
5
2F9
100
AcDbEntity
8
4_frame_d
6
BORDER2
62
256
370
-1
100
AcDbLine
10
3125
20
5832.5727107
11
3125
21
5125
0
CIRCLE
5
2FA
100
AcDbEntity
8
4_frame_d
6
ByLayer
62
256
370
-1
100
AcDbCircle
10
5520
20
5913.19528818
40
80.622577483
0
LINE
5
2FB
100
AcDbEntity
8
4_frame_d
6
BORDER2
62
256
370
-1
100
AcDbLine
10
5520
20
5832.5727107
11
5520
21
5125
0
MTEXT
5
2FC
100
AcDbEntity
8
4_frame_d
6
ByLayer
62
256
370
-1
100
AcDbMText
10
5504
20
5950.19528818
30
0
40
72
41
32
71
1
72
1
1
8
7
standard
210
0
220
0
230
1
50
0
73
2
44
1
0
CIRCLE
5
2FD
100
AcDbEntity
8
4_frame_d
6
ByLayer
62
256
370
-1
100
AcDbCircle
10
8420.62257745
20
2812.00213484
40
80.622577483
0
CIRCLE
5
2FE
100
AcDbEntity
8
4_frame_d
6
ByLayer
62
256
370
-1
100
AcDbCircle
10
174.377422545
20
2811.99786516
40
80.622577483
0
MTEXT
5
2FF
100
AcDbEntity
8
4_frame_d
6
ByLayer
62
256
370
-1
100
AcDbMText
10
158.377422545
20
2848.99786516
30
0
40
72
41
48
71
1
72
1
1
A
7
standard
210
0
220
0
230
1
50
0
73
2
44
1
0
MTEXT
5
300
100
AcDbEntity
8
4_frame_d
6
ByLayer
62
256
370
-1
100
AcDbMText
10
8394.62257745
20
2849.00213484
30
0
40
72
41
48
71
1
72
1
1
A
7
standard
210
0
220
0
230
1
50
360
73
2
44
1
0
LINE
5
301
100
AcDbEntity
8
4_frame_d
6
BORDER2
62
256
370
-1
100
AcDbLine
10
7490
20
2812
11
8340
21
2812
0
LINE
5
302
100
AcDbEntity
8
4_frame_d
6
BORDER2
62
256
370
-1
100
AcDbLine
10
1155
20
2812
11
255
21
2812
0
CIRCLE
5
303
100
AcDbEntity
8
4_frame_d
6
ByLayer
62
256
370
-1
100
AcDbCircle
10
8420.62257745
20
3864.00213484
40
80.622577483
0
CIRCLE
5
304
100
AcDbEntity
8
4_frame_d
6
ByLayer
62
256
370
-1
100
AcDbCircle
10
174.377422545
20
3863.99786516
40
80.622577483
0
LINE
5
305
100
AcDbEntity
8
4_frame_d
6
BORDER2
62
256
370
-1
100
AcDbLine
10
7490
20
3864
11
8340
21
3864
0
LINE
5
306
100
AcDbEntity
8
4_frame_d
6
BORDER2
62
256
370
-1
100
AcDbLine
10
1155
20
3864
11
255
21
3864
0
CIRCLE
5
307
100
AcDbEntity
8
4_frame_d
6
ByLayer
62
256
370
-1
100
AcDbCircle
10
8420.62257745
20
4917.00213484
40
80.622577483
0
CIRCLE
5
308
100
AcDbEntity
8
4_frame_d
6
ByLayer
62
256
370
-1
100
AcDbCircle
10
174.377422545
20
4916.99786516
40
80.622577483
0
LINE
5
309
100
AcDbEntity
8
4_frame_d
6
BORDER2
62
256
370
-1
100
AcDbLine
10
7490
20
4917
11
8340
21
4917
0
LINE
5
30A
100
AcDbEntity
8
4_frame_d
6
BORDER2
62
256
370
-1
100
AcDbLine
10
1155
20
4917
11
255
21
4917
0
MTEXT
5
30B
100
AcDbEntity
8
4_frame_d
6
ByLayer
62
256
370
-1
100
AcDbMText
10
158.377422545
20
3900.99786516
30
0
40
72
41
32
71
1
72
1
1
C
7
standard
210
0
220
0
230
1
50
0
73
2
44
1
0
MTEXT
5
30C
100
AcDbEntity
8
4_frame_d
6
ByLayer
62
256
370
-1
100
AcDbMText
10
158.377422545
20
4953.99786516
30
0
40
72
41
32
71
1
72
1
1
E
7
standard
210
0
220
0
230
1
50
0
73
2
44
1
0
MTEXT
5
30D
100
AcDbEntity
8
4_frame_d
6
ByLayer
62
256
370
-1
100
AcDbMText
10
8394.62257745
20
3901.00213484
30
0
40
72
41
32
71
1
72
1
1
C
7
standard
210
0
220
0
230
1
50
360
73
2
44
1
0
MTEXT
5
30E
100
AcDbEntity
8
4_frame_d
6
ByLayer
62
256
370
-1
100
AcDbMText
10
8394.62257745
20
4954.00213484
30
0
40
72
41
32
71
1
72
1
1
E
7
standard
210
0
220
0
230
1
50
360
73
2
44
1
0
LINE
5
30F
100
AcDbEntity
8
4_frame_d
6
BORDER2
62
256
370
-1
100
AcDbLine
10
7490
20
2795
11
8290
21
2795
0
LINE
5
310
100
AcDbEntity
8
4_frame_d
6
BORDER2
62
256
370
-1
100
AcDbLine
10
7490
20
4935
11
8290
21
4935
0
DIMENSION
5
311
100
AcDbEntity
8
4_frame_d
6
ByLayer
62
256
370
-1
100
AcDbDimension
2
*D1
10
8000
20
2795
30
0
11
7948
21
3865
31
0
70
32
71
5
72
0
3
Standard
53
0
210
0
220
0
230
1
100
AcDbAlignedDimension
13
7948.25609773
23
4935
33
0
14
7948.25609773
24
2795
34
0
50
90
100
AcDbRotatedDimension
0
LINE
5
312
100
AcDbEntity
8
4_frame_d
6
BORDER2
62
256
370
-1
100
AcDbLine
10
355
20
2795
11
1155
21
2795
0
LINE
5
313
100
AcDbEntity
8
4_frame_d
6
BORDER2
62
256
370
-1
100
AcDbLine
10
355
20
4935
11
1155
21
4935
0
DIMENSION
5
314
100
AcDbEntity
8
4_frame_d
6
ByLayer
62
256
370
-1
100
AcDbDimension
2
*D2
10
600
20
2795
30
0
11
548
21
3865
31
0
70
32
71
5
72
0
3
Standard
53
0
210
0
220
0
230
1
100
AcDbAlignedDimension
13
564.614310861
23
4935
33
0
14
552.972778678
24
2795
34
0
50
90
100
AcDbRotatedDimension
0
LINE
5
315
100
AcDbEntity
8
6_roof_rack
6
ByLayer
62
256
370
-1
100
AcDbLine
10
1205
20
4450
11
1205
21
4485
0
LINE
5
316
100
AcDbEntity
8
6_roof_rack
6
ByLayer
62
256
370
-1
100
AcDbLine
10
7440
20
4450
11
7440
21
4485
0
LINE
5
317
100
AcDbEntity
8
6_roof_rack
6
ByLayer
62
256
370
-1
100
AcDbLine
10
1205
20
3280
11
1205
21
3245
0
LINE
5
318
100
AcDbEntity
8
6_roof_rack
6
ByLayer
62
256
370
-1
100
AcDbLine
10
7440
20
3245
11
7440
21
3280
0
LINE
5
319
100
AcDbEntity
8
6_roof_rack
6
ByLayer
62
256
370
-1
100
AcDbLine
10
3170
20
4935
11
5475
21
4935
0
LINE
5
31A
100
AcDbEntity
8
6_roof_rack
6
ByLayer
62
256
370
-1
100
AcDbLine
10
3170
20
2795
11
5475
21
2795
0
LINE
5
31B
100
AcDbEntity
8
4_frame
6
ByLayer
62
256
370
-1
100
AcDbLine
10
3080
20
4935
11
3080
21
5025
0
LINE
5
31C
100
AcDbEntity
8
4_frame
6
ByLayer
62
256
370
-1
100
AcDbLine
10
3170
20
5025
11
3170
21
4935
0
LINE
5
31D
100
AcDbEntity
8
4_frame
6
ByLayer
62
256
370
-1
100
AcDbLine
10
5475
20
5025
11
5475
21
4935
0
LINE
5
31E
100
AcDbEntity
8
4_frame
6
ByLayer
62
256
370
-1
100
AcDbLine
10
5565
20
5025
11
5565
21
4935
0
LINE
5
31F
100
AcDbEntity
8
4_frame
6
ByLayer
62
256
370
-1
100
AcDbLine
10
5565
20
2795
11
5565
21
2705
0
LINE
5
320
100
AcDbEntity
8
4_frame
6
ByLayer
62
256
370
-1
100
AcDbLine
10
5475
20
2795
11
5475
21
2705
0
LINE
5
321
100
AcDbEntity
8
4_frame
6
ByLayer
62
256
370
-1
100
AcDbLine
10
3080
20
2705
11
3080
21
2795
0
LINE
5
322
100
AcDbEntity
8
4_frame
6
ByLayer
62
256
370
-1
100
AcDbLine
10
3170
20
2795
11
3170
21
2705
0
LINE
5
323
100
AcDbEntity
8
4_frame
6
ByLayer
62
256
370
-1
100
AcDbLine
10
3125
20
5025
11
3080
21
4935
0
LINE
5
324
100
AcDbEntity
8
4_frame
6
ByLayer
62
256
370
-1
100
AcDbLine
10
3080
20
5025
11
3125
21
4935
0
LINE
5
325
100
AcDbEntity
8
4_frame
6
ByLayer
62
256
370
-1
100
AcDbLine
10
3125
20
5025
11
3170
21
4935
0
LINE
5
326
100
AcDbEntity
8
4_frame
6
ByLayer
62
256
370
-1
100
AcDbLine
10
3170
20
5025
11
3125
21
4935
0
LINE
5
327
100
AcDbEntity
8
4_frame
6
ByLayer
62
256
370
-1
100
AcDbLine
10
3170
20
2795
11
3125
21
2705
0
LINE
5
328
100
AcDbEntity
8
4_frame
6
ByLayer
62
256
370
-1
100
AcDbLine
10
3125
20
2705
11
3080
21
2795
0
LINE
5
329
100
AcDbEntity
8
4_frame
6
ByLayer
62
256
370
-1
100
AcDbLine
10
3080
20
2705
11
3125
21
2795
0
LINE
5
32A
100
AcDbEntity
8
4_frame
6
ByLayer
62
256
370
-1
100
AcDbLine
10
3125
20
2795
11
3170
21
2705
0
LINE
5
32B
100
AcDbEntity
8
4_frame
6
ByLayer
62
256
370
-1
100
AcDbLine
10
5475
20
2705
11
5520
21
2795
0
LINE
5
32C
100
AcDbEntity
8
4_frame
6
ByLayer
62
256
370
-1
100
AcDbLine
10
5520
20
2795
11
5555
21
2705
0
LINE
5
32D
100
AcDbEntity
8
4_frame
6
ByLayer
62
256
370
-1
100
AcDbLine
10
5565
20
2795
11
5520
21
2705
0
LINE
5
32E
100
AcDbEntity
8
4_frame
6
ByLayer
62
256
370
-1
100
AcDbLine
10
5520
20
2705
11
5475
21
2795
0
LINE
5
32F
100
AcDbEntity
8
4_frame
6
ByLayer
62
256
370
-1
100
AcDbLine
10
5475
20
5025
11
5520
21
4935
0
LINE
5
330
100
AcDbEntity
8
4_frame
6
ByLayer
62
256
370
-1
100
AcDbLine
10
5520
20
4935
11
5565
21
5025
0
LINE
5
331
100
AcDbEntity
8
4_frame
6
ByLayer
62
256
370
-1
100
AcDbLine
10
5565
20
4935
11
5520
21
5025
0
LINE
5
332
100
AcDbEntity
8
4_frame
6
ByLayer
62
256
370
-1
100
AcDbLine
10
5520
20
5025
11
5475
21
4935
0
LEADER
5
333
100
AcDbEntity
8
4_frame_d
6
ByLayer
62
256
370
-1
100
AcDbLeader
3
Standard
71
1
72
0
73
3
74
0
75
0
40
1
41
10
76
0
76
0
0
LEADER
5
334
100
AcDbEntity
8
4_frame_d
6
ByLayer
62
256
370
-1
100
AcDbLeader
3
Standard
71
1
72
0
73
3
74
0
75
0
40
1
41
10
76
3
76
3
10
3147.5
20
4980
30
0
10
3300
20
4700
30
0
10
4000
20
4700
30
0
0
LEADER
5
335
100
AcDbEntity
8
4_frame_d
6
ByLayer
62
256
370
-1
100
AcDbLeader
3
Standard
71
1
72
0
73
3
74
0
75
0
40
1
41
10
76
3
76
3
10
5542.5
20
4980
30
0
10
5695
20
4700
30
0
10
6395
20
4700
30
0
0
CIRCLE
5
336
100
AcDbEntity
8
4_frame_d
6
ByLayer
62
256
370
-1
100
AcDbCircle
10
1222
20
5913.19528818
40
80.622577483
0
MTEXT
5
337
100
AcDbEntity
8
4_frame_d
6
ByLayer
62
256
370
-1
100
AcDbMText
10
1206
20
5950.19528818
30
0
40
72
41
16
71
1
72
1
1
1
7
standard
210
0
220
0
230
1
50
0
73
2
44
1
0
LINE
5
338
100
AcDbEntity
8
4_frame_d
6
BORDER2
62
256
370
-1
100
AcDbLine
10
1222
20
5832.5727107
11
1222
21
5125
0
CIRCLE
5
339
100
AcDbEntity
8
4_frame_d
6
ByLayer
62
256
370
-1
100
AcDbCircle
10
4322
20
5913.19528818
40
80.622577483
0
LINE
5
33A
100
AcDbEntity
8
4_frame_d
6
BORDER2
62
256
370
-1
100
AcDbLine
10
4322
20
5832.5727107
11
4322
21
5125
0
MTEXT
5
33B
100
AcDbEntity
8
4_frame_d
6
ByLayer
62
256
370
-1
100
AcDbMText
10
4306
20
5950.19528818
30
0
40
72
41
32
71
1
72
1
1
6
7
standard
210
0
220
0
230
1
50
0
73
2
44
1
0
CIRCLE
5
33C
100
AcDbEntity
8
4_frame_d
6
ByLayer
62
256
370
-1
100
AcDbCircle
10
7422
20
5913.19528818
40
80.622577483
0
LINE
5
33D
100
AcDbEntity
8
4_frame_d
6
BORDER2
62
256
370
-1
100
AcDbLine
10
7422
20
5832.5727107
11
7422
21
5125
0
MTEXT
5
33E
100
AcDbEntity
8
4_frame_d
6
ByLayer
62
256
370
-1
100
AcDbMText
10
7390
20
5953.19528818
30
0
40
72
41
56
71
1
72
1
1
11
7
standard
210
0
220
0
230
1
50
0
73
2
44
1
0
CIRCLE
5
33F
100
AcDbEntity
8
4_frame_d
6
ByLayer
62
256
370
-1
100
AcDbCircle
10
3125
20
1305
40
80.622577483
0
MTEXT
5
340
100
AcDbEntity
8
4_frame_d
6
ByLayer
62
256
370
-1
100
AcDbMText
10
3109
20
1342
30
0
40
72
41
40
71
1
72
1
1
4
7
standard
210
0
220
0
230
1
50
0
73
2
44
1
0
LINE
5
341
100
AcDbEntity
8
4_frame_d
6
BORDER2
62
256
370
-1
100
AcDbLine
10
3125
20
2605
11
3125
21
1385.62257748
0
CIRCLE
5
342
100
AcDbEntity
8
4_frame_d
6
ByLayer
62
256
370
-1
100
AcDbCircle
10
5520
20
1305
40
80.622577483
0
LINE
5
343
100
AcDbEntity
8
4_frame_d
6
BORDER2
62
256
370
-1
100
AcDbLine
10
5520
20
2605
11
5520
21
1385.62257748
0
MTEXT
5
344
100
AcDbEntity
8
4_frame_d
6
ByLayer
62
256
370
-1
100
AcDbMText
10
5504
20
1342
30
0
40
72
41
32
71
1
72
1
1
8
7
standard
210
0
220
0
230
1
50
0
73
2
44
1
0
CIRCLE
5
345
100
AcDbEntity
8
4_frame_d
6
ByLayer
62
256
370
-1
100
AcDbCircle
10
1222
20
1305
40
80.622577483
0
MTEXT
5
346
100
AcDbEntity
8
4_frame_d
6
ByLayer
62
256
370
-1
100
AcDbMText
10
1206
20
1342
30
0
40
72
41
16
71
1
72
1
1
1
7
standard
210
0
220
0
230
1
50
0
73
2
44
1
0
LINE
5
347
100
AcDbEntity
8
4_frame_d
6
BORDER2
62
256
370
-1
100
AcDbLine
10
1222
20
2605
11
1222
21
1385.62257748
0
CIRCLE
5
348
100
AcDbEntity
8
4_frame_d
6
ByLayer
62
256
370
-1
100
AcDbCircle
10
7422
20
1305
40
80.622577483
0
LINE
5
349
100
AcDbEntity
8
4_frame_d
6
BORDER2
62
256
370
-1
100
AcDbLine
10
7422
20
2605
11
7422
21
1385.62257748
0
MTEXT
5
34A
100
AcDbEntity
8
4_frame_d
6
ByLayer
62
256
370
-1
100
AcDbMText
10
7390
20
1345
30
0
40
72
41
56
71
1
72
1
1
11
7
standard
210
0
220
0
230
1
50
0
73
2
44
1
0
DIMENSION
5
34B
100
AcDbEntity
8
4_frame_d
6
ByLayer
62
256
370
-1
100
AcDbDimension
2
*D6
10
3125
20
5600
30
0
11
2173.5
21
5652
31
0
70
32
71
5
3
Standard
53
0
210
0
220
0
230
1
100
AcDbAlignedDimension
13
1222
23
5593.39241592
33
0
14
3125
24
5587.70807403
34
0
100
AcDbRotatedDimension
0
DIMENSION
5
34C
100
AcDbEntity
8
4_frame_d
6
ByLayer
62
256
370
-1
100
AcDbDimension
2
*D7
10
5520
20
5600
30
0
11
4322.5
21
5652
31
0
70
32
71
5
3
Standard
53
0
210
0
220
0
230
1
100
AcDbAlignedDimension
13
3125
23
5593.39241592
33
0
14
5520
24
5599.0767578
34
0
100
AcDbRotatedDimension
0
DIMENSION
5
34D
100
AcDbEntity
8
4_frame_d
6
ByLayer
62
256
370
-1
100
AcDbDimension
2
*D8
10
7422
20
5600
30
0
11
6471
21
5652
31
0
70
32
71
5
3
Standard
53
0
210
0
220
0
230
1
100
AcDbAlignedDimension
13
5520
23
5570.65504837
33
0
14
7422
24
5576.33939026
34
0
100
AcDbRotatedDimension
0
DIMENSION
5
34E
100
AcDbEntity
8
4_frame_d
6
ByLayer
62
256
370
-1
100
AcDbDimension
2
*D9
10
3125
20
1900
30
0
11
2173.5
21
1952
31
0
70
32
71
5
3
Standard
53
0
210
0
220
0
230
1
100
AcDbAlignedDimension
13
1222
23
1904.25453184
33
0
14
3125
24
1921.3075575
34
0
100
AcDbRotatedDimension
0
DIMENSION
5
34F
100
AcDbEntity
8
4_frame_d
6
ByLayer
62
256
370
-1
100
AcDbDimension
2
*D10
10
5520
20
1900
30
0
11
4322.5
21
1952
31
0
70
32
71
5
3
Standard
53
0
210
0
220
0
230
1
100
AcDbAlignedDimension
13
3125
23
1944.04492504
33
0
14
5520
24
1944.04492504
34
0
100
AcDbRotatedDimension
0
DIMENSION
5
350
100
AcDbEntity
8
4_frame_d
6
ByLayer
62
256
370
-1
100
AcDbDimension
2
*D11
10
7422
20
1900
30
0
11
6471
21
1952
31
0
70
32
71
5
3
Standard
53
0
210
0
220
0
230
1
100
AcDbAlignedDimension
13
5520
23
1944.04492504
33
0
14
7422
24
1938.36058316
34
0
100
AcDbRotatedDimension
0
MTEXT
5
351
100
AcDbEntity
8
4_frame_d
6
ByLayer
62
256
370
-1
100
AcDbMText
10
7000
20
1060
30
0
40
128
41
1077.33333333
71
1
72
1
1
FRAME PLAN
7
standard
210
0
220
0
230
1
50
0
73
2
44
1
0
MTEXT
5
352
100
AcDbEntity
8
4_frame_d
6
ByLayer
62
256
370
-1
100
AcDbMText
10
8300
20
270
30
0
40
128
41
71.1111111111
71
1
72
1
1
4
7
standard
210
0
220
0
230
1
50
0
73
2
44
1
0
CIRCLE
5
353
100
AcDbEntity
8
6_roof_rack_d
6
ByLayer
62
256
370
-1
100
AcDbCircle
10
3125
20
5913.19528818
40
80.622577483
0
MTEXT
5
354
100
AcDbEntity
8
6_roof_rack_d
6
ByLayer
62
256
370
-1
100
AcDbMText
10
3109
20
5950.19528818
30
0
40
72
41
40
71
1
72
1
1
4
7
standard
210
0
220
0
230
1
50
0
73
2
44
1
0
LINE
5
355
100
AcDbEntity
8
6_roof_rack_d
6
BORDER2
62
256
370
-1
100
AcDbLine
10
3125
20
5832.5727107
11
3125
21
5125
0
CIRCLE
5
356
100
AcDbEntity
8
6_roof_rack_d
6
ByLayer
62
256
370
-1
100
AcDbCircle
10
5520
20
5913.19528818
40
80.622577483
0
LINE
5
357
100
AcDbEntity
8
6_roof_rack_d
6
BORDER2
62
256
370
-1
100
AcDbLine
10
5520
20
5832.5727107
11
5520
21
5125
0
MTEXT
5
358
100
AcDbEntity
8
6_roof_rack_d
6
ByLayer
62
256
370
-1
100
AcDbMText
10
5504
20
5950.19528818
30
0
40
72
41
32
71
1
72
1
1
8
7
standard
210
0
220
0
230
1
50
0
73
2
44
1
0
CIRCLE
5
359
100
AcDbEntity
8
6_roof_rack_d
6
ByLayer
62
256
370
-1
100
AcDbCircle
10
8420.62257745
20
2812.00213484
40
80.622577483
0
CIRCLE
5
35A
100
AcDbEntity
8
6_roof_rack_d
6
ByLayer
62
256
370
-1
100
AcDbCircle
10
174.377422545
20
2811.99786516
40
80.622577483
0
MTEXT
5
35B
100
AcDbEntity
8
6_roof_rack_d
6
ByLayer
62
256
370
-1
100
AcDbMText
10
158.377422545
20
2848.99786516
30
0
40
72
41
48
71
1
72
1
1
A
7
standard
210
0
220
0
230
1
50
0
73
2
44
1
0
MTEXT
5
35C
100
AcDbEntity
8
6_roof_rack_d
6
ByLayer
62
256
370
-1
100
AcDbMText
10
8394.62257745
20
2849.00213484
30
0
40
72
41
48
71
1
72
1
1
A
7
standard
210
0
220
0
230
1
50
360
73
2
44
1
0
LINE
5
35D
100
AcDbEntity
8
6_roof_rack_d
6
BORDER2
62
256
370
-1
100
AcDbLine
10
7490
20
2812
11
8340
21
2812
0
LINE
5
35E
100
AcDbEntity
8
6_roof_rack_d
6
BORDER2
62
256
370
-1
100
AcDbLine
10
1155
20
2812
11
255
21
2812
0
CIRCLE
5
35F
100
AcDbEntity
8
6_roof_rack_d
6
ByLayer
62
256
370
-1
100
AcDbCircle
10
8420.62257745
20
3864.00213484
40
80.622577483
0
CIRCLE
5
360
100
AcDbEntity
8
6_roof_rack_d
6
ByLayer
62
256
370
-1
100
AcDbCircle
10
174.377422545
20
3863.99786516
40
80.622577483
0
CIRCLE
5
361
100
AcDbEntity
8
6_roof_rack_d
6
ByLayer
62
256
370
-1
100
AcDbCircle
10
8420.62257745
20
4917.00213484
40
80.622577483
0
CIRCLE
5
362
100
AcDbEntity
8
6_roof_rack_d
6
ByLayer
62
256
370
-1
100
AcDbCircle
10
174.377422545
20
4916.99786516
40
80.622577483
0
LINE
5
363
100
AcDbEntity
8
6_roof_rack_d
6
BORDER2
62
256
370
-1
100
AcDbLine
10
7490
20
4917
11
8340
21
4917
0
LINE
5
364
100
AcDbEntity
8
6_roof_rack_d
6
BORDER2
62
256
370
-1
100
AcDbLine
10
1155
20
4917
11
255
21
4917
0
MTEXT
5
365
100
AcDbEntity
8
6_roof_rack_d
6
ByLayer
62
256
370
-1
100
AcDbMText
10
158.377422545
20
3900.99786516
30
0
40
72
41
32
71
1
72
1
1
C
7
standard
210
0
220
0
230
1
50
0
73
2
44
1
0
MTEXT
5
366
100
AcDbEntity
8
6_roof_rack_d
6
ByLayer
62
256
370
-1
100
AcDbMText
10
158.377422545
20
4953.99786516
30
0
40
72
41
32
71
1
72
1
1
E
7
standard
210
0
220
0
230
1
50
0
73
2
44
1
0
MTEXT
5
367
100
AcDbEntity
8
6_roof_rack_d
6
ByLayer
62
256
370
-1
100
AcDbMText
10
8394.62257745
20
3901.00213484
30
0
40
72
41
32
71
1
72
1
1
C
7
standard
210
0
220
0
230
1
50
360
73
2
44
1
0
MTEXT
5
368
100
AcDbEntity
8
6_roof_rack_d
6
ByLayer
62
256
370
-1
100
AcDbMText
10
8394.62257745
20
4954.00213484
30
0
40
72
41
32
71
1
72
1
1
E
7
standard
210
0
220
0
230
1
50
360
73
2
44
1
0
LINE
5
369
100
AcDbEntity
8
6_roof_rack_d
6
BORDER2
62
256
370
-1
100
AcDbLine
10
7490
20
2795
11
8290
21
2795
0
LINE
5
36A
100
AcDbEntity
8
6_roof_rack_d
6
BORDER2
62
256
370
-1
100
AcDbLine
10
7490
20
4935
11
8290
21
4935
0
DIMENSION
5
36B
100
AcDbEntity
8
6_roof_rack_d
6
ByLayer
62
256
370
-1
100
AcDbDimension
2
*D12
10
8000
20
2795
30
0
11
7948
21
3865
31
0
70
32
71
5
72
0
3
Standard
53
0
210
0
220
0
230
1
100
AcDbAlignedDimension
13
7948.25609773
23
4935
33
0
14
7948.25609773
24
2795
34
0
50
90
100
AcDbRotatedDimension
0
LINE
5
36C
100
AcDbEntity
8
6_roof_rack_d
6
BORDER2
62
256
370
-1
100
AcDbLine
10
355
20
2795
11
1155
21
2795
0
LINE
5
36D
100
AcDbEntity
8
6_roof_rack_d
6
BORDER2
62
256
370
-1
100
AcDbLine
10
355
20
4935
11
1155
21
4935
0
DIMENSION
5
36E
100
AcDbEntity
8
6_roof_rack_d
6
ByLayer
62
256
370
-1
100
AcDbDimension
2
*D13
10
600
20
2795
30
0
11
548
21
3865
31
0
70
32
71
5
72
0
3
Standard
53
0
210
0
220
0
230
1
100
AcDbAlignedDimension
13
564.614310861
23
4935
33
0
14
552.972778678
24
2795
34
0
50
90
100
AcDbRotatedDimension
0
LEADER
5
36F
100
AcDbEntity
8
6_roof_rack_d
6
ByLayer
62
256
370
-1
100
AcDbLeader
3
Standard
71
1
72
0
73
3
74
0
75
0
40
1
41
10
76
0
76
0
0
LEADER
5
370
100
AcDbEntity
8
6_roof_rack_d
6
ByLayer
62
256
370
-1
100
AcDbLeader
3
Standard
71
1
72
0
73
3
74
0
75
0
40
1
41
10
76
3
76
3
10
5539.6875
20
2744.375
30
0
10
5692.1875
20
2464.375
30
0
10
6392.1875
20
2464.375
30
0
0
MTEXT
5
371
100
AcDbEntity
8
6_roof_rack_d
6
ByLayer
62
256
370
-1
100
AcDbMText
10
5722.1875
20
2564.375
30
0
40
64
41
536.888888889
71
1
72
1
1
90x45 H3 x2
7
standard
210
0
220
0
230
1
50
0
73
2
44
1
0
LEADER
5
372
100
AcDbEntity
8
6_roof_rack_d
6
ByLayer
62
256
370
-1
100
AcDbLeader
3
Standard
71
1
72
0
73
3
74
0
75
0
40
1
41
10
76
3
76
3
10
3147.5
20
2750
30
0
10
3300
20
2470
30
0
10
4000
20
2470
30
0
0
MTEXT
5
373
100
AcDbEntity
8
6_roof_rack_d
6
ByLayer
62
256
370
-1
100
AcDbMText
10
3330
20
2570
30
0
40
64
41
536.888888889
71
1
72
1
1
90x45 H3 x2
7
standard
210
0
220
0
230
1
50
0
73
2
44
1
0
CIRCLE
5
374
100
AcDbEntity
8
6_roof_rack_d
6
ByLayer
62
256
370
-1
100
AcDbCircle
10
1222
20
5913.19528818
40
80.622577483
0
MTEXT
5
375
100
AcDbEntity
8
6_roof_rack_d
6
ByLayer
62
256
370
-1
100
AcDbMText
10
1206
20
5950.19528818
30
0
40
72
41
16
71
1
72
1
1
1
7
standard
210
0
220
0
230
1
50
0
73
2
44
1
0
LINE
5
376
100
AcDbEntity
8
6_roof_rack_d
6
BORDER2
62
256
370
-1
100
AcDbLine
10
1222
20
5832.5727107
11
1222
21
5125
0
CIRCLE
5
377
100
AcDbEntity
8
6_roof_rack_d
6
ByLayer
62
256
370
-1
100
AcDbCircle
10
7422
20
5913.19528818
40
80.622577483
0
LINE
5
378
100
AcDbEntity
8
6_roof_rack_d
6
BORDER2
62
256
370
-1
100
AcDbLine
10
7422
20
5832.5727107
11
7422
21
5125
0
MTEXT
5
379
100
AcDbEntity
8
6_roof_rack_d
6
ByLayer
62
256
370
-1
100
AcDbMText
10
7390
20
5953.19528818
30
0
40
72
41
56
71
1
72
1
1
11
7
standard
210
0
220
0
230
1
50
0
73
2
44
1
0
CIRCLE
5
37A
100
AcDbEntity
8
6_roof_rack_d
6
ByLayer
62
256
370
-1
100
AcDbCircle
10
3125
20
1305
40
80.622577483
0
MTEXT
5
37B
100
AcDbEntity
8
6_roof_rack_d
6
ByLayer
62
256
370
-1
100
AcDbMText
10
3109
20
1342
30
0
40
72
41
40
71
1
72
1
1
4
7
standard
210
0
220
0
230
1
50
0
73
2
44
1
0
LINE
5
37C
100
AcDbEntity
8
6_roof_rack_d
6
BORDER2
62
256
370
-1
100
AcDbLine
10
3125
20
2605
11
3125
21
1385.62257748
0
CIRCLE
5
37D
100
AcDbEntity
8
6_roof_rack_d
6
ByLayer
62
256
370
-1
100
AcDbCircle
10
5520
20
1305
40
80.622577483
0
LINE
5
37E
100
AcDbEntity
8
6_roof_rack_d
6
BORDER2
62
256
370
-1
100
AcDbLine
10
5520
20
2605
11
5520
21
1385.62257748
0
MTEXT
5
37F
100
AcDbEntity
8
6_roof_rack_d
6
ByLayer
62
256
370
-1
100
AcDbMText
10
5504
20
1342
30
0
40
72
41
32
71
1
72
1
1
8
7
standard
210
0
220
0
230
1
50
0
73
2
44
1
0
CIRCLE
5
380
100
AcDbEntity
8
6_roof_rack_d
6
ByLayer
62
256
370
-1
100
AcDbCircle
10
1222
20
1305
40
80.622577483
0
MTEXT
5
381
100
AcDbEntity
8
6_roof_rack_d
6
ByLayer
62
256
370
-1
100
AcDbMText
10
1206
20
1342
30
0
40
72
41
16
71
1
72
1
1
1
7
standard
210
0
220
0
230
1
50
0
73
2
44
1
0
LINE
5
382
100
AcDbEntity
8
6_roof_rack_d
6
BORDER2
62
256
370
-1
100
AcDbLine
10
1222
20
2605
11
1222
21
1385.62257748
0
CIRCLE
5
383
100
AcDbEntity
8
6_roof_rack_d
6
ByLayer
62
256
370
-1
100
AcDbCircle
10
7422
20
1305
40
80.622577483
0
LINE
5
384
100
AcDbEntity
8
6_roof_rack_d
6
BORDER2
62
256
370
-1
100
AcDbLine
10
7422
20
2605
11
7422
21
1385.62257748
0
MTEXT
5
385
100
AcDbEntity
8
6_roof_rack_d
6
ByLayer
62
256
370
-1
100
AcDbMText
10
7390
20
1345
30
0
40
72
41
56
71
1
72
1
1
11
7
standard
210
0
220
0
230
1
50
0
73
2
44
1
0
DIMENSION
5
386
100
AcDbEntity
8
6_roof_rack_d
6
ByLayer
62
256
370
-1
100
AcDbDimension
2
*D17
10
3125
20
5600
30
0
11
2173.5
21
5652
31
0
70
32
71
5
3
Standard
53
0
210
0
220
0
230
1
100
AcDbAlignedDimension
13
1222
23
5593.39241592
33
0
14
3125
24
5587.70807403
34
0
100
AcDbRotatedDimension
0
DIMENSION
5
387
100
AcDbEntity
8
6_roof_rack_d
6
ByLayer
62
256
370
-1
100
AcDbDimension
2
*D18
10
5520
20
5600
30
0
11
4322.5
21
5652
31
0
70
32
71
5
3
Standard
53
0
210
0
220
0
230
1
100
AcDbAlignedDimension
13
3125
23
5593.39241592
33
0
14
5520
24
5599.0767578
34
0
100
AcDbRotatedDimension
0
DIMENSION
5
388
100
AcDbEntity
8
6_roof_rack_d
6
ByLayer
62
256
370
-1
100
AcDbDimension
2
*D19
10
7422
20
5600
30
0
11
6471
21
5652
31
0
70
32
71
5
3
Standard
53
0
210
0
220
0
230
1
100
AcDbAlignedDimension
13
5520
23
5570.65504837
33
0
14
7422
24
5576.33939026
34
0
100
AcDbRotatedDimension
0
DIMENSION
5
389
100
AcDbEntity
8
6_roof_rack_d
6
ByLayer
62
256
370
-1
100
AcDbDimension
2
*D20
10
3125
20
1900
30
0
11
2173.5
21
1952
31
0
70
32
71
5
3
Standard
53
0
210
0
220
0
230
1
100
AcDbAlignedDimension
13
1222
23
1904.25453184
33
0
14
3125
24
1921.3075575
34
0
100
AcDbRotatedDimension
0
DIMENSION
5
38A
100
AcDbEntity
8
6_roof_rack_d
6
ByLayer
62
256
370
-1
100
AcDbDimension
2
*D21
10
5520
20
1900
30
0
11
4322.5
21
1952
31
0
70
32
71
5
3
Standard
53
0
210
0
220
0
230
1
100
AcDbAlignedDimension
13
3125
23
1944.04492504
33
0
14
5520
24
1944.04492504
34
0
100
AcDbRotatedDimension
0
DIMENSION
5
38B
100
AcDbEntity
8
6_roof_rack_d
6
ByLayer
62
256
370
-1
100
AcDbDimension
2
*D22
10
7422
20
1900
30
0
11
6471
21
1952
31
0
70
32
71
5
3
Standard
53
0
210
0
220
0
230
1
100
AcDbAlignedDimension
13
5520
23
1944.04492504
33
0
14
7422
24
1938.36058316
34
0
100
AcDbRotatedDimension
0
MTEXT
5
38C
100
AcDbEntity
8
6_roof_rack_d
6
ByLayer
62
256
370
-1
100
AcDbMText
10
8300
20
270
30
0
40
128
41
71.1111111111
71
1
72
1
1
4
7
standard
210
0
220
0
230
1
50
0
73
2
44
1
0
LEADER
5
38D
100
AcDbEntity
8
6_roof_rack_d
6
ByLayer
62
256
370
-1
100
AcDbLeader
3
Standard
71
1
72
0
73
3
74
0
75
0
40
1
41
10
76
3
76
3
10
5717.5
20
4480
30
0
10
5870
20
4200
30
0
10
6570
20
4200
30
0
0
LEADER
5
38E
100
AcDbEntity
8
4_frame_d
6
ByLayer
62
256
370
-1
100
AcDbLeader
3
Standard
71
1
72
0
73
3
74
0
75
0
40
1
41
10
76
3
76
3
10
3147.5
20
2750
30
0
10
3300
20
3000
30
0
10
3900
20
3000
30
0
0
LEADER
5
38F
100
AcDbEntity
8
4_frame_d
6
ByLayer
62
256
370
-1
100
AcDbLeader
3
Standard
71
1
72
0
73
3
74
0
75
0
40
1
41
10
76
3
76
3
10
5539.6875
20
2744.375
30
0
10
5692.1875
20
2994.375
30
0
10
6292.1875
20
2994.375
30
0
0
LEADER
5
390
100
AcDbEntity
8
4_frame
6
ByLayer
62
256
370
-1
100
AcDbLeader
3
Standard
71
1
72
0
73
3
74
0
75
0
40
1
41
10
76
0
76
0
0
LINE
5
391
100
AcDbEntity
8
6_roof_rack_d
6
ByLayer
62
256
370
-1
100
AcDbLine
10
3319.74029541
20
0
11
5060
21
0
0
LINE
5
392
100
AcDbEntity
8
6_roof_rack_d
6
ByLayer
62
256
370
-1
100
AcDbLine
10
5060
20
660.0033
11
3319.74029541
21
660.0033
0
LINE
5
393
100
AcDbEntity
8
6_roof_rack_d
6
ByLayer
62
256
370
-1
100
AcDbLine
10
3319.74029541
20
550.00275
11
5060
21
550.00275
0
LINE
5
394
100
AcDbEntity
8
6_roof_rack_d
6
ByLayer
62
256
370
-1
100
AcDbLine
10
5060
20
440.0022
11
3319.74029541
21
440.0022
0
LINE
5
395
100
AcDbEntity
8
6_roof_rack_d
6
ByLayer
62
256
370
-1
100
AcDbLine
10
3319.74029541
20
330.00165
11
5060
21
330.00165
0
LINE
5
396
100
AcDbEntity
8
6_roof_rack_d
6
ByLayer
62
256
370
-1
100
AcDbLine
10
3319.74029541
20
220.0011
11
5060
21
220.0011
0
LINE
5
397
100
AcDbEntity
8
6_roof_rack_d
6
ByLayer
62
256
370
-1
100
AcDbLine
10
3319.74029541
20
110.00055
11
5060
21
110.00055
0
LINE
5
398
100
AcDbEntity
8
6_roof_rack_d
6
ByLayer
62
256
370
-1
100
AcDbLine
10
3319.74029541
20
0
11
3319.74029541
21
660.0033
0
LINE
5
399
100
AcDbEntity
8
6_roof_rack_d
6
ByLayer
62
256
370
-1
100
AcDbLine
10
5060
20
0
11
5060
21
660.0033
0
MTEXT
5
39A
100
AcDbEntity
8
6_roof_rack_d
6
ByLayer
62
256
370
-1
100
AcDbMText
10
4380
20
1070.0033
30
0
40
56
41
280
71
1
72
1
1
NUMBER
7
standard
210
0
220
0
230
1
50
0
73
2
44
1
0
MTEXT
5
39B
100
AcDbEntity
8
6_roof_rack_d
6
ByLayer
62
256
370
-1
100
AcDbMText
10
4070
20
1070.0033
30
0
40
56
41
267.555555556
71
1
72
1
1
LENGTH
7
standard
210
0
220
0
230
1
50
0
73
2
44
1
0
MTEXT
5
39C
100
AcDbEntity
8
6_roof_rack_d
6
ByLayer
62
256
370
-1
100
AcDbMText
10
3760
20
1070.0033
30
0
40
56
41
261.333333333
71
1
72
1
1
DEGREE
7
standard
210
0
220
0
230
1
50
0
73
2
44
1
0
MTEXT
5
39D
100
AcDbEntity
8
6_roof_rack_d
6
ByLayer
62
256
370
-1
100
AcDbMText
10
3340
20
1070.0033
30
0
40
56
41
367.111099239
71
1
72
1
1
DEMINSION
7
standard
210
0
220
0
230
1
50
0
73
2
44
1
0
LINE
5
39E
100
AcDbEntity
8
6_roof_rack_d
6
ByLayer
62
256
370
-1
100
AcDbLine
10
5060
20
1100.0055
11
3319.74029541
21
1100.0055
0
LINE
5
39F
100
AcDbEntity
8
6_roof_rack_d
6
ByLayer
62
256
370
-1
100
AcDbLine
10
3319.74029541
20
990.00495
11
5060
21
990.00495
0
LINE
5
3A0
100
AcDbEntity
8
6_roof_rack_d
6
ByLayer
62
256
370
-1
100
AcDbLine
10
5060
20
880.0044
11
3319.74029541
21
880.0044
0
LINE
5
3A1
100
AcDbEntity
8
6_roof_rack_d
6
ByLayer
62
256
370
-1
100
AcDbLine
10
3319.74029541
20
770.00385
11
5060
21
770.00385
0
LINE
5
3A2
100
AcDbEntity
8
6_roof_rack_d
6
ByLayer
62
256
370
-1
100
AcDbLine
10
3319.74029541
20
440.0022
11
3319.74029541
21
1100.0055
0
LINE
5
3A3
100
AcDbEntity
8
6_roof_rack_d
6
ByLayer
62
256
370
-1
100
AcDbLine
10
5060
20
440.0022
11
5060
21
1100.0055
0
LINE
5
3A4
100
AcDbEntity
8
6_roof_rack_d
6
ByLayer
62
256
370
-1
100
AcDbLine
10
3729.24804688
20
0
11
3729.24804688
21
1100.0055
0
LINE
5
3A5
100
AcDbEntity
8
6_roof_rack_d
6
ByLayer
62
256
370
-1
100
AcDbLine
10
4047.62766421
20
0.00440000000003
11
4047.62766421
21
1100.0055
0
LINE
5
3A6
100
AcDbEntity
8
6_roof_rack_d
6
ByLayer
62
256
370
-1
100
AcDbLine
10
4360.23386538
20
0.00220000000002
11
4360.23386538
21
1100.0055
0
LINE
5
3A7
100
AcDbEntity
8
6_roof_rack_d
6
ByLayer
62
256
370
-1
100
AcDbLine
10
4679.27195132
20
0
11
4679.27195132
21
1100.0055
0
MTEXT
5
3A8
100
AcDbEntity
8
6_roof_rack_d
6
ByLayer
62
256
370
-1
100
AcDbMText
10
3400
20
970.0022
30
0
40
56
41
205.333333333
71
1
72
1
1
90x45
7
standard
210
0
220
0
230
1
50
0
73
2
44
1
0
MTEXT
5
3A9
100
AcDbEntity
8
6_roof_rack_d
6
ByLayer
62
256
370
-1
100
AcDbMText
10
3780
20
970.0022
30
0
40
56
41
192.888888889
71
1
72
1
1
H3-10
7
standard
210
0
220
0
230
1
50
0
73
2
44
1
0
MTEXT
5
3AA
100
AcDbEntity
8
6_roof_rack_d
6
ByLayer
62
256
370
-1
100
AcDbMText
10
3780
20
860.0022
30
0
40
56
41
192.888888889
71
1
72
1
1
H3-10
7
standard
210
0
220
0
230
1
50
0
73
2
44
1
0
MTEXT
5
3AB
100
AcDbEntity
8
6_roof_rack_d
6
ByLayer
62
256
370
-1
100
AcDbMText
10
4100
20
970.0022
30
0
40
56
41
155.555555556
71
1
72
1
1
2320
7
standard
210
0
220
0
230
1
50
0
73
2
44
1
0
MTEXT
5
3AC
100
AcDbEntity
8
6_roof_rack_d
6
ByLayer
62
256
370
-1
100
AcDbMText
10
4450
20
970.0022
30
0
40
56
41
31.1111111111
71
1
72
1
1
4
7
standard
210
0
220
0
230
1
50
0
73
2
44
1
0
MTEXT
5
3AD
100
AcDbEntity
8
6_roof_rack_d
6
ByLayer
62
256
370
-1
100
AcDbMText
10
3400
20
860.0022
30
0
40
56
41
199.111111111
71
1
72
1
1
90x35
7
standard
210
0
220
0
230
1
50
0
73
2
44
1
0
MTEXT
5
3AE
100
AcDbEntity
8
6_roof_rack_d
6
ByLayer
62
256
370
-1
100
AcDbMText
10
4450
20
860.0022
30
0
40
56
41
56
71
1
72
1
1
12
7
standard
210
0
220
0
230
1
50
0
73
2
44
1
0
MTEXT
5
3AF
100
AcDbEntity
8
6_roof_rack_d
6
ByLayer
62
256
370
-1
100
AcDbMText
10
4700
20
1070.0033
30
0
40
56
41
273.777765906
71
1
72
1
1
OTHERS
7
standard
210
0
220
0
230
1
50
0
73
2
44
1
0
LINE
5
3B0
100
AcDbEntity
8
6_roof_rack
6
ByLayer
62
256
370
-1
100
AcDbLine
10
3125
20
4935
11
3125
21
2795
0
LINE
5
3B1
100
AcDbEntity
8
6_roof_rack
6
ByLayer
62
256
370
-1
100
AcDbLine
10
5520
20
2795
11
5520
21
4935
0
LINE
5
3B2
100
AcDbEntity
8
6_roof_rack
6
ByLayer
62
256
370
-1
100
AcDbLine
10
1205
20
4935
11
1205
21
2705
0
LINE
5
3B3
100
AcDbEntity
8
6_roof_rack
6
ByLayer
62
256
370
-1
100
AcDbLine
10
7440
20
2705
11
7440
21
4935
0
LINE
5
3B4
100
AcDbEntity
8
6_roof_rack
6
ByLayer
62
256
370
-1
100
AcDbLine
10
5565
20
2795
11
7440
21
2795
0
LINE
5
3B5
100
AcDbEntity
8
6_roof_rack
6
ByLayer
62
256
370
-1
100
AcDbLine
10
1205
20
2795
11
3080
21
2795
0
LINE
5
3B6
100
AcDbEntity
8
6_roof_rack
6
ByLayer
62
256
370
-1
100
AcDbLine
10
1205
20
2705
11
7440
21
2705
0
LINE
5
3B7
100
AcDbEntity
8
6_roof_rack
6
ByLayer
62
256
370
-1
100
AcDbLine
10
863
20
5025
11
863
21
4935
0
LINE
5
3B8
100
AcDbEntity
8
6_roof_rack
6
ByLayer
62
256
370
-1
100
AcDbLine
10
863
20
4935
11
3080
21
4935
0
LINE
5
3B9
100
AcDbEntity
8
6_roof_rack
6
ByLayer
62
256
370
-1
100
AcDbLine
10
7783
20
5025
11
7783
21
4935
0
LINE
5
3BA
100
AcDbEntity
8
6_roof_rack
6
ByLayer
62
256
370
-1
100
AcDbLine
10
863
20
5025
11
7783
21
5025
0
LINE
5
3BB
100
AcDbEntity
8
6_roof_rack
6
ByLayer
62
256
370
-1
100
AcDbLine
10
5565
20
4935
11
7783
21
4935
0
MTEXT
5
3BC
100
AcDbEntity
8
6_roof_rack_d
6
ByLayer
62
256
370
-1
100
AcDbMText
10
7000
20
1060
30
0
40
128
41
949.333333333
71
1
72
1
1
ROOF RACK
7
standard
210
0
220
0
230
1
50
0
73
2
44
1
0
LINE
5
3BD
100
AcDbEntity
8
6_roof_rack_d
6
BORDER2
62
256
370
-1
100
AcDbLine
10
455
20
3864
11
255
21
3864
0
LINE
5
3BE
100
AcDbEntity
8
6_roof_rack_d
6
BORDER2
62
256
370
-1
100
AcDbLine
10
8090
20
3864
11
8340
21
3864
0
MTEXT
5
3BF
100
AcDbEntity
8
6_roof_rack_d
6
ByLayer
62
256
370
-1
100
AcDbMText
10
3400
20
750.0022
30
0
40
56
41
199.111111111
71
1
72
1
1
70x35
7
standard
210
0
220
0
230
1
50
0
73
2
44
1
0
MTEXT
5
3C0
100
AcDbEntity
8
6_roof_rack_d
6
ByLayer
62
256
370
-1
100
AcDbMText
10
4450
20
750.0022
30
0
40
56
41
31.1111111111
71
1
72
1
1
4
7
standard
210
0
220
0
230
1
50
0
73
2
44
1
0
MTEXT
5
3C1
100
AcDbEntity
8
6_roof_rack_d
6
ByLayer
62
256
370
-1
100
AcDbMText
10
4100
20
640.00165
30
0
40
56
41
155.555555556
71
1
72
1
1
2395
7
standard
210
0
220
0
230
1
50
0
73
2
44
1
0
MTEXT
5
3C2
100
AcDbEntity
8
6_roof_rack_d
6
ByLayer
62
256
370
-1
100
AcDbMText
10
3780
20
750.0022
30
0
40
56
41
230.22221035
71
1
72
1
1
NSTRU
7
standard
210
0
220
0
230
1
50
0
73
2
44
1
0
MTEXT
5
3C3
100
AcDbEntity
8
6_roof_rack_d
6
ByLayer
62
256
370
-1
100
AcDbMText
10
3780
20
640.00165
30
0
40
56
41
230.22221035
71
1
72
1
1
NSTRU
7
standard
210
0
220
0
230
1
50
0
73
2
44
1
0
MTEXT
5
3C4
100
AcDbEntity
8
6_roof_rack_d
6
ByLayer
62
256
370
-1
100
AcDbMText
10
3400
20
640.00165
30
0
40
56
41
199.111111111
71
1
72
1
1
70x35
7
standard
210
0
220
0
230
1
50
0
73
2
44
1
0
MTEXT
5
3C5
100
AcDbEntity
8
6_roof_rack_d
6
ByLayer
62
256
370
-1
100
AcDbMText
10
4100
20
750.0022
30
0
40
56
41
143.111111111
71
1
72
1
1
1920
7
standard
210
0
220
0
230
1
50
0
73
2
44
1
0
MTEXT
5
3C6
100
AcDbEntity
8
6_roof_rack_d
6
ByLayer
62
256
370
-1
100
AcDbMText
10
4450
20
640.00165
30
0
40
56
41
24.8888888889
71
1
72
1
1
2
7
standard
210
0
220
0
230
1
50
0
73
2
44
1
0
MTEXT
5
3C7
100
AcDbEntity
8
6_roof_rack_d
6
ByLayer
62
256
370
-1
100
AcDbMText
10
5200
20
860
30
0
40
64
41
508.444444444
71
1
72
1
1
28 Feb 2017
7
standard
210
0
220
0
230
1
50
0
73
2
44
1
0
LINE
5
3C8
100
AcDbEntity
8
4_frame
6
ByLayer
62
256
370
-1
100
AcDbLine
10
3045
20
2705
11
3045
21
2795
0
LINE
5
3C9
100
AcDbEntity
8
4_frame
6
ByLayer
62
256
370
-1
100
AcDbLine
10
3080
20
2795
11
3080
21
2705
0
LINE
5
3CA
100
AcDbEntity
8
4_frame
6
ByLayer
62
256
370
-1
100
AcDbLine
10
3080
20
2795
11
3045
21
2705
0
LINE
5
3CB
100
AcDbEntity
8
4_frame
6
ByLayer
62
256
370
-1
100
AcDbLine
10
3045
20
2795
11
3080
21
2705
0
LINE
5
3CC
100
AcDbEntity
8
4_frame
6
ByLayer
62
256
370
-1
100
AcDbLine
10
2050
20
2705
11
2050
21
2795
0
LINE
5
3CD
100
AcDbEntity
8
4_frame
6
ByLayer
62
256
370
-1
100
AcDbLine
10
2085
20
2795
11
2085
21
2705
0
LINE
5
3CE
100
AcDbEntity
8
4_frame
6
ByLayer
62
256
370
-1
100
AcDbLine
10
2085
20
2795
11
2050
21
2705
0
LINE
5
3CF
100
AcDbEntity
8
4_frame
6
ByLayer
62
256
370
-1
100
AcDbLine
10
2050
20
2795
11
2085
21
2705
0
LINE
5
3D0
100
AcDbEntity
8
4_frame
6
ByLayer
62
256
370
-1
100
AcDbLine
10
2015
20
2705
11
2015
21
2795
0
LINE
5
3D1
100
AcDbEntity
8
4_frame
6
ByLayer
62
256
370
-1
100
AcDbLine
10
2050
20
2795
11
2015
21
2705
0
LINE
5
3D2
100
AcDbEntity
8
4_frame
6
ByLayer
62
256
370
-1
100
AcDbLine
10
2015
20
2795
11
2050
21
2705
0
LINE
5
3D3
100
AcDbEntity
8
4_frame
6
ByLayer
62
256
370
-1
100
AcDbLine
10
2085
20
2750
11
3045
21
2750
0
LINE
5
3D4
100
AcDbEntity
8
4_frame
6
ByLayer
62
256
370
-1
100
AcDbLine
10
3855
20
2705
11
3855
21
2795
0
LINE
5
3D5
100
AcDbEntity
8
4_frame
6
ByLayer
62
256
370
-1
100
AcDbLine
10
3855
20
2795
11
3820
21
2705
0
LINE
5
3D6
100
AcDbEntity
8
4_frame
6
ByLayer
62
256
370
-1
100
AcDbLine
10
3820
20
2795
11
3855
21
2705
0
LINE
5
3D7
100
AcDbEntity
8
4_frame
6
ByLayer
62
256
370
-1
100
AcDbLine
10
3820
20
2705
11
3820
21
2795
0
LINE
5
3D8
100
AcDbEntity
8
4_frame
6
ByLayer
62
256
370
-1
100
AcDbLine
10
3785
20
2705
11
3785
21
2795
0
LINE
5
3D9
100
AcDbEntity
8
4_frame
6
ByLayer
62
256
370
-1
100
AcDbLine
10
3820
20
2795
11
3785
21
2705
0
LINE
5
3DA
100
AcDbEntity
8
4_frame
6
ByLayer
62
256
370
-1
100
AcDbLine
10
3785
20
2795
11
3820
21
2705
0
LINE
5
3DB
100
AcDbEntity
8
4_frame
6
ByLayer
62
256
370
-1
100
AcDbLine
10
4825
20
2705
11
4825
21
2795
0
LINE
5
3DC
100
AcDbEntity
8
4_frame
6
ByLayer
62
256
370
-1
100
AcDbLine
10
4790
20
2705
11
4790
21
2795
0
LINE
5
3DD
100
AcDbEntity
8
4_frame
6
ByLayer
62
256
370
-1
100
AcDbLine
10
4825
20
2795
11
4790
21
2705
0
LINE
5
3DE
100
AcDbEntity
8
4_frame
6
ByLayer
62
256
370
-1
100
AcDbLine
10
4790
20
2795
11
4825
21
2705
0
LINE
5
3DF
100
AcDbEntity
8
4_frame
6
ByLayer
62
256
370
-1
100
AcDbLine
10
4860
20
2705
11
4860
21
2795
0
LINE
5
3E0
100
AcDbEntity
8
4_frame
6
ByLayer
62
256
370
-1
100
AcDbLine
10
4825
20
2705
11
4825
21
2795
0
LINE
5
3E1
100
AcDbEntity
8
4_frame
6
ByLayer
62
256
370
-1
100
AcDbLine
10
4860
20
2795
11
4825
21
2705
0
LINE
5
3E2
100
AcDbEntity
8
4_frame
6
ByLayer
62
256
370
-1
100
AcDbLine
10
4825
20
2795
11
4860
21
2705
0
LINE
5
3E3
100
AcDbEntity
8
4_frame
6
ByLayer
62
256
370
-1
100
AcDbLine
10
5600
20
2795
11
5600
21
2705
0
LINE
5
3E4
100
AcDbEntity
8
4_frame
6
ByLayer
62
256
370
-1
100
AcDbLine
10
5565
20
2705
11
5600
21
2795
0
LINE
5
3E5
100
AcDbEntity
8
4_frame
6
ByLayer
62
256
370
-1
100
AcDbLine
10
5565
20
2795
11
5600
21
2705
0
LINE
5
3E6
100
AcDbEntity
8
4_frame
6
ByLayer
62
256
370
-1
100
AcDbLine
10
6560
20
2795
11
6560
21
2705
0
LINE
5
3E7
100
AcDbEntity
8
4_frame
6
ByLayer
62
256
370
-1
100
AcDbLine
10
6595
20
2795
11
6595
21
2705
0
LINE
5
3E8
100
AcDbEntity
8
4_frame
6
ByLayer
62
256
370
-1
100
AcDbLine
10
6560
20
2705
11
6595
21
2795
0
LINE
5
3E9
100
AcDbEntity
8
4_frame
6
ByLayer
62
256
370
-1
100
AcDbLine
10
6560
20
2795
11
6595
21
2705
0
LINE
5
3EA
100
AcDbEntity
8
4_frame
6
ByLayer
62
256
370
-1
100
AcDbLine
10
6630
20
2795
11
6630
21
2705
0
LINE
5
3EB
100
AcDbEntity
8
4_frame
6
ByLayer
62
256
370
-1
100
AcDbLine
10
6595
20
2705
11
6630
21
2795
0
LINE
5
3EC
100
AcDbEntity
8
4_frame
6
ByLayer
62
256
370
-1
100
AcDbLine
10
6595
20
2795
11
6630
21
2705
0
LINE
5
3ED
100
AcDbEntity
8
4_frame_d
6
BORDER2
62
256
370
-1
100
AcDbLine
10
2050
20
2605
11
2050
21
1385.62257748
0
LINE
5
3EE
100
AcDbEntity
8
4_frame_d
6
BORDER2
62
256
370
-1
100
AcDbLine
10
3820
20
2605
11
3820
21
1985.62257748
0
LINE
5
3EF
100
AcDbEntity
8
4_frame_d
6
BORDER2
62
256
370
-1
100
AcDbLine
10
4825
20
2605
11
4825
21
1985.62257748
0
LINE
5
3F0
100
AcDbEntity
8
4_frame_d
6
BORDER2
62
256
370
-1
100
AcDbLine
10
6595
20
2605
11
6595
21
1385.62257748
0
DIMENSION
5
3F1
100
AcDbEntity
8
4_frame_d
6
ByLayer
62
256
370
-1
100
AcDbDimension
2
*D27
10
2050
20
2100
30
0
11
1636
21
2152
31
0
70
32
71
5
72
0
3
Standard
53
0
210
0
220
0
230
1
100
AcDbAlignedDimension
13
1222
23
2138.52668046
33
0
14
2050
24
2138.52668046
34
0
100
AcDbRotatedDimension
0
DIMENSION
5
3F2
100
AcDbEntity
8
4_frame_d
6
ByLayer
62
256
370
-1
100
AcDbDimension
2
*D28
10
3125
20
2100
30
0
11
2587.5
21
2152
31
0
70
32
71
5
72
0
3
Standard
53
0
210
0
220
0
230
1
100
AcDbAlignedDimension
13
2050
23
2144.22941828
33
0
14
3125
24
2149.93215609
34
0
100
AcDbRotatedDimension
0
DIMENSION
5
3F3
100
AcDbEntity
8
4_frame_d
6
ByLayer
62
256
370
-1
100
AcDbDimension
2
*D29
10
3820
20
2100
30
0
11
3472.5
21
2152
31
0
70
32
71
5
72
0
3
Standard
53
0
210
0
220
0
230
1
100
AcDbAlignedDimension
13
3125
23
2138.52668046
33
0
14
3820
24
2138.52668046
34
0
100
AcDbRotatedDimension
0
DIMENSION
5
3F4
100
AcDbEntity
8
4_frame_d
6
ByLayer
62
256
370
-1
100
AcDbDimension
2
*D30
10
4825
20
2100
30
0
11
4322.5
21
2152
31
0
70
32
71
5
72
0
3
Standard
53
0
210
0
220
0
230
1
100
AcDbAlignedDimension
13
3820
23
2127.12120483
33
0
14
4825
24
2132.82394265
34
0
100
AcDbRotatedDimension
0
DIMENSION
5
3F5
100
AcDbEntity
8
4_frame_d
6
ByLayer
62
256
370
-1
100
AcDbDimension
2
*D31
10
5520
20
2100
30
0
11
5172.5
21
2152
31
0
70
32
71
5
72
0
3
Standard
53
0
210
0
220
0
230
1
100
AcDbAlignedDimension
13
4825
23
2132.82394265
33
0
14
5520
24
2144.22941828
34
0
100
AcDbRotatedDimension
0
DIMENSION
5
3F6
100
AcDbEntity
8
4_frame_d
6
ByLayer
62
256
370
-1
100
AcDbDimension
2
*D32
10
6595
20
2100
30
0
11
6057.5
21
2152
31
0
70
32
71
5
72
0
3
Standard
53
0
210
0
220
0
230
1
100
AcDbAlignedDimension
13
5520
23
2144.22941828
33
0
14
6595
24
2144.22941828
34
0
100
AcDbRotatedDimension
0
DIMENSION
5
3F7
100
AcDbEntity
8
4_frame_d
6
ByLayer
62
256
370
-1
100
AcDbDimension
2
*D33
10
7422
20
2100
30
0
11
7008.5
21
2152
31
0
70
32
71
5
72
0
3
Standard
53
0
210
0
220
0
230
1
100
AcDbAlignedDimension
13
6595
23
2144.22941828
33
0
14
7422
24
2144.22941828
34
0
100
AcDbRotatedDimension
0
MTEXT
5
3F8
100
AcDbEntity
8
4_frame_d
6
ByLayer
62
256
370
-1
100
AcDbMText
10
5200
20
860
30
0
40
64
41
508.444444444
71
1
72
1
1
28 Feb 2017
7
standard
210
0
220
0
230
1
50
0
73
2
44
1
0
LINE
5
3F9
100
AcDbEntity
8
6_roof_rack_d
6
BORDER2
62
256
370
-1
100
AcDbLine
10
7783
20
5832.5727107
11
7783
21
5125
0
LINE
5
3FA
100
AcDbEntity
8
6_roof_rack_d
6
BORDER2
62
256
370
-1
100
AcDbLine
10
863
20
5832.5727107
11
863
21
5125
0
DIMENSION
5
3FB
100
AcDbEntity
8
6_roof_rack_d
6
ByLayer
62
256
370
-1
100
AcDbDimension
2
*D34
10
3125
20
5400
30
0
11
1994
21
5452
31
0
70
32
71
5
72
0
3
Standard
53
0
210
0
220
0
230
1
100
AcDbAlignedDimension
13
863
23
5456.37954098
33
0
14
3125
24
5456.37954098
34
0
100
AcDbRotatedDimension
0
DIMENSION
5
3FC
100
AcDbEntity
8
6_roof_rack_d
6
ByLayer
62
256
370
-1
100
AcDbDimension
2
*D35
10
7783
20
5400
30
0
11
6651.5
21
5452
31
0
70
32
71
5
72
0
3
Standard
53
0
210
0
220
0
230
1
100
AcDbAlignedDimension
13
5520
23
5442.69297022
33
0
14
7783
24
5442.69297022
34
0
100
AcDbRotatedDimension
0
LINE
5
3FD
100
AcDbEntity
8
6_roof_rack
6
ByLayer
62
256
370
-1
100
AcDbLine
10
3015
20
4462
11
3080
21
4397
0
LINE
5
3FE
100
AcDbEntity
8
6_roof_rack
6
ByLayer
62
256
370
-1
100
AcDbLine
10
1360
20
4462
11
1295
21
4397
0
LINE
5
3FF
100
AcDbEntity
8
6_roof_rack
6
ByLayer
62
256
370
-1
100
AcDbLine
10
3235
20
4462
11
3170
21
4397
0
LINE
5
400
100
AcDbEntity
8
6_roof_rack
6
ByLayer
62
256
370
-1
100
AcDbLine
10
5410
20
4462
11
5475
21
4397
0
LINE
5
401
100
AcDbEntity
8
6_roof_rack
6
ByLayer
62
256
370
-1
100
AcDbLine
10
5630
20
4462
11
5565
21
4397
0
LINE
5
402
100
AcDbEntity
8
6_roof_rack
6
ByLayer
62
256
370
-1
100
AcDbLine
10
7285
20
4462
11
7350
21
4397
0
LINE
5
403
100
AcDbEntity
8
6_roof_rack
6
ByLayer
62
256
370
-1
100
AcDbLine
10
1205
20
4497
11
3125
21
4497
0
LINE
5
404
100
AcDbEntity
8
6_roof_rack
6
ByLayer
62
256
370
-1
100
AcDbLine
10
3125
20
4462
11
1205
21
4462
0
LINE
5
405
100
AcDbEntity
8
6_roof_rack
6
ByLayer
62
256
370
-1
100
AcDbLine
10
5520
20
4462
11
7440
21
4462
0
LINE
5
406
100
AcDbEntity
8
6_roof_rack
6
ByLayer
62
256
370
-1
100
AcDbLine
10
7440
20
4497
11
5520
21
4497
0
LINE
5
407
100
AcDbEntity
8
6_roof_rack
6
ByLayer
62
256
370
-1
100
AcDbLine
10
5520
20
4497
11
3125
21
4497
0
LINE
5
408
100
AcDbEntity
8
6_roof_rack
6
ByLayer
62
256
370
-1
100
AcDbLine
10
3125
20
4462
11
5520
21
4462
0
LINE
5
409
100
AcDbEntity
8
6_roof_rack
6
ByLayer
62
256
370
-1
100
AcDbLine
10
1733
20
4935
11
1295
21
4497
0
LINE
5
40A
100
AcDbEntity
8
6_roof_rack
6
ByLayer
62
256
370
-1
100
AcDbLine
10
1833
20
4935
11
1395
21
4497
0
LINE
5
40B
100
AcDbEntity
8
6_roof_rack
6
ByLayer
62
256
370
-1
100
AcDbLine
10
2542
20
4935
11
2980
21
4497
0
LINE
5
40C
100
AcDbEntity
8
6_roof_rack
6
ByLayer
62
256
370
-1
100
AcDbLine
10
2642
20
4935
11
3080
21
4497
0
LINE
5
40D
100
AcDbEntity
8
6_roof_rack
6
ByLayer
62
256
370
-1
100
AcDbLine
10
1295
20
4497
11
1295
21
4935
0
LINE
5
40E
100
AcDbEntity
8
6_roof_rack
6
ByLayer
62
256
370
-1
100
AcDbLine
10
3080
20
4497
11
3080
21
5025
0
LINE
5
40F
100
AcDbEntity
8
6_roof_rack
6
ByLayer
62
256
370
-1
100
AcDbLine
10
3608
20
4935
11
3170
21
4497
0
LINE
5
410
100
AcDbEntity
8
6_roof_rack
6
ByLayer
62
256
370
-1
100
AcDbLine
10
3708
20
4935
11
3270
21
4497
0
LINE
5
411
100
AcDbEntity
8
6_roof_rack
6
ByLayer
62
256
370
-1
100
AcDbLine
10
4937
20
4935
11
5375
21
4497
0
LINE
5
412
100
AcDbEntity
8
6_roof_rack
6
ByLayer
62
256
370
-1
100
AcDbLine
10
5037
20
4935
11
5475
21
4497
0
LINE
5
413
100
AcDbEntity
8
6_roof_rack
6
ByLayer
62
256
370
-1
100
AcDbLine
10
3170
20
4497
11
3170
21
5025
0
LINE
5
414
100
AcDbEntity
8
6_roof_rack
6
ByLayer
62
256
370
-1
100
AcDbLine
10
5475
20
5025
11
5475
21
4497
0
LINE
5
415
100
AcDbEntity
8
6_roof_rack
6
ByLayer
62
256
370
-1
100
AcDbLine
10
6003
20
4935
11
5565
21
4497
0
LINE
5
416
100
AcDbEntity
8
6_roof_rack
6
ByLayer
62
256
370
-1
100
AcDbLine
10
6103
20
4935
11
5665
21
4497
0
LINE
5
417
100
AcDbEntity
8
6_roof_rack
6
ByLayer
62
256
370
-1
100
AcDbLine
10
6812
20
4935
11
7250
21
4497
0
LINE
5
418
100
AcDbEntity
8
6_roof_rack
6
ByLayer
62
256
370
-1
100
AcDbLine
10
6912
20
4935
11
7350
21
4497
0
LINE
5
419
100
AcDbEntity
8
6_roof_rack
6
ByLayer
62
256
370
-1
100
AcDbLine
10
7350
20
4935
11
7350
21
4497
0
LINE
5
41A
100
AcDbEntity
8
6_roof_rack
6
ByLayer
62
256
370
-1
100
AcDbLine
10
5565
20
5025
11
5565
21
4497
0
LINE
5
41B
100
AcDbEntity
8
6_roof_rack
6
ByLayer
62
256
370
-1
100
AcDbLine
10
5630
20
3267
11
5565
21
3332
0
LINE
5
41C
100
AcDbEntity
8
6_roof_rack
6
ByLayer
62
256
370
-1
100
AcDbLine
10
7285
20
3267
11
7350
21
3332
0
LINE
5
41D
100
AcDbEntity
8
6_roof_rack
6
ByLayer
62
256
370
-1
100
AcDbLine
10
5410
20
3267
11
5475
21
3332
0
LINE
5
41E
100
AcDbEntity
8
6_roof_rack
6
ByLayer
62
256
370
-1
100
AcDbLine
10
3235
20
3267
11
3170
21
3332
0
LINE
5
41F
100
AcDbEntity
8
6_roof_rack
6
ByLayer
62
256
370
-1
100
AcDbLine
10
1360
20
3267
11
1295
21
3332
0
LINE
5
420
100
AcDbEntity
8
6_roof_rack
6
ByLayer
62
256
370
-1
100
AcDbLine
10
3015
20
3267
11
3080
21
3332
0
LINE
5
421
100
AcDbEntity
8
6_roof_rack
6
ByLayer
62
256
370
-1
100
AcDbLine
10
3125
20
3267
11
1205
21
3267
0
LINE
5
422
100
AcDbEntity
8
6_roof_rack
6
ByLayer
62
256
370
-1
100
AcDbLine
10
1205
20
3232
11
3125
21
3232
0
LINE
5
423
100
AcDbEntity
8
6_roof_rack
6
ByLayer
62
256
370
-1
100
AcDbLine
10
5520
20
3267
11
3125
21
3267
0
LINE
5
424
100
AcDbEntity
8
6_roof_rack
6
ByLayer
62
256
370
-1
100
AcDbLine
10
3125
20
3232
11
5520
21
3232
0
LINE
5
425
100
AcDbEntity
8
6_roof_rack
6
ByLayer
62
256
370
-1
100
AcDbLine
10
5520
20
3232
11
7440
21
3232
0
LINE
5
426
100
AcDbEntity
8
6_roof_rack
6
ByLayer
62
256
370
-1
100
AcDbLine
10
7440
20
3267
11
5520
21
3267
0
LINE
5
427
100
AcDbEntity
8
6_roof_rack
6
ByLayer
62
256
370
-1
100
AcDbLine
10
1732
20
2795
11
1295
21
3232
0
LINE
5
428
100
AcDbEntity
8
6_roof_rack
6
ByLayer
62
256
370
-1
100
AcDbLine
10
1832
20
2795
11
1395
21
3232
0
LINE
5
429
100
AcDbEntity
8
6_roof_rack
6
ByLayer
62
256
370
-1
100
AcDbLine
10
2543
20
2795
11
2980
21
3232
0
LINE
5
42A
100
AcDbEntity
8
6_roof_rack
6
ByLayer
62
256
370
-1
100
AcDbLine
10
2643
20
2795
11
3080
21
3232
0
LINE
5
42B
100
AcDbEntity
8
6_roof_rack
6
ByLayer
62
256
370
-1
100
AcDbLine
10
1295
20
2795
11
1295
21
3232
0
LINE
5
42C
100
AcDbEntity
8
6_roof_rack
6
ByLayer
62
256
370
-1
100
AcDbLine
10
3080
20
2705
11
3080
21
3232
0
LINE
5
42D
100
AcDbEntity
8
6_roof_rack
6
ByLayer
62
256
370
-1
100
AcDbLine
10
3080
20
3267
11
3080
21
4462
0
LINE
5
42E
100
AcDbEntity
8
6_roof_rack
6
ByLayer
62
256
370
-1
100
AcDbLine
10
1295
20
3267
11
1295
21
4462
0
LINE
5
42F
100
AcDbEntity
8
6_roof_rack
6
ByLayer
62
256
370
-1
100
AcDbLine
10
3170
20
2705
11
3170
21
3232
0
LINE
5
430
100
AcDbEntity
8
6_roof_rack
6
ByLayer
62
256
370
-1
100
AcDbLine
10
5475
20
3232
11
5475
21
2705
0
LINE
5
431
100
AcDbEntity
8
6_roof_rack
6
ByLayer
62
256
370
-1
100
AcDbLine
10
5475
20
4462
11
5475
21
3267
0
LINE
5
432
100
AcDbEntity
8
6_roof_rack
6
ByLayer
62
256
370
-1
100
AcDbLine
10
3170
20
3267
11
3170
21
4462
0
LINE
5
433
100
AcDbEntity
8
6_roof_rack
6
ByLayer
62
256
370
-1
100
AcDbLine
10
3607
20
2795
11
3170
21
3232
0
LINE
5
434
100
AcDbEntity
8
6_roof_rack
6
ByLayer
62
256
370
-1
100
AcDbLine
10
3707
20
2795
11
3270
21
3232
0
LINE
5
435
100
AcDbEntity
8
6_roof_rack
6
ByLayer
62
256
370
-1
100
AcDbLine
10
4938
20
2795
11
5375
21
3232
0
LINE
5
436
100
AcDbEntity
8
6_roof_rack
6
ByLayer
62
256
370
-1
100
AcDbLine
10
5038
20
2795
11
5475
21
3232
0
LINE
5
437
100
AcDbEntity
8
6_roof_rack
6
ByLayer
62
256
370
-1
100
AcDbLine
10
6002
20
2795
11
5565
21
3232
0
LINE
5
438
100
AcDbEntity
8
6_roof_rack
6
ByLayer
62
256
370
-1
100
AcDbLine
10
6102
20
2795
11
5665
21
3232
0
LINE
5
439
100
AcDbEntity
8
6_roof_rack
6
ByLayer
62
256
370
-1
100
AcDbLine
10
6813
20
2795
11
7250
21
3232
0
LINE
5
43A
100
AcDbEntity
8
6_roof_rack
6
ByLayer
62
256
370
-1
100
AcDbLine
10
6913
20
2795
11
7350
21
3232
0
LINE
5
43B
100
AcDbEntity
8
6_roof_rack
6
ByLayer
62
256
370
-1
100
AcDbLine
10
5565
20
3232
11
5565
21
2705
0
LINE
5
43C
100
AcDbEntity
8
6_roof_rack
6
ByLayer
62
256
370
-1
100
AcDbLine
10
7350
20
3232
11
7350
21
2795
0
LINE
5
43D
100
AcDbEntity
8
6_roof_rack
6
ByLayer
62
256
370
-1
100
AcDbLine
10
7350
20
4462
11
7350
21
3267
0
LINE
5
43E
100
AcDbEntity
8
6_roof_rack
6
ByLayer
62
256
370
-1
100
AcDbLine
10
5565
20
4462
11
5565
21
3267
0
CIRCLE
5
43F
100
AcDbEntity
8
6_roof_rack_d
6
ByLayer
62
256
370
-1
100
AcDbCircle
10
8420.62257745
20
4479.00213484
40
80.622577483
0
CIRCLE
5
440
100
AcDbEntity
8
6_roof_rack_d
6
ByLayer
62
256
370
-1
100
AcDbCircle
10
174.377422545
20
4478.99786516
40
80.622577483
0
LINE
5
441
100
AcDbEntity
8
6_roof_rack_d
6
BORDER2
62
256
370
-1
100
AcDbLine
10
7490
20
4479
11
8340
21
4479
0
LINE
5
442
100
AcDbEntity
8
6_roof_rack_d
6
BORDER2
62
256
370
-1
100
AcDbLine
10
1155
20
4479
11
255
21
4479
0
MTEXT
5
443
100
AcDbEntity
8
6_roof_rack_d
6
ByLayer
62
256
370
-1
100
AcDbMText
10
158.377422545
20
4515.99786516
30
0
40
72
41
40
71
1
72
1
1
D
7
standard
210
0
220
0
230
1
50
0
73
2
44
1
0
MTEXT
5
444
100
AcDbEntity
8
6_roof_rack_d
6
ByLayer
62
256
370
-1
100
AcDbMText
10
8394.62257745
20
4516.00213484
30
0
40
72
41
40
71
1
72
1
1
D
7
standard
210
0
220
0
230
1
50
360
73
2
44
1
0
CIRCLE
5
445
100
AcDbEntity
8
6_roof_rack_d
6
ByLayer
62
256
370
-1
100
AcDbCircle
10
8420.62257745
20
3249.00213484
40
80.622577483
0
CIRCLE
5
446
100
AcDbEntity
8
6_roof_rack_d
6
ByLayer
62
256
370
-1
100
AcDbCircle
10
174.377422545
20
3248.99786516
40
80.622577483
0
LINE
5
447
100
AcDbEntity
8
6_roof_rack_d
6
BORDER2
62
256
370
-1
100
AcDbLine
10
7490
20
3249
11
8340
21
3249
0
LINE
5
448
100
AcDbEntity
8
6_roof_rack_d
6
BORDER2
62
256
370
-1
100
AcDbLine
10
1155
20
3249
11
255
21
3249
0
MTEXT
5
449
100
AcDbEntity
8
6_roof_rack_d
6
ByLayer
62
256
370
-1
100
AcDbMText
10
158.377422545
20
3285.99786516
30
0
40
72
41
40
71
1
72
1
1
B
7
standard
210
0
220
0
230
1
50
0
73
2
44
1
0
MTEXT
5
44A
100
AcDbEntity
8
6_roof_rack_d
6
ByLayer
62
256
370
-1
100
AcDbMText
10
8394.62257745
20
3286.00213484
30
0
40
72
41
40
71
1
72
1
1
B
7
standard
210
0
220
0
230
1
50
360
73
2
44
1
0
DIMENSION
5
44B
100
AcDbEntity
8
6_roof_rack_d
6
ByLayer
62
256
370
-1
100
AcDbDimension
2
*D36
10
800
20
4479
30
0
11
748
21
4698
31
0
70
32
71
5
72
0
3
Standard
53
0
210
0
220
0
230
1
100
AcDbAlignedDimension
13
848.584482629
23
4917
33
0
14
848.584482629
24
4479
34
0
50
90
100
AcDbRotatedDimension
0
DIMENSION
5
44C
100
AcDbEntity
8
6_roof_rack_d
6
ByLayer
62
256
370
-1
100
AcDbDimension
2
*D37
10
800
20
3249
30
0
11
748
21
3864
31
0
70
32
71
5
72
0
3
Standard
53
0
210
0
220
0
230
1
100
AcDbAlignedDimension
13
848.584482629
23
4479
33
0
14
848.584482629
24
3249
34
0
50
90
100
AcDbRotatedDimension
0
DIMENSION
5
44D
100
AcDbEntity
8
6_roof_rack_d
6
ByLayer
62
256
370
-1
100
AcDbDimension
2
*D38
10
800
20
2812
30
0
11
748
21
3030.5
31
0
70
32
71
5
72
0
3
Standard
53
0
210
0
220
0
230
1
100
AcDbAlignedDimension
13
859.605060326
23
3249
33
0
14
854.094771477
24
2812
34
0
50
90
100
AcDbRotatedDimension
0
DIMENSION
5
44E
100
AcDbEntity
8
6_roof_rack_d
6
ByLayer
62
256
370
-1
100
AcDbDimension
2
*D39
10
7900
20
4479
30
0
11
7848
21
4698
31
0
70
32
71
5
72
0
3
Standard
53
0
210
0
220
0
230
1
100
AcDbAlignedDimension
13
7863.18218644
23
4917
33
0
14
7874.20276414
24
4479
34
0
50
90
100
AcDbRotatedDimension
0
DIMENSION
5
44F
100
AcDbEntity
8
6_roof_rack_d
6
ByLayer
62
256
370
-1
100
AcDbDimension
2
*D40
10
7900
20
3249
30
0
11
7848
21
3864
31
0
70
32
71
5
72
0
3
Standard
53
0
210
0
220
0
230
1
100
AcDbAlignedDimension
13
7857.67189759
23
4479
33
0
14
7852.16160874
24
3249
34
0
50
90
100
AcDbRotatedDimension
0
DIMENSION
5
450
100
AcDbEntity
8
6_roof_rack_d
6
ByLayer
62
256
370
-1
100
AcDbDimension
2
*D41
10
7900
20
2812
30
0
11
7848
21
3030.5
31
0
70
32
71
5
72
0
3
Standard
53
0
210
0
220
0
230
1
100
AcDbAlignedDimension
13
7841.14103105
23
3249
33
0
14
7846.6513199
24
2812
34
0
50
90
100
AcDbRotatedDimension
0
DIMENSION
5
451
100
AcDbEntity
8
6_roof_rack_d
6
ByLayer
62
256
370
-1
100
AcDbDimension
2
*D42
10
3125
20
3900
30
0
11
2165
21
3952
31
0
70
32
71
5
72
0
3
Standard
53
0
210
0
220
0
230
1
100
AcDbAlignedDimension
13
1205
23
3956.38739304
33
0
14
3125
24
3956.38739304
34
0
100
AcDbRotatedDimension
0
DIMENSION
5
452
100
AcDbEntity
8
6_roof_rack_d
6
ByLayer
62
256
370
-1
100
AcDbDimension
2
*D43
10
5520
20
3900
30
0
11
4322.5
21
3952
31
0
70
32
71
5
72
0
3
Standard
53
0
210
0
220
0
230
1
100
AcDbAlignedDimension
13
3125
23
3967.40797073
33
0
14
5520
24
3967.40797073
34
0
100
AcDbRotatedDimension
0
DIMENSION
5
453
100
AcDbEntity
8
6_roof_rack_d
6
ByLayer
62
256
370
-1
100
AcDbDimension
2
*D44
10
2096.49437513
20
4671.50562487
30
0
11
1790.72482251
21
4439.27517749
31
0
70
33
1
760
71
5
72
0
3
Standard
53
0
210
0
220
0
230
1
100
AcDbAlignedDimension
13
1295
23
4397
33
0
14
1833
24
4935
34
0
0
MTEXT
5
454
100
AcDbEntity
8
6_roof_rack_d
6
ByLayer
62
256
370
-1
100
AcDbMText
10
5900
20
4300
30
0
40
64
41
396.444430876
71
1
72
1
1
70x45 NS
7
standard
210
0
220
0
230
1
50
0
73
2
44
1
0
MTEXT
5
455
100
AcDbEntity
8
6_roof_rack_d
6
ByLayer
62
256
370
-1
100
AcDbMText
10
4100
20
860.0022
30
0
40
56
41
166.133333333
71
1
72
1
1
760*
7
standard
210
0
220
0
230
1
50
0
73
2
44
1
0
MTEXT
5
456
100
AcDbEntity
8
6_roof_rack_d
6
ByLayer
62
256
370
-1
100
AcDbMText
10
5200
20
750.0022
30
0
40
64
41
522.666666667
71
1
72
1
1
26 Aug 2017
7
standard
210
0
220
0
230
1
50
0
73
2
44
1
0
LINE
5
457
100
AcDbEntity
8
4_frame
6
ByLayer
62
256
370
-1
100
AcDbLine
10
1295
20
3267
11
1205
21
3267
0
LINE
5
458
100
AcDbEntity
8
4_frame
6
ByLayer
62
256
370
-1
100
AcDbLine
10
1205
20
3232
11
1295
21
3232
0
LINE
5
459
100
AcDbEntity
8
4_frame
6
ByLayer
62
256
370
-1
100
AcDbLine
10
1295
20
3267
11
1205
21
3232
0
LINE
5
45A
100
AcDbEntity
8
4_frame
6
ByLayer
62
256
370
-1
100
AcDbLine
10
1205
20
3267
11
1295
21
3232
0
LINE
5
45B
100
AcDbEntity
8
4_frame
6
ByLayer
62
256
370
-1
100
AcDbLine
10
1205
20
3232
11
1295
21
3232
0
LINE
5
45C
100
AcDbEntity
8
4_frame
6
ByLayer
62
256
370
-1
100
AcDbLine
10
1295
20
3267
11
1205
21
3232
0
LINE
5
45D
100
AcDbEntity
8
4_frame
6
ByLayer
62
256
370
-1
100
AcDbLine
10
1205
20
3267
11
1295
21
3232
0
LINE
5
45E
100
AcDbEntity
8
4_frame
6
ByLayer
62
256
370
-1
100
AcDbLine
10
7440
20
3267
11
7350
21
3267
0
LINE
5
45F
100
AcDbEntity
8
4_frame
6
ByLayer
62
256
370
-1
100
AcDbLine
10
7350
20
3232
11
7440
21
3232
0
LINE
5
460
100
AcDbEntity
8
4_frame
6
ByLayer
62
256
370
-1
100
AcDbLine
10
7440
20
3267
11
7350
21
3232
0
LINE
5
461
100
AcDbEntity
8
4_frame
6
ByLayer
62
256
370
-1
100
AcDbLine
10
7350
20
3267
11
7440
21
3232
0
LINE
5
462
100
AcDbEntity
8
4_frame
6
ByLayer
62
256
370
-1
100
AcDbLine
10
7350
20
3232
11
7440
21
3232
0
LINE
5
463
100
AcDbEntity
8
4_frame
6
ByLayer
62
256
370
-1
100
AcDbLine
10
7440
20
3267
11
7350
21
3232
0
LINE
5
464
100
AcDbEntity
8
4_frame
6
ByLayer
62
256
370
-1
100
AcDbLine
10
7350
20
3267
11
7440
21
3232
0
CIRCLE
5
465
100
AcDbEntity
8
4_frame_d
6
ByLayer
62
256
370
-1
100
AcDbCircle
10
8420.62257745
20
3249.00213484
40
80.622577483
0
CIRCLE
5
466
100
AcDbEntity
8
4_frame_d
6
ByLayer
62
256
370
-1
100
AcDbCircle
10
174.377422545
20
3248.99786516
40
80.622577483
0
LINE
5
467
100
AcDbEntity
8
4_frame_d
6
BORDER2
62
256
370
-1
100
AcDbLine
10
7490
20
3249
11
8340
21
3249
0
LINE
5
468
100
AcDbEntity
8
4_frame_d
6
BORDER2
62
256
370
-1
100
AcDbLine
10
1155
20
3249
11
255
21
3249
0
MTEXT
5
469
100
AcDbEntity
8
4_frame_d
6
ByLayer
62
256
370
-1
100
AcDbMText
10
158.377422545
20
3285.99786516
30
0
40
72
41
40
71
1
72
1
1
B
7
standard
210
0
220
0
230
1
50
0
73
2
44
1
0
MTEXT
5
46A
100
AcDbEntity
8
4_frame_d
6
ByLayer
62
256
370
-1
100
AcDbMText
10
8394.62257745
20
3286.00213484
30
0
40
72
41
40
71
1
72
1
1
B
7
standard
210
0
220
0
230
1
50
360
73
2
44
1
0
LINE
5
46B
100
AcDbEntity
8
4_frame
6
ByLayer
62
256
370
-1
100
AcDbLine
10
1295
20
4497
11
1205
21
4497
0
LINE
5
46C
100
AcDbEntity
8
4_frame
6
ByLayer
62
256
370
-1
100
AcDbLine
10
1205
20
4462
11
1295
21
4462
0
LINE
5
46D
100
AcDbEntity
8
4_frame
6
ByLayer
62
256
370
-1
100
AcDbLine
10
1295
20
4497
11
1205
21
4462
0
LINE
5
46E
100
AcDbEntity
8
4_frame
6
ByLayer
62
256
370
-1
100
AcDbLine
10
1205
20
4497
11
1295
21
4462
0
LINE
5
46F
100
AcDbEntity
8
4_frame
6
ByLayer
62
256
370
-1
100
AcDbLine
10
1205
20
4462
11
1295
21
4462
0
LINE
5
470
100
AcDbEntity
8
4_frame
6
ByLayer
62
256
370
-1
100
AcDbLine
10
1295
20
4497
11
1205
21
4462
0
LINE
5
471
100
AcDbEntity
8
4_frame
6
ByLayer
62
256
370
-1
100
AcDbLine
10
1205
20
4497
11
1295
21
4462
0
LINE
5
472
100
AcDbEntity
8
4_frame
6
ByLayer
62
256
370
-1
100
AcDbLine
10
7440
20
4497
11
7350
21
4497
0
LINE
5
473
100
AcDbEntity
8
4_frame
6
ByLayer
62
256
370
-1
100
AcDbLine
10
7350
20
4462
11
7440
21
4462
0
LINE
5
474
100
AcDbEntity
8
4_frame
6
ByLayer
62
256
370
-1
100
AcDbLine
10
7440
20
4497
11
7350
21
4462
0
LINE
5
475
100
AcDbEntity
8
4_frame
6
ByLayer
62
256
370
-1
100
AcDbLine
10
7350
20
4497
11
7440
21
4462
0
LINE
5
476
100
AcDbEntity
8
4_frame
6
ByLayer
62
256
370
-1
100
AcDbLine
10
7350
20
4462
11
7440
21
4462
0
LINE
5
477
100
AcDbEntity
8
4_frame
6
ByLayer
62
256
370
-1
100
AcDbLine
10
7440
20
4497
11
7350
21
4462
0
LINE
5
478
100
AcDbEntity
8
4_frame
6
ByLayer
62
256
370
-1
100
AcDbLine
10
7350
20
4497
11
7440
21
4462
0
LINE
5
479
100
AcDbEntity
8
4_frame
6
ByLayer
62
256
370
-1
100
AcDbLine
10
1295
20
4532
11
1295
21
4462
0
CIRCLE
5
47A
100
AcDbEntity
8
4_frame_d
6
ByLayer
62
256
370
-1
100
AcDbCircle
10
8420.62257745
20
4479.00213484
40
80.622577483
0
CIRCLE
5
47B
100
AcDbEntity
8
4_frame_d
6
ByLayer
62
256
370
-1
100
AcDbCircle
10
174.377422545
20
4478.99786516
40
80.622577483
0
LINE
5
47C
100
AcDbEntity
8
4_frame_d
6
BORDER2
62
256
370
-1
100
AcDbLine
10
7490
20
4479
11
8340
21
4479
0
LINE
5
47D
100
AcDbEntity
8
4_frame_d
6
BORDER2
62
256
370
-1
100
AcDbLine
10
1155
20
4479
11
255
21
4479
0
MTEXT
5
47E
100
AcDbEntity
8
4_frame_d
6
ByLayer
62
256
370
-1
100
AcDbMText
10
158.377422545
20
4515.99786516
30
0
40
72
41
40
71
1
72
1
1
D
7
standard
210
0
220
0
230
1
50
0
73
2
44
1
0
MTEXT
5
47F
100
AcDbEntity
8
4_frame_d
6
ByLayer
62
256
370
-1
100
AcDbMText
10
8394.62257745
20
4516.00213484
30
0
40
72
41
40
71
1
72
1
1
D
7
standard
210
0
220
0
230
1
50
360
73
2
44
1
0
DIMENSION
5
480
100
AcDbEntity
8
4_frame_d
6
ByLayer
62
256
370
-1
100
AcDbDimension
2
*D45
10
800
20
4479
30
0
11
748
21
4698
31
0
70
32
71
5
72
0
3
Standard
53
0
210
0
220
0
230
1
100
AcDbAlignedDimension
13
848.584482629
23
4917
33
0
14
854.094771477
24
4479
34
0
50
90
100
AcDbRotatedDimension
0
DIMENSION
5
481
100
AcDbEntity
8
4_frame_d
6
ByLayer
62
256
370
-1
100
AcDbDimension
2
*D46
10
800
20
3864
30
0
11
748
21
4171.5
31
0
70
32
71
5
72
0
3
Standard
53
0
210
0
220
0
230
1
100
AcDbAlignedDimension
13
854.094771477
23
4479
33
0
14
848.584482629
24
3864
34
0
50
90
100
AcDbRotatedDimension
0
DIMENSION
5
482
100
AcDbEntity
8
4_frame_d
6
ByLayer
62
256
370
-1
100
AcDbDimension
2
*D47
10
800
20
3249
30
0
11
748
21
3556.5
31
0
70
32
71
5
72
0
3
Standard
53
0
210
0
220
0
230
1
100
AcDbAlignedDimension
13
870.625638022
23
3864
33
0
14
848.584482629
24
3249
34
0
50
90
100
AcDbRotatedDimension
0
DIMENSION
5
483
100
AcDbEntity
8
4_frame_d
6
ByLayer
62
256
370
-1
100
AcDbDimension
2
*D48
10
800
20
2812
30
0
11
748
21
3030.5
31
0
70
32
71
5
72
0
3
Standard
53
0
210
0
220
0
230
1
100
AcDbAlignedDimension
13
848.584482629
23
3249
33
0
14
854.094771477
24
2812
34
0
50
90
100
AcDbRotatedDimension
0
DIMENSION
5
484
100
AcDbEntity
8
4_frame_d
6
ByLayer
62
256
370
-1
100
AcDbDimension
2
*D49
10
7800
20
3249
30
0
11
7748
21
3030.5
31
0
70
32
71
5
72
0
3
Standard
53
0
210
0
220
0
230
1
100
AcDbAlignedDimension
13
7763.99698717
23
2812
33
0
14
7763.99698717
24
3249
34
0
50
90
100
AcDbRotatedDimension
0
DIMENSION
5
485
100
AcDbEntity
8
4_frame_d
6
ByLayer
62
256
370
-1
100
AcDbDimension
2
*D50
10
7800
20
3864
30
0
11
7748
21
3556.5
31
0
70
32
71
5
72
0
3
Standard
53
0
210
0
220
0
230
1
100
AcDbAlignedDimension
13
7763.99698717
23
3249
33
0
14
7758.48669832
24
3864
34
0
50
90
100
AcDbRotatedDimension
0
DIMENSION
5
486
100
AcDbEntity
8
4_frame_d
6
ByLayer
62
256
370
-1
100
AcDbDimension
2
*D51
10
7800
20
4479
30
0
11
7748
21
4171.5
31
0
70
32
71
5
72
0
3
Standard
53
0
210
0
220
0
230
1
100
AcDbAlignedDimension
13
7758.48669832
23
3864
33
0
14
7763.99698717
24
4479
34
0
50
90
100
AcDbRotatedDimension
0
DIMENSION
5
487
100
AcDbEntity
8
4_frame_d
6
ByLayer
62
256
370
-1
100
AcDbDimension
2
*D52
10
7800
20
4917
30
0
11
7748
21
4698
31
0
70
32
71
5
72
0
3
Standard
53
0
210
0
220
0
230
1
100
AcDbAlignedDimension
13
7763.99698717
23
4479
33
0
14
7758.48669832
24
4917
34
0
50
90
100
AcDbRotatedDimension
0
LINE
5
488
100
AcDbEntity
8
4_frame
6
ByLayer
62
256
370
-1
100
AcDbLine
10
1855
20
5025
11
1855
21
4935
0
LINE
5
489
100
AcDbEntity
8
4_frame
6
ByLayer
62
256
370
-1
100
AcDbLine
10
1855
20
5025
11
1855
21
4935
0
LINE
5
48A
100
AcDbEntity
8
4_frame
6
ByLayer
62
256
370
-1
100
AcDbLine
10
1820
20
4935
11
1820
21
5025
0
LINE
5
48B
100
AcDbEntity
8
4_frame
6
ByLayer
62
256
370
-1
100
AcDbLine
10
1855
20
5025
11
1855
21
4935
0
LINE
5
48C
100
AcDbEntity
8
4_frame
6
ByLayer
62
256
370
-1
100
AcDbLine
10
1855
20
5025
11
1820
21
4935
0
LINE
5
48D
100
AcDbEntity
8
4_frame
6
ByLayer
62
256
370
-1
100
AcDbLine
10
1820
20
5025
11
1855
21
4935
0
LINE
5
48E
100
AcDbEntity
8
4_frame
6
ByLayer
62
256
370
-1
100
AcDbLine
10
1820
20
4935
11
1820
21
5025
0
LINE
5
48F
100
AcDbEntity
8
4_frame
6
ByLayer
62
256
370
-1
100
AcDbLine
10
1855
20
5025
11
1855
21
4935
0
LINE
5
490
100
AcDbEntity
8
4_frame
6
ByLayer
62
256
370
-1
100
AcDbLine
10
1855
20
5025
11
1820
21
4935
0
LINE
5
491
100
AcDbEntity
8
4_frame
6
ByLayer
62
256
370
-1
100
AcDbLine
10
1820
20
5025
11
1855
21
4935
0
LINE
5
492
100
AcDbEntity
8
4_frame
6
ByLayer
62
256
370
-1
100
AcDbLine
10
1872
20
4935
11
1802
21
4935
0
CIRCLE
5
493
100
AcDbEntity
8
4_frame_d
6
ByLayer
62
256
370
-1
100
AcDbCircle
10
1837
20
5913.19528818
40
80.622577483
0
MTEXT
5
494
100
AcDbEntity
8
4_frame_d
6
ByLayer
62
256
370
-1
100
AcDbMText
10
1821
20
5950.19528818
30
0
40
72
41
32
71
1
72
1
1
2
7
standard
210
0
220
0
230
1
50
0
73
2
44
1
0
LINE
5
495
100
AcDbEntity
8
4_frame_d
6
BORDER2
62
256
370
-1
100
AcDbLine
10
1837
20
5832.5727107
11
1837
21
5125
0
LINE
5
496
100
AcDbEntity
8
4_frame
6
ByLayer
62
256
370
-1
100
AcDbLine
10
2500
20
5025
11
2500
21
4935
0
LINE
5
497
100
AcDbEntity
8
4_frame
6
ByLayer
62
256
370
-1
100
AcDbLine
10
2500
20
5025
11
2500
21
4935
0
LINE
5
498
100
AcDbEntity
8
4_frame
6
ByLayer
62
256
370
-1
100
AcDbLine
10
2465
20
4935
11
2465
21
5025
0
LINE
5
499
100
AcDbEntity
8
4_frame
6
ByLayer
62
256
370
-1
100
AcDbLine
10
2500
20
5025
11
2500
21
4935
0
LINE
5
49A
100
AcDbEntity
8
4_frame
6
ByLayer
62
256
370
-1
100
AcDbLine
10
2500
20
5025
11
2465
21
4935
0
LINE
5
49B
100
AcDbEntity
8
4_frame
6
ByLayer
62
256
370
-1
100
AcDbLine
10
2465
20
5025
11
2500
21
4935
0
LINE
5
49C
100
AcDbEntity
8
4_frame
6
ByLayer
62
256
370
-1
100
AcDbLine
10
2465
20
4935
11
2465
21
5025
0
LINE
5
49D
100
AcDbEntity
8
4_frame
6
ByLayer
62
256
370
-1
100
AcDbLine
10
2500
20
5025
11
2500
21
4935
0
LINE
5
49E
100
AcDbEntity
8
4_frame
6
ByLayer
62
256
370
-1
100
AcDbLine
10
2500
20
5025
11
2465
21
4935
0
LINE
5
49F
100
AcDbEntity
8
4_frame
6
ByLayer
62
256
370
-1
100
AcDbLine
10
2465
20
5025
11
2500
21
4935
0
LINE
5
4A0
100
AcDbEntity
8
4_frame
6
ByLayer
62
256
370
-1
100
AcDbLine
10
2517
20
4935
11
2447
21
4935
0
CIRCLE
5
4A1
100
AcDbEntity
8
4_frame_d
6
ByLayer
62
256
370
-1
100
AcDbCircle
10
2482
20
5913.19528818
40
80.622577483
0
MTEXT
5
4A2
100
AcDbEntity
8
4_frame_d
6
ByLayer
62
256
370
-1
100
AcDbMText
10
2466
20
5950.19528818
30
0
40
72
41
32
71
1
72
1
1
3
7
standard
210
0
220
0
230
1
50
0
73
2
44
1
0
LINE
5
4A3
100
AcDbEntity
8
4_frame_d
6
BORDER2
62
256
370
-1
100
AcDbLine
10
2482
20
5832.5727107
11
2482
21
5125
0
DIMENSION
5
4A4
100
AcDbEntity
8
4_frame_d
6
ByLayer
62
256
370
-1
100
AcDbDimension
2
*D53
10
1837
20
5400
30
0
11
1529.5
21
5452
31
0
70
32
71
5
72
0
3
Standard
53
0
210
0
220
0
230
1
100
AcDbAlignedDimension
13
1222
23
5367.02133819
33
0
14
1837
24
5356.00076049
34
0
100
AcDbRotatedDimension
0
DIMENSION
5
4A5
100
AcDbEntity
8
4_frame_d
6
ByLayer
62
256
370
-1
100
AcDbDimension
2
*D54
10
2482
20
5400
30
0
11
2159.5
21
5452
31
0
70
32
71
5
72
0
3
Standard
53
0
210
0
220
0
230
1
100
AcDbAlignedDimension
13
1837
23
5361.51104934
33
0
14
2482
24
5350.49047164
34
0
100
AcDbRotatedDimension
0
DIMENSION
5
4A6
100
AcDbEntity
8
4_frame_d
6
ByLayer
62
256
370
-1
100
AcDbDimension
2
*D55
10
3125
20
5400
30
0
11
2803.5
21
5452
31
0
70
32
71
5
72
0
3
Standard
53
0
210
0
220
0
230
1
100
AcDbAlignedDimension
13
2482
23
5328.44931625
33
0
14
3125
24
5339.46989395
34
0
100
AcDbRotatedDimension
0
LINE
5
4A7
100
AcDbEntity
8
4_frame
6
ByLayer
62
256
370
-1
100
AcDbLine
10
3750
20
5025
11
3750
21
4935
0
LINE
5
4A8
100
AcDbEntity
8
4_frame
6
ByLayer
62
256
370
-1
100
AcDbLine
10
3785
20
5025
11
3785
21
4935
0
LINE
5
4A9
100
AcDbEntity
8
4_frame
6
ByLayer
62
256
370
-1
100
AcDbLine
10
3750
20
5025
11
3785
21
4935
0
LINE
5
4AA
100
AcDbEntity
8
4_frame
6
ByLayer
62
256
370
-1
100
AcDbLine
10
3785
20
5025
11
3750
21
4935
0
LINE
5
4AB
100
AcDbEntity
8
4_frame
6
ByLayer
62
256
370
-1
100
AcDbLine
10
3750
20
5025
11
3750
21
4935
0
LINE
5
4AC
100
AcDbEntity
8
4_frame
6
ByLayer
62
256
370
-1
100
AcDbLine
10
3785
20
5025
11
3785
21
4935
0
LINE
5
4AD
100
AcDbEntity
8
4_frame
6
ByLayer
62
256
370
-1
100
AcDbLine
10
3750
20
5025
11
3785
21
4935
0
LINE
5
4AE
100
AcDbEntity
8
4_frame
6
ByLayer
62
256
370
-1
100
AcDbLine
10
3785
20
5025
11
3750
21
4935
0
LINE
5
4AF
100
AcDbEntity
8
4_frame
6
ByLayer
62
256
370
-1
100
AcDbLine
10
3802
20
4935
11
3732
21
4935
0
CIRCLE
5
4B0
100
AcDbEntity
8
4_frame_d
6
ByLayer
62
256
370
-1
100
AcDbCircle
10
3767
20
5913.19528818
40
80.622577483
0
MTEXT
5
4B1
100
AcDbEntity
8
4_frame_d
6
ByLayer
62
256
370
-1
100
AcDbMText
10
3751
20
5950.19528818
30
0
40
72
41
32
71
1
72
1
1
5
7
standard
210
0
220
0
230
1
50
0
73
2
44
1
0
LINE
5
4B2
100
AcDbEntity
8
4_frame_d
6
BORDER2
62
256
370
-1
100
AcDbLine
10
3767
20
5832.5727107
11
3767
21
5125
0
LINE
5
4B3
100
AcDbEntity
8
4_frame
6
ByLayer
62
256
370
-1
100
AcDbLine
10
4917
20
4935
11
4847
21
4935
0
LINE
5
4B4
100
AcDbEntity
8
4_frame
6
ByLayer
62
256
370
-1
100
AcDbLine
10
4860
20
5025
11
4860
21
4935
0
LINE
5
4B5
100
AcDbEntity
8
4_frame
6
ByLayer
62
256
370
-1
100
AcDbLine
10
4895
20
5025
11
4895
21
4935
0
LINE
5
4B6
100
AcDbEntity
8
4_frame
6
ByLayer
62
256
370
-1
100
AcDbLine
10
4860
20
5025
11
4895
21
4935
0
LINE
5
4B7
100
AcDbEntity
8
4_frame
6
ByLayer
62
256
370
-1
100
AcDbLine
10
4895
20
5025
11
4860
21
4935
0
LINE
5
4B8
100
AcDbEntity
8
4_frame
6
ByLayer
62
256
370
-1
100
AcDbLine
10
4860
20
5025
11
4860
21
4935
0
LINE
5
4B9
100
AcDbEntity
8
4_frame
6
ByLayer
62
256
370
-1
100
AcDbLine
10
4895
20
5025
11
4895
21
4935
0
LINE
5
4BA
100
AcDbEntity
8
4_frame
6
ByLayer
62
256
370
-1
100
AcDbLine
10
4860
20
5025
11
4895
21
4935
0
LINE
5
4BB
100
AcDbEntity
8
4_frame
6
ByLayer
62
256
370
-1
100
AcDbLine
10
4895
20
5025
11
4860
21
4935
0
CIRCLE
5
4BC
100
AcDbEntity
8
4_frame_d
6
ByLayer
62
256
370
-1
100
AcDbCircle
10
4877
20
5913.19528818
40
80.622577483
0
LINE
5
4BD
100
AcDbEntity
8
4_frame_d
6
BORDER2
62
256
370
-1
100
AcDbLine
10
4877
20
5832.5727107
11
4877
21
5125
0
MTEXT
5
4BE
100
AcDbEntity
8
4_frame_d
6
ByLayer
62
256
370
-1
100
AcDbMText
10
4861
20
5950.19528818
30
0
40
72
41
32
71
1
72
1
1
7
7
standard
210
0
220
0
230
1
50
0
73
2
44
1
0
LINE
5
4BF
100
AcDbEntity
8
4_frame
6
ByLayer
62
256
370
-1
100
AcDbLine
10
6187
20
4935
11
6117
21
4935
0
LINE
5
4C0
100
AcDbEntity
8
4_frame
6
ByLayer
62
256
370
-1
100
AcDbLine
10
6180
20
5025
11
6180
21
4935
0
LINE
5
4C1
100
AcDbEntity
8
4_frame
6
ByLayer
62
256
370
-1
100
AcDbLine
10
6145
20
5025
11
6145
21
4935
0
LINE
5
4C2
100
AcDbEntity
8
4_frame
6
ByLayer
62
256
370
-1
100
AcDbLine
10
6145
20
4935
11
6180
21
5025
0
LINE
5
4C3
100
AcDbEntity
8
4_frame
6
ByLayer
62
256
370
-1
100
AcDbLine
10
6145
20
5025
11
6180
21
4935
0
CIRCLE
5
4C4
100
AcDbEntity
8
4_frame_d
6
ByLayer
62
256
370
-1
100
AcDbCircle
10
6162
20
5913.19528818
40
80.622577483
0
LINE
5
4C5
100
AcDbEntity
8
4_frame_d
6
BORDER2
62
256
370
-1
100
AcDbLine
10
6162
20
5832.5727107
11
6162
21
5125
0
MTEXT
5
4C6
100
AcDbEntity
8
4_frame_d
6
ByLayer
62
256
370
-1
100
AcDbMText
10
6146
20
5950.19528818
30
0
40
72
41
32
71
1
72
1
1
9
7
standard
210
0
220
0
230
1
50
0
73
2
44
1
0
LINE
5
4C7
100
AcDbEntity
8
4_frame
6
ByLayer
62
256
370
-1
100
AcDbLine
10
6825
20
5025
11
6825
21
4935
0
LINE
5
4C8
100
AcDbEntity
8
4_frame
6
ByLayer
62
256
370
-1
100
AcDbLine
10
6790
20
5025
11
6790
21
4935
0
LINE
5
4C9
100
AcDbEntity
8
4_frame
6
ByLayer
62
256
370
-1
100
AcDbLine
10
6790
20
4935
11
6825
21
5025
0
LINE
5
4CA
100
AcDbEntity
8
4_frame
6
ByLayer
62
256
370
-1
100
AcDbLine
10
6790
20
5025
11
6825
21
4935
0
LINE
5
4CB
100
AcDbEntity
8
4_frame
6
ByLayer
62
256
370
-1
100
AcDbLine
10
6842
20
4935
11
6772
21
4935
0
CIRCLE
5
4CC
100
AcDbEntity
8
4_frame_d
6
ByLayer
62
256
370
-1
100
AcDbCircle
10
6807
20
5913.19528818
40
80.622577483
0
LINE
5
4CD
100
AcDbEntity
8
4_frame_d
6
BORDER2
62
256
370
-1
100
AcDbLine
10
6807
20
5832.5727107
11
6807
21
5125
0
MTEXT
5
4CE
100
AcDbEntity
8
4_frame_d
6
ByLayer
62
256
370
-1
100
AcDbMText
10
6775
20
5953.19528818
30
0
40
72
41
72
71
1
72
1
1
10
7
standard
210
0
220
0
230
1
50
0
73
2
44
1
0
DIMENSION
5
4CF
100
AcDbEntity
8
4_frame_d
6
ByLayer
62
256
370
-1
100
AcDbDimension
2
*D56
10
3767
20
5400
30
0
11
3446
21
5452
31
0
70
32
71
5
72
0
3
Standard
53
0
210
0
220
0
230
1
100
AcDbAlignedDimension
13
3125
23
5360.40899157
33
0
14
3767
24
5356.00076049
34
0
100
AcDbRotatedDimension
0
DIMENSION
5
4D0
100
AcDbEntity
8
4_frame_d
6
ByLayer
62
256
370
-1
100
AcDbDimension
2
*D57
10
4322
20
5400
30
0
11
4044.5
21
5452
31
0
70
32
71
5
72
0
3
Standard
53
0
210
0
220
0
230
1
100
AcDbAlignedDimension
13
3767
23
5351.59252941
33
0
14
4322
24
5356.00076049
34
0
100
AcDbRotatedDimension
0
DIMENSION
5
4D1
100
AcDbEntity
8
4_frame_d
6
ByLayer
62
256
370
-1
100
AcDbDimension
2
*D58
10
4877
20
5400
30
0
11
4599.5
21
5452
31
0
70
32
71
5
72
0
3
Standard
53
0
210
0
220
0
230
1
100
AcDbAlignedDimension
13
4322
23
5338.36783618
33
0
14
4877
24
5333.9596051
34
0
100
AcDbRotatedDimension
0
DIMENSION
5
4D2
100
AcDbEntity
8
4_frame_d
6
ByLayer
62
256
370
-1
100
AcDbDimension
2
*D59
10
5520
20
5400
30
0
11
5198.5
21
5452
31
0
70
32
71
5
72
0
3
Standard
53
0
210
0
220
0
230
1
100
AcDbAlignedDimension
13
4877
23
5325.14314294
33
0
14
5520
24
5325.14314294
34
0
100
AcDbRotatedDimension
0
DIMENSION
5
4D3
100
AcDbEntity
8
4_frame_d
6
ByLayer
62
256
370
-1
100
AcDbDimension
2
*D60
10
6162
20
5400
30
0
11
5841
21
5452
31
0
70
32
71
5
72
0
3
Standard
53
0
210
0
220
0
230
1
100
AcDbAlignedDimension
13
5520
23
5320.73491186
33
0
14
6162
24
5325.14314294
34
0
100
AcDbRotatedDimension
0
DIMENSION
5
4D4
100
AcDbEntity
8
4_frame_d
6
ByLayer
62
256
370
-1
100
AcDbDimension
2
*D61
10
6807
20
5400
30
0
11
6484.5
21
5452
31
0
70
32
71
5
72
0
3
Standard
53
0
210
0
220
0
230
1
100
AcDbAlignedDimension
13
6162
23
5329.55137402
33
0
14
6807
24
5342.77606725
34
0
100
AcDbRotatedDimension
0
DIMENSION
5
4D5
100
AcDbEntity
8
4_frame_d
6
ByLayer
62
256
370
-1
100
AcDbDimension
2
*D62
10
7422
20
5400
30
0
11
7114.5
21
5452
31
0
70
32
71
5
72
0
3
Standard
53
0
210
0
220
0
230
1
100
AcDbAlignedDimension
13
6807
23
5342.77606725
33
0
14
7422
24
5338.36783618
34
0
100
AcDbRotatedDimension
0
MTEXT
5
4D6
100
AcDbEntity
8
4_frame_d
6
ByLayer
62
256
370
-1
100
AcDbMText
10
5200
20
750.0022
30
0
40
64
41
522.666666667
71
1
72
1
1
27 Aug 2017
7
standard
210
0
220
0
230
1
50
0
73
2
44
1
0
LINE
5
4D7
100
AcDbEntity
8
4_frame
6
ByLayer
62
256
370
-1
100
AcDbLine
10
5600
20
2750
11
6560
21
2750
0
MTEXT
5
4D8
100
AcDbEntity
8
4_frame_d
6
ByLayer
62
256
370
-1
100
AcDbMText
10
3330
20
4800
30
0
40
64
41
657.77776421
71
1
72
1
1
90x45 STRU x2
7
standard
210
0
220
0
230
1
50
0
73
2
44
1
0
MTEXT
5
4D9
100
AcDbEntity
8
4_frame_d
6
ByLayer
62
256
370
-1
100
AcDbMText
10
5725
20
4800
30
0
40
64
41
657.77776421
71
1
72
1
1
90x45 STRU x2
7
standard
210
0
220
0
230
1
50
0
73
2
44
1
0
MTEXT
5
4DA
100
AcDbEntity
8
4_frame_d
6
ByLayer
62
256
370
-1
100
AcDbMText
10
3300
20
3100
30
0
40
64
41
657.77776421
71
1
72
1
1
90x45 STRU x2
7
standard
210
0
220
0
230
1
50
0
73
2
44
1
0
MTEXT
5
4DB
100
AcDbEntity
8
4_frame_d
6
ByLayer
62
256
370
-1
100
AcDbMText
10
5700
20
3100
30
0
40
64
41
657.77776421
71
1
72
1
1
90x45 STRU x2
7
standard
210
0
220
0
230
1
50
0
73
2
44
1
0
LEADER
5
4DC
100
AcDbEntity
8
4_frame_d
6
ByLayer
62
256
370
-1
100
AcDbLeader
3
Standard
71
1
72
0
73
3
74
0
75
0
40
1
41
10
76
3
76
3
10
3837.5
20
2750
30
0
10
5100
20
3400
30
0
10
6200
20
3400
30
0
0
LEADER
5
4DD
100
AcDbEntity
8
4_frame_d
6
ByLayer
62
256
370
-1
100
AcDbLeader
3
Standard
71
1
72
0
73
3
74
0
75
0
40
1
41
10
76
2
76
2
10
4842.5
20
2750
30
0
10
5100
20
3400
30
0
0
MTEXT
5
4DE
100
AcDbEntity
8
4_frame_d
6
ByLayer
62
256
370
-1
100
AcDbMText
10
5200
20
3500
30
0
40
64
41
595.555541987
71
1
72
1
1
DOOR FRAMES
7
STANDARD
210
0
220
0
230
1
50
0
73
2
44
1
0
ENDSEC
0
SECTION
2
OBJECTS
0
DICTIONARY
5
C
330
0
100
AcDbDictionary
281
1
3
ACAD_GROUP
350
D
0
DICTIONARY
5
D
330
C
100
AcDbDictionary
281
1
0
ENDSEC
0
EOF
