999
dxfrw 0.5.11
0
SECTION
2
HEADER
9
$ACADVER
1
AC1021
9
$HANDSEED
5
20000
9
$DWGCODEPAGE
3
ANSI_1252
9
$INSBASE
10
0
20
0
30
0
9
$EXTMIN
10
10000000000
20
10000000000
30
0
9
$EXTMAX
10
-10000000000
20
-10000000000
30
0
9
$LIMMIN
10
0
20
0
9
$LIMMAX
10
420
20
297
9
$ORTHOMODE
70
0
9
$LTSCALE
40
1
9
$TEXTSTYLE
7
STANDARD
9
$CLAYER
8
0
9
$DIMASZ
40
50
9
$DIMLFAC
40
1
9
$DIMSCALE
40
1
9
$DIMEXO
40
50
9
$DIMEXE
40
1.25
9
$DIMTXT
40
64
9
$DIMTSZ
40
0
9
$DIMAUNIT
70
0
9
$DIMADEC
70
2
9
$DIMLUNIT
70
2
9
$DIMSTYLE
2
STANDARD
9
$DIMGAP
40
20
9
$DIMTIH
70
0
9
$LUNITS
70
2
9
$LUPREC
70
4
9
$AUNITS
70
0
9
$AUPREC
70
2
9
$SPLINESEGS
70
8
9
$GRIDMODE
70
1
9
$SNAPSTYLE
70
0
9
$GRIDUNIT
10
0
20
0
9
$PINSBASE
10
0
20
0
30
0
9
$PLIMMIN
10
0
20
0
9
$PLIMMAX
10
297
20
210
9
$INSUNITS
70
4
9
$PSVPSCALE
40
1
0
ENDSEC
0
SECTION
2
CLASSES
0
ENDSEC
0
SECTION
2
TABLES
0
TABLE
2
VPORT
5
8
330
0
100
AcDbSymbolTable
70
1
0
VPORT
5
31
330
2
100
AcDbSymbolTableRecord
100
AcDbViewportTableRecord
2
*ACTIVE
70
0
10
0
20
0
11
1
21
1
12
4412.76295313
22
3065.25582696
13
0
23
0
14
10
24
10
15
10
25
10
16
0
26
0
36
1
17
0
27
0
37
0
40
5002.56639175
41
2.67641996558
42
50
43
0
44
0
50
0
51
0
71
0
72
100
73
1
74
3
75
0
76
1
77
0
78
0
281
0
65
1
110
0
120
0
130
0
111
1
121
0
131
0
112
0
122
1
132
0
79
0
146
0
348
10020
60
7
61
5
292
1
282
1
141
0
142
0
63
250
421
3358443
0
ENDTAB
0
TABLE
2
LTYPE
5
5
330
0
100
AcDbSymbolTable
70
4
0
LTYPE
5
14
330
5
100
AcDbSymbolTableRecord
100
AcDbLinetypeTableRecord
2
ByBlock
70
0
3

72
65
73
0
40
0
0
LTYPE
5
15
330
5
100
AcDbSymbolTableRecord
100
AcDbLinetypeTableRecord
2
ByLayer
70
0
3

72
65
73
0
40
0
0
LTYPE
5
16
330
5
100
AcDbSymbolTableRecord
100
AcDbLinetypeTableRecord
2
Continuous
70
0
3
Solid line
72
65
73
0
40
0
0
LTYPE
5
32
330
5
100
AcDbSymbolTableRecord
100
AcDbLinetypeTableRecord
2
DOT
70
0
3
Dot . . . . . . . . . . . . . . . . . . . . . .
72
65
73
2
40
6.35
49
0
74
0
49
-6.35
74
0
0
LTYPE
5
33
330
5
100
AcDbSymbolTableRecord
100
AcDbLinetypeTableRecord
2
DOT2
70
0
3
Dot (.5x) .....................................
72
65
73
2
40
3.175
49
0
74
0
49
-3.175
74
0
0
LTYPE
5
34
330
5
100
AcDbSymbolTableRecord
100
AcDbLinetypeTableRecord
2
DOTX2
70
0
3
Dot (2x) .  .  .  .  .  .  .  .  .  .  .  .  .
72
65
73
2
40
12.7
49
0
74
0
49
-12.7
74
0
0
LTYPE
5
35
330
5
100
AcDbSymbolTableRecord
100
AcDbLinetypeTableRecord
2
DASHED
70
0
3
Dot . . . . . . . . . . . . . . . . . . . . . .
72
65
73
2
40
19.05
49
12.7
74
0
49
-6.35
74
0
0
LTYPE
5
36
330
5
100
AcDbSymbolTableRecord
100
AcDbLinetypeTableRecord
2
DASHED2
70
0
3
Dashed (.5x) _ _ _ _ _ _ _ _ _ _ _ _ _ _ _ _ _
72
65
73
2
40
9.525
49
6.35
74
0
49
-3.175
74
0
0
LTYPE
5
37
330
5
100
AcDbSymbolTableRecord
100
AcDbLinetypeTableRecord
2
DASHEDX2
70
0
3
Dashed (2x) ____  ____  ____  ____  ____  ___
72
65
73
2
40
38.1
49
25.4
74
0
49
-12.7
74
0
0
LTYPE
5
38
330
5
100
AcDbSymbolTableRecord
100
AcDbLinetypeTableRecord
2
DASHDOT
70
0
3
Dash dot __ . __ . __ . __ . __ . __ . __ . __
72
65
73
4
40
25.4
49
12.7
74
0
49
-6.35
74
0
49
0
74
0
49
-6.35
74
0
0
LTYPE
5
39
330
5
100
AcDbSymbolTableRecord
100
AcDbLinetypeTableRecord
2
DASHDOT2
70
0
3
Dash dot (.5x) _._._._._._._._._._._._._._._.
72
65
73
4
40
12.7
49
6.35
74
0
49
-3.175
74
0
49
0
74
0
49
-3.175
74
0
0
LTYPE
5
3A
330
5
100
AcDbSymbolTableRecord
100
AcDbLinetypeTableRecord
2
DASHDOTX2
70
0
3
Dash dot (2x) ____  .  ____  .  ____  .  ___
72
65
73
4
40
50.8
49
25.4
74
0
49
-12.7
74
0
49
0
74
0
49
-12.7
74
0
0
LTYPE
5
3B
330
5
100
AcDbSymbolTableRecord
100
AcDbLinetypeTableRecord
2
DIVIDE
70
0
3
Divide ____ . . ____ . . ____ . . ____ . . ____
72
65
73
6
40
31.75
49
12.7
74
0
49
-6.35
74
0
49
0
74
0
49
-6.35
74
0
49
0
74
0
49
-6.35
74
0
0
LTYPE
5
3C
330
5
100
AcDbSymbolTableRecord
100
AcDbLinetypeTableRecord
2
DIVIDE2
70
0
3
Divide (.5x) __..__..__..__..__..__..__..__.._
72
65
73
6
40
15.875
49
6.35
74
0
49
-3.175
74
0
49
0
74
0
49
-3.175
74
0
49
0
74
0
49
-3.175
74
0
0
LTYPE
5
3D
330
5
100
AcDbSymbolTableRecord
100
AcDbLinetypeTableRecord
2
DIVIDEX2
70
0
3
Divide (2x) ________  .  .  ________  .  .  _
72
65
73
6
40
63.5
49
25.4
74
0
49
-12.7
74
0
49
0
74
0
49
-12.7
74
0
49
0
74
0
49
-12.7
74
0
0
LTYPE
5
3E
330
5
100
AcDbSymbolTableRecord
100
AcDbLinetypeTableRecord
2
BORDER
70
0
3
Border __ __ . __ __ . __ __ . __ __ . __ __ .
72
65
73
6
40
44.45
49
12.7
74
0
49
-6.35
74
0
49
12.7
74
0
49
-6.35
74
0
49
0
74
0
49
-6.35
74
0
0
LTYPE
5
3F
330
5
100
AcDbSymbolTableRecord
100
AcDbLinetypeTableRecord
2
BORDER2
70
0
3
Border (.5x) __.__.__.__.__.__.__.__.__.__.__.
72
65
73
6
40
22.225
49
6.35
74
0
49
-3.175
74
0
49
6.35
74
0
49
-3.175
74
0
49
0
74
0
49
-3.175
74
0
0
LTYPE
5
40
330
5
100
AcDbSymbolTableRecord
100
AcDbLinetypeTableRecord
2
BORDERX2
70
0
3
Border (2x) ____  ____  .  ____  ____  .  ___
72
65
73
6
40
88.9
49
25.4
74
0
49
-12.7
74
0
49
25.4
74
0
49
-12.7
74
0
49
0
74
0
49
-12.7
74
0
0
LTYPE
5
41
330
5
100
AcDbSymbolTableRecord
100
AcDbLinetypeTableRecord
2
CENTER
70
0
3
Center ____ _ ____ _ ____ _ ____ _ ____ _ ____
72
65
73
4
40
50.8
49
31.75
74
0
49
-6.35
74
0
49
6.35
74
0
49
-6.35
74
0
0
LTYPE
5
42
330
5
100
AcDbSymbolTableRecord
100
AcDbLinetypeTableRecord
2
CENTER2
70
0
3
Center (.5x) ___ _ ___ _ ___ _ ___ _ ___ _ ___
72
65
73
4
40
28.575
49
19.05
74
0
49
-3.175
74
0
49
3.175
74
0
49
-3.175
74
0
0
LTYPE
5
43
330
5
100
AcDbSymbolTableRecord
100
AcDbLinetypeTableRecord
2
CENTERX2
70
0
3
Center (2x) ________  __  ________  __  _____
72
65
73
4
40
101.6
49
63.5
74
0
49
-12.7
74
0
49
12.7
74
0
49
-12.7
74
0
0
ENDTAB
0
TABLE
2
LAYER
5
2
330
0
100
AcDbSymbolTable
70
1
0
LAYER
5
10
330
2
100
AcDbSymbolTableRecord
100
AcDbLayerTableRecord
2
0
70
0
62
7
6
CONTINUOUS
370
0
390
F
0
LAYER
5
44
330
2
100
AcDbSymbolTableRecord
100
AcDbLayerTableRecord
2
Foundation
70
1
62
7
6
CONTINUOUS
370
35
390
F
0
LAYER
5
45
330
2
100
AcDbSymbolTableRecord
100
AcDbLayerTableRecord
2
section_A_A
70
0
62
7
6
CONTINUOUS
370
35
390
F
0
LAYER
5
46
330
2
100
AcDbSymbolTableRecord
100
AcDbLayerTableRecord
2
section_A_A_d
70
0
62
4
6
CONTINUOUS
370
13
390
F
0
LAYER
5
47
330
2
100
AcDbSymbolTableRecord
100
AcDbLayerTableRecord
2
section_A_extra
70
1
62
7
6
CONTINUOUS
370
35
390
F
0
LAYER
5
48
330
2
100
AcDbSymbolTableRecord
100
AcDbLayerTableRecord
2
section_A_extra_d
70
1
62
4
6
CONTINUOUS
370
18
390
F
0
ENDTAB
0
TABLE
2
STYLE
5
3
330
0
100
AcDbSymbolTable
70
3
0
STYLE
5
49
330
2
100
AcDbSymbolTableRecord
100
AcDbTextStyleTableRecord
2
normal#0.500000#0.900000
70
0
40
0
41
1
50
0
71
0
42
1
3
normal#0.500000#0.900000
4

0
STYLE
5
4A
330
2
100
AcDbSymbolTableRecord
100
AcDbTextStyleTableRecord
2
standard
70
0
40
0
41
1
50
0
71
0
42
1
3
standard
4

0
STYLE
5
4B
330
2
100
AcDbSymbolTableRecord
100
AcDbTextStyleTableRecord
2
iso
70
0
40
0
41
1
50
0
71
0
42
1
3
iso
4

0
ENDTAB
0
TABLE
2
VIEW
5
6
330
0
100
AcDbSymbolTable
70
0
0
ENDTAB
0
TABLE
2
UCS
5
7
330
0
100
AcDbSymbolTable
70
0
0
ENDTAB
0
TABLE
2
APPID
5
9
330
0
100
AcDbSymbolTable
70
1
0
APPID
5
12
330
9
100
AcDbSymbolTableRecord
100
AcDbRegAppTableRecord
2
ACAD
70
0
0
ENDTAB
0
TABLE
2
DIMSTYLE
5
A
330
0
100
AcDbSymbolTable
70
1
100
AcDbDimStyleTable
71
1
0
DIMSTYLE
105
4C
330
A
100
AcDbSymbolTableRecord
100
AcDbDimStyleTableRecord
2
Standard
70
0
40
1
41
50
42
50
43
0.38
44
1.25
45
0
46
0
47
0
48
0
140
64
141
0.09
142
0
143
25.4
144
1
145
0
146
1
147
20
148
0
71
0
72
0
73
0
74
1
75
0
76
0
77
0
78
0
79
0
170
0
171
2
172
0
173
0
174
0
175
0
176
0
177
0
178
0
179
0
271
4
272
4
273
2
274
2
275
0
276
0
277
2
278
46
279
0
280
0
281
0
282
0
283
1
284
0
285
0
286
0
288
0
289
3
340
Standard
341

371
-2
372
-2
0
ENDTAB
0
TABLE
2
BLOCK_RECORD
5
1
330
0
100
AcDbSymbolTable
70
2
0
BLOCK_RECORD
5
1F
330
1
100
AcDbSymbolTableRecord
100
AcDbBlockTableRecord
2
*Model_Space
70
0
280
1
281
0
0
BLOCK_RECORD
5
1E
330
1
100
AcDbSymbolTableRecord
100
AcDbBlockTableRecord
2
*Paper_Space
70
0
280
1
281
0
0
BLOCK_RECORD
5
4D
330
1
100
AcDbSymbolTableRecord
100
AcDbBlockTableRecord
2
*D50
70
0
280
1
281
0
0
BLOCK_RECORD
5
50
330
1
100
AcDbSymbolTableRecord
100
AcDbBlockTableRecord
2
*D17
70
0
280
1
281
0
0
BLOCK_RECORD
5
53
330
1
100
AcDbSymbolTableRecord
100
AcDbBlockTableRecord
2
*D54
70
0
280
1
281
0
0
BLOCK_RECORD
5
56
330
1
100
AcDbSymbolTableRecord
100
AcDbBlockTableRecord
2
*D63
70
0
280
1
281
0
0
BLOCK_RECORD
5
59
330
1
100
AcDbSymbolTableRecord
100
AcDbBlockTableRecord
2
*D10
70
0
280
1
281
0
0
BLOCK_RECORD
5
5C
330
1
100
AcDbSymbolTableRecord
100
AcDbBlockTableRecord
2
*D37
70
0
280
1
281
0
0
BLOCK_RECORD
5
5F
330
1
100
AcDbSymbolTableRecord
100
AcDbBlockTableRecord
2
*D68
70
0
280
1
281
0
0
BLOCK_RECORD
5
62
330
1
100
AcDbSymbolTableRecord
100
AcDbBlockTableRecord
2
*D53
70
0
280
1
281
0
0
BLOCK_RECORD
5
65
330
1
100
AcDbSymbolTableRecord
100
AcDbBlockTableRecord
2
*D19
70
0
280
1
281
0
0
BLOCK_RECORD
5
68
330
1
100
AcDbSymbolTableRecord
100
AcDbBlockTableRecord
2
*D57
70
0
280
1
281
0
0
BLOCK_RECORD
5
6B
330
1
100
AcDbSymbolTableRecord
100
AcDbBlockTableRecord
2
*D45
70
0
280
1
281
0
0
BLOCK_RECORD
5
6E
330
1
100
AcDbSymbolTableRecord
100
AcDbBlockTableRecord
2
*D46
70
0
280
1
281
0
0
BLOCK_RECORD
5
71
330
1
100
AcDbSymbolTableRecord
100
AcDbBlockTableRecord
2
*D65
70
0
280
1
281
0
0
BLOCK_RECORD
5
74
330
1
100
AcDbSymbolTableRecord
100
AcDbBlockTableRecord
2
*D60
70
0
280
1
281
0
0
BLOCK_RECORD
5
77
330
1
100
AcDbSymbolTableRecord
100
AcDbBlockTableRecord
2
*D31
70
0
280
1
281
0
0
BLOCK_RECORD
5
7A
330
1
100
AcDbSymbolTableRecord
100
AcDbBlockTableRecord
2
*D58
70
0
280
1
281
0
0
BLOCK_RECORD
5
7D
330
1
100
AcDbSymbolTableRecord
100
AcDbBlockTableRecord
2
*D59
70
0
280
1
281
0
0
BLOCK_RECORD
5
80
330
1
100
AcDbSymbolTableRecord
100
AcDbBlockTableRecord
2
*D1
70
0
280
1
281
0
0
BLOCK_RECORD
5
83
330
1
100
AcDbSymbolTableRecord
100
AcDbBlockTableRecord
2
*D13
70
0
280
1
281
0
0
BLOCK_RECORD
5
86
330
1
100
AcDbSymbolTableRecord
100
AcDbBlockTableRecord
2
*D51
70
0
280
1
281
0
0
BLOCK_RECORD
5
89
330
1
100
AcDbSymbolTableRecord
100
AcDbBlockTableRecord
2
*D38
70
0
280
1
281
0
0
BLOCK_RECORD
5
8C
330
1
100
AcDbSymbolTableRecord
100
AcDbBlockTableRecord
2
*D3
70
0
280
1
281
0
0
BLOCK_RECORD
5
8F
330
1
100
AcDbSymbolTableRecord
100
AcDbBlockTableRecord
2
*D6
70
0
280
1
281
0
0
BLOCK_RECORD
5
92
330
1
100
AcDbSymbolTableRecord
100
AcDbBlockTableRecord
2
*D32
70
0
280
1
281
0
0
BLOCK_RECORD
5
95
330
1
100
AcDbSymbolTableRecord
100
AcDbBlockTableRecord
2
*D16
70
0
280
1
281
0
0
BLOCK_RECORD
5
98
330
1
100
AcDbSymbolTableRecord
100
AcDbBlockTableRecord
2
*D9
70
0
280
1
281
0
0
BLOCK_RECORD
5
9B
330
1
100
AcDbSymbolTableRecord
100
AcDbBlockTableRecord
2
*D67
70
0
280
1
281
0
0
BLOCK_RECORD
5
9E
330
1
100
AcDbSymbolTableRecord
100
AcDbBlockTableRecord
2
*D26
70
0
280
1
281
0
0
BLOCK_RECORD
5
A1
330
1
100
AcDbSymbolTableRecord
100
AcDbBlockTableRecord
2
*D55
70
0
280
1
281
0
0
BLOCK_RECORD
5
A4
330
1
100
AcDbSymbolTableRecord
100
AcDbBlockTableRecord
2
*D29
70
0
280
1
281
0
0
BLOCK_RECORD
5
A7
330
1
100
AcDbSymbolTableRecord
100
AcDbBlockTableRecord
2
*D7
70
0
280
1
281
0
0
BLOCK_RECORD
5
AA
330
1
100
AcDbSymbolTableRecord
100
AcDbBlockTableRecord
2
*D48
70
0
280
1
281
0
0
BLOCK_RECORD
5
AD
330
1
100
AcDbSymbolTableRecord
100
AcDbBlockTableRecord
2
*D33
70
0
280
1
281
0
0
BLOCK_RECORD
5
B0
330
1
100
AcDbSymbolTableRecord
100
AcDbBlockTableRecord
2
*D5
70
0
280
1
281
0
0
BLOCK_RECORD
5
B3
330
1
100
AcDbSymbolTableRecord
100
AcDbBlockTableRecord
2
*D69
70
0
280
1
281
0
0
BLOCK_RECORD
5
B6
330
1
100
AcDbSymbolTableRecord
100
AcDbBlockTableRecord
2
*D49
70
0
280
1
281
0
0
BLOCK_RECORD
5
B9
330
1
100
AcDbSymbolTableRecord
100
AcDbBlockTableRecord
2
*D2
70
0
280
1
281
0
0
BLOCK_RECORD
5
BC
330
1
100
AcDbSymbolTableRecord
100
AcDbBlockTableRecord
2
*D18
70
0
280
1
281
0
0
BLOCK_RECORD
5
BF
330
1
100
AcDbSymbolTableRecord
100
AcDbBlockTableRecord
2
*D36
70
0
280
1
281
0
0
BLOCK_RECORD
5
C2
330
1
100
AcDbSymbolTableRecord
100
AcDbBlockTableRecord
2
*D61
70
0
280
1
281
0
0
BLOCK_RECORD
5
C5
330
1
100
AcDbSymbolTableRecord
100
AcDbBlockTableRecord
2
*D39
70
0
280
1
281
0
0
BLOCK_RECORD
5
C8
330
1
100
AcDbSymbolTableRecord
100
AcDbBlockTableRecord
2
*D22
70
0
280
1
281
0
0
BLOCK_RECORD
5
CB
330
1
100
AcDbSymbolTableRecord
100
AcDbBlockTableRecord
2
*D44
70
0
280
1
281
0
0
BLOCK_RECORD
5
CE
330
1
100
AcDbSymbolTableRecord
100
AcDbBlockTableRecord
2
*D66
70
0
280
1
281
0
0
BLOCK_RECORD
5
D1
330
1
100
AcDbSymbolTableRecord
100
AcDbBlockTableRecord
2
*D11
70
0
280
1
281
0
0
BLOCK_RECORD
5
D4
330
1
100
AcDbSymbolTableRecord
100
AcDbBlockTableRecord
2
*D35
70
0
280
1
281
0
0
BLOCK_RECORD
5
D7
330
1
100
AcDbSymbolTableRecord
100
AcDbBlockTableRecord
2
*D21
70
0
280
1
281
0
0
BLOCK_RECORD
5
DA
330
1
100
AcDbSymbolTableRecord
100
AcDbBlockTableRecord
2
*D43
70
0
280
1
281
0
0
BLOCK_RECORD
5
DD
330
1
100
AcDbSymbolTableRecord
100
AcDbBlockTableRecord
2
*D20
70
0
280
1
281
0
0
BLOCK_RECORD
5
E0
330
1
100
AcDbSymbolTableRecord
100
AcDbBlockTableRecord
2
*D12
70
0
280
1
281
0
0
BLOCK_RECORD
5
E3
330
1
100
AcDbSymbolTableRecord
100
AcDbBlockTableRecord
2
*D40
70
0
280
1
281
0
0
BLOCK_RECORD
5
E6
330
1
100
AcDbSymbolTableRecord
100
AcDbBlockTableRecord
2
*D28
70
0
280
1
281
0
0
BLOCK_RECORD
5
E9
330
1
100
AcDbSymbolTableRecord
100
AcDbBlockTableRecord
2
*D62
70
0
280
1
281
0
0
BLOCK_RECORD
5
EC
330
1
100
AcDbSymbolTableRecord
100
AcDbBlockTableRecord
2
*D34
70
0
280
1
281
0
0
BLOCK_RECORD
5
EF
330
1
100
AcDbSymbolTableRecord
100
AcDbBlockTableRecord
2
*D4
70
0
280
1
281
0
0
BLOCK_RECORD
5
F2
330
1
100
AcDbSymbolTableRecord
100
AcDbBlockTableRecord
2
*D64
70
0
280
1
281
0
0
BLOCK_RECORD
5
F5
330
1
100
AcDbSymbolTableRecord
100
AcDbBlockTableRecord
2
*D27
70
0
280
1
281
0
0
BLOCK_RECORD
5
F8
330
1
100
AcDbSymbolTableRecord
100
AcDbBlockTableRecord
2
*D25
70
0
280
1
281
0
0
BLOCK_RECORD
5
FB
330
1
100
AcDbSymbolTableRecord
100
AcDbBlockTableRecord
2
*D8
70
0
280
1
281
0
0
BLOCK_RECORD
5
FE
330
1
100
AcDbSymbolTableRecord
100
AcDbBlockTableRecord
2
*D52
70
0
280
1
281
0
0
BLOCK_RECORD
5
101
330
1
100
AcDbSymbolTableRecord
100
AcDbBlockTableRecord
2
*D41
70
0
280
1
281
0
0
BLOCK_RECORD
5
104
330
1
100
AcDbSymbolTableRecord
100
AcDbBlockTableRecord
2
*D24
70
0
280
1
281
0
0
BLOCK_RECORD
5
107
330
1
100
AcDbSymbolTableRecord
100
AcDbBlockTableRecord
2
*D30
70
0
280
1
281
0
0
BLOCK_RECORD
5
10A
330
1
100
AcDbSymbolTableRecord
100
AcDbBlockTableRecord
2
*D47
70
0
280
1
281
0
0
BLOCK_RECORD
5
10D
330
1
100
AcDbSymbolTableRecord
100
AcDbBlockTableRecord
2
*D23
70
0
280
1
281
0
0
BLOCK_RECORD
5
110
330
1
100
AcDbSymbolTableRecord
100
AcDbBlockTableRecord
2
*D15
70
0
280
1
281
0
0
BLOCK_RECORD
5
113
330
1
100
AcDbSymbolTableRecord
100
AcDbBlockTableRecord
2
*D42
70
0
280
1
281
0
0
BLOCK_RECORD
5
116
330
1
100
AcDbSymbolTableRecord
100
AcDbBlockTableRecord
2
*D14
70
0
280
1
281
0
0
BLOCK_RECORD
5
119
330
1
100
AcDbSymbolTableRecord
100
AcDbBlockTableRecord
2
*D56
70
0
280
1
281
0
0
BLOCK_RECORD
5
11C
330
1
100
AcDbSymbolTableRecord
100
AcDbBlockTableRecord
2
a3-0
70
0
280
1
281
0
0
BLOCK_RECORD
5
11F
330
1
100
AcDbSymbolTableRecord
100
AcDbBlockTableRecord
2
A3_Xu-0
70
0
280
1
281
0
0
ENDTAB
0
ENDSEC
0
SECTION
2
BLOCKS
0
BLOCK
5
20
330
1F
100
AcDbEntity
8
0
100
AcDbBlockBegin
2
*Model_Space
70
0
10
0
20
0
30
0
3
*Model_Space
1

0
ENDBLK
5
21
330
1F
100
AcDbEntity
8
0
100
AcDbBlockEnd
0
BLOCK
5
1C
330
1B
100
AcDbEntity
8
0
100
AcDbBlockBegin
2
*Paper_Space
70
0
10
0
20
0
30
0
3
*Paper_Space
1

0
ENDBLK
5
1D
330
1F
100
AcDbEntity
8
0
100
AcDbBlockEnd
0
BLOCK
5
4E
330
4D
100
AcDbEntity
8
0
100
AcDbBlockBegin
2
*D50
70
1
10
0
20
0
3
*D50
1

0
LINE
5
122
100
AcDbEntity
8
section_A_A_d
6
CONTINUOUS
62
7
370
0
100
AcDbLine
10
5790
20
5300
11
6195
21
5300
0
SOLID
5
123
100
AcDbEntity
8
section_A_A_d
6
CONTINUOUS
62
7
370
0
100
AcDbTrace
10
5790
20
5300
30
0
11
5840
21
5308.32569316
31
0
12
5840
22
5291.67430684
32
0
13
5840
23
5291.67430684
33
0
0
SOLID
5
124
100
AcDbEntity
8
section_A_A_d
6
CONTINUOUS
62
7
370
0
100
AcDbTrace
10
6195
20
5300
30
0
11
6145
21
5291.67430684
31
0
12
6145
22
5308.32569316
32
0
13
6145
23
5308.32569316
33
0
0
MTEXT
5
125
100
AcDbEntity
8
section_A_A_d
6
CONTINUOUS
62
7
370
0
100
AcDbMText
10
5992.5
20
5352
30
0
40
64
41
135.111111111
71
5
72
1
1
405
7
standard
210
0
220
0
230
1
50
0
73
2
44
1
0
LINE
5
126
100
AcDbEntity
8
section_A_A_d
6
CONTINUOUS
62
7
370
0
100
AcDbLine
10
5790
20
5288.01813244
11
5790
21
5301.25
0
LINE
5
127
100
AcDbEntity
8
section_A_A_d
6
CONTINUOUS
62
7
370
0
100
AcDbLine
10
6195
20
5288.01813244
11
6195
21
5301.25
0
ENDBLK
5
4F
330
4D
100
AcDbEntity
8
0
100
AcDbBlockEnd
0
BLOCK
5
51
330
50
100
AcDbEntity
8
0
100
AcDbBlockBegin
2
*D17
70
1
10
0
20
0
3
*D17
1

0
LINE
5
128
100
AcDbEntity
8
section_A_A_d
6
CONTINUOUS
62
7
370
0
100
AcDbLine
10
7800
20
4154
11
7800
21
3114
0
SOLID
5
129
100
AcDbEntity
8
section_A_A_d
6
CONTINUOUS
62
7
370
0
100
AcDbTrace
10
7800
20
4154
30
0
11
7808.32569316
21
4104
31
0
12
7791.67430684
22
4104
32
0
13
7791.67430684
23
4104
33
0
0
SOLID
5
12A
100
AcDbEntity
8
section_A_A_d
6
CONTINUOUS
62
7
370
0
100
AcDbTrace
10
7800
20
3114
30
0
11
7791.67430684
21
3164
31
0
12
7808.32569316
22
3164
32
0
13
7808.32569316
23
3164
33
0
0
MTEXT
5
12B
100
AcDbEntity
8
section_A_A_d
6
CONTINUOUS
62
7
370
0
100
AcDbMText
10
7748
20
3634
30
0
40
64
41
170.666666667
71
5
72
1
1
1040
7
standard
210
0
220
0
230
1
50
90
73
2
44
1
0
LINE
5
12C
100
AcDbEntity
8
section_A_A_d
6
CONTINUOUS
62
7
370
0
100
AcDbLine
10
7808.39934046
20
4154
11
7801.25
21
4154
0
LINE
5
12D
100
AcDbEntity
8
section_A_A_d
6
CONTINUOUS
62
7
370
0
100
AcDbLine
10
7813.28190769
20
3114
11
7801.25
21
3114
0
ENDBLK
5
52
330
50
100
AcDbEntity
8
0
100
AcDbBlockEnd
0
BLOCK
5
54
330
53
100
AcDbEntity
8
0
100
AcDbBlockBegin
2
*D54
70
1
10
0
20
0
3
*D54
1

0
LINE
5
12E
100
AcDbEntity
8
section_A_A_d
6
CONTINUOUS
62
7
370
0
100
AcDbLine
10
1910
20
2000
11
2110
21
2000
0
SOLID
5
12F
100
AcDbEntity
8
section_A_A_d
6
CONTINUOUS
62
7
370
0
100
AcDbTrace
10
1910
20
2000
30
0
11
1960
21
2008.32569316
31
0
12
1960
22
1991.67430684
32
0
13
1960
23
1991.67430684
33
0
0
SOLID
5
130
100
AcDbEntity
8
section_A_A_d
6
CONTINUOUS
62
7
370
0
100
AcDbTrace
10
2110
20
2000
30
0
11
2060
21
1991.67430684
31
0
12
2060
22
2008.32569316
32
0
13
2060
23
2008.32569316
33
0
0
MTEXT
5
131
100
AcDbEntity
8
section_A_A_d
6
CONTINUOUS
62
7
370
0
100
AcDbMText
10
2010
20
2052
30
0
40
64
41
128
71
5
72
1
1
200
7
standard
210
0
220
0
230
1
50
0
73
2
44
1
0
LINE
5
132
100
AcDbEntity
8
section_A_A_d
6
CONTINUOUS
62
7
370
0
100
AcDbLine
10
1910
20
1985.05402461
11
1910
21
1998.75
0
LINE
5
133
100
AcDbEntity
8
section_A_A_d
6
CONTINUOUS
62
7
370
0
100
AcDbLine
10
2110
20
1985.05402461
11
2110
21
1998.75
0
ENDBLK
5
55
330
53
100
AcDbEntity
8
0
100
AcDbBlockEnd
0
BLOCK
5
57
330
56
100
AcDbEntity
8
0
100
AcDbBlockBegin
2
*D63
70
1
10
0
20
0
3
*D63
1

0
LINE
5
134
100
AcDbEntity
8
section_A_A_d
6
CONTINUOUS
62
7
370
0
100
AcDbLine
10
8000
20
4319
11
8000
21
2399
0
SOLID
5
135
100
AcDbEntity
8
section_A_A_d
6
CONTINUOUS
62
7
370
0
100
AcDbTrace
10
8000
20
4319
30
0
11
8008.32569316
21
4269
31
0
12
7991.67430684
22
4269
32
0
13
7991.67430684
23
4269
33
0
0
SOLID
5
136
100
AcDbEntity
8
section_A_A_d
6
CONTINUOUS
62
7
370
0
100
AcDbTrace
10
8000
20
2399
30
0
11
7991.67430684
21
2449
31
0
12
8008.32569316
22
2449
32
0
13
8008.32569316
23
2449
33
0
0
MTEXT
5
137
100
AcDbEntity
8
section_A_A_d
6
CONTINUOUS
62
7
370
0
100
AcDbMText
10
7948
20
3359
30
0
40
64
41
163.555555556
71
5
72
1
1
1920
7
standard
210
0
220
0
230
1
50
90
73
2
44
1
0
LINE
5
138
100
AcDbEntity
8
section_A_A_d
6
CONTINUOUS
62
7
370
0
100
AcDbLine
10
8013.46716443
20
4319
11
8001.25
21
4319
0
LINE
5
139
100
AcDbEntity
8
section_A_A_d
6
CONTINUOUS
62
7
370
0
100
AcDbLine
10
8023.23229891
20
2399
11
8001.25
21
2399
0
ENDBLK
5
58
330
56
100
AcDbEntity
8
0
100
AcDbBlockEnd
0
BLOCK
5
5A
330
59
100
AcDbEntity
8
0
100
AcDbBlockBegin
2
*D10
70
1
10
0
20
0
3
*D10
1

0
LINE
5
13A
100
AcDbEntity
8
section_A_A_d
6
CONTINUOUS
62
7
370
0
100
AcDbLine
10
780
20
5300
11
1100
21
5300
0
SOLID
5
13B
100
AcDbEntity
8
section_A_A_d
6
CONTINUOUS
62
7
370
0
100
AcDbTrace
10
780
20
5300
30
0
11
830
21
5308.32569316
31
0
12
830
22
5291.67430684
32
0
13
830
23
5291.67430684
33
0
0
SOLID
5
13C
100
AcDbEntity
8
section_A_A_d
6
CONTINUOUS
62
7
370
0
100
AcDbTrace
10
1100
20
5300
30
0
11
1050
21
5291.67430684
31
0
12
1050
22
5308.32569316
32
0
13
1050
23
5308.32569316
33
0
0
MTEXT
5
13D
100
AcDbEntity
8
section_A_A_d
6
CONTINUOUS
62
7
370
0
100
AcDbMText
10
940
20
5352
30
0
40
64
41
128
71
5
72
1
1
320
7
standard
210
0
220
0
230
1
50
0
73
2
44
1
0
LINE
5
13E
100
AcDbEntity
8
section_A_A_d
6
CONTINUOUS
62
7
370
0
100
AcDbLine
10
780
20
5305.80574609
11
780
21
5301.25
0
LINE
5
13F
100
AcDbEntity
8
section_A_A_d
6
CONTINUOUS
62
7
370
0
100
AcDbLine
10
1100
20
5300.92317885
11
1100
21
5301.25
0
ENDBLK
5
5B
330
59
100
AcDbEntity
8
0
100
AcDbBlockEnd
0
BLOCK
5
5D
330
5C
100
AcDbEntity
8
0
100
AcDbBlockBegin
2
*D37
70
1
10
0
20
0
3
*D37
1

0
LINE
5
140
100
AcDbEntity
8
section_A_A_d
6
CONTINUOUS
62
7
370
0
100
AcDbLine
10
3000
20
4400
11
4000
21
4000
0
SOLID
5
141
100
AcDbEntity
8
section_A_A_d
6
CONTINUOUS
62
7
370
0
100
AcDbTrace
10
3000
20
4400
30
0
11
3049.51591936
21
4389.16067821
31
0
12
3043.33174973
22
4373.70025415
32
0
13
3043.33174973
23
4373.70025415
33
0
0
ENDBLK
5
5E
330
5C
100
AcDbEntity
8
0
100
AcDbBlockEnd
0
BLOCK
5
60
330
5F
100
AcDbEntity
8
0
100
AcDbBlockBegin
2
*D68
70
1
10
0
20
0
3
*D68
1

0
LINE
5
142
100
AcDbEntity
8
section_A_extra_d
6
CONTINUOUS
62
7
370
0
100
AcDbLine
10
3680
20
2100
11
4755
21
2100
0
SOLID
5
143
100
AcDbEntity
8
section_A_extra_d
6
CONTINUOUS
62
7
370
0
100
AcDbTrace
10
3680
20
2100
30
0
11
3730
21
2108.32569316
31
0
12
3730
22
2091.67430684
32
0
13
3730
23
2091.67430684
33
0
0
SOLID
5
144
100
AcDbEntity
8
section_A_extra_d
6
CONTINUOUS
62
7
370
0
100
AcDbTrace
10
4755
20
2100
30
0
11
4705
21
2091.67430684
31
0
12
4705
22
2108.32569316
32
0
13
4705
23
2108.32569316
33
0
0
MTEXT
5
145
100
AcDbEntity
8
section_A_extra_d
6
CONTINUOUS
62
7
370
0
100
AcDbMText
10
4217.5
20
2152
30
0
40
64
41
163.555555556
71
5
72
1
1
1075
7
standard
210
0
220
0
230
1
50
0
73
2
44
1
0
LINE
5
146
100
AcDbEntity
8
section_A_extra_d
6
CONTINUOUS
62
7
370
0
100
AcDbLine
10
3680
20
4269
11
3680
21
2098.75
0
LINE
5
147
100
AcDbEntity
8
section_A_extra_d
6
CONTINUOUS
62
7
370
0
100
AcDbLine
10
4755
20
4269
11
4755
21
2098.75
0
ENDBLK
5
61
330
5F
100
AcDbEntity
8
0
100
AcDbBlockEnd
0
BLOCK
5
63
330
62
100
AcDbEntity
8
0
100
AcDbBlockBegin
2
*D53
70
1
10
0
20
0
3
*D53
1

0
LINE
5
148
100
AcDbEntity
8
section_A_A_d
6
CONTINUOUS
62
7
370
0
100
AcDbLine
10
1100
20
2000
11
1910
21
2000
0
SOLID
5
149
100
AcDbEntity
8
section_A_A_d
6
CONTINUOUS
62
7
370
0
100
AcDbTrace
10
1100
20
2000
30
0
11
1150
21
2008.32569316
31
0
12
1150
22
1991.67430684
32
0
13
1150
23
1991.67430684
33
0
0
SOLID
5
14A
100
AcDbEntity
8
section_A_A_d
6
CONTINUOUS
62
7
370
0
100
AcDbTrace
10
1910
20
2000
30
0
11
1860
21
1991.67430684
31
0
12
1860
22
2008.32569316
32
0
13
1860
23
2008.32569316
33
0
0
MTEXT
5
14B
100
AcDbEntity
8
section_A_A_d
6
CONTINUOUS
62
7
370
0
100
AcDbMText
10
1505
20
2052
30
0
40
64
41
113.777777778
71
5
72
1
1
810
7
standard
210
0
220
0
230
1
50
0
73
2
44
1
0
LINE
5
14C
100
AcDbEntity
8
section_A_A_d
6
CONTINUOUS
62
7
370
0
100
AcDbLine
10
1100
20
1992.86613219
11
1100
21
1998.75
0
LINE
5
14D
100
AcDbEntity
8
section_A_A_d
6
CONTINUOUS
62
7
370
0
100
AcDbLine
10
1910
20
1992.86613219
11
1910
21
1998.75
0
ENDBLK
5
64
330
62
100
AcDbEntity
8
0
100
AcDbBlockEnd
0
BLOCK
5
66
330
65
100
AcDbEntity
8
0
100
AcDbBlockBegin
2
*D19
70
1
10
0
20
0
3
*D19
1

0
LINE
5
14E
100
AcDbEntity
8
section_A_A_d
6
CONTINUOUS
62
7
370
0
100
AcDbLine
10
8200
20
4729
11
8200
21
2399
0
SOLID
5
14F
100
AcDbEntity
8
section_A_A_d
6
CONTINUOUS
62
7
370
0
100
AcDbTrace
10
8200
20
4729
30
0
11
8208.32569316
21
4679
31
0
12
8191.67430684
22
4679
32
0
13
8191.67430684
23
4679
33
0
0
SOLID
5
150
100
AcDbEntity
8
section_A_A_d
6
CONTINUOUS
62
7
370
0
100
AcDbTrace
10
8200
20
2399
30
0
11
8191.67430684
21
2449
31
0
12
8208.32569316
22
2449
32
0
13
8208.32569316
23
2449
33
0
0
MTEXT
5
151
100
AcDbEntity
8
section_A_A_d
6
CONTINUOUS
62
7
370
0
100
AcDbMText
10
8148
20
3564
30
0
40
64
41
177.777777778
71
5
72
1
1
2330
7
standard
210
0
220
0
230
1
50
90
73
2
44
1
0
LINE
5
152
100
AcDbEntity
8
section_A_A_d
6
CONTINUOUS
62
7
370
0
100
AcDbLine
10
8174.59188327
20
4729
11
8201.25
21
4729
0
LINE
5
153
100
AcDbEntity
8
section_A_A_d
6
CONTINUOUS
62
7
370
0
100
AcDbLine
10
8169.70931603
20
2399
11
8201.25
21
2399
0
ENDBLK
5
67
330
65
100
AcDbEntity
8
0
100
AcDbBlockEnd
0
BLOCK
5
69
330
68
100
AcDbEntity
8
0
100
AcDbBlockBegin
2
*D57
70
1
10
0
20
0
3
*D57
1

0
LINE
5
154
100
AcDbEntity
8
section_A_A_d
6
CONTINUOUS
62
7
370
0
100
AcDbLine
10
2775
20
2000
11
3020
21
2000
0
SOLID
5
155
100
AcDbEntity
8
section_A_A_d
6
CONTINUOUS
62
7
370
0
100
AcDbTrace
10
2775
20
2000
30
0
11
2825
21
2008.32569316
31
0
12
2825
22
1991.67430684
32
0
13
2825
23
1991.67430684
33
0
0
SOLID
5
156
100
AcDbEntity
8
section_A_A_d
6
CONTINUOUS
62
7
370
0
100
AcDbTrace
10
3020
20
2000
30
0
11
2970
21
1991.67430684
31
0
12
2970
22
2008.32569316
32
0
13
2970
23
2008.32569316
33
0
0
MTEXT
5
157
100
AcDbEntity
8
section_A_A_d
6
CONTINUOUS
62
7
370
0
100
AcDbMText
10
2897.5
20
2052
30
0
40
64
41
135.111111111
71
5
72
1
1
245
7
standard
210
0
220
0
230
1
50
0
73
2
44
1
0
LINE
5
158
100
AcDbEntity
8
section_A_A_d
6
CONTINUOUS
62
7
370
0
100
AcDbLine
10
2775
20
2016.30245493
11
2775
21
1998.75
0
LINE
5
159
100
AcDbEntity
8
section_A_A_d
6
CONTINUOUS
62
7
370
0
100
AcDbLine
10
3020
20
2020.20850872
11
3020
21
1998.75
0
ENDBLK
5
6A
330
68
100
AcDbEntity
8
0
100
AcDbBlockEnd
0
BLOCK
5
6C
330
6B
100
AcDbEntity
8
0
100
AcDbBlockBegin
2
*D45
70
1
10
0
20
0
3
*D45
1

0
LINE
5
15A
100
AcDbEntity
8
section_A_A_d
6
CONTINUOUS
62
7
370
0
100
AcDbLine
10
3915
20
5300
11
4200
21
5300
0
SOLID
5
15B
100
AcDbEntity
8
section_A_A_d
6
CONTINUOUS
62
7
370
0
100
AcDbTrace
10
3915
20
5300
30
0
11
3965
21
5308.32569316
31
0
12
3965
22
5291.67430684
32
0
13
3965
23
5291.67430684
33
0
0
SOLID
5
15C
100
AcDbEntity
8
section_A_A_d
6
CONTINUOUS
62
7
370
0
100
AcDbTrace
10
4200
20
5300
30
0
11
4150
21
5291.67430684
31
0
12
4150
22
5308.32569316
32
0
13
4150
23
5308.32569316
33
0
0
MTEXT
5
15D
100
AcDbEntity
8
section_A_A_d
6
CONTINUOUS
62
7
370
0
100
AcDbMText
10
4057.5
20
5352
30
0
40
64
41
128
71
5
72
1
1
285
7
standard
210
0
220
0
230
1
50
0
73
2
44
1
0
LINE
5
15E
100
AcDbEntity
8
section_A_A_d
6
CONTINUOUS
62
7
370
0
100
AcDbLine
10
3915
20
5315.36050897
11
3915
21
5301.25
0
LINE
5
15F
100
AcDbEntity
8
section_A_A_d
6
CONTINUOUS
62
7
370
0
100
AcDbLine
10
4200
20
5315.36050897
11
4200
21
5301.25
0
ENDBLK
5
6D
330
6B
100
AcDbEntity
8
0
100
AcDbBlockEnd
0
BLOCK
5
6F
330
6E
100
AcDbEntity
8
0
100
AcDbBlockBegin
2
*D46
70
1
10
0
20
0
3
*D46
1

0
LINE
5
160
100
AcDbEntity
8
section_A_A_d
6
CONTINUOUS
62
7
370
0
100
AcDbLine
10
4200
20
5300
11
4485
21
5300
0
SOLID
5
161
100
AcDbEntity
8
section_A_A_d
6
CONTINUOUS
62
7
370
0
100
AcDbTrace
10
4200
20
5300
30
0
11
4250
21
5308.32569316
31
0
12
4250
22
5291.67430684
32
0
13
4250
23
5291.67430684
33
0
0
SOLID
5
162
100
AcDbEntity
8
section_A_A_d
6
CONTINUOUS
62
7
370
0
100
AcDbTrace
10
4485
20
5300
30
0
11
4435
21
5291.67430684
31
0
12
4435
22
5308.32569316
32
0
13
4435
23
5308.32569316
33
0
0
MTEXT
5
163
100
AcDbEntity
8
section_A_A_d
6
CONTINUOUS
62
7
370
0
100
AcDbMText
10
4342.5
20
5352
30
0
40
64
41
128
71
5
72
1
1
285
7
standard
210
0
220
0
230
1
50
0
73
2
44
1
0
LINE
5
164
100
AcDbEntity
8
section_A_A_d
6
CONTINUOUS
62
7
370
0
100
AcDbLine
10
4200
20
5311.45445518
11
4200
21
5301.25
0
LINE
5
165
100
AcDbEntity
8
section_A_A_d
6
CONTINUOUS
62
7
370
0
100
AcDbLine
10
4485
20
5307.54840139
11
4485
21
5301.25
0
ENDBLK
5
70
330
6E
100
AcDbEntity
8
0
100
AcDbBlockEnd
0
BLOCK
5
72
330
71
100
AcDbEntity
8
0
100
AcDbBlockBegin
2
*D65
70
1
10
0
20
0
3
*D65
1

0
LINE
5
166
100
AcDbEntity
8
section_A_A_d
6
CONTINUOUS
62
7
370
0
100
AcDbLine
10
4100
20
4729
11
4100
21
4389
0
SOLID
5
167
100
AcDbEntity
8
section_A_A_d
6
CONTINUOUS
62
7
370
0
100
AcDbTrace
10
4100
20
4729
30
0
11
4108.32569316
21
4679
31
0
12
4091.67430684
22
4679
32
0
13
4091.67430684
23
4679
33
0
0
SOLID
5
168
100
AcDbEntity
8
section_A_A_d
6
CONTINUOUS
62
7
370
0
100
AcDbTrace
10
4100
20
4389
30
0
11
4091.67430684
21
4439
31
0
12
4108.32569316
22
4439
32
0
13
4108.32569316
23
4439
33
0
0
MTEXT
5
169
100
AcDbEntity
8
section_A_A_d
6
CONTINUOUS
62
7
370
0
100
AcDbMText
10
4048
20
4559
30
0
40
64
41
135.111111111
71
5
72
1
1
340
7
standard
210
0
220
0
230
1
50
90
73
2
44
1
0
LINE
5
16A
100
AcDbEntity
8
section_A_A_d
6
CONTINUOUS
62
7
370
0
100
AcDbLine
10
4099.79656951
20
4729
11
4101.25
21
4729
0
LINE
5
16B
100
AcDbEntity
8
section_A_A_d
6
CONTINUOUS
62
7
370
0
100
AcDbLine
10
4107.29619278
20
4389
11
4101.25
21
4389
0
ENDBLK
5
73
330
71
100
AcDbEntity
8
0
100
AcDbBlockEnd
0
BLOCK
5
75
330
74
100
AcDbEntity
8
0
100
AcDbBlockBegin
2
*D60
70
1
10
0
20
0
3
*D60
1

0
LINE
5
16C
100
AcDbEntity
8
section_A_A_d
6
CONTINUOUS
62
7
370
0
100
AcDbLine
10
5992.5
20
2000
11
6325
21
2000
0
SOLID
5
16D
100
AcDbEntity
8
section_A_A_d
6
CONTINUOUS
62
7
370
0
100
AcDbTrace
10
5992.5
20
2000
30
0
11
6042.5
21
2008.32569316
31
0
12
6042.5
22
1991.67430684
32
0
13
6042.5
23
1991.67430684
33
0
0
SOLID
5
16E
100
AcDbEntity
8
section_A_A_d
6
CONTINUOUS
62
7
370
0
100
AcDbTrace
10
6325
20
2000
30
0
11
6275
21
1991.67430684
31
0
12
6275
22
2008.32569316
32
0
13
6275
23
2008.32569316
33
0
0
MTEXT
5
16F
100
AcDbEntity
8
section_A_A_d
6
CONTINUOUS
62
7
370
0
100
AcDbMText
10
6158.75
20
2052
30
0
40
64
41
199.111111111
71
5
72
1
1
332.5
7
standard
210
0
220
0
230
1
50
0
73
2
44
1
0
LINE
5
170
100
AcDbEntity
8
section_A_A_d
6
CONTINUOUS
62
7
370
0
100
AcDbLine
10
5992.5
20
2012.39640114
11
5992.5
21
1998.75
0
LINE
5
171
100
AcDbEntity
8
section_A_A_d
6
CONTINUOUS
62
7
370
0
100
AcDbLine
10
6325
20
2016.30245493
11
6325
21
1998.75
0
ENDBLK
5
76
330
74
100
AcDbEntity
8
0
100
AcDbBlockEnd
0
BLOCK
5
78
330
77
100
AcDbEntity
8
0
100
AcDbBlockBegin
2
*D31
70
1
10
0
20
0
3
*D31
1

0
LINE
5
172
100
AcDbEntity
8
section_A_A_d
6
CONTINUOUS
62
7
370
0
100
AcDbLine
10
6100
20
4729
11
6100
21
4224
0
SOLID
5
173
100
AcDbEntity
8
section_A_A_d
6
CONTINUOUS
62
7
370
0
100
AcDbTrace
10
6100
20
4729
30
0
11
6108.32569316
21
4679
31
0
12
6091.67430684
22
4679
32
0
13
6091.67430684
23
4679
33
0
0
SOLID
5
174
100
AcDbEntity
8
section_A_A_d
6
CONTINUOUS
62
7
370
0
100
AcDbTrace
10
6100
20
4224
30
0
11
6091.67430684
21
4274
31
0
12
6108.32569316
22
4274
32
0
13
6108.32569316
23
4274
33
0
0
MTEXT
5
175
100
AcDbEntity
8
section_A_A_d
6
CONTINUOUS
62
7
370
0
100
AcDbMText
10
6048
20
4476.5
30
0
40
64
41
128
71
5
72
1
1
505
7
standard
210
0
220
0
230
1
50
90
73
2
44
1
0
LINE
5
176
100
AcDbEntity
8
section_A_A_d
6
CONTINUOUS
62
7
370
0
100
AcDbLine
10
6099.50080732
20
4729
11
6101.25
21
4729
0
LINE
5
177
100
AcDbEntity
8
section_A_A_d
6
CONTINUOUS
62
7
370
0
100
AcDbLine
10
6099.50080732
20
4224
11
6101.25
21
4224
0
ENDBLK
5
79
330
77
100
AcDbEntity
8
0
100
AcDbBlockEnd
0
BLOCK
5
7B
330
7A
100
AcDbEntity
8
0
100
AcDbBlockBegin
2
*D58
70
1
10
0
20
0
3
*D58
1

0
LINE
5
178
100
AcDbEntity
8
section_A_A_d
6
CONTINUOUS
62
7
370
0
100
AcDbLine
10
5415
20
2000
11
5660
21
2000
0
SOLID
5
179
100
AcDbEntity
8
section_A_A_d
6
CONTINUOUS
62
7
370
0
100
AcDbTrace
10
5415
20
2000
30
0
11
5465
21
2008.32569316
31
0
12
5465
22
1991.67430684
32
0
13
5465
23
1991.67430684
33
0
0
SOLID
5
17A
100
AcDbEntity
8
section_A_A_d
6
CONTINUOUS
62
7
370
0
100
AcDbTrace
10
5660
20
2000
30
0
11
5610
21
1991.67430684
31
0
12
5610
22
2008.32569316
32
0
13
5610
23
2008.32569316
33
0
0
MTEXT
5
17B
100
AcDbEntity
8
section_A_A_d
6
CONTINUOUS
62
7
370
0
100
AcDbMText
10
5537.5
20
2052
30
0
40
64
41
135.111111111
71
5
72
1
1
245
7
standard
210
0
220
0
230
1
50
0
73
2
44
1
0
LINE
5
17C
100
AcDbEntity
8
section_A_A_d
6
CONTINUOUS
62
7
370
0
100
AcDbLine
10
5415
20
2020.20850872
11
5415
21
1998.75
0
LINE
5
17D
100
AcDbEntity
8
section_A_A_d
6
CONTINUOUS
62
7
370
0
100
AcDbLine
10
5660
20
2016.30245493
11
5660
21
1998.75
0
ENDBLK
5
7C
330
7A
100
AcDbEntity
8
0
100
AcDbBlockEnd
0
BLOCK
5
7E
330
7D
100
AcDbEntity
8
0
100
AcDbBlockBegin
2
*D59
70
1
10
0
20
0
3
*D59
1

0
LINE
5
17E
100
AcDbEntity
8
section_A_A_d
6
CONTINUOUS
62
7
370
0
100
AcDbLine
10
5660
20
2000
11
5992.5
21
2000
0
SOLID
5
17F
100
AcDbEntity
8
section_A_A_d
6
CONTINUOUS
62
7
370
0
100
AcDbTrace
10
5660
20
2000
30
0
11
5710
21
2008.32569316
31
0
12
5710
22
1991.67430684
32
0
13
5710
23
1991.67430684
33
0
0
SOLID
5
180
100
AcDbEntity
8
section_A_A_d
6
CONTINUOUS
62
7
370
0
100
AcDbTrace
10
5992.5
20
2000
30
0
11
5942.5
21
1991.67430684
31
0
12
5942.5
22
2008.32569316
32
0
13
5942.5
23
2008.32569316
33
0
0
MTEXT
5
181
100
AcDbEntity
8
section_A_A_d
6
CONTINUOUS
62
7
370
0
100
AcDbMText
10
5826.25
20
2052
30
0
40
64
41
199.111111111
71
5
72
1
1
332.5
7
standard
210
0
220
0
230
1
50
0
73
2
44
1
0
LINE
5
182
100
AcDbEntity
8
section_A_A_d
6
CONTINUOUS
62
7
370
0
100
AcDbLine
10
5660
20
2004.58429356
11
5660
21
1998.75
0
LINE
5
183
100
AcDbEntity
8
section_A_A_d
6
CONTINUOUS
62
7
370
0
100
AcDbLine
10
5992.5
20
2012.39640114
11
5992.5
21
1998.75
0
ENDBLK
5
7F
330
7D
100
AcDbEntity
8
0
100
AcDbBlockEnd
0
BLOCK
5
81
330
80
100
AcDbEntity
8
0
100
AcDbBlockBegin
2
*D1
70
1
10
0
20
0
3
*D1
1

0
LINE
5
184
100
AcDbEntity
8
section_A_A_d
6
CONTINUOUS
62
7
370
0
100
AcDbLine
10
5415
20
1800
11
7335
21
1800
0
SOLID
5
185
100
AcDbEntity
8
section_A_A_d
6
CONTINUOUS
62
7
370
0
100
AcDbTrace
10
5415
20
1800
30
0
11
5465
21
1808.32569316
31
0
12
5465
22
1791.67430684
32
0
13
5465
23
1791.67430684
33
0
0
SOLID
5
186
100
AcDbEntity
8
section_A_A_d
6
CONTINUOUS
62
7
370
0
100
AcDbTrace
10
7335
20
1800
30
0
11
7285
21
1791.67430684
31
0
12
7285
22
1808.32569316
32
0
13
7285
23
1808.32569316
33
0
0
MTEXT
5
187
100
AcDbEntity
8
section_A_A_d
6
CONTINUOUS
62
7
370
0
100
AcDbMText
10
6375
20
1852
30
0
40
64
41
163.555555556
71
5
72
1
1
1920
7
standard
210
0
220
0
230
1
50
0
73
2
44
1
0
LINE
5
188
100
AcDbEntity
8
section_A_A_d
6
CONTINUOUS
62
7
370
0
100
AcDbLine
10
5415
20
1817.09371163
11
5415
21
1798.75
0
LINE
5
189
100
AcDbEntity
8
section_A_A_d
6
CONTINUOUS
62
7
370
0
100
AcDbLine
10
7335
20
1813.18765784
11
7335
21
1798.75
0
ENDBLK
5
82
330
80
100
AcDbEntity
8
0
100
AcDbBlockEnd
0
BLOCK
5
84
330
83
100
AcDbEntity
8
0
100
AcDbBlockBegin
2
*D13
70
1
10
0
20
0
3
*D13
1

0
LINE
5
18A
100
AcDbEntity
8
section_A_A_d
6
CONTINUOUS
62
7
370
0
100
AcDbLine
10
780
20
5500
11
2975
21
5500
0
SOLID
5
18B
100
AcDbEntity
8
section_A_A_d
6
CONTINUOUS
62
7
370
0
100
AcDbTrace
10
780
20
5500
30
0
11
830
21
5508.32569316
31
0
12
830
22
5491.67430684
32
0
13
830
23
5491.67430684
33
0
0
SOLID
5
18C
100
AcDbEntity
8
section_A_A_d
6
CONTINUOUS
62
7
370
0
100
AcDbTrace
10
2975
20
5500
30
0
11
2925
21
5491.67430684
31
0
12
2925
22
5508.32569316
32
0
13
2925
23
5508.32569316
33
0
0
MTEXT
5
18D
100
AcDbEntity
8
section_A_A_d
6
CONTINUOUS
62
7
370
0
100
AcDbMText
10
1877.5
20
5552
30
0
40
64
41
163.555555556
71
5
72
1
1
2195
7
standard
210
0
220
0
230
1
50
0
73
2
44
1
0
LINE
5
18E
100
AcDbEntity
8
section_A_A_d
6
CONTINUOUS
62
7
370
0
100
AcDbLine
10
780
20
5498.17889526
11
780
21
5501.25
0
LINE
5
18F
100
AcDbEntity
8
section_A_A_d
6
CONTINUOUS
62
7
370
0
100
AcDbLine
10
2975
20
5464
11
2975
21
5501.25
0
ENDBLK
5
85
330
83
100
AcDbEntity
8
0
100
AcDbBlockEnd
0
BLOCK
5
87
330
86
100
AcDbEntity
8
0
100
AcDbBlockBegin
2
*D51
70
1
10
0
20
0
3
*D51
1

0
LINE
5
190
100
AcDbEntity
8
section_A_A_d
6
CONTINUOUS
62
7
370
0
100
AcDbLine
10
6195
20
5300
11
6525
21
5300
0
SOLID
5
191
100
AcDbEntity
8
section_A_A_d
6
CONTINUOUS
62
7
370
0
100
AcDbTrace
10
6195
20
5300
30
0
11
6245
21
5308.32569316
31
0
12
6245
22
5291.67430684
32
0
13
6245
23
5291.67430684
33
0
0
SOLID
5
192
100
AcDbEntity
8
section_A_A_d
6
CONTINUOUS
62
7
370
0
100
AcDbTrace
10
6525
20
5300
30
0
11
6475
21
5291.67430684
31
0
12
6475
22
5308.32569316
32
0
13
6475
23
5308.32569316
33
0
0
MTEXT
5
193
100
AcDbEntity
8
section_A_A_d
6
CONTINUOUS
62
7
370
0
100
AcDbMText
10
6360
20
5352
30
0
40
64
41
128
71
5
72
1
1
330
7
standard
210
0
220
0
230
1
50
0
73
2
44
1
0
LINE
5
194
100
AcDbEntity
8
section_A_A_d
6
CONTINUOUS
62
7
370
0
100
AcDbLine
10
6195
20
5299.73629381
11
6195
21
5301.25
0
LINE
5
195
100
AcDbEntity
8
section_A_A_d
6
CONTINUOUS
62
7
370
0
100
AcDbLine
10
6525
20
5295.83024002
11
6525
21
5301.25
0
ENDBLK
5
88
330
86
100
AcDbEntity
8
0
100
AcDbBlockEnd
0
BLOCK
5
8A
330
89
100
AcDbEntity
8
0
100
AcDbBlockBegin
2
*D38
70
1
10
0
20
0
3
*D38
1

0
LINE
5
196
100
AcDbEntity
8
section_A_A_d
6
CONTINUOUS
62
7
370
0
100
AcDbLine
10
5400
20
4400
11
4500
21
4000
0
SOLID
5
197
100
AcDbEntity
8
section_A_A_d
6
CONTINUOUS
62
7
370
0
100
AcDbTrace
10
5400
20
4400
30
0
11
5357.69080682
21
4372.08496214
31
0
12
5350.92803832
22
4387.30119125
32
0
13
5350.92803832
23
4387.30119125
33
0
0
ENDBLK
5
8B
330
89
100
AcDbEntity
8
0
100
AcDbBlockEnd
0
BLOCK
5
8D
330
8C
100
AcDbEntity
8
0
100
AcDbBlockBegin
2
*D3
70
1
10
0
20
0
3
*D3
1

0
LINE
5
198
100
AcDbEntity
8
section_A_A_d
6
CONTINUOUS
62
7
370
0
100
AcDbLine
10
1100
20
1600
11
7335
21
1600
0
SOLID
5
199
100
AcDbEntity
8
section_A_A_d
6
CONTINUOUS
62
7
370
0
100
AcDbTrace
10
1100
20
1600
30
0
11
1150
21
1608.32569316
31
0
12
1150
22
1591.67430684
32
0
13
1150
23
1591.67430684
33
0
0
SOLID
5
19A
100
AcDbEntity
8
section_A_A_d
6
CONTINUOUS
62
7
370
0
100
AcDbTrace
10
7335
20
1600
30
0
11
7285
21
1591.67430684
31
0
12
7285
22
1608.32569316
32
0
13
7285
23
1608.32569316
33
0
0
MTEXT
5
19B
100
AcDbEntity
8
section_A_A_d
6
CONTINUOUS
62
7
370
0
100
AcDbMText
10
4217.5
20
1652
30
0
40
64
41
177.777777778
71
5
72
1
1
6235
7
standard
210
0
220
0
230
1
50
0
73
2
44
1
0
LINE
5
19C
100
AcDbEntity
8
section_A_A_d
6
CONTINUOUS
62
7
370
0
100
AcDbLine
10
1100
20
1605.19029352
11
1100
21
1598.75
0
LINE
5
19D
100
AcDbEntity
8
section_A_A_d
6
CONTINUOUS
62
7
370
0
100
AcDbLine
10
7335
20
1605.19029352
11
7335
21
1598.75
0
ENDBLK
5
8E
330
8C
100
AcDbEntity
8
0
100
AcDbBlockEnd
0
BLOCK
5
90
330
8F
100
AcDbEntity
8
0
100
AcDbBlockBegin
2
*D6
70
1
10
0
20
0
3
*D6
1

0
LINE
5
19E
100
AcDbEntity
8
section_A_A_d
6
CONTINUOUS
62
7
370
0
100
AcDbLine
10
3020
20
2000
11
3750
21
2000
0
SOLID
5
19F
100
AcDbEntity
8
section_A_A_d
6
CONTINUOUS
62
7
370
0
100
AcDbTrace
10
3020
20
2000
30
0
11
3070
21
2008.32569316
31
0
12
3070
22
1991.67430684
32
0
13
3070
23
1991.67430684
33
0
0
SOLID
5
1A0
100
AcDbEntity
8
section_A_A_d
6
CONTINUOUS
62
7
370
0
100
AcDbTrace
10
3750
20
2000
30
0
11
3700
21
1991.67430684
31
0
12
3700
22
2008.32569316
32
0
13
3700
23
2008.32569316
33
0
0
MTEXT
5
1A1
100
AcDbEntity
8
section_A_A_d
6
CONTINUOUS
62
7
370
0
100
AcDbMText
10
3385
20
2052
30
0
40
64
41
128
71
5
72
1
1
730
7
standard
210
0
220
0
230
1
50
0
73
2
44
1
0
LINE
5
1A2
100
AcDbEntity
8
section_A_A_d
6
CONTINUOUS
62
7
370
0
100
AcDbLine
10
3020
20
2005.37555026
11
3020
21
1998.75
0
LINE
5
1A3
100
AcDbEntity
8
section_A_A_d
6
CONTINUOUS
62
7
370
0
100
AcDbLine
10
3750
20
2000.49298302
11
3750
21
1998.75
0
ENDBLK
5
91
330
8F
100
AcDbEntity
8
0
100
AcDbBlockEnd
0
BLOCK
5
93
330
92
100
AcDbEntity
8
0
100
AcDbBlockBegin
2
*D32
70
1
10
0
20
0
3
*D32
1

0
LINE
5
1A4
100
AcDbEntity
8
section_A_A_d
6
CONTINUOUS
62
7
370
0
100
AcDbLine
10
6200
20
3114
11
6200
21
2399
0
SOLID
5
1A5
100
AcDbEntity
8
section_A_A_d
6
CONTINUOUS
62
7
370
0
100
AcDbTrace
10
6200
20
3114
30
0
11
6208.32569316
21
3064
31
0
12
6191.67430684
22
3064
32
0
13
6191.67430684
23
3064
33
0
0
SOLID
5
1A6
100
AcDbEntity
8
section_A_A_d
6
CONTINUOUS
62
7
370
0
100
AcDbTrace
10
6200
20
2399
30
0
11
6191.67430684
21
2449
31
0
12
6208.32569316
22
2449
32
0
13
6208.32569316
23
2449
33
0
0
MTEXT
5
1A7
100
AcDbEntity
8
section_A_A_d
6
CONTINUOUS
62
7
370
0
100
AcDbMText
10
6148
20
2756.5
30
0
40
64
41
113.777777778
71
5
72
1
1
715
7
standard
210
0
220
0
230
1
50
90
73
2
44
1
0
LINE
5
1A8
100
AcDbEntity
8
section_A_A_d
6
CONTINUOUS
62
7
370
0
100
AcDbLine
10
6182.50445035
20
3114
11
6201.25
21
3114
0
LINE
5
1A9
100
AcDbEntity
8
section_A_A_d
6
CONTINUOUS
62
7
370
0
100
AcDbLine
10
6192.26958483
20
2399
11
6201.25
21
2399
0
ENDBLK
5
94
330
92
100
AcDbEntity
8
0
100
AcDbBlockEnd
0
BLOCK
5
96
330
95
100
AcDbEntity
8
0
100
AcDbBlockBegin
2
*D16
70
1
10
0
20
0
3
*D16
1

0
LINE
5
1AA
100
AcDbEntity
8
section_A_A_d
6
CONTINUOUS
62
7
370
0
100
AcDbLine
10
7800
20
3114
11
7800
21
2399
0
SOLID
5
1AB
100
AcDbEntity
8
section_A_A_d
6
CONTINUOUS
62
7
370
0
100
AcDbTrace
10
7800
20
3114
30
0
11
7808.32569316
21
3064
31
0
12
7791.67430684
22
3064
32
0
13
7791.67430684
23
3064
33
0
0
SOLID
5
1AC
100
AcDbEntity
8
section_A_A_d
6
CONTINUOUS
62
7
370
0
100
AcDbTrace
10
7800
20
2399
30
0
11
7791.67430684
21
2449
31
0
12
7808.32569316
22
2449
32
0
13
7808.32569316
23
2449
33
0
0
MTEXT
5
1AD
100
AcDbEntity
8
section_A_A_d
6
CONTINUOUS
62
7
370
0
100
AcDbMText
10
7748
20
2756.5
30
0
40
64
41
113.777777778
71
5
72
1
1
715
7
standard
210
0
220
0
230
1
50
90
73
2
44
1
0
LINE
5
1AE
100
AcDbEntity
8
section_A_A_d
6
CONTINUOUS
62
7
370
0
100
AcDbLine
10
7793.75163874
20
3114
11
7801.25
21
3114
0
LINE
5
1AF
100
AcDbEntity
8
section_A_A_d
6
CONTINUOUS
62
7
370
0
100
AcDbLine
10
7793.75163874
20
2399
11
7801.25
21
2399
0
ENDBLK
5
97
330
95
100
AcDbEntity
8
0
100
AcDbBlockEnd
0
BLOCK
5
99
330
98
100
AcDbEntity
8
0
100
AcDbBlockBegin
2
*D9
70
1
10
0
20
0
3
*D9
1

0
LINE
5
1B0
100
AcDbEntity
8
section_A_A_d
6
CONTINUOUS
62
7
370
0
100
AcDbLine
10
3020
20
1800
11
5415
21
1800
0
SOLID
5
1B1
100
AcDbEntity
8
section_A_A_d
6
CONTINUOUS
62
7
370
0
100
AcDbTrace
10
3020
20
1800
30
0
11
3070
21
1808.32569316
31
0
12
3070
22
1791.67430684
32
0
13
3070
23
1791.67430684
33
0
0
SOLID
5
1B2
100
AcDbEntity
8
section_A_A_d
6
CONTINUOUS
62
7
370
0
100
AcDbTrace
10
5415
20
1800
30
0
11
5365
21
1791.67430684
31
0
12
5365
22
1808.32569316
32
0
13
5365
23
1808.32569316
33
0
0
MTEXT
5
1B3
100
AcDbEntity
8
section_A_A_d
6
CONTINUOUS
62
7
370
0
100
AcDbMText
10
4217.5
20
1852
30
0
40
64
41
177.777777778
71
5
72
1
1
2395
7
standard
210
0
220
0
230
1
50
0
73
2
44
1
0
LINE
5
1B4
100
AcDbEntity
8
section_A_A_d
6
CONTINUOUS
62
7
370
0
100
AcDbLine
10
3020
20
1820.02325198
11
3020
21
1798.75
0
LINE
5
1B5
100
AcDbEntity
8
section_A_A_d
6
CONTINUOUS
62
7
370
0
100
AcDbLine
10
5415
20
1820.02325198
11
5415
21
1798.75
0
ENDBLK
5
9A
330
98
100
AcDbEntity
8
0
100
AcDbBlockEnd
0
BLOCK
5
9C
330
9B
100
AcDbEntity
8
0
100
AcDbBlockBegin
2
*D67
70
1
10
0
20
0
3
*D67
1

0
LINE
5
1B6
100
AcDbEntity
8
section_A_extra_d
6
CONTINUOUS
62
7
370
0
100
AcDbLine
10
5100
20
4319
11
5100
21
2364
0
SOLID
5
1B7
100
AcDbEntity
8
section_A_extra_d
6
CONTINUOUS
62
7
370
0
100
AcDbTrace
10
5100
20
4319
30
0
11
5108.32569316
21
4269
31
0
12
5091.67430684
22
4269
32
0
13
5091.67430684
23
4269
33
0
0
SOLID
5
1B8
100
AcDbEntity
8
section_A_extra_d
6
CONTINUOUS
62
7
370
0
100
AcDbTrace
10
5100
20
2364
30
0
11
5091.67430684
21
2414
31
0
12
5108.32569316
22
2414
32
0
13
5108.32569316
23
2414
33
0
0
MTEXT
5
1B9
100
AcDbEntity
8
section_A_extra_d
6
CONTINUOUS
62
7
370
0
100
AcDbMText
10
5048
20
3341.5
30
0
40
64
41
163.555555556
71
5
72
1
1
1955
7
standard
210
0
220
0
230
1
50
90
73
2
44
1
0
LINE
5
1BA
100
AcDbEntity
8
section_A_extra_d
6
CONTINUOUS
62
7
370
0
100
AcDbLine
10
4805
20
4319
11
5101.25
21
4319
0
LINE
5
1BB
100
AcDbEntity
8
section_A_extra_d
6
CONTINUOUS
62
7
370
0
100
AcDbLine
10
4805
20
2364
11
5101.25
21
2364
0
ENDBLK
5
9D
330
9B
100
AcDbEntity
8
0
100
AcDbBlockEnd
0
BLOCK
5
9F
330
9E
100
AcDbEntity
8
0
100
AcDbBlockBegin
2
*D26
70
1
10
0
20
0
3
*D26
1

0
LINE
5
1BC
100
AcDbEntity
8
section_A_A_d
6
CONTINUOUS
62
7
370
0
100
AcDbLine
10
4755
20
3800
11
5370
21
3800
0
SOLID
5
1BD
100
AcDbEntity
8
section_A_A_d
6
CONTINUOUS
62
7
370
0
100
AcDbTrace
10
4755
20
3800
30
0
11
4805
21
3808.32569316
31
0
12
4805
22
3791.67430684
32
0
13
4805
23
3791.67430684
33
0
0
SOLID
5
1BE
100
AcDbEntity
8
section_A_A_d
6
CONTINUOUS
62
7
370
0
100
AcDbTrace
10
5370
20
3800
30
0
11
5320
21
3791.67430684
31
0
12
5320
22
3808.32569316
32
0
13
5320
23
3808.32569316
33
0
0
MTEXT
5
1BF
100
AcDbEntity
8
section_A_A_d
6
CONTINUOUS
62
7
370
0
100
AcDbMText
10
5062.5
20
3852
30
0
40
64
41
113.777777778
71
5
72
1
1
615
7
standard
210
0
220
0
230
1
50
0
73
2
44
1
0
LINE
5
1C0
100
AcDbEntity
8
section_A_A_d
6
CONTINUOUS
62
7
370
0
100
AcDbLine
10
4755
20
3809.18114455
11
4755
21
3798.75
0
LINE
5
1C1
100
AcDbEntity
8
section_A_A_d
6
CONTINUOUS
62
7
370
0
100
AcDbLine
10
5370
20
3809.18114455
11
5370
21
3798.75
0
ENDBLK
5
A0
330
9E
100
AcDbEntity
8
0
100
AcDbBlockEnd
0
BLOCK
5
A2
330
A1
100
AcDbEntity
8
0
100
AcDbBlockBegin
2
*D55
70
1
10
0
20
0
3
*D55
1

0
LINE
5
1C2
100
AcDbEntity
8
section_A_A_d
6
CONTINUOUS
62
7
370
0
100
AcDbLine
10
2110
20
2000
11
2442.5
21
2000
0
SOLID
5
1C3
100
AcDbEntity
8
section_A_A_d
6
CONTINUOUS
62
7
370
0
100
AcDbTrace
10
2110
20
2000
30
0
11
2160
21
2008.32569316
31
0
12
2160
22
1991.67430684
32
0
13
2160
23
1991.67430684
33
0
0
SOLID
5
1C4
100
AcDbEntity
8
section_A_A_d
6
CONTINUOUS
62
7
370
0
100
AcDbTrace
10
2442.5
20
2000
30
0
11
2392.5
21
1991.67430684
31
0
12
2392.5
22
2008.32569316
32
0
13
2392.5
23
2008.32569316
33
0
0
MTEXT
5
1C5
100
AcDbEntity
8
section_A_A_d
6
CONTINUOUS
62
7
370
0
100
AcDbMText
10
2276.25
20
2052
30
0
40
64
41
199.111111111
71
5
72
1
1
332.5
7
standard
210
0
220
0
230
1
50
0
73
2
44
1
0
LINE
5
1C6
100
AcDbEntity
8
section_A_A_d
6
CONTINUOUS
62
7
370
0
100
AcDbLine
10
2110
20
1981.14797082
11
2110
21
1998.75
0
LINE
5
1C7
100
AcDbEntity
8
section_A_A_d
6
CONTINUOUS
62
7
370
0
100
AcDbLine
10
2442.5
20
1981.14797082
11
2442.5
21
1998.75
0
ENDBLK
5
A3
330
A1
100
AcDbEntity
8
0
100
AcDbBlockEnd
0
BLOCK
5
A5
330
A4
100
AcDbEntity
8
0
100
AcDbBlockBegin
2
*D29
70
1
10
0
20
0
3
*D29
1

0
LINE
5
1C8
100
AcDbEntity
8
section_A_A_d
6
CONTINUOUS
62
7
370
0
100
AcDbLine
10
5495
20
3400
11
6455
21
3400
0
SOLID
5
1C9
100
AcDbEntity
8
section_A_A_d
6
CONTINUOUS
62
7
370
0
100
AcDbTrace
10
5495
20
3400
30
0
11
5545
21
3408.32569316
31
0
12
5545
22
3391.67430684
32
0
13
5545
23
3391.67430684
33
0
0
SOLID
5
1CA
100
AcDbEntity
8
section_A_A_d
6
CONTINUOUS
62
7
370
0
100
AcDbTrace
10
6455
20
3400
30
0
11
6405
21
3391.67430684
31
0
12
6405
22
3408.32569316
32
0
13
6405
23
3408.32569316
33
0
0
MTEXT
5
1CB
100
AcDbEntity
8
section_A_A_d
6
CONTINUOUS
62
7
370
0
100
AcDbMText
10
5975
20
3452
30
0
40
64
41
128
71
5
72
1
1
960
7
standard
210
0
220
0
230
1
50
0
73
2
44
1
0
LINE
5
1CC
100
AcDbEntity
8
section_A_A_d
6
CONTINUOUS
62
7
370
0
100
AcDbLine
10
5495
20
3401.97503694
11
5495
21
3398.75
0
LINE
5
1CD
100
AcDbEntity
8
section_A_A_d
6
CONTINUOUS
62
7
370
0
100
AcDbLine
10
6455
20
3401.97503694
11
6455
21
3398.75
0
ENDBLK
5
A6
330
A4
100
AcDbEntity
8
0
100
AcDbBlockEnd
0
BLOCK
5
A8
330
A7
100
AcDbEntity
8
0
100
AcDbBlockBegin
2
*D7
70
1
10
0
20
0
3
*D7
1

0
LINE
5
1CE
100
AcDbEntity
8
section_A_A_d
6
CONTINUOUS
62
7
370
0
100
AcDbLine
10
4685
20
2000
11
5415
21
2000
0
SOLID
5
1CF
100
AcDbEntity
8
section_A_A_d
6
CONTINUOUS
62
7
370
0
100
AcDbTrace
10
4685
20
2000
30
0
11
4735
21
2008.32569316
31
0
12
4735
22
1991.67430684
32
0
13
4735
23
1991.67430684
33
0
0
SOLID
5
1D0
100
AcDbEntity
8
section_A_A_d
6
CONTINUOUS
62
7
370
0
100
AcDbTrace
10
5415
20
2000
30
0
11
5365
21
1991.67430684
31
0
12
5365
22
2008.32569316
32
0
13
5365
23
2008.32569316
33
0
0
MTEXT
5
1D1
100
AcDbEntity
8
section_A_A_d
6
CONTINUOUS
62
7
370
0
100
AcDbMText
10
5050
20
2052
30
0
40
64
41
128
71
5
72
1
1
730
7
standard
210
0
220
0
230
1
50
0
73
2
44
1
0
LINE
5
1D2
100
AcDbEntity
8
section_A_A_d
6
CONTINUOUS
62
7
370
0
100
AcDbLine
10
4685
20
2005.37555026
11
4685
21
1998.75
0
LINE
5
1D3
100
AcDbEntity
8
section_A_A_d
6
CONTINUOUS
62
7
370
0
100
AcDbLine
10
5415
20
2005.37555026
11
5415
21
1998.75
0
ENDBLK
5
A9
330
A7
100
AcDbEntity
8
0
100
AcDbBlockEnd
0
BLOCK
5
AB
330
AA
100
AcDbEntity
8
0
100
AcDbBlockBegin
2
*D48
70
1
10
0
20
0
3
*D48
1

0
LINE
5
1D4
100
AcDbEntity
8
section_A_A_d
6
CONTINUOUS
62
7
370
0
100
AcDbLine
10
4720
20
5300
11
5370
21
5300
0
SOLID
5
1D5
100
AcDbEntity
8
section_A_A_d
6
CONTINUOUS
62
7
370
0
100
AcDbTrace
10
4720
20
5300
30
0
11
4770
21
5308.32569316
31
0
12
4770
22
5291.67430684
32
0
13
4770
23
5291.67430684
33
0
0
SOLID
5
1D6
100
AcDbEntity
8
section_A_A_d
6
CONTINUOUS
62
7
370
0
100
AcDbTrace
10
5370
20
5300
30
0
11
5320
21
5291.67430684
31
0
12
5320
22
5308.32569316
32
0
13
5320
23
5308.32569316
33
0
0
MTEXT
5
1D7
100
AcDbEntity
8
section_A_A_d
6
CONTINUOUS
62
7
370
0
100
AcDbMText
10
5045
20
5352
30
0
40
64
41
128
71
5
72
1
1
650
7
standard
210
0
220
0
230
1
50
0
73
2
44
1
0
LINE
5
1D8
100
AcDbEntity
8
section_A_A_d
6
CONTINUOUS
62
7
370
0
100
AcDbLine
10
4720
20
5315.36050897
11
4720
21
5301.25
0
LINE
5
1D9
100
AcDbEntity
8
section_A_A_d
6
CONTINUOUS
62
7
370
0
100
AcDbLine
10
5370
20
5311.45445518
11
5370
21
5301.25
0
ENDBLK
5
AC
330
AA
100
AcDbEntity
8
0
100
AcDbBlockEnd
0
BLOCK
5
AE
330
AD
100
AcDbEntity
8
0
100
AcDbBlockBegin
2
*D33
70
1
10
0
20
0
3
*D33
1

0
LINE
5
1DA
100
AcDbEntity
8
section_A_A_d
6
CONTINUOUS
62
7
370
0
100
AcDbLine
10
2500
20
4729
11
2500
21
4224
0
SOLID
5
1DB
100
AcDbEntity
8
section_A_A_d
6
CONTINUOUS
62
7
370
0
100
AcDbTrace
10
2500
20
4729
30
0
11
2508.32569316
21
4679
31
0
12
2491.67430684
22
4679
32
0
13
2491.67430684
23
4679
33
0
0
SOLID
5
1DC
100
AcDbEntity
8
section_A_A_d
6
CONTINUOUS
62
7
370
0
100
AcDbTrace
10
2500
20
4224
30
0
11
2491.67430684
21
4274
31
0
12
2508.32569316
22
4274
32
0
13
2508.32569316
23
4274
33
0
0
MTEXT
5
1DD
100
AcDbEntity
8
section_A_A_d
6
CONTINUOUS
62
7
370
0
100
AcDbMText
10
2448
20
4476.5
30
0
40
64
41
128
71
5
72
1
1
505
7
standard
210
0
220
0
230
1
50
90
73
2
44
1
0
LINE
5
1DE
100
AcDbEntity
8
section_A_A_d
6
CONTINUOUS
62
7
370
0
100
AcDbLine
10
2496.16618601
20
4729
11
2501.25
21
4729
0
LINE
5
1DF
100
AcDbEntity
8
section_A_A_d
6
CONTINUOUS
62
7
370
0
100
AcDbLine
10
2496.16618601
20
4224
11
2501.25
21
4224
0
ENDBLK
5
AF
330
AD
100
AcDbEntity
8
0
100
AcDbBlockEnd
0
BLOCK
5
B1
330
B0
100
AcDbEntity
8
0
100
AcDbBlockBegin
2
*D5
70
1
10
0
20
0
3
*D5
1

0
LINE
5
1E0
100
AcDbEntity
8
section_A_A_d
6
CONTINUOUS
62
7
370
0
100
AcDbLine
10
600
20
4154
11
600
21
2399
0
SOLID
5
1E1
100
AcDbEntity
8
section_A_A_d
6
CONTINUOUS
62
7
370
0
100
AcDbTrace
10
600
20
4154
30
0
11
608.325693155
21
4104
31
0
12
591.674306845
22
4104
32
0
13
591.674306845
23
4104
33
0
0
SOLID
5
1E2
100
AcDbEntity
8
section_A_A_d
6
CONTINUOUS
62
7
370
0
100
AcDbTrace
10
600
20
2399
30
0
11
591.674306845
21
2449
31
0
12
608.325693155
22
2449
32
0
13
608.325693155
23
2449
33
0
0
MTEXT
5
1E3
100
AcDbEntity
8
section_A_A_d
6
CONTINUOUS
62
7
370
0
100
AcDbMText
10
548
20
3276.5
30
0
40
64
41
163.555555556
71
5
72
1
1
1755
7
standard
210
0
220
0
230
1
50
90
73
2
44
1
0
LINE
5
1E4
100
AcDbEntity
8
section_A_A_d
6
CONTINUOUS
62
7
370
0
100
AcDbLine
10
594.498875355
20
4154
11
598.75
21
4154
0
LINE
5
1E5
100
AcDbEntity
8
section_A_A_d
6
CONTINUOUS
62
7
370
0
100
AcDbLine
10
582.780713985
20
2399
11
598.75
21
2399
0
ENDBLK
5
B2
330
B0
100
AcDbEntity
8
0
100
AcDbBlockEnd
0
BLOCK
5
B4
330
B3
100
AcDbEntity
8
0
100
AcDbBlockBegin
2
*D69
70
1
10
0
20
0
3
*D69
1

0
LINE
5
1E6
100
AcDbEntity
8
section_A_extra_d
6
CONTINUOUS
62
7
370
0
100
AcDbLine
10
5425
20
2600
11
6525
21
2600
0
SOLID
5
1E7
100
AcDbEntity
8
section_A_extra_d
6
CONTINUOUS
62
7
370
0
100
AcDbTrace
10
5425
20
2600
30
0
11
5475
21
2608.32569316
31
0
12
5475
22
2591.67430684
32
0
13
5475
23
2591.67430684
33
0
0
SOLID
5
1E8
100
AcDbEntity
8
section_A_extra_d
6
CONTINUOUS
62
7
370
0
100
AcDbTrace
10
6525
20
2600
30
0
11
6475
21
2591.67430684
31
0
12
6475
22
2608.32569316
32
0
13
6475
23
2608.32569316
33
0
0
MTEXT
5
1E9
100
AcDbEntity
8
section_A_extra_d
6
CONTINUOUS
62
7
370
0
100
AcDbMText
10
5975
20
2652
30
0
40
64
41
149.333333333
71
5
72
1
1
1100
7
standard
210
0
220
0
230
1
50
0
73
2
44
1
0
LINE
5
1EA
100
AcDbEntity
8
section_A_extra_d
6
CONTINUOUS
62
7
370
0
100
AcDbLine
10
5425
20
3064
11
5425
21
2598.75
0
LINE
5
1EB
100
AcDbEntity
8
section_A_extra_d
6
CONTINUOUS
62
7
370
0
100
AcDbLine
10
6525
20
3064
11
6525
21
2598.75
0
ENDBLK
5
B5
330
B3
100
AcDbEntity
8
0
100
AcDbBlockEnd
0
BLOCK
5
B7
330
B6
100
AcDbEntity
8
0
100
AcDbBlockBegin
2
*D49
70
1
10
0
20
0
3
*D49
1

0
LINE
5
1EC
100
AcDbEntity
8
section_A_A_d
6
CONTINUOUS
62
7
370
0
100
AcDbLine
10
5460
20
5300
11
5790
21
5300
0
SOLID
5
1ED
100
AcDbEntity
8
section_A_A_d
6
CONTINUOUS
62
7
370
0
100
AcDbTrace
10
5460
20
5300
30
0
11
5510
21
5308.32569316
31
0
12
5510
22
5291.67430684
32
0
13
5510
23
5291.67430684
33
0
0
SOLID
5
1EE
100
AcDbEntity
8
section_A_A_d
6
CONTINUOUS
62
7
370
0
100
AcDbTrace
10
5790
20
5300
30
0
11
5740
21
5291.67430684
31
0
12
5740
22
5308.32569316
32
0
13
5740
23
5308.32569316
33
0
0
MTEXT
5
1EF
100
AcDbEntity
8
section_A_A_d
6
CONTINUOUS
62
7
370
0
100
AcDbMText
10
5625
20
5352
30
0
40
64
41
128
71
5
72
1
1
330
7
standard
210
0
220
0
230
1
50
0
73
2
44
1
0
LINE
5
1F0
100
AcDbEntity
8
section_A_A_d
6
CONTINUOUS
62
7
370
0
100
AcDbLine
10
5460
20
5295.83024002
11
5460
21
5301.25
0
LINE
5
1F1
100
AcDbEntity
8
section_A_A_d
6
CONTINUOUS
62
7
370
0
100
AcDbLine
10
5790
20
5295.83024002
11
5790
21
5301.25
0
ENDBLK
5
B8
330
B6
100
AcDbEntity
8
0
100
AcDbBlockEnd
0
BLOCK
5
BA
330
B9
100
AcDbEntity
8
0
100
AcDbBlockBegin
2
*D2
70
1
10
0
20
0
3
*D2
1

0
LINE
5
1F2
100
AcDbEntity
8
section_A_A_d
6
CONTINUOUS
62
7
370
0
100
AcDbLine
10
1100
20
1800
11
3020
21
1800
0
SOLID
5
1F3
100
AcDbEntity
8
section_A_A_d
6
CONTINUOUS
62
7
370
0
100
AcDbTrace
10
1100
20
1800
30
0
11
1150
21
1808.32569316
31
0
12
1150
22
1791.67430684
32
0
13
1150
23
1791.67430684
33
0
0
SOLID
5
1F4
100
AcDbEntity
8
section_A_A_d
6
CONTINUOUS
62
7
370
0
100
AcDbTrace
10
3020
20
1800
30
0
11
2970
21
1791.67430684
31
0
12
2970
22
1808.32569316
32
0
13
2970
23
1808.32569316
33
0
0
MTEXT
5
1F5
100
AcDbEntity
8
section_A_A_d
6
CONTINUOUS
62
7
370
0
100
AcDbMText
10
2060
20
1852
30
0
40
64
41
163.555555556
71
5
72
1
1
1920
7
standard
210
0
220
0
230
1
50
0
73
2
44
1
0
LINE
5
1F6
100
AcDbEntity
8
section_A_A_d
6
CONTINUOUS
62
7
370
0
100
AcDbLine
10
1100
20
1795.61041578
11
1100
21
1798.75
0
LINE
5
1F7
100
AcDbEntity
8
section_A_A_d
6
CONTINUOUS
62
7
370
0
100
AcDbLine
10
3020
20
1795.61041578
11
3020
21
1798.75
0
ENDBLK
5
BB
330
B9
100
AcDbEntity
8
0
100
AcDbBlockEnd
0
BLOCK
5
BD
330
BC
100
AcDbEntity
8
0
100
AcDbBlockBegin
2
*D18
70
1
10
0
20
0
3
*D18
1

0
LINE
5
1F8
100
AcDbEntity
8
section_A_A_d
6
CONTINUOUS
62
7
370
0
100
AcDbLine
10
7600
20
4674
11
7600
21
2399
0
SOLID
5
1F9
100
AcDbEntity
8
section_A_A_d
6
CONTINUOUS
62
7
370
0
100
AcDbTrace
10
7600
20
4674
30
0
11
7608.32569316
21
4624
31
0
12
7591.67430684
22
4624
32
0
13
7591.67430684
23
4624
33
0
0
SOLID
5
1FA
100
AcDbEntity
8
section_A_A_d
6
CONTINUOUS
62
7
370
0
100
AcDbTrace
10
7600
20
2399
30
0
11
7591.67430684
21
2449
31
0
12
7608.32569316
22
2449
32
0
13
7608.32569316
23
2449
33
0
0
MTEXT
5
1FB
100
AcDbEntity
8
section_A_A_d
6
CONTINUOUS
62
7
370
0
100
AcDbMText
10
7548
20
3536.5
30
0
40
64
41
177.777777778
71
5
72
1
1
2275
7
standard
210
0
220
0
230
1
50
90
73
2
44
1
0
LINE
5
1FC
100
AcDbEntity
8
section_A_A_d
6
CONTINUOUS
62
7
370
0
100
AcDbLine
10
7569.15354582
20
4674
11
7601.25
21
4674
0
LINE
5
1FD
100
AcDbEntity
8
section_A_A_d
6
CONTINUOUS
62
7
370
0
100
AcDbLine
10
7569.15354582
20
2399
11
7601.25
21
2399
0
ENDBLK
5
BE
330
BC
100
AcDbEntity
8
0
100
AcDbBlockEnd
0
BLOCK
5
C0
330
BF
100
AcDbEntity
8
0
100
AcDbBlockBegin
2
*D36
70
1
10
0
20
0
3
*D36
1

0
LINE
5
1FE
100
AcDbEntity
8
section_A_A_d
6
CONTINUOUS
62
7
370
0
100
AcDbLine
10
5392.5
20
4719
11
4500
21
4000
0
SOLID
5
1FF
100
AcDbEntity
8
section_A_A_d
6
CONTINUOUS
62
7
370
0
100
AcDbTrace
10
5392.5
20
4719
30
0
11
5358.78632941
21
4681.1489025
31
0
12
5348.34005581
22
4694.11593893
32
0
13
5348.34005581
23
4694.11593893
33
0
0
ENDBLK
5
C1
330
BF
100
AcDbEntity
8
0
100
AcDbBlockEnd
0
BLOCK
5
C3
330
C2
100
AcDbEntity
8
0
100
AcDbBlockBegin
2
*D61
70
1
10
0
20
0
3
*D61
1

0
LINE
5
200
100
AcDbEntity
8
section_A_A_d
6
CONTINUOUS
62
7
370
0
100
AcDbLine
10
6325
20
2000
11
6525
21
2000
0
SOLID
5
201
100
AcDbEntity
8
section_A_A_d
6
CONTINUOUS
62
7
370
0
100
AcDbTrace
10
6325
20
2000
30
0
11
6375
21
2008.32569316
31
0
12
6375
22
1991.67430684
32
0
13
6375
23
1991.67430684
33
0
0
SOLID
5
202
100
AcDbEntity
8
section_A_A_d
6
CONTINUOUS
62
7
370
0
100
AcDbTrace
10
6525
20
2000
30
0
11
6475
21
1991.67430684
31
0
12
6475
22
2008.32569316
32
0
13
6475
23
2008.32569316
33
0
0
MTEXT
5
203
100
AcDbEntity
8
section_A_A_d
6
CONTINUOUS
62
7
370
0
100
AcDbMText
10
6425
20
2052
30
0
40
64
41
128
71
5
72
1
1
200
7
standard
210
0
220
0
230
1
50
0
73
2
44
1
0
LINE
5
204
100
AcDbEntity
8
section_A_A_d
6
CONTINUOUS
62
7
370
0
100
AcDbLine
10
6325
20
2016.30245493
11
6325
21
1998.75
0
LINE
5
205
100
AcDbEntity
8
section_A_A_d
6
CONTINUOUS
62
7
370
0
100
AcDbLine
10
6525
20
2016.30245493
11
6525
21
1998.75
0
ENDBLK
5
C4
330
C2
100
AcDbEntity
8
0
100
AcDbBlockEnd
0
BLOCK
5
C6
330
C5
100
AcDbEntity
8
0
100
AcDbBlockBegin
2
*D39
70
1
10
0
20
0
3
*D39
1

0
LINE
5
206
100
AcDbEntity
8
section_A_A_d
6
CONTINUOUS
62
7
370
0
100
AcDbLine
10
1100
20
5300
11
1910
21
5300
0
SOLID
5
207
100
AcDbEntity
8
section_A_A_d
6
CONTINUOUS
62
7
370
0
100
AcDbTrace
10
1100
20
5300
30
0
11
1150
21
5308.32569316
31
0
12
1150
22
5291.67430684
32
0
13
1150
23
5291.67430684
33
0
0
SOLID
5
208
100
AcDbEntity
8
section_A_A_d
6
CONTINUOUS
62
7
370
0
100
AcDbTrace
10
1910
20
5300
30
0
11
1860
21
5291.67430684
31
0
12
1860
22
5308.32569316
32
0
13
1860
23
5308.32569316
33
0
0
MTEXT
5
209
100
AcDbEntity
8
section_A_A_d
6
CONTINUOUS
62
7
370
0
100
AcDbMText
10
1505
20
5352
30
0
40
64
41
113.777777778
71
5
72
1
1
810
7
standard
210
0
220
0
230
1
50
0
73
2
44
1
0
LINE
5
20A
100
AcDbEntity
8
section_A_A_d
6
CONTINUOUS
62
7
370
0
100
AcDbLine
10
1100
20
5311.45445518
11
1100
21
5301.25
0
LINE
5
20B
100
AcDbEntity
8
section_A_A_d
6
CONTINUOUS
62
7
370
0
100
AcDbLine
10
1910
20
5311.45445518
11
1910
21
5301.25
0
ENDBLK
5
C7
330
C5
100
AcDbEntity
8
0
100
AcDbBlockEnd
0
BLOCK
5
C9
330
C8
100
AcDbEntity
8
0
100
AcDbBlockBegin
2
*D22
70
1
10
0
20
0
3
*D22
1

0
LINE
5
20C
100
AcDbEntity
8
section_A_A_d
6
CONTINUOUS
62
7
370
0
100
AcDbLine
10
400
20
2399
11
400
21
4729
0
SOLID
5
20D
100
AcDbEntity
8
section_A_A_d
6
CONTINUOUS
62
7
370
0
100
AcDbTrace
10
400
20
2399
30
0
11
391.674306845
21
2449
31
0
12
408.325693155
22
2449
32
0
13
408.325693155
23
2449
33
0
0
SOLID
5
20E
100
AcDbEntity
8
section_A_A_d
6
CONTINUOUS
62
7
370
0
100
AcDbTrace
10
400
20
4729
30
0
11
408.325693155
21
4679
31
0
12
391.674306845
22
4679
32
0
13
391.674306845
23
4679
33
0
0
MTEXT
5
20F
100
AcDbEntity
8
section_A_A_d
6
CONTINUOUS
62
7
370
0
100
AcDbMText
10
348
20
3564
30
0
40
64
41
177.777777778
71
5
72
1
1
2330
7
standard
210
0
220
0
230
1
50
90
73
2
44
1
0
LINE
5
210
100
AcDbEntity
8
section_A_A_d
6
CONTINUOUS
62
7
370
0
100
AcDbLine
10
415.606634747
20
2399
11
401.25
21
2399
0
LINE
5
211
100
AcDbEntity
8
section_A_A_d
6
CONTINUOUS
62
7
370
0
100
AcDbLine
10
415.606634747
20
4729
11
401.25
21
4729
0
ENDBLK
5
CA
330
C8
100
AcDbEntity
8
0
100
AcDbBlockEnd
0
BLOCK
5
CC
330
CB
100
AcDbEntity
8
0
100
AcDbBlockBegin
2
*D44
70
1
10
0
20
0
3
*D44
1

0
LINE
5
212
100
AcDbEntity
8
section_A_A_d
6
CONTINUOUS
62
7
370
0
100
AcDbLine
10
3680
20
5300
11
3915
21
5300
0
SOLID
5
213
100
AcDbEntity
8
section_A_A_d
6
CONTINUOUS
62
7
370
0
100
AcDbTrace
10
3680
20
5300
30
0
11
3730
21
5308.32569316
31
0
12
3730
22
5291.67430684
32
0
13
3730
23
5291.67430684
33
0
0
SOLID
5
214
100
AcDbEntity
8
section_A_A_d
6
CONTINUOUS
62
7
370
0
100
AcDbTrace
10
3915
20
5300
30
0
11
3865
21
5291.67430684
31
0
12
3865
22
5308.32569316
32
0
13
3865
23
5308.32569316
33
0
0
MTEXT
5
215
100
AcDbEntity
8
section_A_A_d
6
CONTINUOUS
62
7
370
0
100
AcDbMText
10
3797.5
20
5352
30
0
40
64
41
128
71
5
72
1
1
235
7
standard
210
0
220
0
230
1
50
0
73
2
44
1
0
LINE
5
216
100
AcDbEntity
8
section_A_A_d
6
CONTINUOUS
62
7
370
0
100
AcDbLine
10
3680
20
5311.45445518
11
3680
21
5301.25
0
LINE
5
217
100
AcDbEntity
8
section_A_A_d
6
CONTINUOUS
62
7
370
0
100
AcDbLine
10
3915
20
5307.54840139
11
3915
21
5301.25
0
ENDBLK
5
CD
330
CB
100
AcDbEntity
8
0
100
AcDbBlockEnd
0
BLOCK
5
CF
330
CE
100
AcDbEntity
8
0
100
AcDbBlockBegin
2
*D66
70
1
10
0
20
0
3
*D66
1

0
LINE
5
218
100
AcDbEntity
8
section_A_extra_d
6
CONTINUOUS
62
7
370
0
100
AcDbLine
10
7000
20
4154
11
7000
21
3184
0
SOLID
5
219
100
AcDbEntity
8
section_A_extra_d
6
CONTINUOUS
62
7
370
0
100
AcDbTrace
10
7000
20
4154
30
0
11
7008.32569316
21
4104
31
0
12
6991.67430684
22
4104
32
0
13
6991.67430684
23
4104
33
0
0
SOLID
5
21A
100
AcDbEntity
8
section_A_extra_d
6
CONTINUOUS
62
7
370
0
100
AcDbTrace
10
7000
20
3184
30
0
11
6991.67430684
21
3234
31
0
12
7008.32569316
22
3234
32
0
13
7008.32569316
23
3234
33
0
0
MTEXT
5
21B
100
AcDbEntity
8
section_A_extra_d
6
CONTINUOUS
62
7
370
0
100
AcDbMText
10
6948
20
3669
30
0
40
64
41
128
71
5
72
1
1
970
7
standard
210
0
220
0
230
1
50
90
73
2
44
1
0
LINE
5
21C
100
AcDbEntity
8
section_A_extra_d
6
CONTINUOUS
62
7
370
0
100
AcDbLine
10
6575
20
4154
11
7001.25
21
4154
0
LINE
5
21D
100
AcDbEntity
8
section_A_extra_d
6
CONTINUOUS
62
7
370
0
100
AcDbLine
10
6575
20
3184
11
7001.25
21
3184
0
ENDBLK
5
D0
330
CE
100
AcDbEntity
8
0
100
AcDbBlockEnd
0
BLOCK
5
D2
330
D1
100
AcDbEntity
8
0
100
AcDbBlockBegin
2
*D11
70
1
10
0
20
0
3
*D11
1

0
LINE
5
21E
100
AcDbEntity
8
section_A_A_d
6
CONTINUOUS
62
7
370
0
100
AcDbLine
10
7335
20
5300
11
7655
21
5300
0
SOLID
5
21F
100
AcDbEntity
8
section_A_A_d
6
CONTINUOUS
62
7
370
0
100
AcDbTrace
10
7335
20
5300
30
0
11
7385
21
5308.32569316
31
0
12
7385
22
5291.67430684
32
0
13
7385
23
5291.67430684
33
0
0
SOLID
5
220
100
AcDbEntity
8
section_A_A_d
6
CONTINUOUS
62
7
370
0
100
AcDbTrace
10
7655
20
5300
30
0
11
7605
21
5291.67430684
31
0
12
7605
22
5308.32569316
32
0
13
7605
23
5308.32569316
33
0
0
MTEXT
5
221
100
AcDbEntity
8
section_A_A_d
6
CONTINUOUS
62
7
370
0
100
AcDbMText
10
7495
20
5352
30
0
40
64
41
128
71
5
72
1
1
320
7
standard
210
0
220
0
230
1
50
0
73
2
44
1
0
LINE
5
222
100
AcDbEntity
8
section_A_A_d
6
CONTINUOUS
62
7
370
0
100
AcDbLine
10
7335
20
5256.98007371
11
7335
21
5301.25
0
LINE
5
223
100
AcDbEntity
8
section_A_A_d
6
CONTINUOUS
62
7
370
0
100
AcDbLine
10
7655
20
5256.98007371
11
7655
21
5301.25
0
ENDBLK
5
D3
330
D1
100
AcDbEntity
8
0
100
AcDbBlockEnd
0
BLOCK
5
D5
330
D4
100
AcDbEntity
8
0
100
AcDbBlockBegin
2
*D35
70
1
10
0
20
0
3
*D35
1

0
LINE
5
224
100
AcDbEntity
8
section_A_A_d
6
CONTINUOUS
62
7
370
0
100
AcDbLine
10
3042.5
20
4719
11
4000
21
4000
0
LINE
5
225
100
AcDbEntity
8
section_A_A_d
6
CONTINUOUS
62
7
370
0
100
AcDbLine
10
4000
20
4000
11
4500
21
4000
0
SOLID
5
226
100
AcDbEntity
8
section_A_A_d
6
CONTINUOUS
62
7
370
0
100
AcDbTrace
10
3042.5
20
4719
30
0
11
3087.48176397
21
4695.6342542
31
0
12
3077.48314637
22
4682.31898806
32
0
13
3077.48314637
23
4682.31898806
33
0
0
ENDBLK
5
D6
330
D4
100
AcDbEntity
8
0
100
AcDbBlockEnd
0
BLOCK
5
D8
330
D7
100
AcDbEntity
8
0
100
AcDbBlockBegin
2
*D21
70
1
10
0
20
0
3
*D21
1

0
LINE
5
227
100
AcDbEntity
8
section_A_A_d
6
CONTINUOUS
62
7
370
0
100
AcDbLine
10
700
20
3114
11
700
21
4154
0
SOLID
5
228
100
AcDbEntity
8
section_A_A_d
6
CONTINUOUS
62
7
370
0
100
AcDbTrace
10
700
20
3114
30
0
11
691.674306845
21
3164
31
0
12
708.325693155
22
3164
32
0
13
708.325693155
23
3164
33
0
0
SOLID
5
229
100
AcDbEntity
8
section_A_A_d
6
CONTINUOUS
62
7
370
0
100
AcDbTrace
10
700
20
4154
30
0
11
708.325693155
21
4104
31
0
12
691.674306845
22
4104
32
0
13
691.674306845
23
4104
33
0
0
MTEXT
5
22A
100
AcDbEntity
8
section_A_A_d
6
CONTINUOUS
62
7
370
0
100
AcDbMText
10
648
20
3634
30
0
40
64
41
170.666666667
71
5
72
1
1
1040
7
standard
210
0
220
0
230
1
50
90
73
2
44
1
0
LINE
5
22B
100
AcDbEntity
8
section_A_A_d
6
CONTINUOUS
62
7
370
0
100
AcDbLine
10
712.461699815
20
3114
11
698.75
21
3114
0
LINE
5
22C
100
AcDbEntity
8
section_A_A_d
6
CONTINUOUS
62
7
370
0
100
AcDbLine
10
709.336856783
20
4154
11
698.75
21
4154
0
ENDBLK
5
D9
330
D7
100
AcDbEntity
8
0
100
AcDbBlockEnd
0
BLOCK
5
DB
330
DA
100
AcDbEntity
8
0
100
AcDbBlockBegin
2
*D43
70
1
10
0
20
0
3
*D43
1

0
LINE
5
22D
100
AcDbEntity
8
section_A_A_d
6
CONTINUOUS
62
7
370
0
100
AcDbLine
10
3065
20
5300
11
3680
21
5300
0
SOLID
5
22E
100
AcDbEntity
8
section_A_A_d
6
CONTINUOUS
62
7
370
0
100
AcDbTrace
10
3065
20
5300
30
0
11
3115
21
5308.32569316
31
0
12
3115
22
5291.67430684
32
0
13
3115
23
5291.67430684
33
0
0
SOLID
5
22F
100
AcDbEntity
8
section_A_A_d
6
CONTINUOUS
62
7
370
0
100
AcDbTrace
10
3680
20
5300
30
0
11
3630
21
5291.67430684
31
0
12
3630
22
5308.32569316
32
0
13
3630
23
5308.32569316
33
0
0
MTEXT
5
230
100
AcDbEntity
8
section_A_A_d
6
CONTINUOUS
62
7
370
0
100
AcDbMText
10
3372.5
20
5352
30
0
40
64
41
113.777777778
71
5
72
1
1
615
7
standard
210
0
220
0
230
1
50
0
73
2
44
1
0
LINE
5
231
100
AcDbEntity
8
section_A_A_d
6
CONTINUOUS
62
7
370
0
100
AcDbLine
10
3065
20
5319.26656276
11
3065
21
5301.25
0
LINE
5
232
100
AcDbEntity
8
section_A_A_d
6
CONTINUOUS
62
7
370
0
100
AcDbLine
10
3680
20
5319.26656276
11
3680
21
5301.25
0
ENDBLK
5
DC
330
DA
100
AcDbEntity
8
0
100
AcDbBlockEnd
0
BLOCK
5
DE
330
DD
100
AcDbEntity
8
0
100
AcDbBlockBegin
2
*D20
70
1
10
0
20
0
3
*D20
1

0
LINE
5
233
100
AcDbEntity
8
section_A_A_d
6
CONTINUOUS
62
7
370
0
100
AcDbLine
10
700
20
3114
11
700
21
2399
0
SOLID
5
234
100
AcDbEntity
8
section_A_A_d
6
CONTINUOUS
62
7
370
0
100
AcDbTrace
10
700
20
3114
30
0
11
708.325693155
21
3064
31
0
12
691.674306845
22
3064
32
0
13
691.674306845
23
3064
33
0
0
SOLID
5
235
100
AcDbEntity
8
section_A_A_d
6
CONTINUOUS
62
7
370
0
100
AcDbTrace
10
700
20
2399
30
0
11
691.674306845
21
2449
31
0
12
708.325693155
22
2449
32
0
13
708.325693155
23
2449
33
0
0
MTEXT
5
236
100
AcDbEntity
8
section_A_A_d
6
CONTINUOUS
62
7
370
0
100
AcDbMText
10
648
20
2756.5
30
0
40
64
41
113.777777778
71
5
72
1
1
715
7
standard
210
0
220
0
230
1
50
90
73
2
44
1
0
LINE
5
237
100
AcDbEntity
8
section_A_A_d
6
CONTINUOUS
62
7
370
0
100
AcDbLine
10
718.711385879
20
3114
11
698.75
21
3114
0
LINE
5
238
100
AcDbEntity
8
section_A_A_d
6
CONTINUOUS
62
7
370
0
100
AcDbLine
10
718.711385879
20
2399
11
698.75
21
2399
0
ENDBLK
5
DF
330
DD
100
AcDbEntity
8
0
100
AcDbBlockEnd
0
BLOCK
5
E1
330
E0
100
AcDbEntity
8
0
100
AcDbBlockBegin
2
*D12
70
1
10
0
20
0
3
*D12
1

0
LINE
5
239
100
AcDbEntity
8
section_A_A_d
6
CONTINUOUS
62
7
370
0
100
AcDbLine
10
7655
20
5700
11
780
21
5700
0
SOLID
5
23A
100
AcDbEntity
8
section_A_A_d
6
CONTINUOUS
62
7
370
0
100
AcDbTrace
10
7655
20
5700
30
0
11
7605
21
5691.67430684
31
0
12
7605
22
5708.32569316
32
0
13
7605
23
5708.32569316
33
0
0
SOLID
5
23B
100
AcDbEntity
8
section_A_A_d
6
CONTINUOUS
62
7
370
0
100
AcDbTrace
10
780
20
5700
30
0
11
830
21
5708.32569316
31
0
12
830
22
5691.67430684
32
0
13
830
23
5691.67430684
33
0
0
MTEXT
5
23C
100
AcDbEntity
8
section_A_A_d
6
CONTINUOUS
62
7
370
0
100
AcDbMText
10
4217.5
20
5752
30
0
40
64
41
177.777777778
71
5
72
1
1
6875
7
standard
210
0
220
0
230
1
50
360
73
2
44
1
0
LINE
5
23D
100
AcDbEntity
8
section_A_A_d
6
CONTINUOUS
62
7
370
0
100
AcDbLine
10
7655
20
5681.76342338
11
7655
21
5701.25
0
LINE
5
23E
100
AcDbEntity
8
section_A_A_d
6
CONTINUOUS
62
7
370
0
100
AcDbLine
10
780
20
5686.64599061
11
780
21
5701.25
0
ENDBLK
5
E2
330
E0
100
AcDbEntity
8
0
100
AcDbBlockEnd
0
BLOCK
5
E4
330
E3
100
AcDbEntity
8
0
100
AcDbBlockBegin
2
*D40
70
1
10
0
20
0
3
*D40
1

0
LINE
5
23F
100
AcDbEntity
8
section_A_A_d
6
CONTINUOUS
62
7
370
0
100
AcDbLine
10
1910
20
5300
11
2240
21
5300
0
SOLID
5
240
100
AcDbEntity
8
section_A_A_d
6
CONTINUOUS
62
7
370
0
100
AcDbTrace
10
1910
20
5300
30
0
11
1960
21
5308.32569316
31
0
12
1960
22
5291.67430684
32
0
13
1960
23
5291.67430684
33
0
0
SOLID
5
241
100
AcDbEntity
8
section_A_A_d
6
CONTINUOUS
62
7
370
0
100
AcDbTrace
10
2240
20
5300
30
0
11
2190
21
5291.67430684
31
0
12
2190
22
5308.32569316
32
0
13
2190
23
5308.32569316
33
0
0
MTEXT
5
242
100
AcDbEntity
8
section_A_A_d
6
CONTINUOUS
62
7
370
0
100
AcDbMText
10
2075
20
5352
30
0
40
64
41
128
71
5
72
1
1
330
7
standard
210
0
220
0
230
1
50
0
73
2
44
1
0
LINE
5
243
100
AcDbEntity
8
section_A_A_d
6
CONTINUOUS
62
7
370
0
100
AcDbLine
10
1910
20
5307.54840139
11
1910
21
5301.25
0
LINE
5
244
100
AcDbEntity
8
section_A_A_d
6
CONTINUOUS
62
7
370
0
100
AcDbLine
10
2240
20
5307.54840139
11
2240
21
5301.25
0
ENDBLK
5
E5
330
E3
100
AcDbEntity
8
0
100
AcDbBlockEnd
0
BLOCK
5
E7
330
E6
100
AcDbEntity
8
0
100
AcDbBlockBegin
2
*D28
70
1
10
0
20
0
3
*D28
1

0
LINE
5
245
100
AcDbEntity
8
section_A_A_d
6
CONTINUOUS
62
7
370
0
100
AcDbLine
10
6525
20
3800
11
7300
21
3800
0
SOLID
5
246
100
AcDbEntity
8
section_A_A_d
6
CONTINUOUS
62
7
370
0
100
AcDbTrace
10
6525
20
3800
30
0
11
6575
21
3808.32569316
31
0
12
6575
22
3791.67430684
32
0
13
6575
23
3791.67430684
33
0
0
SOLID
5
247
100
AcDbEntity
8
section_A_A_d
6
CONTINUOUS
62
7
370
0
100
AcDbTrace
10
7300
20
3800
30
0
11
7250
21
3791.67430684
31
0
12
7250
22
3808.32569316
32
0
13
7250
23
3808.32569316
33
0
0
MTEXT
5
248
100
AcDbEntity
8
section_A_A_d
6
CONTINUOUS
62
7
370
0
100
AcDbMText
10
6912.5
20
3852
30
0
40
64
41
128
71
5
72
1
1
775
7
standard
210
0
220
0
230
1
50
0
73
2
44
1
0
LINE
5
249
100
AcDbEntity
8
section_A_A_d
6
CONTINUOUS
62
7
370
0
100
AcDbLine
10
6525
20
3812.1106849
11
6525
21
3798.75
0
LINE
5
24A
100
AcDbEntity
8
section_A_A_d
6
CONTINUOUS
62
7
370
0
100
AcDbLine
10
7300
20
3812.1106849
11
7300
21
3798.75
0
ENDBLK
5
E8
330
E6
100
AcDbEntity
8
0
100
AcDbBlockEnd
0
BLOCK
5
EA
330
E9
100
AcDbEntity
8
0
100
AcDbBlockBegin
2
*D62
70
1
10
0
20
0
3
*D62
1

0
LINE
5
24B
100
AcDbEntity
8
section_A_A_d
6
CONTINUOUS
62
7
370
0
100
AcDbLine
10
6525
20
2000
11
7335
21
2000
0
SOLID
5
24C
100
AcDbEntity
8
section_A_A_d
6
CONTINUOUS
62
7
370
0
100
AcDbTrace
10
6525
20
2000
30
0
11
6575
21
2008.32569316
31
0
12
6575
22
1991.67430684
32
0
13
6575
23
1991.67430684
33
0
0
SOLID
5
24D
100
AcDbEntity
8
section_A_A_d
6
CONTINUOUS
62
7
370
0
100
AcDbTrace
10
7335
20
2000
30
0
11
7285
21
1991.67430684
31
0
12
7285
22
2008.32569316
32
0
13
7285
23
2008.32569316
33
0
0
MTEXT
5
24E
100
AcDbEntity
8
section_A_A_d
6
CONTINUOUS
62
7
370
0
100
AcDbMText
10
6930
20
2052
30
0
40
64
41
113.777777778
71
5
72
1
1
810
7
standard
210
0
220
0
230
1
50
0
73
2
44
1
0
LINE
5
24F
100
AcDbEntity
8
section_A_A_d
6
CONTINUOUS
62
7
370
0
100
AcDbLine
10
6525
20
1988.9600784
11
6525
21
1998.75
0
LINE
5
250
100
AcDbEntity
8
section_A_A_d
6
CONTINUOUS
62
7
370
0
100
AcDbLine
10
7335
20
1981.14797082
11
7335
21
1998.75
0
ENDBLK
5
EB
330
E9
100
AcDbEntity
8
0
100
AcDbBlockEnd
0
BLOCK
5
ED
330
EC
100
AcDbEntity
8
0
100
AcDbBlockBegin
2
*D34
70
1
10
0
20
0
3
*D34
1

0
LINE
5
251
100
AcDbEntity
8
section_A_A_d
6
CONTINUOUS
62
7
370
0
100
AcDbLine
10
2700
20
3114
11
2700
21
2399
0
SOLID
5
252
100
AcDbEntity
8
section_A_A_d
6
CONTINUOUS
62
7
370
0
100
AcDbTrace
10
2700
20
3114
30
0
11
2708.32569316
21
3064
31
0
12
2691.67430684
22
3064
32
0
13
2691.67430684
23
3064
33
0
0
SOLID
5
253
100
AcDbEntity
8
section_A_A_d
6
CONTINUOUS
62
7
370
0
100
AcDbTrace
10
2700
20
2399
30
0
11
2691.67430684
21
2449
31
0
12
2708.32569316
22
2449
32
0
13
2708.32569316
23
2449
33
0
0
MTEXT
5
254
100
AcDbEntity
8
section_A_A_d
6
CONTINUOUS
62
7
370
0
100
AcDbMText
10
2648
20
2756.5
30
0
40
64
41
113.777777778
71
5
72
1
1
715
7
standard
210
0
220
0
230
1
50
90
73
2
44
1
0
LINE
5
255
100
AcDbEntity
8
section_A_A_d
6
CONTINUOUS
62
7
370
0
100
AcDbLine
10
2691.46887551
20
3114
11
2701.25
21
3114
0
LINE
5
256
100
AcDbEntity
8
section_A_A_d
6
CONTINUOUS
62
7
370
0
100
AcDbLine
10
2691.46887551
20
2399
11
2701.25
21
2399
0
ENDBLK
5
EE
330
EC
100
AcDbEntity
8
0
100
AcDbBlockEnd
0
BLOCK
5
F0
330
EF
100
AcDbEntity
8
0
100
AcDbBlockBegin
2
*D4
70
1
10
0
20
0
3
*D4
1

0
LINE
5
257
100
AcDbEntity
8
section_A_A_d
6
CONTINUOUS
62
7
370
0
100
AcDbLine
10
7900
20
4154
11
7900
21
2399
0
SOLID
5
258
100
AcDbEntity
8
section_A_A_d
6
CONTINUOUS
62
7
370
0
100
AcDbTrace
10
7900
20
4154
30
0
11
7908.32569316
21
4104
31
0
12
7891.67430684
22
4104
32
0
13
7891.67430684
23
4104
33
0
0
SOLID
5
259
100
AcDbEntity
8
section_A_A_d
6
CONTINUOUS
62
7
370
0
100
AcDbTrace
10
7900
20
2399
30
0
11
7891.67430684
21
2449
31
0
12
7908.32569316
22
2449
32
0
13
7908.32569316
23
2449
33
0
0
MTEXT
5
25A
100
AcDbEntity
8
section_A_A_d
6
CONTINUOUS
62
7
370
0
100
AcDbMText
10
7848
20
3276.5
30
0
40
64
41
163.555555556
71
5
72
1
1
1755
7
standard
210
0
220
0
230
1
50
90
73
2
44
1
0
LINE
5
25B
100
AcDbEntity
8
section_A_A_d
6
CONTINUOUS
62
7
370
0
100
AcDbLine
10
7910.93325243
20
4154
11
7901.25
21
4154
0
LINE
5
25C
100
AcDbEntity
8
section_A_A_d
6
CONTINUOUS
62
7
370
0
100
AcDbLine
10
7915.81581967
20
2399
11
7901.25
21
2399
0
ENDBLK
5
F1
330
EF
100
AcDbEntity
8
0
100
AcDbBlockEnd
0
BLOCK
5
F3
330
F2
100
AcDbEntity
8
0
100
AcDbBlockBegin
2
*D64
70
1
10
0
20
0
3
*D64
1

0
LINE
5
25D
100
AcDbEntity
8
section_A_A_d
6
CONTINUOUS
62
7
370
0
100
AcDbLine
10
500
20
4319
11
500
21
2399
0
SOLID
5
25E
100
AcDbEntity
8
section_A_A_d
6
CONTINUOUS
62
7
370
0
100
AcDbTrace
10
500
20
4319
30
0
11
508.325693155
21
4269
31
0
12
491.674306845
22
4269
32
0
13
491.674306845
23
4269
33
0
0
SOLID
5
25F
100
AcDbEntity
8
section_A_A_d
6
CONTINUOUS
62
7
370
0
100
AcDbTrace
10
500
20
2399
30
0
11
491.674306845
21
2449
31
0
12
508.325693155
22
2449
32
0
13
508.325693155
23
2449
33
0
0
MTEXT
5
260
100
AcDbEntity
8
section_A_A_d
6
CONTINUOUS
62
7
370
0
100
AcDbMText
10
448
20
3359
30
0
40
64
41
163.555555556
71
5
72
1
1
1920
7
standard
210
0
220
0
230
1
50
90
73
2
44
1
0
LINE
5
261
100
AcDbEntity
8
section_A_A_d
6
CONTINUOUS
62
7
370
0
100
AcDbLine
10
477.317261655
20
4319
11
498.75
21
4319
0
LINE
5
262
100
AcDbEntity
8
section_A_A_d
6
CONTINUOUS
62
7
370
0
100
AcDbLine
10
477.317261655
20
2399
11
498.75
21
2399
0
ENDBLK
5
F4
330
F2
100
AcDbEntity
8
0
100
AcDbBlockEnd
0
BLOCK
5
F6
330
F5
100
AcDbEntity
8
0
100
AcDbBlockBegin
2
*D27
70
1
10
0
20
0
3
*D27
1

0
LINE
5
263
100
AcDbEntity
8
section_A_A_d
6
CONTINUOUS
62
7
370
0
100
AcDbLine
10
5460
20
3800
11
6490
21
3800
0
SOLID
5
264
100
AcDbEntity
8
section_A_A_d
6
CONTINUOUS
62
7
370
0
100
AcDbTrace
10
5460
20
3800
30
0
11
5510
21
3808.32569316
31
0
12
5510
22
3791.67430684
32
0
13
5510
23
3791.67430684
33
0
0
SOLID
5
265
100
AcDbEntity
8
section_A_A_d
6
CONTINUOUS
62
7
370
0
100
AcDbTrace
10
6490
20
3800
30
0
11
6440
21
3791.67430684
31
0
12
6440
22
3808.32569316
32
0
13
6440
23
3808.32569316
33
0
0
MTEXT
5
266
100
AcDbEntity
8
section_A_A_d
6
CONTINUOUS
62
7
370
0
100
AcDbMText
10
5975
20
3852
30
0
40
64
41
163.555555556
71
5
72
1
1
1030
7
standard
210
0
220
0
230
1
50
0
73
2
44
1
0
LINE
5
267
100
AcDbEntity
8
section_A_A_d
6
CONTINUOUS
62
7
370
0
100
AcDbLine
10
5460
20
3831.64095385
11
5460
21
3798.75
0
LINE
5
268
100
AcDbEntity
8
section_A_A_d
6
CONTINUOUS
62
7
370
0
100
AcDbLine
10
6490
20
3831.64095385
11
6490
21
3798.75
0
ENDBLK
5
F7
330
F5
100
AcDbEntity
8
0
100
AcDbBlockEnd
0
BLOCK
5
F9
330
F8
100
AcDbEntity
8
0
100
AcDbBlockBegin
2
*D25
70
1
10
0
20
0
3
*D25
1

0
LINE
5
269
100
AcDbEntity
8
section_A_A_d
6
CONTINUOUS
62
7
370
0
100
AcDbLine
10
3065
20
3800
11
3680
21
3800
0
SOLID
5
26A
100
AcDbEntity
8
section_A_A_d
6
CONTINUOUS
62
7
370
0
100
AcDbTrace
10
3065
20
3800
30
0
11
3115
21
3808.32569316
31
0
12
3115
22
3791.67430684
32
0
13
3115
23
3791.67430684
33
0
0
SOLID
5
26B
100
AcDbEntity
8
section_A_A_d
6
CONTINUOUS
62
7
370
0
100
AcDbTrace
10
3680
20
3800
30
0
11
3630
21
3791.67430684
31
0
12
3630
22
3808.32569316
32
0
13
3630
23
3808.32569316
33
0
0
MTEXT
5
26C
100
AcDbEntity
8
section_A_A_d
6
CONTINUOUS
62
7
370
0
100
AcDbMText
10
3372.5
20
3852
30
0
40
64
41
113.777777778
71
5
72
1
1
615
7
standard
210
0
220
0
230
1
50
0
73
2
44
1
0
LINE
5
26D
100
AcDbEntity
8
section_A_A_d
6
CONTINUOUS
62
7
370
0
100
AcDbLine
10
3065
20
3809.18114455
11
3065
21
3798.75
0
LINE
5
26E
100
AcDbEntity
8
section_A_A_d
6
CONTINUOUS
62
7
370
0
100
AcDbLine
10
3680
20
3809.18114455
11
3680
21
3798.75
0
ENDBLK
5
FA
330
F8
100
AcDbEntity
8
0
100
AcDbBlockEnd
0
BLOCK
5
FC
330
FB
100
AcDbEntity
8
0
100
AcDbBlockBegin
2
*D8
70
1
10
0
20
0
3
*D8
1

0
LINE
5
26F
100
AcDbEntity
8
section_A_A_d
6
CONTINUOUS
62
7
370
0
100
AcDbLine
10
3750
20
2000
11
4685
21
2000
0
SOLID
5
270
100
AcDbEntity
8
section_A_A_d
6
CONTINUOUS
62
7
370
0
100
AcDbTrace
10
3750
20
2000
30
0
11
3800
21
2008.32569316
31
0
12
3800
22
1991.67430684
32
0
13
3800
23
1991.67430684
33
0
0
SOLID
5
271
100
AcDbEntity
8
section_A_A_d
6
CONTINUOUS
62
7
370
0
100
AcDbTrace
10
4685
20
2000
30
0
11
4635
21
1991.67430684
31
0
12
4635
22
2008.32569316
32
0
13
4635
23
2008.32569316
33
0
0
MTEXT
5
272
100
AcDbEntity
8
section_A_A_d
6
CONTINUOUS
62
7
370
0
100
AcDbMText
10
4217.5
20
2052
30
0
40
64
41
128
71
5
72
1
1
935
7
standard
210
0
220
0
230
1
50
0
73
2
44
1
0
LINE
5
273
100
AcDbEntity
8
section_A_A_d
6
CONTINUOUS
62
7
370
0
100
AcDbLine
10
3750
20
2017.09371163
11
3750
21
1998.75
0
LINE
5
274
100
AcDbEntity
8
section_A_A_d
6
CONTINUOUS
62
7
370
0
100
AcDbLine
10
4685
20
2013.18765784
11
4685
21
1998.75
0
ENDBLK
5
FD
330
FB
100
AcDbEntity
8
0
100
AcDbBlockEnd
0
BLOCK
5
FF
330
FE
100
AcDbEntity
8
0
100
AcDbBlockBegin
2
*D52
70
1
10
0
20
0
3
*D52
1

0
LINE
5
275
100
AcDbEntity
8
section_A_A_d
6
CONTINUOUS
62
7
370
0
100
AcDbLine
10
6525
20
5300
11
7335
21
5300
0
SOLID
5
276
100
AcDbEntity
8
section_A_A_d
6
CONTINUOUS
62
7
370
0
100
AcDbTrace
10
6525
20
5300
30
0
11
6575
21
5308.32569316
31
0
12
6575
22
5291.67430684
32
0
13
6575
23
5291.67430684
33
0
0
SOLID
5
277
100
AcDbEntity
8
section_A_A_d
6
CONTINUOUS
62
7
370
0
100
AcDbTrace
10
7335
20
5300
30
0
11
7285
21
5291.67430684
31
0
12
7285
22
5308.32569316
32
0
13
7285
23
5308.32569316
33
0
0
MTEXT
5
278
100
AcDbEntity
8
section_A_A_d
6
CONTINUOUS
62
7
370
0
100
AcDbMText
10
6930
20
5352
30
0
40
64
41
113.777777778
71
5
72
1
1
810
7
standard
210
0
220
0
230
1
50
0
73
2
44
1
0
LINE
5
279
100
AcDbEntity
8
section_A_A_d
6
CONTINUOUS
62
7
370
0
100
AcDbLine
10
6525
20
5288.01813244
11
6525
21
5301.25
0
LINE
5
27A
100
AcDbEntity
8
section_A_A_d
6
CONTINUOUS
62
7
370
0
100
AcDbLine
10
7335
20
5288.01813244
11
7335
21
5301.25
0
ENDBLK
5
100
330
FE
100
AcDbEntity
8
0
100
AcDbBlockEnd
0
BLOCK
5
102
330
101
100
AcDbEntity
8
0
100
AcDbBlockBegin
2
*D41
70
1
10
0
20
0
3
*D41
1

0
LINE
5
27B
100
AcDbEntity
8
section_A_A_d
6
CONTINUOUS
62
7
370
0
100
AcDbLine
10
2240
20
5300
11
2645
21
5300
0
SOLID
5
27C
100
AcDbEntity
8
section_A_A_d
6
CONTINUOUS
62
7
370
0
100
AcDbTrace
10
2240
20
5300
30
0
11
2290
21
5308.32569316
31
0
12
2290
22
5291.67430684
32
0
13
2290
23
5291.67430684
33
0
0
SOLID
5
27D
100
AcDbEntity
8
section_A_A_d
6
CONTINUOUS
62
7
370
0
100
AcDbTrace
10
2645
20
5300
30
0
11
2595
21
5291.67430684
31
0
12
2595
22
5308.32569316
32
0
13
2595
23
5308.32569316
33
0
0
MTEXT
5
27E
100
AcDbEntity
8
section_A_A_d
6
CONTINUOUS
62
7
370
0
100
AcDbMText
10
2442.5
20
5352
30
0
40
64
41
135.111111111
71
5
72
1
1
405
7
standard
210
0
220
0
230
1
50
0
73
2
44
1
0
LINE
5
27F
100
AcDbEntity
8
section_A_A_d
6
CONTINUOUS
62
7
370
0
100
AcDbLine
10
2240
20
5303.6423476
11
2240
21
5301.25
0
LINE
5
280
100
AcDbEntity
8
section_A_A_d
6
CONTINUOUS
62
7
370
0
100
AcDbLine
10
2645
20
5303.6423476
11
2645
21
5301.25
0
ENDBLK
5
103
330
101
100
AcDbEntity
8
0
100
AcDbBlockEnd
0
BLOCK
5
105
330
104
100
AcDbEntity
8
0
100
AcDbBlockBegin
2
*D24
70
1
10
0
20
0
3
*D24
1

0
LINE
5
281
100
AcDbEntity
8
section_A_A_d
6
CONTINUOUS
62
7
370
0
100
AcDbLine
10
1945
20
3800
11
2975
21
3800
0
SOLID
5
282
100
AcDbEntity
8
section_A_A_d
6
CONTINUOUS
62
7
370
0
100
AcDbTrace
10
1945
20
3800
30
0
11
1995
21
3808.32569316
31
0
12
1995
22
3791.67430684
32
0
13
1995
23
3791.67430684
33
0
0
SOLID
5
283
100
AcDbEntity
8
section_A_A_d
6
CONTINUOUS
62
7
370
0
100
AcDbTrace
10
2975
20
3800
30
0
11
2925
21
3791.67430684
31
0
12
2925
22
3808.32569316
32
0
13
2925
23
3808.32569316
33
0
0
MTEXT
5
284
100
AcDbEntity
8
section_A_A_d
6
CONTINUOUS
62
7
370
0
100
AcDbMText
10
2460
20
3852
30
0
40
64
41
163.555555556
71
5
72
1
1
1030
7
standard
210
0
220
0
230
1
50
0
73
2
44
1
0
LINE
5
285
100
AcDbEntity
8
section_A_A_d
6
CONTINUOUS
62
7
370
0
100
AcDbLine
10
1945
20
3777.93271423
11
1945
21
3798.75
0
LINE
5
286
100
AcDbEntity
8
section_A_A_d
6
CONTINUOUS
62
7
370
0
100
AcDbLine
10
2975
20
3777.93271423
11
2975
21
3798.75
0
ENDBLK
5
106
330
104
100
AcDbEntity
8
0
100
AcDbBlockEnd
0
BLOCK
5
108
330
107
100
AcDbEntity
8
0
100
AcDbBlockBegin
2
*D30
70
1
10
0
20
0
3
*D30
1

0
LINE
5
287
100
AcDbEntity
8
section_A_A_d
6
CONTINUOUS
62
7
370
0
100
AcDbLine
10
6300
20
4154
11
6300
21
3184
0
SOLID
5
288
100
AcDbEntity
8
section_A_A_d
6
CONTINUOUS
62
7
370
0
100
AcDbTrace
10
6300
20
4154
30
0
11
6308.32569316
21
4104
31
0
12
6291.67430684
22
4104
32
0
13
6291.67430684
23
4104
33
0
0
SOLID
5
289
100
AcDbEntity
8
section_A_A_d
6
CONTINUOUS
62
7
370
0
100
AcDbTrace
10
6300
20
3184
30
0
11
6291.67430684
21
3234
31
0
12
6308.32569316
22
3234
32
0
13
6308.32569316
23
3234
33
0
0
MTEXT
5
28A
100
AcDbEntity
8
section_A_A_d
6
CONTINUOUS
62
7
370
0
100
AcDbMText
10
6248
20
3669
30
0
40
64
41
128
71
5
72
1
1
970
7
standard
210
0
220
0
230
1
50
90
73
2
44
1
0
LINE
5
28B
100
AcDbEntity
8
section_A_A_d
6
CONTINUOUS
62
7
370
0
100
AcDbLine
10
6285.03836234
20
4154
11
6301.25
21
4154
0
LINE
5
28C
100
AcDbEntity
8
section_A_A_d
6
CONTINUOUS
62
7
370
0
100
AcDbLine
10
6280.1557951
20
3184
11
6301.25
21
3184
0
ENDBLK
5
109
330
107
100
AcDbEntity
8
0
100
AcDbBlockEnd
0
BLOCK
5
10B
330
10A
100
AcDbEntity
8
0
100
AcDbBlockBegin
2
*D47
70
1
10
0
20
0
3
*D47
1

0
LINE
5
28D
100
AcDbEntity
8
section_A_A_d
6
CONTINUOUS
62
7
370
0
100
AcDbLine
10
4485
20
5300
11
4720
21
5300
0
SOLID
5
28E
100
AcDbEntity
8
section_A_A_d
6
CONTINUOUS
62
7
370
0
100
AcDbTrace
10
4485
20
5300
30
0
11
4535
21
5308.32569316
31
0
12
4535
22
5291.67430684
32
0
13
4535
23
5291.67430684
33
0
0
SOLID
5
28F
100
AcDbEntity
8
section_A_A_d
6
CONTINUOUS
62
7
370
0
100
AcDbTrace
10
4720
20
5300
30
0
11
4670
21
5291.67430684
31
0
12
4670
22
5308.32569316
32
0
13
4670
23
5308.32569316
33
0
0
MTEXT
5
290
100
AcDbEntity
8
section_A_A_d
6
CONTINUOUS
62
7
370
0
100
AcDbMText
10
4602.5
20
5352
30
0
40
64
41
128
71
5
72
1
1
235
7
standard
210
0
220
0
230
1
50
0
73
2
44
1
0
LINE
5
291
100
AcDbEntity
8
section_A_A_d
6
CONTINUOUS
62
7
370
0
100
AcDbLine
10
4485
20
5311.45445518
11
4485
21
5301.25
0
LINE
5
292
100
AcDbEntity
8
section_A_A_d
6
CONTINUOUS
62
7
370
0
100
AcDbLine
10
4720
20
5303.6423476
11
4720
21
5301.25
0
ENDBLK
5
10C
330
10A
100
AcDbEntity
8
0
100
AcDbBlockEnd
0
BLOCK
5
10E
330
10D
100
AcDbEntity
8
0
100
AcDbBlockBegin
2
*D23
70
1
10
0
20
0
3
*D23
1

0
LINE
5
293
100
AcDbEntity
8
section_A_A_d
6
CONTINUOUS
62
7
370
0
100
AcDbLine
10
1135
20
3800
11
1910
21
3800
0
SOLID
5
294
100
AcDbEntity
8
section_A_A_d
6
CONTINUOUS
62
7
370
0
100
AcDbTrace
10
1135
20
3800
30
0
11
1185
21
3808.32569316
31
0
12
1185
22
3791.67430684
32
0
13
1185
23
3791.67430684
33
0
0
SOLID
5
295
100
AcDbEntity
8
section_A_A_d
6
CONTINUOUS
62
7
370
0
100
AcDbTrace
10
1910
20
3800
30
0
11
1860
21
3791.67430684
31
0
12
1860
22
3808.32569316
32
0
13
1860
23
3808.32569316
33
0
0
MTEXT
5
296
100
AcDbEntity
8
section_A_A_d
6
CONTINUOUS
62
7
370
0
100
AcDbMText
10
1522.5
20
3852
30
0
40
64
41
128
71
5
72
1
1
775
7
standard
210
0
220
0
230
1
50
0
73
2
44
1
0
LINE
5
297
100
AcDbEntity
8
section_A_A_d
6
CONTINUOUS
62
7
370
0
100
AcDbLine
10
1135
20
3821.87581937
11
1135
21
3798.75
0
LINE
5
298
100
AcDbEntity
8
section_A_A_d
6
CONTINUOUS
62
7
370
0
100
AcDbLine
10
1910
20
3821.87581937
11
1910
21
3798.75
0
ENDBLK
5
10F
330
10D
100
AcDbEntity
8
0
100
AcDbBlockEnd
0
BLOCK
5
111
330
110
100
AcDbEntity
8
0
100
AcDbBlockBegin
2
*D15
70
1
10
0
20
0
3
*D15
1

0
LINE
5
299
100
AcDbEntity
8
section_A_A_d
6
CONTINUOUS
62
7
370
0
100
AcDbLine
10
3065
20
5500
11
5370
21
5500
0
SOLID
5
29A
100
AcDbEntity
8
section_A_A_d
6
CONTINUOUS
62
7
370
0
100
AcDbTrace
10
3065
20
5500
30
0
11
3115
21
5508.32569316
31
0
12
3115
22
5491.67430684
32
0
13
3115
23
5491.67430684
33
0
0
SOLID
5
29B
100
AcDbEntity
8
section_A_A_d
6
CONTINUOUS
62
7
370
0
100
AcDbTrace
10
5370
20
5500
30
0
11
5320
21
5491.67430684
31
0
12
5320
22
5508.32569316
32
0
13
5320
23
5508.32569316
33
0
0
MTEXT
5
29C
100
AcDbEntity
8
section_A_A_d
6
CONTINUOUS
62
7
370
0
100
AcDbMText
10
4217.5
20
5552
30
0
40
64
41
177.777777778
71
5
72
1
1
2305
7
standard
210
0
220
0
230
1
50
0
73
2
44
1
0
LINE
5
29D
100
AcDbEntity
8
section_A_A_d
6
CONTINUOUS
62
7
370
0
100
AcDbLine
10
3065
20
5422.9873598
11
3065
21
5501.25
0
LINE
5
29E
100
AcDbEntity
8
section_A_A_d
6
CONTINUOUS
62
7
370
0
100
AcDbLine
10
5370
20
5418.10479257
11
5370
21
5501.25
0
ENDBLK
5
112
330
110
100
AcDbEntity
8
0
100
AcDbBlockEnd
0
BLOCK
5
114
330
113
100
AcDbEntity
8
0
100
AcDbBlockBegin
2
*D42
70
1
10
0
20
0
3
*D42
1

0
LINE
5
29F
100
AcDbEntity
8
section_A_A_d
6
CONTINUOUS
62
7
370
0
100
AcDbLine
10
2645
20
5300
11
2975
21
5300
0
SOLID
5
2A0
100
AcDbEntity
8
section_A_A_d
6
CONTINUOUS
62
7
370
0
100
AcDbTrace
10
2645
20
5300
30
0
11
2695
21
5308.32569316
31
0
12
2695
22
5291.67430684
32
0
13
2695
23
5291.67430684
33
0
0
SOLID
5
2A1
100
AcDbEntity
8
section_A_A_d
6
CONTINUOUS
62
7
370
0
100
AcDbTrace
10
2975
20
5300
30
0
11
2925
21
5291.67430684
31
0
12
2925
22
5308.32569316
32
0
13
2925
23
5308.32569316
33
0
0
MTEXT
5
2A2
100
AcDbEntity
8
section_A_A_d
6
CONTINUOUS
62
7
370
0
100
AcDbMText
10
2810
20
5352
30
0
40
64
41
128
71
5
72
1
1
330
7
standard
210
0
220
0
230
1
50
0
73
2
44
1
0
LINE
5
2A3
100
AcDbEntity
8
section_A_A_d
6
CONTINUOUS
62
7
370
0
100
AcDbLine
10
2645
20
5311.45445518
11
2645
21
5301.25
0
LINE
5
2A4
100
AcDbEntity
8
section_A_A_d
6
CONTINUOUS
62
7
370
0
100
AcDbLine
10
2975
20
5307.54840139
11
2975
21
5301.25
0
ENDBLK
5
115
330
113
100
AcDbEntity
8
0
100
AcDbBlockEnd
0
BLOCK
5
117
330
116
100
AcDbEntity
8
0
100
AcDbBlockBegin
2
*D14
70
1
10
0
20
0
3
*D14
1

0
LINE
5
2A5
100
AcDbEntity
8
section_A_A_d
6
CONTINUOUS
62
7
370
0
100
AcDbLine
10
5460
20
5500
11
7655
21
5500
0
SOLID
5
2A6
100
AcDbEntity
8
section_A_A_d
6
CONTINUOUS
62
7
370
0
100
AcDbTrace
10
5460
20
5500
30
0
11
5510
21
5508.32569316
31
0
12
5510
22
5491.67430684
32
0
13
5510
23
5491.67430684
33
0
0
SOLID
5
2A7
100
AcDbEntity
8
section_A_A_d
6
CONTINUOUS
62
7
370
0
100
AcDbTrace
10
7655
20
5500
30
0
11
7605
21
5491.67430684
31
0
12
7605
22
5508.32569316
32
0
13
7605
23
5508.32569316
33
0
0
MTEXT
5
2A8
100
AcDbEntity
8
section_A_A_d
6
CONTINUOUS
62
7
370
0
100
AcDbMText
10
6557.5
20
5552
30
0
40
64
41
163.555555556
71
5
72
1
1
2195
7
standard
210
0
220
0
230
1
50
0
73
2
44
1
0
LINE
5
2A9
100
AcDbEntity
8
section_A_A_d
6
CONTINUOUS
62
7
370
0
100
AcDbLine
10
5460
20
5447.40019599
11
5460
21
5501.25
0
LINE
5
2AA
100
AcDbEntity
8
section_A_A_d
6
CONTINUOUS
62
7
370
0
100
AcDbLine
10
7655
20
5490.36678768
11
7655
21
5501.25
0
ENDBLK
5
118
330
116
100
AcDbEntity
8
0
100
AcDbBlockEnd
0
BLOCK
5
11A
330
119
100
AcDbEntity
8
0
100
AcDbBlockBegin
2
*D56
70
1
10
0
20
0
3
*D56
1

0
LINE
5
2AB
100
AcDbEntity
8
section_A_A_d
6
CONTINUOUS
62
7
370
0
100
AcDbLine
10
2442.5
20
2000
11
2775
21
2000
0
SOLID
5
2AC
100
AcDbEntity
8
section_A_A_d
6
CONTINUOUS
62
7
370
0
100
AcDbTrace
10
2442.5
20
2000
30
0
11
2492.5
21
2008.32569316
31
0
12
2492.5
22
1991.67430684
32
0
13
2492.5
23
1991.67430684
33
0
0
SOLID
5
2AD
100
AcDbEntity
8
section_A_A_d
6
CONTINUOUS
62
7
370
0
100
AcDbTrace
10
2775
20
2000
30
0
11
2725
21
1991.67430684
31
0
12
2725
22
2008.32569316
32
0
13
2725
23
2008.32569316
33
0
0
MTEXT
5
2AE
100
AcDbEntity
8
section_A_A_d
6
CONTINUOUS
62
7
370
0
100
AcDbMText
10
2608.75
20
2052
30
0
40
64
41
199.111111111
71
5
72
1
1
332.5
7
standard
210
0
220
0
230
1
50
0
73
2
44
1
0
LINE
5
2AF
100
AcDbEntity
8
section_A_A_d
6
CONTINUOUS
62
7
370
0
100
AcDbLine
10
2442.5
20
2008.49034735
11
2442.5
21
1998.75
0
LINE
5
2B0
100
AcDbEntity
8
section_A_A_d
6
CONTINUOUS
62
7
370
0
100
AcDbLine
10
2775
20
2008.49034735
11
2775
21
1998.75
0
ENDBLK
5
11B
330
119
100
AcDbEntity
8
0
100
AcDbBlockEnd
0
BLOCK
5
11D
330
11C
100
AcDbEntity
8
0
100
AcDbBlockBegin
2
a3-0
70
0
10
0
20
0
3
a3-0
1

0
LINE
5
2B1
100
AcDbEntity
8
0
6
ByLayer
62
256
370
-1
100
AcDbLine
10
4100
20
2870
11
4100
21
100
0
LINE
5
2B2
100
AcDbEntity
8
0
6
ByLayer
62
256
370
-1
100
AcDbLine
10
200
20
2870
11
200
21
100
0
LINE
5
2B3
100
AcDbEntity
8
0
6
ByLayer
62
256
370
-1
100
AcDbLine
10
200
20
100
11
4100
21
100
0
LINE
5
2B4
100
AcDbEntity
8
0
6
ByLayer
62
256
370
-1
100
AcDbLine
10
2500
20
600.001
11
4100
21
600
0
LINE
5
2B5
100
AcDbEntity
8
0
6
ByLayer
62
256
370
-1
100
AcDbLine
10
2500
20
500
11
4100
21
500
0
LINE
5
2B6
100
AcDbEntity
8
0
6
ByLayer
62
256
370
-1
100
AcDbLine
10
2500
20
600.001
11
2500
21
100
0
LINE
5
2B7
100
AcDbEntity
8
0
6
ByLayer
62
256
370
-1
100
AcDbLine
10
2500
20
300.001
11
4100
21
300
0
LINE
5
2B8
100
AcDbEntity
8
0
6
ByLayer
62
256
370
-1
100
AcDbLine
10
2900
20
600.001
11
2900
21
100
0
LINE
5
2B9
100
AcDbEntity
8
0
6
ByLayer
62
256
370
-1
100
AcDbLine
10
3200
20
600.001
11
3200
21
100
0
LINE
5
2BA
100
AcDbEntity
8
0
6
ByLayer
62
7
370
-1
100
AcDbLine
10
3200
20
200
11
3900
21
200
0
LINE
5
2BB
100
AcDbEntity
8
0
6
ByLayer
62
256
370
-1
100
AcDbLine
10
3900
20
300
11
3900
21
100
0
LINE
5
2BC
100
AcDbEntity
8
0
6
ByLayer
62
7
370
-1
100
AcDbLine
10
3500
20
300
11
3500
21
100
0
MTEXT
5
2BD
100
AcDbEntity
8
0
6
ByLayer
62
256
370
-1
100
AcDbMText
10
3231.449088
20
269.746176
30
0
40
40
41
233.333324853
71
1
72
5
1
SIZE  A3
7
iso
210
0
220
0
230
1
50
0
73
2
44
0.96
0
MTEXT
5
2BE
100
AcDbEntity
8
0
6
ByLayer
62
256
370
-1
100
AcDbMText
10
3229.61408
20
174.32576
30
0
40
40
41
243.333324853
71
1
72
5
1
SCALE 1:1
7
iso
210
0
220
0
230
1
50
0
73
2
44
0.96
0
MTEXT
5
2BF
100
AcDbEntity
8
0
6
ByLayer
62
256
370
-1
100
AcDbMText
10
3609.460736
20
166.985728
30
0
40
40
41
168.888880409
71
1
72
5
1
AS1100
7
iso
210
0
220
0
230
1
50
0
73
2
44
0.96
0
MTEXT
5
2C0
100
AcDbEntity
8
0
6
ByLayer
62
256
370
-1
100
AcDbMText
10
3444.310016
20
433.061888
30
0
40
60
41
365
71
1
72
5
1
ANDY XU
7
iso
210
0
220
0
230
1
50
0
73
2
44
0.96
0
LINE
5
2C1
100
AcDbEntity
8
0
6
ByLayer
62
256
370
-1
100
AcDbLine
10
200
20
2870
11
4100
21
2870
0
LINE
5
2C2
100
AcDbEntity
8
0
6
ByLayer
62
256
370
-1
100
AcDbLine
10
2500
20
400
11
3200
21
400
0
LINE
5
2C3
100
AcDbEntity
8
0
6
ByLayer
62
256
370
-1
100
AcDbLine
10
2500
20
350
11
3200
21
350
0
LINE
5
2C4
100
AcDbEntity
8
0
6
ByLayer
62
256
370
-1
100
AcDbLine
10
2500
20
450.001
11
3200
21
450.001
0
LINE
5
2C5
100
AcDbEntity
8
0
6
ByLayer
62
256
370
-1
100
AcDbLine
10
3048
20
228
11
3048
21
172
0
CIRCLE
5
2C6
100
AcDbEntity
8
0
6
ByLayer
62
256
370
-1
100
AcDbCircle
10
3112
20
200
40
28
0
LINE
5
2C7
100
AcDbEntity
8
0
6
ByLayer
62
256
370
-1
100
AcDbLine
10
2960
20
200
11
3160
21
200
0
LINE
5
2C8
100
AcDbEntity
8
0
6
ByLayer
62
256
370
-1
100
AcDbLine
10
2984
20
216
11
3048
21
228
0
LINE
5
2C9
100
AcDbEntity
8
0
6
ByLayer
62
256
370
-1
100
AcDbLine
10
2984
20
184
11
3048
21
172
0
LINE
5
2CA
100
AcDbEntity
8
0
6
ByLayer
62
256
370
-1
100
AcDbLine
10
2984
20
216
11
2984
21
184
0
LINE
5
2CB
100
AcDbEntity
8
0
6
ByLayer
62
256
370
-1
100
AcDbLine
10
3112
20
152
11
3112
21
248
0
CIRCLE
5
2CC
100
AcDbEntity
8
0
6
ByLayer
62
256
370
-1
100
AcDbCircle
10
3112
20
200
40
16
0
MTEXT
5
2CD
100
AcDbEntity
8
0
6
ByLayer
62
256
370
-1
100
AcDbMText
10
3920
20
248.333332468
30
0
40
30
41
103.344762494
71
7
72
5
1
sheet
7
normal#0.500000#0.900000
210
0
220
0
230
1
50
0
73
1
44
0.96
0
ENDBLK
5
11E
330
11C
100
AcDbEntity
8
0
100
AcDbBlockEnd
0
BLOCK
5
120
330
11F
100
AcDbEntity
8
0
100
AcDbBlockBegin
2
A3_Xu-0
70
0
10
0
20
0
3
A3_Xu-0
1

0
INSERT
5
2CE
100
AcDbEntity
8
0
6
ByLayer
62
256
370
-1
100
AcDbBlockReference
2
a3-0
10
0
20
0
30
0
41
1
42
1
43
0
50
0
70
1
71
1
44
0
45
0
0
ENDBLK
5
121
330
11F
100
AcDbEntity
8
0
100
AcDbBlockEnd
0
ENDSEC
0
SECTION
2
ENTITIES
0
HATCH
5
2CF
100
AcDbEntity
8
Foundation
6
ByLayer
62
256
370
-1
100
AcDbHatch
10
0
20
0
30
0
210
0
220
0
230
1
2
kerpele
70
0
71
0
91
1
92
0
93
4
72
1
10
5142
20
2105
11
5348
21
2105
72
1
10
5348
20
2105
11
5348
21
1985
72
1
10
5348
20
1985
11
5142
21
1985
72
1
10
5142
20
1985
11
5142
21
2105
97
0
75
0
76
1
52
0
41
1
77
0
78
0
98
0
0
HATCH
5
2D0
100
AcDbEntity
8
Foundation
6
ByLayer
62
256
370
-1
100
AcDbHatch
10
0
20
0
30
0
210
0
220
0
230
1
2
kerpele
70
0
71
0
91
1
92
0
93
4
72
1
10
3087
20
2105
11
3293
21
2105
72
1
10
3293
20
2105
11
3293
21
1985
72
1
10
3293
20
1985
11
3087
21
1985
72
1
10
3087
20
1985
11
3087
21
2105
97
0
75
0
76
1
52
0
41
1
77
0
78
0
98
0
0
HATCH
5
2D1
100
AcDbEntity
8
Foundation
6
ByLayer
62
256
370
-1
100
AcDbHatch
10
0
20
0
30
0
210
0
220
0
230
1
2
kerpele
70
0
71
0
91
1
92
0
93
4
72
1
10
1112
20
2105
11
1318
21
2105
72
1
10
1318
20
2105
11
1318
21
1985
72
1
10
1318
20
1985
11
1112
21
1985
72
1
10
1112
20
1985
11
1112
21
2105
97
0
75
0
76
1
52
0
41
1
77
0
78
0
98
0
0
HATCH
5
2D2
100
AcDbEntity
8
Foundation
6
ByLayer
62
256
370
-1
100
AcDbHatch
10
0
20
0
30
0
210
0
220
0
230
1
2
kerpele
70
0
71
0
91
1
92
0
93
4
72
1
10
7117
20
2105
11
7323
21
2105
72
1
10
7323
20
2105
11
7323
21
1985
72
1
10
7323
20
1985
11
7117
21
1985
72
1
10
7117
20
1985
11
7117
21
2105
97
0
75
0
76
1
52
0
41
1
77
0
78
0
98
0
0
HATCH
5
2D3
100
AcDbEntity
8
Foundation
6
ByLayer
62
256
370
-1
100
AcDbHatch
10
0
20
0
30
0
210
0
220
0
230
1
2
kerpele
70
0
71
0
91
1
92
0
93
4
72
1
10
1100
20
2364
11
1100
21
2345
72
1
10
1100
20
2345
11
7335
21
2345
72
1
10
7335
20
2345
11
7335
21
2364
72
1
10
7335
20
2364
11
1100
21
2364
97
0
75
0
76
1
52
0
41
1
77
0
78
0
98
0
0
INSERT
5
2D4
100
AcDbEntity
8
0
6
ByLayer
62
256
370
-1
100
AcDbBlockReference
2
A3_Xu-0
10
-440
20
-220
30
0
41
2.2
42
2.2
43
0
50
0
70
1
71
1
44
0
45
0
0
LINE
5
2D5
100
AcDbEntity
8
section_A_A
6
ByLayer
62
256
370
-1
100
AcDbLine
10
1100
20
2399
11
1100
21
2364
0
LINE
5
2D6
100
AcDbEntity
8
Foundation
6
ByLayer
62
256
370
-1
100
AcDbLine
10
7335
20
2364
11
7335
21
2345
0
LINE
5
2D7
100
AcDbEntity
8
Foundation
6
ByLayer
62
256
370
-1
100
AcDbLine
10
1100
20
2345
11
7335
21
2345
0
LINE
5
2D8
100
AcDbEntity
8
Foundation
6
ByLayer
62
256
370
-1
100
AcDbLine
10
7335
20
2364
11
7335
21
2345
0
LINE
5
2D9
100
AcDbEntity
8
Foundation
6
ByLayer
62
256
370
-1
100
AcDbLine
10
1100
20
2345
11
7335
21
2345
0
LINE
5
2DA
100
AcDbEntity
8
Foundation
6
ByLayer
62
256
370
-1
100
AcDbLine
10
1100
20
2364
11
7335
21
2364
0
LINE
5
2DB
100
AcDbEntity
8
section_A_A
6
ByLayer
62
256
370
-1
100
AcDbLine
10
1100
20
2399
11
3020
21
2399
0
LINE
5
2DC
100
AcDbEntity
8
section_A_A
6
ByLayer
62
256
370
-1
100
AcDbLine
10
5415
20
2399
11
7335
21
2399
0
LINE
5
2DD
100
AcDbEntity
8
section_A_A
6
ByLayer
62
256
370
-1
100
AcDbLine
10
3020
20
2399
11
3750
21
2399
0
LINE
5
2DE
100
AcDbEntity
8
section_A_A
6
ByLayer
62
256
370
-1
100
AcDbLine
10
4685
20
2399
11
5415
21
2399
0
LINE
5
2DF
100
AcDbEntity
8
section_A_A
6
ByLayer
62
256
370
-1
100
AcDbLine
10
3065
20
4529
11
3065
21
4175
0
LINE
5
2E0
100
AcDbEntity
8
section_A_A
6
ByLayer
62
256
370
-1
100
AcDbLine
10
5370
20
4529
11
5370
21
4175
0
LINE
5
2E1
100
AcDbEntity
8
section_A_A
6
ByLayer
62
256
370
-1
100
AcDbLine
10
4685
20
2364
11
7335
21
2364
0
LINE
5
2E2
100
AcDbEntity
8
section_A_A
6
ByLayer
62
256
370
-1
100
AcDbLine
10
1100
20
2364
11
3750
21
2364
0
CIRCLE
5
2E3
100
AcDbEntity
8
section_A_A_d
6
ByLayer
62
256
370
-1
100
AcDbCircle
10
3020
20
1314
40
100
0
LINE
5
2E4
100
AcDbEntity
8
section_A_A_d
6
CENTER2
62
256
370
-1
100
AcDbLine
10
3020
20
2264
11
3020
21
1414
0
CIRCLE
5
2E5
100
AcDbEntity
8
section_A_A_d
6
ByLayer
62
256
370
-1
100
AcDbCircle
10
5415
20
1314
40
100
0
LINE
5
2E6
100
AcDbEntity
8
section_A_A_d
6
CENTER2
62
256
370
-1
100
AcDbLine
10
5415
20
2264
11
5415
21
1414
0
MTEXT
5
2E7
100
AcDbEntity
8
section_A_A_d
6
ByLayer
62
256
370
-1
100
AcDbMText
10
3000
20
1364
30
0
40
96
41
53.3333333333
71
1
72
1
1
4
7
standard
210
0
220
0
230
1
50
0
73
2
44
1
0
MTEXT
5
2E8
100
AcDbEntity
8
section_A_A_d
6
ByLayer
62
256
370
-1
100
AcDbMText
10
5395
20
1364
30
0
40
96
41
42.6666666667
71
1
72
1
1
8
7
standard
210
0
220
0
230
1
50
0
73
2
44
1
0
CIRCLE
5
2E9
100
AcDbEntity
8
section_A_A_d
6
ByLayer
62
256
370
-1
100
AcDbCircle
10
1100
20
1314
40
100
0
LINE
5
2EA
100
AcDbEntity
8
section_A_A_d
6
CENTER2
62
256
370
-1
100
AcDbLine
10
1100
20
2264
11
1100
21
1414
0
MTEXT
5
2EB
100
AcDbEntity
8
section_A_A_d
6
ByLayer
62
256
370
-1
100
AcDbMText
10
1080
20
1364
30
0
40
96
41
21.3333333333
71
1
72
1
1
1
7
standard
210
0
220
0
230
1
50
0
73
2
44
1
0
CIRCLE
5
2EC
100
AcDbEntity
8
section_A_A_d
6
ByLayer
62
256
370
-1
100
AcDbCircle
10
7335
20
1314
40
100
0
LINE
5
2ED
100
AcDbEntity
8
section_A_A_d
6
CENTER2
62
256
370
-1
100
AcDbLine
10
7335
20
2264
11
7335
21
1414
0
MTEXT
5
2EE
100
AcDbEntity
8
section_A_A_d
6
ByLayer
62
256
370
-1
100
AcDbMText
10
7287.5
20
1360
30
0
40
96
41
74.6666666667
71
1
72
1
1
11
7
standard
210
0
220
0
230
1
50
0
73
2
44
1
0
CIRCLE
5
2EF
100
AcDbEntity
8
section_A_A_d
6
ByLayer
62
256
370
-1
100
AcDbCircle
10
8365
20
2399
40
100
0
LINE
5
2F0
100
AcDbEntity
8
section_A_A_d
6
CENTER2
62
256
370
-1
100
AcDbLine
10
8265
20
2399
11
7435
21
2399
0
MTEXT
5
2F1
100
AcDbEntity
8
section_A_A_d
6
ByLayer
62
256
370
-1
100
AcDbMText
10
160
20
2450
30
0
40
96
41
64
71
1
72
1
1
A
7
standard
210
0
220
0
230
1
50
0
73
2
44
1
0
DIMENSION
5
2F2
100
AcDbEntity
8
section_A_A_d
6
ByLayer
62
256
370
-1
100
AcDbDimension
2
*D1
10
7335
20
1800
30
0
11
6375
21
1852
31
0
70
32
71
5
72
0
3
Standard
53
0
210
0
220
0
230
1
100
AcDbAlignedDimension
13
5415
23
1867.09371163
33
0
14
7335
24
1863.18765784
34
0
100
AcDbRotatedDimension
0
DIMENSION
5
2F3
100
AcDbEntity
8
section_A_A_d
6
ByLayer
62
256
370
-1
100
AcDbDimension
2
*D2
10
3020
20
1800
30
0
11
2060
21
1852
31
0
70
32
71
5
72
0
3
Standard
53
0
210
0
220
0
230
1
100
AcDbAlignedDimension
13
1100
23
1845.61041578
33
0
14
3020
24
1845.61041578
34
0
100
AcDbRotatedDimension
0
DIMENSION
5
2F4
100
AcDbEntity
8
section_A_A_d
6
ByLayer
62
256
370
-1
100
AcDbDimension
2
*D3
10
7335
20
1600
30
0
11
4217.5
21
1652
31
0
70
32
71
5
72
0
3
Standard
53
0
210
0
220
0
230
1
100
AcDbAlignedDimension
13
1100
23
1655.19029352
33
0
14
7335
24
1655.19029352
34
0
100
AcDbRotatedDimension
0
MTEXT
5
2F5
100
AcDbEntity
8
section_A_A_d
6
ByLayer
62
256
370
-1
100
AcDbMText
10
6850
20
1060
30
0
40
128
41
1105.77775064
71
1
72
1
1
SECTION A-A
7
standard
210
0
220
0
230
1
50
0
73
2
44
1
0
LINE
5
2F6
100
AcDbEntity
8
section_A_A_d
6
CENTER2
62
256
370
-1
100
AcDbLine
10
3750
20
2264
11
3750
21
1714
0
LINE
5
2F7
100
AcDbEntity
8
section_A_A_d
6
CENTER2
62
256
370
-1
100
AcDbLine
10
4685
20
2264
11
4685
21
1714
0
MTEXT
5
2F8
100
AcDbEntity
8
section_A_A_d
6
ByLayer
62
256
370
-1
100
AcDbMText
10
8340
20
2445
30
0
40
96
41
64
71
1
72
1
1
A
7
standard
210
0
220
0
230
1
50
0
73
2
44
1
0
CIRCLE
5
2F9
100
AcDbEntity
8
section_A_A_d
6
ByLayer
62
256
370
-1
100
AcDbCircle
10
8365
20
4154
40
100
0
LINE
5
2FA
100
AcDbEntity
8
section_A_A_d
6
CENTER2
62
256
370
-1
100
AcDbLine
10
8265
20
4154
11
6535
21
4154
0
MTEXT
5
2FB
100
AcDbEntity
8
section_A_A_d
6
ByLayer
62
256
370
-1
100
AcDbMText
10
8340
20
4200
30
0
40
96
41
42.6666666667
71
1
72
1
1
C
7
standard
210
0
220
0
230
1
50
0
73
2
44
1
0
DIMENSION
5
2FC
100
AcDbEntity
8
section_A_A_d
6
ByLayer
62
256
370
-1
100
AcDbDimension
2
*D4
10
7900
20
2399
30
0
11
7848
21
3276.5
31
0
70
32
71
5
3
Standard
53
0
210
0
220
0
230
1
100
AcDbAlignedDimension
13
7860.93325243
23
4154
33
0
14
7865.81581967
24
2399
34
0
50
90
100
AcDbRotatedDimension
0
CIRCLE
5
2FD
100
AcDbEntity
8
section_A_A_d
6
ByLayer
62
256
370
-1
100
AcDbCircle
10
185
20
4154
40
100
0
MTEXT
5
2FE
100
AcDbEntity
8
section_A_A_d
6
ByLayer
62
256
370
-1
100
AcDbMText
10
160
20
4205
30
0
40
96
41
42.6666666667
71
1
72
1
1
C
7
standard
210
0
220
0
230
1
50
0
73
2
44
1
0
CIRCLE
5
2FF
100
AcDbEntity
8
section_A_A_d
6
ByLayer
62
256
370
-1
100
AcDbCircle
10
185
20
2399
40
100
0
LINE
5
300
100
AcDbEntity
8
section_A_A_d
6
CENTER2
62
256
370
-1
100
AcDbLine
10
1000
20
2399
11
285
21
2399
0
MTEXT
5
301
100
AcDbEntity
8
section_A_A_d
6
ByLayer
62
256
370
-1
100
AcDbMText
10
160
20
4371
30
0
40
96
41
53.3333333333
71
1
72
1
1
D
7
standard
210
0
220
0
230
1
50
0
73
2
44
1
0
LINE
5
302
100
AcDbEntity
8
section_A_A_d
6
CENTER2
62
256
370
-1
100
AcDbLine
10
1900
20
4154
11
285
21
4154
0
DIMENSION
5
303
100
AcDbEntity
8
section_A_A_d
6
ByLayer
62
256
370
-1
100
AcDbDimension
2
*D5
10
600
20
2399
30
0
11
548
21
3276.5
31
0
70
32
71
5
3
Standard
53
0
210
0
220
0
230
1
100
AcDbAlignedDimension
13
644.498875355
23
4154
33
0
14
632.780713985
24
2399
34
0
50
90
100
AcDbRotatedDimension
0
LINE
5
304
100
AcDbEntity
8
section_A_A_d
6
ByLayer
62
256
370
-1
100
AcDbLine
10
5060
20
1.7763568394e-14
11
3374
21
1.7763568394e-14
0
LINE
5
305
100
AcDbEntity
8
section_A_A_d
6
ByLayer
62
256
370
-1
100
AcDbLine
10
3374
20
1.7763568394e-14
11
3374
21
110
0
LINE
5
306
100
AcDbEntity
8
section_A_A_d
6
ByLayer
62
256
370
-1
100
AcDbLine
10
3374
20
110
11
5060
21
110
0
LINE
5
307
100
AcDbEntity
8
section_A_A_d
6
ByLayer
62
256
370
-1
100
AcDbLine
10
5060
20
110
11
5060
21
1.7763568394e-14
0
LINE
5
308
100
AcDbEntity
8
section_A_A_d
6
ByLayer
62
256
370
-1
100
AcDbLine
10
3374
20
110
11
3374
21
220
0
LINE
5
309
100
AcDbEntity
8
section_A_A_d
6
ByLayer
62
256
370
-1
100
AcDbLine
10
3374
20
220
11
5060
21
220
0
LINE
5
30A
100
AcDbEntity
8
section_A_A_d
6
ByLayer
62
256
370
-1
100
AcDbLine
10
5060
20
220
11
5060
21
110
0
LINE
5
30B
100
AcDbEntity
8
section_A_A_d
6
ByLayer
62
256
370
-1
100
AcDbLine
10
3374
20
220
11
3374
21
330
0
LINE
5
30C
100
AcDbEntity
8
section_A_A_d
6
ByLayer
62
256
370
-1
100
AcDbLine
10
3374
20
330
11
5060
21
330
0
LINE
5
30D
100
AcDbEntity
8
section_A_A_d
6
ByLayer
62
256
370
-1
100
AcDbLine
10
5060
20
330
11
5060
21
220
0
LINE
5
30E
100
AcDbEntity
8
section_A_A_d
6
ByLayer
62
256
370
-1
100
AcDbLine
10
3374
20
330
11
3374
21
440
0
LINE
5
30F
100
AcDbEntity
8
section_A_A_d
6
ByLayer
62
256
370
-1
100
AcDbLine
10
3374
20
440
11
5060
21
440
0
LINE
5
310
100
AcDbEntity
8
section_A_A_d
6
ByLayer
62
256
370
-1
100
AcDbLine
10
5060
20
440
11
5060
21
330
0
LINE
5
311
100
AcDbEntity
8
section_A_A_d
6
ByLayer
62
256
370
-1
100
AcDbLine
10
3374
20
440
11
3374
21
550
0
LINE
5
312
100
AcDbEntity
8
section_A_A_d
6
ByLayer
62
256
370
-1
100
AcDbLine
10
3374
20
550
11
5060
21
550
0
LINE
5
313
100
AcDbEntity
8
section_A_A_d
6
ByLayer
62
256
370
-1
100
AcDbLine
10
5060
20
550
11
5060
21
440
0
LINE
5
314
100
AcDbEntity
8
section_A_A_d
6
ByLayer
62
256
370
-1
100
AcDbLine
10
3374
20
550
11
3374
21
660
0
LINE
5
315
100
AcDbEntity
8
section_A_A_d
6
ByLayer
62
256
370
-1
100
AcDbLine
10
3374
20
660
11
5060
21
660
0
LINE
5
316
100
AcDbEntity
8
section_A_A_d
6
ByLayer
62
256
370
-1
100
AcDbLine
10
5060
20
660
11
5060
21
550
0
LINE
5
317
100
AcDbEntity
8
section_A_A_d
6
ByLayer
62
256
370
-1
100
AcDbLine
10
3374
20
660
11
3374
21
770
0
LINE
5
318
100
AcDbEntity
8
section_A_A_d
6
ByLayer
62
256
370
-1
100
AcDbLine
10
3374
20
770
11
5060
21
770
0
LINE
5
319
100
AcDbEntity
8
section_A_A_d
6
ByLayer
62
256
370
-1
100
AcDbLine
10
5060
20
770
11
5060
21
660
0
LINE
5
31A
100
AcDbEntity
8
section_A_A_d
6
ByLayer
62
256
370
-1
100
AcDbLine
10
3374
20
770
11
3374
21
880
0
LINE
5
31B
100
AcDbEntity
8
section_A_A_d
6
ByLayer
62
256
370
-1
100
AcDbLine
10
3374
20
880
11
5060
21
880
0
LINE
5
31C
100
AcDbEntity
8
section_A_A_d
6
ByLayer
62
256
370
-1
100
AcDbLine
10
5060
20
880
11
5060
21
770
0
MTEXT
5
31D
100
AcDbEntity
8
section_A_A_d
6
ByLayer
62
256
370
-1
100
AcDbMText
10
3400
20
860
30
0
40
64
41
419.555541987
71
1
72
1
1
DEMINSION
7
standard
210
0
220
0
230
1
50
0
73
2
44
1
0
LINE
5
31E
100
AcDbEntity
8
section_A_A_d
6
ByLayer
62
256
370
-1
100
AcDbLine
10
3843.006957
20
880
11
3843.006957
21
1.7763568394e-14
0
MTEXT
5
31F
100
AcDbEntity
8
section_A_A_d
6
ByLayer
62
256
370
-1
100
AcDbMText
10
3870
20
860
30
0
40
64
41
298.666666667
71
1
72
1
1
DEGREE
7
standard
210
0
220
0
230
1
50
0
73
2
44
1
0
LINE
5
320
100
AcDbEntity
8
section_A_A_d
6
ByLayer
62
256
370
-1
100
AcDbLine
10
4180.98677951
20
880
11
4180.98677951
21
1.7763568394e-14
0
MTEXT
5
321
100
AcDbEntity
8
section_A_A_d
6
ByLayer
62
256
370
-1
100
AcDbMText
10
4720
20
860
30
0
40
64
41
320
71
1
72
1
1
NUMBER
7
standard
210
0
220
0
230
1
50
0
73
2
44
1
0
LINE
5
322
100
AcDbEntity
8
section_A_A_d
6
ByLayer
62
256
370
-1
100
AcDbLine
10
4700.45203569
20
880
11
4700.45203569
21
1.7763568394e-14
0
MTEXT
5
323
100
AcDbEntity
8
section_A_A_d
6
ByLayer
62
256
370
-1
100
AcDbMText
10
4280
20
860
30
0
40
64
41
305.777777778
71
1
72
1
1
LENGTH
7
standard
210
0
220
0
230
1
50
0
73
2
44
1
0
LINE
5
324
100
AcDbEntity
8
section_A_A_d
6
ByLayer
62
256
370
-1
100
AcDbLine
10
3374
20
1.7763568394e-14
11
1688
21
1.7763568394e-14
0
LINE
5
325
100
AcDbEntity
8
section_A_A_d
6
ByLayer
62
256
370
-1
100
AcDbLine
10
1688
20
1.7763568394e-14
11
1688
21
110
0
LINE
5
326
100
AcDbEntity
8
section_A_A_d
6
ByLayer
62
256
370
-1
100
AcDbLine
10
1688
20
110
11
3374
21
110
0
LINE
5
327
100
AcDbEntity
8
section_A_A_d
6
ByLayer
62
256
370
-1
100
AcDbLine
10
3374
20
110
11
3374
21
1.7763568394e-14
0
LINE
5
328
100
AcDbEntity
8
section_A_A_d
6
ByLayer
62
256
370
-1
100
AcDbLine
10
1688
20
110
11
1688
21
220
0
LINE
5
329
100
AcDbEntity
8
section_A_A_d
6
ByLayer
62
256
370
-1
100
AcDbLine
10
1688
20
220
11
3374
21
220
0
LINE
5
32A
100
AcDbEntity
8
section_A_A_d
6
ByLayer
62
256
370
-1
100
AcDbLine
10
3374
20
220
11
3374
21
110
0
LINE
5
32B
100
AcDbEntity
8
section_A_A_d
6
ByLayer
62
256
370
-1
100
AcDbLine
10
1688
20
220
11
1688
21
330
0
LINE
5
32C
100
AcDbEntity
8
section_A_A_d
6
ByLayer
62
256
370
-1
100
AcDbLine
10
1688
20
330
11
3374
21
330
0
LINE
5
32D
100
AcDbEntity
8
section_A_A_d
6
ByLayer
62
256
370
-1
100
AcDbLine
10
3374
20
330
11
3374
21
220
0
LINE
5
32E
100
AcDbEntity
8
section_A_A_d
6
ByLayer
62
256
370
-1
100
AcDbLine
10
1688
20
330
11
1688
21
440
0
LINE
5
32F
100
AcDbEntity
8
section_A_A_d
6
ByLayer
62
256
370
-1
100
AcDbLine
10
1688
20
440
11
3374
21
440
0
LINE
5
330
100
AcDbEntity
8
section_A_A_d
6
ByLayer
62
256
370
-1
100
AcDbLine
10
3374
20
440
11
3374
21
330
0
LINE
5
331
100
AcDbEntity
8
section_A_A_d
6
ByLayer
62
256
370
-1
100
AcDbLine
10
1688
20
440
11
1688
21
550
0
LINE
5
332
100
AcDbEntity
8
section_A_A_d
6
ByLayer
62
256
370
-1
100
AcDbLine
10
1688
20
550
11
3374
21
550
0
LINE
5
333
100
AcDbEntity
8
section_A_A_d
6
ByLayer
62
256
370
-1
100
AcDbLine
10
3374
20
550
11
3374
21
440
0
LINE
5
334
100
AcDbEntity
8
section_A_A_d
6
ByLayer
62
256
370
-1
100
AcDbLine
10
1688
20
550
11
1688
21
660
0
LINE
5
335
100
AcDbEntity
8
section_A_A_d
6
ByLayer
62
256
370
-1
100
AcDbLine
10
1688
20
660
11
3374
21
660
0
LINE
5
336
100
AcDbEntity
8
section_A_A_d
6
ByLayer
62
256
370
-1
100
AcDbLine
10
3374
20
660
11
3374
21
550
0
LINE
5
337
100
AcDbEntity
8
section_A_A_d
6
ByLayer
62
256
370
-1
100
AcDbLine
10
1688
20
660
11
1688
21
770
0
LINE
5
338
100
AcDbEntity
8
section_A_A_d
6
ByLayer
62
256
370
-1
100
AcDbLine
10
1688
20
770
11
3374
21
770
0
LINE
5
339
100
AcDbEntity
8
section_A_A_d
6
ByLayer
62
256
370
-1
100
AcDbLine
10
3374
20
770
11
3374
21
660
0
LINE
5
33A
100
AcDbEntity
8
section_A_A_d
6
ByLayer
62
256
370
-1
100
AcDbLine
10
1688
20
770
11
1688
21
880
0
LINE
5
33B
100
AcDbEntity
8
section_A_A_d
6
ByLayer
62
256
370
-1
100
AcDbLine
10
1688
20
880
11
3374
21
880
0
LINE
5
33C
100
AcDbEntity
8
section_A_A_d
6
ByLayer
62
256
370
-1
100
AcDbLine
10
3374
20
880
11
3374
21
770
0
MTEXT
5
33D
100
AcDbEntity
8
section_A_A_d
6
ByLayer
62
256
370
-1
100
AcDbMText
10
1714
20
860
30
0
40
64
41
419.555541987
71
1
72
1
1
DEMINSION
7
standard
210
0
220
0
230
1
50
0
73
2
44
1
0
LINE
5
33E
100
AcDbEntity
8
section_A_A_d
6
ByLayer
62
256
370
-1
100
AcDbLine
10
2157.006957
20
880
11
2157.006957
21
1.7763568394e-14
0
MTEXT
5
33F
100
AcDbEntity
8
section_A_A_d
6
ByLayer
62
256
370
-1
100
AcDbMText
10
2184
20
860
30
0
40
64
41
298.666666667
71
1
72
1
1
DEGREE
7
standard
210
0
220
0
230
1
50
0
73
2
44
1
0
LINE
5
340
100
AcDbEntity
8
section_A_A_d
6
ByLayer
62
256
370
-1
100
AcDbLine
10
2494.98677951
20
880
11
2494.98677951
21
1.7763568394e-14
0
MTEXT
5
341
100
AcDbEntity
8
section_A_A_d
6
ByLayer
62
256
370
-1
100
AcDbMText
10
3034
20
860
30
0
40
64
41
320
71
1
72
1
1
NUMBER
7
standard
210
0
220
0
230
1
50
0
73
2
44
1
0
LINE
5
342
100
AcDbEntity
8
section_A_A_d
6
ByLayer
62
256
370
-1
100
AcDbLine
10
3014.45203569
20
880
11
3014.45203569
21
1.7763568394e-14
0
MTEXT
5
343
100
AcDbEntity
8
section_A_A_d
6
ByLayer
62
256
370
-1
100
AcDbMText
10
2594
20
860
30
0
40
64
41
305.777777778
71
1
72
1
1
LENGTH
7
standard
210
0
220
0
230
1
50
0
73
2
44
1
0
MTEXT
5
344
100
AcDbEntity
8
section_A_A_d
6
ByLayer
62
256
370
-1
100
AcDbMText
10
3480
20
640
30
0
40
64
41
227.555555556
71
1
72
1
1
90x35
7
standard
210
0
220
0
230
1
50
0
73
2
44
1
0
MTEXT
5
345
100
AcDbEntity
8
section_A_A_d
6
ByLayer
62
256
370
-1
100
AcDbMText
10
3480
20
530
30
0
40
64
41
227.555555556
71
1
72
1
1
90x35
7
standard
210
0
220
0
230
1
50
0
73
2
44
1
0
MTEXT
5
346
100
AcDbEntity
8
section_A_A_d
6
ByLayer
62
256
370
-1
100
AcDbMText
10
3480
20
420
30
0
40
64
41
227.555555556
71
1
72
1
1
90x35
7
standard
210
0
220
0
230
1
50
0
73
2
44
1
0
MTEXT
5
347
100
AcDbEntity
8
section_A_A_d
6
ByLayer
62
256
370
-1
100
AcDbMText
10
3900
20
640
30
0
40
64
41
220.444444444
71
1
72
1
1
H3-10
7
standard
210
0
220
0
230
1
50
0
73
2
44
1
0
MTEXT
5
348
100
AcDbEntity
8
section_A_A_d
6
ByLayer
62
256
370
-1
100
AcDbMText
10
3900
20
530
30
0
40
64
41
220.444444444
71
1
72
1
1
H3-10
7
standard
210
0
220
0
230
1
50
0
73
2
44
1
0
MTEXT
5
349
100
AcDbEntity
8
section_A_A_d
6
ByLayer
62
256
370
-1
100
AcDbMText
10
3900
20
420
30
0
40
64
41
220.444444444
71
1
72
1
1
H3-10
7
standard
210
0
220
0
230
1
50
0
73
2
44
1
0
DIMENSION
5
34A
100
AcDbEntity
8
section_A_A_d
6
ByLayer
62
256
370
-1
100
AcDbDimension
2
*D6
10
3750
20
2000
30
0
11
3385
21
2052
31
0
70
32
71
5
72
0
3
Standard
53
0
210
0
220
0
230
1
100
AcDbAlignedDimension
13
3020
23
2055.37555026
33
0
14
3750
24
2050.49298302
34
0
100
AcDbRotatedDimension
0
DIMENSION
5
34B
100
AcDbEntity
8
section_A_A_d
6
ByLayer
62
256
370
-1
100
AcDbDimension
2
*D7
10
5415
20
2000
30
0
11
5050
21
2052
31
0
70
32
71
5
72
0
3
Standard
53
0
210
0
220
0
230
1
100
AcDbAlignedDimension
13
4685
23
2055.37555026
33
0
14
5415
24
2055.37555026
34
0
100
AcDbRotatedDimension
0
DIMENSION
5
34C
100
AcDbEntity
8
section_A_A_d
6
ByLayer
62
256
370
-1
100
AcDbDimension
2
*D8
10
4685
20
2000
30
0
11
4217.5
21
2052
31
0
70
32
71
5
3
Standard
53
0
210
0
220
0
230
1
100
AcDbAlignedDimension
13
3750
23
2067.09371163
33
0
14
4685
24
2063.18765784
34
0
100
AcDbRotatedDimension
0
DIMENSION
5
34D
100
AcDbEntity
8
section_A_A_d
6
ByLayer
62
256
370
-1
100
AcDbDimension
2
*D9
10
5415
20
1800
30
0
11
4217.5
21
1852
31
0
70
32
71
5
72
0
3
Standard
53
0
210
0
220
0
230
1
100
AcDbAlignedDimension
13
3020
23
1870.02325198
33
0
14
5415
24
1870.02325198
34
0
100
AcDbRotatedDimension
0
MTEXT
5
34E
100
AcDbEntity
8
section_A_A_d
6
ByLayer
62
256
370
-1
100
AcDbMText
10
3480
20
310
30
0
40
64
41
227.555555556
71
1
72
1
1
90x35
7
standard
210
0
220
0
230
1
50
0
73
2
44
1
0
MTEXT
5
34F
100
AcDbEntity
8
section_A_A_d
6
ByLayer
62
256
370
-1
100
AcDbMText
10
3900
20
310
30
0
40
64
41
220.444444444
71
1
72
1
1
H3-10
7
standard
210
0
220
0
230
1
50
0
73
2
44
1
0
MTEXT
5
350
100
AcDbEntity
8
section_A_A_d
6
ByLayer
62
256
370
-1
100
AcDbMText
10
3480
20
200
30
0
40
64
41
227.555555556
71
1
72
1
1
90x35
7
standard
210
0
220
0
230
1
50
0
73
2
44
1
0
MTEXT
5
351
100
AcDbEntity
8
section_A_A_d
6
ByLayer
62
256
370
-1
100
AcDbMText
10
3900
20
200
30
0
40
64
41
220.444444444
71
1
72
1
1
H3-10
7
standard
210
0
220
0
230
1
50
0
73
2
44
1
0
MTEXT
5
352
100
AcDbEntity
8
section_A_A_d
6
ByLayer
62
256
370
-1
100
AcDbMText
10
3480
20
90
30
0
40
64
41
227.555555556
71
1
72
1
1
90x35
7
standard
210
0
220
0
230
1
50
0
73
2
44
1
0
MTEXT
5
353
100
AcDbEntity
8
section_A_A_d
6
ByLayer
62
256
370
-1
100
AcDbMText
10
3900
20
90
30
0
40
64
41
220.444444444
71
1
72
1
1
H3-10
7
standard
210
0
220
0
230
1
50
0
73
2
44
1
0
MTEXT
5
354
100
AcDbEntity
8
section_A_A_d
6
ByLayer
62
256
370
-1
100
AcDbMText
10
4870
20
90
30
0
40
64
41
28.4444444444
71
1
72
1
1
8
7
standard
210
0
220
0
230
1
50
0
73
2
44
1
0
MTEXT
5
355
100
AcDbEntity
8
section_A_A_d
6
ByLayer
62
256
370
-1
100
AcDbMText
10
4370
20
90
30
0
40
64
41
189.866666667
71
1
72
1
1
707*
7
standard
210
0
220
0
230
1
50
0
73
2
44
1
0
LINE
5
356
100
AcDbEntity
8
section_A_A
6
ByLayer
62
256
370
-1
100
AcDbLine
10
5415
20
4729
11
5415
21
4764
0
LINE
5
357
100
AcDbEntity
8
section_A_A
6
ByLayer
62
256
370
-1
100
AcDbLine
10
3020
20
4764
11
5415
21
4764
0
LINE
5
358
100
AcDbEntity
8
section_A_A
6
ByLayer
62
256
370
-1
100
AcDbLine
10
3020
20
4674
11
3065
21
4674
0
LINE
5
359
100
AcDbEntity
8
section_A_A
6
ByLayer
62
256
370
-1
100
AcDbLine
10
3065
20
4674
11
3065
21
4764
0
LINE
5
35A
100
AcDbEntity
8
section_A_A
6
ByLayer
62
256
370
-1
100
AcDbLine
10
3065
20
4764
11
3020
21
4764
0
LINE
5
35B
100
AcDbEntity
8
section_A_A
6
ByLayer
62
256
370
-1
100
AcDbLine
10
3020
20
4764
11
3020
21
4674
0
LINE
5
35C
100
AcDbEntity
8
section_A_A
6
ByLayer
62
256
370
-1
100
AcDbLine
10
2975
20
4674
11
2975
21
4764
0
LINE
5
35D
100
AcDbEntity
8
section_A_A
6
ByLayer
62
256
370
-1
100
AcDbLine
10
2975
20
4764
11
3020
21
4764
0
LINE
5
35E
100
AcDbEntity
8
section_A_A
6
ByLayer
62
256
370
-1
100
AcDbLine
10
3020
20
4764
11
3020
21
4674
0
LINE
5
35F
100
AcDbEntity
8
section_A_A
6
ByLayer
62
256
370
-1
100
AcDbLine
10
3020
20
4764
11
2975
21
4764
0
LINE
5
360
100
AcDbEntity
8
section_A_A
6
ByLayer
62
256
370
-1
100
AcDbLine
10
2975
20
4764
11
2975
21
4674
0
LINE
5
361
100
AcDbEntity
8
section_A_A
6
ByLayer
62
256
370
-1
100
AcDbLine
10
2975
20
4674
11
3020
21
4674
0
LINE
5
362
100
AcDbEntity
8
section_A_A
6
ByLayer
62
256
370
-1
100
AcDbLine
10
3020
20
4674
11
3020
21
4764
0
LINE
5
363
100
AcDbEntity
8
section_A_A
6
ByLayer
62
256
370
-1
100
AcDbLine
10
2975
20
4674
11
3020
21
4764
0
LINE
5
364
100
AcDbEntity
8
section_A_A
6
ByLayer
62
256
370
-1
100
AcDbLine
10
2975
20
4764
11
3020
21
4674
0
LINE
5
365
100
AcDbEntity
8
section_A_A
6
ByLayer
62
256
370
-1
100
AcDbLine
10
3020
20
4764
11
3065
21
4674
0
LINE
5
366
100
AcDbEntity
8
section_A_A
6
ByLayer
62
256
370
-1
100
AcDbLine
10
3020
20
4674
11
3065
21
4764
0
LINE
5
367
100
AcDbEntity
8
section_A_A
6
ByLayer
62
256
370
-1
100
AcDbLine
10
5415
20
4674
11
5460
21
4674
0
LINE
5
368
100
AcDbEntity
8
section_A_A
6
ByLayer
62
256
370
-1
100
AcDbLine
10
5460
20
4674
11
5460
21
4764
0
LINE
5
369
100
AcDbEntity
8
section_A_A
6
ByLayer
62
256
370
-1
100
AcDbLine
10
5460
20
4764
11
5415
21
4764
0
LINE
5
36A
100
AcDbEntity
8
section_A_A
6
ByLayer
62
256
370
-1
100
AcDbLine
10
5415
20
4764
11
5415
21
4674
0
LINE
5
36B
100
AcDbEntity
8
section_A_A
6
ByLayer
62
256
370
-1
100
AcDbLine
10
5370
20
4674
11
5370
21
4764
0
LINE
5
36C
100
AcDbEntity
8
section_A_A
6
ByLayer
62
256
370
-1
100
AcDbLine
10
5370
20
4764
11
5415
21
4764
0
LINE
5
36D
100
AcDbEntity
8
section_A_A
6
ByLayer
62
256
370
-1
100
AcDbLine
10
5415
20
4764
11
5415
21
4674
0
LINE
5
36E
100
AcDbEntity
8
section_A_A
6
ByLayer
62
256
370
-1
100
AcDbLine
10
5415
20
4764
11
5370
21
4764
0
LINE
5
36F
100
AcDbEntity
8
section_A_A
6
ByLayer
62
256
370
-1
100
AcDbLine
10
5370
20
4764
11
5370
21
4674
0
LINE
5
370
100
AcDbEntity
8
section_A_A
6
ByLayer
62
256
370
-1
100
AcDbLine
10
5370
20
4674
11
5415
21
4674
0
LINE
5
371
100
AcDbEntity
8
section_A_A
6
ByLayer
62
256
370
-1
100
AcDbLine
10
5415
20
4674
11
5415
21
4764
0
LINE
5
372
100
AcDbEntity
8
section_A_A
6
ByLayer
62
256
370
-1
100
AcDbLine
10
5370
20
4674
11
5415
21
4764
0
LINE
5
373
100
AcDbEntity
8
section_A_A
6
ByLayer
62
256
370
-1
100
AcDbLine
10
5370
20
4764
11
5415
21
4674
0
LINE
5
374
100
AcDbEntity
8
section_A_A
6
ByLayer
62
256
370
-1
100
AcDbLine
10
5415
20
4764
11
5460
21
4674
0
LINE
5
375
100
AcDbEntity
8
section_A_A
6
ByLayer
62
256
370
-1
100
AcDbLine
10
5415
20
4674
11
5460
21
4764
0
LINE
5
376
100
AcDbEntity
8
section_A_A
6
ByLayer
62
256
370
-1
100
AcDbLine
10
3065
20
4729
11
5370
21
4729
0
LINE
5
377
100
AcDbEntity
8
section_A_A
6
ByLayer
62
256
370
-1
100
AcDbLine
10
1135
20
4729
11
1135
21
2399
0
LINE
5
378
100
AcDbEntity
8
section_A_A
6
ByLayer
62
256
370
-1
100
AcDbLine
10
7300
20
4729
11
7300
21
2399
0
LINE
5
379
100
AcDbEntity
8
section_A_A
6
ByLayer
62
256
370
-1
100
AcDbLine
10
5370
20
4674
11
5370
21
2399
0
LINE
5
37A
100
AcDbEntity
8
section_A_A
6
ByLayer
62
256
370
-1
100
AcDbLine
10
3065
20
4674
11
3065
21
2399
0
LINE
5
37B
100
AcDbEntity
8
section_A_A
6
ByLayer
62
256
370
-1
100
AcDbLine
10
3020
20
4674
11
3020
21
2364
0
LINE
5
37C
100
AcDbEntity
8
section_A_A
6
ByLayer
62
256
370
-1
100
AcDbLine
10
2645
20
4729
11
2645
21
4224
0
LINE
5
37D
100
AcDbEntity
8
section_A_A
6
ByLayer
62
256
370
-1
100
AcDbLine
10
2680
20
4729
11
2680
21
4224
0
LINE
5
37E
100
AcDbEntity
8
section_A_A
6
ByLayer
62
256
370
-1
100
AcDbLine
10
2940
20
4729
11
2940
21
4224
0
LINE
5
37F
100
AcDbEntity
8
section_A_A
6
ByLayer
62
256
370
-1
100
AcDbLine
10
1980
20
4154
11
1980
21
3184
0
LINE
5
380
100
AcDbEntity
8
section_A_A
6
ByLayer
62
256
370
-1
100
AcDbLine
10
2975
20
4674
11
2975
21
2399
0
LINE
5
381
100
AcDbEntity
8
section_A_A
6
ByLayer
62
256
370
-1
100
AcDbLine
10
1945
20
4154
11
2975
21
4154
0
LINE
5
382
100
AcDbEntity
8
section_A_A
6
ByLayer
62
256
370
-1
100
AcDbLine
10
1945
20
4189
11
2975
21
4189
0
LINE
5
383
100
AcDbEntity
8
section_A_A
6
ByLayer
62
256
370
-1
100
AcDbLine
10
1945
20
4224
11
2975
21
4224
0
LINE
5
384
100
AcDbEntity
8
section_A_A
6
ByLayer
62
256
370
-1
100
AcDbLine
10
1945
20
3184
11
2975
21
3184
0
LINE
5
385
100
AcDbEntity
8
section_A_A
6
ByLayer
62
256
370
-1
100
AcDbLine
10
1945
20
3149
11
2975
21
3149
0
LINE
5
386
100
AcDbEntity
8
section_A_A
6
ByLayer
62
256
370
-1
100
AcDbLine
10
1945
20
3114
11
2975
21
3114
0
LINE
5
387
100
AcDbEntity
8
section_A_A
6
ByLayer
62
256
370
-1
100
AcDbLine
10
1945
20
4729
11
1945
21
2399
0
LINE
5
388
100
AcDbEntity
8
section_A_A
6
ByLayer
62
256
370
-1
100
AcDbLine
10
1910
20
4729
11
1910
21
2399
0
LINE
5
389
100
AcDbEntity
8
section_A_A
6
ByLayer
62
256
370
-1
100
AcDbLine
10
1135
20
3119
11
1910
21
3119
0
LINE
5
38A
100
AcDbEntity
8
section_A_A
6
ByLayer
62
256
370
-1
100
AcDbLine
10
1135
20
3084
11
1910
21
3084
0
LINE
5
38B
100
AcDbEntity
8
section_A_A
6
ByLayer
62
256
370
-1
100
AcDbLine
10
6455
20
4154
11
6455
21
3184
0
LINE
5
38C
100
AcDbEntity
8
section_A_A
6
ByLayer
62
256
370
-1
100
AcDbLine
10
5460
20
4674
11
5460
21
2399
0
LINE
5
38D
100
AcDbEntity
8
section_A_A
6
ByLayer
62
256
370
-1
100
AcDbLine
10
5460
20
3149
11
6490
21
3149
0
LINE
5
38E
100
AcDbEntity
8
section_A_A
6
ByLayer
62
256
370
-1
100
AcDbLine
10
5460
20
3114
11
6490
21
3114
0
LINE
5
38F
100
AcDbEntity
8
section_A_A
6
ByLayer
62
256
370
-1
100
AcDbLine
10
5460
20
3184
11
6490
21
3184
0
LINE
5
390
100
AcDbEntity
8
section_A_A
6
ByLayer
62
256
370
-1
100
AcDbLine
10
5460
20
4189
11
6490
21
4189
0
LINE
5
391
100
AcDbEntity
8
section_A_A
6
ByLayer
62
256
370
-1
100
AcDbLine
10
5460
20
4154
11
6490
21
4154
0
LINE
5
392
100
AcDbEntity
8
section_A_A
6
ByLayer
62
256
370
-1
100
AcDbLine
10
5460
20
4224
11
6490
21
4224
0
LINE
5
393
100
AcDbEntity
8
section_A_A
6
ByLayer
62
256
370
-1
100
AcDbLine
10
6490
20
4729
11
6490
21
2399
0
LINE
5
394
100
AcDbEntity
8
section_A_A
6
ByLayer
62
256
370
-1
100
AcDbLine
10
5790
20
4729
11
5790
21
4224
0
LINE
5
395
100
AcDbEntity
8
section_A_A
6
ByLayer
62
256
370
-1
100
AcDbLine
10
5755
20
4729
11
5755
21
4224
0
LINE
5
396
100
AcDbEntity
8
section_A_A
6
ByLayer
62
256
370
-1
100
AcDbLine
10
5495
20
4729
11
5495
21
4224
0
LINE
5
397
100
AcDbEntity
8
section_A_A
6
ByLayer
62
256
370
-1
100
AcDbLine
10
6525
20
4729
11
6525
21
2399
0
LINE
5
398
100
AcDbEntity
8
section_A_A
6
ByLayer
62
256
370
-1
100
AcDbLine
10
6525
20
3119
11
7300
21
3119
0
LINE
5
399
100
AcDbEntity
8
section_A_A
6
ByLayer
62
256
370
-1
100
AcDbLine
10
6525
20
3084
11
7300
21
3084
0
LINE
5
39A
100
AcDbEntity
8
section_A_A
6
ByLayer
62
256
370
-1
100
AcDbLine
10
1135
20
4039
11
1910
21
4039
0
LINE
5
39B
100
AcDbEntity
8
section_A_A
6
ByLayer
62
256
370
-1
100
AcDbLine
10
1135
20
4004
11
1910
21
4004
0
LINE
5
39C
100
AcDbEntity
8
section_A_A
6
ByLayer
62
256
370
-1
100
AcDbLine
10
6525
20
4039
11
7300
21
4039
0
LINE
5
39D
100
AcDbEntity
8
section_A_A
6
ByLayer
62
256
370
-1
100
AcDbLine
10
6525
20
4004
11
7300
21
4004
0
LINE
5
39E
100
AcDbEntity
8
section_A_A
6
ByLayer
62
256
370
-1
100
AcDbLine
10
3100
20
4313.49747468
11
3065
21
4313.49747468
0
LINE
5
39F
100
AcDbEntity
8
section_A_A
6
ByLayer
62
256
370
-1
100
AcDbLine
10
3100
20
4729
11
3100
21
4313.49747468
0
LINE
5
3A0
100
AcDbEntity
8
section_A_A
6
ByLayer
62
256
370
-1
100
AcDbLine
10
5335
20
4313.49747468
11
5370
21
4313.49747468
0
LINE
5
3A1
100
AcDbEntity
8
section_A_A
6
ByLayer
62
256
370
-1
100
AcDbLine
10
5335
20
4729
11
5335
21
4313.49747468
0
LINE
5
3A2
100
AcDbEntity
8
section_A_A
6
ByLayer
62
256
370
-1
100
AcDbLine
10
3715
20
4729
11
3715
21
2399
0
LINE
5
3A3
100
AcDbEntity
8
section_A_A
6
ByLayer
62
256
370
-1
100
AcDbLine
10
4720
20
4729
11
4720
21
2399
0
LINE
5
3A4
100
AcDbEntity
8
section_A_A
6
ByLayer
62
256
370
-1
100
AcDbLine
10
4755
20
4729
11
4755
21
2399
0
LINE
5
3A5
100
AcDbEntity
8
section_A_A
6
ByLayer
62
256
370
-1
100
AcDbLine
10
3065
20
4039
11
3680
21
4039
0
LINE
5
3A6
100
AcDbEntity
8
section_A_A
6
ByLayer
62
256
370
-1
100
AcDbLine
10
3065
20
4004
11
3680
21
4004
0
LINE
5
3A7
100
AcDbEntity
8
section_A_A
6
ByLayer
62
256
370
-1
100
AcDbLine
10
3065
20
3119
11
3680
21
3119
0
LINE
5
3A8
100
AcDbEntity
8
section_A_A
6
ByLayer
62
256
370
-1
100
AcDbLine
10
3065
20
3084
11
3680
21
3084
0
LINE
5
3A9
100
AcDbEntity
8
section_A_A
6
ByLayer
62
256
370
-1
100
AcDbLine
10
4755
20
4039
11
5370
21
4039
0
LINE
5
3AA
100
AcDbEntity
8
section_A_A
6
ByLayer
62
256
370
-1
100
AcDbLine
10
4755
20
4004
11
5370
21
4004
0
LINE
5
3AB
100
AcDbEntity
8
section_A_A
6
ByLayer
62
256
370
-1
100
AcDbLine
10
4755
20
3119
11
5370
21
3119
0
LINE
5
3AC
100
AcDbEntity
8
section_A_A
6
ByLayer
62
256
370
-1
100
AcDbLine
10
4755
20
3084
11
5370
21
3084
0
LINE
5
3AD
100
AcDbEntity
8
section_A_A
6
ByLayer
62
7
370
35
100
AcDbLine
10
7335
20
4764
11
7335
21
2364
0
LINE
5
3AE
100
AcDbEntity
8
section_A_A
6
ByLayer
62
256
370
-1
100
AcDbLine
10
1100
20
4764
11
1100
21
2399
0
LINE
5
3AF
100
AcDbEntity
8
section_A_A
6
ByLayer
62
256
370
-1
100
AcDbLine
10
1100
20
4764
11
3020
21
4764
0
LINE
5
3B0
100
AcDbEntity
8
section_A_A
6
ByLayer
62
256
370
-1
100
AcDbLine
10
1100
20
4729
11
2975
21
4729
0
LINE
5
3B1
100
AcDbEntity
8
section_A_A
6
ByLayer
62
256
370
-1
100
AcDbLine
10
5415
20
4764
11
7335
21
4764
0
LINE
5
3B2
100
AcDbEntity
8
section_A_A
6
ByLayer
62
256
370
-1
100
AcDbLine
10
5460
20
4729
11
7335
21
4729
0
CIRCLE
5
3B3
100
AcDbEntity
8
section_A_A_d
6
ByLayer
62
256
370
-1
100
AcDbCircle
10
3020
20
5914
40
100
0
LINE
5
3B4
100
AcDbEntity
8
section_A_A_d
6
CENTER2
62
256
370
-1
100
AcDbLine
10
3020
20
4964
11
3020
21
5814
0
CIRCLE
5
3B5
100
AcDbEntity
8
section_A_A_d
6
ByLayer
62
256
370
-1
100
AcDbCircle
10
5415
20
5914
40
100
0
LINE
5
3B6
100
AcDbEntity
8
section_A_A_d
6
CENTER2
62
256
370
-1
100
AcDbLine
10
5415
20
4964
11
5415
21
5814
0
MTEXT
5
3B7
100
AcDbEntity
8
section_A_A_d
6
ByLayer
62
256
370
-1
100
AcDbMText
10
3000
20
5965
30
0
40
96
41
53.3333333333
71
1
72
1
1
4
7
standard
210
0
220
0
230
1
50
0
73
2
44
1
0
MTEXT
5
3B8
100
AcDbEntity
8
section_A_A_d
6
ByLayer
62
256
370
-1
100
AcDbMText
10
5395
20
5965
30
0
40
96
41
42.6666666667
71
1
72
1
1
8
7
standard
210
0
220
0
230
1
50
0
73
2
44
1
0
LINE
5
3B9
100
AcDbEntity
8
section_A_A_d
6
CENTER2
62
256
370
-1
100
AcDbLine
10
780
20
4964
11
780
21
5814
0
LINE
5
3BA
100
AcDbEntity
8
section_A_A_d
6
CENTER2
62
256
370
-1
100
AcDbLine
10
7655
20
4964
11
7655
21
5814
0
CIRCLE
5
3BB
100
AcDbEntity
8
section_A_A_d
6
ByLayer
62
256
370
-1
100
AcDbCircle
10
1100
20
5914
40
100
0
LINE
5
3BC
100
AcDbEntity
8
section_A_A_d
6
CENTER2
62
256
370
-1
100
AcDbLine
10
1100
20
4964
11
1100
21
5814
0
MTEXT
5
3BD
100
AcDbEntity
8
section_A_A_d
6
ByLayer
62
256
370
-1
100
AcDbMText
10
1080
20
5965
30
0
40
96
41
21.3333333333
71
1
72
1
1
1
7
standard
210
0
220
0
230
1
50
0
73
2
44
1
0
CIRCLE
5
3BE
100
AcDbEntity
8
section_A_A_d
6
ByLayer
62
256
370
-1
100
AcDbCircle
10
7335
20
5914
40
100
0
LINE
5
3BF
100
AcDbEntity
8
section_A_A_d
6
CENTER2
62
256
370
-1
100
AcDbLine
10
7335
20
4964
11
7335
21
5814
0
MTEXT
5
3C0
100
AcDbEntity
8
section_A_A_d
6
ByLayer
62
256
370
-1
100
AcDbMText
10
7287.5
20
5960
30
0
40
96
41
74.6666666667
71
1
72
1
1
11
7
standard
210
0
220
0
230
1
50
0
73
2
44
1
0
DIMENSION
5
3C1
100
AcDbEntity
8
section_A_A_d
6
ByLayer
62
256
370
-1
100
AcDbDimension
2
*D10
10
1100
20
5300
30
0
11
940
21
5352
31
0
70
32
71
5
72
0
3
Standard
53
0
210
0
220
0
230
1
100
AcDbAlignedDimension
13
780
23
5255.80574609
33
0
14
1100
24
5250.92317885
34
0
100
AcDbRotatedDimension
0
DIMENSION
5
3C2
100
AcDbEntity
8
section_A_A_d
6
ByLayer
62
256
370
-1
100
AcDbDimension
2
*D11
10
7655
20
5300
30
0
11
7495
21
5352
31
0
70
32
71
5
72
0
3
Standard
53
0
210
0
220
0
230
1
100
AcDbAlignedDimension
13
7335
23
5206.98007371
33
0
14
7655
24
5206.98007371
34
0
100
AcDbRotatedDimension
0
DIMENSION
5
3C3
100
AcDbEntity
8
section_A_A_d
6
ByLayer
62
256
370
-1
100
AcDbDimension
2
*D12
10
780
20
5700
30
0
11
4217.5
21
5752
31
0
70
32
71
5
72
0
3
Standard
53
0
210
0
220
0
230
1
100
AcDbAlignedDimension
13
7655
23
5631.76342338
33
0
14
780
24
5636.64599061
34
0
100
AcDbRotatedDimension
0
LINE
5
3C4
100
AcDbEntity
8
section_A_A_d
6
CENTER2
62
256
370
-1
100
AcDbLine
10
2975
20
4964
11
2975
21
5414
0
LINE
5
3C5
100
AcDbEntity
8
section_A_A_d
6
CENTER2
62
256
370
-1
100
AcDbLine
10
3065
20
4964
11
3065
21
5414
0
LINE
5
3C6
100
AcDbEntity
8
section_A_A_d
6
CENTER2
62
256
370
-1
100
AcDbLine
10
5370
20
4964
11
5370
21
5414
0
LINE
5
3C7
100
AcDbEntity
8
section_A_A_d
6
CENTER2
62
256
370
-1
100
AcDbLine
10
5460
20
4964
11
5460
21
5414
0
DIMENSION
5
3C8
100
AcDbEntity
8
section_A_A_d
6
ByLayer
62
256
370
-1
100
AcDbDimension
2
*D13
10
2975
20
5500
30
0
11
1877.5
21
5552
31
0
70
32
71
5
3
Standard
53
0
210
0
220
0
230
1
100
AcDbAlignedDimension
13
780
23
5448.17889526
33
0
14
2975
24
5414
34
0
100
AcDbRotatedDimension
0
DIMENSION
5
3C9
100
AcDbEntity
8
section_A_A_d
6
ByLayer
62
256
370
-1
100
AcDbDimension
2
*D14
10
7655
20
5500
30
0
11
6557.5
21
5552
31
0
70
32
71
5
3
Standard
53
0
210
0
220
0
230
1
100
AcDbAlignedDimension
13
5460
23
5397.40019599
33
0
14
7655
24
5440.36678768
34
0
100
AcDbRotatedDimension
0
DIMENSION
5
3CA
100
AcDbEntity
8
section_A_A_d
6
ByLayer
62
256
370
-1
100
AcDbDimension
2
*D15
10
5370
20
5500
30
0
11
4217.5
21
5552
31
0
70
32
71
5
72
0
3
Standard
53
0
210
0
220
0
230
1
100
AcDbAlignedDimension
13
3065
23
5372.9873598
33
0
14
5370
24
5368.10479257
34
0
100
AcDbRotatedDimension
0
LINE
5
3CB
100
AcDbEntity
8
section_A_A
6
ByLayer
62
256
370
-1
100
AcDbLine
10
5957.5
20
3114
11
5957.5
21
2399
0
LINE
5
3CC
100
AcDbEntity
8
section_A_A
6
ByLayer
62
256
370
-1
100
AcDbLine
10
5992.5
20
3114
11
5992.5
21
2399
0
LINE
5
3CD
100
AcDbEntity
8
section_A_A
6
ByLayer
62
256
370
-1
100
AcDbLine
10
5625
20
3114
11
5625
21
2399
0
LINE
5
3CE
100
AcDbEntity
8
section_A_A
6
ByLayer
62
256
370
-1
100
AcDbLine
10
5660
20
3114
11
5660
21
2399
0
LINE
5
3CF
100
AcDbEntity
8
section_A_A
6
ByLayer
62
256
370
-1
100
AcDbLine
10
6290
20
3114
11
6290
21
2399
0
LINE
5
3D0
100
AcDbEntity
8
section_A_A
6
ByLayer
62
256
370
-1
100
AcDbLine
10
6325
20
3114
11
6325
21
2399
0
LINE
5
3D1
100
AcDbEntity
8
section_A_A
6
ByLayer
62
256
370
-1
100
AcDbLine
10
2442.5
20
3114
11
2442.5
21
2399
0
LINE
5
3D2
100
AcDbEntity
8
section_A_A
6
ByLayer
62
256
370
-1
100
AcDbLine
10
2477.5
20
3114
11
2477.5
21
2399
0
LINE
5
3D3
100
AcDbEntity
8
section_A_A
6
ByLayer
62
256
370
-1
100
AcDbLine
10
2110
20
3114
11
2110
21
2399
0
LINE
5
3D4
100
AcDbEntity
8
section_A_A
6
ByLayer
62
256
370
-1
100
AcDbLine
10
2145
20
3114
11
2145
21
2399
0
LINE
5
3D5
100
AcDbEntity
8
section_A_A
6
ByLayer
62
256
370
-1
100
AcDbLine
10
2775
20
3114
11
2775
21
2399
0
LINE
5
3D6
100
AcDbEntity
8
section_A_A
6
ByLayer
62
256
370
-1
100
AcDbLine
10
2810
20
3114
11
2810
21
2399
0
CIRCLE
5
3D7
100
AcDbEntity
8
section_A_A_d
6
ByLayer
62
256
370
-1
100
AcDbCircle
10
8365
20
3114
40
100
0
MTEXT
5
3D8
100
AcDbEntity
8
section_A_A_d
6
ByLayer
62
256
370
-1
100
AcDbMText
10
8340
20
3160
30
0
40
96
41
53.3333333333
71
1
72
1
1
B
7
standard
210
0
220
0
230
1
50
0
73
2
44
1
0
LINE
5
3D9
100
AcDbEntity
8
section_A_A_d
6
CENTER2
62
256
370
-1
100
AcDbLine
10
8265
20
3114
11
6535
21
3114
0
CIRCLE
5
3DA
100
AcDbEntity
8
section_A_A_d
6
ByLayer
62
256
370
-1
100
AcDbCircle
10
8365
20
4729
40
100
0
LINE
5
3DB
100
AcDbEntity
8
section_A_A_d
6
CENTER2
62
256
370
-1
100
AcDbLine
10
8265
20
4729
11
7435
21
4729
0
MTEXT
5
3DC
100
AcDbEntity
8
section_A_A_d
6
ByLayer
62
256
370
-1
100
AcDbMText
10
8340
20
4775
30
0
40
96
41
42.6666666667
71
1
72
1
1
E
7
standard
210
0
220
0
230
1
50
0
73
2
44
1
0
LINE
5
3DD
100
AcDbEntity
8
section_A_A_d
6
CENTER2
62
256
370
-1
100
AcDbLine
10
7965
20
4674
11
7435
21
4674
0
DIMENSION
5
3DE
100
AcDbEntity
8
section_A_A_d
6
ByLayer
62
256
370
-1
100
AcDbDimension
2
*D16
10
7800
20
2399
30
0
11
7748
21
2756.5
31
0
70
32
71
5
3
Standard
53
0
210
0
220
0
230
1
100
AcDbAlignedDimension
13
7743.75163874
23
3114
33
0
14
7743.75163874
24
2399
34
0
50
90
100
AcDbRotatedDimension
0
DIMENSION
5
3DF
100
AcDbEntity
8
section_A_A_d
6
ByLayer
62
256
370
-1
100
AcDbDimension
2
*D17
10
7800
20
3114
30
0
11
7748
21
3634
31
0
70
32
71
5
3
Standard
53
0
210
0
220
0
230
1
100
AcDbAlignedDimension
13
7758.39934046
23
4154
33
0
14
7763.28190769
24
3114
34
0
50
90
100
AcDbRotatedDimension
0
DIMENSION
5
3E0
100
AcDbEntity
8
section_A_A_d
6
ByLayer
62
256
370
-1
100
AcDbDimension
2
*D18
10
7600
20
2399
30
0
11
7548
21
3536.5
31
0
70
32
71
5
3
Standard
53
0
210
0
220
0
230
1
100
AcDbAlignedDimension
13
7519.15354582
23
4674
33
0
14
7519.15354582
24
2399
34
0
50
90
100
AcDbRotatedDimension
0
DIMENSION
5
3E1
100
AcDbEntity
8
section_A_A_d
6
ByLayer
62
256
370
-1
100
AcDbDimension
2
*D19
10
8200
20
2399
30
0
11
8148
21
3564
31
0
70
32
71
5
3
Standard
53
0
210
0
220
0
230
1
100
AcDbAlignedDimension
13
8124.59188327
23
4729
33
0
14
8119.70931603
24
2399
34
0
50
90
100
AcDbRotatedDimension
0
CIRCLE
5
3E2
100
AcDbEntity
8
section_A_A_d
6
ByLayer
62
256
370
-1
100
AcDbCircle
10
185
20
4729
40
100
0
LINE
5
3E3
100
AcDbEntity
8
section_A_A_d
6
CENTER2
62
256
370
-1
100
AcDbLine
10
1000
20
4729
11
285
21
4729
0
MTEXT
5
3E4
100
AcDbEntity
8
section_A_A_d
6
ByLayer
62
256
370
-1
100
AcDbMText
10
160
20
4780
30
0
40
96
41
42.6666666667
71
1
72
1
1
E
7
standard
210
0
220
0
230
1
50
0
73
2
44
1
0
CIRCLE
5
3E5
100
AcDbEntity
8
section_A_A_d
6
ByLayer
62
256
370
-1
100
AcDbCircle
10
185
20
3114
40
100
0
MTEXT
5
3E6
100
AcDbEntity
8
section_A_A_d
6
ByLayer
62
256
370
-1
100
AcDbMText
10
160
20
3165
30
0
40
96
41
53.3333333333
71
1
72
1
1
B
7
standard
210
0
220
0
230
1
50
0
73
2
44
1
0
LINE
5
3E7
100
AcDbEntity
8
section_A_A_d
6
CENTER2
62
256
370
-1
100
AcDbLine
10
1900
20
3114
11
285
21
3114
0
DIMENSION
5
3E8
100
AcDbEntity
8
section_A_A_d
6
ByLayer
62
256
370
-1
100
AcDbDimension
2
*D20
10
700
20
2399
30
0
11
648
21
2756.5
31
0
70
32
71
5
3
Standard
53
0
210
0
220
0
230
1
100
AcDbAlignedDimension
13
768.711385879
23
3114
33
0
14
768.711385879
24
2399
34
0
50
90
100
AcDbRotatedDimension
0
DIMENSION
5
3E9
100
AcDbEntity
8
section_A_A_d
6
ByLayer
62
256
370
-1
100
AcDbDimension
2
*D21
10
700
20
4154
30
0
11
648
21
3634
31
0
70
32
71
5
3
Standard
53
0
210
0
220
0
230
1
100
AcDbAlignedDimension
13
762.461699815
23
3114
33
0
14
759.336856783
24
4154
34
0
50
90
100
AcDbRotatedDimension
0
DIMENSION
5
3EA
100
AcDbEntity
8
section_A_A_d
6
ByLayer
62
256
370
-1
100
AcDbDimension
2
*D22
10
400
20
4729
30
0
11
348
21
3564
31
0
70
32
71
5
3
Standard
53
0
210
0
220
0
230
1
100
AcDbAlignedDimension
13
365.606634747
23
2399
33
0
14
365.606634747
24
4729
34
0
50
90
100
AcDbRotatedDimension
0
DIMENSION
5
3EB
100
AcDbEntity
8
section_A_A_d
6
ByLayer
62
256
370
-1
100
AcDbDimension
2
*D23
10
1910
20
3800
30
0
11
1522.5
21
3852
31
0
70
32
71
5
3
Standard
53
0
210
0
220
0
230
1
100
AcDbAlignedDimension
13
1135
23
3871.87581937
33
0
14
1910
24
3871.87581937
34
0
100
AcDbRotatedDimension
0
DIMENSION
5
3EC
100
AcDbEntity
8
section_A_A_d
6
ByLayer
62
256
370
-1
100
AcDbDimension
2
*D24
10
2975
20
3800
30
0
11
2460
21
3852
31
0
70
32
71
5
3
Standard
53
0
210
0
220
0
230
1
100
AcDbAlignedDimension
13
1945
23
3827.93271423
33
0
14
2975
24
3827.93271423
34
0
100
AcDbRotatedDimension
0
DIMENSION
5
3ED
100
AcDbEntity
8
section_A_A_d
6
ByLayer
62
256
370
-1
100
AcDbDimension
2
*D25
10
3680
20
3800
30
0
11
3372.5
21
3852
31
0
70
32
71
5
3
Standard
53
0
210
0
220
0
230
1
100
AcDbAlignedDimension
13
3065
23
3859.18114455
33
0
14
3680
24
3859.18114455
34
0
100
AcDbRotatedDimension
0
DIMENSION
5
3EE
100
AcDbEntity
8
section_A_A_d
6
ByLayer
62
256
370
-1
100
AcDbDimension
2
*D26
10
5370
20
3800
30
0
11
5062.5
21
3852
31
0
70
32
71
5
3
Standard
53
0
210
0
220
0
230
1
100
AcDbAlignedDimension
13
4755
23
3859.18114455
33
0
14
5370
24
3859.18114455
34
0
100
AcDbRotatedDimension
0
LINE
5
3EF
100
AcDbEntity
8
section_A_A
6
ByLayer
62
256
370
-1
100
AcDbLine
10
2240
20
4729
11
2240
21
4224
0
LINE
5
3F0
100
AcDbEntity
8
section_A_A
6
ByLayer
62
256
370
-1
100
AcDbLine
10
2275
20
4729
11
2275
21
4224
0
LINE
5
3F1
100
AcDbEntity
8
section_A_A
6
ByLayer
62
256
370
-1
100
AcDbLine
10
6195
20
4729
11
6195
21
4224
0
LINE
5
3F2
100
AcDbEntity
8
section_A_A
6
ByLayer
62
256
370
-1
100
AcDbLine
10
6160
20
4729
11
6160
21
4224
0
DIMENSION
5
3F3
100
AcDbEntity
8
section_A_A_d
6
ByLayer
62
256
370
-1
100
AcDbDimension
2
*D27
10
6490
20
3800
30
0
11
5975
21
3852
31
0
70
32
71
5
3
Standard
53
0
210
0
220
0
230
1
100
AcDbAlignedDimension
13
5460
23
3881.64095385
33
0
14
6490
24
3881.64095385
34
0
100
AcDbRotatedDimension
0
DIMENSION
5
3F4
100
AcDbEntity
8
section_A_A_d
6
ByLayer
62
256
370
-1
100
AcDbDimension
2
*D28
10
7300
20
3800
30
0
11
6912.5
21
3852
31
0
70
32
71
5
3
Standard
53
0
210
0
220
0
230
1
100
AcDbAlignedDimension
13
6525
23
3862.1106849
33
0
14
7300
24
3862.1106849
34
0
100
AcDbRotatedDimension
0
DIMENSION
5
3F5
100
AcDbEntity
8
section_A_A_d
6
ByLayer
62
256
370
-1
100
AcDbDimension
2
*D29
10
6455
20
3400
30
0
11
5975
21
3452
31
0
70
32
71
5
3
Standard
53
0
210
0
220
0
230
1
100
AcDbAlignedDimension
13
5495
23
3451.97503694
33
0
14
6455
24
3451.97503694
34
0
100
AcDbRotatedDimension
0
DIMENSION
5
3F6
100
AcDbEntity
8
section_A_A_d
6
ByLayer
62
256
370
-1
100
AcDbDimension
2
*D30
10
6300
20
3184
30
0
11
6248
21
3669
31
0
70
32
71
5
3
Standard
53
0
210
0
220
0
230
1
100
AcDbAlignedDimension
13
6235.03836234
23
4154
33
0
14
6230.1557951
24
3184
34
0
50
90
100
AcDbRotatedDimension
0
DIMENSION
5
3F7
100
AcDbEntity
8
section_A_A_d
6
ByLayer
62
256
370
-1
100
AcDbDimension
2
*D31
10
6100
20
4224
30
0
11
6048
21
4476.5
31
0
70
32
71
5
3
Standard
53
0
210
0
220
0
230
1
100
AcDbAlignedDimension
13
6049.50080732
23
4729
33
0
14
6049.50080732
24
4224
34
0
50
90
100
AcDbRotatedDimension
0
DIMENSION
5
3F8
100
AcDbEntity
8
section_A_A_d
6
ByLayer
62
256
370
-1
100
AcDbDimension
2
*D32
10
6200
20
2399
30
0
11
6148
21
2756.5
31
0
70
32
71
5
3
Standard
53
0
210
0
220
0
230
1
100
AcDbAlignedDimension
13
6132.50445035
23
3114
33
0
14
6142.26958483
24
2399
34
0
50
90
100
AcDbRotatedDimension
0
DIMENSION
5
3F9
100
AcDbEntity
8
section_A_A_d
6
ByLayer
62
256
370
-1
100
AcDbDimension
2
*D33
10
2500
20
4224
30
0
11
2448
21
4476.5
31
0
70
32
71
5
3
Standard
53
0
210
0
220
0
230
1
100
AcDbAlignedDimension
13
2446.16618601
23
4729
33
0
14
2446.16618601
24
4224
34
0
50
90
100
AcDbRotatedDimension
0
DIMENSION
5
3FA
100
AcDbEntity
8
section_A_A_d
6
ByLayer
62
256
370
-1
100
AcDbDimension
2
*D34
10
2700
20
2399
30
0
11
2648
21
2756.5
31
0
70
32
71
5
3
Standard
53
0
210
0
220
0
230
1
100
AcDbAlignedDimension
13
2641.46887551
23
3114
33
0
14
2641.46887551
24
2399
34
0
50
90
100
AcDbRotatedDimension
0
LINE
5
3FB
100
AcDbEntity
8
section_A_A_d
6
CENTER2
62
256
370
-1
100
AcDbLine
10
2240
20
4964
11
2240
21
5414
0
LINE
5
3FC
100
AcDbEntity
8
section_A_A_d
6
CENTER2
62
256
370
-1
100
AcDbLine
10
2645
20
4964
11
2645
21
5414
0
LEADER
5
3FD
100
AcDbEntity
8
section_A_A_d
6
ByLayer
62
256
370
-1
100
AcDbLeader
3
Standard
71
1
72
0
73
3
74
0
75
0
40
1
41
10
76
3
76
3
10
3042.5
20
4719
30
0
10
4000
20
4000
30
0
10
4500
20
4000
30
0
0
LEADER
5
3FE
100
AcDbEntity
8
section_A_A_d
6
ByLayer
62
256
370
-1
100
AcDbLeader
3
Standard
71
1
72
0
73
3
74
0
75
0
40
1
41
10
76
2
76
2
10
5392.5
20
4719
30
0
10
4500
20
4000
30
0
0
LEADER
5
3FF
100
AcDbEntity
8
section_A_A_d
6
ByLayer
62
256
370
-1
100
AcDbLeader
3
Standard
71
1
72
0
73
3
74
0
75
0
40
1
41
10
76
2
76
2
10
3000
20
4400
30
0
10
4000
20
4000
30
0
0
LEADER
5
400
100
AcDbEntity
8
section_A_A_d
6
ByLayer
62
256
370
-1
100
AcDbLeader
3
Standard
71
1
72
0
73
3
74
0
75
0
40
1
41
10
76
2
76
2
10
5400
20
4400
30
0
10
4500
20
4000
30
0
0
LINE
5
401
100
AcDbEntity
8
section_A_A_d
6
CENTER2
62
256
370
-1
100
AcDbLine
10
3680
20
4964
11
3680
21
5414
0
LINE
5
402
100
AcDbEntity
8
section_A_A_d
6
CENTER2
62
256
370
-1
100
AcDbLine
10
3915
20
4964
11
3915
21
5414
0
LINE
5
403
100
AcDbEntity
8
section_A_A_d
6
CENTER2
62
256
370
-1
100
AcDbLine
10
4200
20
4964
11
4200
21
5414
0
LINE
5
404
100
AcDbEntity
8
section_A_A_d
6
CENTER2
62
256
370
-1
100
AcDbLine
10
4485
20
4964
11
4485
21
5414
0
LINE
5
405
100
AcDbEntity
8
section_A_A_d
6
CENTER2
62
256
370
-1
100
AcDbLine
10
4720
20
4964
11
4720
21
5414
0
LINE
5
406
100
AcDbEntity
8
section_A_A_d
6
CENTER2
62
256
370
-1
100
AcDbLine
10
6195
20
4964
11
6195
21
5414
0
LINE
5
407
100
AcDbEntity
8
section_A_A_d
6
CENTER2
62
256
370
-1
100
AcDbLine
10
5790
20
4964
11
5790
21
5414
0
LINE
5
408
100
AcDbEntity
8
section_A_A_d
6
CENTER2
62
256
370
-1
100
AcDbLine
10
6525
20
4964
11
6525
21
5414
0
LINE
5
409
100
AcDbEntity
8
section_A_A_d
6
CENTER2
62
256
370
-1
100
AcDbLine
10
1910
20
4964
11
1910
21
5414
0
DIMENSION
5
40A
100
AcDbEntity
8
section_A_A_d
6
ByLayer
62
256
370
-1
100
AcDbDimension
2
*D39
10
1910
20
5300
30
0
11
1505
21
5352
31
0
70
32
71
5
3
Standard
53
0
210
0
220
0
230
1
100
AcDbAlignedDimension
13
1100
23
5261.45445518
33
0
14
1910
24
5261.45445518
34
0
100
AcDbRotatedDimension
0
DIMENSION
5
40B
100
AcDbEntity
8
section_A_A_d
6
ByLayer
62
256
370
-1
100
AcDbDimension
2
*D40
10
2240
20
5300
30
0
11
2075
21
5352
31
0
70
32
71
5
3
Standard
53
0
210
0
220
0
230
1
100
AcDbAlignedDimension
13
1910
23
5257.54840139
33
0
14
2240
24
5257.54840139
34
0
100
AcDbRotatedDimension
0
DIMENSION
5
40C
100
AcDbEntity
8
section_A_A_d
6
ByLayer
62
256
370
-1
100
AcDbDimension
2
*D41
10
2645
20
5300
30
0
11
2442.5
21
5352
31
0
70
32
71
5
3
Standard
53
0
210
0
220
0
230
1
100
AcDbAlignedDimension
13
2240
23
5253.6423476
33
0
14
2645
24
5253.6423476
34
0
100
AcDbRotatedDimension
0
DIMENSION
5
40D
100
AcDbEntity
8
section_A_A_d
6
ByLayer
62
256
370
-1
100
AcDbDimension
2
*D42
10
2975
20
5300
30
0
11
2810
21
5352
31
0
70
32
71
5
3
Standard
53
0
210
0
220
0
230
1
100
AcDbAlignedDimension
13
2645
23
5261.45445518
33
0
14
2975
24
5257.54840139
34
0
100
AcDbRotatedDimension
0
DIMENSION
5
40E
100
AcDbEntity
8
section_A_A_d
6
ByLayer
62
256
370
-1
100
AcDbDimension
2
*D43
10
3680
20
5300
30
0
11
3372.5
21
5352
31
0
70
32
71
5
3
Standard
53
0
210
0
220
0
230
1
100
AcDbAlignedDimension
13
3065
23
5269.26656276
33
0
14
3680
24
5269.26656276
34
0
100
AcDbRotatedDimension
0
DIMENSION
5
40F
100
AcDbEntity
8
section_A_A_d
6
ByLayer
62
256
370
-1
100
AcDbDimension
2
*D44
10
3915
20
5300
30
0
11
3797.5
21
5352
31
0
70
32
71
5
3
Standard
53
0
210
0
220
0
230
1
100
AcDbAlignedDimension
13
3680
23
5261.45445518
33
0
14
3915
24
5257.54840139
34
0
100
AcDbRotatedDimension
0
DIMENSION
5
410
100
AcDbEntity
8
section_A_A_d
6
ByLayer
62
256
370
-1
100
AcDbDimension
2
*D45
10
4200
20
5300
30
0
11
4057.5
21
5352
31
0
70
32
71
5
3
Standard
53
0
210
0
220
0
230
1
100
AcDbAlignedDimension
13
3915
23
5265.36050897
33
0
14
4200
24
5265.36050897
34
0
100
AcDbRotatedDimension
0
DIMENSION
5
411
100
AcDbEntity
8
section_A_A_d
6
ByLayer
62
256
370
-1
100
AcDbDimension
2
*D46
10
4485
20
5300
30
0
11
4342.5
21
5352
31
0
70
32
71
5
3
Standard
53
0
210
0
220
0
230
1
100
AcDbAlignedDimension
13
4200
23
5261.45445518
33
0
14
4485
24
5257.54840139
34
0
100
AcDbRotatedDimension
0
DIMENSION
5
412
100
AcDbEntity
8
section_A_A_d
6
ByLayer
62
256
370
-1
100
AcDbDimension
2
*D47
10
4720
20
5300
30
0
11
4602.5
21
5352
31
0
70
32
71
5
3
Standard
53
0
210
0
220
0
230
1
100
AcDbAlignedDimension
13
4485
23
5261.45445518
33
0
14
4720
24
5253.6423476
34
0
100
AcDbRotatedDimension
0
DIMENSION
5
413
100
AcDbEntity
8
section_A_A_d
6
ByLayer
62
256
370
-1
100
AcDbDimension
2
*D48
10
5370
20
5300
30
0
11
5045
21
5352
31
0
70
32
71
5
3
Standard
53
0
210
0
220
0
230
1
100
AcDbAlignedDimension
13
4720
23
5265.36050897
33
0
14
5370
24
5261.45445518
34
0
100
AcDbRotatedDimension
0
DIMENSION
5
414
100
AcDbEntity
8
section_A_A_d
6
ByLayer
62
256
370
-1
100
AcDbDimension
2
*D49
10
5790
20
5300
30
0
11
5625
21
5352
31
0
70
32
71
5
3
Standard
53
0
210
0
220
0
230
1
100
AcDbAlignedDimension
13
5460
23
5245.83024002
33
0
14
5790
24
5245.83024002
34
0
100
AcDbRotatedDimension
0
DIMENSION
5
415
100
AcDbEntity
8
section_A_A_d
6
ByLayer
62
256
370
-1
100
AcDbDimension
2
*D50
10
6195
20
5300
30
0
11
5992.5
21
5352
31
0
70
32
71
5
3
Standard
53
0
210
0
220
0
230
1
100
AcDbAlignedDimension
13
5790
23
5238.01813244
33
0
14
6195
24
5238.01813244
34
0
100
AcDbRotatedDimension
0
DIMENSION
5
416
100
AcDbEntity
8
section_A_A_d
6
ByLayer
62
256
370
-1
100
AcDbDimension
2
*D51
10
6525
20
5300
30
0
11
6360
21
5352
31
0
70
32
71
5
3
Standard
53
0
210
0
220
0
230
1
100
AcDbAlignedDimension
13
6195
23
5249.73629381
33
0
14
6525
24
5245.83024002
34
0
100
AcDbRotatedDimension
0
DIMENSION
5
417
100
AcDbEntity
8
section_A_A_d
6
ByLayer
62
256
370
-1
100
AcDbDimension
2
*D52
10
7335
20
5300
30
0
11
6930
21
5352
31
0
70
32
71
5
3
Standard
53
0
210
0
220
0
230
1
100
AcDbAlignedDimension
13
6525
23
5238.01813244
33
0
14
7335
24
5238.01813244
34
0
100
AcDbRotatedDimension
0
LINE
5
418
100
AcDbEntity
8
section_A_A_d
6
CENTER2
62
256
370
-1
100
AcDbLine
10
1910
20
2264
11
1910
21
1914
0
LINE
5
419
100
AcDbEntity
8
section_A_A_d
6
CENTER2
62
256
370
-1
100
AcDbLine
10
2110
20
2264
11
2110
21
1914
0
LINE
5
41A
100
AcDbEntity
8
section_A_A_d
6
CENTER2
62
256
370
-1
100
AcDbLine
10
2442.5
20
2264
11
2442.5
21
1914
0
LINE
5
41B
100
AcDbEntity
8
section_A_A_d
6
CENTER2
62
256
370
-1
100
AcDbLine
10
2775
20
2264
11
2775
21
1914
0
LINE
5
41C
100
AcDbEntity
8
section_A_A_d
6
CENTER2
62
256
370
-1
100
AcDbLine
10
6525
20
2264
11
6525
21
1914
0
LINE
5
41D
100
AcDbEntity
8
section_A_A_d
6
CENTER2
62
256
370
-1
100
AcDbLine
10
6325
20
2264
11
6325
21
1914
0
LINE
5
41E
100
AcDbEntity
8
section_A_A_d
6
CENTER2
62
256
370
-1
100
AcDbLine
10
5992.5
20
2264
11
5992.5
21
1914
0
LINE
5
41F
100
AcDbEntity
8
section_A_A_d
6
CENTER2
62
256
370
-1
100
AcDbLine
10
5660
20
2264
11
5660
21
1914
0
DIMENSION
5
420
100
AcDbEntity
8
section_A_A_d
6
ByLayer
62
256
370
-1
100
AcDbDimension
2
*D53
10
1910
20
2000
30
0
11
1505
21
2052
31
0
70
32
71
5
3
Standard
53
0
210
0
220
0
230
1
100
AcDbAlignedDimension
13
1100
23
2042.86613219
33
0
14
1910
24
2042.86613219
34
0
100
AcDbRotatedDimension
0
DIMENSION
5
421
100
AcDbEntity
8
section_A_A_d
6
ByLayer
62
256
370
-1
100
AcDbDimension
2
*D54
10
2110
20
2000
30
0
11
2010
21
2052
31
0
70
32
71
5
3
Standard
53
0
210
0
220
0
230
1
100
AcDbAlignedDimension
13
1910
23
2035.05402461
33
0
14
2110
24
2035.05402461
34
0
100
AcDbRotatedDimension
0
DIMENSION
5
422
100
AcDbEntity
8
section_A_A_d
6
ByLayer
62
256
370
-1
100
AcDbDimension
2
*D55
10
2442.5
20
2000
30
0
11
2276.25
21
2052
31
0
70
32
71
5
3
Standard
53
0
210
0
220
0
230
1
100
AcDbAlignedDimension
13
2110
23
2031.14797082
33
0
14
2442.5
24
2031.14797082
34
0
100
AcDbRotatedDimension
0
DIMENSION
5
423
100
AcDbEntity
8
section_A_A_d
6
ByLayer
62
256
370
-1
100
AcDbDimension
2
*D56
10
2775
20
2000
30
0
11
2608.75
21
2052
31
0
70
32
71
5
3
Standard
53
0
210
0
220
0
230
1
100
AcDbAlignedDimension
13
2442.5
23
2058.49034735
33
0
14
2775
24
2058.49034735
34
0
100
AcDbRotatedDimension
0
DIMENSION
5
424
100
AcDbEntity
8
section_A_A_d
6
ByLayer
62
256
370
-1
100
AcDbDimension
2
*D57
10
3020
20
2000
30
0
11
2897.5
21
2052
31
0
70
32
71
5
3
Standard
53
0
210
0
220
0
230
1
100
AcDbAlignedDimension
13
2775
23
2066.30245493
33
0
14
3020
24
2070.20850872
34
0
100
AcDbRotatedDimension
0
DIMENSION
5
425
100
AcDbEntity
8
section_A_A_d
6
ByLayer
62
256
370
-1
100
AcDbDimension
2
*D58
10
5660
20
2000
30
0
11
5537.5
21
2052
31
0
70
32
71
5
3
Standard
53
0
210
0
220
0
230
1
100
AcDbAlignedDimension
13
5415
23
2070.20850872
33
0
14
5660
24
2066.30245493
34
0
100
AcDbRotatedDimension
0
DIMENSION
5
426
100
AcDbEntity
8
section_A_A_d
6
ByLayer
62
256
370
-1
100
AcDbDimension
2
*D59
10
5992.5
20
2000
30
0
11
5826.25
21
2052
31
0
70
32
71
5
3
Standard
53
0
210
0
220
0
230
1
100
AcDbAlignedDimension
13
5660
23
2054.58429356
33
0
14
5992.5
24
2062.39640114
34
0
100
AcDbRotatedDimension
0
DIMENSION
5
427
100
AcDbEntity
8
section_A_A_d
6
ByLayer
62
256
370
-1
100
AcDbDimension
2
*D60
10
6325
20
2000
30
0
11
6158.75
21
2052
31
0
70
32
71
5
3
Standard
53
0
210
0
220
0
230
1
100
AcDbAlignedDimension
13
5992.5
23
2062.39640114
33
0
14
6325
24
2066.30245493
34
0
100
AcDbRotatedDimension
0
DIMENSION
5
428
100
AcDbEntity
8
section_A_A_d
6
ByLayer
62
256
370
-1
100
AcDbDimension
2
*D61
10
6525
20
2000
30
0
11
6425
21
2052
31
0
70
32
71
5
3
Standard
53
0
210
0
220
0
230
1
100
AcDbAlignedDimension
13
6325
23
2066.30245493
33
0
14
6525
24
2066.30245493
34
0
100
AcDbRotatedDimension
0
DIMENSION
5
429
100
AcDbEntity
8
section_A_A_d
6
ByLayer
62
256
370
-1
100
AcDbDimension
2
*D62
10
7335
20
2000
30
0
11
6930
21
2052
31
0
70
32
71
5
3
Standard
53
0
210
0
220
0
230
1
100
AcDbAlignedDimension
13
6525
23
2038.9600784
33
0
14
7335
24
2031.14797082
34
0
100
AcDbRotatedDimension
0
CIRCLE
5
42A
100
AcDbEntity
8
section_A_A_d
6
ByLayer
62
256
370
-1
100
AcDbCircle
10
8365
20
4319
40
100
0
LINE
5
42B
100
AcDbEntity
8
section_A_A_d
6
CENTER2
62
256
370
-1
100
AcDbLine
10
8265
20
4319
11
4735
21
4319
0
MTEXT
5
42C
100
AcDbEntity
8
section_A_A_d
6
ByLayer
62
256
370
-1
100
AcDbMText
10
8340
20
4365
30
0
40
96
41
53.3333333333
71
1
72
1
1
D
7
standard
210
0
220
0
230
1
50
0
73
2
44
1
0
CIRCLE
5
42D
100
AcDbEntity
8
section_A_A_d
6
ByLayer
62
256
370
-1
100
AcDbCircle
10
185
20
4319
40
100
0
LINE
5
42E
100
AcDbEntity
8
section_A_A_d
6
CENTER2
62
256
370
-1
100
AcDbLine
10
3700
20
4319
11
285
21
4319
0
LINE
5
42F
100
AcDbEntity
8
section_A_A
6
ByLayer
62
256
370
-1
100
AcDbLine
10
3715
20
4389
11
4720
21
4389
0
LINE
5
430
100
AcDbEntity
8
section_A_A
6
ByLayer
62
256
370
-1
100
AcDbLine
10
3715
20
4354
11
4720
21
4354
0
LINE
5
431
100
AcDbEntity
8
section_A_A
6
ByLayer
62
256
370
-1
100
AcDbLine
10
3715
20
4319
11
4720
21
4319
0
DIMENSION
5
432
100
AcDbEntity
8
section_A_A_d
6
ByLayer
62
256
370
-1
100
AcDbDimension
2
*D63
10
8000
20
2399
30
0
11
7948
21
3359
31
0
70
32
71
5
3
Standard
53
0
210
0
220
0
230
1
100
AcDbAlignedDimension
13
7963.46716443
23
4319
33
0
14
7973.23229891
24
2399
34
0
50
90
100
AcDbRotatedDimension
0
DIMENSION
5
433
100
AcDbEntity
8
section_A_A_d
6
ByLayer
62
256
370
-1
100
AcDbDimension
2
*D64
10
500
20
2399
30
0
11
448
21
3359
31
0
70
32
71
5
3
Standard
53
0
210
0
220
0
230
1
100
AcDbAlignedDimension
13
527.317261655
23
4319
33
0
14
527.317261655
24
2399
34
0
50
90
100
AcDbRotatedDimension
0
LINE
5
434
100
AcDbEntity
8
section_A_A
6
ByLayer
62
256
370
-1
100
AcDbLine
10
3915
20
4729
11
3915
21
4389
0
LINE
5
435
100
AcDbEntity
8
section_A_A
6
ByLayer
62
256
370
-1
100
AcDbLine
10
3950
20
4729
11
3950
21
4389
0
LINE
5
436
100
AcDbEntity
8
section_A_A
6
ByLayer
62
256
370
-1
100
AcDbLine
10
4200
20
4729
11
4200
21
4389
0
LINE
5
437
100
AcDbEntity
8
section_A_A
6
ByLayer
62
256
370
-1
100
AcDbLine
10
4235
20
4729
11
4235
21
4389
0
LINE
5
438
100
AcDbEntity
8
section_A_A
6
ByLayer
62
256
370
-1
100
AcDbLine
10
4485
20
4729
11
4485
21
4389
0
LINE
5
439
100
AcDbEntity
8
section_A_A
6
ByLayer
62
256
370
-1
100
AcDbLine
10
4520
20
4729
11
4520
21
4389
0
DIMENSION
5
43A
100
AcDbEntity
8
section_A_A_d
6
ByLayer
62
256
370
-1
100
AcDbDimension
2
*D65
10
4100
20
4389
30
0
11
4048
21
4559
31
0
70
32
71
5
3
Standard
53
0
210
0
220
0
230
1
100
AcDbAlignedDimension
13
4049.79656951
23
4729
33
0
14
4057.29619278
24
4389
34
0
50
90
100
AcDbRotatedDimension
0
MTEXT
5
43B
100
AcDbEntity
8
section_A_A_d
6
ByLayer
62
256
370
-1
100
AcDbMText
10
2210
20
750
30
0
40
64
41
220.444444444
71
1
72
1
1
H3-10
7
standard
210
0
220
0
230
1
50
0
73
2
44
1
0
MTEXT
5
43C
100
AcDbEntity
8
section_A_A_d
6
ByLayer
62
256
370
-1
100
AcDbMText
10
1790
20
750
30
0
40
64
41
234.666666667
71
1
72
1
1
90x45
7
standard
210
0
220
0
230
1
50
0
73
2
44
1
0
MTEXT
5
43D
100
AcDbEntity
8
section_A_A_d
6
ByLayer
62
256
370
-1
100
AcDbMText
10
3170
20
750
30
0
40
64
41
35.5555555556
71
1
72
1
1
4
7
standard
210
0
220
0
230
1
50
0
73
2
44
1
0
MTEXT
5
43E
100
AcDbEntity
8
section_A_A_d
6
ByLayer
62
256
370
-1
100
AcDbMText
10
2650
20
750
30
0
40
64
41
177.777777778
71
1
72
1
1
2275
7
standard
210
0
220
0
230
1
50
0
73
2
44
1
0
MTEXT
5
43F
100
AcDbEntity
8
section_A_A_d
6
ByLayer
62
256
370
-1
100
AcDbMText
10
1790
20
640
30
0
40
64
41
227.555555556
71
1
72
1
1
90x35
7
standard
210
0
220
0
230
1
50
0
73
2
44
1
0
MTEXT
5
440
100
AcDbEntity
8
section_A_A_d
6
ByLayer
62
256
370
-1
100
AcDbMText
10
2210
20
640
30
0
40
64
41
220.444444444
71
1
72
1
1
H3-10
7
standard
210
0
220
0
230
1
50
0
73
2
44
1
0
MTEXT
5
441
100
AcDbEntity
8
section_A_A_d
6
ByLayer
62
256
370
-1
100
AcDbMText
10
2650
20
640
30
0
40
64
41
177.777777778
71
1
72
1
1
2330
7
standard
210
0
220
0
230
1
50
0
73
2
44
1
0
MTEXT
5
442
100
AcDbEntity
8
section_A_A_d
6
ByLayer
62
256
370
-1
100
AcDbMText
10
3170
20
640
30
0
40
64
41
28.4444444444
71
1
72
1
1
6
7
standard
210
0
220
0
230
1
50
0
73
2
44
1
0
MTEXT
5
443
100
AcDbEntity
8
section_A_A_d
6
ByLayer
62
256
370
-1
100
AcDbMText
10
1790
20
530
30
0
40
64
41
227.555555556
71
1
72
1
1
90x35
7
standard
210
0
220
0
230
1
50
0
73
2
44
1
0
MTEXT
5
444
100
AcDbEntity
8
section_A_A_d
6
ByLayer
62
256
370
-1
100
AcDbMText
10
2210
20
530
30
0
40
64
41
220.444444444
71
1
72
1
1
H3-10
7
standard
210
0
220
0
230
1
50
0
73
2
44
1
0
MTEXT
5
445
100
AcDbEntity
8
section_A_A_d
6
ByLayer
62
256
370
-1
100
AcDbMText
10
2650
20
530
30
0
40
64
41
177.777777778
71
1
72
1
1
2305
7
standard
210
0
220
0
230
1
50
0
73
2
44
1
0
MTEXT
5
446
100
AcDbEntity
8
section_A_A_d
6
ByLayer
62
256
370
-1
100
AcDbMText
10
3170
20
530
30
0
40
64
41
14.2222222222
71
1
72
1
1
1
7
standard
210
0
220
0
230
1
50
0
73
2
44
1
0
MTEXT
5
447
100
AcDbEntity
8
section_A_A_d
6
ByLayer
62
256
370
-1
100
AcDbMText
10
1794
20
420
30
0
40
64
41
227.555555556
71
1
72
1
1
90x35
7
standard
210
0
220
0
230
1
50
0
73
2
44
1
0
MTEXT
5
448
100
AcDbEntity
8
section_A_A_d
6
ByLayer
62
256
370
-1
100
AcDbMText
10
2214
20
420
30
0
40
64
41
220.444444444
71
1
72
1
1
H3-10
7
standard
210
0
220
0
230
1
50
0
73
2
44
1
0
MTEXT
5
449
100
AcDbEntity
8
section_A_A_d
6
ByLayer
62
256
370
-1
100
AcDbMText
10
2650
20
420
30
0
40
64
41
163.555555556
71
1
72
1
1
1920
7
standard
210
0
220
0
230
1
50
0
73
2
44
1
0
MTEXT
5
44A
100
AcDbEntity
8
section_A_A_d
6
ByLayer
62
256
370
-1
100
AcDbMText
10
3170
20
420
30
0
40
64
41
35.5555555556
71
1
72
1
1
4
7
standard
210
0
220
0
230
1
50
0
73
2
44
1
0
MTEXT
5
44B
100
AcDbEntity
8
section_A_A_d
6
ByLayer
62
256
370
-1
100
AcDbMText
10
1790
20
310
30
0
40
64
41
227.555555556
71
1
72
1
1
90x35
7
standard
210
0
220
0
230
1
50
0
73
2
44
1
0
MTEXT
5
44C
100
AcDbEntity
8
section_A_A_d
6
ByLayer
62
256
370
-1
100
AcDbMText
10
2210
20
310
30
0
40
64
41
220.444444444
71
1
72
1
1
H3-10
7
standard
210
0
220
0
230
1
50
0
73
2
44
1
0
MTEXT
5
44D
100
AcDbEntity
8
section_A_A_d
6
ByLayer
62
256
370
-1
100
AcDbMText
10
2650
20
310
30
0
40
64
41
163.555555556
71
1
72
1
1
1875
7
standard
210
0
220
0
230
1
50
0
73
2
44
1
0
MTEXT
5
44E
100
AcDbEntity
8
section_A_A_d
6
ByLayer
62
256
370
-1
100
AcDbMText
10
3170
20
310
30
0
40
64
41
28.4444444444
71
1
72
1
1
2
7
standard
210
0
220
0
230
1
50
0
73
2
44
1
0
MTEXT
5
44F
100
AcDbEntity
8
section_A_A_d
6
ByLayer
62
256
370
-1
100
AcDbMText
10
1790
20
200
30
0
40
64
41
227.555555556
71
1
72
1
1
90x35
7
standard
210
0
220
0
230
1
50
0
73
2
44
1
0
MTEXT
5
450
100
AcDbEntity
8
section_A_A_d
6
ByLayer
62
256
370
-1
100
AcDbMText
10
2210
20
200
30
0
40
64
41
220.444444444
71
1
72
1
1
H3-10
7
standard
210
0
220
0
230
1
50
0
73
2
44
1
0
MTEXT
5
451
100
AcDbEntity
8
section_A_A_d
6
ByLayer
62
256
370
-1
100
AcDbMText
10
2650
20
200
30
0
40
64
41
163.555555556
71
1
72
1
1
1030
7
standard
210
0
220
0
230
1
50
0
73
2
44
1
0
MTEXT
5
452
100
AcDbEntity
8
section_A_A_d
6
ByLayer
62
256
370
-1
100
AcDbMText
10
3170
20
200
30
0
40
64
41
28.4444444444
71
1
72
1
1
8
7
standard
210
0
220
0
230
1
50
0
73
2
44
1
0
MTEXT
5
453
100
AcDbEntity
8
section_A_A_d
6
ByLayer
62
256
370
-1
100
AcDbMText
10
1790
20
90
30
0
40
64
41
227.555555556
71
1
72
1
1
90x35
7
standard
210
0
220
0
230
1
50
0
73
2
44
1
0
MTEXT
5
454
100
AcDbEntity
8
section_A_A_d
6
ByLayer
62
256
370
-1
100
AcDbMText
10
2210
20
90
30
0
40
64
41
220.444444444
71
1
72
1
1
H3-10
7
standard
210
0
220
0
230
1
50
0
73
2
44
1
0
MTEXT
5
455
100
AcDbEntity
8
section_A_A_d
6
ByLayer
62
256
370
-1
100
AcDbMText
10
2650
20
90
30
0
40
64
41
163.555555556
71
1
72
1
1
1005
7
standard
210
0
220
0
230
1
50
0
73
2
44
1
0
MTEXT
5
456
100
AcDbEntity
8
section_A_A_d
6
ByLayer
62
256
370
-1
100
AcDbMText
10
3170
20
90
30
0
40
64
41
28.4444444444
71
1
72
1
1
2
7
standard
210
0
220
0
230
1
50
0
73
2
44
1
0
MTEXT
5
457
100
AcDbEntity
8
section_A_A_d
6
ByLayer
62
256
370
-1
100
AcDbMText
10
3480
20
750
30
0
40
64
41
227.555555556
71
1
72
1
1
90x35
7
standard
210
0
220
0
230
1
50
0
73
2
44
1
0
MTEXT
5
458
100
AcDbEntity
8
section_A_A_d
6
ByLayer
62
256
370
-1
100
AcDbMText
10
3900
20
750
30
0
40
64
41
220.444444444
71
1
72
1
1
H3-10
7
standard
210
0
220
0
230
1
50
0
73
2
44
1
0
MTEXT
5
459
100
AcDbEntity
8
section_A_A_d
6
ByLayer
62
256
370
-1
100
AcDbMText
10
4870
20
640
30
0
40
64
41
35.5555555556
71
1
72
1
1
4
7
standard
210
0
220
0
230
1
50
0
73
2
44
1
0
MTEXT
5
45A
100
AcDbEntity
8
section_A_A_d
6
ByLayer
62
256
370
-1
100
AcDbMText
10
4870
20
750
30
0
40
64
41
35.5555555556
71
1
72
1
1
4
7
standard
210
0
220
0
230
1
50
0
73
2
44
1
0
MTEXT
5
45B
100
AcDbEntity
8
section_A_A_d
6
ByLayer
62
256
370
-1
100
AcDbMText
10
4370
20
750
30
0
40
64
41
128
71
1
72
1
1
970
7
standard
210
0
220
0
230
1
50
0
73
2
44
1
0
MTEXT
5
45C
100
AcDbEntity
8
section_A_A_d
6
ByLayer
62
256
370
-1
100
AcDbMText
10
4370
20
640
30
0
40
64
41
128
71
1
72
1
1
775
7
standard
210
0
220
0
230
1
50
0
73
2
44
1
0
MTEXT
5
45D
100
AcDbEntity
8
section_A_A_d
6
ByLayer
62
256
370
-1
100
AcDbMText
10
4370
20
530
30
0
40
64
41
113.777777778
71
1
72
1
1
715
7
standard
210
0
220
0
230
1
50
0
73
2
44
1
0
MTEXT
5
45E
100
AcDbEntity
8
section_A_A_d
6
ByLayer
62
256
370
-1
100
AcDbMText
10
4870
20
530
30
0
40
64
41
28.4444444444
71
1
72
1
1
6
7
standard
210
0
220
0
230
1
50
0
73
2
44
1
0
MTEXT
5
45F
100
AcDbEntity
8
section_A_A_d
6
ByLayer
62
256
370
-1
100
AcDbMText
10
4370
20
420
30
0
40
64
41
113.777777778
71
1
72
1
1
615
7
standard
210
0
220
0
230
1
50
0
73
2
44
1
0
MTEXT
5
460
100
AcDbEntity
8
section_A_A_d
6
ByLayer
62
256
370
-1
100
AcDbMText
10
4870
20
420
30
0
40
64
41
35.5555555556
71
1
72
1
1
4
7
standard
210
0
220
0
230
1
50
0
73
2
44
1
0
MTEXT
5
461
100
AcDbEntity
8
section_A_A_d
6
ByLayer
62
256
370
-1
100
AcDbMText
10
4370
20
310
30
0
40
64
41
128
71
1
72
1
1
505
7
standard
210
0
220
0
230
1
50
0
73
2
44
1
0
MTEXT
5
462
100
AcDbEntity
8
section_A_A_d
6
ByLayer
62
256
370
-1
100
AcDbMText
10
4870
20
310
30
0
40
64
41
28.4444444444
71
1
72
1
1
6
7
standard
210
0
220
0
230
1
50
0
73
2
44
1
0
MTEXT
5
463
100
AcDbEntity
8
section_A_A_d
6
ByLayer
62
256
370
-1
100
AcDbMText
10
4370
20
200
30
0
40
64
41
135.111111111
71
1
72
1
1
340
7
standard
210
0
220
0
230
1
50
0
73
2
44
1
0
MTEXT
5
464
100
AcDbEntity
8
section_A_A_d
6
ByLayer
62
256
370
-1
100
AcDbMText
10
4870
20
200
30
0
40
64
41
35.5555555556
71
1
72
1
1
4
7
standard
210
0
220
0
230
1
50
0
73
2
44
1
0
MTEXT
5
465
100
AcDbEntity
8
section_A_A_d
6
ByLayer
62
256
370
-1
100
AcDbMText
10
5250
20
750
30
0
40
64
41
515.555555556
71
1
72
1
1
28 FEB 2017
7
standard
210
0
220
0
230
1
50
0
73
2
44
1
0
LINE
5
466
100
AcDbEntity
8
section_A_A
6
ByLayer
62
256
370
-1
100
AcDbLine
10
4685
20
4319
11
4685
21
2364
0
LINE
5
467
100
AcDbEntity
8
section_A_A
6
ByLayer
62
256
370
-1
100
AcDbLine
10
3750
20
4319
11
3750
21
2364
0
LINE
5
468
100
AcDbEntity
8
section_A_A
6
ByLayer
62
256
370
-1
100
AcDbLine
10
1135
20
4178.49747468
11
1685.50252532
21
4729
0
LINE
5
469
100
AcDbEntity
8
section_A_A
6
ByLayer
62
256
370
-1
100
AcDbLine
10
1135
20
4129
11
1735
21
4729
0
LINE
5
46A
100
AcDbEntity
8
section_A_A
6
ByLayer
62
256
370
-1
100
AcDbLine
10
1135
20
2949.50252532
11
1685.50252532
21
2399
0
LINE
5
46B
100
AcDbEntity
8
section_A_A
6
ByLayer
62
256
370
-1
100
AcDbLine
10
1135
20
2999
11
1735
21
2399
0
LINE
5
46C
100
AcDbEntity
8
section_A_A
6
ByLayer
62
256
370
-1
100
AcDbLine
10
6749.49747468
20
2399
11
7300
21
2949.50252532
0
LINE
5
46D
100
AcDbEntity
8
section_A_A
6
ByLayer
62
256
370
-1
100
AcDbLine
10
6700
20
2399
11
7300
21
2999
0
LINE
5
46E
100
AcDbEntity
8
section_A_A
6
ByLayer
62
256
370
-1
100
AcDbLine
10
6700
20
4729
11
7300
21
4129
0
LINE
5
46F
100
AcDbEntity
8
section_A_A
6
ByLayer
62
256
370
-1
100
AcDbLine
10
3065
20
4248.49747468
11
3545.50252532
21
4729
0
LINE
5
470
100
AcDbEntity
8
section_A_A
6
ByLayer
62
256
370
-1
100
AcDbLine
10
3065
20
4199
11
3595
21
4729
0
LINE
5
471
100
AcDbEntity
8
section_A_A
6
ByLayer
62
256
370
-1
100
AcDbLine
10
3065
20
2929
11
3595
21
2399
0
LINE
5
472
100
AcDbEntity
8
section_A_A
6
ByLayer
62
256
370
-1
100
AcDbLine
10
3065
20
2879.50252532
11
3545.50252532
21
2399
0
LINE
5
473
100
AcDbEntity
8
section_A_A
6
ByLayer
62
256
370
-1
100
AcDbLine
10
4889.49747468
20
4729
11
5370
21
4248.49747468
0
LINE
5
474
100
AcDbEntity
8
section_A_A
6
ByLayer
62
256
370
-1
100
AcDbLine
10
4840
20
4729
11
5370
21
4199
0
LINE
5
475
100
AcDbEntity
8
section_A_A
6
ByLayer
62
256
370
-1
100
AcDbLine
10
4840
20
2399
11
5370
21
2929
0
LINE
5
476
100
AcDbEntity
8
section_A_A
6
ByLayer
62
256
370
-1
100
AcDbLine
10
4889.49747468
20
2399
11
5370
21
2879.50252532
0
LINE
5
477
100
AcDbEntity
8
section_A_extra
6
ByLayer
62
256
370
-1
100
AcDbLine
10
1980
20
4154
11
1980
21
3184
0
LINE
5
478
100
AcDbEntity
8
section_A_extra
6
ByLayer
62
256
370
-1
100
AcDbLine
10
6455
20
4154
11
6455
21
3184
0
LINE
5
479
100
AcDbEntity
8
section_A_extra
6
ByLayer
62
256
370
-1
100
AcDbLine
10
4685
20
4319
11
4685
21
2364
0
LINE
5
47A
100
AcDbEntity
8
section_A_extra
6
ByLayer
62
256
370
-1
100
AcDbLine
10
3750
20
4319
11
3750
21
2364
0
LINE
5
47B
100
AcDbEntity
8
section_A_extra
6
ByLayer
62
256
370
-1
100
AcDbLine
10
1875
20
4729
11
1875
21
4039
0
LINE
5
47C
100
AcDbEntity
8
section_A_extra
6
ByLayer
62
256
370
-1
100
AcDbLine
10
1875
20
4004
11
1875
21
3119
0
LINE
5
47D
100
AcDbEntity
8
section_A_extra
6
ByLayer
62
256
370
-1
100
AcDbLine
10
1875
20
4729
11
1910
21
4729
0
LINE
5
47E
100
AcDbEntity
8
section_A_extra
6
ByLayer
62
256
370
-1
100
AcDbLine
10
1875
20
4039
11
1910
21
4039
0
LINE
5
47F
100
AcDbEntity
8
section_A_extra
6
ByLayer
62
256
370
-1
100
AcDbLine
10
1875
20
4004
11
1910
21
4004
0
LINE
5
480
100
AcDbEntity
8
section_A_extra
6
ByLayer
62
256
370
-1
100
AcDbLine
10
1875
20
3119
11
1910
21
3119
0
LINE
5
481
100
AcDbEntity
8
section_A_extra
6
ByLayer
62
256
370
-1
100
AcDbLine
10
1910
20
4729
11
1910
21
3114
0
LINE
5
482
100
AcDbEntity
8
section_A_extra
6
ByLayer
62
256
370
-1
100
AcDbLine
10
1945
20
4259
11
2240
21
4259
0
LINE
5
483
100
AcDbEntity
8
section_A_extra
6
ByLayer
62
256
370
-1
100
AcDbLine
10
2275
20
4259
11
2645
21
4259
0
LINE
5
484
100
AcDbEntity
8
section_A_extra
6
ByLayer
62
256
370
-1
100
AcDbLine
10
2680
20
4259
11
2940
21
4259
0
LINE
5
485
100
AcDbEntity
8
section_A_extra
6
ByLayer
62
256
370
-1
100
AcDbLine
10
2940
20
4259
11
2940
21
4224
0
LINE
5
486
100
AcDbEntity
8
section_A_extra
6
ByLayer
62
256
370
-1
100
AcDbLine
10
1945
20
3079
11
2110
21
3079
0
LINE
5
487
100
AcDbEntity
8
section_A_extra
6
ByLayer
62
256
370
-1
100
AcDbLine
10
2145
20
3079
11
2442.5
21
3079
0
LINE
5
488
100
AcDbEntity
8
section_A_extra
6
ByLayer
62
256
370
-1
100
AcDbLine
10
2477.5
20
3079
11
2775
21
3079
0
LINE
5
489
100
AcDbEntity
8
section_A_extra
6
ByLayer
62
256
370
-1
100
AcDbLine
10
2810
20
3079
11
2975
21
3079
0
LINE
5
48A
100
AcDbEntity
8
section_A_extra
6
ByLayer
62
256
370
-1
100
AcDbLine
10
2680
20
4259
11
2680
21
4224
0
LINE
5
48B
100
AcDbEntity
8
section_A_extra
6
ByLayer
62
256
370
-1
100
AcDbLine
10
2645
20
4259
11
2645
21
4224
0
LINE
5
48C
100
AcDbEntity
8
section_A_extra
6
ByLayer
62
256
370
-1
100
AcDbLine
10
2275
20
4259
11
2275
21
4224
0
LINE
5
48D
100
AcDbEntity
8
section_A_extra
6
ByLayer
62
256
370
-1
100
AcDbLine
10
2240
20
4259
11
2240
21
4224
0
LINE
5
48E
100
AcDbEntity
8
section_A_extra
6
ByLayer
62
256
370
-1
100
AcDbLine
10
1945
20
4259
11
1945
21
4224
0
LINE
5
48F
100
AcDbEntity
8
section_A_extra
6
ByLayer
62
256
370
-1
100
AcDbLine
10
1945
20
3114
11
1945
21
3079
0
LINE
5
490
100
AcDbEntity
8
section_A_extra
6
ByLayer
62
256
370
-1
100
AcDbLine
10
2110
20
3114
11
2110
21
3079
0
LINE
5
491
100
AcDbEntity
8
section_A_extra
6
ByLayer
62
256
370
-1
100
AcDbLine
10
2145
20
3114
11
2145
21
3079
0
LINE
5
492
100
AcDbEntity
8
section_A_extra
6
ByLayer
62
256
370
-1
100
AcDbLine
10
2442.5
20
3114
11
2442.5
21
3079
0
LINE
5
493
100
AcDbEntity
8
section_A_extra
6
ByLayer
62
256
370
-1
100
AcDbLine
10
2477.5
20
3114
11
2477.5
21
3079
0
LINE
5
494
100
AcDbEntity
8
section_A_extra
6
ByLayer
62
256
370
-1
100
AcDbLine
10
2775
20
3114
11
2775
21
3079
0
LINE
5
495
100
AcDbEntity
8
section_A_extra
6
ByLayer
62
256
370
-1
100
AcDbLine
10
2810
20
3114
11
2810
21
3079
0
LINE
5
496
100
AcDbEntity
8
section_A_extra
6
ByLayer
62
256
370
-1
100
AcDbLine
10
2975
20
3114
11
2975
21
3079
0
LINE
5
497
100
AcDbEntity
8
section_A_extra
6
ByLayer
62
256
370
-1
100
AcDbLine
10
3680
20
4389
11
4755
21
4389
0
LINE
5
498
100
AcDbEntity
8
section_A_extra
6
ByLayer
62
256
370
-1
100
AcDbLine
10
3680
20
4319
11
4755
21
4319
0
LINE
5
499
100
AcDbEntity
8
section_A_extra
6
ByLayer
62
256
370
-1
100
AcDbLine
10
3680
20
4729
11
3680
21
2364
0
LINE
5
49A
100
AcDbEntity
8
section_A_extra
6
ByLayer
62
256
370
-1
100
AcDbLine
10
4755
20
4729
11
4755
21
2364
0
LINE
5
49B
100
AcDbEntity
8
section_A_extra
6
ByLayer
62
256
370
-1
100
AcDbLine
10
3680
20
2364
11
3750
21
2364
0
LINE
5
49C
100
AcDbEntity
8
section_A_extra
6
ByLayer
62
256
370
-1
100
AcDbLine
10
4685
20
2364
11
4755
21
2364
0
LINE
5
49D
100
AcDbEntity
8
section_A_extra
6
ByLayer
62
256
370
-1
100
AcDbLine
10
3645
20
4004
11
3645
21
3119
0
LINE
5
49E
100
AcDbEntity
8
section_A_extra
6
ByLayer
62
256
370
-1
100
AcDbLine
10
3645
20
4729
11
3645
21
4039
0
LINE
5
49F
100
AcDbEntity
8
section_A_A
6
ByLayer
62
256
370
-1
100
AcDbLine
10
3680
20
3084
11
3680
21
2399
0
LINE
5
4A0
100
AcDbEntity
8
section_A_extra
6
ByLayer
62
256
370
-1
100
AcDbLine
10
3645
20
3084
11
3645
21
2399
0
LINE
5
4A1
100
AcDbEntity
8
section_A_extra
6
ByLayer
62
256
370
-1
100
AcDbLine
10
4790
20
3084
11
4790
21
2399
0
LINE
5
4A2
100
AcDbEntity
8
section_A_extra
6
ByLayer
62
256
370
-1
100
AcDbLine
10
4790
20
4729
11
4790
21
4039
0
LINE
5
4A3
100
AcDbEntity
8
section_A_extra
6
ByLayer
62
256
370
-1
100
AcDbLine
10
4790
20
4004
11
4790
21
3119
0
LINE
5
4A4
100
AcDbEntity
8
section_A_extra
6
ByLayer
62
256
370
-1
100
AcDbLine
10
3645
20
4729
11
3680
21
4729
0
LINE
5
4A5
100
AcDbEntity
8
section_A_extra
6
ByLayer
62
256
370
-1
100
AcDbLine
10
3645
20
4039
11
3680
21
4039
0
LINE
5
4A6
100
AcDbEntity
8
section_A_extra
6
ByLayer
62
256
370
-1
100
AcDbLine
10
3645
20
4004
11
3680
21
4004
0
LINE
5
4A7
100
AcDbEntity
8
section_A_extra
6
ByLayer
62
256
370
-1
100
AcDbLine
10
3645
20
3119
11
3680
21
3119
0
LINE
5
4A8
100
AcDbEntity
8
section_A_extra
6
ByLayer
62
256
370
-1
100
AcDbLine
10
3645
20
3084
11
3680
21
3084
0
LINE
5
4A9
100
AcDbEntity
8
section_A_extra
6
ByLayer
62
256
370
-1
100
AcDbLine
10
3645
20
2399
11
3680
21
2399
0
LINE
5
4AA
100
AcDbEntity
8
section_A_extra
6
ByLayer
62
256
370
-1
100
AcDbLine
10
4755
20
2399
11
4790
21
2399
0
LINE
5
4AB
100
AcDbEntity
8
section_A_extra
6
ByLayer
62
256
370
-1
100
AcDbLine
10
4755
20
3084
11
4790
21
3084
0
LINE
5
4AC
100
AcDbEntity
8
section_A_extra
6
ByLayer
62
256
370
-1
100
AcDbLine
10
4755
20
3119
11
4790
21
3119
0
LINE
5
4AD
100
AcDbEntity
8
section_A_extra
6
ByLayer
62
256
370
-1
100
AcDbLine
10
4755
20
4004
11
4790
21
4004
0
LINE
5
4AE
100
AcDbEntity
8
section_A_extra
6
ByLayer
62
256
370
-1
100
AcDbLine
10
4755
20
4039
11
4790
21
4039
0
LINE
5
4AF
100
AcDbEntity
8
section_A_extra
6
ByLayer
62
256
370
-1
100
AcDbLine
10
4755
20
4729
11
4790
21
4729
0
LINE
5
4B0
100
AcDbEntity
8
section_A_extra
6
ByLayer
62
256
370
-1
100
AcDbLine
10
3715
20
4424
11
3915
21
4424
0
LINE
5
4B1
100
AcDbEntity
8
section_A_extra
6
ByLayer
62
256
370
-1
100
AcDbLine
10
3950
20
4424
11
4200
21
4424
0
LINE
5
4B2
100
AcDbEntity
8
section_A_extra
6
ByLayer
62
256
370
-1
100
AcDbLine
10
4235
20
4424
11
4485
21
4424
0
LINE
5
4B3
100
AcDbEntity
8
section_A_extra
6
ByLayer
62
256
370
-1
100
AcDbLine
10
4520
20
4424
11
4720
21
4424
0
LINE
5
4B4
100
AcDbEntity
8
section_A_extra
6
ByLayer
62
256
370
-1
100
AcDbLine
10
3715
20
4424
11
3715
21
4389
0
LINE
5
4B5
100
AcDbEntity
8
section_A_extra
6
ByLayer
62
256
370
-1
100
AcDbLine
10
3915
20
4424
11
3915
21
4389
0
LINE
5
4B6
100
AcDbEntity
8
section_A_extra
6
ByLayer
62
256
370
-1
100
AcDbLine
10
3950
20
4424
11
3950
21
4389
0
LINE
5
4B7
100
AcDbEntity
8
section_A_extra
6
ByLayer
62
256
370
-1
100
AcDbLine
10
4200
20
4424
11
4200
21
4389
0
LINE
5
4B8
100
AcDbEntity
8
section_A_extra
6
ByLayer
62
256
370
-1
100
AcDbLine
10
4235
20
4424
11
4235
21
4389
0
LINE
5
4B9
100
AcDbEntity
8
section_A_extra
6
ByLayer
62
256
370
-1
100
AcDbLine
10
4485
20
4424
11
4485
21
4389
0
LINE
5
4BA
100
AcDbEntity
8
section_A_extra
6
ByLayer
62
256
370
-1
100
AcDbLine
10
4520
20
4424
11
4520
21
4389
0
LINE
5
4BB
100
AcDbEntity
8
section_A_extra
6
ByLayer
62
256
370
-1
100
AcDbLine
10
4720
20
4424
11
4720
21
4389
0
LINE
5
4BC
100
AcDbEntity
8
section_A_A
6
ByLayer
62
256
370
-1
100
AcDbLine
10
5415
20
4674
11
5415
21
2364
0
LINE
5
4BD
100
AcDbEntity
8
section_A_extra
6
ByLayer
62
256
370
-1
100
AcDbLine
10
5495
20
4259
11
5755
21
4259
0
LINE
5
4BE
100
AcDbEntity
8
section_A_extra
6
ByLayer
62
256
370
-1
100
AcDbLine
10
5790
20
4259
11
6160
21
4259
0
LINE
5
4BF
100
AcDbEntity
8
section_A_extra
6
ByLayer
62
256
370
-1
100
AcDbLine
10
6195
20
4259
11
6490
21
4259
0
LINE
5
4C0
100
AcDbEntity
8
section_A_extra
6
ByLayer
62
256
370
-1
100
AcDbLine
10
5460
20
3079
11
5625
21
3079
0
LINE
5
4C1
100
AcDbEntity
8
section_A_extra
6
ByLayer
62
256
370
-1
100
AcDbLine
10
5660
20
3079
11
5957.5
21
3079
0
LINE
5
4C2
100
AcDbEntity
8
section_A_extra
6
ByLayer
62
256
370
-1
100
AcDbLine
10
5992.5
20
3079
11
6290
21
3079
0
LINE
5
4C3
100
AcDbEntity
8
section_A_extra
6
ByLayer
62
256
370
-1
100
AcDbLine
10
6325
20
3079
11
6490
21
3079
0
LINE
5
4C4
100
AcDbEntity
8
section_A_extra
6
ByLayer
62
256
370
-1
100
AcDbLine
10
6560
20
4729
11
6560
21
4039
0
LINE
5
4C5
100
AcDbEntity
8
section_A_extra
6
ByLayer
62
256
370
-1
100
AcDbLine
10
6560
20
4004
11
6560
21
3119
0
LINE
5
4C6
100
AcDbEntity
8
section_A_extra
6
ByLayer
62
256
370
-1
100
AcDbLine
10
6525
20
4729
11
6525
21
3114
0
LINE
5
4C7
100
AcDbEntity
8
section_A_extra
6
ByLayer
62
256
370
-1
100
AcDbLine
10
5495
20
4259
11
5495
21
4224
0
LINE
5
4C8
100
AcDbEntity
8
section_A_extra
6
ByLayer
62
256
370
-1
100
AcDbLine
10
5755
20
4259
11
5755
21
4224
0
LINE
5
4C9
100
AcDbEntity
8
section_A_extra
6
ByLayer
62
256
370
-1
100
AcDbLine
10
5790
20
4259
11
5790
21
4224
0
LINE
5
4CA
100
AcDbEntity
8
section_A_extra
6
ByLayer
62
256
370
-1
100
AcDbLine
10
6160
20
4259
11
6160
21
4224
0
LINE
5
4CB
100
AcDbEntity
8
section_A_extra
6
ByLayer
62
256
370
-1
100
AcDbLine
10
6195
20
4259
11
6195
21
4224
0
LINE
5
4CC
100
AcDbEntity
8
section_A_extra
6
ByLayer
62
256
370
-1
100
AcDbLine
10
6490
20
4259
11
6490
21
4224
0
LINE
5
4CD
100
AcDbEntity
8
section_A_extra
6
ByLayer
62
256
370
-1
100
AcDbLine
10
6490
20
3114
11
6490
21
3079
0
LINE
5
4CE
100
AcDbEntity
8
section_A_extra
6
ByLayer
62
256
370
-1
100
AcDbLine
10
6325
20
3114
11
6325
21
3079
0
LINE
5
4CF
100
AcDbEntity
8
section_A_extra
6
ByLayer
62
256
370
-1
100
AcDbLine
10
6290
20
3114
11
6290
21
3079
0
LINE
5
4D0
100
AcDbEntity
8
section_A_extra
6
ByLayer
62
256
370
-1
100
AcDbLine
10
5992.5
20
3114
11
5992.5
21
3079
0
LINE
5
4D1
100
AcDbEntity
8
section_A_extra
6
ByLayer
62
256
370
-1
100
AcDbLine
10
5957.5
20
3114
11
5957.5
21
3079
0
LINE
5
4D2
100
AcDbEntity
8
section_A_extra
6
ByLayer
62
256
370
-1
100
AcDbLine
10
5660
20
3114
11
5660
21
3079
0
LINE
5
4D3
100
AcDbEntity
8
section_A_extra
6
ByLayer
62
256
370
-1
100
AcDbLine
10
5625
20
3114
11
5625
21
3079
0
LINE
5
4D4
100
AcDbEntity
8
section_A_extra
6
ByLayer
62
256
370
-1
100
AcDbLine
10
5460
20
3114
11
5460
21
3079
0
LINE
5
4D5
100
AcDbEntity
8
section_A_extra
6
ByLayer
62
256
370
-1
100
AcDbLine
10
6525
20
4039
11
6560
21
4039
0
LINE
5
4D6
100
AcDbEntity
8
section_A_extra
6
ByLayer
62
256
370
-1
100
AcDbLine
10
6525
20
4004
11
6560
21
4004
0
LINE
5
4D7
100
AcDbEntity
8
section_A_extra
6
ByLayer
62
256
370
-1
100
AcDbLine
10
6525
20
3119
11
6560
21
3119
0
LINE
5
4D8
100
AcDbEntity
8
section_A_extra
6
ByLayer
62
256
370
-1
100
AcDbLine
10
6525
20
4729
11
6560
21
4729
0
DIMENSION
5
4D9
100
AcDbEntity
8
section_A_extra_d
6
ByLayer
62
256
370
-1
100
AcDbDimension
2
*D66
10
7000
20
3184
30
0
11
6948
21
3669
31
0
70
32
71
5
3
Standard
53
0
210
0
220
0
230
1
100
AcDbAlignedDimension
13
6525
23
4154
33
0
14
6525
24
3184
34
0
50
90
100
AcDbRotatedDimension
0
DIMENSION
5
4DA
100
AcDbEntity
8
section_A_extra_d
6
ByLayer
62
256
370
-1
100
AcDbDimension
2
*D67
10
5100
20
2364
30
0
11
5048
21
3341.5
31
0
70
32
71
5
3
Standard
53
0
210
0
220
0
230
1
100
AcDbAlignedDimension
13
4755
23
4319
33
0
14
4755
24
2364
34
0
50
90
100
AcDbRotatedDimension
0
DIMENSION
5
4DB
100
AcDbEntity
8
section_A_extra_d
6
ByLayer
62
256
370
-1
100
AcDbDimension
2
*D68
10
4755
20
2100
30
0
11
4217.5
21
2152
31
0
70
32
71
5
3
Standard
53
0
210
0
220
0
230
1
100
AcDbAlignedDimension
13
3680
23
4319
33
0
14
4755
24
4319
34
0
100
AcDbRotatedDimension
0
MTEXT
5
4DC
100
AcDbEntity
8
section_A_extra_d
6
ByLayer
62
256
370
-1
100
AcDbMText
10
6750
20
1060
30
0
40
128
41
1699.55555556
71
1
72
1
1
DOOR WINDOW TRIM
7
standard
210
0
220
0
230
1
50
0
73
2
44
1
0
LINE
5
4DD
100
AcDbEntity
8
section_A_A
6
ByLayer
62
256
370
-1
100
AcDbLine
10
3680
20
4729
11
3680
21
2399
0
LINE
5
4DE
100
AcDbEntity
8
section_A_A
6
ByLayer
62
256
370
-1
100
AcDbLine
10
2940
20
4154
11
2940
21
3184
0
LINE
5
4DF
100
AcDbEntity
8
section_A_A
6
ByLayer
62
256
370
-1
100
AcDbLine
10
5495
20
4154
11
5495
21
3184
0
LINE
5
4E0
100
AcDbEntity
8
section_A_extra
6
ByLayer
62
256
370
-1
100
AcDbLine
10
2940
20
4154
11
2940
21
3184
0
LINE
5
4E1
100
AcDbEntity
8
section_A_extra
6
ByLayer
62
256
370
-1
100
AcDbLine
10
3010
20
4224
11
3010
21
3114
0
LINE
5
4E2
100
AcDbEntity
8
section_A_extra
6
ByLayer
62
256
370
-1
100
AcDbLine
10
1910
20
4224
11
3010
21
4224
0
LINE
5
4E3
100
AcDbEntity
8
section_A_extra
6
ByLayer
62
256
370
-1
100
AcDbLine
10
1910
20
4154
11
3010
21
4154
0
LINE
5
4E4
100
AcDbEntity
8
section_A_extra
6
ByLayer
62
256
370
-1
100
AcDbLine
10
1910
20
3184
11
3010
21
3184
0
LINE
5
4E5
100
AcDbEntity
8
section_A_extra
6
ByLayer
62
256
370
-1
100
AcDbLine
10
1910
20
3114
11
3010
21
3114
0
LINE
5
4E6
100
AcDbEntity
8
section_A_extra
6
ByLayer
62
256
370
-1
100
AcDbLine
10
5495
20
4154
11
5495
21
3184
0
LINE
5
4E7
100
AcDbEntity
8
section_A_extra
6
ByLayer
62
256
370
-1
100
AcDbLine
10
5425
20
4224
11
5425
21
3114
0
LINE
5
4E8
100
AcDbEntity
8
section_A_extra
6
ByLayer
62
256
370
-1
100
AcDbLine
10
5425
20
4224
11
6525
21
4224
0
LINE
5
4E9
100
AcDbEntity
8
section_A_extra
6
ByLayer
62
256
370
-1
100
AcDbLine
10
5425
20
4154
11
6525
21
4154
0
LINE
5
4EA
100
AcDbEntity
8
section_A_extra
6
ByLayer
62
256
370
-1
100
AcDbLine
10
5425
20
3184
11
6525
21
3184
0
LINE
5
4EB
100
AcDbEntity
8
section_A_extra
6
ByLayer
62
256
370
-1
100
AcDbLine
10
5425
20
3114
11
6525
21
3114
0
DIMENSION
5
4EC
100
AcDbEntity
8
section_A_extra_d
6
ByLayer
62
256
370
-1
100
AcDbDimension
2
*D69
10
6525
20
2600
30
0
11
5975
21
2652
31
0
70
32
71
5
72
0
3
Standard
53
0
210
0
220
0
230
1
100
AcDbAlignedDimension
13
5425
23
3114
33
0
14
6525
24
3114
34
0
100
AcDbRotatedDimension
0
LINE
5
4ED
100
AcDbEntity
8
section_A_A
6
ByLayer
62
256
370
-1
100
AcDbLine
10
6819.49747468
20
4729
11
7300
21
4248.49747468
0
LINE
5
4EE
100
AcDbEntity
8
Foundation
6
ByLayer
62
256
370
-1
100
AcDbLine
10
1100
20
2364
11
1100
21
2345
0
LINE
5
4EF
100
AcDbEntity
8
Foundation
6
ByLayer
62
256
370
-1
100
AcDbLine
10
1168
20
2183
11
1168
21
2285
0
LINE
5
4F0
100
AcDbEntity
8
Foundation
6
ByLayer
62
256
370
-1
100
AcDbLine
10
1260
20
2183
11
1168
21
2183
0
LINE
5
4F1
100
AcDbEntity
8
Foundation
6
ByLayer
62
256
370
-1
100
AcDbLine
10
1262
20
2285
11
1262
21
2183
0
LINE
5
4F2
100
AcDbEntity
8
Foundation
6
ByLayer
62
256
370
-1
100
AcDbLine
10
1260
20
2183
11
1262
21
2183
0
LINE
5
4F3
100
AcDbEntity
8
Foundation
6
ByLayer
62
256
370
-1
100
AcDbLine
10
1215
20
2183
11
1215
21
2105
0
LINE
5
4F4
100
AcDbEntity
8
Foundation
6
ByLayer
62
256
370
-1
100
AcDbLine
10
1218
20
2183
11
1218
21
2105
0
LINE
5
4F5
100
AcDbEntity
8
Foundation
6
ByLayer
62
256
370
-1
100
AcDbLine
10
1212
20
2183
11
1212
21
2105
0
LINE
5
4F6
100
AcDbEntity
8
Foundation
6
ByLayer
62
256
370
-1
100
AcDbLine
10
1112
20
2105
11
1318
21
2105
0
LINE
5
4F7
100
AcDbEntity
8
Foundation
6
ByLayer
62
256
370
-1
100
AcDbLine
10
1112
20
2105
11
1318
21
2105
0
LINE
5
4F8
100
AcDbEntity
8
Foundation
6
ByLayer
62
256
370
-1
100
AcDbLine
10
1168
20
2285
11
1262
21
2285
0
LINE
5
4F9
100
AcDbEntity
8
Foundation
6
ByLayer
62
256
370
-1
100
AcDbLine
10
1100
20
2275
11
1100
21
2185
0
LINE
5
4FA
100
AcDbEntity
8
Foundation
6
ByLayer
62
256
370
-1
100
AcDbLine
10
1100
20
2275
11
1168
21
2275
0
LINE
5
4FB
100
AcDbEntity
8
Foundation
6
ByLayer
62
256
370
-1
100
AcDbLine
10
1100
20
2185
11
1168
21
2185
0
LINE
5
4FC
100
AcDbEntity
8
Foundation
6
ByLayer
62
256
370
-1
100
AcDbLine
10
7173
20
2183
11
7173
21
2285
0
LINE
5
4FD
100
AcDbEntity
8
Foundation
6
ByLayer
62
256
370
-1
100
AcDbLine
10
7265
20
2183
11
7173
21
2183
0
LINE
5
4FE
100
AcDbEntity
8
Foundation
6
ByLayer
62
256
370
-1
100
AcDbLine
10
7267
20
2285
11
7267
21
2183
0
LINE
5
4FF
100
AcDbEntity
8
Foundation
6
ByLayer
62
256
370
-1
100
AcDbLine
10
7265
20
2183
11
7267
21
2183
0
LINE
5
500
100
AcDbEntity
8
Foundation
6
ByLayer
62
256
370
-1
100
AcDbLine
10
7220
20
2183
11
7220
21
2105
0
LINE
5
501
100
AcDbEntity
8
Foundation
6
ByLayer
62
256
370
-1
100
AcDbLine
10
7223
20
2183
11
7223
21
2105
0
LINE
5
502
100
AcDbEntity
8
Foundation
6
ByLayer
62
256
370
-1
100
AcDbLine
10
7217
20
2183
11
7217
21
2105
0
LINE
5
503
100
AcDbEntity
8
Foundation
6
ByLayer
62
256
370
-1
100
AcDbLine
10
7117
20
2105
11
7323
21
2105
0
LINE
5
504
100
AcDbEntity
8
Foundation
6
ByLayer
62
256
370
-1
100
AcDbLine
10
7117
20
2105
11
7323
21
2105
0
LINE
5
505
100
AcDbEntity
8
Foundation
6
ByLayer
62
256
370
-1
100
AcDbLine
10
7173
20
2285
11
7267
21
2285
0
LINE
5
506
100
AcDbEntity
8
Foundation
6
ByLayer
62
256
370
-1
100
AcDbLine
10
7267
20
2185
11
7335
21
2185
0
LINE
5
507
100
AcDbEntity
8
Foundation
6
ByLayer
62
256
370
-1
100
AcDbLine
10
7335
20
2275
11
7335
21
2185
0
LINE
5
508
100
AcDbEntity
8
Foundation
6
ByLayer
62
256
370
-1
100
AcDbLine
10
7267
20
2275
11
7335
21
2275
0
LINE
5
509
100
AcDbEntity
8
Foundation
6
ByLayer
62
256
370
-1
100
AcDbLine
10
1100
20
2345
11
1100
21
2275
0
LINE
5
50A
100
AcDbEntity
8
Foundation
6
ByLayer
62
256
370
-1
100
AcDbLine
10
1145
20
2345
11
1145
21
2275
0
LINE
5
50B
100
AcDbEntity
8
Foundation
6
ByLayer
62
256
370
-1
100
AcDbLine
10
1100
20
2345
11
1145
21
2275
0
LINE
5
50C
100
AcDbEntity
8
Foundation
6
ByLayer
62
256
370
-1
100
AcDbLine
10
1145
20
2275
11
1145
21
2345
0
LINE
5
50D
100
AcDbEntity
8
Foundation
6
ByLayer
62
256
370
-1
100
AcDbLine
10
1145
20
2345
11
1100
21
2275
0
LINE
5
50E
100
AcDbEntity
8
Foundation
6
ByLayer
62
256
370
-1
100
AcDbLine
10
1425
20
2345
11
1425
21
2275
0
LINE
5
50F
100
AcDbEntity
8
Foundation
6
ByLayer
62
256
370
-1
100
AcDbLine
10
1470
20
2345
11
1470
21
2275
0
LINE
5
510
100
AcDbEntity
8
Foundation
6
ByLayer
62
256
370
-1
100
AcDbLine
10
1425
20
2345
11
1470
21
2275
0
LINE
5
511
100
AcDbEntity
8
Foundation
6
ByLayer
62
256
370
-1
100
AcDbLine
10
1470
20
2275
11
1470
21
2345
0
LINE
5
512
100
AcDbEntity
8
Foundation
6
ByLayer
62
256
370
-1
100
AcDbLine
10
1470
20
2345
11
1425
21
2275
0
LINE
5
513
100
AcDbEntity
8
Foundation
6
ByLayer
62
256
370
-1
100
AcDbLine
10
1750
20
2345
11
1750
21
2275
0
LINE
5
514
100
AcDbEntity
8
Foundation
6
ByLayer
62
256
370
-1
100
AcDbLine
10
1795
20
2345
11
1795
21
2275
0
LINE
5
515
100
AcDbEntity
8
Foundation
6
ByLayer
62
256
370
-1
100
AcDbLine
10
1750
20
2345
11
1795
21
2275
0
LINE
5
516
100
AcDbEntity
8
Foundation
6
ByLayer
62
256
370
-1
100
AcDbLine
10
1795
20
2275
11
1795
21
2345
0
LINE
5
517
100
AcDbEntity
8
Foundation
6
ByLayer
62
256
370
-1
100
AcDbLine
10
1795
20
2345
11
1750
21
2275
0
LINE
5
518
100
AcDbEntity
8
Foundation
6
ByLayer
62
256
370
-1
100
AcDbLine
10
2075
20
2345
11
2075
21
2275
0
LINE
5
519
100
AcDbEntity
8
Foundation
6
ByLayer
62
256
370
-1
100
AcDbLine
10
2120
20
2345
11
2120
21
2275
0
LINE
5
51A
100
AcDbEntity
8
Foundation
6
ByLayer
62
256
370
-1
100
AcDbLine
10
2075
20
2345
11
2120
21
2275
0
LINE
5
51B
100
AcDbEntity
8
Foundation
6
ByLayer
62
256
370
-1
100
AcDbLine
10
2120
20
2275
11
2120
21
2345
0
LINE
5
51C
100
AcDbEntity
8
Foundation
6
ByLayer
62
256
370
-1
100
AcDbLine
10
2120
20
2345
11
2075
21
2275
0
LINE
5
51D
100
AcDbEntity
8
Foundation
6
ByLayer
62
256
370
-1
100
AcDbLine
10
2400
20
2345
11
2400
21
2275
0
LINE
5
51E
100
AcDbEntity
8
Foundation
6
ByLayer
62
256
370
-1
100
AcDbLine
10
2445
20
2345
11
2445
21
2275
0
LINE
5
51F
100
AcDbEntity
8
Foundation
6
ByLayer
62
256
370
-1
100
AcDbLine
10
2400
20
2345
11
2445
21
2275
0
LINE
5
520
100
AcDbEntity
8
Foundation
6
ByLayer
62
256
370
-1
100
AcDbLine
10
2445
20
2275
11
2445
21
2345
0
LINE
5
521
100
AcDbEntity
8
Foundation
6
ByLayer
62
256
370
-1
100
AcDbLine
10
2445
20
2345
11
2400
21
2275
0
LINE
5
522
100
AcDbEntity
8
Foundation
6
ByLayer
62
256
370
-1
100
AcDbLine
10
2725
20
2345
11
2725
21
2275
0
LINE
5
523
100
AcDbEntity
8
Foundation
6
ByLayer
62
256
370
-1
100
AcDbLine
10
2770
20
2345
11
2770
21
2275
0
LINE
5
524
100
AcDbEntity
8
Foundation
6
ByLayer
62
256
370
-1
100
AcDbLine
10
2725
20
2345
11
2770
21
2275
0
LINE
5
525
100
AcDbEntity
8
Foundation
6
ByLayer
62
256
370
-1
100
AcDbLine
10
2770
20
2275
11
2770
21
2345
0
LINE
5
526
100
AcDbEntity
8
Foundation
6
ByLayer
62
256
370
-1
100
AcDbLine
10
2770
20
2345
11
2725
21
2275
0
LINE
5
527
100
AcDbEntity
8
Foundation
6
ByLayer
62
256
370
-1
100
AcDbLine
10
3050
20
2345
11
3050
21
2275
0
LINE
5
528
100
AcDbEntity
8
Foundation
6
ByLayer
62
256
370
-1
100
AcDbLine
10
3095
20
2345
11
3095
21
2275
0
LINE
5
529
100
AcDbEntity
8
Foundation
6
ByLayer
62
256
370
-1
100
AcDbLine
10
3050
20
2345
11
3095
21
2275
0
LINE
5
52A
100
AcDbEntity
8
Foundation
6
ByLayer
62
256
370
-1
100
AcDbLine
10
3095
20
2275
11
3095
21
2345
0
LINE
5
52B
100
AcDbEntity
8
Foundation
6
ByLayer
62
256
370
-1
100
AcDbLine
10
3095
20
2345
11
3050
21
2275
0
LINE
5
52C
100
AcDbEntity
8
Foundation
6
ByLayer
62
256
370
-1
100
AcDbLine
10
3375
20
2345
11
3375
21
2275
0
LINE
5
52D
100
AcDbEntity
8
Foundation
6
ByLayer
62
256
370
-1
100
AcDbLine
10
3420
20
2345
11
3420
21
2275
0
LINE
5
52E
100
AcDbEntity
8
Foundation
6
ByLayer
62
256
370
-1
100
AcDbLine
10
3375
20
2345
11
3420
21
2275
0
LINE
5
52F
100
AcDbEntity
8
Foundation
6
ByLayer
62
256
370
-1
100
AcDbLine
10
3420
20
2275
11
3420
21
2345
0
LINE
5
530
100
AcDbEntity
8
Foundation
6
ByLayer
62
256
370
-1
100
AcDbLine
10
3420
20
2345
11
3375
21
2275
0
LINE
5
531
100
AcDbEntity
8
Foundation
6
ByLayer
62
256
370
-1
100
AcDbLine
10
3700
20
2345
11
3700
21
2275
0
LINE
5
532
100
AcDbEntity
8
Foundation
6
ByLayer
62
256
370
-1
100
AcDbLine
10
3745
20
2345
11
3745
21
2275
0
LINE
5
533
100
AcDbEntity
8
Foundation
6
ByLayer
62
256
370
-1
100
AcDbLine
10
3700
20
2345
11
3745
21
2275
0
LINE
5
534
100
AcDbEntity
8
Foundation
6
ByLayer
62
256
370
-1
100
AcDbLine
10
3745
20
2275
11
3745
21
2345
0
LINE
5
535
100
AcDbEntity
8
Foundation
6
ByLayer
62
256
370
-1
100
AcDbLine
10
3745
20
2345
11
3700
21
2275
0
LINE
5
536
100
AcDbEntity
8
Foundation
6
ByLayer
62
256
370
-1
100
AcDbLine
10
4025
20
2345
11
4025
21
2275
0
LINE
5
537
100
AcDbEntity
8
Foundation
6
ByLayer
62
256
370
-1
100
AcDbLine
10
4070
20
2345
11
4070
21
2275
0
LINE
5
538
100
AcDbEntity
8
Foundation
6
ByLayer
62
256
370
-1
100
AcDbLine
10
4025
20
2345
11
4070
21
2275
0
LINE
5
539
100
AcDbEntity
8
Foundation
6
ByLayer
62
256
370
-1
100
AcDbLine
10
4070
20
2275
11
4070
21
2345
0
LINE
5
53A
100
AcDbEntity
8
Foundation
6
ByLayer
62
256
370
-1
100
AcDbLine
10
4070
20
2345
11
4025
21
2275
0
LINE
5
53B
100
AcDbEntity
8
Foundation
6
ByLayer
62
256
370
-1
100
AcDbLine
10
4350
20
2345
11
4350
21
2275
0
LINE
5
53C
100
AcDbEntity
8
Foundation
6
ByLayer
62
256
370
-1
100
AcDbLine
10
4395
20
2345
11
4395
21
2275
0
LINE
5
53D
100
AcDbEntity
8
Foundation
6
ByLayer
62
256
370
-1
100
AcDbLine
10
4350
20
2345
11
4395
21
2275
0
LINE
5
53E
100
AcDbEntity
8
Foundation
6
ByLayer
62
256
370
-1
100
AcDbLine
10
4395
20
2275
11
4395
21
2345
0
LINE
5
53F
100
AcDbEntity
8
Foundation
6
ByLayer
62
256
370
-1
100
AcDbLine
10
4395
20
2345
11
4350
21
2275
0
LINE
5
540
100
AcDbEntity
8
Foundation
6
ByLayer
62
256
370
-1
100
AcDbLine
10
4675
20
2345
11
4675
21
2275
0
LINE
5
541
100
AcDbEntity
8
Foundation
6
ByLayer
62
256
370
-1
100
AcDbLine
10
4720
20
2345
11
4720
21
2275
0
LINE
5
542
100
AcDbEntity
8
Foundation
6
ByLayer
62
256
370
-1
100
AcDbLine
10
4675
20
2345
11
4720
21
2275
0
LINE
5
543
100
AcDbEntity
8
Foundation
6
ByLayer
62
256
370
-1
100
AcDbLine
10
4720
20
2275
11
4720
21
2345
0
LINE
5
544
100
AcDbEntity
8
Foundation
6
ByLayer
62
256
370
-1
100
AcDbLine
10
4720
20
2345
11
4675
21
2275
0
LINE
5
545
100
AcDbEntity
8
Foundation
6
ByLayer
62
256
370
-1
100
AcDbLine
10
5000
20
2345
11
5000
21
2275
0
LINE
5
546
100
AcDbEntity
8
Foundation
6
ByLayer
62
256
370
-1
100
AcDbLine
10
5045
20
2345
11
5045
21
2275
0
LINE
5
547
100
AcDbEntity
8
Foundation
6
ByLayer
62
256
370
-1
100
AcDbLine
10
5000
20
2345
11
5045
21
2275
0
LINE
5
548
100
AcDbEntity
8
Foundation
6
ByLayer
62
256
370
-1
100
AcDbLine
10
5045
20
2275
11
5045
21
2345
0
LINE
5
549
100
AcDbEntity
8
Foundation
6
ByLayer
62
256
370
-1
100
AcDbLine
10
5045
20
2345
11
5000
21
2275
0
LINE
5
54A
100
AcDbEntity
8
Foundation
6
ByLayer
62
256
370
-1
100
AcDbLine
10
5325
20
2345
11
5325
21
2275
0
LINE
5
54B
100
AcDbEntity
8
Foundation
6
ByLayer
62
256
370
-1
100
AcDbLine
10
5370
20
2345
11
5370
21
2275
0
LINE
5
54C
100
AcDbEntity
8
Foundation
6
ByLayer
62
256
370
-1
100
AcDbLine
10
5325
20
2345
11
5370
21
2275
0
LINE
5
54D
100
AcDbEntity
8
Foundation
6
ByLayer
62
256
370
-1
100
AcDbLine
10
5370
20
2275
11
5370
21
2345
0
LINE
5
54E
100
AcDbEntity
8
Foundation
6
ByLayer
62
256
370
-1
100
AcDbLine
10
5370
20
2345
11
5325
21
2275
0
LINE
5
54F
100
AcDbEntity
8
Foundation
6
ByLayer
62
256
370
-1
100
AcDbLine
10
5650
20
2345
11
5650
21
2275
0
LINE
5
550
100
AcDbEntity
8
Foundation
6
ByLayer
62
256
370
-1
100
AcDbLine
10
5695
20
2345
11
5695
21
2275
0
LINE
5
551
100
AcDbEntity
8
Foundation
6
ByLayer
62
256
370
-1
100
AcDbLine
10
5650
20
2345
11
5695
21
2275
0
LINE
5
552
100
AcDbEntity
8
Foundation
6
ByLayer
62
256
370
-1
100
AcDbLine
10
5695
20
2275
11
5695
21
2345
0
LINE
5
553
100
AcDbEntity
8
Foundation
6
ByLayer
62
256
370
-1
100
AcDbLine
10
5695
20
2345
11
5650
21
2275
0
LINE
5
554
100
AcDbEntity
8
Foundation
6
ByLayer
62
256
370
-1
100
AcDbLine
10
5975
20
2345
11
5975
21
2275
0
LINE
5
555
100
AcDbEntity
8
Foundation
6
ByLayer
62
256
370
-1
100
AcDbLine
10
6020
20
2345
11
6020
21
2275
0
LINE
5
556
100
AcDbEntity
8
Foundation
6
ByLayer
62
256
370
-1
100
AcDbLine
10
5975
20
2345
11
6020
21
2275
0
LINE
5
557
100
AcDbEntity
8
Foundation
6
ByLayer
62
256
370
-1
100
AcDbLine
10
6020
20
2275
11
6020
21
2345
0
LINE
5
558
100
AcDbEntity
8
Foundation
6
ByLayer
62
256
370
-1
100
AcDbLine
10
6020
20
2345
11
5975
21
2275
0
LINE
5
559
100
AcDbEntity
8
Foundation
6
ByLayer
62
256
370
-1
100
AcDbLine
10
6300
20
2345
11
6300
21
2275
0
LINE
5
55A
100
AcDbEntity
8
Foundation
6
ByLayer
62
256
370
-1
100
AcDbLine
10
6345
20
2345
11
6345
21
2275
0
LINE
5
55B
100
AcDbEntity
8
Foundation
6
ByLayer
62
256
370
-1
100
AcDbLine
10
6300
20
2345
11
6345
21
2275
0
LINE
5
55C
100
AcDbEntity
8
Foundation
6
ByLayer
62
256
370
-1
100
AcDbLine
10
6345
20
2275
11
6345
21
2345
0
LINE
5
55D
100
AcDbEntity
8
Foundation
6
ByLayer
62
256
370
-1
100
AcDbLine
10
6345
20
2345
11
6300
21
2275
0
LINE
5
55E
100
AcDbEntity
8
Foundation
6
ByLayer
62
256
370
-1
100
AcDbLine
10
6625
20
2345
11
6625
21
2275
0
LINE
5
55F
100
AcDbEntity
8
Foundation
6
ByLayer
62
256
370
-1
100
AcDbLine
10
6670
20
2345
11
6670
21
2275
0
LINE
5
560
100
AcDbEntity
8
Foundation
6
ByLayer
62
256
370
-1
100
AcDbLine
10
6625
20
2345
11
6670
21
2275
0
LINE
5
561
100
AcDbEntity
8
Foundation
6
ByLayer
62
256
370
-1
100
AcDbLine
10
6670
20
2275
11
6670
21
2345
0
LINE
5
562
100
AcDbEntity
8
Foundation
6
ByLayer
62
256
370
-1
100
AcDbLine
10
6670
20
2345
11
6625
21
2275
0
LINE
5
563
100
AcDbEntity
8
Foundation
6
ByLayer
62
256
370
-1
100
AcDbLine
10
6950
20
2345
11
6950
21
2275
0
LINE
5
564
100
AcDbEntity
8
Foundation
6
ByLayer
62
256
370
-1
100
AcDbLine
10
6995
20
2345
11
6995
21
2275
0
LINE
5
565
100
AcDbEntity
8
Foundation
6
ByLayer
62
256
370
-1
100
AcDbLine
10
6950
20
2345
11
6995
21
2275
0
LINE
5
566
100
AcDbEntity
8
Foundation
6
ByLayer
62
256
370
-1
100
AcDbLine
10
6995
20
2275
11
6995
21
2345
0
LINE
5
567
100
AcDbEntity
8
Foundation
6
ByLayer
62
256
370
-1
100
AcDbLine
10
6995
20
2345
11
6950
21
2275
0
LINE
5
568
100
AcDbEntity
8
Foundation
6
ByLayer
62
256
370
-1
100
AcDbLine
10
7290
20
2345
11
7290
21
2275
0
LINE
5
569
100
AcDbEntity
8
Foundation
6
ByLayer
62
256
370
-1
100
AcDbLine
10
7335
20
2345
11
7335
21
2275
0
LINE
5
56A
100
AcDbEntity
8
Foundation
6
ByLayer
62
256
370
-1
100
AcDbLine
10
7290
20
2345
11
7335
21
2275
0
LINE
5
56B
100
AcDbEntity
8
Foundation
6
ByLayer
62
256
370
-1
100
AcDbLine
10
7335
20
2275
11
7335
21
2345
0
LINE
5
56C
100
AcDbEntity
8
Foundation
6
ByLayer
62
256
370
-1
100
AcDbLine
10
7335
20
2345
11
7290
21
2275
0
LINE
5
56D
100
AcDbEntity
8
Foundation
6
ByLayer
62
256
370
-1
100
AcDbLine
10
3143
20
2183
11
3143
21
2285
0
LINE
5
56E
100
AcDbEntity
8
Foundation
6
ByLayer
62
256
370
-1
100
AcDbLine
10
3235
20
2183
11
3143
21
2183
0
LINE
5
56F
100
AcDbEntity
8
Foundation
6
ByLayer
62
256
370
-1
100
AcDbLine
10
3237
20
2285
11
3237
21
2183
0
LINE
5
570
100
AcDbEntity
8
Foundation
6
ByLayer
62
256
370
-1
100
AcDbLine
10
3235
20
2183
11
3237
21
2183
0
LINE
5
571
100
AcDbEntity
8
Foundation
6
ByLayer
62
256
370
-1
100
AcDbLine
10
3190
20
2183
11
3190
21
2105
0
LINE
5
572
100
AcDbEntity
8
Foundation
6
ByLayer
62
256
370
-1
100
AcDbLine
10
3193
20
2183
11
3193
21
2105
0
LINE
5
573
100
AcDbEntity
8
Foundation
6
ByLayer
62
256
370
-1
100
AcDbLine
10
3187
20
2183
11
3187
21
2105
0
LINE
5
574
100
AcDbEntity
8
Foundation
6
ByLayer
62
256
370
-1
100
AcDbLine
10
3087
20
2105
11
3293
21
2105
0
LINE
5
575
100
AcDbEntity
8
Foundation
6
ByLayer
62
256
370
-1
100
AcDbLine
10
3087
20
2105
11
3293
21
2105
0
LINE
5
576
100
AcDbEntity
8
Foundation
6
ByLayer
62
256
370
-1
100
AcDbLine
10
3143
20
2285
11
3237
21
2285
0
LINE
5
577
100
AcDbEntity
8
Foundation
6
ByLayer
62
256
370
-1
100
AcDbLine
10
1262
20
2275
11
3143
21
2275
0
LINE
5
578
100
AcDbEntity
8
Foundation
6
ByLayer
62
256
370
-1
100
AcDbLine
10
1262
20
2185
11
3143
21
2185
0
LINE
5
579
100
AcDbEntity
8
Foundation
6
ByLayer
62
256
370
-1
100
AcDbLine
10
5198
20
2183
11
5198
21
2285
0
LINE
5
57A
100
AcDbEntity
8
Foundation
6
ByLayer
62
256
370
-1
100
AcDbLine
10
5290
20
2183
11
5198
21
2183
0
LINE
5
57B
100
AcDbEntity
8
Foundation
6
ByLayer
62
256
370
-1
100
AcDbLine
10
5292
20
2285
11
5292
21
2183
0
LINE
5
57C
100
AcDbEntity
8
Foundation
6
ByLayer
62
256
370
-1
100
AcDbLine
10
5290
20
2183
11
5292
21
2183
0
LINE
5
57D
100
AcDbEntity
8
Foundation
6
ByLayer
62
256
370
-1
100
AcDbLine
10
5245
20
2183
11
5245
21
2105
0
LINE
5
57E
100
AcDbEntity
8
Foundation
6
ByLayer
62
256
370
-1
100
AcDbLine
10
5248
20
2183
11
5248
21
2105
0
LINE
5
57F
100
AcDbEntity
8
Foundation
6
ByLayer
62
256
370
-1
100
AcDbLine
10
5242
20
2183
11
5242
21
2105
0
LINE
5
580
100
AcDbEntity
8
Foundation
6
ByLayer
62
256
370
-1
100
AcDbLine
10
5142
20
2105
11
5348
21
2105
0
LINE
5
581
100
AcDbEntity
8
Foundation
6
ByLayer
62
256
370
-1
100
AcDbLine
10
5142
20
2105
11
5348
21
2105
0
LINE
5
582
100
AcDbEntity
8
Foundation
6
ByLayer
62
256
370
-1
100
AcDbLine
10
5198
20
2285
11
5292
21
2285
0
LINE
5
583
100
AcDbEntity
8
Foundation
6
ByLayer
62
256
370
-1
100
AcDbLine
10
5292
20
2275
11
7173
21
2275
0
LINE
5
584
100
AcDbEntity
8
Foundation
6
ByLayer
62
256
370
-1
100
AcDbLine
10
5292
20
2185
11
7173
21
2185
0
LINE
5
585
100
AcDbEntity
8
Foundation
6
ByLayer
62
256
370
-1
100
AcDbLine
10
3237
20
2275
11
5198
21
2275
0
LINE
5
586
100
AcDbEntity
8
Foundation
6
ByLayer
62
256
370
-1
100
AcDbLine
10
3237
20
2185
11
5198
21
2185
0
MTEXT
5
587
100
AcDbEntity
8
section_A_A_d
6
ByLayer
62
256
370
-1
100
AcDbMText
10
4000
20
4100
30
0
40
64
41
510.222208654
71
1
72
1
1
90x45 STRU
7
standard
210
0
220
0
230
1
50
0
73
2
44
1
0
ENDSEC
0
SECTION
2
OBJECTS
0
DICTIONARY
5
C
330
0
100
AcDbDictionary
281
1
3
ACAD_GROUP
350
D
0
DICTIONARY
5
D
330
C
100
AcDbDictionary
281
1
0
ENDSEC
0
EOF
