999
dxfrw 0.5.11
0
SECTION
2
HEADER
9
$ACADVER
1
AC1021
9
$HANDSEED
5
20000
9
$DWGCODEPAGE
3
ANSI_1252
9
$INSBASE
10
0
20
0
30
0
9
$EXTMIN
10
10000000000
20
10000000000
30
0
9
$EXTMAX
10
-10000000000
20
-10000000000
30
0
9
$LIMMIN
10
0
20
0
9
$LIMMAX
10
420
20
297
9
$ORTHOMODE
70
0
9
$LTSCALE
40
1
9
$TEXTSTYLE
7
STANDARD
9
$CLAYER
8
0
9
$DIMASZ
40
48
9
$DIMLFAC
40
1
9
$DIMSCALE
40
1
9
$DIMEXO
40
50
9
$DIMEXE
40
16
9
$DIMTXT
40
48
9
$DIMTSZ
40
0
9
$DIMAUNIT
70
0
9
$DIMADEC
70
2
9
$DIMLUNIT
70
2
9
$DIMSTYLE
2
STANDARD
9
$DIMGAP
40
20
9
$DIMTIH
70
0
9
$LUNITS
70
2
9
$LUPREC
70
4
9
$AUNITS
70
0
9
$AUPREC
70
2
9
$SPLINESEGS
70
8
9
$GRIDMODE
70
1
9
$SNAPSTYLE
70
0
9
$GRIDUNIT
10
0
20
0
9
$PINSBASE
10
0
20
0
30
0
9
$PLIMMIN
10
0
20
0
9
$PLIMMAX
10
297
20
210
9
$INSUNITS
70
4
9
$PSVPSCALE
40
1
0
ENDSEC
0
SECTION
2
CLASSES
0
ENDSEC
0
SECTION
2
TABLES
0
TABLE
2
VPORT
5
8
330
0
100
AcDbSymbolTable
70
1
0
VPORT
5
31
330
2
100
AcDbSymbolTableRecord
100
AcDbViewportTableRecord
2
*ACTIVE
70
0
10
0
20
0
11
1
21
1
12
2480.1241654
22
1388.54848095
13
0
23
0
14
10
24
10
15
10
25
10
16
0
26
0
36
1
17
0
27
0
37
0
40
3108.85035619
41
2.67641996558
42
50
43
0
44
0
50
0
51
0
71
0
72
100
73
1
74
3
75
0
76
1
77
0
78
0
281
0
65
1
110
0
120
0
130
0
111
1
121
0
131
0
112
0
122
1
132
0
79
0
146
0
348
10020
60
7
61
5
292
1
282
1
141
0
142
0
63
250
421
3358443
0
ENDTAB
0
TABLE
2
LTYPE
5
5
330
0
100
AcDbSymbolTable
70
4
0
LTYPE
5
14
330
5
100
AcDbSymbolTableRecord
100
AcDbLinetypeTableRecord
2
ByBlock
70
0
3

72
65
73
0
40
0
0
LTYPE
5
15
330
5
100
AcDbSymbolTableRecord
100
AcDbLinetypeTableRecord
2
ByLayer
70
0
3

72
65
73
0
40
0
0
LTYPE
5
16
330
5
100
AcDbSymbolTableRecord
100
AcDbLinetypeTableRecord
2
Continuous
70
0
3
Solid line
72
65
73
0
40
0
0
LTYPE
5
32
330
5
100
AcDbSymbolTableRecord
100
AcDbLinetypeTableRecord
2
DOT
70
0
3
Dot . . . . . . . . . . . . . . . . . . . . . .
72
65
73
2
40
6.35
49
0
74
0
49
-6.35
74
0
0
LTYPE
5
33
330
5
100
AcDbSymbolTableRecord
100
AcDbLinetypeTableRecord
2
DOT2
70
0
3
Dot (.5x) .....................................
72
65
73
2
40
3.175
49
0
74
0
49
-3.175
74
0
0
LTYPE
5
34
330
5
100
AcDbSymbolTableRecord
100
AcDbLinetypeTableRecord
2
DOTX2
70
0
3
Dot (2x) .  .  .  .  .  .  .  .  .  .  .  .  .
72
65
73
2
40
12.7
49
0
74
0
49
-12.7
74
0
0
LTYPE
5
35
330
5
100
AcDbSymbolTableRecord
100
AcDbLinetypeTableRecord
2
DASHED
70
0
3
Dot . . . . . . . . . . . . . . . . . . . . . .
72
65
73
2
40
19.05
49
12.7
74
0
49
-6.35
74
0
0
LTYPE
5
36
330
5
100
AcDbSymbolTableRecord
100
AcDbLinetypeTableRecord
2
DASHED2
70
0
3
Dashed (.5x) _ _ _ _ _ _ _ _ _ _ _ _ _ _ _ _ _
72
65
73
2
40
9.525
49
6.35
74
0
49
-3.175
74
0
0
LTYPE
5
37
330
5
100
AcDbSymbolTableRecord
100
AcDbLinetypeTableRecord
2
DASHEDX2
70
0
3
Dashed (2x) ____  ____  ____  ____  ____  ___
72
65
73
2
40
38.1
49
25.4
74
0
49
-12.7
74
0
0
LTYPE
5
38
330
5
100
AcDbSymbolTableRecord
100
AcDbLinetypeTableRecord
2
DASHDOT
70
0
3
Dash dot __ . __ . __ . __ . __ . __ . __ . __
72
65
73
4
40
25.4
49
12.7
74
0
49
-6.35
74
0
49
0
74
0
49
-6.35
74
0
0
LTYPE
5
39
330
5
100
AcDbSymbolTableRecord
100
AcDbLinetypeTableRecord
2
DASHDOT2
70
0
3
Dash dot (.5x) _._._._._._._._._._._._._._._.
72
65
73
4
40
12.7
49
6.35
74
0
49
-3.175
74
0
49
0
74
0
49
-3.175
74
0
0
LTYPE
5
3A
330
5
100
AcDbSymbolTableRecord
100
AcDbLinetypeTableRecord
2
DASHDOTX2
70
0
3
Dash dot (2x) ____  .  ____  .  ____  .  ___
72
65
73
4
40
50.8
49
25.4
74
0
49
-12.7
74
0
49
0
74
0
49
-12.7
74
0
0
LTYPE
5
3B
330
5
100
AcDbSymbolTableRecord
100
AcDbLinetypeTableRecord
2
DIVIDE
70
0
3
Divide ____ . . ____ . . ____ . . ____ . . ____
72
65
73
6
40
31.75
49
12.7
74
0
49
-6.35
74
0
49
0
74
0
49
-6.35
74
0
49
0
74
0
49
-6.35
74
0
0
LTYPE
5
3C
330
5
100
AcDbSymbolTableRecord
100
AcDbLinetypeTableRecord
2
DIVIDE2
70
0
3
Divide (.5x) __..__..__..__..__..__..__..__.._
72
65
73
6
40
15.875
49
6.35
74
0
49
-3.175
74
0
49
0
74
0
49
-3.175
74
0
49
0
74
0
49
-3.175
74
0
0
LTYPE
5
3D
330
5
100
AcDbSymbolTableRecord
100
AcDbLinetypeTableRecord
2
DIVIDEX2
70
0
3
Divide (2x) ________  .  .  ________  .  .  _
72
65
73
6
40
63.5
49
25.4
74
0
49
-12.7
74
0
49
0
74
0
49
-12.7
74
0
49
0
74
0
49
-12.7
74
0
0
LTYPE
5
3E
330
5
100
AcDbSymbolTableRecord
100
AcDbLinetypeTableRecord
2
BORDER
70
0
3
Border __ __ . __ __ . __ __ . __ __ . __ __ .
72
65
73
6
40
44.45
49
12.7
74
0
49
-6.35
74
0
49
12.7
74
0
49
-6.35
74
0
49
0
74
0
49
-6.35
74
0
0
LTYPE
5
3F
330
5
100
AcDbSymbolTableRecord
100
AcDbLinetypeTableRecord
2
BORDER2
70
0
3
Border (.5x) __.__.__.__.__.__.__.__.__.__.__.
72
65
73
6
40
22.225
49
6.35
74
0
49
-3.175
74
0
49
6.35
74
0
49
-3.175
74
0
49
0
74
0
49
-3.175
74
0
0
LTYPE
5
40
330
5
100
AcDbSymbolTableRecord
100
AcDbLinetypeTableRecord
2
BORDERX2
70
0
3
Border (2x) ____  ____  .  ____  ____  .  ___
72
65
73
6
40
88.9
49
25.4
74
0
49
-12.7
74
0
49
25.4
74
0
49
-12.7
74
0
49
0
74
0
49
-12.7
74
0
0
LTYPE
5
41
330
5
100
AcDbSymbolTableRecord
100
AcDbLinetypeTableRecord
2
CENTER
70
0
3
Center ____ _ ____ _ ____ _ ____ _ ____ _ ____
72
65
73
4
40
50.8
49
31.75
74
0
49
-6.35
74
0
49
6.35
74
0
49
-6.35
74
0
0
LTYPE
5
42
330
5
100
AcDbSymbolTableRecord
100
AcDbLinetypeTableRecord
2
CENTER2
70
0
3
Center (.5x) ___ _ ___ _ ___ _ ___ _ ___ _ ___
72
65
73
4
40
28.575
49
19.05
74
0
49
-3.175
74
0
49
3.175
74
0
49
-3.175
74
0
0
LTYPE
5
43
330
5
100
AcDbSymbolTableRecord
100
AcDbLinetypeTableRecord
2
CENTERX2
70
0
3
Center (2x) ________  __  ________  __  _____
72
65
73
4
40
101.6
49
63.5
74
0
49
-12.7
74
0
49
12.7
74
0
49
-12.7
74
0
0
ENDTAB
0
TABLE
2
LAYER
5
2
330
0
100
AcDbSymbolTable
70
1
0
LAYER
5
10
330
2
100
AcDbSymbolTableRecord
100
AcDbLayerTableRecord
2
0
70
0
62
7
6
CONTINUOUS
370
0
390
F
0
LAYER
5
44
330
2
100
AcDbSymbolTableRecord
100
AcDbLayerTableRecord
2
Foundation
70
0
62
7
6
CONTINUOUS
370
35
390
F
0
LAYER
5
45
330
2
100
AcDbSymbolTableRecord
100
AcDbLayerTableRecord
2
section_4_4
70
0
62
7
6
CONTINUOUS
370
35
390
F
0
LAYER
5
46
330
2
100
AcDbSymbolTableRecord
100
AcDbLayerTableRecord
2
section_4_4_d
70
0
62
4
6
CONTINUOUS
370
13
390
F
0
ENDTAB
0
TABLE
2
STYLE
5
3
330
0
100
AcDbSymbolTable
70
3
0
STYLE
5
47
330
2
100
AcDbSymbolTableRecord
100
AcDbTextStyleTableRecord
2
normal#0.500000#0.900000
70
0
40
0
41
1
50
0
71
0
42
1
3
normal#0.500000#0.900000
4

0
STYLE
5
48
330
2
100
AcDbSymbolTableRecord
100
AcDbTextStyleTableRecord
2
standard
70
0
40
0
41
1
50
0
71
0
42
1
3
standard
4

0
STYLE
5
49
330
2
100
AcDbSymbolTableRecord
100
AcDbTextStyleTableRecord
2
iso
70
0
40
0
41
1
50
0
71
0
42
1
3
iso
4

0
ENDTAB
0
TABLE
2
VIEW
5
6
330
0
100
AcDbSymbolTable
70
0
0
ENDTAB
0
TABLE
2
UCS
5
7
330
0
100
AcDbSymbolTable
70
0
0
ENDTAB
0
TABLE
2
APPID
5
9
330
0
100
AcDbSymbolTable
70
1
0
APPID
5
12
330
9
100
AcDbSymbolTableRecord
100
AcDbRegAppTableRecord
2
ACAD
70
0
0
ENDTAB
0
TABLE
2
DIMSTYLE
5
A
330
0
100
AcDbSymbolTable
70
1
100
AcDbDimStyleTable
71
1
0
DIMSTYLE
105
4A
330
A
100
AcDbSymbolTableRecord
100
AcDbDimStyleTableRecord
2
Standard
70
0
40
1
41
48
42
50
43
0.38
44
16
45
0
46
0
47
0
48
0
140
48
141
0.09
142
0
143
25.4
144
1
145
0
146
1
147
20
148
0
71
0
72
0
73
0
74
1
75
0
76
0
77
0
78
0
79
0
170
0
171
2
172
0
173
0
174
0
175
0
176
0
177
0
178
0
179
0
271
4
272
4
273
2
274
2
275
0
276
0
277
2
278
46
279
0
280
0
281
0
282
0
283
1
284
0
285
0
286
0
288
0
289
3
340
Standard
341

371
-2
372
-2
0
ENDTAB
0
TABLE
2
BLOCK_RECORD
5
1
330
0
100
AcDbSymbolTable
70
2
0
BLOCK_RECORD
5
1F
330
1
100
AcDbSymbolTableRecord
100
AcDbBlockTableRecord
2
*Model_Space
70
0
280
1
281
0
0
BLOCK_RECORD
5
1E
330
1
100
AcDbSymbolTableRecord
100
AcDbBlockTableRecord
2
*Paper_Space
70
0
280
1
281
0
0
BLOCK_RECORD
5
4B
330
1
100
AcDbSymbolTableRecord
100
AcDbBlockTableRecord
2
*D17
70
0
280
1
281
0
0
BLOCK_RECORD
5
4E
330
1
100
AcDbSymbolTableRecord
100
AcDbBlockTableRecord
2
*D14
70
0
280
1
281
0
0
BLOCK_RECORD
5
51
330
1
100
AcDbSymbolTableRecord
100
AcDbBlockTableRecord
2
*D19
70
0
280
1
281
0
0
BLOCK_RECORD
5
54
330
1
100
AcDbSymbolTableRecord
100
AcDbBlockTableRecord
2
*D15
70
0
280
1
281
0
0
BLOCK_RECORD
5
57
330
1
100
AcDbSymbolTableRecord
100
AcDbBlockTableRecord
2
*D3
70
0
280
1
281
0
0
BLOCK_RECORD
5
5A
330
1
100
AcDbSymbolTableRecord
100
AcDbBlockTableRecord
2
*D5
70
0
280
1
281
0
0
BLOCK_RECORD
5
5D
330
1
100
AcDbSymbolTableRecord
100
AcDbBlockTableRecord
2
*D22
70
0
280
1
281
0
0
BLOCK_RECORD
5
60
330
1
100
AcDbSymbolTableRecord
100
AcDbBlockTableRecord
2
*D9
70
0
280
1
281
0
0
BLOCK_RECORD
5
63
330
1
100
AcDbSymbolTableRecord
100
AcDbBlockTableRecord
2
*D12
70
0
280
1
281
0
0
BLOCK_RECORD
5
66
330
1
100
AcDbSymbolTableRecord
100
AcDbBlockTableRecord
2
*D21
70
0
280
1
281
0
0
BLOCK_RECORD
5
69
330
1
100
AcDbSymbolTableRecord
100
AcDbBlockTableRecord
2
*D11
70
0
280
1
281
0
0
BLOCK_RECORD
5
6C
330
1
100
AcDbSymbolTableRecord
100
AcDbBlockTableRecord
2
*D13
70
0
280
1
281
0
0
BLOCK_RECORD
5
6F
330
1
100
AcDbSymbolTableRecord
100
AcDbBlockTableRecord
2
*D10
70
0
280
1
281
0
0
BLOCK_RECORD
5
72
330
1
100
AcDbSymbolTableRecord
100
AcDbBlockTableRecord
2
*D6
70
0
280
1
281
0
0
BLOCK_RECORD
5
75
330
1
100
AcDbSymbolTableRecord
100
AcDbBlockTableRecord
2
*D18
70
0
280
1
281
0
0
BLOCK_RECORD
5
78
330
1
100
AcDbSymbolTableRecord
100
AcDbBlockTableRecord
2
*D20
70
0
280
1
281
0
0
BLOCK_RECORD
5
7B
330
1
100
AcDbSymbolTableRecord
100
AcDbBlockTableRecord
2
*D2
70
0
280
1
281
0
0
BLOCK_RECORD
5
7E
330
1
100
AcDbSymbolTableRecord
100
AcDbBlockTableRecord
2
*D4
70
0
280
1
281
0
0
BLOCK_RECORD
5
81
330
1
100
AcDbSymbolTableRecord
100
AcDbBlockTableRecord
2
*D16
70
0
280
1
281
0
0
BLOCK_RECORD
5
84
330
1
100
AcDbSymbolTableRecord
100
AcDbBlockTableRecord
2
*D8
70
0
280
1
281
0
0
BLOCK_RECORD
5
87
330
1
100
AcDbSymbolTableRecord
100
AcDbBlockTableRecord
2
*D7
70
0
280
1
281
0
0
BLOCK_RECORD
5
8A
330
1
100
AcDbSymbolTableRecord
100
AcDbBlockTableRecord
2
*D1
70
0
280
1
281
0
0
BLOCK_RECORD
5
8D
330
1
100
AcDbSymbolTableRecord
100
AcDbBlockTableRecord
2
a3-0
70
0
280
1
281
0
0
BLOCK_RECORD
5
90
330
1
100
AcDbSymbolTableRecord
100
AcDbBlockTableRecord
2
A3_Xu-0
70
0
280
1
281
0
0
ENDTAB
0
ENDSEC
0
SECTION
2
BLOCKS
0
BLOCK
5
20
330
1F
100
AcDbEntity
8
0
100
AcDbBlockBegin
2
*Model_Space
70
0
10
0
20
0
30
0
3
*Model_Space
1

0
ENDBLK
5
21
330
1F
100
AcDbEntity
8
0
100
AcDbBlockEnd
0
BLOCK
5
1C
330
1B
100
AcDbEntity
8
0
100
AcDbBlockBegin
2
*Paper_Space
70
0
10
0
20
0
30
0
3
*Paper_Space
1

0
ENDBLK
5
1D
330
1F
100
AcDbEntity
8
0
100
AcDbBlockEnd
0
BLOCK
5
4C
330
4B
100
AcDbEntity
8
0
100
AcDbBlockBegin
2
*D17
70
1
10
0
20
0
3
*D17
1

0
LINE
5
93
100
AcDbEntity
8
section_4_4_d
6
CONTINUOUS
62
7
370
0
100
AcDbLine
10
3900
20
2314
11
3900
21
2714
0
SOLID
5
94
100
AcDbEntity
8
section_4_4_d
6
CONTINUOUS
62
7
370
0
100
AcDbTrace
10
3900
20
2314
30
0
11
3892.00733457
21
2362
31
0
12
3907.99266543
22
2362
32
0
13
3907.99266543
23
2362
33
0
0
SOLID
5
95
100
AcDbEntity
8
section_4_4_d
6
CONTINUOUS
62
7
370
0
100
AcDbTrace
10
3900
20
2714
30
0
11
3907.99266543
21
2666
31
0
12
3892.00733457
22
2666
32
0
13
3892.00733457
23
2666
33
0
0
MTEXT
5
96
100
AcDbEntity
8
section_4_4_d
6
CONTINUOUS
62
7
370
0
100
AcDbMText
10
3856
20
2514
30
0
40
48
41
101.333333333
71
5
72
1
1
400
7
standard
210
0
220
0
230
1
50
90
73
2
44
1
0
LINE
5
97
100
AcDbEntity
8
section_4_4_d
6
CONTINUOUS
62
7
370
0
100
AcDbLine
10
3881.71241452
20
2314
11
3916
21
2314
0
LINE
5
98
100
AcDbEntity
8
section_4_4_d
6
CONTINUOUS
62
7
370
0
100
AcDbLine
10
3892.58252066
20
2714
11
3916
21
2714
0
ENDBLK
5
4D
330
4B
100
AcDbEntity
8
0
100
AcDbBlockEnd
0
BLOCK
5
4F
330
4E
100
AcDbEntity
8
0
100
AcDbBlockBegin
2
*D14
70
1
10
0
20
0
3
*D14
1

0
LINE
5
99
100
AcDbEntity
8
section_4_4_d
6
CONTINUOUS
62
7
370
0
100
AcDbLine
10
3900
20
1064
11
3900
21
1514
0
SOLID
5
9A
100
AcDbEntity
8
section_4_4_d
6
CONTINUOUS
62
7
370
0
100
AcDbTrace
10
3900
20
1064
30
0
11
3892.00733457
21
1112
31
0
12
3907.99266543
22
1112
32
0
13
3907.99266543
23
1112
33
0
0
SOLID
5
9B
100
AcDbEntity
8
section_4_4_d
6
CONTINUOUS
62
7
370
0
100
AcDbTrace
10
3900
20
1514
30
0
11
3907.99266543
21
1466
31
0
12
3892.00733457
22
1466
32
0
13
3892.00733457
23
1466
33
0
0
MTEXT
5
9C
100
AcDbEntity
8
section_4_4_d
6
CONTINUOUS
62
7
370
0
100
AcDbMText
10
3856
20
1289
30
0
40
48
41
101.333333333
71
5
72
1
1
450
7
standard
210
0
220
0
230
1
50
90
73
2
44
1
0
LINE
5
9D
100
AcDbEntity
8
section_4_4_d
6
CONTINUOUS
62
7
370
0
100
AcDbLine
10
3898.01757373
20
1064
11
3916
21
1064
0
LINE
5
9E
100
AcDbEntity
8
section_4_4_d
6
CONTINUOUS
62
7
370
0
100
AcDbLine
10
3898.01757373
20
1514
11
3916
21
1514
0
ENDBLK
5
50
330
4E
100
AcDbEntity
8
0
100
AcDbBlockEnd
0
BLOCK
5
52
330
51
100
AcDbEntity
8
0
100
AcDbBlockBegin
2
*D19
70
1
10
0
20
0
3
*D19
1

0
LINE
5
9F
100
AcDbEntity
8
section_4_4_d
6
CONTINUOUS
62
7
370
0
100
AcDbLine
10
3900
20
3114
11
3900
21
3464
0
SOLID
5
A0
100
AcDbEntity
8
section_4_4_d
6
CONTINUOUS
62
7
370
0
100
AcDbTrace
10
3900
20
3114
30
0
11
3892.00733457
21
3162
31
0
12
3907.99266543
22
3162
32
0
13
3907.99266543
23
3162
33
0
0
SOLID
5
A1
100
AcDbEntity
8
section_4_4_d
6
CONTINUOUS
62
7
370
0
100
AcDbTrace
10
3900
20
3464
30
0
11
3907.99266543
21
3416
31
0
12
3892.00733457
22
3416
32
0
13
3892.00733457
23
3416
33
0
0
MTEXT
5
A2
100
AcDbEntity
8
section_4_4_d
6
CONTINUOUS
62
7
370
0
100
AcDbMText
10
3856
20
3289
30
0
40
48
41
96
71
5
72
1
1
350
7
standard
210
0
220
0
230
1
50
90
73
2
44
1
0
LINE
5
A3
100
AcDbEntity
8
section_4_4_d
6
CONTINUOUS
62
7
370
0
100
AcDbLine
10
3893.15274267
20
3114
11
3884
21
3114
0
LINE
5
A4
100
AcDbEntity
8
section_4_4_d
6
CONTINUOUS
62
7
370
0
100
AcDbLine
10
3893.15274267
20
3464
11
3884
21
3464
0
ENDBLK
5
53
330
51
100
AcDbEntity
8
0
100
AcDbBlockEnd
0
BLOCK
5
55
330
54
100
AcDbEntity
8
0
100
AcDbBlockBegin
2
*D15
70
1
10
0
20
0
3
*D15
1

0
LINE
5
A5
100
AcDbEntity
8
section_4_4_d
6
CONTINUOUS
62
7
370
0
100
AcDbLine
10
3900
20
1514
11
3900
21
1914
0
SOLID
5
A6
100
AcDbEntity
8
section_4_4_d
6
CONTINUOUS
62
7
370
0
100
AcDbTrace
10
3900
20
1514
30
0
11
3892.00733457
21
1562
31
0
12
3907.99266543
22
1562
32
0
13
3907.99266543
23
1562
33
0
0
SOLID
5
A7
100
AcDbEntity
8
section_4_4_d
6
CONTINUOUS
62
7
370
0
100
AcDbTrace
10
3900
20
1914
30
0
11
3907.99266543
21
1866
31
0
12
3892.00733457
22
1866
32
0
13
3892.00733457
23
1866
33
0
0
MTEXT
5
A8
100
AcDbEntity
8
section_4_4_d
6
CONTINUOUS
62
7
370
0
100
AcDbMText
10
3856
20
1714
30
0
40
48
41
101.333333333
71
5
72
1
1
400
7
standard
210
0
220
0
230
1
50
90
73
2
44
1
0
LINE
5
A9
100
AcDbEntity
8
section_4_4_d
6
CONTINUOUS
62
7
370
0
100
AcDbLine
10
3892.58252066
20
1514
11
3916
21
1514
0
LINE
5
AA
100
AcDbEntity
8
section_4_4_d
6
CONTINUOUS
62
7
370
0
100
AcDbLine
10
3892.58252066
20
1914
11
3916
21
1914
0
ENDBLK
5
56
330
54
100
AcDbEntity
8
0
100
AcDbBlockEnd
0
BLOCK
5
58
330
57
100
AcDbEntity
8
0
100
AcDbBlockBegin
2
*D3
70
1
10
0
20
0
3
*D3
1

0
LINE
5
AB
100
AcDbEntity
8
section_4_4_d
6
CONTINUOUS
62
7
370
0
100
AcDbLine
10
843.682792195
20
4100
11
3817.3683702
21
4100
0
SOLID
5
AC
100
AcDbEntity
8
section_4_4_d
6
CONTINUOUS
62
7
370
0
100
AcDbTrace
10
843.682792195
20
4100
30
0
11
891.682792195
21
4107.99266543
31
0
12
891.682792195
22
4092.00733457
32
0
13
891.682792195
23
4092.00733457
33
0
0
SOLID
5
AD
100
AcDbEntity
8
section_4_4_d
6
CONTINUOUS
62
7
370
0
100
AcDbTrace
10
3817.3683702
20
4100
30
0
11
3769.3683702
21
4092.00733457
31
0
12
3769.3683702
22
4107.99266543
32
0
13
3769.3683702
23
4107.99266543
33
0
0
MTEXT
5
AE
100
AcDbEntity
8
section_4_4_d
6
CONTINUOUS
62
7
370
0
100
AcDbMText
10
2330.5255812
20
4144
30
0
40
48
41
133.333333333
71
5
72
1
1
2975
7
standard
210
0
220
0
230
1
50
0
73
2
44
1
0
LINE
5
AF
100
AcDbEntity
8
section_4_4_d
6
CONTINUOUS
62
7
370
0
100
AcDbLine
10
843.682792195
20
4095.13726717
11
843.682792195
21
4116
0
LINE
5
B0
100
AcDbEntity
8
section_4_4_d
6
CONTINUOUS
62
7
370
0
100
AcDbLine
10
3817.3683702
20
4088.98964215
11
3817.3683702
21
4116
0
ENDBLK
5
59
330
57
100
AcDbEntity
8
0
100
AcDbBlockEnd
0
BLOCK
5
5B
330
5A
100
AcDbEntity
8
0
100
AcDbBlockBegin
2
*D5
70
1
10
0
20
0
3
*D5
1

0
LINE
5
B1
100
AcDbEntity
8
section_4_4_d
6
CONTINUOUS
62
7
370
0
100
AcDbLine
10
300
20
3764
11
300
21
3464
0
SOLID
5
B2
100
AcDbEntity
8
section_4_4_d
6
CONTINUOUS
62
7
370
0
100
AcDbTrace
10
300
20
3764
30
0
11
307.992665429
21
3716
31
0
12
292.007334571
22
3716
32
0
13
292.007334571
23
3716
33
0
0
SOLID
5
B3
100
AcDbEntity
8
section_4_4_d
6
CONTINUOUS
62
7
370
0
100
AcDbTrace
10
300
20
3464
30
0
11
292.007334571
21
3512
31
0
12
307.992665429
22
3512
32
0
13
307.992665429
23
3512
33
0
0
MTEXT
5
B4
100
AcDbEntity
8
section_4_4_d
6
CONTINUOUS
62
7
370
0
100
AcDbMText
10
256
20
3614
30
0
40
48
41
96
71
5
72
1
1
300
7
standard
210
0
220
0
230
1
50
90
73
2
44
1
0
LINE
5
B5
100
AcDbEntity
8
section_4_4_d
6
CONTINUOUS
62
7
370
0
100
AcDbLine
10
320.495501148
20
3764
11
316
21
3764
0
LINE
5
B6
100
AcDbEntity
8
section_4_4_d
6
CONTINUOUS
62
7
370
0
100
AcDbLine
10
320.495501148
20
3464
11
316
21
3464
0
ENDBLK
5
5C
330
5A
100
AcDbEntity
8
0
100
AcDbBlockEnd
0
BLOCK
5
5E
330
5D
100
AcDbEntity
8
0
100
AcDbBlockBegin
2
*D22
70
1
10
0
20
0
3
*D22
1

0
LINE
5
B7
100
AcDbEntity
8
section_4_4_d
6
CONTINUOUS
62
7
370
0
100
AcDbLine
10
4100
20
1064
11
4100
21
829
0
SOLID
5
B8
100
AcDbEntity
8
section_4_4_d
6
CONTINUOUS
62
7
370
0
100
AcDbTrace
10
4100
20
1064
30
0
11
4107.99266543
21
1016
31
0
12
4092.00733457
22
1016
32
0
13
4092.00733457
23
1016
33
0
0
SOLID
5
B9
100
AcDbEntity
8
section_4_4_d
6
CONTINUOUS
62
7
370
0
100
AcDbTrace
10
4100
20
829
30
0
11
4092.00733457
21
877
31
0
12
4107.99266543
22
877
32
0
13
4107.99266543
23
877
33
0
0
MTEXT
5
BA
100
AcDbEntity
8
section_4_4_d
6
CONTINUOUS
62
7
370
0
100
AcDbMText
10
4056
20
946.5
30
0
40
48
41
96
71
5
72
1
1
235
7
standard
210
0
220
0
230
1
50
90
73
2
44
1
0
LINE
5
BB
100
AcDbEntity
8
section_4_4_d
6
CONTINUOUS
62
7
370
0
100
AcDbLine
10
3970
20
1064
11
4116
21
1064
0
LINE
5
BC
100
AcDbEntity
8
section_4_4_d
6
CONTINUOUS
62
7
370
0
100
AcDbLine
10
3970
20
829
11
4116
21
829
0
ENDBLK
5
5F
330
5D
100
AcDbEntity
8
0
100
AcDbBlockEnd
0
BLOCK
5
61
330
60
100
AcDbEntity
8
0
100
AcDbBlockBegin
2
*D9
70
1
10
0
20
0
3
*D9
1

0
LINE
5
BD
100
AcDbEntity
8
section_4_4_d
6
CONTINUOUS
62
7
370
0
100
AcDbLine
10
2974.5
20
4000
11
3412.5
21
4000
0
SOLID
5
BE
100
AcDbEntity
8
section_4_4_d
6
CONTINUOUS
62
7
370
0
100
AcDbTrace
10
2974.5
20
4000
30
0
11
3022.5
21
4007.99266543
31
0
12
3022.5
22
3992.00733457
32
0
13
3022.5
23
3992.00733457
33
0
0
SOLID
5
BF
100
AcDbEntity
8
section_4_4_d
6
CONTINUOUS
62
7
370
0
100
AcDbTrace
10
3412.5
20
4000
30
0
11
3364.5
21
3992.00733457
31
0
12
3364.5
22
4007.99266543
32
0
13
3364.5
23
4007.99266543
33
0
0
MTEXT
5
C0
100
AcDbEntity
8
section_4_4_d
6
CONTINUOUS
62
7
370
0
100
AcDbMText
10
3193.5
20
4044
30
0
40
48
41
101.333333333
71
5
72
1
1
438
7
standard
210
0
220
0
230
1
50
0
73
2
44
1
0
LINE
5
C1
100
AcDbEntity
8
section_4_4_d
6
CONTINUOUS
62
7
370
0
100
AcDbLine
10
2974.5
20
4002.65034677
11
2974.5
21
4016
0
LINE
5
C2
100
AcDbEntity
8
section_4_4_d
6
CONTINUOUS
62
7
370
0
100
AcDbLine
10
3412.5
20
3993.70769893
11
3412.5
21
4016
0
ENDBLK
5
62
330
60
100
AcDbEntity
8
0
100
AcDbBlockEnd
0
BLOCK
5
64
330
63
100
AcDbEntity
8
0
100
AcDbBlockBegin
2
*D12
70
1
10
0
20
0
3
*D12
1

0
LINE
5
C3
100
AcDbEntity
8
section_4_4_d
6
CONTINUOUS
62
7
370
0
100
AcDbLine
10
2359.5
20
700
11
2974.5
21
700
0
SOLID
5
C4
100
AcDbEntity
8
section_4_4_d
6
CONTINUOUS
62
7
370
0
100
AcDbTrace
10
2359.5
20
700
30
0
11
2407.5
21
707.992665429
31
0
12
2407.5
22
692.007334571
32
0
13
2407.5
23
692.007334571
33
0
0
SOLID
5
C5
100
AcDbEntity
8
section_4_4_d
6
CONTINUOUS
62
7
370
0
100
AcDbTrace
10
2974.5
20
700
30
0
11
2926.5
21
692.007334571
31
0
12
2926.5
22
707.992665429
32
0
13
2926.5
23
707.992665429
33
0
0
MTEXT
5
C6
100
AcDbEntity
8
section_4_4_d
6
CONTINUOUS
62
7
370
0
100
AcDbMText
10
2667
20
744
30
0
40
48
41
85.3333333333
71
5
72
1
1
615
7
standard
210
0
220
0
230
1
50
0
73
2
44
1
0
LINE
5
C7
100
AcDbEntity
8
section_4_4_d
6
CONTINUOUS
62
7
370
0
100
AcDbLine
10
2359.5
20
692.239771
11
2359.5
21
684
0
LINE
5
C8
100
AcDbEntity
8
section_4_4_d
6
CONTINUOUS
62
7
370
0
100
AcDbLine
10
2974.5
20
683.297123156
11
2974.5
21
684
0
ENDBLK
5
65
330
63
100
AcDbEntity
8
0
100
AcDbBlockEnd
0
BLOCK
5
67
330
66
100
AcDbEntity
8
0
100
AcDbBlockBegin
2
*D21
70
1
10
0
20
0
3
*D21
1

0
LINE
5
C9
100
AcDbEntity
8
section_4_4_d
6
CONTINUOUS
62
7
370
0
100
AcDbLine
10
300
20
3464
11
300
21
1064
0
SOLID
5
CA
100
AcDbEntity
8
section_4_4_d
6
CONTINUOUS
62
7
370
0
100
AcDbTrace
10
300
20
3464
30
0
11
307.992665429
21
3416
31
0
12
292.007334571
22
3416
32
0
13
292.007334571
23
3416
33
0
0
SOLID
5
CB
100
AcDbEntity
8
section_4_4_d
6
CONTINUOUS
62
7
370
0
100
AcDbTrace
10
300
20
1064
30
0
11
292.007334571
21
1112
31
0
12
307.992665429
22
1112
32
0
13
307.992665429
23
1112
33
0
0
MTEXT
5
CC
100
AcDbEntity
8
section_4_4_d
6
CONTINUOUS
62
7
370
0
100
AcDbMText
10
256
20
2264
30
0
40
48
41
138.666666667
71
5
72
1
1
2400
7
standard
210
0
220
0
230
1
50
90
73
2
44
1
0
LINE
5
CD
100
AcDbEntity
8
section_4_4_d
6
CONTINUOUS
62
7
370
0
100
AcDbLine
10
634
20
3464
11
284
21
3464
0
LINE
5
CE
100
AcDbEntity
8
section_4_4_d
6
CONTINUOUS
62
7
370
0
100
AcDbLine
10
634
20
1064
11
284
21
1064
0
ENDBLK
5
68
330
66
100
AcDbEntity
8
0
100
AcDbBlockEnd
0
BLOCK
5
6A
330
69
100
AcDbEntity
8
0
100
AcDbBlockBegin
2
*D11
70
1
10
0
20
0
3
*D11
1

0
LINE
5
CF
100
AcDbEntity
8
section_4_4_d
6
CONTINUOUS
62
7
370
0
100
AcDbLine
10
1744.5
20
700
11
2359.5
21
700
0
SOLID
5
D0
100
AcDbEntity
8
section_4_4_d
6
CONTINUOUS
62
7
370
0
100
AcDbTrace
10
1744.5
20
700
30
0
11
1792.5
21
707.992665429
31
0
12
1792.5
22
692.007334571
32
0
13
1792.5
23
692.007334571
33
0
0
SOLID
5
D1
100
AcDbEntity
8
section_4_4_d
6
CONTINUOUS
62
7
370
0
100
AcDbTrace
10
2359.5
20
700
30
0
11
2311.5
21
692.007334571
31
0
12
2311.5
22
707.992665429
32
0
13
2311.5
23
707.992665429
33
0
0
MTEXT
5
D2
100
AcDbEntity
8
section_4_4_d
6
CONTINUOUS
62
7
370
0
100
AcDbMText
10
2052
20
744
30
0
40
48
41
85.3333333333
71
5
72
1
1
615
7
standard
210
0
220
0
230
1
50
0
73
2
44
1
0
LINE
5
D3
100
AcDbEntity
8
section_4_4_d
6
CONTINUOUS
62
7
370
0
100
AcDbLine
10
1744.5
20
683.297123156
11
1744.5
21
684
0
LINE
5
D4
100
AcDbEntity
8
section_4_4_d
6
CONTINUOUS
62
7
370
0
100
AcDbLine
10
2359.5
20
674.354475313
11
2359.5
21
684
0
ENDBLK
5
6B
330
69
100
AcDbEntity
8
0
100
AcDbBlockEnd
0
BLOCK
5
6D
330
6C
100
AcDbEntity
8
0
100
AcDbBlockBegin
2
*D13
70
1
10
0
20
0
3
*D13
1

0
LINE
5
D5
100
AcDbEntity
8
section_4_4_d
6
CONTINUOUS
62
7
370
0
100
AcDbLine
10
2974.5
20
700
11
3412.5
21
700
0
SOLID
5
D6
100
AcDbEntity
8
section_4_4_d
6
CONTINUOUS
62
7
370
0
100
AcDbTrace
10
2974.5
20
700
30
0
11
3022.5
21
707.992665429
31
0
12
3022.5
22
692.007334571
32
0
13
3022.5
23
692.007334571
33
0
0
SOLID
5
D7
100
AcDbEntity
8
section_4_4_d
6
CONTINUOUS
62
7
370
0
100
AcDbTrace
10
3412.5
20
700
30
0
11
3364.5
21
692.007334571
31
0
12
3364.5
22
707.992665429
32
0
13
3364.5
23
707.992665429
33
0
0
MTEXT
5
D8
100
AcDbEntity
8
section_4_4_d
6
CONTINUOUS
62
7
370
0
100
AcDbMText
10
3193.5
20
744
30
0
40
48
41
101.333333333
71
5
72
1
1
438
7
standard
210
0
220
0
230
1
50
0
73
2
44
1
0
LINE
5
D9
100
AcDbEntity
8
section_4_4_d
6
CONTINUOUS
62
7
370
0
100
AcDbLine
10
2974.5
20
678.825799235
11
2974.5
21
684
0
LINE
5
DA
100
AcDbEntity
8
section_4_4_d
6
CONTINUOUS
62
7
370
0
100
AcDbLine
10
3412.5
20
674.354475313
11
3412.5
21
684
0
ENDBLK
5
6E
330
6C
100
AcDbEntity
8
0
100
AcDbBlockEnd
0
BLOCK
5
70
330
6F
100
AcDbEntity
8
0
100
AcDbBlockBegin
2
*D10
70
1
10
0
20
0
3
*D10
1

0
LINE
5
DB
100
AcDbEntity
8
section_4_4_d
6
CONTINUOUS
62
7
370
0
100
AcDbLine
10
1307.5
20
700
11
1744.5
21
700
0
SOLID
5
DC
100
AcDbEntity
8
section_4_4_d
6
CONTINUOUS
62
7
370
0
100
AcDbTrace
10
1307.5
20
700
30
0
11
1355.5
21
707.992665429
31
0
12
1355.5
22
692.007334571
32
0
13
1355.5
23
692.007334571
33
0
0
SOLID
5
DD
100
AcDbEntity
8
section_4_4_d
6
CONTINUOUS
62
7
370
0
100
AcDbTrace
10
1744.5
20
700
30
0
11
1696.5
21
692.007334571
31
0
12
1696.5
22
707.992665429
32
0
13
1696.5
23
707.992665429
33
0
0
MTEXT
5
DE
100
AcDbEntity
8
section_4_4_d
6
CONTINUOUS
62
7
370
0
100
AcDbMText
10
1526
20
744
30
0
40
48
41
101.333333333
71
5
72
1
1
437
7
standard
210
0
220
0
230
1
50
0
73
2
44
1
0
LINE
5
DF
100
AcDbEntity
8
section_4_4_d
6
CONTINUOUS
62
7
370
0
100
AcDbLine
10
1307.5
20
683.297123156
11
1307.5
21
684
0
LINE
5
E0
100
AcDbEntity
8
section_4_4_d
6
CONTINUOUS
62
7
370
0
100
AcDbLine
10
1744.5
20
683.297123156
11
1744.5
21
684
0
ENDBLK
5
71
330
6F
100
AcDbEntity
8
0
100
AcDbBlockEnd
0
BLOCK
5
73
330
72
100
AcDbEntity
8
0
100
AcDbBlockBegin
2
*D6
70
1
10
0
20
0
3
*D6
1

0
LINE
5
E1
100
AcDbEntity
8
section_4_4_d
6
CONTINUOUS
62
7
370
0
100
AcDbLine
10
1307.5
20
4000
11
1744.5
21
4000
0
SOLID
5
E2
100
AcDbEntity
8
section_4_4_d
6
CONTINUOUS
62
7
370
0
100
AcDbTrace
10
1307.5
20
4000
30
0
11
1355.5
21
4007.99266543
31
0
12
1355.5
22
3992.00733457
32
0
13
1355.5
23
3992.00733457
33
0
0
SOLID
5
E3
100
AcDbEntity
8
section_4_4_d
6
CONTINUOUS
62
7
370
0
100
AcDbTrace
10
1744.5
20
4000
30
0
11
1696.5
21
3992.00733457
31
0
12
1696.5
22
4007.99266543
32
0
13
1696.5
23
4007.99266543
33
0
0
MTEXT
5
E4
100
AcDbEntity
8
section_4_4_d
6
CONTINUOUS
62
7
370
0
100
AcDbMText
10
1526
20
4044
30
0
40
48
41
101.333333333
71
5
72
1
1
437
7
standard
210
0
220
0
230
1
50
0
73
2
44
1
0
LINE
5
E5
100
AcDbEntity
8
section_4_4_d
6
CONTINUOUS
62
7
370
0
100
AcDbLine
10
1307.5
20
4016.06431853
11
1307.5
21
4016
0
LINE
5
E6
100
AcDbEntity
8
section_4_4_d
6
CONTINUOUS
62
7
370
0
100
AcDbLine
10
1744.5
20
4016.06431853
11
1744.5
21
4016
0
ENDBLK
5
74
330
72
100
AcDbEntity
8
0
100
AcDbBlockEnd
0
BLOCK
5
76
330
75
100
AcDbEntity
8
0
100
AcDbBlockBegin
2
*D18
70
1
10
0
20
0
3
*D18
1

0
LINE
5
E7
100
AcDbEntity
8
section_4_4_d
6
CONTINUOUS
62
7
370
0
100
AcDbLine
10
3900
20
2714
11
3900
21
3114
0
SOLID
5
E8
100
AcDbEntity
8
section_4_4_d
6
CONTINUOUS
62
7
370
0
100
AcDbTrace
10
3900
20
2714
30
0
11
3892.00733457
21
2762
31
0
12
3907.99266543
22
2762
32
0
13
3907.99266543
23
2762
33
0
0
SOLID
5
E9
100
AcDbEntity
8
section_4_4_d
6
CONTINUOUS
62
7
370
0
100
AcDbTrace
10
3900
20
3114
30
0
11
3907.99266543
21
3066
31
0
12
3892.00733457
22
3066
32
0
13
3892.00733457
23
3066
33
0
0
MTEXT
5
EA
100
AcDbEntity
8
section_4_4_d
6
CONTINUOUS
62
7
370
0
100
AcDbMText
10
3856
20
2914
30
0
40
48
41
101.333333333
71
5
72
1
1
400
7
standard
210
0
220
0
230
1
50
90
73
2
44
1
0
LINE
5
EB
100
AcDbEntity
8
section_4_4_d
6
CONTINUOUS
62
7
370
0
100
AcDbLine
10
3892.58252066
20
2714
11
3916
21
2714
0
LINE
5
EC
100
AcDbEntity
8
section_4_4_d
6
CONTINUOUS
62
7
370
0
100
AcDbLine
10
3898.01757373
20
3114
11
3916
21
3114
0
ENDBLK
5
77
330
75
100
AcDbEntity
8
0
100
AcDbBlockEnd
0
BLOCK
5
79
330
78
100
AcDbEntity
8
0
100
AcDbBlockBegin
2
*D20
70
1
10
0
20
0
3
*D20
1

0
LINE
5
ED
100
AcDbEntity
8
section_4_4_d
6
CONTINUOUS
62
7
370
0
100
AcDbLine
10
4100
20
3464
11
4100
21
1064
0
SOLID
5
EE
100
AcDbEntity
8
section_4_4_d
6
CONTINUOUS
62
7
370
0
100
AcDbTrace
10
4100
20
3464
30
0
11
4107.99266543
21
3416
31
0
12
4092.00733457
22
3416
32
0
13
4092.00733457
23
3416
33
0
0
SOLID
5
EF
100
AcDbEntity
8
section_4_4_d
6
CONTINUOUS
62
7
370
0
100
AcDbTrace
10
4100
20
1064
30
0
11
4092.00733457
21
1112
31
0
12
4107.99266543
22
1112
32
0
13
4107.99266543
23
1112
33
0
0
MTEXT
5
F0
100
AcDbEntity
8
section_4_4_d
6
CONTINUOUS
62
7
370
0
100
AcDbMText
10
4056
20
2264
30
0
40
48
41
138.666666667
71
5
72
1
1
2400
7
standard
210
0
220
0
230
1
50
90
73
2
44
1
0
LINE
5
F1
100
AcDbEntity
8
section_4_4_d
6
CONTINUOUS
62
7
370
0
100
AcDbLine
10
3970
20
3464
11
4116
21
3464
0
LINE
5
F2
100
AcDbEntity
8
section_4_4_d
6
CONTINUOUS
62
7
370
0
100
AcDbLine
10
3970
20
1064
11
4116
21
1064
0
ENDBLK
5
7A
330
78
100
AcDbEntity
8
0
100
AcDbBlockEnd
0
BLOCK
5
7C
330
7B
100
AcDbEntity
8
0
100
AcDbBlockBegin
2
*D2
70
1
10
0
20
0
3
*D2
1

0
LINE
5
F3
100
AcDbEntity
8
section_4_4_d
6
CONTINUOUS
62
7
370
0
100
AcDbLine
10
1200
20
500
11
3520
21
500
0
SOLID
5
F4
100
AcDbEntity
8
section_4_4_d
6
CONTINUOUS
62
7
370
0
100
AcDbTrace
10
1200
20
500
30
0
11
1248
21
507.992665429
31
0
12
1248
22
492.007334571
32
0
13
1248
23
492.007334571
33
0
0
SOLID
5
F5
100
AcDbEntity
8
section_4_4_d
6
CONTINUOUS
62
7
370
0
100
AcDbTrace
10
3520
20
500
30
0
11
3472
21
492.007334571
31
0
12
3472
22
507.992665429
32
0
13
3472
23
507.992665429
33
0
0
MTEXT
5
F6
100
AcDbEntity
8
section_4_4_d
6
CONTINUOUS
62
7
370
0
100
AcDbMText
10
2360
20
544
30
0
40
48
41
133.333333333
71
5
72
1
1
2320
7
standard
210
0
220
0
230
1
50
0
73
2
44
1
0
LINE
5
F7
100
AcDbEntity
8
section_4_4_d
6
CONTINUOUS
62
7
370
0
100
AcDbLine
10
1200
20
498.617263714
11
1200
21
484
0
LINE
5
F8
100
AcDbEntity
8
section_4_4_d
6
CONTINUOUS
62
7
370
0
100
AcDbLine
10
3520
20
486.861179491
11
3520
21
484
0
ENDBLK
5
7D
330
7B
100
AcDbEntity
8
0
100
AcDbBlockEnd
0
BLOCK
5
7F
330
7E
100
AcDbEntity
8
0
100
AcDbBlockBegin
2
*D4
70
1
10
0
20
0
3
*D4
1

0
LINE
5
F9
100
AcDbEntity
8
section_4_4_d
6
CONTINUOUS
62
7
370
0
100
AcDbLine
10
4100
20
3764
11
4100
21
3464
0
SOLID
5
FA
100
AcDbEntity
8
section_4_4_d
6
CONTINUOUS
62
7
370
0
100
AcDbTrace
10
4100
20
3764
30
0
11
4107.99266543
21
3716
31
0
12
4092.00733457
22
3716
32
0
13
4092.00733457
23
3716
33
0
0
SOLID
5
FB
100
AcDbEntity
8
section_4_4_d
6
CONTINUOUS
62
7
370
0
100
AcDbTrace
10
4100
20
3464
30
0
11
4092.00733457
21
3512
31
0
12
4107.99266543
22
3512
32
0
13
4107.99266543
23
3512
33
0
0
MTEXT
5
FC
100
AcDbEntity
8
section_4_4_d
6
CONTINUOUS
62
7
370
0
100
AcDbMText
10
4056
20
3614
30
0
40
48
41
96
71
5
72
1
1
300
7
standard
210
0
220
0
230
1
50
90
73
2
44
1
0
LINE
5
FD
100
AcDbEntity
8
section_4_4_d
6
CONTINUOUS
62
7
370
0
100
AcDbLine
10
4077.9239171
20
3764
11
4116
21
3764
0
LINE
5
FE
100
AcDbEntity
8
section_4_4_d
6
CONTINUOUS
62
7
370
0
100
AcDbLine
10
4082.84201712
20
3464
11
4116
21
3464
0
ENDBLK
5
80
330
7E
100
AcDbEntity
8
0
100
AcDbBlockEnd
0
BLOCK
5
82
330
81
100
AcDbEntity
8
0
100
AcDbBlockBegin
2
*D16
70
1
10
0
20
0
3
*D16
1

0
LINE
5
FF
100
AcDbEntity
8
section_4_4_d
6
CONTINUOUS
62
7
370
0
100
AcDbLine
10
3900
20
1914
11
3900
21
2314
0
SOLID
5
100
100
AcDbEntity
8
section_4_4_d
6
CONTINUOUS
62
7
370
0
100
AcDbTrace
10
3900
20
1914
30
0
11
3892.00733457
21
1962
31
0
12
3907.99266543
22
1962
32
0
13
3907.99266543
23
1962
33
0
0
SOLID
5
101
100
AcDbEntity
8
section_4_4_d
6
CONTINUOUS
62
7
370
0
100
AcDbTrace
10
3900
20
2314
30
0
11
3907.99266543
21
2266
31
0
12
3892.00733457
22
2266
32
0
13
3892.00733457
23
2266
33
0
0
MTEXT
5
102
100
AcDbEntity
8
section_4_4_d
6
CONTINUOUS
62
7
370
0
100
AcDbMText
10
3856
20
2114
30
0
40
48
41
101.333333333
71
5
72
1
1
400
7
standard
210
0
220
0
230
1
50
90
73
2
44
1
0
LINE
5
103
100
AcDbEntity
8
section_4_4_d
6
CONTINUOUS
62
7
370
0
100
AcDbLine
10
3898.01757373
20
1914
11
3916
21
1914
0
LINE
5
104
100
AcDbEntity
8
section_4_4_d
6
CONTINUOUS
62
7
370
0
100
AcDbLine
10
3898.01757373
20
2314
11
3916
21
2314
0
ENDBLK
5
83
330
81
100
AcDbEntity
8
0
100
AcDbBlockEnd
0
BLOCK
5
85
330
84
100
AcDbEntity
8
0
100
AcDbBlockBegin
2
*D8
70
1
10
0
20
0
3
*D8
1

0
LINE
5
105
100
AcDbEntity
8
section_4_4_d
6
CONTINUOUS
62
7
370
0
100
AcDbLine
10
2359.5
20
4000
11
2974.5
21
4000
0
SOLID
5
106
100
AcDbEntity
8
section_4_4_d
6
CONTINUOUS
62
7
370
0
100
AcDbTrace
10
2359.5
20
4000
30
0
11
2407.5
21
4007.99266543
31
0
12
2407.5
22
3992.00733457
32
0
13
2407.5
23
3992.00733457
33
0
0
SOLID
5
107
100
AcDbEntity
8
section_4_4_d
6
CONTINUOUS
62
7
370
0
100
AcDbTrace
10
2974.5
20
4000
30
0
11
2926.5
21
3992.00733457
31
0
12
2926.5
22
4007.99266543
32
0
13
2926.5
23
4007.99266543
33
0
0
MTEXT
5
108
100
AcDbEntity
8
section_4_4_d
6
CONTINUOUS
62
7
370
0
100
AcDbMText
10
2667
20
4044
30
0
40
48
41
85.3333333333
71
5
72
1
1
615
7
standard
210
0
220
0
230
1
50
0
73
2
44
1
0
LINE
5
109
100
AcDbEntity
8
section_4_4_d
6
CONTINUOUS
62
7
370
0
100
AcDbLine
10
2359.5
20
4002.65034677
11
2359.5
21
4016
0
LINE
5
10A
100
AcDbEntity
8
section_4_4_d
6
CONTINUOUS
62
7
370
0
100
AcDbLine
10
2974.5
20
4007.12167069
11
2974.5
21
4016
0
ENDBLK
5
86
330
84
100
AcDbEntity
8
0
100
AcDbBlockEnd
0
BLOCK
5
88
330
87
100
AcDbEntity
8
0
100
AcDbBlockBegin
2
*D7
70
1
10
0
20
0
3
*D7
1

0
LINE
5
10B
100
AcDbEntity
8
section_4_4_d
6
CONTINUOUS
62
7
370
0
100
AcDbLine
10
1744.5
20
4000
11
2359.5
21
4000
0
SOLID
5
10C
100
AcDbEntity
8
section_4_4_d
6
CONTINUOUS
62
7
370
0
100
AcDbTrace
10
1744.5
20
4000
30
0
11
1792.5
21
4007.99266543
31
0
12
1792.5
22
3992.00733457
32
0
13
1792.5
23
3992.00733457
33
0
0
SOLID
5
10D
100
AcDbEntity
8
section_4_4_d
6
CONTINUOUS
62
7
370
0
100
AcDbTrace
10
2359.5
20
4000
30
0
11
2311.5
21
3992.00733457
31
0
12
2311.5
22
4007.99266543
32
0
13
2311.5
23
4007.99266543
33
0
0
MTEXT
5
10E
100
AcDbEntity
8
section_4_4_d
6
CONTINUOUS
62
7
370
0
100
AcDbMText
10
2052
20
4044
30
0
40
48
41
85.3333333333
71
5
72
1
1
615
7
standard
210
0
220
0
230
1
50
0
73
2
44
1
0
LINE
5
10F
100
AcDbEntity
8
section_4_4_d
6
CONTINUOUS
62
7
370
0
100
AcDbLine
10
1744.5
20
4011.59299461
11
1744.5
21
4016
0
LINE
5
110
100
AcDbEntity
8
section_4_4_d
6
CONTINUOUS
62
7
370
0
100
AcDbLine
10
2359.5
20
4011.59299461
11
2359.5
21
4016
0
ENDBLK
5
89
330
87
100
AcDbEntity
8
0
100
AcDbBlockEnd
0
BLOCK
5
8B
330
8A
100
AcDbEntity
8
0
100
AcDbBlockBegin
2
*D1
70
1
10
0
20
0
3
*D1
1

0
LINE
5
111
100
AcDbEntity
8
section_4_4_d
6
CONTINUOUS
62
7
370
0
100
AcDbLine
10
1290
20
600
11
3430
21
600
0
SOLID
5
112
100
AcDbEntity
8
section_4_4_d
6
CONTINUOUS
62
7
370
0
100
AcDbTrace
10
1290
20
600
30
0
11
1338
21
607.992665429
31
0
12
1338
22
592.007334571
32
0
13
1338
23
592.007334571
33
0
0
SOLID
5
113
100
AcDbEntity
8
section_4_4_d
6
CONTINUOUS
62
7
370
0
100
AcDbTrace
10
3430
20
600
30
0
11
3382
21
592.007334571
31
0
12
3382
22
607.992665429
32
0
13
3382
23
607.992665429
33
0
0
MTEXT
5
114
100
AcDbEntity
8
section_4_4_d
6
CONTINUOUS
62
7
370
0
100
AcDbMText
10
2360
20
644
30
0
40
48
41
128
71
5
72
1
1
2140
7
standard
210
0
220
0
230
1
50
0
73
2
44
1
0
LINE
5
115
100
AcDbEntity
8
section_4_4_d
6
CONTINUOUS
62
7
370
0
100
AcDbLine
10
1290
20
627.93419016
11
1290
21
584
0
LINE
5
116
100
AcDbEntity
8
section_4_4_d
6
CONTINUOUS
62
7
370
0
100
AcDbLine
10
3430
20
624.01549542
11
3430
21
584
0
ENDBLK
5
8C
330
8A
100
AcDbEntity
8
0
100
AcDbBlockEnd
0
BLOCK
5
8E
330
8D
100
AcDbEntity
8
0
100
AcDbBlockBegin
2
a3-0
70
0
10
0
20
0
3
a3-0
1

0
LINE
5
117
100
AcDbEntity
8
0
6
ByLayer
62
256
370
-1
100
AcDbLine
10
4100
20
2870
11
4100
21
100
0
LINE
5
118
100
AcDbEntity
8
0
6
ByLayer
62
256
370
-1
100
AcDbLine
10
200
20
2870
11
200
21
100
0
LINE
5
119
100
AcDbEntity
8
0
6
ByLayer
62
256
370
-1
100
AcDbLine
10
200
20
100
11
4100
21
100
0
LINE
5
11A
100
AcDbEntity
8
0
6
ByLayer
62
256
370
-1
100
AcDbLine
10
200
20
2870
11
4100
21
2870
0
LINE
5
11B
100
AcDbEntity
8
0
6
ByLayer
62
7
370
-1
100
AcDbLine
10
3200
20
700
11
3900
21
700
0
LINE
5
11C
100
AcDbEntity
8
0
6
ByLayer
62
256
370
-1
100
AcDbLine
10
3900
20
800
11
3900
21
600
0
LINE
5
11D
100
AcDbEntity
8
0
6
ByLayer
62
7
370
-1
100
AcDbLine
10
3500
20
800
11
3500
21
600
0
MTEXT
5
11E
100
AcDbEntity
8
0
6
ByLayer
62
256
370
-1
100
AcDbMText
10
3231.449088
20
769.746176
30
0
40
40
41
233.333324853
71
1
72
5
1
SIZE  A3
7
iso
210
0
220
0
230
1
50
0
73
2
44
0.96
0
MTEXT
5
11F
100
AcDbEntity
8
0
6
ByLayer
62
256
370
-1
100
AcDbMText
10
3229.61408
20
674.32576
30
0
40
40
41
243.333324853
71
1
72
5
1
SCALE 1:1
7
iso
210
0
220
0
230
1
50
0
73
2
44
0.96
0
MTEXT
5
120
100
AcDbEntity
8
0
6
ByLayer
62
256
370
-1
100
AcDbMText
10
3609.460736
20
666.985728
30
0
40
40
41
168.888880409
71
1
72
5
1
AS1100
7
iso
210
0
220
0
230
1
50
0
73
2
44
0.96
0
MTEXT
5
121
100
AcDbEntity
8
0
6
ByLayer
62
256
370
-1
100
AcDbMText
10
3444.310016
20
933.061888
30
0
40
60
41
365
71
1
72
5
1
ANDY XU
7
iso
210
0
220
0
230
1
50
0
73
2
44
0.96
0
MTEXT
5
122
100
AcDbEntity
8
0
6
ByLayer
62
256
370
-1
100
AcDbMText
10
3920
20
748.333332468
30
0
40
30
41
103.344762494
71
7
72
5
1
sheet
7
normal#0.500000#0.900000
210
0
220
0
230
1
50
0
73
1
44
0.96
0
LINE
5
123
100
AcDbEntity
8
0
6
ByLayer
62
256
370
-1
100
AcDbLine
10
3800
20
600.001
11
3800
21
100
0
LINE
5
124
100
AcDbEntity
8
0
6
ByLayer
62
256
370
-1
100
AcDbLine
10
3948
20
228
11
3948
21
172
0
CIRCLE
5
125
100
AcDbEntity
8
0
6
ByLayer
62
256
370
-1
100
AcDbCircle
10
4012
20
200
40
28
0
LINE
5
126
100
AcDbEntity
8
0
6
ByLayer
62
256
370
-1
100
AcDbLine
10
3860
20
200
11
4060
21
200
0
LINE
5
127
100
AcDbEntity
8
0
6
ByLayer
62
256
370
-1
100
AcDbLine
10
3884
20
216
11
3948
21
228
0
LINE
5
128
100
AcDbEntity
8
0
6
ByLayer
62
256
370
-1
100
AcDbLine
10
3884
20
184
11
3948
21
172
0
LINE
5
129
100
AcDbEntity
8
0
6
ByLayer
62
256
370
-1
100
AcDbLine
10
3884
20
216
11
3884
21
184
0
LINE
5
12A
100
AcDbEntity
8
0
6
ByLayer
62
256
370
-1
100
AcDbLine
10
4012
20
152
11
4012
21
248
0
CIRCLE
5
12B
100
AcDbEntity
8
0
6
ByLayer
62
256
370
-1
100
AcDbCircle
10
4012
20
200
40
16
0
LINE
5
12C
100
AcDbEntity
8
0
6
ByLayer
62
256
370
-1
100
AcDbLine
10
3200
20
1000
11
4100
21
1000
0
LINE
5
12D
100
AcDbEntity
8
0
6
ByLayer
62
256
370
-1
100
AcDbLine
10
3200
20
800.0005625
11
4100
21
800
0
LINE
5
12E
100
AcDbEntity
8
0
6
ByLayer
62
256
370
-1
100
AcDbLine
10
3200
20
600.001
11
4100
21
600.001
0
LINE
5
12F
100
AcDbEntity
8
0
6
ByLayer
62
256
370
-1
100
AcDbLine
10
3200
20
300
11
4100
21
300
0
LINE
5
130
100
AcDbEntity
8
0
6
ByLayer
62
256
370
-1
100
AcDbLine
10
3200
20
1100.0005625
11
4100
21
1100
0
LINE
5
131
100
AcDbEntity
8
0
6
ByLayer
62
256
370
-1
100
AcDbLine
10
3200
20
1100.0005625
11
3200
21
100
0
LINE
5
132
100
AcDbEntity
8
0
6
ByLayer
62
256
370
-1
100
AcDbLine
10
3200
20
525.001
11
4100
21
525.001
0
LINE
5
133
100
AcDbEntity
8
0
6
ByLayer
62
256
370
-1
100
AcDbLine
10
3200
20
450.001
11
4100
21
450.001
0
LINE
5
134
100
AcDbEntity
8
0
6
ByLayer
62
256
370
-1
100
AcDbLine
10
3200
20
375.001
11
4100
21
375.001
0
ENDBLK
5
8F
330
8D
100
AcDbEntity
8
0
100
AcDbBlockEnd
0
BLOCK
5
91
330
90
100
AcDbEntity
8
0
100
AcDbBlockBegin
2
A3_Xu-0
70
0
10
0
20
0
3
A3_Xu-0
1

0
INSERT
5
135
100
AcDbEntity
8
0
6
ByLayer
62
256
370
-1
100
AcDbBlockReference
2
a3-0
10
0
20
0
30
0
41
1
42
1
43
0
50
0
70
1
71
1
44
0
45
0
0
ENDBLK
5
92
330
90
100
AcDbEntity
8
0
100
AcDbBlockEnd
0
ENDSEC
0
SECTION
2
ENTITIES
0
HATCH
5
136
100
AcDbEntity
8
Foundation
6
ByLayer
62
256
370
-1
100
AcDbHatch
10
0
20
0
30
0
210
0
220
0
230
1
2
kerpele
70
0
71
0
91
1
92
0
93
4
72
1
10
1200
20
1064
11
3520
21
1064
72
1
10
3520
20
1064
11
3520
21
1045
72
1
10
3520
20
1045
11
1200
21
1045
72
1
10
1200
20
1045
11
1200
21
1064
97
0
75
0
76
1
52
4.71238898038
41
1
77
0
78
0
98
0
0
HATCH
5
137
100
AcDbEntity
8
Foundation
6
ByLayer
62
256
370
-1
100
AcDbHatch
10
0
20
0
30
0
210
0
220
0
230
1
2
kerpele
70
0
71
0
91
1
92
0
93
4
72
1
10
2257
20
830
11
2463
21
830
72
1
10
2463
20
830
11
2463
21
710
72
1
10
2463
20
710
11
2257
21
710
72
1
10
2257
20
710
11
2257
21
830
97
0
75
0
76
1
52
0
41
1
77
0
78
0
98
0
0
HATCH
5
138
100
AcDbEntity
8
Foundation
6
ByLayer
62
256
370
-1
100
AcDbHatch
10
0
20
0
30
0
210
0
220
0
230
1
2
kerpele
70
0
71
0
91
1
92
0
93
4
72
1
10
1142
20
830
11
1348
21
830
72
1
10
1348
20
830
11
1348
21
710
72
1
10
1348
20
710
11
1142
21
710
72
1
10
1142
20
710
11
1142
21
830
97
0
75
0
76
1
52
0
41
1
77
0
78
0
98
0
0
HATCH
5
139
100
AcDbEntity
8
Foundation
6
ByLayer
62
256
370
-1
100
AcDbHatch
10
0
20
0
30
0
210
0
220
0
230
1
2
kerpele
70
0
71
0
91
1
92
0
93
4
72
1
10
3372
20
830
11
3578
21
830
72
1
10
3578
20
830
11
3578
21
710
72
1
10
3578
20
710
11
3372
21
710
72
1
10
3372
20
710
11
3372
21
830
97
0
75
0
76
1
52
0
41
1
77
0
78
0
98
0
0
INSERT
5
13A
100
AcDbEntity
8
0
6
ByLayer
62
256
370
-1
100
AcDbBlockReference
2
A3_Xu-0
10
-320
20
-160
30
0
41
1.6
42
1.6
43
0
50
0
70
1
71
1
44
0
45
0
0
LINE
5
13B
100
AcDbEntity
8
Foundation
6
ByLayer
62
256
370
-1
100
AcDbLine
10
1200
20
1064
11
3520
21
1064
0
LINE
5
13C
100
AcDbEntity
8
Foundation
6
ByLayer
62
256
370
-1
100
AcDbLine
10
1200
20
1045
11
3520
21
1045
0
LINE
5
13D
100
AcDbEntity
8
Foundation
6
ByLayer
62
256
370
-1
100
AcDbLine
10
3520
20
1064
11
3520
21
1045
0
LINE
5
13E
100
AcDbEntity
8
section_4_4
6
ByLayer
62
256
370
-1
100
AcDbLine
10
1200
20
1064
11
1290
21
1099
0
LINE
5
13F
100
AcDbEntity
8
section_4_4
6
ByLayer
62
256
370
-1
100
AcDbLine
10
1200
20
1099
11
1290
21
1064
0
LINE
5
140
100
AcDbEntity
8
section_4_4
6
ByLayer
62
256
370
-1
100
AcDbLine
10
3520
20
1099
11
3430
21
1064
0
LINE
5
141
100
AcDbEntity
8
section_4_4
6
ByLayer
62
256
370
-1
100
AcDbLine
10
3430
20
1099
11
3520
21
1064
0
LINE
5
142
100
AcDbEntity
8
section_4_4
6
ByLayer
62
256
370
-1
100
AcDbLine
10
1200
20
1099
11
1290
21
1099
0
LINE
5
143
100
AcDbEntity
8
section_4_4
6
ByLayer
62
256
370
-1
100
AcDbLine
10
3430
20
1099
11
3520
21
1099
0
LINE
5
144
100
AcDbEntity
8
Foundation
6
ByLayer
62
256
370
-1
100
AcDbLine
10
2257
20
830
11
2463
21
830
0
LINE
5
145
100
AcDbEntity
8
Foundation
6
ByLayer
62
256
370
-1
100
AcDbLine
10
2257
20
830
11
2463
21
830
0
LINE
5
146
100
AcDbEntity
8
Foundation
6
ByLayer
62
256
370
-1
100
AcDbLine
10
1200
20
1045
11
1200
21
1060
0
LINE
5
147
100
AcDbEntity
8
Foundation
6
ByLayer
62
256
370
-1
100
AcDbLine
10
1245
20
908
11
1245
21
830
0
LINE
5
148
100
AcDbEntity
8
Foundation
6
ByLayer
62
256
370
-1
100
AcDbLine
10
1142
20
830
11
1348
21
830
0
LINE
5
149
100
AcDbEntity
8
Foundation
6
ByLayer
62
256
370
-1
100
AcDbLine
10
1142
20
830
11
1348
21
830
0
LINE
5
14A
100
AcDbEntity
8
Foundation
6
ByLayer
62
256
370
-1
100
AcDbLine
10
3372
20
830
11
3578
21
830
0
LINE
5
14B
100
AcDbEntity
8
Foundation
6
ByLayer
62
256
370
-1
100
AcDbLine
10
3372
20
830
11
3578
21
830
0
LINE
5
14C
100
AcDbEntity
8
section_4_4
6
ByLayer
62
256
370
-1
100
AcDbLine
10
3430
20
1064
11
3520
21
1064
0
LINE
5
14D
100
AcDbEntity
8
section_4_4
6
ByLayer
62
256
370
-1
100
AcDbLine
10
1200
20
1064
11
1290
21
1064
0
LINE
5
14E
100
AcDbEntity
8
section_4_4
6
ByLayer
62
256
370
-1
100
AcDbLine
10
1200
20
3464
11
3520
21
3464
0
LINE
5
14F
100
AcDbEntity
8
section_4_4
6
ByLayer
62
256
370
-1
100
AcDbLine
10
1200
20
3374
11
3520
21
3374
0
LINE
5
150
100
AcDbEntity
8
section_4_4
6
ByLayer
62
256
370
-1
100
AcDbLine
10
1200
20
3464
11
1200
21
1064
0
LINE
5
151
100
AcDbEntity
8
section_4_4
6
ByLayer
62
256
370
-1
100
AcDbLine
10
1290
20
3374
11
1290
21
1064
0
LINE
5
152
100
AcDbEntity
8
section_4_4
6
ByLayer
62
256
370
-1
100
AcDbLine
10
3430
20
3374
11
3430
21
1064
0
LINE
5
153
100
AcDbEntity
8
section_4_4
6
ByLayer
62
256
370
-1
100
AcDbLine
10
3520
20
3464
11
3520
21
1064
0
LINE
5
154
100
AcDbEntity
8
section_4_4_d
6
CENTER2
62
256
370
-1
100
AcDbLine
10
2359.5
20
949
11
2359.5
21
299
0
LINE
5
155
100
AcDbEntity
8
section_4_4_d
6
CENTER2
62
256
370
-1
100
AcDbLine
10
3412.5
20
949
11
3412.5
21
299
0
CIRCLE
5
156
100
AcDbEntity
8
section_4_4_d
6
ByLayer
62
256
370
-1
100
AcDbCircle
10
1307.5
20
226.71067915
40
72.2893208499
0
LINE
5
157
100
AcDbEntity
8
section_4_4_d
6
CENTER2
62
256
370
-1
100
AcDbLine
10
1307.5
20
949
11
1307.5
21
299
0
CIRCLE
5
158
100
AcDbEntity
8
section_4_4_d
6
ByLayer
62
256
370
-1
100
AcDbCircle
10
2359.5
20
226.71067915
40
72.2893208499
0
CIRCLE
5
159
100
AcDbEntity
8
section_4_4_d
6
ByLayer
62
256
370
-1
100
AcDbCircle
10
3412.5
20
226.71067915
40
72.2893208499
0
MTEXT
5
15A
100
AcDbEntity
8
section_4_4_d
6
ByLayer
62
256
370
-1
100
AcDbMText
10
1295
20
260
30
0
40
64
41
42.6666666667
71
1
72
1
1
A
7
standard
210
0
220
0
230
1
50
0
73
2
44
1
0
MTEXT
5
15B
100
AcDbEntity
8
section_4_4_d
6
ByLayer
62
256
370
-1
100
AcDbMText
10
2347
20
260
30
0
40
64
41
28.4444444444
71
1
72
1
1
C
7
standard
210
0
220
0
230
1
50
0
73
2
44
1
0
MTEXT
5
15C
100
AcDbEntity
8
section_4_4_d
6
ByLayer
62
256
370
-1
100
AcDbMText
10
3400
20
260
30
0
40
64
41
28.4444444444
71
1
72
1
1
E
7
standard
210
0
220
0
230
1
50
0
73
2
44
1
0
CIRCLE
5
15D
100
AcDbEntity
8
section_4_4_d
6
ByLayer
62
256
370
-1
100
AcDbCircle
10
1307.5
20
4301.28932085
40
72.2893208499
0
CIRCLE
5
15E
100
AcDbEntity
8
section_4_4_d
6
ByLayer
62
256
370
-1
100
AcDbCircle
10
2359.5
20
4301.28932085
40
72.2893208499
0
CIRCLE
5
15F
100
AcDbEntity
8
section_4_4_d
6
ByLayer
62
256
370
-1
100
AcDbCircle
10
3412.5
20
4301.28932085
40
72.2893208499
0
MTEXT
5
160
100
AcDbEntity
8
section_4_4_d
6
ByLayer
62
256
370
-1
100
AcDbMText
10
1295
20
4268
30
0
40
64
41
42.6666666667
71
7
72
1
1
A
7
standard
210
0
220
0
230
1
50
0
73
2
44
1
0
MTEXT
5
161
100
AcDbEntity
8
section_4_4_d
6
ByLayer
62
256
370
-1
100
AcDbMText
10
2347
20
4268
30
0
40
64
41
28.4444444444
71
7
72
1
1
C
7
standard
210
0
220
0
230
1
50
0
73
2
44
1
0
MTEXT
5
162
100
AcDbEntity
8
section_4_4_d
6
ByLayer
62
256
370
-1
100
AcDbMText
10
3400
20
4268
30
0
40
64
41
28.4444444444
71
7
72
1
1
E
7
standard
210
0
220
0
230
1
50
0
73
2
44
1
0
LINE
5
163
100
AcDbEntity
8
section_4_4_d
6
CENTER2
62
256
370
-1
100
AcDbLine
10
1307.5
20
3879
11
1307.5
21
4229
0
LINE
5
164
100
AcDbEntity
8
section_4_4_d
6
CENTER2
62
256
370
-1
100
AcDbLine
10
2359.5
20
3879
11
2359.5
21
4229
0
LINE
5
165
100
AcDbEntity
8
section_4_4_d
6
CENTER2
62
256
370
-1
100
AcDbLine
10
3412.5
20
3879
11
3412.5
21
4229
0
LINE
5
166
100
AcDbEntity
8
section_4_4_d
6
CENTER2
62
256
370
-1
100
AcDbLine
10
1200
20
914
11
1200
21
414
0
LINE
5
167
100
AcDbEntity
8
section_4_4_d
6
CENTER2
62
256
370
-1
100
AcDbLine
10
1290
20
914
11
1290
21
414
0
LINE
5
168
100
AcDbEntity
8
section_4_4_d
6
CENTER2
62
256
370
-1
100
AcDbLine
10
3430
20
914
11
3430
21
414
0
LINE
5
169
100
AcDbEntity
8
section_4_4_d
6
CENTER2
62
256
370
-1
100
AcDbLine
10
3520
20
914
11
3520
21
414
0
DIMENSION
5
16A
100
AcDbEntity
8
section_4_4_d
6
ByLayer
62
256
370
-1
100
AcDbDimension
2
*D1
10
3430
20
600
30
0
11
2360
21
644
31
0
70
32
71
5
72
0
3
Standard
53
0
210
0
220
0
230
1
100
AcDbAlignedDimension
13
1290
23
677.93419016
33
0
14
3430
24
674.01549542
34
0
100
AcDbRotatedDimension
0
DIMENSION
5
16B
100
AcDbEntity
8
section_4_4_d
6
ByLayer
62
256
370
-1
100
AcDbDimension
2
*D2
10
3520
20
500
30
0
11
2360
21
544
31
0
70
32
71
5
72
0
3
Standard
53
0
210
0
220
0
230
1
100
AcDbAlignedDimension
13
1200
23
548.617263714
33
0
14
3520
24
536.861179491
34
0
100
AcDbRotatedDimension
0
LINE
5
16C
100
AcDbEntity
8
section_4_4_d
6
CENTER2
62
256
370
-1
100
AcDbLine
10
843.682792195
20
3940.84229437
11
843.682792195
21
4290.84229437
0
LINE
5
16D
100
AcDbEntity
8
section_4_4_d
6
CENTER2
62
256
370
-1
100
AcDbLine
10
3817.3683702
20
3884.35088397
11
3817.3683702
21
4234.35088397
0
DIMENSION
5
16E
100
AcDbEntity
8
section_4_4_d
6
ByLayer
62
256
370
-1
100
AcDbDimension
2
*D3
10
3817.3683702
20
4100
30
0
11
2330.5255812
21
4144
31
0
70
32
1
2975
71
5
72
0
3
Standard
53
0
210
0
220
0
230
1
100
AcDbAlignedDimension
13
843.682792195
23
4045.13726717
33
0
14
3817.3683702
24
4038.98964215
34
0
100
AcDbRotatedDimension
0
CIRCLE
5
16F
100
AcDbEntity
8
section_4_4_d
6
ByLayer
62
256
370
-1
100
AcDbCircle
10
161.71067915
20
3464
40
72.2893208499
0
LINE
5
170
100
AcDbEntity
8
section_4_4_d
6
CENTER2
62
256
370
-1
100
AcDbLine
10
684
20
3464
11
234
21
3464
0
CIRCLE
5
171
100
AcDbEntity
8
section_4_4_d
6
ByLayer
62
256
370
-1
100
AcDbCircle
10
161.71067915
20
3764
40
72.2893208499
0
LINE
5
172
100
AcDbEntity
8
section_4_4_d
6
CENTER2
62
256
370
-1
100
AcDbLine
10
684
20
3764
11
234
21
3764
0
MTEXT
5
173
100
AcDbEntity
8
section_4_4_d
6
ByLayer
62
256
370
-1
100
AcDbMText
10
204
20
3495
30
0
40
64
41
85.3333333333
71
3
72
1
1
H2
7
standard
210
0
220
0
230
1
50
360
73
2
44
1
0
MTEXT
5
174
100
AcDbEntity
8
section_4_4_d
6
ByLayer
62
256
370
-1
100
AcDbMText
10
204
20
3795
30
0
40
64
41
85.3333333333
71
3
72
1
1
H3
7
standard
210
0
220
0
230
1
50
360
73
2
44
1
0
CIRCLE
5
175
100
AcDbEntity
8
section_4_4_d
6
ByLayer
62
256
370
-1
100
AcDbCircle
10
4442.28932085
20
3464
40
72.2893208499
0
LINE
5
176
100
AcDbEntity
8
section_4_4_d
6
CENTER2
62
256
370
-1
100
AcDbLine
10
3920
20
3464
11
4370
21
3464
0
CIRCLE
5
177
100
AcDbEntity
8
section_4_4_d
6
ByLayer
62
256
370
-1
100
AcDbCircle
10
4442.28932085
20
3764
40
72.2893208499
0
LINE
5
178
100
AcDbEntity
8
section_4_4_d
6
CENTER2
62
256
370
-1
100
AcDbLine
10
3920
20
3764
11
4370
21
3764
0
MTEXT
5
179
100
AcDbEntity
8
section_4_4_d
6
ByLayer
62
256
370
-1
100
AcDbMText
10
4400
20
3495
30
0
40
64
41
85.3333333333
71
1
72
1
1
H2
7
standard
210
0
220
0
230
1
50
0
73
2
44
1
0
MTEXT
5
17A
100
AcDbEntity
8
section_4_4_d
6
ByLayer
62
256
370
-1
100
AcDbMText
10
4400
20
3795
30
0
40
64
41
85.3333333333
71
1
72
1
1
H3
7
standard
210
0
220
0
230
1
50
0
73
2
44
1
0
DIMENSION
5
17B
100
AcDbEntity
8
section_4_4_d
6
ByLayer
62
256
370
-1
100
AcDbDimension
2
*D4
10
4100
20
3464
30
0
11
4056
21
3614
31
0
70
32
71
5
72
0
3
Standard
53
0
210
0
220
0
230
1
100
AcDbAlignedDimension
13
4027.9239171
23
3764
33
0
14
4032.84201712
24
3464
34
0
50
90
100
AcDbRotatedDimension
0
LINE
5
17C
100
AcDbEntity
8
section_4_4_d
6
ByLayer
62
256
370
-1
100
AcDbLine
10
4718.6998044
20
3555
11
4238.6998044
21
3555
0
LINE
5
17D
100
AcDbEntity
8
section_4_4_d
6
ByLayer
62
256
370
-1
100
AcDbLine
10
4238.6998044
20
3555
11
4278.6998044
21
3465
0
LINE
5
17E
100
AcDbEntity
8
section_4_4_d
6
ByLayer
62
256
370
-1
100
AcDbLine
10
4278.6998044
20
3465
11
4318.6998044
21
3555
0
LINE
5
17F
100
AcDbEntity
8
section_4_4_d
6
ByLayer
62
256
370
-1
100
AcDbLine
10
4718.6998044
20
3855
11
4238.6998044
21
3855
0
LINE
5
180
100
AcDbEntity
8
section_4_4_d
6
ByLayer
62
256
370
-1
100
AcDbLine
10
4238.6998044
20
3855
11
4278.6998044
21
3765
0
LINE
5
181
100
AcDbEntity
8
section_4_4_d
6
ByLayer
62
256
370
-1
100
AcDbLine
10
4278.6998044
20
3765
11
4318.6998044
21
3855
0
MTEXT
5
182
100
AcDbEntity
8
section_4_4_d
6
ByLayer
62
256
370
-1
100
AcDbMText
10
4510
20
3635
30
0
40
64
41
177.777777778
71
1
72
1
1
2635
7
standard
210
0
220
0
230
1
50
0
73
2
44
1
0
MTEXT
5
183
100
AcDbEntity
8
section_4_4_d
6
ByLayer
62
256
370
-1
100
AcDbMText
10
4510
20
3935
30
0
40
64
41
177.777777778
71
1
72
1
1
2935
7
standard
210
0
220
0
230
1
50
0
73
2
44
1
0
DIMENSION
5
184
100
AcDbEntity
8
section_4_4_d
6
ByLayer
62
256
370
-1
100
AcDbDimension
2
*D5
10
300
20
3464
30
0
11
256
21
3614
31
0
70
32
71
5
72
0
3
Standard
53
0
210
0
220
0
230
1
100
AcDbAlignedDimension
13
270.495501148
23
3764
33
0
14
270.495501148
24
3464
34
0
50
90
100
AcDbRotatedDimension
0
MTEXT
5
185
100
AcDbEntity
8
section_4_4_d
6
ByLayer
62
256
370
-1
100
AcDbMText
10
5070
20
1570
30
0
40
96
41
807.999979648
71
1
72
1
1
SECTION 4-4
7
standard
210
0
220
0
230
1
50
0
73
2
44
1
0
MTEXT
5
186
100
AcDbEntity
8
section_4_4_d
6
ByLayer
62
256
370
-1
100
AcDbMText
10
5080
20
780
30
0
40
64
41
508.444444444
71
1
72
1
1
28 Feb 2017
7
standard
210
0
220
0
230
1
50
0
73
2
44
1
0
LINE
5
187
100
AcDbEntity
8
section_4_4_d
6
CENTER2
62
256
370
-1
100
AcDbLine
10
1744.5
20
949
11
1744.5
21
299
0
CIRCLE
5
188
100
AcDbEntity
8
section_4_4_d
6
ByLayer
62
256
370
-1
100
AcDbCircle
10
1744.5
20
226.71067915
40
72.2893208499
0
MTEXT
5
189
100
AcDbEntity
8
section_4_4_d
6
ByLayer
62
256
370
-1
100
AcDbMText
10
1732
20
260
30
0
40
64
41
35.5555555556
71
1
72
1
1
B
7
standard
210
0
220
0
230
1
50
0
73
2
44
1
0
CIRCLE
5
18A
100
AcDbEntity
8
section_4_4_d
6
ByLayer
62
256
370
-1
100
AcDbCircle
10
1744.5
20
4301.28932085
40
72.2893208499
0
MTEXT
5
18B
100
AcDbEntity
8
section_4_4_d
6
ByLayer
62
256
370
-1
100
AcDbMText
10
1732
20
4268
30
0
40
64
41
35.5555555556
71
7
72
1
1
B
7
standard
210
0
220
0
230
1
50
0
73
2
44
1
0
LINE
5
18C
100
AcDbEntity
8
section_4_4_d
6
CENTER2
62
256
370
-1
100
AcDbLine
10
1744.5
20
3879
11
1744.5
21
4229
0
LINE
5
18D
100
AcDbEntity
8
section_4_4_d
6
CENTER2
62
256
370
-1
100
AcDbLine
10
2974.5
20
949
11
2974.5
21
299
0
CIRCLE
5
18E
100
AcDbEntity
8
section_4_4_d
6
ByLayer
62
256
370
-1
100
AcDbCircle
10
2974.5
20
226.71067915
40
72.2893208499
0
MTEXT
5
18F
100
AcDbEntity
8
section_4_4_d
6
ByLayer
62
256
370
-1
100
AcDbMText
10
2962
20
260
30
0
40
64
41
35.5555555556
71
1
72
1
1
D
7
standard
210
0
220
0
230
1
50
0
73
2
44
1
0
CIRCLE
5
190
100
AcDbEntity
8
section_4_4_d
6
ByLayer
62
256
370
-1
100
AcDbCircle
10
2974.5
20
4301.28932085
40
72.2893208499
0
MTEXT
5
191
100
AcDbEntity
8
section_4_4_d
6
ByLayer
62
256
370
-1
100
AcDbMText
10
2962
20
4268
30
0
40
64
41
35.5555555556
71
7
72
1
1
D
7
standard
210
0
220
0
230
1
50
0
73
2
44
1
0
LINE
5
192
100
AcDbEntity
8
section_4_4_d
6
CENTER2
62
256
370
-1
100
AcDbLine
10
2974.5
20
3879
11
2974.5
21
4229
0
DIMENSION
5
193
100
AcDbEntity
8
section_4_4_d
6
ByLayer
62
256
370
-1
100
AcDbDimension
2
*D6
10
1744.5
20
4000
30
0
11
1526
21
4044
31
0
70
32
71
5
3
Standard
53
0
210
0
220
0
230
1
100
AcDbAlignedDimension
13
1307.5
23
3966.06431853
33
0
14
1744.5
24
3966.06431853
34
0
100
AcDbRotatedDimension
0
DIMENSION
5
194
100
AcDbEntity
8
section_4_4_d
6
ByLayer
62
256
370
-1
100
AcDbDimension
2
*D7
10
2359.5
20
4000
30
0
11
2052
21
4044
31
0
70
32
71
5
3
Standard
53
0
210
0
220
0
230
1
100
AcDbAlignedDimension
13
1744.5
23
3961.59299461
33
0
14
2359.5
24
3961.59299461
34
0
100
AcDbRotatedDimension
0
DIMENSION
5
195
100
AcDbEntity
8
section_4_4_d
6
ByLayer
62
256
370
-1
100
AcDbDimension
2
*D8
10
2974.5
20
4000
30
0
11
2667
21
4044
31
0
70
32
71
5
3
Standard
53
0
210
0
220
0
230
1
100
AcDbAlignedDimension
13
2359.5
23
3952.65034677
33
0
14
2974.5
24
3957.12167069
34
0
100
AcDbRotatedDimension
0
DIMENSION
5
196
100
AcDbEntity
8
section_4_4_d
6
ByLayer
62
256
370
-1
100
AcDbDimension
2
*D9
10
3412.5
20
4000
30
0
11
3193.5
21
4044
31
0
70
32
71
5
3
Standard
53
0
210
0
220
0
230
1
100
AcDbAlignedDimension
13
2974.5
23
3952.65034677
33
0
14
3412.5
24
3943.70769893
34
0
100
AcDbRotatedDimension
0
DIMENSION
5
197
100
AcDbEntity
8
section_4_4_d
6
ByLayer
62
256
370
-1
100
AcDbDimension
2
*D10
10
1744.5
20
700
30
0
11
1526
21
744
31
0
70
32
71
5
3
Standard
53
0
210
0
220
0
230
1
100
AcDbAlignedDimension
13
1307.5
23
733.297123156
33
0
14
1744.5
24
733.297123156
34
0
100
AcDbRotatedDimension
0
DIMENSION
5
198
100
AcDbEntity
8
section_4_4_d
6
ByLayer
62
256
370
-1
100
AcDbDimension
2
*D11
10
2359.5
20
700
30
0
11
2052
21
744
31
0
70
32
71
5
3
Standard
53
0
210
0
220
0
230
1
100
AcDbAlignedDimension
13
1744.5
23
733.297123156
33
0
14
2359.5
24
724.354475313
34
0
100
AcDbRotatedDimension
0
DIMENSION
5
199
100
AcDbEntity
8
section_4_4_d
6
ByLayer
62
256
370
-1
100
AcDbDimension
2
*D12
10
2974.5
20
700
30
0
11
2667
21
744
31
0
70
32
71
5
3
Standard
53
0
210
0
220
0
230
1
100
AcDbAlignedDimension
13
2359.5
23
742.239771
33
0
14
2974.5
24
733.297123156
34
0
100
AcDbRotatedDimension
0
DIMENSION
5
19A
100
AcDbEntity
8
section_4_4_d
6
ByLayer
62
256
370
-1
100
AcDbDimension
2
*D13
10
3412.5
20
700
30
0
11
3193.5
21
744
31
0
70
32
71
5
3
Standard
53
0
210
0
220
0
230
1
100
AcDbAlignedDimension
13
2974.5
23
728.825799235
33
0
14
3412.5
24
724.354475313
34
0
100
AcDbRotatedDimension
0
LINE
5
19B
100
AcDbEntity
8
section_4_4_d
6
CENTER2
62
256
370
-1
100
AcDbLine
10
3670
20
1064
11
3970
21
1064
0
LINE
5
19C
100
AcDbEntity
8
section_4_4_d
6
CENTER2
62
256
370
-1
100
AcDbLine
10
3670
20
1514
11
3970
21
1514
0
LINE
5
19D
100
AcDbEntity
8
section_4_4_d
6
CENTER2
62
256
370
-1
100
AcDbLine
10
3670
20
1914
11
3970
21
1914
0
LINE
5
19E
100
AcDbEntity
8
section_4_4_d
6
CENTER2
62
256
370
-1
100
AcDbLine
10
3670
20
2314
11
3970
21
2314
0
LINE
5
19F
100
AcDbEntity
8
section_4_4_d
6
CENTER2
62
256
370
-1
100
AcDbLine
10
3670
20
2714
11
3970
21
2714
0
LINE
5
1A0
100
AcDbEntity
8
section_4_4_d
6
CENTER2
62
256
370
-1
100
AcDbLine
10
3670
20
3114
11
3970
21
3114
0
DIMENSION
5
1A1
100
AcDbEntity
8
section_4_4_d
6
ByLayer
62
256
370
-1
100
AcDbDimension
2
*D14
10
3900
20
1514
30
0
11
3856
21
1289
31
0
70
32
71
5
3
Standard
53
0
210
0
220
0
230
1
100
AcDbAlignedDimension
13
3848.01757373
23
1064
33
0
14
3848.01757373
24
1514
34
0
50
90
100
AcDbRotatedDimension
0
DIMENSION
5
1A2
100
AcDbEntity
8
section_4_4_d
6
ByLayer
62
256
370
-1
100
AcDbDimension
2
*D15
10
3900
20
1914
30
0
11
3856
21
1714
31
0
70
32
71
5
3
Standard
53
0
210
0
220
0
230
1
100
AcDbAlignedDimension
13
3842.58252066
23
1514
33
0
14
3842.58252066
24
1914
34
0
50
90
100
AcDbRotatedDimension
0
DIMENSION
5
1A3
100
AcDbEntity
8
section_4_4_d
6
ByLayer
62
256
370
-1
100
AcDbDimension
2
*D16
10
3900
20
2314
30
0
11
3856
21
2114
31
0
70
32
71
5
3
Standard
53
0
210
0
220
0
230
1
100
AcDbAlignedDimension
13
3848.01757373
23
1914
33
0
14
3848.01757373
24
2314
34
0
50
90
100
AcDbRotatedDimension
0
DIMENSION
5
1A4
100
AcDbEntity
8
section_4_4_d
6
ByLayer
62
256
370
-1
100
AcDbDimension
2
*D17
10
3900
20
2714
30
0
11
3856
21
2514
31
0
70
32
71
5
3
Standard
53
0
210
0
220
0
230
1
100
AcDbAlignedDimension
13
3831.71241452
23
2314
33
0
14
3842.58252066
24
2714
34
0
50
90
100
AcDbRotatedDimension
0
DIMENSION
5
1A5
100
AcDbEntity
8
section_4_4_d
6
ByLayer
62
256
370
-1
100
AcDbDimension
2
*D18
10
3900
20
3114
30
0
11
3856
21
2914
31
0
70
32
71
5
3
Standard
53
0
210
0
220
0
230
1
100
AcDbAlignedDimension
13
3842.58252066
23
2714
33
0
14
3848.01757373
24
3114
34
0
50
90
100
AcDbRotatedDimension
0
DIMENSION
5
1A6
100
AcDbEntity
8
section_4_4_d
6
ByLayer
62
256
370
-1
100
AcDbDimension
2
*D19
10
3900
20
3464
30
0
11
3856
21
3289
31
0
70
32
71
5
3
Standard
53
0
210
0
220
0
230
1
100
AcDbAlignedDimension
13
3943.15274267
23
3114
33
0
14
3943.15274267
24
3464
34
0
50
90
100
AcDbRotatedDimension
0
LINE
5
1A7
100
AcDbEntity
8
Foundation
6
ByLayer
62
256
370
-1
100
AcDbLine
10
1200
20
975
11
3520
21
975
0
LINE
5
1A8
100
AcDbEntity
8
Foundation
6
ByLayer
62
256
370
-1
100
AcDbLine
10
2313
20
883
11
2313
21
985
0
LINE
5
1A9
100
AcDbEntity
8
Foundation
6
ByLayer
62
256
370
-1
100
AcDbLine
10
2405
20
883
11
2313
21
883
0
LINE
5
1AA
100
AcDbEntity
8
Foundation
6
ByLayer
62
256
370
-1
100
AcDbLine
10
2407
20
985
11
2407
21
883
0
LINE
5
1AB
100
AcDbEntity
8
Foundation
6
ByLayer
62
256
370
-1
100
AcDbLine
10
2313
20
985
11
2315
21
985
0
LINE
5
1AC
100
AcDbEntity
8
Foundation
6
ByLayer
62
256
370
-1
100
AcDbLine
10
2405
20
985
11
2407
21
985
0
LINE
5
1AD
100
AcDbEntity
8
Foundation
6
ByLayer
62
256
370
-1
100
AcDbLine
10
2405
20
883
11
2407
21
883
0
LINE
5
1AE
100
AcDbEntity
8
Foundation
6
ByLayer
62
256
370
-1
100
AcDbLine
10
2405
20
985
11
2405
21
885
0
LINE
5
1AF
100
AcDbEntity
8
Foundation
6
ByLayer
62
256
370
-1
100
AcDbLine
10
2315
20
885
11
2315
21
985
0
LINE
5
1B0
100
AcDbEntity
8
Foundation
6
ByLayer
62
256
370
-1
100
AcDbLine
10
2405
20
885
11
2315
21
885
0
LINE
5
1B1
100
AcDbEntity
8
Foundation
6
ByLayer
62
256
370
-1
100
AcDbLine
10
2315
20
885
11
2360
21
885
0
LINE
5
1B2
100
AcDbEntity
8
Foundation
6
ByLayer
62
256
370
-1
100
AcDbLine
10
2360
20
885
11
2360
21
975
0
LINE
5
1B3
100
AcDbEntity
8
Foundation
6
ByLayer
62
256
370
-1
100
AcDbLine
10
2360
20
975
11
2315
21
975
0
LINE
5
1B4
100
AcDbEntity
8
Foundation
6
ByLayer
62
256
370
-1
100
AcDbLine
10
2315
20
975
11
2315
21
885
0
LINE
5
1B5
100
AcDbEntity
8
Foundation
6
ByLayer
62
256
370
-1
100
AcDbLine
10
2360
20
885
11
2405
21
885
0
LINE
5
1B6
100
AcDbEntity
8
Foundation
6
ByLayer
62
256
370
-1
100
AcDbLine
10
2405
20
885
11
2405
21
975
0
LINE
5
1B7
100
AcDbEntity
8
Foundation
6
ByLayer
62
256
370
-1
100
AcDbLine
10
2405
20
975
11
2360
21
975
0
LINE
5
1B8
100
AcDbEntity
8
Foundation
6
ByLayer
62
256
370
-1
100
AcDbLine
10
2360
20
975
11
2360
21
885
0
LINE
5
1B9
100
AcDbEntity
8
Foundation
6
ByLayer
62
256
370
-1
100
AcDbLine
10
2315
20
975
11
2360
21
885
0
LINE
5
1BA
100
AcDbEntity
8
Foundation
6
ByLayer
62
256
370
-1
100
AcDbLine
10
2360
20
975
11
2315
21
885
0
LINE
5
1BB
100
AcDbEntity
8
Foundation
6
ByLayer
62
256
370
-1
100
AcDbLine
10
2360
20
975
11
2405
21
885
0
LINE
5
1BC
100
AcDbEntity
8
Foundation
6
ByLayer
62
256
370
-1
100
AcDbLine
10
2360
20
885
11
2405
21
975
0
LINE
5
1BD
100
AcDbEntity
8
Foundation
6
ByLayer
62
256
370
-1
100
AcDbLine
10
1198
20
883
11
1198
21
985
0
LINE
5
1BE
100
AcDbEntity
8
Foundation
6
ByLayer
62
256
370
-1
100
AcDbLine
10
1290
20
883
11
1198
21
883
0
LINE
5
1BF
100
AcDbEntity
8
Foundation
6
ByLayer
62
256
370
-1
100
AcDbLine
10
1292
20
985
11
1292
21
883
0
LINE
5
1C0
100
AcDbEntity
8
Foundation
6
ByLayer
62
256
370
-1
100
AcDbLine
10
1198
20
985
11
1200
21
985
0
LINE
5
1C1
100
AcDbEntity
8
Foundation
6
ByLayer
62
256
370
-1
100
AcDbLine
10
1290
20
985
11
1292
21
985
0
LINE
5
1C2
100
AcDbEntity
8
Foundation
6
ByLayer
62
256
370
-1
100
AcDbLine
10
1290
20
883
11
1292
21
883
0
LINE
5
1C3
100
AcDbEntity
8
Foundation
6
ByLayer
62
256
370
-1
100
AcDbLine
10
1290
20
985
11
1290
21
885
0
LINE
5
1C4
100
AcDbEntity
8
Foundation
6
ByLayer
62
256
370
-1
100
AcDbLine
10
1200
20
885
11
1200
21
985
0
LINE
5
1C5
100
AcDbEntity
8
Foundation
6
ByLayer
62
256
370
-1
100
AcDbLine
10
1290
20
885
11
1200
21
885
0
LINE
5
1C6
100
AcDbEntity
8
Foundation
6
ByLayer
62
256
370
-1
100
AcDbLine
10
1200
20
885
11
1245
21
885
0
LINE
5
1C7
100
AcDbEntity
8
Foundation
6
ByLayer
62
256
370
-1
100
AcDbLine
10
1245
20
885
11
1245
21
975
0
LINE
5
1C8
100
AcDbEntity
8
Foundation
6
ByLayer
62
256
370
-1
100
AcDbLine
10
1245
20
975
11
1200
21
975
0
LINE
5
1C9
100
AcDbEntity
8
Foundation
6
ByLayer
62
256
370
-1
100
AcDbLine
10
1200
20
975
11
1200
21
885
0
LINE
5
1CA
100
AcDbEntity
8
Foundation
6
ByLayer
62
256
370
-1
100
AcDbLine
10
1245
20
885
11
1290
21
885
0
LINE
5
1CB
100
AcDbEntity
8
Foundation
6
ByLayer
62
256
370
-1
100
AcDbLine
10
1290
20
885
11
1290
21
975
0
LINE
5
1CC
100
AcDbEntity
8
Foundation
6
ByLayer
62
256
370
-1
100
AcDbLine
10
1290
20
975
11
1245
21
975
0
LINE
5
1CD
100
AcDbEntity
8
Foundation
6
ByLayer
62
256
370
-1
100
AcDbLine
10
1245
20
975
11
1245
21
885
0
LINE
5
1CE
100
AcDbEntity
8
Foundation
6
ByLayer
62
256
370
-1
100
AcDbLine
10
1200
20
975
11
1245
21
885
0
LINE
5
1CF
100
AcDbEntity
8
Foundation
6
ByLayer
62
256
370
-1
100
AcDbLine
10
1245
20
975
11
1200
21
885
0
LINE
5
1D0
100
AcDbEntity
8
Foundation
6
ByLayer
62
256
370
-1
100
AcDbLine
10
1245
20
975
11
1290
21
885
0
LINE
5
1D1
100
AcDbEntity
8
Foundation
6
ByLayer
62
256
370
-1
100
AcDbLine
10
1245
20
885
11
1290
21
975
0
LINE
5
1D2
100
AcDbEntity
8
Foundation
6
ByLayer
62
256
370
-1
100
AcDbLine
10
3428
20
883
11
3428
21
985
0
LINE
5
1D3
100
AcDbEntity
8
Foundation
6
ByLayer
62
256
370
-1
100
AcDbLine
10
3520
20
883
11
3428
21
883
0
LINE
5
1D4
100
AcDbEntity
8
Foundation
6
ByLayer
62
256
370
-1
100
AcDbLine
10
3522
20
985
11
3522
21
883
0
LINE
5
1D5
100
AcDbEntity
8
Foundation
6
ByLayer
62
256
370
-1
100
AcDbLine
10
3428
20
985
11
3430
21
985
0
LINE
5
1D6
100
AcDbEntity
8
Foundation
6
ByLayer
62
256
370
-1
100
AcDbLine
10
3520
20
985
11
3522
21
985
0
LINE
5
1D7
100
AcDbEntity
8
Foundation
6
ByLayer
62
256
370
-1
100
AcDbLine
10
3520
20
883
11
3522
21
883
0
LINE
5
1D8
100
AcDbEntity
8
Foundation
6
ByLayer
62
256
370
-1
100
AcDbLine
10
3520
20
985
11
3520
21
885
0
LINE
5
1D9
100
AcDbEntity
8
Foundation
6
ByLayer
62
256
370
-1
100
AcDbLine
10
3430
20
885
11
3430
21
985
0
LINE
5
1DA
100
AcDbEntity
8
Foundation
6
ByLayer
62
256
370
-1
100
AcDbLine
10
3520
20
885
11
3430
21
885
0
LINE
5
1DB
100
AcDbEntity
8
Foundation
6
ByLayer
62
256
370
-1
100
AcDbLine
10
3430
20
885
11
3475
21
885
0
LINE
5
1DC
100
AcDbEntity
8
Foundation
6
ByLayer
62
256
370
-1
100
AcDbLine
10
3475
20
885
11
3475
21
975
0
LINE
5
1DD
100
AcDbEntity
8
Foundation
6
ByLayer
62
256
370
-1
100
AcDbLine
10
3475
20
975
11
3430
21
975
0
LINE
5
1DE
100
AcDbEntity
8
Foundation
6
ByLayer
62
256
370
-1
100
AcDbLine
10
3430
20
975
11
3430
21
885
0
LINE
5
1DF
100
AcDbEntity
8
Foundation
6
ByLayer
62
256
370
-1
100
AcDbLine
10
3475
20
885
11
3520
21
885
0
LINE
5
1E0
100
AcDbEntity
8
Foundation
6
ByLayer
62
256
370
-1
100
AcDbLine
10
3520
20
885
11
3520
21
975
0
LINE
5
1E1
100
AcDbEntity
8
Foundation
6
ByLayer
62
256
370
-1
100
AcDbLine
10
3520
20
975
11
3475
21
975
0
LINE
5
1E2
100
AcDbEntity
8
Foundation
6
ByLayer
62
256
370
-1
100
AcDbLine
10
3475
20
975
11
3475
21
885
0
LINE
5
1E3
100
AcDbEntity
8
Foundation
6
ByLayer
62
256
370
-1
100
AcDbLine
10
3430
20
975
11
3475
21
885
0
LINE
5
1E4
100
AcDbEntity
8
Foundation
6
ByLayer
62
256
370
-1
100
AcDbLine
10
3475
20
975
11
3430
21
885
0
LINE
5
1E5
100
AcDbEntity
8
Foundation
6
ByLayer
62
256
370
-1
100
AcDbLine
10
3475
20
975
11
3520
21
885
0
LINE
5
1E6
100
AcDbEntity
8
Foundation
6
ByLayer
62
256
370
-1
100
AcDbLine
10
3475
20
885
11
3520
21
975
0
LINE
5
1E7
100
AcDbEntity
8
Foundation
6
ByLayer
62
256
370
-1
100
AcDbLine
10
1242
20
883
11
1242
21
830
0
LINE
5
1E8
100
AcDbEntity
8
Foundation
6
ByLayer
62
256
370
-1
100
AcDbLine
10
1248
20
883
11
1248
21
830
0
LINE
5
1E9
100
AcDbEntity
8
Foundation
6
ByLayer
62
256
370
-1
100
AcDbLine
10
1200
20
1064
11
1200
21
975
0
LINE
5
1EA
100
AcDbEntity
8
Foundation
6
ByLayer
62
256
370
-1
100
AcDbLine
10
2357
20
883
11
2357
21
830
0
LINE
5
1EB
100
AcDbEntity
8
Foundation
6
ByLayer
62
256
370
-1
100
AcDbLine
10
2360
20
883
11
2360
21
830
0
LINE
5
1EC
100
AcDbEntity
8
Foundation
6
ByLayer
62
256
370
-1
100
AcDbLine
10
2363
20
883
11
2363
21
830
0
LINE
5
1ED
100
AcDbEntity
8
Foundation
6
ByLayer
62
256
370
-1
100
AcDbLine
10
3472
20
883
11
3472
21
830
0
LINE
5
1EE
100
AcDbEntity
8
Foundation
6
ByLayer
62
256
370
-1
100
AcDbLine
10
3475
20
883
11
3475
21
830
0
LINE
5
1EF
100
AcDbEntity
8
Foundation
6
ByLayer
62
256
370
-1
100
AcDbLine
10
3478
20
883
11
3478
21
830
0
LINE
5
1F0
100
AcDbEntity
8
Foundation
6
ByLayer
62
256
370
-1
100
AcDbLine
10
3520
20
1045
11
3520
21
975
0
CIRCLE
5
1F1
100
AcDbEntity
8
section_4_4_d
6
ByLayer
62
256
370
-1
100
AcDbCircle
10
4442.28932085
20
1064
40
72.2893208499
0
MTEXT
5
1F2
100
AcDbEntity
8
section_4_4_d
6
ByLayer
62
256
370
-1
100
AcDbMText
10
4400
20
1095
30
0
40
64
41
71.1111111111
71
1
72
1
1
H1
7
standard
210
0
220
0
230
1
50
0
73
2
44
1
0
LINE
5
1F3
100
AcDbEntity
8
section_4_4_d
6
CENTER2
62
256
370
-1
100
AcDbLine
10
3920
20
1064
11
4370
21
1064
0
CIRCLE
5
1F4
100
AcDbEntity
8
section_4_4_d
6
ByLayer
62
256
370
-1
100
AcDbCircle
10
161.71067915
20
1064
40
72.2893208499
0
LINE
5
1F5
100
AcDbEntity
8
section_4_4_d
6
CENTER2
62
256
370
-1
100
AcDbLine
10
684
20
1064
11
234
21
1064
0
MTEXT
5
1F6
100
AcDbEntity
8
section_4_4_d
6
ByLayer
62
256
370
-1
100
AcDbMText
10
204
20
1095
30
0
40
64
41
71.1111111111
71
3
72
1
1
H1
7
standard
210
0
220
0
230
1
50
360
73
2
44
1
0
LINE
5
1F7
100
AcDbEntity
8
section_4_4_d
6
ByLayer
62
256
370
-1
100
AcDbLine
10
4718.6998044
20
1155
11
4238.6998044
21
1155
0
LINE
5
1F8
100
AcDbEntity
8
section_4_4_d
6
ByLayer
62
256
370
-1
100
AcDbLine
10
4238.6998044
20
1155
11
4278.6998044
21
1065
0
LINE
5
1F9
100
AcDbEntity
8
section_4_4_d
6
ByLayer
62
256
370
-1
100
AcDbLine
10
4278.6998044
20
1065
11
4318.6998044
21
1155
0
DIMENSION
5
1FA
100
AcDbEntity
8
section_4_4_d
6
ByLayer
62
256
370
-1
100
AcDbDimension
2
*D20
10
4100
20
1064
30
0
11
4056
21
2264
31
0
70
32
71
5
3
Standard
53
0
210
0
220
0
230
1
100
AcDbAlignedDimension
13
3920
23
3464
33
0
14
3920
24
1064
34
0
50
90
100
AcDbRotatedDimension
0
DIMENSION
5
1FB
100
AcDbEntity
8
section_4_4_d
6
ByLayer
62
256
370
-1
100
AcDbDimension
2
*D21
10
300
20
1064
30
0
11
256
21
2264
31
0
70
32
71
5
3
Standard
53
0
210
0
220
0
230
1
100
AcDbAlignedDimension
13
684
23
3464
33
0
14
684
24
1064
34
0
50
90
100
AcDbRotatedDimension
0
LINE
5
1FC
100
AcDbEntity
8
section_4_4_d
6
CENTER2
62
256
370
-1
100
AcDbLine
10
3920
20
829
11
4370
21
829
0
LINE
5
1FD
100
AcDbEntity
8
section_4_4_d
6
ByLayer
62
256
370
-1
100
AcDbLine
10
4718.6998044
20
919
11
4238.6998044
21
919
0
LINE
5
1FE
100
AcDbEntity
8
section_4_4_d
6
ByLayer
62
256
370
-1
100
AcDbLine
10
4238.6998044
20
919
11
4278.6998044
21
829
0
LINE
5
1FF
100
AcDbEntity
8
section_4_4_d
6
ByLayer
62
256
370
-1
100
AcDbLine
10
4278.6998044
20
829
11
4318.6998044
21
919
0
MTEXT
5
200
100
AcDbEntity
8
section_4_4_d
6
ByLayer
62
256
370
-1
100
AcDbMText
10
4510
20
999
30
0
40
64
41
99.5555555556
71
1
72
1
1
0.0
7
standard
210
0
220
0
230
1
50
0
73
2
44
1
0
DIMENSION
5
201
100
AcDbEntity
8
section_4_4_d
6
ByLayer
62
256
370
-1
100
AcDbDimension
2
*D22
10
4100
20
829
30
0
11
4056
21
946.5
31
0
70
32
71
5
3
Standard
53
0
210
0
220
0
230
1
100
AcDbAlignedDimension
13
3920
23
1064
33
0
14
3920
24
829
34
0
50
90
100
AcDbRotatedDimension
0
MTEXT
5
202
100
AcDbEntity
8
section_4_4_d
6
ByLayer
62
256
370
-1
100
AcDbMText
10
4510
20
1235
30
0
40
64
41
128
71
1
72
1
1
235
7
standard
210
0
220
0
230
1
50
0
73
2
44
1
0
ENDSEC
0
SECTION
2
OBJECTS
0
DICTIONARY
5
C
330
0
100
AcDbDictionary
281
1
3
ACAD_GROUP
350
D
0
DICTIONARY
5
D
330
C
100
AcDbDictionary
281
1
0
ENDSEC
0
EOF
