999
dxfrw 0.5.11
0
SECTION
2
HEADER
9
$ACADVER
1
AC1021
9
$HANDSEED
5
20000
9
$DWGCODEPAGE
3
ANSI_1252
9
$INSBASE
10
0
20
0
30
0
9
$EXTMIN
10
10000000000
20
10000000000
30
0
9
$EXTMAX
10
-10000000000
20
-10000000000
30
0
9
$LIMMIN
10
0
20
0
9
$LIMMAX
10
420
20
297
9
$ORTHOMODE
70
0
9
$LTSCALE
40
1
9
$TEXTSTYLE
7
STANDARD
9
$CLAYER
8
0
9
$DIMASZ
40
50
9
$DIMLFAC
40
1
9
$DIMSCALE
40
1
9
$DIMEXO
40
50
9
$DIMEXE
40
1.25
9
$DIMTXT
40
64
9
$DIMTSZ
40
0
9
$DIMAUNIT
70
0
9
$DIMADEC
70
2
9
$DIMLUNIT
70
2
9
$DIMSTYLE
2
STANDARD
9
$DIMGAP
40
20
9
$DIMTIH
70
0
9
$LUNITS
70
2
9
$LUPREC
70
4
9
$AUNITS
70
0
9
$AUPREC
70
2
9
$SPLINESEGS
70
8
9
$GRIDMODE
70
1
9
$SNAPSTYLE
70
0
9
$GRIDUNIT
10
0
20
0
9
$PINSBASE
10
0
20
0
30
0
9
$PLIMMIN
10
0
20
0
9
$PLIMMAX
10
297
20
210
9
$INSUNITS
70
4
9
$PSVPSCALE
40
1
0
ENDSEC
0
SECTION
2
CLASSES
0
ENDSEC
0
SECTION
2
TABLES
0
TABLE
2
VPORT
5
8
330
0
100
AcDbSymbolTable
70
1
0
VPORT
5
31
330
2
100
AcDbSymbolTableRecord
100
AcDbViewportTableRecord
2
*ACTIVE
70
0
10
0
20
0
11
1
21
1
12
4412.76295313
22
2828.47342459
13
0
23
0
14
10
24
10
15
10
25
10
16
0
26
0
36
1
17
0
27
0
37
0
40
5002.56639175
41
2.67641996558
42
50
43
0
44
0
50
0
51
0
71
0
72
100
73
1
74
3
75
0
76
1
77
0
78
0
281
0
65
1
110
0
120
0
130
0
111
1
121
0
131
0
112
0
122
1
132
0
79
0
146
0
348
10020
60
7
61
5
292
1
282
1
141
0
142
0
63
250
421
3358443
0
ENDTAB
0
TABLE
2
LTYPE
5
5
330
0
100
AcDbSymbolTable
70
4
0
LTYPE
5
14
330
5
100
AcDbSymbolTableRecord
100
AcDbLinetypeTableRecord
2
ByBlock
70
0
3

72
65
73
0
40
0
0
LTYPE
5
15
330
5
100
AcDbSymbolTableRecord
100
AcDbLinetypeTableRecord
2
ByLayer
70
0
3

72
65
73
0
40
0
0
LTYPE
5
16
330
5
100
AcDbSymbolTableRecord
100
AcDbLinetypeTableRecord
2
Continuous
70
0
3
Solid line
72
65
73
0
40
0
0
LTYPE
5
32
330
5
100
AcDbSymbolTableRecord
100
AcDbLinetypeTableRecord
2
DOT
70
0
3
Dot . . . . . . . . . . . . . . . . . . . . . .
72
65
73
2
40
6.35
49
0
74
0
49
-6.35
74
0
0
LTYPE
5
33
330
5
100
AcDbSymbolTableRecord
100
AcDbLinetypeTableRecord
2
DOT2
70
0
3
Dot (.5x) .....................................
72
65
73
2
40
3.175
49
0
74
0
49
-3.175
74
0
0
LTYPE
5
34
330
5
100
AcDbSymbolTableRecord
100
AcDbLinetypeTableRecord
2
DOTX2
70
0
3
Dot (2x) .  .  .  .  .  .  .  .  .  .  .  .  .
72
65
73
2
40
12.7
49
0
74
0
49
-12.7
74
0
0
LTYPE
5
35
330
5
100
AcDbSymbolTableRecord
100
AcDbLinetypeTableRecord
2
DASHED
70
0
3
Dot . . . . . . . . . . . . . . . . . . . . . .
72
65
73
2
40
19.05
49
12.7
74
0
49
-6.35
74
0
0
LTYPE
5
36
330
5
100
AcDbSymbolTableRecord
100
AcDbLinetypeTableRecord
2
DASHED2
70
0
3
Dashed (.5x) _ _ _ _ _ _ _ _ _ _ _ _ _ _ _ _ _
72
65
73
2
40
9.525
49
6.35
74
0
49
-3.175
74
0
0
LTYPE
5
37
330
5
100
AcDbSymbolTableRecord
100
AcDbLinetypeTableRecord
2
DASHEDX2
70
0
3
Dashed (2x) ____  ____  ____  ____  ____  ___
72
65
73
2
40
38.1
49
25.4
74
0
49
-12.7
74
0
0
LTYPE
5
38
330
5
100
AcDbSymbolTableRecord
100
AcDbLinetypeTableRecord
2
DASHDOT
70
0
3
Dash dot __ . __ . __ . __ . __ . __ . __ . __
72
65
73
4
40
25.4
49
12.7
74
0
49
-6.35
74
0
49
0
74
0
49
-6.35
74
0
0
LTYPE
5
39
330
5
100
AcDbSymbolTableRecord
100
AcDbLinetypeTableRecord
2
DASHDOT2
70
0
3
Dash dot (.5x) _._._._._._._._._._._._._._._.
72
65
73
4
40
12.7
49
6.35
74
0
49
-3.175
74
0
49
0
74
0
49
-3.175
74
0
0
LTYPE
5
3A
330
5
100
AcDbSymbolTableRecord
100
AcDbLinetypeTableRecord
2
DASHDOTX2
70
0
3
Dash dot (2x) ____  .  ____  .  ____  .  ___
72
65
73
4
40
50.8
49
25.4
74
0
49
-12.7
74
0
49
0
74
0
49
-12.7
74
0
0
LTYPE
5
3B
330
5
100
AcDbSymbolTableRecord
100
AcDbLinetypeTableRecord
2
DIVIDE
70
0
3
Divide ____ . . ____ . . ____ . . ____ . . ____
72
65
73
6
40
31.75
49
12.7
74
0
49
-6.35
74
0
49
0
74
0
49
-6.35
74
0
49
0
74
0
49
-6.35
74
0
0
LTYPE
5
3C
330
5
100
AcDbSymbolTableRecord
100
AcDbLinetypeTableRecord
2
DIVIDE2
70
0
3
Divide (.5x) __..__..__..__..__..__..__..__.._
72
65
73
6
40
15.875
49
6.35
74
0
49
-3.175
74
0
49
0
74
0
49
-3.175
74
0
49
0
74
0
49
-3.175
74
0
0
LTYPE
5
3D
330
5
100
AcDbSymbolTableRecord
100
AcDbLinetypeTableRecord
2
DIVIDEX2
70
0
3
Divide (2x) ________  .  .  ________  .  .  _
72
65
73
6
40
63.5
49
25.4
74
0
49
-12.7
74
0
49
0
74
0
49
-12.7
74
0
49
0
74
0
49
-12.7
74
0
0
LTYPE
5
3E
330
5
100
AcDbSymbolTableRecord
100
AcDbLinetypeTableRecord
2
BORDER
70
0
3
Border __ __ . __ __ . __ __ . __ __ . __ __ .
72
65
73
6
40
44.45
49
12.7
74
0
49
-6.35
74
0
49
12.7
74
0
49
-6.35
74
0
49
0
74
0
49
-6.35
74
0
0
LTYPE
5
3F
330
5
100
AcDbSymbolTableRecord
100
AcDbLinetypeTableRecord
2
BORDER2
70
0
3
Border (.5x) __.__.__.__.__.__.__.__.__.__.__.
72
65
73
6
40
22.225
49
6.35
74
0
49
-3.175
74
0
49
6.35
74
0
49
-3.175
74
0
49
0
74
0
49
-3.175
74
0
0
LTYPE
5
40
330
5
100
AcDbSymbolTableRecord
100
AcDbLinetypeTableRecord
2
BORDERX2
70
0
3
Border (2x) ____  ____  .  ____  ____  .  ___
72
65
73
6
40
88.9
49
25.4
74
0
49
-12.7
74
0
49
25.4
74
0
49
-12.7
74
0
49
0
74
0
49
-12.7
74
0
0
LTYPE
5
41
330
5
100
AcDbSymbolTableRecord
100
AcDbLinetypeTableRecord
2
CENTER
70
0
3
Center ____ _ ____ _ ____ _ ____ _ ____ _ ____
72
65
73
4
40
50.8
49
31.75
74
0
49
-6.35
74
0
49
6.35
74
0
49
-6.35
74
0
0
LTYPE
5
42
330
5
100
AcDbSymbolTableRecord
100
AcDbLinetypeTableRecord
2
CENTER2
70
0
3
Center (.5x) ___ _ ___ _ ___ _ ___ _ ___ _ ___
72
65
73
4
40
28.575
49
19.05
74
0
49
-3.175
74
0
49
3.175
74
0
49
-3.175
74
0
0
LTYPE
5
43
330
5
100
AcDbSymbolTableRecord
100
AcDbLinetypeTableRecord
2
CENTERX2
70
0
3
Center (2x) ________  __  ________  __  _____
72
65
73
4
40
101.6
49
63.5
74
0
49
-12.7
74
0
49
12.7
74
0
49
-12.7
74
0
0
ENDTAB
0
TABLE
2
LAYER
5
2
330
0
100
AcDbSymbolTable
70
1
0
LAYER
5
10
330
2
100
AcDbSymbolTableRecord
100
AcDbLayerTableRecord
2
0
70
0
62
7
6
CONTINUOUS
370
0
390
F
0
LAYER
5
44
330
2
100
AcDbSymbolTableRecord
100
AcDbLayerTableRecord
2
Foundation
70
1
62
7
6
CONTINUOUS
370
35
390
F
0
LAYER
5
45
330
2
100
AcDbSymbolTableRecord
100
AcDbLayerTableRecord
2
section_E_E
70
0
62
7
6
CONTINUOUS
370
35
390
F
0
LAYER
5
46
330
2
100
AcDbSymbolTableRecord
100
AcDbLayerTableRecord
2
section_E_E_d
70
0
62
4
6
CONTINUOUS
370
13
390
F
0
ENDTAB
0
TABLE
2
STYLE
5
3
330
0
100
AcDbSymbolTable
70
3
0
STYLE
5
47
330
2
100
AcDbSymbolTableRecord
100
AcDbTextStyleTableRecord
2
normal#0.500000#0.900000
70
0
40
0
41
1
50
0
71
0
42
1
3
normal#0.500000#0.900000
4

0
STYLE
5
48
330
2
100
AcDbSymbolTableRecord
100
AcDbTextStyleTableRecord
2
standard
70
0
40
0
41
1
50
0
71
0
42
1
3
standard
4

0
STYLE
5
49
330
2
100
AcDbSymbolTableRecord
100
AcDbTextStyleTableRecord
2
iso
70
0
40
0
41
1
50
0
71
0
42
1
3
iso
4

0
ENDTAB
0
TABLE
2
VIEW
5
6
330
0
100
AcDbSymbolTable
70
0
0
ENDTAB
0
TABLE
2
UCS
5
7
330
0
100
AcDbSymbolTable
70
0
0
ENDTAB
0
TABLE
2
APPID
5
9
330
0
100
AcDbSymbolTable
70
1
0
APPID
5
12
330
9
100
AcDbSymbolTableRecord
100
AcDbRegAppTableRecord
2
ACAD
70
0
0
ENDTAB
0
TABLE
2
DIMSTYLE
5
A
330
0
100
AcDbSymbolTable
70
1
100
AcDbDimStyleTable
71
1
0
DIMSTYLE
105
4A
330
A
100
AcDbSymbolTableRecord
100
AcDbDimStyleTableRecord
2
Standard
70
0
40
1
41
50
42
50
43
0.38
44
1.25
45
0
46
0
47
0
48
0
140
64
141
0.09
142
0
143
25.4
144
1
145
0
146
1
147
20
148
0
71
0
72
0
73
0
74
1
75
0
76
0
77
0
78
0
79
0
170
0
171
2
172
0
173
0
174
0
175
0
176
0
177
0
178
0
179
0
271
4
272
4
273
2
274
2
275
0
276
0
277
2
278
46
279
0
280
0
281
0
282
0
283
1
284
0
285
0
286
0
288
0
289
3
340
Standard
341

371
-2
372
-2
0
ENDTAB
0
TABLE
2
BLOCK_RECORD
5
1
330
0
100
AcDbSymbolTable
70
2
0
BLOCK_RECORD
5
1F
330
1
100
AcDbSymbolTableRecord
100
AcDbBlockTableRecord
2
*Model_Space
70
0
280
1
281
0
0
BLOCK_RECORD
5
1E
330
1
100
AcDbSymbolTableRecord
100
AcDbBlockTableRecord
2
*Paper_Space
70
0
280
1
281
0
0
BLOCK_RECORD
5
4B
330
1
100
AcDbSymbolTableRecord
100
AcDbBlockTableRecord
2
*D12
70
0
280
1
281
0
0
BLOCK_RECORD
5
4E
330
1
100
AcDbSymbolTableRecord
100
AcDbBlockTableRecord
2
*D7
70
0
280
1
281
0
0
BLOCK_RECORD
5
51
330
1
100
AcDbSymbolTableRecord
100
AcDbBlockTableRecord
2
*D44
70
0
280
1
281
0
0
BLOCK_RECORD
5
54
330
1
100
AcDbSymbolTableRecord
100
AcDbBlockTableRecord
2
*D20
70
0
280
1
281
0
0
BLOCK_RECORD
5
57
330
1
100
AcDbSymbolTableRecord
100
AcDbBlockTableRecord
2
*D15
70
0
280
1
281
0
0
BLOCK_RECORD
5
5A
330
1
100
AcDbSymbolTableRecord
100
AcDbBlockTableRecord
2
*D47
70
0
280
1
281
0
0
BLOCK_RECORD
5
5D
330
1
100
AcDbSymbolTableRecord
100
AcDbBlockTableRecord
2
*D29
70
0
280
1
281
0
0
BLOCK_RECORD
5
60
330
1
100
AcDbSymbolTableRecord
100
AcDbBlockTableRecord
2
*D16
70
0
280
1
281
0
0
BLOCK_RECORD
5
63
330
1
100
AcDbSymbolTableRecord
100
AcDbBlockTableRecord
2
*D34
70
0
280
1
281
0
0
BLOCK_RECORD
5
66
330
1
100
AcDbSymbolTableRecord
100
AcDbBlockTableRecord
2
*D25
70
0
280
1
281
0
0
BLOCK_RECORD
5
69
330
1
100
AcDbSymbolTableRecord
100
AcDbBlockTableRecord
2
*D42
70
0
280
1
281
0
0
BLOCK_RECORD
5
6C
330
1
100
AcDbSymbolTableRecord
100
AcDbBlockTableRecord
2
*D49
70
0
280
1
281
0
0
BLOCK_RECORD
5
6F
330
1
100
AcDbSymbolTableRecord
100
AcDbBlockTableRecord
2
*D41
70
0
280
1
281
0
0
BLOCK_RECORD
5
72
330
1
100
AcDbSymbolTableRecord
100
AcDbBlockTableRecord
2
*D21
70
0
280
1
281
0
0
BLOCK_RECORD
5
75
330
1
100
AcDbSymbolTableRecord
100
AcDbBlockTableRecord
2
*D23
70
0
280
1
281
0
0
BLOCK_RECORD
5
78
330
1
100
AcDbSymbolTableRecord
100
AcDbBlockTableRecord
2
*D5
70
0
280
1
281
0
0
BLOCK_RECORD
5
7B
330
1
100
AcDbSymbolTableRecord
100
AcDbBlockTableRecord
2
*D45
70
0
280
1
281
0
0
BLOCK_RECORD
5
7E
330
1
100
AcDbSymbolTableRecord
100
AcDbBlockTableRecord
2
*D17
70
0
280
1
281
0
0
BLOCK_RECORD
5
81
330
1
100
AcDbSymbolTableRecord
100
AcDbBlockTableRecord
2
*D19
70
0
280
1
281
0
0
BLOCK_RECORD
5
84
330
1
100
AcDbSymbolTableRecord
100
AcDbBlockTableRecord
2
*D13
70
0
280
1
281
0
0
BLOCK_RECORD
5
87
330
1
100
AcDbSymbolTableRecord
100
AcDbBlockTableRecord
2
*D33
70
0
280
1
281
0
0
BLOCK_RECORD
5
8A
330
1
100
AcDbSymbolTableRecord
100
AcDbBlockTableRecord
2
*D4
70
0
280
1
281
0
0
BLOCK_RECORD
5
8D
330
1
100
AcDbSymbolTableRecord
100
AcDbBlockTableRecord
2
*D38
70
0
280
1
281
0
0
BLOCK_RECORD
5
90
330
1
100
AcDbSymbolTableRecord
100
AcDbBlockTableRecord
2
*D26
70
0
280
1
281
0
0
BLOCK_RECORD
5
93
330
1
100
AcDbSymbolTableRecord
100
AcDbBlockTableRecord
2
*D22
70
0
280
1
281
0
0
BLOCK_RECORD
5
96
330
1
100
AcDbSymbolTableRecord
100
AcDbBlockTableRecord
2
*D8
70
0
280
1
281
0
0
BLOCK_RECORD
5
99
330
1
100
AcDbSymbolTableRecord
100
AcDbBlockTableRecord
2
*D1
70
0
280
1
281
0
0
BLOCK_RECORD
5
9C
330
1
100
AcDbSymbolTableRecord
100
AcDbBlockTableRecord
2
*D14
70
0
280
1
281
0
0
BLOCK_RECORD
5
9F
330
1
100
AcDbSymbolTableRecord
100
AcDbBlockTableRecord
2
*D6
70
0
280
1
281
0
0
BLOCK_RECORD
5
A2
330
1
100
AcDbSymbolTableRecord
100
AcDbBlockTableRecord
2
*D43
70
0
280
1
281
0
0
BLOCK_RECORD
5
A5
330
1
100
AcDbSymbolTableRecord
100
AcDbBlockTableRecord
2
*D18
70
0
280
1
281
0
0
BLOCK_RECORD
5
A8
330
1
100
AcDbSymbolTableRecord
100
AcDbBlockTableRecord
2
*D9
70
0
280
1
281
0
0
BLOCK_RECORD
5
AB
330
1
100
AcDbSymbolTableRecord
100
AcDbBlockTableRecord
2
*D3
70
0
280
1
281
0
0
BLOCK_RECORD
5
AE
330
1
100
AcDbSymbolTableRecord
100
AcDbBlockTableRecord
2
*D37
70
0
280
1
281
0
0
BLOCK_RECORD
5
B1
330
1
100
AcDbSymbolTableRecord
100
AcDbBlockTableRecord
2
*D32
70
0
280
1
281
0
0
BLOCK_RECORD
5
B4
330
1
100
AcDbSymbolTableRecord
100
AcDbBlockTableRecord
2
*D46
70
0
280
1
281
0
0
BLOCK_RECORD
5
B7
330
1
100
AcDbSymbolTableRecord
100
AcDbBlockTableRecord
2
*D30
70
0
280
1
281
0
0
BLOCK_RECORD
5
BA
330
1
100
AcDbSymbolTableRecord
100
AcDbBlockTableRecord
2
*D24
70
0
280
1
281
0
0
BLOCK_RECORD
5
BD
330
1
100
AcDbSymbolTableRecord
100
AcDbBlockTableRecord
2
*D27
70
0
280
1
281
0
0
BLOCK_RECORD
5
C0
330
1
100
AcDbSymbolTableRecord
100
AcDbBlockTableRecord
2
*D40
70
0
280
1
281
0
0
BLOCK_RECORD
5
C3
330
1
100
AcDbSymbolTableRecord
100
AcDbBlockTableRecord
2
*D35
70
0
280
1
281
0
0
BLOCK_RECORD
5
C6
330
1
100
AcDbSymbolTableRecord
100
AcDbBlockTableRecord
2
*D48
70
0
280
1
281
0
0
BLOCK_RECORD
5
C9
330
1
100
AcDbSymbolTableRecord
100
AcDbBlockTableRecord
2
*D36
70
0
280
1
281
0
0
BLOCK_RECORD
5
CC
330
1
100
AcDbSymbolTableRecord
100
AcDbBlockTableRecord
2
*D10
70
0
280
1
281
0
0
BLOCK_RECORD
5
CF
330
1
100
AcDbSymbolTableRecord
100
AcDbBlockTableRecord
2
*D39
70
0
280
1
281
0
0
BLOCK_RECORD
5
D2
330
1
100
AcDbSymbolTableRecord
100
AcDbBlockTableRecord
2
*D31
70
0
280
1
281
0
0
BLOCK_RECORD
5
D5
330
1
100
AcDbSymbolTableRecord
100
AcDbBlockTableRecord
2
*D11
70
0
280
1
281
0
0
BLOCK_RECORD
5
D8
330
1
100
AcDbSymbolTableRecord
100
AcDbBlockTableRecord
2
*D2
70
0
280
1
281
0
0
BLOCK_RECORD
5
DB
330
1
100
AcDbSymbolTableRecord
100
AcDbBlockTableRecord
2
*D28
70
0
280
1
281
0
0
BLOCK_RECORD
5
DE
330
1
100
AcDbSymbolTableRecord
100
AcDbBlockTableRecord
2
a3-0
70
0
280
1
281
0
0
BLOCK_RECORD
5
E1
330
1
100
AcDbSymbolTableRecord
100
AcDbBlockTableRecord
2
A3_Xu-0
70
0
280
1
281
0
0
ENDTAB
0
ENDSEC
0
SECTION
2
BLOCKS
0
BLOCK
5
20
330
1F
100
AcDbEntity
8
0
100
AcDbBlockBegin
2
*Model_Space
70
0
10
0
20
0
30
0
3
*Model_Space
1

0
ENDBLK
5
21
330
1F
100
AcDbEntity
8
0
100
AcDbBlockEnd
0
BLOCK
5
1C
330
1B
100
AcDbEntity
8
0
100
AcDbBlockBegin
2
*Paper_Space
70
0
10
0
20
0
30
0
3
*Paper_Space
1

0
ENDBLK
5
1D
330
1F
100
AcDbEntity
8
0
100
AcDbBlockEnd
0
BLOCK
5
4C
330
4B
100
AcDbEntity
8
0
100
AcDbBlockBegin
2
*D12
70
1
10
0
20
0
3
*D12
1

0
LINE
5
E4
100
AcDbEntity
8
section_E_E_d
6
CONTINUOUS
62
7
370
0
100
AcDbLine
10
7900
20
4674
11
7900
21
2399
0
SOLID
5
E5
100
AcDbEntity
8
section_E_E_d
6
CONTINUOUS
62
7
370
0
100
AcDbTrace
10
7900
20
4674
30
0
11
7908.32569316
21
4624
31
0
12
7891.67430684
22
4624
32
0
13
7891.67430684
23
4624
33
0
0
SOLID
5
E6
100
AcDbEntity
8
section_E_E_d
6
CONTINUOUS
62
7
370
0
100
AcDbTrace
10
7900
20
2399
30
0
11
7891.67430684
21
2449
31
0
12
7908.32569316
22
2449
32
0
13
7908.32569316
23
2449
33
0
0
MTEXT
5
E7
100
AcDbEntity
8
section_E_E_d
6
CONTINUOUS
62
7
370
0
100
AcDbMText
10
7848
20
3536.5
30
0
40
64
41
177.777777778
71
5
72
1
1
2275
7
standard
210
0
220
0
230
1
50
90
73
2
44
1
0
LINE
5
E8
100
AcDbEntity
8
section_E_E_d
6
CONTINUOUS
62
7
370
0
100
AcDbLine
10
7892.6236253
20
4674
11
7901.25
21
4674
0
LINE
5
E9
100
AcDbEntity
8
section_E_E_d
6
CONTINUOUS
62
7
370
0
100
AcDbLine
10
7892.6236253
20
2399
11
7901.25
21
2399
0
ENDBLK
5
4D
330
4B
100
AcDbEntity
8
0
100
AcDbBlockEnd
0
BLOCK
5
4F
330
4E
100
AcDbEntity
8
0
100
AcDbBlockBegin
2
*D7
70
1
10
0
20
0
3
*D7
1

0
LINE
5
EA
100
AcDbEntity
8
section_E_E_d
6
CONTINUOUS
62
7
370
0
100
AcDbLine
10
3020
20
4568.53055876
11
3200
21
4900
0
SOLID
5
EB
100
AcDbEntity
8
section_E_E_d
6
CONTINUOUS
62
7
370
0
100
AcDbTrace
10
3020
20
4568.53055876
30
0
11
3036.54416566
21
4616.44305973
31
0
12
3051.17719316
22
4608.49679192
32
0
13
3051.17719316
23
4608.49679192
33
0
0
ENDBLK
5
50
330
4E
100
AcDbEntity
8
0
100
AcDbBlockEnd
0
BLOCK
5
52
330
51
100
AcDbEntity
8
0
100
AcDbBlockBegin
2
*D44
70
1
10
0
20
0
3
*D44
1

0
LINE
5
EC
100
AcDbEntity
8
section_E_E_d
6
CONTINUOUS
62
7
370
0
100
AcDbLine
10
6040
20
5200
11
6685
21
5200
0
SOLID
5
ED
100
AcDbEntity
8
section_E_E_d
6
CONTINUOUS
62
7
370
0
100
AcDbTrace
10
6040
20
5200
30
0
11
6090
21
5208.32569316
31
0
12
6090
22
5191.67430684
32
0
13
6090
23
5191.67430684
33
0
0
SOLID
5
EE
100
AcDbEntity
8
section_E_E_d
6
CONTINUOUS
62
7
370
0
100
AcDbTrace
10
6685
20
5200
30
0
11
6635
21
5191.67430684
31
0
12
6635
22
5208.32569316
32
0
13
6635
23
5208.32569316
33
0
0
MTEXT
5
EF
100
AcDbEntity
8
section_E_E_d
6
CONTINUOUS
62
7
370
0
100
AcDbMText
10
6362.5
20
5252
30
0
40
64
41
135.111111111
71
5
72
1
1
645
7
standard
210
0
220
0
230
1
50
0
73
2
44
1
0
LINE
5
F0
100
AcDbEntity
8
section_E_E_d
6
CONTINUOUS
62
7
370
0
100
AcDbLine
10
6040
20
5210.35964705
11
6040
21
5201.25
0
LINE
5
F1
100
AcDbEntity
8
section_E_E_d
6
CONTINUOUS
62
7
370
0
100
AcDbLine
10
6685
20
5199.26209942
11
6685
21
5201.25
0
ENDBLK
5
53
330
51
100
AcDbEntity
8
0
100
AcDbBlockEnd
0
BLOCK
5
55
330
54
100
AcDbEntity
8
0
100
AcDbBlockBegin
2
*D20
70
1
10
0
20
0
3
*D20
1

0
LINE
5
F2
100
AcDbEntity
8
section_E_E_d
6
CONTINUOUS
62
7
370
0
100
AcDbLine
10
1135
20
3200
11
1715
21
3200
0
SOLID
5
F3
100
AcDbEntity
8
section_E_E_d
6
CONTINUOUS
62
7
370
0
100
AcDbTrace
10
1135
20
3200
30
0
11
1185
21
3208.32569316
31
0
12
1185
22
3191.67430684
32
0
13
1185
23
3191.67430684
33
0
0
SOLID
5
F4
100
AcDbEntity
8
section_E_E_d
6
CONTINUOUS
62
7
370
0
100
AcDbTrace
10
1715
20
3200
30
0
11
1665
21
3191.67430684
31
0
12
1665
22
3208.32569316
32
0
13
1665
23
3208.32569316
33
0
0
MTEXT
5
F5
100
AcDbEntity
8
section_E_E_d
6
CONTINUOUS
62
7
370
0
100
AcDbMText
10
1425
20
3252
30
0
40
64
41
128
71
5
72
1
1
580
7
standard
210
0
220
0
230
1
50
0
73
2
44
1
0
LINE
5
F6
100
AcDbEntity
8
section_E_E_d
6
CONTINUOUS
62
7
370
0
100
AcDbLine
10
1135
20
3190.48390739
11
1135
21
3198.75
0
LINE
5
F7
100
AcDbEntity
8
section_E_E_d
6
CONTINUOUS
62
7
370
0
100
AcDbLine
10
1715
20
3186.04488834
11
1715
21
3198.75
0
ENDBLK
5
56
330
54
100
AcDbEntity
8
0
100
AcDbBlockEnd
0
BLOCK
5
58
330
57
100
AcDbEntity
8
0
100
AcDbBlockBegin
2
*D15
70
1
10
0
20
0
3
*D15
1

0
LINE
5
F8
100
AcDbEntity
8
section_E_E_d
6
CONTINUOUS
62
7
370
0
100
AcDbLine
10
755
20
5000
11
2975
21
5000
0
SOLID
5
F9
100
AcDbEntity
8
section_E_E_d
6
CONTINUOUS
62
7
370
0
100
AcDbTrace
10
755
20
5000
30
0
11
805
21
5008.32569316
31
0
12
805
22
4991.67430684
32
0
13
805
23
4991.67430684
33
0
0
SOLID
5
FA
100
AcDbEntity
8
section_E_E_d
6
CONTINUOUS
62
7
370
0
100
AcDbTrace
10
2975
20
5000
30
0
11
2925
21
4991.67430684
31
0
12
2925
22
5008.32569316
32
0
13
2925
23
5008.32569316
33
0
0
MTEXT
5
FB
100
AcDbEntity
8
section_E_E_d
6
CONTINUOUS
62
7
370
0
100
AcDbMText
10
1865
20
5052
30
0
40
64
41
177.777777778
71
5
72
1
1
2220
7
standard
210
0
220
0
230
1
50
0
73
2
44
1
0
LINE
5
FC
100
AcDbEntity
8
section_E_E_d
6
CONTINUOUS
62
7
370
0
100
AcDbLine
10
755
20
4999.3769503
11
755
21
5001.25
0
LINE
5
FD
100
AcDbEntity
8
section_E_E_d
6
CONTINUOUS
62
7
370
0
100
AcDbLine
10
2975
20
4999.3769503
11
2975
21
5001.25
0
ENDBLK
5
59
330
57
100
AcDbEntity
8
0
100
AcDbBlockEnd
0
BLOCK
5
5B
330
5A
100
AcDbEntity
8
0
100
AcDbBlockBegin
2
*D47
70
1
10
0
20
0
3
*D47
1

0
LINE
5
FE
100
AcDbEntity
8
section_E_E_d
6
CONTINUOUS
62
7
370
0
100
AcDbLine
10
3645
20
5200
11
4200
21
5200
0
SOLID
5
FF
100
AcDbEntity
8
section_E_E_d
6
CONTINUOUS
62
7
370
0
100
AcDbTrace
10
3645
20
5200
30
0
11
3695
21
5208.32569316
31
0
12
3695
22
5191.67430684
32
0
13
3695
23
5191.67430684
33
0
0
SOLID
5
100
100
AcDbEntity
8
section_E_E_d
6
CONTINUOUS
62
7
370
0
100
AcDbTrace
10
4200
20
5200
30
0
11
4150
21
5191.67430684
31
0
12
4150
22
5208.32569316
32
0
13
4150
23
5208.32569316
33
0
0
MTEXT
5
101
100
AcDbEntity
8
section_E_E_d
6
CONTINUOUS
62
7
370
0
100
AcDbMText
10
3922.5
20
5252
30
0
40
64
41
128
71
5
72
1
1
555
7
standard
210
0
220
0
230
1
50
0
73
2
44
1
0
LINE
5
102
100
AcDbEntity
8
section_E_E_d
6
CONTINUOUS
62
7
370
0
100
AcDbLine
10
3645
20
5210.35964705
11
3645
21
5201.25
0
LINE
5
103
100
AcDbEntity
8
section_E_E_d
6
CONTINUOUS
62
7
370
0
100
AcDbLine
10
4200
20
5215.90842086
11
4200
21
5201.25
0
ENDBLK
5
5C
330
5A
100
AcDbEntity
8
0
100
AcDbBlockEnd
0
BLOCK
5
5E
330
5D
100
AcDbEntity
8
0
100
AcDbBlockBegin
2
*D29
70
1
10
0
20
0
3
*D29
1

0
LINE
5
104
100
AcDbEntity
8
section_E_E_d
6
CONTINUOUS
62
7
370
0
100
AcDbLine
10
3065
20
3200
11
3645
21
3200
0
SOLID
5
105
100
AcDbEntity
8
section_E_E_d
6
CONTINUOUS
62
7
370
0
100
AcDbTrace
10
3065
20
3200
30
0
11
3115
21
3208.32569316
31
0
12
3115
22
3191.67430684
32
0
13
3115
23
3191.67430684
33
0
0
SOLID
5
106
100
AcDbEntity
8
section_E_E_d
6
CONTINUOUS
62
7
370
0
100
AcDbTrace
10
3645
20
3200
30
0
11
3595
21
3191.67430684
31
0
12
3595
22
3208.32569316
32
0
13
3595
23
3208.32569316
33
0
0
MTEXT
5
107
100
AcDbEntity
8
section_E_E_d
6
CONTINUOUS
62
7
370
0
100
AcDbMText
10
3355
20
3252
30
0
40
64
41
128
71
5
72
1
1
580
7
standard
210
0
220
0
230
1
50
0
73
2
44
1
0
LINE
5
108
100
AcDbEntity
8
section_E_E_d
6
CONTINUOUS
62
7
370
0
100
AcDbLine
10
3065
20
3219.45960257
11
3065
21
3201.25
0
LINE
5
109
100
AcDbEntity
8
section_E_E_d
6
CONTINUOUS
62
7
370
0
100
AcDbLine
10
3645
20
3219.45960257
11
3645
21
3201.25
0
ENDBLK
5
5F
330
5D
100
AcDbEntity
8
0
100
AcDbBlockEnd
0
BLOCK
5
61
330
60
100
AcDbEntity
8
0
100
AcDbBlockBegin
2
*D16
70
1
10
0
20
0
3
*D16
1

0
LINE
5
10A
100
AcDbEntity
8
section_E_E_d
6
CONTINUOUS
62
7
370
0
100
AcDbLine
10
755
20
5400
11
3020
21
5400
0
SOLID
5
10B
100
AcDbEntity
8
section_E_E_d
6
CONTINUOUS
62
7
370
0
100
AcDbTrace
10
755
20
5400
30
0
11
805
21
5408.32569316
31
0
12
805
22
5391.67430684
32
0
13
805
23
5391.67430684
33
0
0
SOLID
5
10C
100
AcDbEntity
8
section_E_E_d
6
CONTINUOUS
62
7
370
0
100
AcDbTrace
10
3020
20
5400
30
0
11
2970
21
5391.67430684
31
0
12
2970
22
5408.32569316
32
0
13
2970
23
5408.32569316
33
0
0
MTEXT
5
10D
100
AcDbEntity
8
section_E_E_d
6
CONTINUOUS
62
7
370
0
100
AcDbMText
10
1887.5
20
5452
30
0
40
64
41
177.777777778
71
5
72
1
1
2265
7
standard
210
0
220
0
230
1
50
0
73
2
44
1
0
LINE
5
10E
100
AcDbEntity
8
section_E_E_d
6
CONTINUOUS
62
7
370
0
100
AcDbLine
10
755
20
5391.56212861
11
755
21
5401.25
0
LINE
5
10F
100
AcDbEntity
8
section_E_E_d
6
CONTINUOUS
62
7
370
0
100
AcDbLine
10
3020
20
5391.56212861
11
3020
21
5401.25
0
ENDBLK
5
62
330
60
100
AcDbEntity
8
0
100
AcDbBlockEnd
0
BLOCK
5
64
330
63
100
AcDbEntity
8
0
100
AcDbBlockBegin
2
*D34
70
1
10
0
20
0
3
*D34
1

0
LINE
5
110
100
AcDbEntity
8
section_E_E_d
6
CONTINUOUS
62
7
370
0
100
AcDbLine
10
6075
20
3200
11
6685
21
3200
0
SOLID
5
111
100
AcDbEntity
8
section_E_E_d
6
CONTINUOUS
62
7
370
0
100
AcDbTrace
10
6075
20
3200
30
0
11
6125
21
3208.32569316
31
0
12
6125
22
3191.67430684
32
0
13
6125
23
3191.67430684
33
0
0
SOLID
5
112
100
AcDbEntity
8
section_E_E_d
6
CONTINUOUS
62
7
370
0
100
AcDbTrace
10
6685
20
3200
30
0
11
6635
21
3191.67430684
31
0
12
6635
22
3208.32569316
32
0
13
6635
23
3208.32569316
33
0
0
MTEXT
5
113
100
AcDbEntity
8
section_E_E_d
6
CONTINUOUS
62
7
370
0
100
AcDbMText
10
6380
20
3252
30
0
40
64
41
113.777777778
71
5
72
1
1
610
7
standard
210
0
220
0
230
1
50
0
73
2
44
1
0
LINE
5
114
100
AcDbEntity
8
section_E_E_d
6
CONTINUOUS
62
7
370
0
100
AcDbLine
10
6075
20
3223.89862163
11
6075
21
3201.25
0
LINE
5
115
100
AcDbEntity
8
section_E_E_d
6
CONTINUOUS
62
7
370
0
100
AcDbLine
10
6685
20
3219.45960257
11
6685
21
3201.25
0
ENDBLK
5
65
330
63
100
AcDbEntity
8
0
100
AcDbBlockEnd
0
BLOCK
5
67
330
66
100
AcDbEntity
8
0
100
AcDbBlockBegin
2
*D25
70
1
10
0
20
0
3
*D25
1

0
LINE
5
116
100
AcDbEntity
8
section_E_E_d
6
CONTINUOUS
62
7
370
0
100
AcDbLine
10
2360
20
5200
11
3020
21
5200
0
SOLID
5
117
100
AcDbEntity
8
section_E_E_d
6
CONTINUOUS
62
7
370
0
100
AcDbTrace
10
2360
20
5200
30
0
11
2410
21
5208.32569316
31
0
12
2410
22
5191.67430684
32
0
13
2410
23
5191.67430684
33
0
0
SOLID
5
118
100
AcDbEntity
8
section_E_E_d
6
CONTINUOUS
62
7
370
0
100
AcDbTrace
10
3020
20
5200
30
0
11
2970
21
5191.67430684
31
0
12
2970
22
5208.32569316
32
0
13
2970
23
5208.32569316
33
0
0
MTEXT
5
119
100
AcDbEntity
8
section_E_E_d
6
CONTINUOUS
62
7
370
0
100
AcDbMText
10
2690
20
5252
30
0
40
64
41
128
71
5
72
1
1
660
7
standard
210
0
220
0
230
1
50
0
73
2
44
1
0
LINE
5
11A
100
AcDbEntity
8
section_E_E_d
6
CONTINUOUS
62
7
370
0
100
AcDbLine
10
2360
20
5203.70111847
11
2360
21
5201.25
0
LINE
5
11B
100
AcDbEntity
8
section_E_E_d
6
CONTINUOUS
62
7
370
0
100
AcDbLine
10
3020
20
5203.70111847
11
3020
21
5201.25
0
ENDBLK
5
68
330
66
100
AcDbEntity
8
0
100
AcDbBlockEnd
0
BLOCK
5
6A
330
69
100
AcDbEntity
8
0
100
AcDbBlockBegin
2
*D42
70
1
10
0
20
0
3
*D42
1

0
LINE
5
11C
100
AcDbEntity
8
section_E_E_d
6
CONTINUOUS
62
7
370
0
100
AcDbLine
10
6685
20
2000
11
7335
21
2000
0
SOLID
5
11D
100
AcDbEntity
8
section_E_E_d
6
CONTINUOUS
62
7
370
0
100
AcDbTrace
10
6685
20
2000
30
0
11
6735
21
2008.32569316
31
0
12
6735
22
1991.67430684
32
0
13
6735
23
1991.67430684
33
0
0
SOLID
5
11E
100
AcDbEntity
8
section_E_E_d
6
CONTINUOUS
62
7
370
0
100
AcDbTrace
10
7335
20
2000
30
0
11
7285
21
1991.67430684
31
0
12
7285
22
2008.32569316
32
0
13
7285
23
2008.32569316
33
0
0
MTEXT
5
11F
100
AcDbEntity
8
section_E_E_d
6
CONTINUOUS
62
7
370
0
100
AcDbMText
10
7010
20
2052
30
0
40
64
41
128
71
5
72
1
1
650
7
standard
210
0
220
0
230
1
50
0
73
2
44
1
0
LINE
5
120
100
AcDbEntity
8
section_E_E_d
6
CONTINUOUS
62
7
370
0
100
AcDbLine
10
6685
20
1989.85132539
11
6685
21
2001.25
0
LINE
5
121
100
AcDbEntity
8
section_E_E_d
6
CONTINUOUS
62
7
370
0
100
AcDbLine
10
7335
20
1989.85132539
11
7335
21
2001.25
0
ENDBLK
5
6B
330
69
100
AcDbEntity
8
0
100
AcDbBlockEnd
0
BLOCK
5
6D
330
6C
100
AcDbEntity
8
0
100
AcDbBlockBegin
2
*D49
70
1
10
0
20
0
3
*D49
1

0
LINE
5
122
100
AcDbEntity
8
section_E_E_d
6
CONTINUOUS
62
7
370
0
100
AcDbLine
10
4755
20
5200
11
5415
21
5200
0
SOLID
5
123
100
AcDbEntity
8
section_E_E_d
6
CONTINUOUS
62
7
370
0
100
AcDbTrace
10
4755
20
5200
30
0
11
4805
21
5208.32569316
31
0
12
4805
22
5191.67430684
32
0
13
4805
23
5191.67430684
33
0
0
SOLID
5
124
100
AcDbEntity
8
section_E_E_d
6
CONTINUOUS
62
7
370
0
100
AcDbTrace
10
5415
20
5200
30
0
11
5365
21
5191.67430684
31
0
12
5365
22
5208.32569316
32
0
13
5365
23
5208.32569316
33
0
0
MTEXT
5
125
100
AcDbEntity
8
section_E_E_d
6
CONTINUOUS
62
7
370
0
100
AcDbMText
10
5085
20
5252
30
0
40
64
41
128
71
5
72
1
1
660
7
standard
210
0
220
0
230
1
50
0
73
2
44
1
0
LINE
5
126
100
AcDbEntity
8
section_E_E_d
6
CONTINUOUS
62
7
370
0
100
AcDbLine
10
4755
20
5188.16455179
11
4755
21
5201.25
0
LINE
5
127
100
AcDbEntity
8
section_E_E_d
6
CONTINUOUS
62
7
370
0
100
AcDbLine
10
5415
20
5182.61577798
11
5415
21
5201.25
0
ENDBLK
5
6E
330
6C
100
AcDbEntity
8
0
100
AcDbBlockEnd
0
BLOCK
5
70
330
6F
100
AcDbEntity
8
0
100
AcDbBlockBegin
2
*D41
70
1
10
0
20
0
3
*D41
1

0
LINE
5
128
100
AcDbEntity
8
section_E_E_d
6
CONTINUOUS
62
7
370
0
100
AcDbLine
10
6040
20
2000
11
6685
21
2000
0
SOLID
5
129
100
AcDbEntity
8
section_E_E_d
6
CONTINUOUS
62
7
370
0
100
AcDbTrace
10
6040
20
2000
30
0
11
6090
21
2008.32569316
31
0
12
6090
22
1991.67430684
32
0
13
6090
23
1991.67430684
33
0
0
SOLID
5
12A
100
AcDbEntity
8
section_E_E_d
6
CONTINUOUS
62
7
370
0
100
AcDbTrace
10
6685
20
2000
30
0
11
6635
21
1991.67430684
31
0
12
6635
22
2008.32569316
32
0
13
6635
23
2008.32569316
33
0
0
MTEXT
5
12B
100
AcDbEntity
8
section_E_E_d
6
CONTINUOUS
62
7
370
0
100
AcDbMText
10
6362.5
20
2052
30
0
40
64
41
135.111111111
71
5
72
1
1
645
7
standard
210
0
220
0
230
1
50
0
73
2
44
1
0
LINE
5
12C
100
AcDbEntity
8
section_E_E_d
6
CONTINUOUS
62
7
370
0
100
AcDbLine
10
6040
20
1989.85132539
11
6040
21
2001.25
0
LINE
5
12D
100
AcDbEntity
8
section_E_E_d
6
CONTINUOUS
62
7
370
0
100
AcDbLine
10
6685
20
2003.16838254
11
6685
21
2001.25
0
ENDBLK
5
71
330
6F
100
AcDbEntity
8
0
100
AcDbBlockEnd
0
BLOCK
5
73
330
72
100
AcDbEntity
8
0
100
AcDbBlockBegin
2
*D21
70
1
10
0
20
0
3
*D21
1

0
LINE
5
12E
100
AcDbEntity
8
section_E_E_d
6
CONTINUOUS
62
7
370
0
100
AcDbLine
10
1750
20
3200
11
2360
21
3200
0
SOLID
5
12F
100
AcDbEntity
8
section_E_E_d
6
CONTINUOUS
62
7
370
0
100
AcDbTrace
10
1750
20
3200
30
0
11
1800
21
3208.32569316
31
0
12
1800
22
3191.67430684
32
0
13
1800
23
3191.67430684
33
0
0
SOLID
5
130
100
AcDbEntity
8
section_E_E_d
6
CONTINUOUS
62
7
370
0
100
AcDbTrace
10
2360
20
3200
30
0
11
2310
21
3191.67430684
31
0
12
2310
22
3208.32569316
32
0
13
2310
23
3208.32569316
33
0
0
MTEXT
5
131
100
AcDbEntity
8
section_E_E_d
6
CONTINUOUS
62
7
370
0
100
AcDbMText
10
2055
20
3252
30
0
40
64
41
113.777777778
71
5
72
1
1
610
7
standard
210
0
220
0
230
1
50
0
73
2
44
1
0
LINE
5
132
100
AcDbEntity
8
section_E_E_d
6
CONTINUOUS
62
7
370
0
100
AcDbLine
10
1750
20
3190.48390739
11
1750
21
3198.75
0
LINE
5
133
100
AcDbEntity
8
section_E_E_d
6
CONTINUOUS
62
7
370
0
100
AcDbLine
10
2360
20
3190.48390739
11
2360
21
3198.75
0
ENDBLK
5
74
330
72
100
AcDbEntity
8
0
100
AcDbBlockEnd
0
BLOCK
5
76
330
75
100
AcDbEntity
8
0
100
AcDbBlockBegin
2
*D23
70
1
10
0
20
0
3
*D23
1

0
LINE
5
134
100
AcDbEntity
8
section_E_E_d
6
CONTINUOUS
62
7
370
0
100
AcDbLine
10
1100
20
5200
11
1715
21
5200
0
SOLID
5
135
100
AcDbEntity
8
section_E_E_d
6
CONTINUOUS
62
7
370
0
100
AcDbTrace
10
1100
20
5200
30
0
11
1150
21
5208.32569316
31
0
12
1150
22
5191.67430684
32
0
13
1150
23
5191.67430684
33
0
0
SOLID
5
136
100
AcDbEntity
8
section_E_E_d
6
CONTINUOUS
62
7
370
0
100
AcDbTrace
10
1715
20
5200
30
0
11
1665
21
5191.67430684
31
0
12
1665
22
5208.32569316
32
0
13
1665
23
5208.32569316
33
0
0
MTEXT
5
137
100
AcDbEntity
8
section_E_E_d
6
CONTINUOUS
62
7
370
0
100
AcDbMText
10
1407.5
20
5252
30
0
40
64
41
113.777777778
71
5
72
1
1
615
7
standard
210
0
220
0
230
1
50
0
73
2
44
1
0
LINE
5
138
100
AcDbEntity
8
section_E_E_d
6
CONTINUOUS
62
7
370
0
100
AcDbLine
10
1100
20
5208.14013752
11
1100
21
5201.25
0
LINE
5
139
100
AcDbEntity
8
section_E_E_d
6
CONTINUOUS
62
7
370
0
100
AcDbLine
10
1715
20
5208.14013752
11
1715
21
5201.25
0
ENDBLK
5
77
330
75
100
AcDbEntity
8
0
100
AcDbBlockEnd
0
BLOCK
5
79
330
78
100
AcDbEntity
8
0
100
AcDbBlockBegin
2
*D5
70
1
10
0
20
0
3
*D5
1

0
LINE
5
13A
100
AcDbEntity
8
section_E_E_d
6
CONTINUOUS
62
7
370
0
100
AcDbLine
10
3020
20
5400
11
5415
21
5400
0
SOLID
5
13B
100
AcDbEntity
8
section_E_E_d
6
CONTINUOUS
62
7
370
0
100
AcDbTrace
10
3020
20
5400
30
0
11
3070
21
5408.32569316
31
0
12
3070
22
5391.67430684
32
0
13
3070
23
5391.67430684
33
0
0
SOLID
5
13C
100
AcDbEntity
8
section_E_E_d
6
CONTINUOUS
62
7
370
0
100
AcDbTrace
10
5415
20
5400
30
0
11
5365
21
5391.67430684
31
0
12
5365
22
5408.32569316
32
0
13
5365
23
5408.32569316
33
0
0
MTEXT
5
13D
100
AcDbEntity
8
section_E_E_d
6
CONTINUOUS
62
7
370
0
100
AcDbMText
10
4217.5
20
5452
30
0
40
64
41
177.777777778
71
5
72
1
1
2395
7
standard
210
0
220
0
230
1
50
0
73
2
44
1
0
LINE
5
13E
100
AcDbEntity
8
section_E_E_d
6
CONTINUOUS
62
7
370
0
100
AcDbLine
10
3020
20
5386.46073387
11
3020
21
5401.25
0
LINE
5
13F
100
AcDbEntity
8
section_E_E_d
6
CONTINUOUS
62
7
370
0
100
AcDbLine
10
5415
20
5386.46073387
11
5415
21
5401.25
0
ENDBLK
5
7A
330
78
100
AcDbEntity
8
0
100
AcDbBlockEnd
0
BLOCK
5
7C
330
7B
100
AcDbEntity
8
0
100
AcDbBlockBegin
2
*D45
70
1
10
0
20
0
3
*D45
1

0
LINE
5
140
100
AcDbEntity
8
section_E_E_d
6
CONTINUOUS
62
7
370
0
100
AcDbLine
10
6685
20
5200
11
7335
21
5200
0
SOLID
5
141
100
AcDbEntity
8
section_E_E_d
6
CONTINUOUS
62
7
370
0
100
AcDbTrace
10
6685
20
5200
30
0
11
6735
21
5208.32569316
31
0
12
6735
22
5191.67430684
32
0
13
6735
23
5191.67430684
33
0
0
SOLID
5
142
100
AcDbEntity
8
section_E_E_d
6
CONTINUOUS
62
7
370
0
100
AcDbTrace
10
7335
20
5200
30
0
11
7285
21
5191.67430684
31
0
12
7285
22
5208.32569316
32
0
13
7285
23
5208.32569316
33
0
0
MTEXT
5
143
100
AcDbEntity
8
section_E_E_d
6
CONTINUOUS
62
7
370
0
100
AcDbMText
10
7010
20
5252
30
0
40
64
41
128
71
5
72
1
1
650
7
standard
210
0
220
0
230
1
50
0
73
2
44
1
0
LINE
5
144
100
AcDbEntity
8
section_E_E_d
6
CONTINUOUS
62
7
370
0
100
AcDbLine
10
6685
20
5193.71332561
11
6685
21
5201.25
0
LINE
5
145
100
AcDbEntity
8
section_E_E_d
6
CONTINUOUS
62
7
370
0
100
AcDbLine
10
7335
20
5188.16455179
11
7335
21
5201.25
0
ENDBLK
5
7D
330
7B
100
AcDbEntity
8
0
100
AcDbBlockEnd
0
BLOCK
5
7F
330
7E
100
AcDbEntity
8
0
100
AcDbBlockBegin
2
*D17
70
1
10
0
20
0
3
*D17
1

0
LINE
5
146
100
AcDbEntity
8
section_E_E_d
6
CONTINUOUS
62
7
370
0
100
AcDbLine
10
5460
20
5000
11
7680
21
5000
0
SOLID
5
147
100
AcDbEntity
8
section_E_E_d
6
CONTINUOUS
62
7
370
0
100
AcDbTrace
10
5460
20
5000
30
0
11
5510
21
5008.32569316
31
0
12
5510
22
4991.67430684
32
0
13
5510
23
4991.67430684
33
0
0
SOLID
5
148
100
AcDbEntity
8
section_E_E_d
6
CONTINUOUS
62
7
370
0
100
AcDbTrace
10
7680
20
5000
30
0
11
7630
21
4991.67430684
31
0
12
7630
22
5008.32569316
32
0
13
7630
23
5008.32569316
33
0
0
MTEXT
5
149
100
AcDbEntity
8
section_E_E_d
6
CONTINUOUS
62
7
370
0
100
AcDbMText
10
6570
20
5052
30
0
40
64
41
177.777777778
71
5
72
1
1
2220
7
standard
210
0
220
0
230
1
50
0
73
2
44
1
0
LINE
5
14A
100
AcDbEntity
8
section_E_E_d
6
CONTINUOUS
62
7
370
0
100
AcDbLine
10
5460
20
5011.14250565
11
5460
21
5001.25
0
LINE
5
14B
100
AcDbEntity
8
section_E_E_d
6
CONTINUOUS
62
7
370
0
100
AcDbLine
10
7680
20
5011.14250565
11
7680
21
5001.25
0
ENDBLK
5
80
330
7E
100
AcDbEntity
8
0
100
AcDbBlockEnd
0
BLOCK
5
82
330
81
100
AcDbEntity
8
0
100
AcDbBlockBegin
2
*D19
70
1
10
0
20
0
3
*D19
1

0
LINE
5
14C
100
AcDbEntity
8
section_E_E_d
6
CONTINUOUS
62
7
370
0
100
AcDbLine
10
5415
20
5400
11
7680
21
5400
0
SOLID
5
14D
100
AcDbEntity
8
section_E_E_d
6
CONTINUOUS
62
7
370
0
100
AcDbTrace
10
5415
20
5400
30
0
11
5465
21
5408.32569316
31
0
12
5465
22
5391.67430684
32
0
13
5465
23
5391.67430684
33
0
0
SOLID
5
14E
100
AcDbEntity
8
section_E_E_d
6
CONTINUOUS
62
7
370
0
100
AcDbTrace
10
7680
20
5400
30
0
11
7630
21
5391.67430684
31
0
12
7630
22
5408.32569316
32
0
13
7630
23
5408.32569316
33
0
0
MTEXT
5
14F
100
AcDbEntity
8
section_E_E_d
6
CONTINUOUS
62
7
370
0
100
AcDbMText
10
6547.5
20
5452
30
0
40
64
41
177.777777778
71
5
72
1
1
2265
7
standard
210
0
220
0
230
1
50
0
73
2
44
1
0
LINE
5
150
100
AcDbEntity
8
section_E_E_d
6
CONTINUOUS
62
7
370
0
100
AcDbLine
10
5415
20
5399.40583218
11
5415
21
5401.25
0
LINE
5
151
100
AcDbEntity
8
section_E_E_d
6
CONTINUOUS
62
7
370
0
100
AcDbLine
10
7680
20
5399.40583218
11
7680
21
5401.25
0
ENDBLK
5
83
330
81
100
AcDbEntity
8
0
100
AcDbBlockEnd
0
BLOCK
5
85
330
84
100
AcDbEntity
8
0
100
AcDbBlockBegin
2
*D13
70
1
10
0
20
0
3
*D13
1

0
LINE
5
152
100
AcDbEntity
8
section_E_E_d
6
CONTINUOUS
62
7
370
0
100
AcDbLine
10
8100
20
4729
11
8100
21
2399
0
SOLID
5
153
100
AcDbEntity
8
section_E_E_d
6
CONTINUOUS
62
7
370
0
100
AcDbTrace
10
8100
20
4729
30
0
11
8108.32569316
21
4679
31
0
12
8091.67430684
22
4679
32
0
13
8091.67430684
23
4679
33
0
0
SOLID
5
154
100
AcDbEntity
8
section_E_E_d
6
CONTINUOUS
62
7
370
0
100
AcDbTrace
10
8100
20
2399
30
0
11
8091.67430684
21
2449
31
0
12
8108.32569316
22
2449
32
0
13
8108.32569316
23
2449
33
0
0
MTEXT
5
155
100
AcDbEntity
8
section_E_E_d
6
CONTINUOUS
62
7
370
0
100
AcDbMText
10
8048
20
3564
30
0
40
64
41
177.777777778
71
5
72
1
1
2330
7
standard
210
0
220
0
230
1
50
90
73
2
44
1
0
LINE
5
156
100
AcDbEntity
8
section_E_E_d
6
CONTINUOUS
62
7
370
0
100
AcDbLine
10
8091.6808686
20
4729
11
8098.75
21
4729
0
LINE
5
157
100
AcDbEntity
8
section_E_E_d
6
CONTINUOUS
62
7
370
0
100
AcDbLine
10
8097.78407765
20
2399
11
8098.75
21
2399
0
ENDBLK
5
86
330
84
100
AcDbEntity
8
0
100
AcDbBlockEnd
0
BLOCK
5
88
330
87
100
AcDbEntity
8
0
100
AcDbBlockBegin
2
*D33
70
1
10
0
20
0
3
*D33
1

0
LINE
5
158
100
AcDbEntity
8
section_E_E_d
6
CONTINUOUS
62
7
370
0
100
AcDbLine
10
5460
20
3200
11
6040
21
3200
0
SOLID
5
159
100
AcDbEntity
8
section_E_E_d
6
CONTINUOUS
62
7
370
0
100
AcDbTrace
10
5460
20
3200
30
0
11
5510
21
3208.32569316
31
0
12
5510
22
3191.67430684
32
0
13
5510
23
3191.67430684
33
0
0
SOLID
5
15A
100
AcDbEntity
8
section_E_E_d
6
CONTINUOUS
62
7
370
0
100
AcDbTrace
10
6040
20
3200
30
0
11
5990
21
3191.67430684
31
0
12
5990
22
3208.32569316
32
0
13
5990
23
3208.32569316
33
0
0
MTEXT
5
15B
100
AcDbEntity
8
section_E_E_d
6
CONTINUOUS
62
7
370
0
100
AcDbMText
10
5750
20
3252
30
0
40
64
41
128
71
5
72
1
1
580
7
standard
210
0
220
0
230
1
50
0
73
2
44
1
0
LINE
5
15C
100
AcDbEntity
8
section_E_E_d
6
CONTINUOUS
62
7
370
0
100
AcDbLine
10
5460
20
3201.70352637
11
5460
21
3201.25
0
LINE
5
15D
100
AcDbEntity
8
section_E_E_d
6
CONTINUOUS
62
7
370
0
100
AcDbLine
10
6040
20
3215.02058352
11
6040
21
3201.25
0
ENDBLK
5
89
330
87
100
AcDbEntity
8
0
100
AcDbBlockEnd
0
BLOCK
5
8B
330
8A
100
AcDbEntity
8
0
100
AcDbBlockBegin
2
*D4
70
1
10
0
20
0
3
*D4
1

0
LINE
5
15E
100
AcDbEntity
8
section_E_E_d
6
CONTINUOUS
62
7
370
0
100
AcDbLine
10
1100
20
1600
11
7335
21
1600
0
SOLID
5
15F
100
AcDbEntity
8
section_E_E_d
6
CONTINUOUS
62
7
370
0
100
AcDbTrace
10
1100
20
1600
30
0
11
1150
21
1608.32569316
31
0
12
1150
22
1591.67430684
32
0
13
1150
23
1591.67430684
33
0
0
SOLID
5
160
100
AcDbEntity
8
section_E_E_d
6
CONTINUOUS
62
7
370
0
100
AcDbTrace
10
7335
20
1600
30
0
11
7285
21
1591.67430684
31
0
12
7285
22
1608.32569316
32
0
13
7285
23
1608.32569316
33
0
0
MTEXT
5
161
100
AcDbEntity
8
section_E_E_d
6
CONTINUOUS
62
7
370
0
100
AcDbMText
10
4217.5
20
1652
30
0
40
64
41
177.777777778
71
5
72
1
1
6235
7
standard
210
0
220
0
230
1
50
0
73
2
44
1
0
LINE
5
162
100
AcDbEntity
8
section_E_E_d
6
CONTINUOUS
62
7
370
0
100
AcDbLine
10
1100
20
1605.19029352
11
1100
21
1598.75
0
LINE
5
163
100
AcDbEntity
8
section_E_E_d
6
CONTINUOUS
62
7
370
0
100
AcDbLine
10
7335
20
1605.19029352
11
7335
21
1598.75
0
ENDBLK
5
8C
330
8A
100
AcDbEntity
8
0
100
AcDbBlockEnd
0
BLOCK
5
8E
330
8D
100
AcDbEntity
8
0
100
AcDbBlockBegin
2
*D38
70
1
10
0
20
0
3
*D38
1

0
LINE
5
164
100
AcDbEntity
8
section_E_E_d
6
CONTINUOUS
62
7
370
0
100
AcDbLine
10
4200
20
2000
11
4755
21
2000
0
SOLID
5
165
100
AcDbEntity
8
section_E_E_d
6
CONTINUOUS
62
7
370
0
100
AcDbTrace
10
4200
20
2000
30
0
11
4250
21
2008.32569316
31
0
12
4250
22
1991.67430684
32
0
13
4250
23
1991.67430684
33
0
0
SOLID
5
166
100
AcDbEntity
8
section_E_E_d
6
CONTINUOUS
62
7
370
0
100
AcDbTrace
10
4755
20
2000
30
0
11
4705
21
1991.67430684
31
0
12
4705
22
2008.32569316
32
0
13
4705
23
2008.32569316
33
0
0
MTEXT
5
167
100
AcDbEntity
8
section_E_E_d
6
CONTINUOUS
62
7
370
0
100
AcDbMText
10
4477.5
20
2052
30
0
40
64
41
128
71
5
72
1
1
555
7
standard
210
0
220
0
230
1
50
0
73
2
44
1
0
LINE
5
168
100
AcDbEntity
8
section_E_E_d
6
CONTINUOUS
62
7
370
0
100
AcDbLine
10
4200
20
2003.16838254
11
4200
21
2001.25
0
LINE
5
169
100
AcDbEntity
8
section_E_E_d
6
CONTINUOUS
62
7
370
0
100
AcDbLine
10
4755
20
1994.29034444
11
4755
21
2001.25
0
ENDBLK
5
8F
330
8D
100
AcDbEntity
8
0
100
AcDbBlockEnd
0
BLOCK
5
91
330
90
100
AcDbEntity
8
0
100
AcDbBlockBegin
2
*D26
70
1
10
0
20
0
3
*D26
1

0
LINE
5
16A
100
AcDbEntity
8
section_E_E_d
6
CONTINUOUS
62
7
370
0
100
AcDbLine
10
1100
20
2000
11
1715
21
2000
0
SOLID
5
16B
100
AcDbEntity
8
section_E_E_d
6
CONTINUOUS
62
7
370
0
100
AcDbTrace
10
1100
20
2000
30
0
11
1150
21
2008.32569316
31
0
12
1150
22
1991.67430684
32
0
13
1150
23
1991.67430684
33
0
0
SOLID
5
16C
100
AcDbEntity
8
section_E_E_d
6
CONTINUOUS
62
7
370
0
100
AcDbTrace
10
1715
20
2000
30
0
11
1665
21
1991.67430684
31
0
12
1665
22
2008.32569316
32
0
13
1665
23
2008.32569316
33
0
0
MTEXT
5
16D
100
AcDbEntity
8
section_E_E_d
6
CONTINUOUS
62
7
370
0
100
AcDbMText
10
1407.5
20
2052
30
0
40
64
41
113.777777778
71
5
72
1
1
615
7
standard
210
0
220
0
230
1
50
0
73
2
44
1
0
LINE
5
16E
100
AcDbEntity
8
section_E_E_d
6
CONTINUOUS
62
7
370
0
100
AcDbLine
10
1100
20
1978.63170641
11
1100
21
1998.75
0
LINE
5
16F
100
AcDbEntity
8
section_E_E_d
6
CONTINUOUS
62
7
370
0
100
AcDbLine
10
1715
20
1987.50974451
11
1715
21
1998.75
0
ENDBLK
5
92
330
90
100
AcDbEntity
8
0
100
AcDbBlockEnd
0
BLOCK
5
94
330
93
100
AcDbEntity
8
0
100
AcDbBlockBegin
2
*D22
70
1
10
0
20
0
3
*D22
1

0
LINE
5
170
100
AcDbEntity
8
section_E_E_d
6
CONTINUOUS
62
7
370
0
100
AcDbLine
10
2395
20
3200
11
2975
21
3200
0
SOLID
5
171
100
AcDbEntity
8
section_E_E_d
6
CONTINUOUS
62
7
370
0
100
AcDbTrace
10
2395
20
3200
30
0
11
2445
21
3208.32569316
31
0
12
2445
22
3191.67430684
32
0
13
2445
23
3191.67430684
33
0
0
SOLID
5
172
100
AcDbEntity
8
section_E_E_d
6
CONTINUOUS
62
7
370
0
100
AcDbTrace
10
2975
20
3200
30
0
11
2925
21
3191.67430684
31
0
12
2925
22
3208.32569316
32
0
13
2925
23
3208.32569316
33
0
0
MTEXT
5
173
100
AcDbEntity
8
section_E_E_d
6
CONTINUOUS
62
7
370
0
100
AcDbMText
10
2685
20
3252
30
0
40
64
41
128
71
5
72
1
1
580
7
standard
210
0
220
0
230
1
50
0
73
2
44
1
0
LINE
5
174
100
AcDbEntity
8
section_E_E_d
6
CONTINUOUS
62
7
370
0
100
AcDbLine
10
2395
20
3186.04488834
11
2395
21
3198.75
0
LINE
5
175
100
AcDbEntity
8
section_E_E_d
6
CONTINUOUS
62
7
370
0
100
AcDbLine
10
2975
20
3186.04488834
11
2975
21
3198.75
0
ENDBLK
5
95
330
93
100
AcDbEntity
8
0
100
AcDbBlockEnd
0
BLOCK
5
97
330
96
100
AcDbEntity
8
0
100
AcDbBlockBegin
2
*D8
70
1
10
0
20
0
3
*D8
1

0
LINE
5
176
100
AcDbEntity
8
section_E_E_d
6
CONTINUOUS
62
7
370
0
100
AcDbLine
10
5437.5
20
4719
11
5595
21
4900
0
LINE
5
177
100
AcDbEntity
8
section_E_E_d
6
CONTINUOUS
62
7
370
0
100
AcDbLine
10
5595
20
4900
11
6095
21
4900
0
SOLID
5
178
100
AcDbEntity
8
section_E_E_d
6
CONTINUOUS
62
7
370
0
100
AcDbTrace
10
5437.5
20
4719
30
0
11
5464.04108614
21
4762.18434801
31
0
12
5476.60257824
22
4751.25376787
32
0
13
5476.60257824
23
4751.25376787
33
0
0
ENDBLK
5
98
330
96
100
AcDbEntity
8
0
100
AcDbBlockEnd
0
BLOCK
5
9A
330
99
100
AcDbEntity
8
0
100
AcDbBlockBegin
2
*D1
70
1
10
0
20
0
3
*D1
1

0
LINE
5
179
100
AcDbEntity
8
section_E_E_d
6
CONTINUOUS
62
7
370
0
100
AcDbLine
10
5415
20
1800
11
7335
21
1800
0
SOLID
5
17A
100
AcDbEntity
8
section_E_E_d
6
CONTINUOUS
62
7
370
0
100
AcDbTrace
10
5415
20
1800
30
0
11
5465
21
1808.32569316
31
0
12
5465
22
1791.67430684
32
0
13
5465
23
1791.67430684
33
0
0
SOLID
5
17B
100
AcDbEntity
8
section_E_E_d
6
CONTINUOUS
62
7
370
0
100
AcDbTrace
10
7335
20
1800
30
0
11
7285
21
1791.67430684
31
0
12
7285
22
1808.32569316
32
0
13
7285
23
1808.32569316
33
0
0
MTEXT
5
17C
100
AcDbEntity
8
section_E_E_d
6
CONTINUOUS
62
7
370
0
100
AcDbMText
10
6375
20
1852
30
0
40
64
41
163.555555556
71
5
72
1
1
1920
7
standard
210
0
220
0
230
1
50
0
73
2
44
1
0
LINE
5
17D
100
AcDbEntity
8
section_E_E_d
6
CONTINUOUS
62
7
370
0
100
AcDbLine
10
5415
20
1817.09371163
11
5415
21
1798.75
0
LINE
5
17E
100
AcDbEntity
8
section_E_E_d
6
CONTINUOUS
62
7
370
0
100
AcDbLine
10
7335
20
1813.18765784
11
7335
21
1798.75
0
ENDBLK
5
9B
330
99
100
AcDbEntity
8
0
100
AcDbBlockEnd
0
BLOCK
5
9D
330
9C
100
AcDbEntity
8
0
100
AcDbBlockBegin
2
*D14
70
1
10
0
20
0
3
*D14
1

0
LINE
5
17F
100
AcDbEntity
8
section_E_E_d
6
CONTINUOUS
62
7
370
0
100
AcDbLine
10
755
20
5200
11
1100
21
5200
0
SOLID
5
180
100
AcDbEntity
8
section_E_E_d
6
CONTINUOUS
62
7
370
0
100
AcDbTrace
10
755
20
5200
30
0
11
805
21
5208.32569316
31
0
12
805
22
5191.67430684
32
0
13
805
23
5191.67430684
33
0
0
SOLID
5
181
100
AcDbEntity
8
section_E_E_d
6
CONTINUOUS
62
7
370
0
100
AcDbTrace
10
1100
20
5200
30
0
11
1050
21
5191.67430684
31
0
12
1050
22
5208.32569316
32
0
13
1050
23
5208.32569316
33
0
0
MTEXT
5
182
100
AcDbEntity
8
section_E_E_d
6
CONTINUOUS
62
7
370
0
100
AcDbMText
10
927.5
20
5252
30
0
40
64
41
135.111111111
71
5
72
1
1
345
7
standard
210
0
220
0
230
1
50
0
73
2
44
1
0
LINE
5
183
100
AcDbEntity
8
section_E_E_d
6
CONTINUOUS
62
7
370
0
100
AcDbLine
10
755
20
5203.31324302
11
755
21
5201.25
0
LINE
5
184
100
AcDbEntity
8
section_E_E_d
6
CONTINUOUS
62
7
370
0
100
AcDbLine
10
1100
20
5207.2350948
11
1100
21
5201.25
0
ENDBLK
5
9E
330
9C
100
AcDbEntity
8
0
100
AcDbBlockEnd
0
BLOCK
5
A0
330
9F
100
AcDbEntity
8
0
100
AcDbBlockBegin
2
*D6
70
1
10
0
20
0
3
*D6
1

0
LINE
5
185
100
AcDbEntity
8
section_E_E_d
6
CONTINUOUS
62
7
370
0
100
AcDbLine
10
3042.5
20
4719
11
3200
21
4900
0
LINE
5
186
100
AcDbEntity
8
section_E_E_d
6
CONTINUOUS
62
7
370
0
100
AcDbLine
10
3200
20
4900
11
3700
21
4900
0
SOLID
5
187
100
AcDbEntity
8
section_E_E_d
6
CONTINUOUS
62
7
370
0
100
AcDbTrace
10
3042.5
20
4719
30
0
11
3069.04108614
21
4762.18434801
31
0
12
3081.60257824
22
4751.25376787
32
0
13
3081.60257824
23
4751.25376787
33
0
0
ENDBLK
5
A1
330
9F
100
AcDbEntity
8
0
100
AcDbBlockEnd
0
BLOCK
5
A3
330
A2
100
AcDbEntity
8
0
100
AcDbBlockBegin
2
*D43
70
1
10
0
20
0
3
*D43
1

0
LINE
5
188
100
AcDbEntity
8
section_E_E_d
6
CONTINUOUS
62
7
370
0
100
AcDbLine
10
5415
20
5200
11
6040
21
5200
0
SOLID
5
189
100
AcDbEntity
8
section_E_E_d
6
CONTINUOUS
62
7
370
0
100
AcDbTrace
10
5415
20
5200
30
0
11
5465
21
5208.32569316
31
0
12
5465
22
5191.67430684
32
0
13
5465
23
5191.67430684
33
0
0
SOLID
5
18A
100
AcDbEntity
8
section_E_E_d
6
CONTINUOUS
62
7
370
0
100
AcDbTrace
10
6040
20
5200
30
0
11
5990
21
5191.67430684
31
0
12
5990
22
5208.32569316
32
0
13
5990
23
5208.32569316
33
0
0
MTEXT
5
18B
100
AcDbEntity
8
section_E_E_d
6
CONTINUOUS
62
7
370
0
100
AcDbMText
10
5727.5
20
5252
30
0
40
64
41
128
71
5
72
1
1
625
7
standard
210
0
220
0
230
1
50
0
73
2
44
1
0
LINE
5
18C
100
AcDbEntity
8
section_E_E_d
6
CONTINUOUS
62
7
370
0
100
AcDbLine
10
5415
20
5210.35964705
11
5415
21
5201.25
0
LINE
5
18D
100
AcDbEntity
8
section_E_E_d
6
CONTINUOUS
62
7
370
0
100
AcDbLine
10
6040
20
5210.35964705
11
6040
21
5201.25
0
ENDBLK
5
A4
330
A2
100
AcDbEntity
8
0
100
AcDbBlockEnd
0
BLOCK
5
A6
330
A5
100
AcDbEntity
8
0
100
AcDbBlockBegin
2
*D18
70
1
10
0
20
0
3
*D18
1

0
LINE
5
18E
100
AcDbEntity
8
section_E_E_d
6
CONTINUOUS
62
7
370
0
100
AcDbLine
10
7335
20
5200
11
7680
21
5200
0
SOLID
5
18F
100
AcDbEntity
8
section_E_E_d
6
CONTINUOUS
62
7
370
0
100
AcDbTrace
10
7335
20
5200
30
0
11
7385
21
5208.32569316
31
0
12
7385
22
5191.67430684
32
0
13
7385
23
5191.67430684
33
0
0
SOLID
5
190
100
AcDbEntity
8
section_E_E_d
6
CONTINUOUS
62
7
370
0
100
AcDbTrace
10
7680
20
5200
30
0
11
7630
21
5191.67430684
31
0
12
7630
22
5208.32569316
32
0
13
7630
23
5208.32569316
33
0
0
MTEXT
5
191
100
AcDbEntity
8
section_E_E_d
6
CONTINUOUS
62
7
370
0
100
AcDbMText
10
7507.5
20
5252
30
0
40
64
41
135.111111111
71
5
72
1
1
345
7
standard
210
0
220
0
230
1
50
0
73
2
44
1
0
LINE
5
192
100
AcDbEntity
8
section_E_E_d
6
CONTINUOUS
62
7
370
0
100
AcDbLine
10
7335
20
5203.31324302
11
7335
21
5201.25
0
LINE
5
193
100
AcDbEntity
8
section_E_E_d
6
CONTINUOUS
62
7
370
0
100
AcDbLine
10
7680
20
5203.31324302
11
7680
21
5201.25
0
ENDBLK
5
A7
330
A5
100
AcDbEntity
8
0
100
AcDbBlockEnd
0
BLOCK
5
A9
330
A8
100
AcDbEntity
8
0
100
AcDbBlockBegin
2
*D9
70
1
10
0
20
0
3
*D9
1

0
LINE
5
194
100
AcDbEntity
8
section_E_E_d
6
CONTINUOUS
62
7
370
0
100
AcDbLine
10
5415
20
4568.53055876
11
5595
21
4900
0
SOLID
5
195
100
AcDbEntity
8
section_E_E_d
6
CONTINUOUS
62
7
370
0
100
AcDbTrace
10
5415
20
4568.53055876
30
0
11
5431.54416566
21
4616.44305973
31
0
12
5446.17719316
22
4608.49679192
32
0
13
5446.17719316
23
4608.49679192
33
0
0
ENDBLK
5
AA
330
A8
100
AcDbEntity
8
0
100
AcDbBlockEnd
0
BLOCK
5
AC
330
AB
100
AcDbEntity
8
0
100
AcDbBlockBegin
2
*D3
70
1
10
0
20
0
3
*D3
1

0
LINE
5
196
100
AcDbEntity
8
section_E_E_d
6
CONTINUOUS
62
7
370
0
100
AcDbLine
10
1100
20
1800
11
3020
21
1800
0
SOLID
5
197
100
AcDbEntity
8
section_E_E_d
6
CONTINUOUS
62
7
370
0
100
AcDbTrace
10
1100
20
1800
30
0
11
1150
21
1808.32569316
31
0
12
1150
22
1791.67430684
32
0
13
1150
23
1791.67430684
33
0
0
SOLID
5
198
100
AcDbEntity
8
section_E_E_d
6
CONTINUOUS
62
7
370
0
100
AcDbTrace
10
3020
20
1800
30
0
11
2970
21
1791.67430684
31
0
12
2970
22
1808.32569316
32
0
13
2970
23
1808.32569316
33
0
0
MTEXT
5
199
100
AcDbEntity
8
section_E_E_d
6
CONTINUOUS
62
7
370
0
100
AcDbMText
10
2060
20
1852
30
0
40
64
41
163.555555556
71
5
72
1
1
1920
7
standard
210
0
220
0
230
1
50
0
73
2
44
1
0
LINE
5
19A
100
AcDbEntity
8
section_E_E_d
6
CONTINUOUS
62
7
370
0
100
AcDbLine
10
1100
20
1795.61041578
11
1100
21
1798.75
0
LINE
5
19B
100
AcDbEntity
8
section_E_E_d
6
CONTINUOUS
62
7
370
0
100
AcDbLine
10
3020
20
1795.61041578
11
3020
21
1798.75
0
ENDBLK
5
AD
330
AB
100
AcDbEntity
8
0
100
AcDbBlockEnd
0
BLOCK
5
AF
330
AE
100
AcDbEntity
8
0
100
AcDbBlockBegin
2
*D37
70
1
10
0
20
0
3
*D37
1

0
LINE
5
19C
100
AcDbEntity
8
section_E_E_d
6
CONTINUOUS
62
7
370
0
100
AcDbLine
10
3645
20
2000
11
4200
21
2000
0
SOLID
5
19D
100
AcDbEntity
8
section_E_E_d
6
CONTINUOUS
62
7
370
0
100
AcDbTrace
10
3645
20
2000
30
0
11
3695
21
2008.32569316
31
0
12
3695
22
1991.67430684
32
0
13
3695
23
1991.67430684
33
0
0
SOLID
5
19E
100
AcDbEntity
8
section_E_E_d
6
CONTINUOUS
62
7
370
0
100
AcDbTrace
10
4200
20
2000
30
0
11
4150
21
1991.67430684
31
0
12
4150
22
2008.32569316
32
0
13
4150
23
2008.32569316
33
0
0
MTEXT
5
19F
100
AcDbEntity
8
section_E_E_d
6
CONTINUOUS
62
7
370
0
100
AcDbMText
10
3922.5
20
2052
30
0
40
64
41
128
71
5
72
1
1
555
7
standard
210
0
220
0
230
1
50
0
73
2
44
1
0
LINE
5
1A0
100
AcDbEntity
8
section_E_E_d
6
CONTINUOUS
62
7
370
0
100
AcDbLine
10
3645
20
1989.85132539
11
3645
21
2001.25
0
LINE
5
1A1
100
AcDbEntity
8
section_E_E_d
6
CONTINUOUS
62
7
370
0
100
AcDbLine
10
4200
20
2003.16838254
11
4200
21
2001.25
0
ENDBLK
5
B0
330
AE
100
AcDbEntity
8
0
100
AcDbBlockEnd
0
BLOCK
5
B2
330
B1
100
AcDbEntity
8
0
100
AcDbBlockBegin
2
*D32
70
1
10
0
20
0
3
*D32
1

0
LINE
5
1A2
100
AcDbEntity
8
section_E_E_d
6
CONTINUOUS
62
7
370
0
100
AcDbLine
10
4790
20
3200
11
5370
21
3200
0
SOLID
5
1A3
100
AcDbEntity
8
section_E_E_d
6
CONTINUOUS
62
7
370
0
100
AcDbTrace
10
4790
20
3200
30
0
11
4840
21
3208.32569316
31
0
12
4840
22
3191.67430684
32
0
13
4840
23
3191.67430684
33
0
0
SOLID
5
1A4
100
AcDbEntity
8
section_E_E_d
6
CONTINUOUS
62
7
370
0
100
AcDbTrace
10
5370
20
3200
30
0
11
5320
21
3191.67430684
31
0
12
5320
22
3208.32569316
32
0
13
5320
23
3208.32569316
33
0
0
MTEXT
5
1A5
100
AcDbEntity
8
section_E_E_d
6
CONTINUOUS
62
7
370
0
100
AcDbMText
10
5080
20
3252
30
0
40
64
41
128
71
5
72
1
1
580
7
standard
210
0
220
0
230
1
50
0
73
2
44
1
0
LINE
5
1A6
100
AcDbEntity
8
section_E_E_d
6
CONTINUOUS
62
7
370
0
100
AcDbLine
10
4790
20
3215.02058352
11
4790
21
3201.25
0
LINE
5
1A7
100
AcDbEntity
8
section_E_E_d
6
CONTINUOUS
62
7
370
0
100
AcDbLine
10
5370
20
3219.45960257
11
5370
21
3201.25
0
ENDBLK
5
B3
330
B1
100
AcDbEntity
8
0
100
AcDbBlockEnd
0
BLOCK
5
B5
330
B4
100
AcDbEntity
8
0
100
AcDbBlockBegin
2
*D46
70
1
10
0
20
0
3
*D46
1

0
LINE
5
1A8
100
AcDbEntity
8
section_E_E_d
6
CONTINUOUS
62
7
370
0
100
AcDbLine
10
3020
20
5200
11
3645
21
5200
0
SOLID
5
1A9
100
AcDbEntity
8
section_E_E_d
6
CONTINUOUS
62
7
370
0
100
AcDbTrace
10
3020
20
5200
30
0
11
3070
21
5208.32569316
31
0
12
3070
22
5191.67430684
32
0
13
3070
23
5191.67430684
33
0
0
SOLID
5
1AA
100
AcDbEntity
8
section_E_E_d
6
CONTINUOUS
62
7
370
0
100
AcDbTrace
10
3645
20
5200
30
0
11
3595
21
5191.67430684
31
0
12
3595
22
5208.32569316
32
0
13
3595
23
5208.32569316
33
0
0
MTEXT
5
1AB
100
AcDbEntity
8
section_E_E_d
6
CONTINUOUS
62
7
370
0
100
AcDbMText
10
3332.5
20
5252
30
0
40
64
41
128
71
5
72
1
1
625
7
standard
210
0
220
0
230
1
50
0
73
2
44
1
0
LINE
5
1AC
100
AcDbEntity
8
section_E_E_d
6
CONTINUOUS
62
7
370
0
100
AcDbLine
10
3020
20
5204.81087324
11
3020
21
5201.25
0
LINE
5
1AD
100
AcDbEntity
8
section_E_E_d
6
CONTINUOUS
62
7
370
0
100
AcDbLine
10
3645
20
5204.81087324
11
3645
21
5201.25
0
ENDBLK
5
B6
330
B4
100
AcDbEntity
8
0
100
AcDbBlockEnd
0
BLOCK
5
B8
330
B7
100
AcDbEntity
8
0
100
AcDbBlockBegin
2
*D30
70
1
10
0
20
0
3
*D30
1

0
LINE
5
1AE
100
AcDbEntity
8
section_E_E_d
6
CONTINUOUS
62
7
370
0
100
AcDbLine
10
3680
20
3200
11
4200
21
3200
0
SOLID
5
1AF
100
AcDbEntity
8
section_E_E_d
6
CONTINUOUS
62
7
370
0
100
AcDbTrace
10
3680
20
3200
30
0
11
3730
21
3208.32569316
31
0
12
3730
22
3191.67430684
32
0
13
3730
23
3191.67430684
33
0
0
SOLID
5
1B0
100
AcDbEntity
8
section_E_E_d
6
CONTINUOUS
62
7
370
0
100
AcDbTrace
10
4200
20
3200
30
0
11
4150
21
3191.67430684
31
0
12
4150
22
3208.32569316
32
0
13
4150
23
3208.32569316
33
0
0
MTEXT
5
1B1
100
AcDbEntity
8
section_E_E_d
6
CONTINUOUS
62
7
370
0
100
AcDbMText
10
3940
20
3252
30
0
40
64
41
128
71
5
72
1
1
520
7
standard
210
0
220
0
230
1
50
0
73
2
44
1
0
LINE
5
1B2
100
AcDbEntity
8
section_E_E_d
6
CONTINUOUS
62
7
370
0
100
AcDbLine
10
3680
20
3215.02058352
11
3680
21
3201.25
0
LINE
5
1B3
100
AcDbEntity
8
section_E_E_d
6
CONTINUOUS
62
7
370
0
100
AcDbLine
10
4200
20
3215.02058352
11
4200
21
3201.25
0
ENDBLK
5
B9
330
B7
100
AcDbEntity
8
0
100
AcDbBlockEnd
0
BLOCK
5
BB
330
BA
100
AcDbEntity
8
0
100
AcDbBlockBegin
2
*D24
70
1
10
0
20
0
3
*D24
1

0
LINE
5
1B4
100
AcDbEntity
8
section_E_E_d
6
CONTINUOUS
62
7
370
0
100
AcDbLine
10
1715
20
5200
11
2360
21
5200
0
SOLID
5
1B5
100
AcDbEntity
8
section_E_E_d
6
CONTINUOUS
62
7
370
0
100
AcDbTrace
10
1715
20
5200
30
0
11
1765
21
5208.32569316
31
0
12
1765
22
5191.67430684
32
0
13
1765
23
5191.67430684
33
0
0
SOLID
5
1B6
100
AcDbEntity
8
section_E_E_d
6
CONTINUOUS
62
7
370
0
100
AcDbTrace
10
2360
20
5200
30
0
11
2310
21
5191.67430684
31
0
12
2310
22
5208.32569316
32
0
13
2310
23
5208.32569316
33
0
0
MTEXT
5
1B7
100
AcDbEntity
8
section_E_E_d
6
CONTINUOUS
62
7
370
0
100
AcDbMText
10
2037.5
20
5252
30
0
40
64
41
135.111111111
71
5
72
1
1
645
7
standard
210
0
220
0
230
1
50
0
73
2
44
1
0
LINE
5
1B8
100
AcDbEntity
8
section_E_E_d
6
CONTINUOUS
62
7
370
0
100
AcDbLine
10
1715
20
5203.70111847
11
1715
21
5201.25
0
LINE
5
1B9
100
AcDbEntity
8
section_E_E_d
6
CONTINUOUS
62
7
370
0
100
AcDbLine
10
2360
20
5203.70111847
11
2360
21
5201.25
0
ENDBLK
5
BC
330
BA
100
AcDbEntity
8
0
100
AcDbBlockEnd
0
BLOCK
5
BE
330
BD
100
AcDbEntity
8
0
100
AcDbBlockBegin
2
*D27
70
1
10
0
20
0
3
*D27
1

0
LINE
5
1BA
100
AcDbEntity
8
section_E_E_d
6
CONTINUOUS
62
7
370
0
100
AcDbLine
10
1715
20
2000
11
2360
21
2000
0
SOLID
5
1BB
100
AcDbEntity
8
section_E_E_d
6
CONTINUOUS
62
7
370
0
100
AcDbTrace
10
1715
20
2000
30
0
11
1765
21
2008.32569316
31
0
12
1765
22
1991.67430684
32
0
13
1765
23
1991.67430684
33
0
0
SOLID
5
1BC
100
AcDbEntity
8
section_E_E_d
6
CONTINUOUS
62
7
370
0
100
AcDbTrace
10
2360
20
2000
30
0
11
2310
21
1991.67430684
31
0
12
2310
22
2008.32569316
32
0
13
2310
23
2008.32569316
33
0
0
MTEXT
5
1BD
100
AcDbEntity
8
section_E_E_d
6
CONTINUOUS
62
7
370
0
100
AcDbMText
10
2037.5
20
2052
30
0
40
64
41
135.111111111
71
5
72
1
1
645
7
standard
210
0
220
0
230
1
50
0
73
2
44
1
0
LINE
5
1BE
100
AcDbEntity
8
section_E_E_d
6
CONTINUOUS
62
7
370
0
100
AcDbLine
10
1715
20
1987.50974451
11
1715
21
1998.75
0
LINE
5
1BF
100
AcDbEntity
8
section_E_E_d
6
CONTINUOUS
62
7
370
0
100
AcDbLine
10
2360
20
1991.94876356
11
2360
21
1998.75
0
ENDBLK
5
BF
330
BD
100
AcDbEntity
8
0
100
AcDbBlockEnd
0
BLOCK
5
C1
330
C0
100
AcDbEntity
8
0
100
AcDbBlockBegin
2
*D40
70
1
10
0
20
0
3
*D40
1

0
LINE
5
1C0
100
AcDbEntity
8
section_E_E_d
6
CONTINUOUS
62
7
370
0
100
AcDbLine
10
5415
20
2000
11
6040
21
2000
0
SOLID
5
1C1
100
AcDbEntity
8
section_E_E_d
6
CONTINUOUS
62
7
370
0
100
AcDbTrace
10
5415
20
2000
30
0
11
5465
21
2008.32569316
31
0
12
5465
22
1991.67430684
32
0
13
5465
23
1991.67430684
33
0
0
SOLID
5
1C2
100
AcDbEntity
8
section_E_E_d
6
CONTINUOUS
62
7
370
0
100
AcDbTrace
10
6040
20
2000
30
0
11
5990
21
1991.67430684
31
0
12
5990
22
2008.32569316
32
0
13
5990
23
2008.32569316
33
0
0
MTEXT
5
1C3
100
AcDbEntity
8
section_E_E_d
6
CONTINUOUS
62
7
370
0
100
AcDbMText
10
5727.5
20
2052
30
0
40
64
41
128
71
5
72
1
1
625
7
standard
210
0
220
0
230
1
50
0
73
2
44
1
0
LINE
5
1C4
100
AcDbEntity
8
section_E_E_d
6
CONTINUOUS
62
7
370
0
100
AcDbLine
10
5415
20
1980.97328728
11
5415
21
2001.25
0
LINE
5
1C5
100
AcDbEntity
8
section_E_E_d
6
CONTINUOUS
62
7
370
0
100
AcDbLine
10
6040
20
1980.97328728
11
6040
21
2001.25
0
ENDBLK
5
C2
330
C0
100
AcDbEntity
8
0
100
AcDbBlockEnd
0
BLOCK
5
C4
330
C3
100
AcDbEntity
8
0
100
AcDbBlockBegin
2
*D35
70
1
10
0
20
0
3
*D35
1

0
LINE
5
1C6
100
AcDbEntity
8
section_E_E_d
6
CONTINUOUS
62
7
370
0
100
AcDbLine
10
6720
20
3200
11
7300
21
3200
0
SOLID
5
1C7
100
AcDbEntity
8
section_E_E_d
6
CONTINUOUS
62
7
370
0
100
AcDbTrace
10
6720
20
3200
30
0
11
6770
21
3208.32569316
31
0
12
6770
22
3191.67430684
32
0
13
6770
23
3191.67430684
33
0
0
SOLID
5
1C8
100
AcDbEntity
8
section_E_E_d
6
CONTINUOUS
62
7
370
0
100
AcDbTrace
10
7300
20
3200
30
0
11
7250
21
3191.67430684
31
0
12
7250
22
3208.32569316
32
0
13
7250
23
3208.32569316
33
0
0
MTEXT
5
1C9
100
AcDbEntity
8
section_E_E_d
6
CONTINUOUS
62
7
370
0
100
AcDbMText
10
7010
20
3252
30
0
40
64
41
128
71
5
72
1
1
580
7
standard
210
0
220
0
230
1
50
0
73
2
44
1
0
LINE
5
1CA
100
AcDbEntity
8
section_E_E_d
6
CONTINUOUS
62
7
370
0
100
AcDbLine
10
6720
20
3223.89862163
11
6720
21
3201.25
0
LINE
5
1CB
100
AcDbEntity
8
section_E_E_d
6
CONTINUOUS
62
7
370
0
100
AcDbLine
10
7300
20
3215.02058352
11
7300
21
3201.25
0
ENDBLK
5
C5
330
C3
100
AcDbEntity
8
0
100
AcDbBlockEnd
0
BLOCK
5
C7
330
C6
100
AcDbEntity
8
0
100
AcDbBlockBegin
2
*D48
70
1
10
0
20
0
3
*D48
1

0
LINE
5
1CC
100
AcDbEntity
8
section_E_E_d
6
CONTINUOUS
62
7
370
0
100
AcDbLine
10
4200
20
5200
11
4755
21
5200
0
SOLID
5
1CD
100
AcDbEntity
8
section_E_E_d
6
CONTINUOUS
62
7
370
0
100
AcDbTrace
10
4200
20
5200
30
0
11
4250
21
5208.32569316
31
0
12
4250
22
5191.67430684
32
0
13
4250
23
5191.67430684
33
0
0
SOLID
5
1CE
100
AcDbEntity
8
section_E_E_d
6
CONTINUOUS
62
7
370
0
100
AcDbTrace
10
4755
20
5200
30
0
11
4705
21
5191.67430684
31
0
12
4705
22
5208.32569316
32
0
13
4705
23
5208.32569316
33
0
0
MTEXT
5
1CF
100
AcDbEntity
8
section_E_E_d
6
CONTINUOUS
62
7
370
0
100
AcDbMText
10
4477.5
20
5252
30
0
40
64
41
128
71
5
72
1
1
555
7
standard
210
0
220
0
230
1
50
0
73
2
44
1
0
LINE
5
1D0
100
AcDbEntity
8
section_E_E_d
6
CONTINUOUS
62
7
370
0
100
AcDbLine
10
4200
20
5204.81087324
11
4200
21
5201.25
0
LINE
5
1D1
100
AcDbEntity
8
section_E_E_d
6
CONTINUOUS
62
7
370
0
100
AcDbLine
10
4755
20
5188.16455179
11
4755
21
5201.25
0
ENDBLK
5
C8
330
C6
100
AcDbEntity
8
0
100
AcDbBlockEnd
0
BLOCK
5
CA
330
C9
100
AcDbEntity
8
0
100
AcDbBlockBegin
2
*D36
70
1
10
0
20
0
3
*D36
1

0
LINE
5
1D2
100
AcDbEntity
8
section_E_E_d
6
CONTINUOUS
62
7
370
0
100
AcDbLine
10
3020
20
2000
11
3645
21
2000
0
SOLID
5
1D3
100
AcDbEntity
8
section_E_E_d
6
CONTINUOUS
62
7
370
0
100
AcDbTrace
10
3020
20
2000
30
0
11
3070
21
2008.32569316
31
0
12
3070
22
1991.67430684
32
0
13
3070
23
1991.67430684
33
0
0
SOLID
5
1D4
100
AcDbEntity
8
section_E_E_d
6
CONTINUOUS
62
7
370
0
100
AcDbTrace
10
3645
20
2000
30
0
11
3595
21
1991.67430684
31
0
12
3595
22
2008.32569316
32
0
13
3595
23
2008.32569316
33
0
0
MTEXT
5
1D5
100
AcDbEntity
8
section_E_E_d
6
CONTINUOUS
62
7
370
0
100
AcDbMText
10
3332.5
20
2052
30
0
40
64
41
128
71
5
72
1
1
625
7
standard
210
0
220
0
230
1
50
0
73
2
44
1
0
LINE
5
1D6
100
AcDbEntity
8
section_E_E_d
6
CONTINUOUS
62
7
370
0
100
AcDbLine
10
3020
20
1989.85132539
11
3020
21
2001.25
0
LINE
5
1D7
100
AcDbEntity
8
section_E_E_d
6
CONTINUOUS
62
7
370
0
100
AcDbLine
10
3645
20
1994.29034444
11
3645
21
2001.25
0
ENDBLK
5
CB
330
C9
100
AcDbEntity
8
0
100
AcDbBlockEnd
0
BLOCK
5
CD
330
CC
100
AcDbEntity
8
0
100
AcDbBlockBegin
2
*D10
70
1
10
0
20
0
3
*D10
1

0
LINE
5
1D8
100
AcDbEntity
8
section_E_E_d
6
CONTINUOUS
62
7
370
0
100
AcDbLine
10
3065
20
5000
11
5370
21
5000
0
SOLID
5
1D9
100
AcDbEntity
8
section_E_E_d
6
CONTINUOUS
62
7
370
0
100
AcDbTrace
10
3065
20
5000
30
0
11
3115
21
5008.32569316
31
0
12
3115
22
4991.67430684
32
0
13
3115
23
4991.67430684
33
0
0
SOLID
5
1DA
100
AcDbEntity
8
section_E_E_d
6
CONTINUOUS
62
7
370
0
100
AcDbTrace
10
5370
20
5000
30
0
11
5320
21
4991.67430684
31
0
12
5320
22
5008.32569316
32
0
13
5320
23
5008.32569316
33
0
0
MTEXT
5
1DB
100
AcDbEntity
8
section_E_E_d
6
CONTINUOUS
62
7
370
0
100
AcDbMText
10
4217.5
20
5052
30
0
40
64
41
177.777777778
71
5
72
1
1
2305
7
standard
210
0
220
0
230
1
50
0
73
2
44
1
0
LINE
5
1DC
100
AcDbEntity
8
section_E_E_d
6
CONTINUOUS
62
7
370
0
100
AcDbLine
10
3065
20
5018.51046685
11
3065
21
5001.25
0
LINE
5
1DD
100
AcDbEntity
8
section_E_E_d
6
CONTINUOUS
62
7
370
0
100
AcDbLine
10
5370
20
5018.51046685
11
5370
21
5001.25
0
ENDBLK
5
CE
330
CC
100
AcDbEntity
8
0
100
AcDbBlockEnd
0
BLOCK
5
D0
330
CF
100
AcDbEntity
8
0
100
AcDbBlockBegin
2
*D39
70
1
10
0
20
0
3
*D39
1

0
LINE
5
1DE
100
AcDbEntity
8
section_E_E_d
6
CONTINUOUS
62
7
370
0
100
AcDbLine
10
4755
20
2000
11
5415
21
2000
0
SOLID
5
1DF
100
AcDbEntity
8
section_E_E_d
6
CONTINUOUS
62
7
370
0
100
AcDbTrace
10
4755
20
2000
30
0
11
4805
21
2008.32569316
31
0
12
4805
22
1991.67430684
32
0
13
4805
23
1991.67430684
33
0
0
SOLID
5
1E0
100
AcDbEntity
8
section_E_E_d
6
CONTINUOUS
62
7
370
0
100
AcDbTrace
10
5415
20
2000
30
0
11
5365
21
1991.67430684
31
0
12
5365
22
2008.32569316
32
0
13
5365
23
2008.32569316
33
0
0
MTEXT
5
1E1
100
AcDbEntity
8
section_E_E_d
6
CONTINUOUS
62
7
370
0
100
AcDbMText
10
5085
20
2052
30
0
40
64
41
128
71
5
72
1
1
660
7
standard
210
0
220
0
230
1
50
0
73
2
44
1
0
LINE
5
1E2
100
AcDbEntity
8
section_E_E_d
6
CONTINUOUS
62
7
370
0
100
AcDbLine
10
4755
20
1994.29034444
11
4755
21
2001.25
0
LINE
5
1E3
100
AcDbEntity
8
section_E_E_d
6
CONTINUOUS
62
7
370
0
100
AcDbLine
10
5415
20
1985.41230633
11
5415
21
2001.25
0
ENDBLK
5
D1
330
CF
100
AcDbEntity
8
0
100
AcDbBlockEnd
0
BLOCK
5
D3
330
D2
100
AcDbEntity
8
0
100
AcDbBlockBegin
2
*D31
70
1
10
0
20
0
3
*D31
1

0
LINE
5
1E4
100
AcDbEntity
8
section_E_E_d
6
CONTINUOUS
62
7
370
0
100
AcDbLine
10
4235
20
3200
11
4755
21
3200
0
SOLID
5
1E5
100
AcDbEntity
8
section_E_E_d
6
CONTINUOUS
62
7
370
0
100
AcDbTrace
10
4235
20
3200
30
0
11
4285
21
3208.32569316
31
0
12
4285
22
3191.67430684
32
0
13
4285
23
3191.67430684
33
0
0
SOLID
5
1E6
100
AcDbEntity
8
section_E_E_d
6
CONTINUOUS
62
7
370
0
100
AcDbTrace
10
4755
20
3200
30
0
11
4705
21
3191.67430684
31
0
12
4705
22
3208.32569316
32
0
13
4705
23
3208.32569316
33
0
0
MTEXT
5
1E7
100
AcDbEntity
8
section_E_E_d
6
CONTINUOUS
62
7
370
0
100
AcDbMText
10
4495
20
3252
30
0
40
64
41
128
71
5
72
1
1
520
7
standard
210
0
220
0
230
1
50
0
73
2
44
1
0
LINE
5
1E8
100
AcDbEntity
8
section_E_E_d
6
CONTINUOUS
62
7
370
0
100
AcDbLine
10
4235
20
3215.02058352
11
4235
21
3201.25
0
LINE
5
1E9
100
AcDbEntity
8
section_E_E_d
6
CONTINUOUS
62
7
370
0
100
AcDbLine
10
4755
20
3210.58156447
11
4755
21
3201.25
0
ENDBLK
5
D4
330
D2
100
AcDbEntity
8
0
100
AcDbBlockEnd
0
BLOCK
5
D6
330
D5
100
AcDbEntity
8
0
100
AcDbBlockBegin
2
*D11
70
1
10
0
20
0
3
*D11
1

0
LINE
5
1EA
100
AcDbEntity
8
section_E_E_d
6
CONTINUOUS
62
7
370
0
100
AcDbLine
10
500
20
4729
11
500
21
2399
0
SOLID
5
1EB
100
AcDbEntity
8
section_E_E_d
6
CONTINUOUS
62
7
370
0
100
AcDbTrace
10
500
20
4729
30
0
11
508.325693155
21
4679
31
0
12
491.674306845
22
4679
32
0
13
491.674306845
23
4679
33
0
0
SOLID
5
1EC
100
AcDbEntity
8
section_E_E_d
6
CONTINUOUS
62
7
370
0
100
AcDbTrace
10
500
20
2399
30
0
11
491.674306845
21
2449
31
0
12
508.325693155
22
2449
32
0
13
508.325693155
23
2449
33
0
0
MTEXT
5
1ED
100
AcDbEntity
8
section_E_E_d
6
CONTINUOUS
62
7
370
0
100
AcDbMText
10
448
20
3564
30
0
40
64
41
177.777777778
71
5
72
1
1
2330
7
standard
210
0
220
0
230
1
50
90
73
2
44
1
0
LINE
5
1EE
100
AcDbEntity
8
section_E_E_d
6
CONTINUOUS
62
7
370
0
100
AcDbLine
10
507.74067852
20
4729
11
501.25
21
4729
0
LINE
5
1EF
100
AcDbEntity
8
section_E_E_d
6
CONTINUOUS
62
7
370
0
100
AcDbLine
10
507.74067852
20
2399
11
501.25
21
2399
0
ENDBLK
5
D7
330
D5
100
AcDbEntity
8
0
100
AcDbBlockEnd
0
BLOCK
5
D9
330
D8
100
AcDbEntity
8
0
100
AcDbBlockBegin
2
*D2
70
1
10
0
20
0
3
*D2
1

0
LINE
5
1F0
100
AcDbEntity
8
section_E_E_d
6
CONTINUOUS
62
7
370
0
100
AcDbLine
10
3020
20
1800
11
5415
21
1800
0
SOLID
5
1F1
100
AcDbEntity
8
section_E_E_d
6
CONTINUOUS
62
7
370
0
100
AcDbTrace
10
3020
20
1800
30
0
11
3070
21
1808.32569316
31
0
12
3070
22
1791.67430684
32
0
13
3070
23
1791.67430684
33
0
0
SOLID
5
1F2
100
AcDbEntity
8
section_E_E_d
6
CONTINUOUS
62
7
370
0
100
AcDbTrace
10
5415
20
1800
30
0
11
5365
21
1791.67430684
31
0
12
5365
22
1808.32569316
32
0
13
5365
23
1808.32569316
33
0
0
MTEXT
5
1F3
100
AcDbEntity
8
section_E_E_d
6
CONTINUOUS
62
7
370
0
100
AcDbMText
10
4217.5
20
1852
30
0
40
64
41
177.777777778
71
5
72
1
1
2395
7
standard
210
0
220
0
230
1
50
0
73
2
44
1
0
LINE
5
1F4
100
AcDbEntity
8
section_E_E_d
6
CONTINUOUS
62
7
370
0
100
AcDbLine
10
3020
20
1797.56344268
11
3020
21
1798.75
0
LINE
5
1F5
100
AcDbEntity
8
section_E_E_d
6
CONTINUOUS
62
7
370
0
100
AcDbLine
10
5415
20
1809.28160405
11
5415
21
1798.75
0
ENDBLK
5
DA
330
D8
100
AcDbEntity
8
0
100
AcDbBlockEnd
0
BLOCK
5
DC
330
DB
100
AcDbEntity
8
0
100
AcDbBlockBegin
2
*D28
70
1
10
0
20
0
3
*D28
1

0
LINE
5
1F6
100
AcDbEntity
8
section_E_E_d
6
CONTINUOUS
62
7
370
0
100
AcDbLine
10
2360
20
2000
11
3020
21
2000
0
SOLID
5
1F7
100
AcDbEntity
8
section_E_E_d
6
CONTINUOUS
62
7
370
0
100
AcDbTrace
10
2360
20
2000
30
0
11
2410
21
2008.32569316
31
0
12
2410
22
1991.67430684
32
0
13
2410
23
1991.67430684
33
0
0
SOLID
5
1F8
100
AcDbEntity
8
section_E_E_d
6
CONTINUOUS
62
7
370
0
100
AcDbTrace
10
3020
20
2000
30
0
11
2970
21
1991.67430684
31
0
12
2970
22
2008.32569316
32
0
13
2970
23
2008.32569316
33
0
0
MTEXT
5
1F9
100
AcDbEntity
8
section_E_E_d
6
CONTINUOUS
62
7
370
0
100
AcDbMText
10
2690
20
2052
30
0
40
64
41
128
71
5
72
1
1
660
7
standard
210
0
220
0
230
1
50
0
73
2
44
1
0
LINE
5
1FA
100
AcDbEntity
8
section_E_E_d
6
CONTINUOUS
62
7
370
0
100
AcDbLine
10
2360
20
1991.94876356
11
2360
21
1998.75
0
LINE
5
1FB
100
AcDbEntity
8
section_E_E_d
6
CONTINUOUS
62
7
370
0
100
AcDbLine
10
3020
20
2000.82680167
11
3020
21
1998.75
0
ENDBLK
5
DD
330
DB
100
AcDbEntity
8
0
100
AcDbBlockEnd
0
BLOCK
5
DF
330
DE
100
AcDbEntity
8
0
100
AcDbBlockBegin
2
a3-0
70
0
10
0
20
0
3
a3-0
1

0
LINE
5
1FC
100
AcDbEntity
8
0
6
ByLayer
62
256
370
-1
100
AcDbLine
10
4100
20
2870
11
4100
21
100
0
LINE
5
1FD
100
AcDbEntity
8
0
6
ByLayer
62
256
370
-1
100
AcDbLine
10
200
20
2870
11
200
21
100
0
LINE
5
1FE
100
AcDbEntity
8
0
6
ByLayer
62
256
370
-1
100
AcDbLine
10
200
20
100
11
4100
21
100
0
LINE
5
1FF
100
AcDbEntity
8
0
6
ByLayer
62
256
370
-1
100
AcDbLine
10
2500
20
600.001
11
4100
21
600
0
LINE
5
200
100
AcDbEntity
8
0
6
ByLayer
62
256
370
-1
100
AcDbLine
10
2500
20
500
11
4100
21
500
0
LINE
5
201
100
AcDbEntity
8
0
6
ByLayer
62
256
370
-1
100
AcDbLine
10
2500
20
600.001
11
2500
21
100
0
LINE
5
202
100
AcDbEntity
8
0
6
ByLayer
62
256
370
-1
100
AcDbLine
10
2500
20
300.001
11
4100
21
300
0
LINE
5
203
100
AcDbEntity
8
0
6
ByLayer
62
256
370
-1
100
AcDbLine
10
2900
20
600.001
11
2900
21
100
0
LINE
5
204
100
AcDbEntity
8
0
6
ByLayer
62
256
370
-1
100
AcDbLine
10
3200
20
600.001
11
3200
21
100
0
LINE
5
205
100
AcDbEntity
8
0
6
ByLayer
62
7
370
-1
100
AcDbLine
10
3200
20
200
11
3900
21
200
0
LINE
5
206
100
AcDbEntity
8
0
6
ByLayer
62
256
370
-1
100
AcDbLine
10
3900
20
300
11
3900
21
100
0
LINE
5
207
100
AcDbEntity
8
0
6
ByLayer
62
7
370
-1
100
AcDbLine
10
3500
20
300
11
3500
21
100
0
MTEXT
5
208
100
AcDbEntity
8
0
6
ByLayer
62
256
370
-1
100
AcDbMText
10
3231.449088
20
269.746176
30
0
40
40
41
233.333324853
71
1
72
5
1
SIZE  A3
7
iso
210
0
220
0
230
1
50
0
73
2
44
0.96
0
MTEXT
5
209
100
AcDbEntity
8
0
6
ByLayer
62
256
370
-1
100
AcDbMText
10
3229.61408
20
174.32576
30
0
40
40
41
243.333324853
71
1
72
5
1
SCALE 1:1
7
iso
210
0
220
0
230
1
50
0
73
2
44
0.96
0
MTEXT
5
20A
100
AcDbEntity
8
0
6
ByLayer
62
256
370
-1
100
AcDbMText
10
3609.460736
20
166.985728
30
0
40
40
41
168.888880409
71
1
72
5
1
AS1100
7
iso
210
0
220
0
230
1
50
0
73
2
44
0.96
0
MTEXT
5
20B
100
AcDbEntity
8
0
6
ByLayer
62
256
370
-1
100
AcDbMText
10
3444.310016
20
433.061888
30
0
40
60
41
365
71
1
72
5
1
ANDY XU
7
iso
210
0
220
0
230
1
50
0
73
2
44
0.96
0
LINE
5
20C
100
AcDbEntity
8
0
6
ByLayer
62
256
370
-1
100
AcDbLine
10
200
20
2870
11
4100
21
2870
0
LINE
5
20D
100
AcDbEntity
8
0
6
ByLayer
62
256
370
-1
100
AcDbLine
10
2500
20
400
11
3200
21
400
0
LINE
5
20E
100
AcDbEntity
8
0
6
ByLayer
62
256
370
-1
100
AcDbLine
10
2500
20
350
11
3200
21
350
0
LINE
5
20F
100
AcDbEntity
8
0
6
ByLayer
62
256
370
-1
100
AcDbLine
10
2500
20
450.001
11
3200
21
450.001
0
LINE
5
210
100
AcDbEntity
8
0
6
ByLayer
62
256
370
-1
100
AcDbLine
10
3048
20
228
11
3048
21
172
0
CIRCLE
5
211
100
AcDbEntity
8
0
6
ByLayer
62
256
370
-1
100
AcDbCircle
10
3112
20
200
40
28
0
LINE
5
212
100
AcDbEntity
8
0
6
ByLayer
62
256
370
-1
100
AcDbLine
10
2960
20
200
11
3160
21
200
0
LINE
5
213
100
AcDbEntity
8
0
6
ByLayer
62
256
370
-1
100
AcDbLine
10
2984
20
216
11
3048
21
228
0
LINE
5
214
100
AcDbEntity
8
0
6
ByLayer
62
256
370
-1
100
AcDbLine
10
2984
20
184
11
3048
21
172
0
LINE
5
215
100
AcDbEntity
8
0
6
ByLayer
62
256
370
-1
100
AcDbLine
10
2984
20
216
11
2984
21
184
0
LINE
5
216
100
AcDbEntity
8
0
6
ByLayer
62
256
370
-1
100
AcDbLine
10
3112
20
152
11
3112
21
248
0
CIRCLE
5
217
100
AcDbEntity
8
0
6
ByLayer
62
256
370
-1
100
AcDbCircle
10
3112
20
200
40
16
0
MTEXT
5
218
100
AcDbEntity
8
0
6
ByLayer
62
256
370
-1
100
AcDbMText
10
3920
20
248.333332468
30
0
40
30
41
103.344762494
71
7
72
5
1
sheet
7
normal#0.500000#0.900000
210
0
220
0
230
1
50
0
73
1
44
0.96
0
ENDBLK
5
E0
330
DE
100
AcDbEntity
8
0
100
AcDbBlockEnd
0
BLOCK
5
E2
330
E1
100
AcDbEntity
8
0
100
AcDbBlockBegin
2
A3_Xu-0
70
0
10
0
20
0
3
A3_Xu-0
1

0
INSERT
5
219
100
AcDbEntity
8
0
6
ByLayer
62
256
370
-1
100
AcDbBlockReference
2
a3-0
10
0
20
0
30
0
41
1
42
1
43
0
50
0
70
1
71
1
44
0
45
0
0
ENDBLK
5
E3
330
E1
100
AcDbEntity
8
0
100
AcDbBlockEnd
0
ENDSEC
0
SECTION
2
ENTITIES
0
HATCH
5
21A
100
AcDbEntity
8
Foundation
6
ByLayer
62
256
370
-1
100
AcDbHatch
10
0
20
0
30
0
210
0
220
0
230
1
2
kerpele
70
0
71
0
91
1
92
0
93
4
72
1
10
5142
20
2105
11
5348
21
2105
72
1
10
5348
20
2105
11
5348
21
1985
72
1
10
5348
20
1985
11
5142
21
1985
72
1
10
5142
20
1985
11
5142
21
2105
97
0
75
0
76
1
52
0
41
1
77
0
78
0
98
0
0
HATCH
5
21B
100
AcDbEntity
8
Foundation
6
ByLayer
62
256
370
-1
100
AcDbHatch
10
0
20
0
30
0
210
0
220
0
230
1
2
kerpele
70
0
71
0
91
1
92
0
93
4
72
1
10
3087
20
2105
11
3293
21
2105
72
1
10
3293
20
2105
11
3293
21
1985
72
1
10
3293
20
1985
11
3087
21
1985
72
1
10
3087
20
1985
11
3087
21
2105
97
0
75
0
76
1
52
0
41
1
77
0
78
0
98
0
0
HATCH
5
21C
100
AcDbEntity
8
Foundation
6
ByLayer
62
256
370
-1
100
AcDbHatch
10
0
20
0
30
0
210
0
220
0
230
1
2
kerpele
70
0
71
0
91
1
92
0
93
4
72
1
10
1112
20
2105
11
1318
21
2105
72
1
10
1318
20
2105
11
1318
21
1985
72
1
10
1318
20
1985
11
1112
21
1985
72
1
10
1112
20
1985
11
1112
21
2105
97
0
75
0
76
1
52
0
41
1
77
0
78
0
98
0
0
HATCH
5
21D
100
AcDbEntity
8
Foundation
6
ByLayer
62
256
370
-1
100
AcDbHatch
10
0
20
0
30
0
210
0
220
0
230
1
2
kerpele
70
0
71
0
91
1
92
0
93
4
72
1
10
7117
20
2105
11
7323
21
2105
72
1
10
7323
20
2105
11
7323
21
1985
72
1
10
7323
20
1985
11
7117
21
1985
72
1
10
7117
20
1985
11
7117
21
2105
97
0
75
0
76
1
52
0
41
1
77
0
78
0
98
0
0
HATCH
5
21E
100
AcDbEntity
8
Foundation
6
ByLayer
62
256
370
-1
100
AcDbHatch
10
0
20
0
30
0
210
0
220
0
230
1
2
kerpele
70
0
71
0
91
1
92
0
93
4
72
1
10
1100
20
2364
11
1100
21
2345
72
1
10
1100
20
2345
11
7335
21
2345
72
1
10
7335
20
2345
11
7335
21
2364
72
1
10
7335
20
2364
11
1100
21
2364
97
0
75
0
76
1
52
0
41
1
77
0
78
0
98
0
0
INSERT
5
21F
100
AcDbEntity
8
0
6
ByLayer
62
256
370
-1
100
AcDbBlockReference
2
A3_Xu-0
10
-440
20
-220
30
0
41
2.2
42
2.2
43
0
50
0
70
1
71
1
44
0
45
0
0
LINE
5
220
100
AcDbEntity
8
Foundation
6
ByLayer
62
256
370
-1
100
AcDbLine
10
7335
20
2364
11
7335
21
2345
0
LINE
5
221
100
AcDbEntity
8
Foundation
6
ByLayer
62
256
370
-1
100
AcDbLine
10
1100
20
2345
11
7335
21
2345
0
LINE
5
222
100
AcDbEntity
8
Foundation
6
ByLayer
62
256
370
-1
100
AcDbLine
10
7335
20
2364
11
7335
21
2345
0
LINE
5
223
100
AcDbEntity
8
Foundation
6
ByLayer
62
256
370
-1
100
AcDbLine
10
1100
20
2345
11
7335
21
2345
0
LINE
5
224
100
AcDbEntity
8
Foundation
6
ByLayer
62
256
370
-1
100
AcDbLine
10
1100
20
2364
11
7335
21
2364
0
LINE
5
225
100
AcDbEntity
8
section_E_E
6
ByLayer
62
256
370
-1
100
AcDbLine
10
1100
20
2399
11
1100
21
2364
0
LINE
5
226
100
AcDbEntity
8
section_E_E
6
ByLayer
62
256
370
-1
100
AcDbLine
10
1100
20
2399
11
3020
21
2399
0
LINE
5
227
100
AcDbEntity
8
section_E_E
6
ByLayer
62
256
370
-1
100
AcDbLine
10
5415
20
2399
11
7335
21
2399
0
LINE
5
228
100
AcDbEntity
8
section_E_E
6
ByLayer
62
256
370
-1
100
AcDbLine
10
3020
20
2399
11
5415
21
2399
0
LINE
5
229
100
AcDbEntity
8
section_E_E
6
ByLayer
62
256
370
-1
100
AcDbLine
10
1100
20
2364
11
7335
21
2364
0
CIRCLE
5
22A
100
AcDbEntity
8
section_E_E_d
6
ByLayer
62
256
370
-1
100
AcDbCircle
10
3020
20
1314
40
100
0
LINE
5
22B
100
AcDbEntity
8
section_E_E_d
6
CENTER2
62
256
370
-1
100
AcDbLine
10
3020
20
2264
11
3020
21
1414
0
CIRCLE
5
22C
100
AcDbEntity
8
section_E_E_d
6
ByLayer
62
256
370
-1
100
AcDbCircle
10
5415
20
1314
40
100
0
LINE
5
22D
100
AcDbEntity
8
section_E_E_d
6
CENTER2
62
256
370
-1
100
AcDbLine
10
5415
20
2264
11
5415
21
1414
0
MTEXT
5
22E
100
AcDbEntity
8
section_E_E_d
6
ByLayer
62
256
370
-1
100
AcDbMText
10
3000
20
1364
30
0
40
96
41
53.3333333333
71
1
72
1
1
4
7
standard
210
0
220
0
230
1
50
0
73
2
44
1
0
MTEXT
5
22F
100
AcDbEntity
8
section_E_E_d
6
ByLayer
62
256
370
-1
100
AcDbMText
10
5395
20
1364
30
0
40
96
41
42.6666666667
71
1
72
1
1
8
7
standard
210
0
220
0
230
1
50
0
73
2
44
1
0
CIRCLE
5
230
100
AcDbEntity
8
section_E_E_d
6
ByLayer
62
256
370
-1
100
AcDbCircle
10
1100
20
1314
40
100
0
LINE
5
231
100
AcDbEntity
8
section_E_E_d
6
CENTER2
62
256
370
-1
100
AcDbLine
10
1100
20
2264
11
1100
21
1414
0
MTEXT
5
232
100
AcDbEntity
8
section_E_E_d
6
ByLayer
62
256
370
-1
100
AcDbMText
10
1080
20
1364
30
0
40
96
41
21.3333333333
71
1
72
1
1
1
7
standard
210
0
220
0
230
1
50
0
73
2
44
1
0
CIRCLE
5
233
100
AcDbEntity
8
section_E_E_d
6
ByLayer
62
256
370
-1
100
AcDbCircle
10
4200
20
1314
40
100
0
LINE
5
234
100
AcDbEntity
8
section_E_E_d
6
CENTER2
62
256
370
-1
100
AcDbLine
10
4200
20
2264
11
4200
21
1414
0
MTEXT
5
235
100
AcDbEntity
8
section_E_E_d
6
ByLayer
62
256
370
-1
100
AcDbMText
10
4180
20
1364
30
0
40
96
41
42.6666666667
71
1
72
1
1
6
7
standard
210
0
220
0
230
1
50
0
73
2
44
1
0
CIRCLE
5
236
100
AcDbEntity
8
section_E_E_d
6
ByLayer
62
256
370
-1
100
AcDbCircle
10
7335
20
1314
40
100
0
LINE
5
237
100
AcDbEntity
8
section_E_E_d
6
CENTER2
62
256
370
-1
100
AcDbLine
10
7335
20
2264
11
7335
21
1414
0
MTEXT
5
238
100
AcDbEntity
8
section_E_E_d
6
ByLayer
62
256
370
-1
100
AcDbMText
10
7287.5
20
1360
30
0
40
96
41
74.6666666667
71
1
72
1
1
11
7
standard
210
0
220
0
230
1
50
0
73
2
44
1
0
DIMENSION
5
239
100
AcDbEntity
8
section_E_E_d
6
ByLayer
62
256
370
-1
100
AcDbDimension
2
*D1
10
7335
20
1800
30
0
11
6375
21
1852
31
0
70
32
71
5
72
0
3
Standard
53
0
210
0
220
0
230
1
100
AcDbAlignedDimension
13
5415
23
1867.09371163
33
0
14
7335
24
1863.18765784
34
0
100
AcDbRotatedDimension
0
DIMENSION
5
23A
100
AcDbEntity
8
section_E_E_d
6
ByLayer
62
256
370
-1
100
AcDbDimension
2
*D2
10
5415
20
1800
30
0
11
4217.5
21
1852
31
0
70
32
71
5
72
0
3
Standard
53
0
210
0
220
0
230
1
100
AcDbAlignedDimension
13
3020
23
1847.56344268
33
0
14
5415
24
1859.28160405
34
0
100
AcDbRotatedDimension
0
DIMENSION
5
23B
100
AcDbEntity
8
section_E_E_d
6
ByLayer
62
256
370
-1
100
AcDbDimension
2
*D3
10
3020
20
1800
30
0
11
2060
21
1852
31
0
70
32
71
5
72
0
3
Standard
53
0
210
0
220
0
230
1
100
AcDbAlignedDimension
13
1100
23
1845.61041578
33
0
14
3020
24
1845.61041578
34
0
100
AcDbRotatedDimension
0
DIMENSION
5
23C
100
AcDbEntity
8
section_E_E_d
6
ByLayer
62
256
370
-1
100
AcDbDimension
2
*D4
10
7335
20
1600
30
0
11
4217.5
21
1652
31
0
70
32
71
5
72
0
3
Standard
53
0
210
0
220
0
230
1
100
AcDbAlignedDimension
13
1100
23
1655.19029352
33
0
14
7335
24
1655.19029352
34
0
100
AcDbRotatedDimension
0
LINE
5
23D
100
AcDbEntity
8
section_E_E_d
6
ByLayer
62
256
370
-1
100
AcDbLine
10
5060
20
1.7763568394e-14
11
3374
21
1.7763568394e-14
0
LINE
5
23E
100
AcDbEntity
8
section_E_E_d
6
ByLayer
62
256
370
-1
100
AcDbLine
10
3374
20
1.7763568394e-14
11
3374
21
110
0
LINE
5
23F
100
AcDbEntity
8
section_E_E_d
6
ByLayer
62
256
370
-1
100
AcDbLine
10
3374
20
110
11
5060
21
110
0
LINE
5
240
100
AcDbEntity
8
section_E_E_d
6
ByLayer
62
256
370
-1
100
AcDbLine
10
5060
20
110
11
5060
21
1.7763568394e-14
0
LINE
5
241
100
AcDbEntity
8
section_E_E_d
6
ByLayer
62
256
370
-1
100
AcDbLine
10
3374
20
110
11
3374
21
220
0
LINE
5
242
100
AcDbEntity
8
section_E_E_d
6
ByLayer
62
256
370
-1
100
AcDbLine
10
3374
20
220
11
5060
21
220
0
LINE
5
243
100
AcDbEntity
8
section_E_E_d
6
ByLayer
62
256
370
-1
100
AcDbLine
10
5060
20
220
11
5060
21
110
0
LINE
5
244
100
AcDbEntity
8
section_E_E_d
6
ByLayer
62
256
370
-1
100
AcDbLine
10
3374
20
220
11
3374
21
330
0
LINE
5
245
100
AcDbEntity
8
section_E_E_d
6
ByLayer
62
256
370
-1
100
AcDbLine
10
3374
20
330
11
5060
21
330
0
LINE
5
246
100
AcDbEntity
8
section_E_E_d
6
ByLayer
62
256
370
-1
100
AcDbLine
10
5060
20
330
11
5060
21
220
0
LINE
5
247
100
AcDbEntity
8
section_E_E_d
6
ByLayer
62
256
370
-1
100
AcDbLine
10
3374
20
330
11
3374
21
440
0
LINE
5
248
100
AcDbEntity
8
section_E_E_d
6
ByLayer
62
256
370
-1
100
AcDbLine
10
3374
20
440
11
5060
21
440
0
LINE
5
249
100
AcDbEntity
8
section_E_E_d
6
ByLayer
62
256
370
-1
100
AcDbLine
10
5060
20
440
11
5060
21
330
0
LINE
5
24A
100
AcDbEntity
8
section_E_E_d
6
ByLayer
62
256
370
-1
100
AcDbLine
10
3374
20
440
11
3374
21
550
0
LINE
5
24B
100
AcDbEntity
8
section_E_E_d
6
ByLayer
62
256
370
-1
100
AcDbLine
10
3374
20
550
11
5060
21
550
0
LINE
5
24C
100
AcDbEntity
8
section_E_E_d
6
ByLayer
62
256
370
-1
100
AcDbLine
10
5060
20
550
11
5060
21
440
0
LINE
5
24D
100
AcDbEntity
8
section_E_E_d
6
ByLayer
62
256
370
-1
100
AcDbLine
10
3374
20
550
11
3374
21
660
0
LINE
5
24E
100
AcDbEntity
8
section_E_E_d
6
ByLayer
62
256
370
-1
100
AcDbLine
10
3374
20
660
11
5060
21
660
0
LINE
5
24F
100
AcDbEntity
8
section_E_E_d
6
ByLayer
62
256
370
-1
100
AcDbLine
10
5060
20
660
11
5060
21
550
0
LINE
5
250
100
AcDbEntity
8
section_E_E_d
6
ByLayer
62
256
370
-1
100
AcDbLine
10
3374
20
660
11
3374
21
770
0
LINE
5
251
100
AcDbEntity
8
section_E_E_d
6
ByLayer
62
256
370
-1
100
AcDbLine
10
3374
20
770
11
5060
21
770
0
LINE
5
252
100
AcDbEntity
8
section_E_E_d
6
ByLayer
62
256
370
-1
100
AcDbLine
10
5060
20
770
11
5060
21
660
0
LINE
5
253
100
AcDbEntity
8
section_E_E_d
6
ByLayer
62
256
370
-1
100
AcDbLine
10
3374
20
770
11
3374
21
880
0
LINE
5
254
100
AcDbEntity
8
section_E_E_d
6
ByLayer
62
256
370
-1
100
AcDbLine
10
3374
20
880
11
5060
21
880
0
LINE
5
255
100
AcDbEntity
8
section_E_E_d
6
ByLayer
62
256
370
-1
100
AcDbLine
10
5060
20
880
11
5060
21
770
0
MTEXT
5
256
100
AcDbEntity
8
section_E_E_d
6
ByLayer
62
256
370
-1
100
AcDbMText
10
3400
20
860
30
0
40
64
41
419.555541987
71
1
72
1
1
DEMINSION
7
standard
210
0
220
0
230
1
50
0
73
2
44
1
0
LINE
5
257
100
AcDbEntity
8
section_E_E_d
6
ByLayer
62
256
370
-1
100
AcDbLine
10
3843.006957
20
880
11
3843.006957
21
1.7763568394e-14
0
MTEXT
5
258
100
AcDbEntity
8
section_E_E_d
6
ByLayer
62
256
370
-1
100
AcDbMText
10
3870
20
860
30
0
40
64
41
298.666666667
71
1
72
1
1
DEGREE
7
standard
210
0
220
0
230
1
50
0
73
2
44
1
0
LINE
5
259
100
AcDbEntity
8
section_E_E_d
6
ByLayer
62
256
370
-1
100
AcDbLine
10
4180.98677951
20
880
11
4180.98677951
21
1.7763568394e-14
0
MTEXT
5
25A
100
AcDbEntity
8
section_E_E_d
6
ByLayer
62
256
370
-1
100
AcDbMText
10
4720
20
860
30
0
40
64
41
320
71
1
72
1
1
NUMBER
7
standard
210
0
220
0
230
1
50
0
73
2
44
1
0
LINE
5
25B
100
AcDbEntity
8
section_E_E_d
6
ByLayer
62
256
370
-1
100
AcDbLine
10
4700.45203569
20
880
11
4700.45203569
21
1.7763568394e-14
0
MTEXT
5
25C
100
AcDbEntity
8
section_E_E_d
6
ByLayer
62
256
370
-1
100
AcDbMText
10
4280
20
860
30
0
40
64
41
305.777777778
71
1
72
1
1
LENGTH
7
standard
210
0
220
0
230
1
50
0
73
2
44
1
0
LINE
5
25D
100
AcDbEntity
8
section_E_E_d
6
ByLayer
62
256
370
-1
100
AcDbLine
10
3374
20
1.7763568394e-14
11
1688
21
1.7763568394e-14
0
LINE
5
25E
100
AcDbEntity
8
section_E_E_d
6
ByLayer
62
256
370
-1
100
AcDbLine
10
1688
20
1.7763568394e-14
11
1688
21
110
0
LINE
5
25F
100
AcDbEntity
8
section_E_E_d
6
ByLayer
62
256
370
-1
100
AcDbLine
10
1688
20
110
11
3374
21
110
0
LINE
5
260
100
AcDbEntity
8
section_E_E_d
6
ByLayer
62
256
370
-1
100
AcDbLine
10
3374
20
110
11
3374
21
1.7763568394e-14
0
LINE
5
261
100
AcDbEntity
8
section_E_E_d
6
ByLayer
62
256
370
-1
100
AcDbLine
10
1688
20
110
11
1688
21
220
0
LINE
5
262
100
AcDbEntity
8
section_E_E_d
6
ByLayer
62
256
370
-1
100
AcDbLine
10
1688
20
220
11
3374
21
220
0
LINE
5
263
100
AcDbEntity
8
section_E_E_d
6
ByLayer
62
256
370
-1
100
AcDbLine
10
3374
20
220
11
3374
21
110
0
LINE
5
264
100
AcDbEntity
8
section_E_E_d
6
ByLayer
62
256
370
-1
100
AcDbLine
10
1688
20
220
11
1688
21
330
0
LINE
5
265
100
AcDbEntity
8
section_E_E_d
6
ByLayer
62
256
370
-1
100
AcDbLine
10
1688
20
330
11
3374
21
330
0
LINE
5
266
100
AcDbEntity
8
section_E_E_d
6
ByLayer
62
256
370
-1
100
AcDbLine
10
3374
20
330
11
3374
21
220
0
LINE
5
267
100
AcDbEntity
8
section_E_E_d
6
ByLayer
62
256
370
-1
100
AcDbLine
10
1688
20
330
11
1688
21
440
0
LINE
5
268
100
AcDbEntity
8
section_E_E_d
6
ByLayer
62
256
370
-1
100
AcDbLine
10
1688
20
440
11
3374
21
440
0
LINE
5
269
100
AcDbEntity
8
section_E_E_d
6
ByLayer
62
256
370
-1
100
AcDbLine
10
3374
20
440
11
3374
21
330
0
LINE
5
26A
100
AcDbEntity
8
section_E_E_d
6
ByLayer
62
256
370
-1
100
AcDbLine
10
1688
20
440
11
1688
21
550
0
LINE
5
26B
100
AcDbEntity
8
section_E_E_d
6
ByLayer
62
256
370
-1
100
AcDbLine
10
1688
20
550
11
3374
21
550
0
LINE
5
26C
100
AcDbEntity
8
section_E_E_d
6
ByLayer
62
256
370
-1
100
AcDbLine
10
3374
20
550
11
3374
21
440
0
LINE
5
26D
100
AcDbEntity
8
section_E_E_d
6
ByLayer
62
256
370
-1
100
AcDbLine
10
1688
20
550
11
1688
21
660
0
LINE
5
26E
100
AcDbEntity
8
section_E_E_d
6
ByLayer
62
256
370
-1
100
AcDbLine
10
1688
20
660
11
3374
21
660
0
LINE
5
26F
100
AcDbEntity
8
section_E_E_d
6
ByLayer
62
256
370
-1
100
AcDbLine
10
3374
20
660
11
3374
21
550
0
LINE
5
270
100
AcDbEntity
8
section_E_E_d
6
ByLayer
62
256
370
-1
100
AcDbLine
10
1688
20
660
11
1688
21
770
0
LINE
5
271
100
AcDbEntity
8
section_E_E_d
6
ByLayer
62
256
370
-1
100
AcDbLine
10
1688
20
770
11
3374
21
770
0
LINE
5
272
100
AcDbEntity
8
section_E_E_d
6
ByLayer
62
256
370
-1
100
AcDbLine
10
3374
20
770
11
3374
21
660
0
LINE
5
273
100
AcDbEntity
8
section_E_E_d
6
ByLayer
62
256
370
-1
100
AcDbLine
10
1688
20
770
11
1688
21
880
0
LINE
5
274
100
AcDbEntity
8
section_E_E_d
6
ByLayer
62
256
370
-1
100
AcDbLine
10
1688
20
880
11
3374
21
880
0
LINE
5
275
100
AcDbEntity
8
section_E_E_d
6
ByLayer
62
256
370
-1
100
AcDbLine
10
3374
20
880
11
3374
21
770
0
MTEXT
5
276
100
AcDbEntity
8
section_E_E_d
6
ByLayer
62
256
370
-1
100
AcDbMText
10
1714
20
860
30
0
40
64
41
419.555541987
71
1
72
1
1
DEMINSION
7
standard
210
0
220
0
230
1
50
0
73
2
44
1
0
LINE
5
277
100
AcDbEntity
8
section_E_E_d
6
ByLayer
62
256
370
-1
100
AcDbLine
10
2157.006957
20
880
11
2157.006957
21
1.7763568394e-14
0
MTEXT
5
278
100
AcDbEntity
8
section_E_E_d
6
ByLayer
62
256
370
-1
100
AcDbMText
10
2184
20
860
30
0
40
64
41
298.666666667
71
1
72
1
1
DEGREE
7
standard
210
0
220
0
230
1
50
0
73
2
44
1
0
LINE
5
279
100
AcDbEntity
8
section_E_E_d
6
ByLayer
62
256
370
-1
100
AcDbLine
10
2494.98677951
20
880
11
2494.98677951
21
1.7763568394e-14
0
MTEXT
5
27A
100
AcDbEntity
8
section_E_E_d
6
ByLayer
62
256
370
-1
100
AcDbMText
10
3034
20
860
30
0
40
64
41
320
71
1
72
1
1
NUMBER
7
standard
210
0
220
0
230
1
50
0
73
2
44
1
0
LINE
5
27B
100
AcDbEntity
8
section_E_E_d
6
ByLayer
62
256
370
-1
100
AcDbLine
10
3014.45203569
20
880
11
3014.45203569
21
1.7763568394e-14
0
MTEXT
5
27C
100
AcDbEntity
8
section_E_E_d
6
ByLayer
62
256
370
-1
100
AcDbMText
10
2594
20
860
30
0
40
64
41
305.777777778
71
1
72
1
1
LENGTH
7
standard
210
0
220
0
230
1
50
0
73
2
44
1
0
MTEXT
5
27D
100
AcDbEntity
8
section_E_E_d
6
ByLayer
62
256
370
-1
100
AcDbMText
10
1790
20
750
30
0
40
64
41
234.666666667
71
1
72
1
1
90x45
7
standard
210
0
220
0
230
1
50
0
73
2
44
1
0
MTEXT
5
27E
100
AcDbEntity
8
section_E_E_d
6
ByLayer
62
256
370
-1
100
AcDbMText
10
1790
20
640
30
0
40
64
41
227.555555556
71
1
72
1
1
90x35
7
standard
210
0
220
0
230
1
50
0
73
2
44
1
0
MTEXT
5
27F
100
AcDbEntity
8
section_E_E_d
6
ByLayer
62
256
370
-1
100
AcDbMText
10
1790
20
530
30
0
40
64
41
227.555555556
71
1
72
1
1
90x35
7
standard
210
0
220
0
230
1
50
0
73
2
44
1
0
MTEXT
5
280
100
AcDbEntity
8
section_E_E_d
6
ByLayer
62
256
370
-1
100
AcDbMText
10
1790
20
420
30
0
40
64
41
227.555555556
71
1
72
1
1
90x35
7
standard
210
0
220
0
230
1
50
0
73
2
44
1
0
MTEXT
5
281
100
AcDbEntity
8
section_E_E_d
6
ByLayer
62
256
370
-1
100
AcDbMText
10
1790
20
310
30
0
40
64
41
227.555555556
71
1
72
1
1
90x35
7
standard
210
0
220
0
230
1
50
0
73
2
44
1
0
MTEXT
5
282
100
AcDbEntity
8
section_E_E_d
6
ByLayer
62
256
370
-1
100
AcDbMText
10
1790
20
200
30
0
40
64
41
227.555555556
71
1
72
1
1
90x35
7
standard
210
0
220
0
230
1
50
0
73
2
44
1
0
MTEXT
5
283
100
AcDbEntity
8
section_E_E_d
6
ByLayer
62
256
370
-1
100
AcDbMText
10
1790
20
90
30
0
40
64
41
227.555555556
71
1
72
1
1
90x35
7
standard
210
0
220
0
230
1
50
0
73
2
44
1
0
MTEXT
5
284
100
AcDbEntity
8
section_E_E_d
6
ByLayer
62
256
370
-1
100
AcDbMText
10
3480
20
750
30
0
40
64
41
227.555555556
71
1
72
1
1
90x35
7
standard
210
0
220
0
230
1
50
0
73
2
44
1
0
MTEXT
5
285
100
AcDbEntity
8
section_E_E_d
6
ByLayer
62
256
370
-1
100
AcDbMText
10
3480
20
640
30
0
40
64
41
227.555555556
71
1
72
1
1
90x35
7
standard
210
0
220
0
230
1
50
0
73
2
44
1
0
MTEXT
5
286
100
AcDbEntity
8
section_E_E_d
6
ByLayer
62
256
370
-1
100
AcDbMText
10
3480
20
530
30
0
40
64
41
227.555555556
71
1
72
1
1
90x35
7
standard
210
0
220
0
230
1
50
0
73
2
44
1
0
MTEXT
5
287
100
AcDbEntity
8
section_E_E_d
6
ByLayer
62
256
370
-1
100
AcDbMText
10
3480
20
420
30
0
40
64
41
227.555555556
71
1
72
1
1
90x35
7
standard
210
0
220
0
230
1
50
0
73
2
44
1
0
MTEXT
5
288
100
AcDbEntity
8
section_E_E_d
6
ByLayer
62
256
370
-1
100
AcDbMText
10
2210
20
750
30
0
40
64
41
220.444444444
71
1
72
1
1
H3-10
7
standard
210
0
220
0
230
1
50
0
73
2
44
1
0
MTEXT
5
289
100
AcDbEntity
8
section_E_E_d
6
ByLayer
62
256
370
-1
100
AcDbMText
10
2210
20
640
30
0
40
64
41
220.444444444
71
1
72
1
1
H3-10
7
standard
210
0
220
0
230
1
50
0
73
2
44
1
0
MTEXT
5
28A
100
AcDbEntity
8
section_E_E_d
6
ByLayer
62
256
370
-1
100
AcDbMText
10
2210
20
530
30
0
40
64
41
220.444444444
71
1
72
1
1
H3-10
7
standard
210
0
220
0
230
1
50
0
73
2
44
1
0
MTEXT
5
28B
100
AcDbEntity
8
section_E_E_d
6
ByLayer
62
256
370
-1
100
AcDbMText
10
2210
20
420
30
0
40
64
41
220.444444444
71
1
72
1
1
H3-10
7
standard
210
0
220
0
230
1
50
0
73
2
44
1
0
MTEXT
5
28C
100
AcDbEntity
8
section_E_E_d
6
ByLayer
62
256
370
-1
100
AcDbMText
10
2210
20
310
30
0
40
64
41
220.444444444
71
1
72
1
1
H3-10
7
standard
210
0
220
0
230
1
50
0
73
2
44
1
0
MTEXT
5
28D
100
AcDbEntity
8
section_E_E_d
6
ByLayer
62
256
370
-1
100
AcDbMText
10
2210
20
200
30
0
40
64
41
220.444444444
71
1
72
1
1
H3-10
7
standard
210
0
220
0
230
1
50
0
73
2
44
1
0
MTEXT
5
28E
100
AcDbEntity
8
section_E_E_d
6
ByLayer
62
256
370
-1
100
AcDbMText
10
2210
20
90
30
0
40
64
41
220.444444444
71
1
72
1
1
H3-10
7
standard
210
0
220
0
230
1
50
0
73
2
44
1
0
MTEXT
5
28F
100
AcDbEntity
8
section_E_E_d
6
ByLayer
62
256
370
-1
100
AcDbMText
10
3900
20
750
30
0
40
64
41
220.444444444
71
1
72
1
1
H3-10
7
standard
210
0
220
0
230
1
50
0
73
2
44
1
0
MTEXT
5
290
100
AcDbEntity
8
section_E_E_d
6
ByLayer
62
256
370
-1
100
AcDbMText
10
3900
20
640
30
0
40
64
41
220.444444444
71
1
72
1
1
H3-10
7
standard
210
0
220
0
230
1
50
0
73
2
44
1
0
MTEXT
5
291
100
AcDbEntity
8
section_E_E_d
6
ByLayer
62
256
370
-1
100
AcDbMText
10
3900
20
530
30
0
40
64
41
220.444444444
71
1
72
1
1
H3-10
7
standard
210
0
220
0
230
1
50
0
73
2
44
1
0
MTEXT
5
292
100
AcDbEntity
8
section_E_E_d
6
ByLayer
62
256
370
-1
100
AcDbMText
10
3900
20
420
30
0
40
64
41
220.444444444
71
1
72
1
1
H3-10
7
standard
210
0
220
0
230
1
50
0
73
2
44
1
0
MTEXT
5
293
100
AcDbEntity
8
section_E_E_d
6
ByLayer
62
256
370
-1
100
AcDbMText
10
3170
20
750
30
0
40
64
41
35.5555555556
71
1
72
1
1
4
7
standard
210
0
220
0
230
1
50
0
73
2
44
1
0
MTEXT
5
294
100
AcDbEntity
8
section_E_E_d
6
ByLayer
62
256
370
-1
100
AcDbMText
10
2650
20
640
30
0
40
64
41
177.777777778
71
1
72
1
1
2395
7
standard
210
0
220
0
230
1
50
0
73
2
44
1
0
MTEXT
5
295
100
AcDbEntity
8
section_E_E_d
6
ByLayer
62
256
370
-1
100
AcDbMText
10
3170
20
640
30
0
40
64
41
14.2222222222
71
1
72
1
1
1
7
standard
210
0
220
0
230
1
50
0
73
2
44
1
0
MTEXT
5
296
100
AcDbEntity
8
section_E_E_d
6
ByLayer
62
256
370
-1
100
AcDbMText
10
3180
20
530
30
0
40
64
41
14.2222222222
71
1
72
1
1
1
7
standard
210
0
220
0
230
1
50
0
73
2
44
1
0
MTEXT
5
297
100
AcDbEntity
8
section_E_E_d
6
ByLayer
62
256
370
-1
100
AcDbMText
10
2650
20
530
30
0
40
64
41
177.777777778
71
1
72
1
1
2305
7
standard
210
0
220
0
230
1
50
0
73
2
44
1
0
MTEXT
5
298
100
AcDbEntity
8
section_E_E_d
6
ByLayer
62
256
370
-1
100
AcDbMText
10
2650
20
420
30
0
40
64
41
163.555555556
71
1
72
1
1
2195
7
standard
210
0
220
0
230
1
50
0
73
2
44
1
0
MTEXT
5
299
100
AcDbEntity
8
section_E_E_d
6
ByLayer
62
256
370
-1
100
AcDbMText
10
3170
20
420
30
0
40
64
41
28.4444444444
71
1
72
1
1
2
7
standard
210
0
220
0
230
1
50
0
73
2
44
1
0
MTEXT
5
29A
100
AcDbEntity
8
section_E_E_d
6
ByLayer
62
256
370
-1
100
AcDbMText
10
3170
20
310
30
0
40
64
41
28.4444444444
71
1
72
1
1
9
7
standard
210
0
220
0
230
1
50
0
73
2
44
1
0
MTEXT
5
29B
100
AcDbEntity
8
section_E_E_d
6
ByLayer
62
256
370
-1
100
AcDbMText
10
2650
20
200
30
0
40
64
41
163.555555556
71
1
72
1
1
1920
7
standard
210
0
220
0
230
1
50
0
73
2
44
1
0
MTEXT
5
29C
100
AcDbEntity
8
section_E_E_d
6
ByLayer
62
256
370
-1
100
AcDbMText
10
3170
20
200
30
0
40
64
41
28.4444444444
71
1
72
1
1
2
7
standard
210
0
220
0
230
1
50
0
73
2
44
1
0
MTEXT
5
29D
100
AcDbEntity
8
section_E_E_d
6
ByLayer
62
256
370
-1
100
AcDbMText
10
4370
20
420
30
0
40
64
41
189.866666667
71
1
72
1
1
360*
7
standard
210
0
220
0
230
1
50
0
73
2
44
1
0
MTEXT
5
29E
100
AcDbEntity
8
section_E_E_d
6
ByLayer
62
256
370
-1
100
AcDbMText
10
4870
20
420
30
0
40
64
41
35.5555555556
71
1
72
1
1
4
7
standard
210
0
220
0
230
1
50
0
73
2
44
1
0
CIRCLE
5
29F
100
AcDbEntity
8
section_E_E_d
6
ByLayer
62
256
370
-1
100
AcDbCircle
10
8365
20
2399
40
100
0
LINE
5
2A0
100
AcDbEntity
8
section_E_E_d
6
CENTER2
62
256
370
-1
100
AcDbLine
10
8265
20
2399
11
7435
21
2399
0
MTEXT
5
2A1
100
AcDbEntity
8
section_E_E_d
6
ByLayer
62
256
370
-1
100
AcDbMText
10
160
20
2450
30
0
40
96
41
64
71
1
72
1
1
A
7
standard
210
0
220
0
230
1
50
0
73
2
44
1
0
MTEXT
5
2A2
100
AcDbEntity
8
section_E_E_d
6
ByLayer
62
256
370
-1
100
AcDbMText
10
8340
20
2445
30
0
40
96
41
64
71
1
72
1
1
A
7
standard
210
0
220
0
230
1
50
0
73
2
44
1
0
CIRCLE
5
2A3
100
AcDbEntity
8
section_E_E_d
6
ByLayer
62
256
370
-1
100
AcDbCircle
10
185
20
2399
40
100
0
LINE
5
2A4
100
AcDbEntity
8
section_E_E_d
6
CENTER2
62
256
370
-1
100
AcDbLine
10
1000
20
2399
11
285
21
2399
0
MTEXT
5
2A5
100
AcDbEntity
8
section_E_E_d
6
ByLayer
62
256
370
-1
100
AcDbMText
10
3170
20
90
30
0
40
64
41
35.5555555556
71
1
72
1
1
4
7
standard
210
0
220
0
230
1
50
0
73
2
44
1
0
MTEXT
5
2A6
100
AcDbEntity
8
section_E_E_d
6
ByLayer
62
256
370
-1
100
AcDbMText
10
6850
20
1060
30
0
40
128
41
1048.88886175
71
1
72
1
1
SECTION E-E
7
standard
210
0
220
0
230
1
50
0
73
2
44
1
0
LINE
5
2A7
100
AcDbEntity
8
section_E_E
6
ByLayer
62
256
370
-1
100
AcDbLine
10
5415
20
4729
11
5415
21
4764
0
LINE
5
2A8
100
AcDbEntity
8
section_E_E
6
ByLayer
62
256
370
-1
100
AcDbLine
10
3020
20
4764
11
5415
21
4764
0
LINE
5
2A9
100
AcDbEntity
8
section_E_E
6
ByLayer
62
256
370
-1
100
AcDbLine
10
3020
20
4674
11
3065
21
4674
0
LINE
5
2AA
100
AcDbEntity
8
section_E_E
6
ByLayer
62
256
370
-1
100
AcDbLine
10
3065
20
4674
11
3065
21
4764
0
LINE
5
2AB
100
AcDbEntity
8
section_E_E
6
ByLayer
62
256
370
-1
100
AcDbLine
10
3065
20
4764
11
3020
21
4764
0
LINE
5
2AC
100
AcDbEntity
8
section_E_E
6
ByLayer
62
256
370
-1
100
AcDbLine
10
3020
20
4764
11
3020
21
4674
0
LINE
5
2AD
100
AcDbEntity
8
section_E_E
6
ByLayer
62
256
370
-1
100
AcDbLine
10
3020
20
4674
11
2975
21
4674
0
LINE
5
2AE
100
AcDbEntity
8
section_E_E
6
ByLayer
62
256
370
-1
100
AcDbLine
10
2975
20
4674
11
2975
21
4764
0
LINE
5
2AF
100
AcDbEntity
8
section_E_E
6
ByLayer
62
256
370
-1
100
AcDbLine
10
2975
20
4764
11
3020
21
4764
0
LINE
5
2B0
100
AcDbEntity
8
section_E_E
6
ByLayer
62
256
370
-1
100
AcDbLine
10
3020
20
4764
11
3020
21
4674
0
LINE
5
2B1
100
AcDbEntity
8
section_E_E
6
ByLayer
62
256
370
-1
100
AcDbLine
10
3020
20
4764
11
2975
21
4764
0
LINE
5
2B2
100
AcDbEntity
8
section_E_E
6
ByLayer
62
256
370
-1
100
AcDbLine
10
2975
20
4764
11
2975
21
4674
0
LINE
5
2B3
100
AcDbEntity
8
section_E_E
6
ByLayer
62
256
370
-1
100
AcDbLine
10
2975
20
4674
11
3020
21
4674
0
LINE
5
2B4
100
AcDbEntity
8
section_E_E
6
ByLayer
62
256
370
-1
100
AcDbLine
10
3020
20
4674
11
3020
21
4764
0
LINE
5
2B5
100
AcDbEntity
8
section_E_E
6
ByLayer
62
256
370
-1
100
AcDbLine
10
2975
20
4674
11
3020
21
4764
0
LINE
5
2B6
100
AcDbEntity
8
section_E_E
6
ByLayer
62
256
370
-1
100
AcDbLine
10
2975
20
4764
11
3020
21
4674
0
LINE
5
2B7
100
AcDbEntity
8
section_E_E
6
ByLayer
62
256
370
-1
100
AcDbLine
10
3020
20
4764
11
3065
21
4674
0
LINE
5
2B8
100
AcDbEntity
8
section_E_E
6
ByLayer
62
256
370
-1
100
AcDbLine
10
3020
20
4674
11
3065
21
4764
0
LINE
5
2B9
100
AcDbEntity
8
section_E_E
6
ByLayer
62
256
370
-1
100
AcDbLine
10
5415
20
4674
11
5460
21
4674
0
LINE
5
2BA
100
AcDbEntity
8
section_E_E
6
ByLayer
62
256
370
-1
100
AcDbLine
10
5460
20
4674
11
5460
21
4764
0
LINE
5
2BB
100
AcDbEntity
8
section_E_E
6
ByLayer
62
256
370
-1
100
AcDbLine
10
5460
20
4764
11
5415
21
4764
0
LINE
5
2BC
100
AcDbEntity
8
section_E_E
6
ByLayer
62
256
370
-1
100
AcDbLine
10
5415
20
4764
11
5415
21
4674
0
LINE
5
2BD
100
AcDbEntity
8
section_E_E
6
ByLayer
62
256
370
-1
100
AcDbLine
10
5370
20
4674
11
5370
21
4764
0
LINE
5
2BE
100
AcDbEntity
8
section_E_E
6
ByLayer
62
256
370
-1
100
AcDbLine
10
5370
20
4764
11
5415
21
4764
0
LINE
5
2BF
100
AcDbEntity
8
section_E_E
6
ByLayer
62
256
370
-1
100
AcDbLine
10
5415
20
4764
11
5415
21
4674
0
LINE
5
2C0
100
AcDbEntity
8
section_E_E
6
ByLayer
62
256
370
-1
100
AcDbLine
10
5415
20
4764
11
5370
21
4764
0
LINE
5
2C1
100
AcDbEntity
8
section_E_E
6
ByLayer
62
256
370
-1
100
AcDbLine
10
5370
20
4764
11
5370
21
4674
0
LINE
5
2C2
100
AcDbEntity
8
section_E_E
6
ByLayer
62
256
370
-1
100
AcDbLine
10
5370
20
4674
11
5415
21
4674
0
LINE
5
2C3
100
AcDbEntity
8
section_E_E
6
ByLayer
62
256
370
-1
100
AcDbLine
10
5415
20
4674
11
5415
21
4764
0
LINE
5
2C4
100
AcDbEntity
8
section_E_E
6
ByLayer
62
256
370
-1
100
AcDbLine
10
5370
20
4674
11
5415
21
4764
0
LINE
5
2C5
100
AcDbEntity
8
section_E_E
6
ByLayer
62
256
370
-1
100
AcDbLine
10
5370
20
4764
11
5415
21
4674
0
LINE
5
2C6
100
AcDbEntity
8
section_E_E
6
ByLayer
62
256
370
-1
100
AcDbLine
10
5415
20
4764
11
5460
21
4674
0
LINE
5
2C7
100
AcDbEntity
8
section_E_E
6
ByLayer
62
256
370
-1
100
AcDbLine
10
5415
20
4674
11
5460
21
4764
0
LINE
5
2C8
100
AcDbEntity
8
section_E_E
6
ByLayer
62
256
370
-1
100
AcDbLine
10
3065
20
4729
11
5370
21
4729
0
LINE
5
2C9
100
AcDbEntity
8
section_E_E
6
ByLayer
62
256
370
-1
100
AcDbLine
10
2940
20
4729
11
2940
21
4375
0
LINE
5
2CA
100
AcDbEntity
8
section_E_E
6
ByLayer
62
256
370
-1
100
AcDbLine
10
3100
20
4729
11
3100
21
4375
0
LINE
5
2CB
100
AcDbEntity
8
section_E_E
6
ByLayer
62
256
370
-1
100
AcDbLine
10
3100
20
4375
11
3065
21
4375
0
LINE
5
2CC
100
AcDbEntity
8
section_E_E
6
ByLayer
62
256
370
-1
100
AcDbLine
10
5495
20
4729
11
5495
21
4375
0
LINE
5
2CD
100
AcDbEntity
8
section_E_E
6
ByLayer
62
256
370
-1
100
AcDbLine
10
5335
20
4729
11
5335
21
4375
0
LINE
5
2CE
100
AcDbEntity
8
section_E_E
6
ByLayer
62
256
370
-1
100
AcDbLine
10
5335
20
4375
11
5370
21
4375
0
LINE
5
2CF
100
AcDbEntity
8
section_E_E
6
ByLayer
62
256
370
-1
100
AcDbLine
10
2940
20
4375
11
2975
21
4375
0
LINE
5
2D0
100
AcDbEntity
8
section_E_E
6
ByLayer
62
256
370
-1
100
AcDbLine
10
5495
20
4375
11
5460
21
4375
0
LINE
5
2D1
100
AcDbEntity
8
section_E_E
6
ByLayer
62
256
370
-1
100
AcDbLine
10
1135
20
4729
11
1135
21
2399
0
LINE
5
2D2
100
AcDbEntity
8
section_E_E
6
ByLayer
62
256
370
-1
100
AcDbLine
10
2975
20
4674
11
2975
21
2399
0
LINE
5
2D3
100
AcDbEntity
8
section_E_E
6
ByLayer
62
256
370
-1
100
AcDbLine
10
3020
20
4674
11
3020
21
2364
0
LINE
5
2D4
100
AcDbEntity
8
section_E_E
6
ByLayer
62
256
370
-1
100
AcDbLine
10
3065
20
4674
11
3065
21
2399
0
LINE
5
2D5
100
AcDbEntity
8
section_E_E
6
ByLayer
62
256
370
-1
100
AcDbLine
10
4200
20
4729
11
4200
21
2399
0
LINE
5
2D6
100
AcDbEntity
8
section_E_E
6
ByLayer
62
256
370
-1
100
AcDbLine
10
4235
20
4729
11
4235
21
2399
0
LINE
5
2D7
100
AcDbEntity
8
section_E_E
6
ByLayer
62
256
370
-1
100
AcDbLine
10
5370
20
4729
11
5370
21
2399
0
LINE
5
2D8
100
AcDbEntity
8
section_E_E
6
ByLayer
62
256
370
-1
100
AcDbLine
10
5460
20
4729
11
5460
21
2399
0
LINE
5
2D9
100
AcDbEntity
8
section_E_E
6
ByLayer
62
256
370
-1
100
AcDbLine
10
7300
20
4729
11
7300
21
2399
0
LINE
5
2DA
100
AcDbEntity
8
section_E_E
6
ByLayer
62
256
370
-1
100
AcDbLine
10
1100
20
4729
11
1100
21
2399
0
LINE
5
2DB
100
AcDbEntity
8
section_E_E
6
ByLayer
62
256
370
-1
100
AcDbLine
10
5415
20
4674
11
5415
21
2364
0
LINE
5
2DC
100
AcDbEntity
8
section_E_E
6
ByLayer
62
7
370
35
100
AcDbLine
10
7335
20
4729
11
7335
21
2364
0
CIRCLE
5
2DD
100
AcDbEntity
8
section_E_E_d
6
ByLayer
62
256
370
-1
100
AcDbCircle
10
3020
20
5814
40
100
0
LINE
5
2DE
100
AcDbEntity
8
section_E_E_d
6
CENTER2
62
256
370
-1
100
AcDbLine
10
3020
20
4864
11
3020
21
5714
0
CIRCLE
5
2DF
100
AcDbEntity
8
section_E_E_d
6
ByLayer
62
256
370
-1
100
AcDbCircle
10
5415
20
5814
40
100
0
LINE
5
2E0
100
AcDbEntity
8
section_E_E_d
6
CENTER2
62
256
370
-1
100
AcDbLine
10
5415
20
4864
11
5415
21
5714
0
MTEXT
5
2E1
100
AcDbEntity
8
section_E_E_d
6
ByLayer
62
256
370
-1
100
AcDbMText
10
3000
20
5865
30
0
40
96
41
53.3333333333
71
1
72
1
1
4
7
standard
210
0
220
0
230
1
50
0
73
2
44
1
0
MTEXT
5
2E2
100
AcDbEntity
8
section_E_E_d
6
ByLayer
62
256
370
-1
100
AcDbMText
10
5395
20
5865
30
0
40
96
41
42.6666666667
71
1
72
1
1
8
7
standard
210
0
220
0
230
1
50
0
73
2
44
1
0
CIRCLE
5
2E3
100
AcDbEntity
8
section_E_E_d
6
ByLayer
62
256
370
-1
100
AcDbCircle
10
1100
20
5814
40
100
0
LINE
5
2E4
100
AcDbEntity
8
section_E_E_d
6
CENTER2
62
256
370
-1
100
AcDbLine
10
1100
20
4864
11
1100
21
5714
0
MTEXT
5
2E5
100
AcDbEntity
8
section_E_E_d
6
ByLayer
62
256
370
-1
100
AcDbMText
10
1080
20
5865
30
0
40
96
41
21.3333333333
71
1
72
1
1
1
7
standard
210
0
220
0
230
1
50
0
73
2
44
1
0
CIRCLE
5
2E6
100
AcDbEntity
8
section_E_E_d
6
ByLayer
62
256
370
-1
100
AcDbCircle
10
4200
20
5814
40
100
0
LINE
5
2E7
100
AcDbEntity
8
section_E_E_d
6
CENTER2
62
256
370
-1
100
AcDbLine
10
4200
20
4864
11
4200
21
5714
0
MTEXT
5
2E8
100
AcDbEntity
8
section_E_E_d
6
ByLayer
62
256
370
-1
100
AcDbMText
10
4180
20
5865
30
0
40
96
41
42.6666666667
71
1
72
1
1
6
7
standard
210
0
220
0
230
1
50
0
73
2
44
1
0
CIRCLE
5
2E9
100
AcDbEntity
8
section_E_E_d
6
ByLayer
62
256
370
-1
100
AcDbCircle
10
7335
20
5814
40
100
0
LINE
5
2EA
100
AcDbEntity
8
section_E_E_d
6
CENTER2
62
256
370
-1
100
AcDbLine
10
7335
20
4864
11
7335
21
5714
0
MTEXT
5
2EB
100
AcDbEntity
8
section_E_E_d
6
ByLayer
62
256
370
-1
100
AcDbMText
10
7287.5
20
5860
30
0
40
96
41
74.6666666667
71
1
72
1
1
11
7
standard
210
0
220
0
230
1
50
0
73
2
44
1
0
DIMENSION
5
2EC
100
AcDbEntity
8
section_E_E_d
6
ByLayer
62
256
370
-1
100
AcDbDimension
2
*D5
10
5415
20
5400
30
0
11
4217.5
21
5452
31
0
70
32
71
5
72
0
3
Standard
53
0
210
0
220
0
230
1
100
AcDbAlignedDimension
13
3020
23
5336.46073387
33
0
14
5415
24
5336.46073387
34
0
100
AcDbRotatedDimension
0
LEADER
5
2ED
100
AcDbEntity
8
section_E_E_d
6
ByLayer
62
256
370
-1
100
AcDbLeader
3
Standard
71
1
72
0
73
3
74
0
75
0
40
1
41
10
76
3
76
3
10
3042.5
20
4719
30
0
10
3200
20
4900
30
0
10
3700
20
4900
30
0
0
LEADER
5
2EE
100
AcDbEntity
8
section_E_E_d
6
ByLayer
62
256
370
-1
100
AcDbLeader
3
Standard
71
1
72
0
73
3
74
0
75
0
40
1
41
10
76
2
76
2
10
3020
20
4568.53055876
30
0
10
3200
20
4900
30
0
0
LEADER
5
2EF
100
AcDbEntity
8
section_E_E_d
6
ByLayer
62
256
370
-1
100
AcDbLeader
3
Standard
71
1
72
0
73
3
74
0
75
0
40
1
41
10
76
3
76
3
10
5437.5
20
4719
30
0
10
5595
20
4900
30
0
10
6095
20
4900
30
0
0
LEADER
5
2F0
100
AcDbEntity
8
section_E_E_d
6
ByLayer
62
256
370
-1
100
AcDbLeader
3
Standard
71
1
72
0
73
3
74
0
75
0
40
1
41
10
76
2
76
2
10
5415
20
4568.53055876
30
0
10
5595
20
4900
30
0
0
LINE
5
2F1
100
AcDbEntity
8
section_E_E_d
6
CENTER2
62
256
370
-1
100
AcDbLine
10
2975
20
4864
11
2975
21
5114
0
LINE
5
2F2
100
AcDbEntity
8
section_E_E_d
6
CENTER2
62
256
370
-1
100
AcDbLine
10
3065
20
4864
11
3065
21
5114
0
LINE
5
2F3
100
AcDbEntity
8
section_E_E_d
6
CENTER2
62
256
370
-1
100
AcDbLine
10
5370
20
4864
11
5370
21
5114
0
LINE
5
2F4
100
AcDbEntity
8
section_E_E_d
6
CENTER2
62
256
370
-1
100
AcDbLine
10
5460
20
4864
11
5460
21
5114
0
DIMENSION
5
2F5
100
AcDbEntity
8
section_E_E_d
6
ByLayer
62
256
370
-1
100
AcDbDimension
2
*D10
10
5370
20
5000
30
0
11
4217.5
21
5052
31
0
70
32
71
5
72
0
3
Standard
53
0
210
0
220
0
230
1
100
AcDbAlignedDimension
13
3065
23
4968.51046685
33
0
14
5370
24
4968.51046685
34
0
100
AcDbRotatedDimension
0
CIRCLE
5
2F6
100
AcDbEntity
8
section_E_E_d
6
ByLayer
62
256
370
-1
100
AcDbCircle
10
8365
20
4729
40
100
0
LINE
5
2F7
100
AcDbEntity
8
section_E_E_d
6
CENTER2
62
256
370
-1
100
AcDbLine
10
8265
20
4729
11
7435
21
4729
0
MTEXT
5
2F8
100
AcDbEntity
8
section_E_E_d
6
ByLayer
62
256
370
-1
100
AcDbMText
10
8340
20
4775
30
0
40
96
41
42.6666666667
71
1
72
1
1
E
7
standard
210
0
220
0
230
1
50
0
73
2
44
1
0
CIRCLE
5
2F9
100
AcDbEntity
8
section_E_E_d
6
ByLayer
62
256
370
-1
100
AcDbCircle
10
185
20
4729
40
100
0
LINE
5
2FA
100
AcDbEntity
8
section_E_E_d
6
CENTER2
62
256
370
-1
100
AcDbLine
10
1000
20
4729
11
285
21
4729
0
MTEXT
5
2FB
100
AcDbEntity
8
section_E_E_d
6
ByLayer
62
256
370
-1
100
AcDbMText
10
160
20
4780
30
0
40
96
41
42.6666666667
71
1
72
1
1
E
7
standard
210
0
220
0
230
1
50
0
73
2
44
1
0
LINE
5
2FC
100
AcDbEntity
8
section_E_E_d
6
CENTER2
62
256
370
-1
100
AcDbLine
10
8065
20
4674
11
7435
21
4674
0
DIMENSION
5
2FD
100
AcDbEntity
8
section_E_E_d
6
ByLayer
62
256
370
-1
100
AcDbDimension
2
*D11
10
500
20
2399
30
0
11
448
21
3564
31
0
70
32
71
5
3
Standard
53
0
210
0
220
0
230
1
100
AcDbAlignedDimension
13
457.74067852
23
4729
33
0
14
457.74067852
24
2399
34
0
50
90
100
AcDbRotatedDimension
0
DIMENSION
5
2FE
100
AcDbEntity
8
section_E_E_d
6
ByLayer
62
256
370
-1
100
AcDbDimension
2
*D12
10
7900
20
2399
30
0
11
7848
21
3536.5
31
0
70
32
71
5
3
Standard
53
0
210
0
220
0
230
1
100
AcDbAlignedDimension
13
7842.6236253
23
4674
33
0
14
7842.6236253
24
2399
34
0
50
90
100
AcDbRotatedDimension
0
DIMENSION
5
2FF
100
AcDbEntity
8
section_E_E_d
6
ByLayer
62
256
370
-1
100
AcDbDimension
2
*D13
10
8100
20
2399
30
0
11
8048
21
3564
31
0
70
32
71
5
3
Standard
53
0
210
0
220
0
230
1
100
AcDbAlignedDimension
13
8141.6808686
23
4729
33
0
14
8147.78407765
24
2399
34
0
50
90
100
AcDbRotatedDimension
0
MTEXT
5
300
100
AcDbEntity
8
section_E_E_d
6
ByLayer
62
256
370
-1
100
AcDbMText
10
2650
20
750
30
0
40
64
41
177.777777778
71
1
72
1
1
2275
7
standard
210
0
220
0
230
1
50
0
73
2
44
1
0
MTEXT
5
301
100
AcDbEntity
8
section_E_E_d
6
ByLayer
62
256
370
-1
100
AcDbMText
10
2650
20
310
30
0
40
64
41
177.777777778
71
1
72
1
1
2330
7
standard
210
0
220
0
230
1
50
0
73
2
44
1
0
MTEXT
5
302
100
AcDbEntity
8
section_E_E_d
6
ByLayer
62
256
370
-1
100
AcDbMText
10
5250
20
750
30
0
40
64
41
515.555555556
71
1
72
1
1
28 FEB 2017
7
standard
210
0
220
0
230
1
50
0
73
2
44
1
0
LINE
5
303
100
AcDbEntity
8
section_E_E
6
ByLayer
62
256
370
-1
100
AcDbLine
10
755
20
4729
11
2975
21
4729
0
LINE
5
304
100
AcDbEntity
8
section_E_E
6
ByLayer
62
256
370
-1
100
AcDbLine
10
755
20
4764
11
3020
21
4764
0
LINE
5
305
100
AcDbEntity
8
section_E_E
6
ByLayer
62
256
370
-1
100
AcDbLine
10
5415
20
4764
11
7680
21
4764
0
LINE
5
306
100
AcDbEntity
8
section_E_E
6
ByLayer
62
256
370
-1
100
AcDbLine
10
5460
20
4729
11
7680
21
4729
0
LINE
5
307
100
AcDbEntity
8
section_E_E
6
ByLayer
62
256
370
-1
100
AcDbLine
10
7680
20
4764
11
7680
21
4729
0
LINE
5
308
100
AcDbEntity
8
section_E_E
6
ByLayer
62
256
370
-1
100
AcDbLine
10
755
20
4729
11
755
21
4764
0
LINE
5
309
100
AcDbEntity
8
section_E_E_d
6
CENTER2
62
256
370
-1
100
AcDbLine
10
755
20
4864
11
755
21
5714
0
DIMENSION
5
30A
100
AcDbEntity
8
section_E_E_d
6
ByLayer
62
256
370
-1
100
AcDbDimension
2
*D14
10
1100
20
5200
30
0
11
927.5
21
5252
31
0
70
32
71
5
72
0
3
Standard
53
0
210
0
220
0
230
1
100
AcDbAlignedDimension
13
755
23
5153.31324302
33
0
14
1100
24
5157.2350948
34
0
100
AcDbRotatedDimension
0
DIMENSION
5
30B
100
AcDbEntity
8
section_E_E_d
6
ByLayer
62
256
370
-1
100
AcDbDimension
2
*D15
10
2975
20
5000
30
0
11
1865
21
5052
31
0
70
32
71
5
72
0
3
Standard
53
0
210
0
220
0
230
1
100
AcDbAlignedDimension
13
755
23
4949.3769503
33
0
14
2975
24
4949.3769503
34
0
100
AcDbRotatedDimension
0
DIMENSION
5
30C
100
AcDbEntity
8
section_E_E_d
6
ByLayer
62
256
370
-1
100
AcDbDimension
2
*D16
10
3020
20
5400
30
0
11
1887.5
21
5452
31
0
70
32
71
5
72
0
3
Standard
53
0
210
0
220
0
230
1
100
AcDbAlignedDimension
13
755
23
5341.56212861
33
0
14
3020
24
5341.56212861
34
0
100
AcDbRotatedDimension
0
LINE
5
30D
100
AcDbEntity
8
section_E_E_d
6
CENTER2
62
256
370
-1
100
AcDbLine
10
7680
20
4864
11
7680
21
5714
0
DIMENSION
5
30E
100
AcDbEntity
8
section_E_E_d
6
ByLayer
62
256
370
-1
100
AcDbDimension
2
*D17
10
7680
20
5000
30
0
11
6570
21
5052
31
0
70
32
71
5
72
0
3
Standard
53
0
210
0
220
0
230
1
100
AcDbAlignedDimension
13
5460
23
4961.14250565
33
0
14
7680
24
4961.14250565
34
0
100
AcDbRotatedDimension
0
DIMENSION
5
30F
100
AcDbEntity
8
section_E_E_d
6
ByLayer
62
256
370
-1
100
AcDbDimension
2
*D18
10
7680
20
5200
30
0
11
7507.5
21
5252
31
0
70
32
71
5
72
0
3
Standard
53
0
210
0
220
0
230
1
100
AcDbAlignedDimension
13
7335
23
5153.31324302
33
0
14
7680
24
5153.31324302
34
0
100
AcDbRotatedDimension
0
DIMENSION
5
310
100
AcDbEntity
8
section_E_E_d
6
ByLayer
62
256
370
-1
100
AcDbDimension
2
*D19
10
7680
20
5400
30
0
11
6547.5
21
5452
31
0
70
32
71
5
72
0
3
Standard
53
0
210
0
220
0
230
1
100
AcDbAlignedDimension
13
5415
23
5349.40583218
33
0
14
7680
24
5349.40583218
34
0
100
AcDbRotatedDimension
0
CIRCLE
5
311
100
AcDbEntity
8
section_E_E_d
6
ByLayer
62
256
370
-1
100
AcDbCircle
10
1715
20
1314
40
100
0
LINE
5
312
100
AcDbEntity
8
section_E_E_d
6
CENTER2
62
256
370
-1
100
AcDbLine
10
1715
20
2264
11
1715
21
1414
0
MTEXT
5
313
100
AcDbEntity
8
section_E_E_d
6
ByLayer
62
256
370
-1
100
AcDbMText
10
1695
20
1364
30
0
40
96
41
42.6666666667
71
1
72
1
1
2
7
standard
210
0
220
0
230
1
50
0
73
2
44
1
0
LINE
5
314
100
AcDbEntity
8
section_E_E
6
ByLayer
62
256
370
-1
100
AcDbLine
10
1715
20
4729
11
1715
21
2399
0
LINE
5
315
100
AcDbEntity
8
section_E_E
6
ByLayer
62
256
370
-1
100
AcDbLine
10
1750
20
4729
11
1750
21
2399
0
CIRCLE
5
316
100
AcDbEntity
8
section_E_E_d
6
ByLayer
62
256
370
-1
100
AcDbCircle
10
1715
20
5814
40
100
0
LINE
5
317
100
AcDbEntity
8
section_E_E_d
6
CENTER2
62
256
370
-1
100
AcDbLine
10
1715
20
4864
11
1715
21
5714
0
MTEXT
5
318
100
AcDbEntity
8
section_E_E_d
6
ByLayer
62
256
370
-1
100
AcDbMText
10
1695
20
5865
30
0
40
96
41
42.6666666667
71
1
72
1
1
2
7
standard
210
0
220
0
230
1
50
0
73
2
44
1
0
CIRCLE
5
319
100
AcDbEntity
8
section_E_E_d
6
ByLayer
62
256
370
-1
100
AcDbCircle
10
2360
20
1314
40
100
0
LINE
5
31A
100
AcDbEntity
8
section_E_E_d
6
CENTER2
62
256
370
-1
100
AcDbLine
10
2360
20
2264
11
2360
21
1414
0
MTEXT
5
31B
100
AcDbEntity
8
section_E_E_d
6
ByLayer
62
256
370
-1
100
AcDbMText
10
2340
20
1364
30
0
40
96
41
42.6666666667
71
1
72
1
1
3
7
standard
210
0
220
0
230
1
50
0
73
2
44
1
0
LINE
5
31C
100
AcDbEntity
8
section_E_E
6
ByLayer
62
256
370
-1
100
AcDbLine
10
2360
20
4729
11
2360
21
2399
0
LINE
5
31D
100
AcDbEntity
8
section_E_E
6
ByLayer
62
256
370
-1
100
AcDbLine
10
2395
20
4729
11
2395
21
2399
0
CIRCLE
5
31E
100
AcDbEntity
8
section_E_E_d
6
ByLayer
62
256
370
-1
100
AcDbCircle
10
2360
20
5814
40
100
0
LINE
5
31F
100
AcDbEntity
8
section_E_E_d
6
CENTER2
62
256
370
-1
100
AcDbLine
10
2360
20
4864
11
2360
21
5714
0
MTEXT
5
320
100
AcDbEntity
8
section_E_E_d
6
ByLayer
62
256
370
-1
100
AcDbMText
10
2340
20
5865
30
0
40
96
41
42.6666666667
71
1
72
1
1
3
7
standard
210
0
220
0
230
1
50
0
73
2
44
1
0
LINE
5
321
100
AcDbEntity
8
section_E_E
6
ByLayer
62
256
370
-1
100
AcDbLine
10
1135
20
4039
11
1715
21
4039
0
LINE
5
322
100
AcDbEntity
8
section_E_E
6
ByLayer
62
256
370
-1
100
AcDbLine
10
1135
20
4004
11
1715
21
4004
0
LINE
5
323
100
AcDbEntity
8
section_E_E
6
ByLayer
62
256
370
-1
100
AcDbLine
10
1135
20
3119
11
1715
21
3119
0
LINE
5
324
100
AcDbEntity
8
section_E_E
6
ByLayer
62
256
370
-1
100
AcDbLine
10
1135
20
3084
11
1715
21
3084
0
LINE
5
325
100
AcDbEntity
8
section_E_E
6
ByLayer
62
256
370
-1
100
AcDbLine
10
1750
20
4039
11
2360
21
4039
0
LINE
5
326
100
AcDbEntity
8
section_E_E
6
ByLayer
62
256
370
-1
100
AcDbLine
10
1750
20
4004
11
2360
21
4004
0
LINE
5
327
100
AcDbEntity
8
section_E_E
6
ByLayer
62
256
370
-1
100
AcDbLine
10
1750
20
3119
11
2360
21
3119
0
LINE
5
328
100
AcDbEntity
8
section_E_E
6
ByLayer
62
256
370
-1
100
AcDbLine
10
1750
20
3084
11
2360
21
3084
0
LINE
5
329
100
AcDbEntity
8
section_E_E
6
ByLayer
62
256
370
-1
100
AcDbLine
10
2395
20
4039
11
2975
21
4039
0
LINE
5
32A
100
AcDbEntity
8
section_E_E
6
ByLayer
62
256
370
-1
100
AcDbLine
10
2395
20
4004
11
2975
21
4004
0
LINE
5
32B
100
AcDbEntity
8
section_E_E
6
ByLayer
62
256
370
-1
100
AcDbLine
10
2395
20
3119
11
2975
21
3119
0
LINE
5
32C
100
AcDbEntity
8
section_E_E
6
ByLayer
62
256
370
-1
100
AcDbLine
10
2395
20
3084
11
2975
21
3084
0
DIMENSION
5
32D
100
AcDbEntity
8
section_E_E_d
6
ByLayer
62
256
370
-1
100
AcDbDimension
2
*D20
10
1715
20
3200
30
0
11
1425
21
3252
31
0
70
32
71
5
72
0
3
Standard
53
0
210
0
220
0
230
1
100
AcDbAlignedDimension
13
1135
23
3240.48390739
33
0
14
1715
24
3236.04488834
34
0
100
AcDbRotatedDimension
0
DIMENSION
5
32E
100
AcDbEntity
8
section_E_E_d
6
ByLayer
62
256
370
-1
100
AcDbDimension
2
*D21
10
2360
20
3200
30
0
11
2055
21
3252
31
0
70
32
71
5
72
0
3
Standard
53
0
210
0
220
0
230
1
100
AcDbAlignedDimension
13
1750
23
3240.48390739
33
0
14
2360
24
3240.48390739
34
0
100
AcDbRotatedDimension
0
DIMENSION
5
32F
100
AcDbEntity
8
section_E_E_d
6
ByLayer
62
256
370
-1
100
AcDbDimension
2
*D22
10
2975
20
3200
30
0
11
2685
21
3252
31
0
70
32
71
5
72
0
3
Standard
53
0
210
0
220
0
230
1
100
AcDbAlignedDimension
13
2395
23
3236.04488834
33
0
14
2975
24
3236.04488834
34
0
100
AcDbRotatedDimension
0
DIMENSION
5
330
100
AcDbEntity
8
section_E_E_d
6
ByLayer
62
256
370
-1
100
AcDbDimension
2
*D23
10
1715
20
5200
30
0
11
1407.5
21
5252
31
0
70
32
71
5
72
0
3
Standard
53
0
210
0
220
0
230
1
100
AcDbAlignedDimension
13
1100
23
5158.14013752
33
0
14
1715
24
5158.14013752
34
0
100
AcDbRotatedDimension
0
DIMENSION
5
331
100
AcDbEntity
8
section_E_E_d
6
ByLayer
62
256
370
-1
100
AcDbDimension
2
*D24
10
2360
20
5200
30
0
11
2037.5
21
5252
31
0
70
32
71
5
72
0
3
Standard
53
0
210
0
220
0
230
1
100
AcDbAlignedDimension
13
1715
23
5153.70111847
33
0
14
2360
24
5153.70111847
34
0
100
AcDbRotatedDimension
0
DIMENSION
5
332
100
AcDbEntity
8
section_E_E_d
6
ByLayer
62
256
370
-1
100
AcDbDimension
2
*D25
10
3020
20
5200
30
0
11
2690
21
5252
31
0
70
32
71
5
72
0
3
Standard
53
0
210
0
220
0
230
1
100
AcDbAlignedDimension
13
2360
23
5153.70111847
33
0
14
3020
24
5153.70111847
34
0
100
AcDbRotatedDimension
0
DIMENSION
5
333
100
AcDbEntity
8
section_E_E_d
6
ByLayer
62
256
370
-1
100
AcDbDimension
2
*D26
10
1715
20
2000
30
0
11
1407.5
21
2052
31
0
70
32
71
5
72
0
3
Standard
53
0
210
0
220
0
230
1
100
AcDbAlignedDimension
13
1100
23
2028.63170641
33
0
14
1715
24
2037.50974451
34
0
100
AcDbRotatedDimension
0
DIMENSION
5
334
100
AcDbEntity
8
section_E_E_d
6
ByLayer
62
256
370
-1
100
AcDbDimension
2
*D27
10
2360
20
2000
30
0
11
2037.5
21
2052
31
0
70
32
71
5
72
0
3
Standard
53
0
210
0
220
0
230
1
100
AcDbAlignedDimension
13
1715
23
2037.50974451
33
0
14
2360
24
2041.94876356
34
0
100
AcDbRotatedDimension
0
DIMENSION
5
335
100
AcDbEntity
8
section_E_E_d
6
ByLayer
62
256
370
-1
100
AcDbDimension
2
*D28
10
3020
20
2000
30
0
11
2690
21
2052
31
0
70
32
71
5
72
0
3
Standard
53
0
210
0
220
0
230
1
100
AcDbAlignedDimension
13
2360
23
2041.94876356
33
0
14
3020
24
2050.82680167
34
0
100
AcDbRotatedDimension
0
CIRCLE
5
336
100
AcDbEntity
8
section_E_E_d
6
ByLayer
62
256
370
-1
100
AcDbCircle
10
3645
20
1314
40
100
0
LINE
5
337
100
AcDbEntity
8
section_E_E_d
6
CENTER2
62
256
370
-1
100
AcDbLine
10
3645
20
2264
11
3645
21
1414
0
MTEXT
5
338
100
AcDbEntity
8
section_E_E_d
6
ByLayer
62
256
370
-1
100
AcDbMText
10
3625
20
1364
30
0
40
96
41
42.6666666667
71
1
72
1
1
5
7
standard
210
0
220
0
230
1
50
0
73
2
44
1
0
LINE
5
339
100
AcDbEntity
8
section_E_E
6
ByLayer
62
256
370
-1
100
AcDbLine
10
3645
20
4729
11
3645
21
2399
0
LINE
5
33A
100
AcDbEntity
8
section_E_E
6
ByLayer
62
256
370
-1
100
AcDbLine
10
3680
20
4729
11
3680
21
2399
0
CIRCLE
5
33B
100
AcDbEntity
8
section_E_E_d
6
ByLayer
62
256
370
-1
100
AcDbCircle
10
3645
20
5814
40
100
0
MTEXT
5
33C
100
AcDbEntity
8
section_E_E_d
6
ByLayer
62
256
370
-1
100
AcDbMText
10
3625
20
5865
30
0
40
96
41
42.6666666667
71
1
72
1
1
5
7
standard
210
0
220
0
230
1
50
0
73
2
44
1
0
LINE
5
33D
100
AcDbEntity
8
section_E_E_d
6
CENTER2
62
256
370
-1
100
AcDbLine
10
3645
20
5064
11
3645
21
5714
0
CIRCLE
5
33E
100
AcDbEntity
8
section_E_E_d
6
ByLayer
62
256
370
-1
100
AcDbCircle
10
4755
20
1314
40
100
0
LINE
5
33F
100
AcDbEntity
8
section_E_E_d
6
CENTER2
62
256
370
-1
100
AcDbLine
10
4755
20
2264
11
4755
21
1414
0
MTEXT
5
340
100
AcDbEntity
8
section_E_E_d
6
ByLayer
62
256
370
-1
100
AcDbMText
10
4735
20
1364
30
0
40
96
41
42.6666666667
71
1
72
1
1
7
7
standard
210
0
220
0
230
1
50
0
73
2
44
1
0
LINE
5
341
100
AcDbEntity
8
section_E_E
6
ByLayer
62
256
370
-1
100
AcDbLine
10
4755
20
4729
11
4755
21
2399
0
LINE
5
342
100
AcDbEntity
8
section_E_E
6
ByLayer
62
256
370
-1
100
AcDbLine
10
4790
20
4729
11
4790
21
2399
0
CIRCLE
5
343
100
AcDbEntity
8
section_E_E_d
6
ByLayer
62
256
370
-1
100
AcDbCircle
10
4755
20
5814
40
100
0
LINE
5
344
100
AcDbEntity
8
section_E_E_d
6
CENTER2
62
256
370
-1
100
AcDbLine
10
4755
20
4864
11
4755
21
5714
0
MTEXT
5
345
100
AcDbEntity
8
section_E_E_d
6
ByLayer
62
256
370
-1
100
AcDbMText
10
4735
20
5865
30
0
40
96
41
42.6666666667
71
1
72
1
1
7
7
standard
210
0
220
0
230
1
50
0
73
2
44
1
0
LINE
5
346
100
AcDbEntity
8
section_E_E
6
ByLayer
62
256
370
-1
100
AcDbLine
10
3065
20
4039
11
3645
21
4039
0
LINE
5
347
100
AcDbEntity
8
section_E_E
6
ByLayer
62
256
370
-1
100
AcDbLine
10
3065
20
4004
11
3645
21
4004
0
LINE
5
348
100
AcDbEntity
8
section_E_E
6
ByLayer
62
256
370
-1
100
AcDbLine
10
3065
20
3119
11
3645
21
3119
0
LINE
5
349
100
AcDbEntity
8
section_E_E
6
ByLayer
62
256
370
-1
100
AcDbLine
10
3065
20
3084
11
3645
21
3084
0
LINE
5
34A
100
AcDbEntity
8
section_E_E
6
ByLayer
62
256
370
-1
100
AcDbLine
10
3680
20
4039
11
4200
21
4039
0
LINE
5
34B
100
AcDbEntity
8
section_E_E
6
ByLayer
62
256
370
-1
100
AcDbLine
10
3680
20
4004
11
4200
21
4004
0
LINE
5
34C
100
AcDbEntity
8
section_E_E
6
ByLayer
62
256
370
-1
100
AcDbLine
10
3680
20
3119
11
4200
21
3119
0
LINE
5
34D
100
AcDbEntity
8
section_E_E
6
ByLayer
62
256
370
-1
100
AcDbLine
10
3680
20
3084
11
4200
21
3084
0
LINE
5
34E
100
AcDbEntity
8
section_E_E
6
ByLayer
62
256
370
-1
100
AcDbLine
10
4235
20
4039
11
4755
21
4039
0
LINE
5
34F
100
AcDbEntity
8
section_E_E
6
ByLayer
62
256
370
-1
100
AcDbLine
10
4235
20
4004
11
4755
21
4004
0
LINE
5
350
100
AcDbEntity
8
section_E_E
6
ByLayer
62
256
370
-1
100
AcDbLine
10
4235
20
3119
11
4755
21
3119
0
LINE
5
351
100
AcDbEntity
8
section_E_E
6
ByLayer
62
256
370
-1
100
AcDbLine
10
4235
20
3084
11
4755
21
3084
0
LINE
5
352
100
AcDbEntity
8
section_E_E
6
ByLayer
62
256
370
-1
100
AcDbLine
10
4790
20
4039
11
5370
21
4039
0
LINE
5
353
100
AcDbEntity
8
section_E_E
6
ByLayer
62
256
370
-1
100
AcDbLine
10
4790
20
4004
11
5370
21
4004
0
LINE
5
354
100
AcDbEntity
8
section_E_E
6
ByLayer
62
256
370
-1
100
AcDbLine
10
4790
20
3119
11
5370
21
3119
0
LINE
5
355
100
AcDbEntity
8
section_E_E
6
ByLayer
62
256
370
-1
100
AcDbLine
10
4790
20
3084
11
5370
21
3084
0
CIRCLE
5
356
100
AcDbEntity
8
section_E_E_d
6
ByLayer
62
256
370
-1
100
AcDbCircle
10
6040
20
1314
40
100
0
LINE
5
357
100
AcDbEntity
8
section_E_E_d
6
CENTER2
62
256
370
-1
100
AcDbLine
10
6040
20
2264
11
6040
21
1414
0
MTEXT
5
358
100
AcDbEntity
8
section_E_E_d
6
ByLayer
62
256
370
-1
100
AcDbMText
10
6020
20
1364
30
0
40
96
41
42.6666666667
71
1
72
1
1
9
7
standard
210
0
220
0
230
1
50
0
73
2
44
1
0
LINE
5
359
100
AcDbEntity
8
section_E_E
6
ByLayer
62
256
370
-1
100
AcDbLine
10
6040
20
4729
11
6040
21
2399
0
LINE
5
35A
100
AcDbEntity
8
section_E_E
6
ByLayer
62
256
370
-1
100
AcDbLine
10
6075
20
4729
11
6075
21
2399
0
CIRCLE
5
35B
100
AcDbEntity
8
section_E_E_d
6
ByLayer
62
256
370
-1
100
AcDbCircle
10
6040
20
5814
40
100
0
MTEXT
5
35C
100
AcDbEntity
8
section_E_E_d
6
ByLayer
62
256
370
-1
100
AcDbMText
10
6020
20
5865
30
0
40
96
41
42.6666666667
71
1
72
1
1
9
7
standard
210
0
220
0
230
1
50
0
73
2
44
1
0
LINE
5
35D
100
AcDbEntity
8
section_E_E_d
6
CENTER2
62
256
370
-1
100
AcDbLine
10
6040
20
5064
11
6040
21
5714
0
CIRCLE
5
35E
100
AcDbEntity
8
section_E_E_d
6
ByLayer
62
256
370
-1
100
AcDbCircle
10
6685
20
1314
40
100
0
LINE
5
35F
100
AcDbEntity
8
section_E_E_d
6
CENTER2
62
256
370
-1
100
AcDbLine
10
6685
20
2264
11
6685
21
1414
0
MTEXT
5
360
100
AcDbEntity
8
section_E_E_d
6
ByLayer
62
256
370
-1
100
AcDbMText
10
6637.5
20
1360
30
0
40
96
41
96
71
1
72
1
1
10
7
standard
210
0
220
0
230
1
50
0
73
2
44
1
0
LINE
5
361
100
AcDbEntity
8
section_E_E
6
ByLayer
62
256
370
-1
100
AcDbLine
10
6685
20
4729
11
6685
21
2399
0
LINE
5
362
100
AcDbEntity
8
section_E_E
6
ByLayer
62
256
370
-1
100
AcDbLine
10
6720
20
4729
11
6720
21
2399
0
CIRCLE
5
363
100
AcDbEntity
8
section_E_E_d
6
ByLayer
62
256
370
-1
100
AcDbCircle
10
6685
20
5814
40
100
0
LINE
5
364
100
AcDbEntity
8
section_E_E_d
6
CENTER2
62
256
370
-1
100
AcDbLine
10
6685
20
4864
11
6685
21
5714
0
MTEXT
5
365
100
AcDbEntity
8
section_E_E_d
6
ByLayer
62
256
370
-1
100
AcDbMText
10
6637.5
20
5860
30
0
40
96
41
96
71
1
72
1
1
10
7
standard
210
0
220
0
230
1
50
0
73
2
44
1
0
LINE
5
366
100
AcDbEntity
8
section_E_E
6
ByLayer
62
256
370
-1
100
AcDbLine
10
5460
20
4039
11
6040
21
4039
0
LINE
5
367
100
AcDbEntity
8
section_E_E
6
ByLayer
62
256
370
-1
100
AcDbLine
10
5460
20
4004
11
6040
21
4004
0
LINE
5
368
100
AcDbEntity
8
section_E_E
6
ByLayer
62
256
370
-1
100
AcDbLine
10
5460
20
3119
11
6040
21
3119
0
LINE
5
369
100
AcDbEntity
8
section_E_E
6
ByLayer
62
256
370
-1
100
AcDbLine
10
5460
20
3084
11
6040
21
3084
0
LINE
5
36A
100
AcDbEntity
8
section_E_E
6
ByLayer
62
256
370
-1
100
AcDbLine
10
6075
20
4039
11
6685
21
4039
0
LINE
5
36B
100
AcDbEntity
8
section_E_E
6
ByLayer
62
256
370
-1
100
AcDbLine
10
6075
20
4004
11
6685
21
4004
0
LINE
5
36C
100
AcDbEntity
8
section_E_E
6
ByLayer
62
256
370
-1
100
AcDbLine
10
6075
20
3119
11
6685
21
3119
0
LINE
5
36D
100
AcDbEntity
8
section_E_E
6
ByLayer
62
256
370
-1
100
AcDbLine
10
6075
20
3084
11
6685
21
3084
0
LINE
5
36E
100
AcDbEntity
8
section_E_E
6
ByLayer
62
256
370
-1
100
AcDbLine
10
6720
20
4039
11
7300
21
4039
0
LINE
5
36F
100
AcDbEntity
8
section_E_E
6
ByLayer
62
256
370
-1
100
AcDbLine
10
6720
20
4004
11
7300
21
4004
0
LINE
5
370
100
AcDbEntity
8
section_E_E
6
ByLayer
62
256
370
-1
100
AcDbLine
10
6720
20
3119
11
7300
21
3119
0
LINE
5
371
100
AcDbEntity
8
section_E_E
6
ByLayer
62
256
370
-1
100
AcDbLine
10
6720
20
3084
11
7300
21
3084
0
DIMENSION
5
372
100
AcDbEntity
8
section_E_E_d
6
ByLayer
62
256
370
-1
100
AcDbDimension
2
*D29
10
3645
20
3200
30
0
11
3355
21
3252
31
0
70
32
71
5
72
0
3
Standard
53
0
210
0
220
0
230
1
100
AcDbAlignedDimension
13
3065
23
3169.45960257
33
0
14
3645
24
3169.45960257
34
0
100
AcDbRotatedDimension
0
DIMENSION
5
373
100
AcDbEntity
8
section_E_E_d
6
ByLayer
62
256
370
-1
100
AcDbDimension
2
*D30
10
4200
20
3200
30
0
11
3940
21
3252
31
0
70
32
71
5
72
0
3
Standard
53
0
210
0
220
0
230
1
100
AcDbAlignedDimension
13
3680
23
3165.02058352
33
0
14
4200
24
3165.02058352
34
0
100
AcDbRotatedDimension
0
DIMENSION
5
374
100
AcDbEntity
8
section_E_E_d
6
ByLayer
62
256
370
-1
100
AcDbDimension
2
*D31
10
4755
20
3200
30
0
11
4495
21
3252
31
0
70
32
71
5
72
0
3
Standard
53
0
210
0
220
0
230
1
100
AcDbAlignedDimension
13
4235
23
3165.02058352
33
0
14
4755
24
3160.58156447
34
0
100
AcDbRotatedDimension
0
DIMENSION
5
375
100
AcDbEntity
8
section_E_E_d
6
ByLayer
62
256
370
-1
100
AcDbDimension
2
*D32
10
5370
20
3200
30
0
11
5080
21
3252
31
0
70
32
71
5
72
0
3
Standard
53
0
210
0
220
0
230
1
100
AcDbAlignedDimension
13
4790
23
3165.02058352
33
0
14
5370
24
3169.45960257
34
0
100
AcDbRotatedDimension
0
DIMENSION
5
376
100
AcDbEntity
8
section_E_E_d
6
ByLayer
62
256
370
-1
100
AcDbDimension
2
*D33
10
6040
20
3200
30
0
11
5750
21
3252
31
0
70
32
71
5
72
0
3
Standard
53
0
210
0
220
0
230
1
100
AcDbAlignedDimension
13
5460
23
3151.70352637
33
0
14
6040
24
3165.02058352
34
0
100
AcDbRotatedDimension
0
DIMENSION
5
377
100
AcDbEntity
8
section_E_E_d
6
ByLayer
62
256
370
-1
100
AcDbDimension
2
*D34
10
6685
20
3200
30
0
11
6380
21
3252
31
0
70
32
71
5
72
0
3
Standard
53
0
210
0
220
0
230
1
100
AcDbAlignedDimension
13
6075
23
3173.89862163
33
0
14
6685
24
3169.45960257
34
0
100
AcDbRotatedDimension
0
DIMENSION
5
378
100
AcDbEntity
8
section_E_E_d
6
ByLayer
62
256
370
-1
100
AcDbDimension
2
*D35
10
7300
20
3200
30
0
11
7010
21
3252
31
0
70
32
71
5
72
0
3
Standard
53
0
210
0
220
0
230
1
100
AcDbAlignedDimension
13
6720
23
3173.89862163
33
0
14
7300
24
3165.02058352
34
0
100
AcDbRotatedDimension
0
DIMENSION
5
379
100
AcDbEntity
8
section_E_E_d
6
ByLayer
62
256
370
-1
100
AcDbDimension
2
*D36
10
3645
20
2000
30
0
11
3332.5
21
2052
31
0
70
32
71
5
72
0
3
Standard
53
0
210
0
220
0
230
1
100
AcDbAlignedDimension
13
3020
23
1939.85132539
33
0
14
3645
24
1944.29034444
34
0
100
AcDbRotatedDimension
0
DIMENSION
5
37A
100
AcDbEntity
8
section_E_E_d
6
ByLayer
62
256
370
-1
100
AcDbDimension
2
*D37
10
4200
20
2000
30
0
11
3922.5
21
2052
31
0
70
32
71
5
72
0
3
Standard
53
0
210
0
220
0
230
1
100
AcDbAlignedDimension
13
3645
23
1939.85132539
33
0
14
4200
24
1953.16838254
34
0
100
AcDbRotatedDimension
0
DIMENSION
5
37B
100
AcDbEntity
8
section_E_E_d
6
ByLayer
62
256
370
-1
100
AcDbDimension
2
*D38
10
4755
20
2000
30
0
11
4477.5
21
2052
31
0
70
32
71
5
72
0
3
Standard
53
0
210
0
220
0
230
1
100
AcDbAlignedDimension
13
4200
23
1953.16838254
33
0
14
4755
24
1944.29034444
34
0
100
AcDbRotatedDimension
0
DIMENSION
5
37C
100
AcDbEntity
8
section_E_E_d
6
ByLayer
62
256
370
-1
100
AcDbDimension
2
*D39
10
5415
20
2000
30
0
11
5085
21
2052
31
0
70
32
71
5
72
0
3
Standard
53
0
210
0
220
0
230
1
100
AcDbAlignedDimension
13
4755
23
1944.29034444
33
0
14
5415
24
1935.41230633
34
0
100
AcDbRotatedDimension
0
DIMENSION
5
37D
100
AcDbEntity
8
section_E_E_d
6
ByLayer
62
256
370
-1
100
AcDbDimension
2
*D40
10
6040
20
2000
30
0
11
5727.5
21
2052
31
0
70
32
71
5
72
0
3
Standard
53
0
210
0
220
0
230
1
100
AcDbAlignedDimension
13
5415
23
1930.97328728
33
0
14
6040
24
1930.97328728
34
0
100
AcDbRotatedDimension
0
DIMENSION
5
37E
100
AcDbEntity
8
section_E_E_d
6
ByLayer
62
256
370
-1
100
AcDbDimension
2
*D41
10
6685
20
2000
30
0
11
6362.5
21
2052
31
0
70
32
71
5
72
0
3
Standard
53
0
210
0
220
0
230
1
100
AcDbAlignedDimension
13
6040
23
1939.85132539
33
0
14
6685
24
1953.16838254
34
0
100
AcDbRotatedDimension
0
DIMENSION
5
37F
100
AcDbEntity
8
section_E_E_d
6
ByLayer
62
256
370
-1
100
AcDbDimension
2
*D42
10
7335
20
2000
30
0
11
7010
21
2052
31
0
70
32
71
5
72
0
3
Standard
53
0
210
0
220
0
230
1
100
AcDbAlignedDimension
13
6685
23
1939.85132539
33
0
14
7335
24
1939.85132539
34
0
100
AcDbRotatedDimension
0
DIMENSION
5
380
100
AcDbEntity
8
section_E_E_d
6
ByLayer
62
256
370
-1
100
AcDbDimension
2
*D43
10
6040
20
5200
30
0
11
5727.5
21
5252
31
0
70
32
71
5
72
0
3
Standard
53
0
210
0
220
0
230
1
100
AcDbAlignedDimension
13
5415
23
5160.35964705
33
0
14
6040
24
5160.35964705
34
0
100
AcDbRotatedDimension
0
DIMENSION
5
381
100
AcDbEntity
8
section_E_E_d
6
ByLayer
62
256
370
-1
100
AcDbDimension
2
*D44
10
6685
20
5200
30
0
11
6362.5
21
5252
31
0
70
32
71
5
72
0
3
Standard
53
0
210
0
220
0
230
1
100
AcDbAlignedDimension
13
6040
23
5160.35964705
33
0
14
6685
24
5149.26209942
34
0
100
AcDbRotatedDimension
0
DIMENSION
5
382
100
AcDbEntity
8
section_E_E_d
6
ByLayer
62
256
370
-1
100
AcDbDimension
2
*D45
10
7335
20
5200
30
0
11
7010
21
5252
31
0
70
32
71
5
72
0
3
Standard
53
0
210
0
220
0
230
1
100
AcDbAlignedDimension
13
6685
23
5143.71332561
33
0
14
7335
24
5138.16455179
34
0
100
AcDbRotatedDimension
0
DIMENSION
5
383
100
AcDbEntity
8
section_E_E_d
6
ByLayer
62
256
370
-1
100
AcDbDimension
2
*D46
10
3645
20
5200
30
0
11
3332.5
21
5252
31
0
70
32
71
5
72
0
3
Standard
53
0
210
0
220
0
230
1
100
AcDbAlignedDimension
13
3020
23
5154.81087324
33
0
14
3645
24
5154.81087324
34
0
100
AcDbRotatedDimension
0
DIMENSION
5
384
100
AcDbEntity
8
section_E_E_d
6
ByLayer
62
256
370
-1
100
AcDbDimension
2
*D47
10
4200
20
5200
30
0
11
3922.5
21
5252
31
0
70
32
71
5
72
0
3
Standard
53
0
210
0
220
0
230
1
100
AcDbAlignedDimension
13
3645
23
5160.35964705
33
0
14
4200
24
5165.90842086
34
0
100
AcDbRotatedDimension
0
DIMENSION
5
385
100
AcDbEntity
8
section_E_E_d
6
ByLayer
62
256
370
-1
100
AcDbDimension
2
*D48
10
4755
20
5200
30
0
11
4477.5
21
5252
31
0
70
32
71
5
72
0
3
Standard
53
0
210
0
220
0
230
1
100
AcDbAlignedDimension
13
4200
23
5154.81087324
33
0
14
4755
24
5138.16455179
34
0
100
AcDbRotatedDimension
0
DIMENSION
5
386
100
AcDbEntity
8
section_E_E_d
6
ByLayer
62
256
370
-1
100
AcDbDimension
2
*D49
10
5415
20
5200
30
0
11
5085
21
5252
31
0
70
32
71
5
72
0
3
Standard
53
0
210
0
220
0
230
1
100
AcDbAlignedDimension
13
4755
23
5138.16455179
33
0
14
5415
24
5132.61577798
34
0
100
AcDbRotatedDimension
0
MTEXT
5
387
100
AcDbEntity
8
section_E_E_d
6
ByLayer
62
256
370
-1
100
AcDbMText
10
4370
20
750
30
0
40
64
41
128
71
1
72
1
1
580
7
standard
210
0
220
0
230
1
50
0
73
2
44
1
0
MTEXT
5
388
100
AcDbEntity
8
section_E_E_d
6
ByLayer
62
256
370
-1
100
AcDbMText
10
4870
20
750
30
0
40
64
41
64
71
1
72
1
1
12
7
standard
210
0
220
0
230
1
50
0
73
2
44
1
0
MTEXT
5
389
100
AcDbEntity
8
section_E_E_d
6
ByLayer
62
256
370
-1
100
AcDbMText
10
2650
20
90
30
0
40
64
41
113.777777778
71
1
72
1
1
610
7
standard
210
0
220
0
230
1
50
0
73
2
44
1
0
MTEXT
5
38A
100
AcDbEntity
8
section_E_E_d
6
ByLayer
62
256
370
-1
100
AcDbMText
10
4370
20
640
30
0
40
64
41
128
71
1
72
1
1
520
7
standard
210
0
220
0
230
1
50
0
73
2
44
1
0
MTEXT
5
38B
100
AcDbEntity
8
section_E_E_d
6
ByLayer
62
256
370
-1
100
AcDbMText
10
4880
20
640
30
0
40
64
41
35.5555555556
71
1
72
1
1
4
7
standard
210
0
220
0
230
1
50
0
73
2
44
1
0
MTEXT
5
38C
100
AcDbEntity
8
section_E_E_d
6
ByLayer
62
256
370
-1
100
AcDbMText
10
4370
20
530
30
0
40
64
41
196.977777778
71
1
72
1
1
854*
7
standard
210
0
220
0
230
1
50
0
73
2
44
1
0
MTEXT
5
38D
100
AcDbEntity
8
section_E_E_d
6
ByLayer
62
256
370
-1
100
AcDbMText
10
4880
20
530
30
0
40
64
41
64
71
1
72
1
1
12
7
standard
210
0
220
0
230
1
50
0
73
2
44
1
0
MTEXT
5
38E
100
AcDbEntity
8
section_E_E_d
6
ByLayer
62
256
370
-1
100
AcDbMText
10
5250
20
639.9978
30
0
40
64
41
522.666666667
71
1
72
1
1
17 AUG 2017
7
standard
210
0
220
0
230
1
50
0
73
2
44
1
0
LINE
5
38F
100
AcDbEntity
8
section_E_E
6
ByLayer
62
256
370
-1
100
AcDbLine
10
1135
20
4248.49747468
11
1615.50252532
21
4729
0
LINE
5
390
100
AcDbEntity
8
section_E_E
6
ByLayer
62
256
370
-1
100
AcDbLine
10
1135
20
4199
11
1665
21
4729
0
LINE
5
391
100
AcDbEntity
8
section_E_E
6
ByLayer
62
256
370
-1
100
AcDbLine
10
1135
20
2929
11
1665
21
2399
0
LINE
5
392
100
AcDbEntity
8
section_E_E
6
ByLayer
62
256
370
-1
100
AcDbLine
10
1135
20
2879.50252532
11
1615.50252532
21
2399
0
LINE
5
393
100
AcDbEntity
8
section_E_E
6
ByLayer
62
256
370
-1
100
AcDbLine
10
2494.49747468
20
4729
11
2975
21
4248.49747468
0
LINE
5
394
100
AcDbEntity
8
section_E_E
6
ByLayer
62
256
370
-1
100
AcDbLine
10
2445
20
4729
11
2975
21
4199
0
LINE
5
395
100
AcDbEntity
8
section_E_E
6
ByLayer
62
256
370
-1
100
AcDbLine
10
2445
20
2399
11
2975
21
2929
0
LINE
5
396
100
AcDbEntity
8
section_E_E
6
ByLayer
62
256
370
-1
100
AcDbLine
10
2494.49747468
20
2399
11
2975
21
2879.50252532
0
LINE
5
397
100
AcDbEntity
8
section_E_E
6
ByLayer
62
256
370
-1
100
AcDbLine
10
3065
20
2929
11
3595
21
2399
0
LINE
5
398
100
AcDbEntity
8
section_E_E
6
ByLayer
62
256
370
-1
100
AcDbLine
10
3065
20
2879.50252532
11
3545.50252532
21
2399
0
LINE
5
399
100
AcDbEntity
8
section_E_E
6
ByLayer
62
256
370
-1
100
AcDbLine
10
3065
20
4248.49747468
11
3545.50252532
21
4729
0
LINE
5
39A
100
AcDbEntity
8
section_E_E
6
ByLayer
62
256
370
-1
100
AcDbLine
10
3065
20
4199
11
3595
21
4729
0
LINE
5
39B
100
AcDbEntity
8
section_E_E
6
ByLayer
62
256
370
-1
100
AcDbLine
10
4889.49747468
20
4729
11
5370
21
4248.49747468
0
LINE
5
39C
100
AcDbEntity
8
section_E_E
6
ByLayer
62
256
370
-1
100
AcDbLine
10
4840
20
4729
11
5370
21
4199
0
LINE
5
39D
100
AcDbEntity
8
section_E_E
6
ByLayer
62
256
370
-1
100
AcDbLine
10
4840
20
2399
11
5370
21
2929
0
LINE
5
39E
100
AcDbEntity
8
section_E_E
6
ByLayer
62
256
370
-1
100
AcDbLine
10
4889.49747468
20
2399
11
5370
21
2879.50252532
0
LINE
5
39F
100
AcDbEntity
8
section_E_E
6
ByLayer
62
256
370
-1
100
AcDbLine
10
5460
20
4248.49747468
11
5940.50252532
21
4729
0
LINE
5
3A0
100
AcDbEntity
8
section_E_E
6
ByLayer
62
256
370
-1
100
AcDbLine
10
5460
20
4199
11
5990
21
4729
0
LINE
5
3A1
100
AcDbEntity
8
section_E_E
6
ByLayer
62
256
370
-1
100
AcDbLine
10
5460
20
2929
11
5990
21
2399
0
LINE
5
3A2
100
AcDbEntity
8
section_E_E
6
ByLayer
62
256
370
-1
100
AcDbLine
10
5460
20
2879.50252532
11
5940.50252532
21
2399
0
LINE
5
3A3
100
AcDbEntity
8
section_E_E
6
ByLayer
62
256
370
-1
100
AcDbLine
10
6770
20
4729
11
7300
21
4199
0
LINE
5
3A4
100
AcDbEntity
8
section_E_E
6
ByLayer
62
256
370
-1
100
AcDbLine
10
6819.49747468
20
4729
11
7300
21
4248.49747468
0
LINE
5
3A5
100
AcDbEntity
8
section_E_E
6
ByLayer
62
256
370
-1
100
AcDbLine
10
6770
20
2399
11
7300
21
2929
0
LINE
5
3A6
100
AcDbEntity
8
section_E_E
6
ByLayer
62
256
370
-1
100
AcDbLine
10
6819.49747468
20
2399
11
7300
21
2879.50252532
0
LINE
5
3A7
100
AcDbEntity
8
Foundation
6
ByLayer
62
256
370
-1
100
AcDbLine
10
1100
20
2364
11
1100
21
2345
0
LINE
5
3A8
100
AcDbEntity
8
Foundation
6
ByLayer
62
256
370
-1
100
AcDbLine
10
1168
20
2183
11
1168
21
2285
0
LINE
5
3A9
100
AcDbEntity
8
Foundation
6
ByLayer
62
256
370
-1
100
AcDbLine
10
1260
20
2183
11
1168
21
2183
0
LINE
5
3AA
100
AcDbEntity
8
Foundation
6
ByLayer
62
256
370
-1
100
AcDbLine
10
1262
20
2285
11
1262
21
2183
0
LINE
5
3AB
100
AcDbEntity
8
Foundation
6
ByLayer
62
256
370
-1
100
AcDbLine
10
1260
20
2183
11
1262
21
2183
0
LINE
5
3AC
100
AcDbEntity
8
Foundation
6
ByLayer
62
256
370
-1
100
AcDbLine
10
1215
20
2183
11
1215
21
2105
0
LINE
5
3AD
100
AcDbEntity
8
Foundation
6
ByLayer
62
256
370
-1
100
AcDbLine
10
1218
20
2183
11
1218
21
2105
0
LINE
5
3AE
100
AcDbEntity
8
Foundation
6
ByLayer
62
256
370
-1
100
AcDbLine
10
1212
20
2183
11
1212
21
2105
0
LINE
5
3AF
100
AcDbEntity
8
Foundation
6
ByLayer
62
256
370
-1
100
AcDbLine
10
1112
20
2105
11
1318
21
2105
0
LINE
5
3B0
100
AcDbEntity
8
Foundation
6
ByLayer
62
256
370
-1
100
AcDbLine
10
1112
20
2105
11
1318
21
2105
0
LINE
5
3B1
100
AcDbEntity
8
Foundation
6
ByLayer
62
256
370
-1
100
AcDbLine
10
1168
20
2285
11
1262
21
2285
0
LINE
5
3B2
100
AcDbEntity
8
Foundation
6
ByLayer
62
256
370
-1
100
AcDbLine
10
1100
20
2275
11
1100
21
2185
0
LINE
5
3B3
100
AcDbEntity
8
Foundation
6
ByLayer
62
256
370
-1
100
AcDbLine
10
1100
20
2275
11
1168
21
2275
0
LINE
5
3B4
100
AcDbEntity
8
Foundation
6
ByLayer
62
256
370
-1
100
AcDbLine
10
1100
20
2185
11
1168
21
2185
0
LINE
5
3B5
100
AcDbEntity
8
Foundation
6
ByLayer
62
256
370
-1
100
AcDbLine
10
7173
20
2183
11
7173
21
2285
0
LINE
5
3B6
100
AcDbEntity
8
Foundation
6
ByLayer
62
256
370
-1
100
AcDbLine
10
7265
20
2183
11
7173
21
2183
0
LINE
5
3B7
100
AcDbEntity
8
Foundation
6
ByLayer
62
256
370
-1
100
AcDbLine
10
7267
20
2285
11
7267
21
2183
0
LINE
5
3B8
100
AcDbEntity
8
Foundation
6
ByLayer
62
256
370
-1
100
AcDbLine
10
7265
20
2183
11
7267
21
2183
0
LINE
5
3B9
100
AcDbEntity
8
Foundation
6
ByLayer
62
256
370
-1
100
AcDbLine
10
7220
20
2183
11
7220
21
2105
0
LINE
5
3BA
100
AcDbEntity
8
Foundation
6
ByLayer
62
256
370
-1
100
AcDbLine
10
7223
20
2183
11
7223
21
2105
0
LINE
5
3BB
100
AcDbEntity
8
Foundation
6
ByLayer
62
256
370
-1
100
AcDbLine
10
7217
20
2183
11
7217
21
2105
0
LINE
5
3BC
100
AcDbEntity
8
Foundation
6
ByLayer
62
256
370
-1
100
AcDbLine
10
7117
20
2105
11
7323
21
2105
0
LINE
5
3BD
100
AcDbEntity
8
Foundation
6
ByLayer
62
256
370
-1
100
AcDbLine
10
7117
20
2105
11
7323
21
2105
0
LINE
5
3BE
100
AcDbEntity
8
Foundation
6
ByLayer
62
256
370
-1
100
AcDbLine
10
7173
20
2285
11
7267
21
2285
0
LINE
5
3BF
100
AcDbEntity
8
Foundation
6
ByLayer
62
256
370
-1
100
AcDbLine
10
7267
20
2185
11
7335
21
2185
0
LINE
5
3C0
100
AcDbEntity
8
Foundation
6
ByLayer
62
256
370
-1
100
AcDbLine
10
7335
20
2275
11
7335
21
2185
0
LINE
5
3C1
100
AcDbEntity
8
Foundation
6
ByLayer
62
256
370
-1
100
AcDbLine
10
7267
20
2275
11
7335
21
2275
0
LINE
5
3C2
100
AcDbEntity
8
Foundation
6
ByLayer
62
256
370
-1
100
AcDbLine
10
1100
20
2345
11
1100
21
2275
0
LINE
5
3C3
100
AcDbEntity
8
Foundation
6
ByLayer
62
256
370
-1
100
AcDbLine
10
1145
20
2345
11
1145
21
2275
0
LINE
5
3C4
100
AcDbEntity
8
Foundation
6
ByLayer
62
256
370
-1
100
AcDbLine
10
1100
20
2345
11
1145
21
2275
0
LINE
5
3C5
100
AcDbEntity
8
Foundation
6
ByLayer
62
256
370
-1
100
AcDbLine
10
1145
20
2275
11
1145
21
2345
0
LINE
5
3C6
100
AcDbEntity
8
Foundation
6
ByLayer
62
256
370
-1
100
AcDbLine
10
1145
20
2345
11
1100
21
2275
0
LINE
5
3C7
100
AcDbEntity
8
Foundation
6
ByLayer
62
256
370
-1
100
AcDbLine
10
1425
20
2345
11
1425
21
2275
0
LINE
5
3C8
100
AcDbEntity
8
Foundation
6
ByLayer
62
256
370
-1
100
AcDbLine
10
1470
20
2345
11
1470
21
2275
0
LINE
5
3C9
100
AcDbEntity
8
Foundation
6
ByLayer
62
256
370
-1
100
AcDbLine
10
1425
20
2345
11
1470
21
2275
0
LINE
5
3CA
100
AcDbEntity
8
Foundation
6
ByLayer
62
256
370
-1
100
AcDbLine
10
1470
20
2275
11
1470
21
2345
0
LINE
5
3CB
100
AcDbEntity
8
Foundation
6
ByLayer
62
256
370
-1
100
AcDbLine
10
1470
20
2345
11
1425
21
2275
0
LINE
5
3CC
100
AcDbEntity
8
Foundation
6
ByLayer
62
256
370
-1
100
AcDbLine
10
1750
20
2345
11
1750
21
2275
0
LINE
5
3CD
100
AcDbEntity
8
Foundation
6
ByLayer
62
256
370
-1
100
AcDbLine
10
1795
20
2345
11
1795
21
2275
0
LINE
5
3CE
100
AcDbEntity
8
Foundation
6
ByLayer
62
256
370
-1
100
AcDbLine
10
1750
20
2345
11
1795
21
2275
0
LINE
5
3CF
100
AcDbEntity
8
Foundation
6
ByLayer
62
256
370
-1
100
AcDbLine
10
1795
20
2275
11
1795
21
2345
0
LINE
5
3D0
100
AcDbEntity
8
Foundation
6
ByLayer
62
256
370
-1
100
AcDbLine
10
1795
20
2345
11
1750
21
2275
0
LINE
5
3D1
100
AcDbEntity
8
Foundation
6
ByLayer
62
256
370
-1
100
AcDbLine
10
2075
20
2345
11
2075
21
2275
0
LINE
5
3D2
100
AcDbEntity
8
Foundation
6
ByLayer
62
256
370
-1
100
AcDbLine
10
2120
20
2345
11
2120
21
2275
0
LINE
5
3D3
100
AcDbEntity
8
Foundation
6
ByLayer
62
256
370
-1
100
AcDbLine
10
2075
20
2345
11
2120
21
2275
0
LINE
5
3D4
100
AcDbEntity
8
Foundation
6
ByLayer
62
256
370
-1
100
AcDbLine
10
2120
20
2275
11
2120
21
2345
0
LINE
5
3D5
100
AcDbEntity
8
Foundation
6
ByLayer
62
256
370
-1
100
AcDbLine
10
2120
20
2345
11
2075
21
2275
0
LINE
5
3D6
100
AcDbEntity
8
Foundation
6
ByLayer
62
256
370
-1
100
AcDbLine
10
2400
20
2345
11
2400
21
2275
0
LINE
5
3D7
100
AcDbEntity
8
Foundation
6
ByLayer
62
256
370
-1
100
AcDbLine
10
2445
20
2345
11
2445
21
2275
0
LINE
5
3D8
100
AcDbEntity
8
Foundation
6
ByLayer
62
256
370
-1
100
AcDbLine
10
2400
20
2345
11
2445
21
2275
0
LINE
5
3D9
100
AcDbEntity
8
Foundation
6
ByLayer
62
256
370
-1
100
AcDbLine
10
2445
20
2275
11
2445
21
2345
0
LINE
5
3DA
100
AcDbEntity
8
Foundation
6
ByLayer
62
256
370
-1
100
AcDbLine
10
2445
20
2345
11
2400
21
2275
0
LINE
5
3DB
100
AcDbEntity
8
Foundation
6
ByLayer
62
256
370
-1
100
AcDbLine
10
2725
20
2345
11
2725
21
2275
0
LINE
5
3DC
100
AcDbEntity
8
Foundation
6
ByLayer
62
256
370
-1
100
AcDbLine
10
2770
20
2345
11
2770
21
2275
0
LINE
5
3DD
100
AcDbEntity
8
Foundation
6
ByLayer
62
256
370
-1
100
AcDbLine
10
2725
20
2345
11
2770
21
2275
0
LINE
5
3DE
100
AcDbEntity
8
Foundation
6
ByLayer
62
256
370
-1
100
AcDbLine
10
2770
20
2275
11
2770
21
2345
0
LINE
5
3DF
100
AcDbEntity
8
Foundation
6
ByLayer
62
256
370
-1
100
AcDbLine
10
2770
20
2345
11
2725
21
2275
0
LINE
5
3E0
100
AcDbEntity
8
Foundation
6
ByLayer
62
256
370
-1
100
AcDbLine
10
3050
20
2345
11
3050
21
2275
0
LINE
5
3E1
100
AcDbEntity
8
Foundation
6
ByLayer
62
256
370
-1
100
AcDbLine
10
3095
20
2345
11
3095
21
2275
0
LINE
5
3E2
100
AcDbEntity
8
Foundation
6
ByLayer
62
256
370
-1
100
AcDbLine
10
3050
20
2345
11
3095
21
2275
0
LINE
5
3E3
100
AcDbEntity
8
Foundation
6
ByLayer
62
256
370
-1
100
AcDbLine
10
3095
20
2275
11
3095
21
2345
0
LINE
5
3E4
100
AcDbEntity
8
Foundation
6
ByLayer
62
256
370
-1
100
AcDbLine
10
3095
20
2345
11
3050
21
2275
0
LINE
5
3E5
100
AcDbEntity
8
Foundation
6
ByLayer
62
256
370
-1
100
AcDbLine
10
3375
20
2345
11
3375
21
2275
0
LINE
5
3E6
100
AcDbEntity
8
Foundation
6
ByLayer
62
256
370
-1
100
AcDbLine
10
3420
20
2345
11
3420
21
2275
0
LINE
5
3E7
100
AcDbEntity
8
Foundation
6
ByLayer
62
256
370
-1
100
AcDbLine
10
3375
20
2345
11
3420
21
2275
0
LINE
5
3E8
100
AcDbEntity
8
Foundation
6
ByLayer
62
256
370
-1
100
AcDbLine
10
3420
20
2275
11
3420
21
2345
0
LINE
5
3E9
100
AcDbEntity
8
Foundation
6
ByLayer
62
256
370
-1
100
AcDbLine
10
3420
20
2345
11
3375
21
2275
0
LINE
5
3EA
100
AcDbEntity
8
Foundation
6
ByLayer
62
256
370
-1
100
AcDbLine
10
3700
20
2345
11
3700
21
2275
0
LINE
5
3EB
100
AcDbEntity
8
Foundation
6
ByLayer
62
256
370
-1
100
AcDbLine
10
3745
20
2345
11
3745
21
2275
0
LINE
5
3EC
100
AcDbEntity
8
Foundation
6
ByLayer
62
256
370
-1
100
AcDbLine
10
3700
20
2345
11
3745
21
2275
0
LINE
5
3ED
100
AcDbEntity
8
Foundation
6
ByLayer
62
256
370
-1
100
AcDbLine
10
3745
20
2275
11
3745
21
2345
0
LINE
5
3EE
100
AcDbEntity
8
Foundation
6
ByLayer
62
256
370
-1
100
AcDbLine
10
3745
20
2345
11
3700
21
2275
0
LINE
5
3EF
100
AcDbEntity
8
Foundation
6
ByLayer
62
256
370
-1
100
AcDbLine
10
4025
20
2345
11
4025
21
2275
0
LINE
5
3F0
100
AcDbEntity
8
Foundation
6
ByLayer
62
256
370
-1
100
AcDbLine
10
4070
20
2345
11
4070
21
2275
0
LINE
5
3F1
100
AcDbEntity
8
Foundation
6
ByLayer
62
256
370
-1
100
AcDbLine
10
4025
20
2345
11
4070
21
2275
0
LINE
5
3F2
100
AcDbEntity
8
Foundation
6
ByLayer
62
256
370
-1
100
AcDbLine
10
4070
20
2275
11
4070
21
2345
0
LINE
5
3F3
100
AcDbEntity
8
Foundation
6
ByLayer
62
256
370
-1
100
AcDbLine
10
4070
20
2345
11
4025
21
2275
0
LINE
5
3F4
100
AcDbEntity
8
Foundation
6
ByLayer
62
256
370
-1
100
AcDbLine
10
4350
20
2345
11
4350
21
2275
0
LINE
5
3F5
100
AcDbEntity
8
Foundation
6
ByLayer
62
256
370
-1
100
AcDbLine
10
4395
20
2345
11
4395
21
2275
0
LINE
5
3F6
100
AcDbEntity
8
Foundation
6
ByLayer
62
256
370
-1
100
AcDbLine
10
4350
20
2345
11
4395
21
2275
0
LINE
5
3F7
100
AcDbEntity
8
Foundation
6
ByLayer
62
256
370
-1
100
AcDbLine
10
4395
20
2275
11
4395
21
2345
0
LINE
5
3F8
100
AcDbEntity
8
Foundation
6
ByLayer
62
256
370
-1
100
AcDbLine
10
4395
20
2345
11
4350
21
2275
0
LINE
5
3F9
100
AcDbEntity
8
Foundation
6
ByLayer
62
256
370
-1
100
AcDbLine
10
4675
20
2345
11
4675
21
2275
0
LINE
5
3FA
100
AcDbEntity
8
Foundation
6
ByLayer
62
256
370
-1
100
AcDbLine
10
4720
20
2345
11
4720
21
2275
0
LINE
5
3FB
100
AcDbEntity
8
Foundation
6
ByLayer
62
256
370
-1
100
AcDbLine
10
4675
20
2345
11
4720
21
2275
0
LINE
5
3FC
100
AcDbEntity
8
Foundation
6
ByLayer
62
256
370
-1
100
AcDbLine
10
4720
20
2275
11
4720
21
2345
0
LINE
5
3FD
100
AcDbEntity
8
Foundation
6
ByLayer
62
256
370
-1
100
AcDbLine
10
4720
20
2345
11
4675
21
2275
0
LINE
5
3FE
100
AcDbEntity
8
Foundation
6
ByLayer
62
256
370
-1
100
AcDbLine
10
5000
20
2345
11
5000
21
2275
0
LINE
5
3FF
100
AcDbEntity
8
Foundation
6
ByLayer
62
256
370
-1
100
AcDbLine
10
5045
20
2345
11
5045
21
2275
0
LINE
5
400
100
AcDbEntity
8
Foundation
6
ByLayer
62
256
370
-1
100
AcDbLine
10
5000
20
2345
11
5045
21
2275
0
LINE
5
401
100
AcDbEntity
8
Foundation
6
ByLayer
62
256
370
-1
100
AcDbLine
10
5045
20
2275
11
5045
21
2345
0
LINE
5
402
100
AcDbEntity
8
Foundation
6
ByLayer
62
256
370
-1
100
AcDbLine
10
5045
20
2345
11
5000
21
2275
0
LINE
5
403
100
AcDbEntity
8
Foundation
6
ByLayer
62
256
370
-1
100
AcDbLine
10
5325
20
2345
11
5325
21
2275
0
LINE
5
404
100
AcDbEntity
8
Foundation
6
ByLayer
62
256
370
-1
100
AcDbLine
10
5370
20
2345
11
5370
21
2275
0
LINE
5
405
100
AcDbEntity
8
Foundation
6
ByLayer
62
256
370
-1
100
AcDbLine
10
5325
20
2345
11
5370
21
2275
0
LINE
5
406
100
AcDbEntity
8
Foundation
6
ByLayer
62
256
370
-1
100
AcDbLine
10
5370
20
2275
11
5370
21
2345
0
LINE
5
407
100
AcDbEntity
8
Foundation
6
ByLayer
62
256
370
-1
100
AcDbLine
10
5370
20
2345
11
5325
21
2275
0
LINE
5
408
100
AcDbEntity
8
Foundation
6
ByLayer
62
256
370
-1
100
AcDbLine
10
5650
20
2345
11
5650
21
2275
0
LINE
5
409
100
AcDbEntity
8
Foundation
6
ByLayer
62
256
370
-1
100
AcDbLine
10
5695
20
2345
11
5695
21
2275
0
LINE
5
40A
100
AcDbEntity
8
Foundation
6
ByLayer
62
256
370
-1
100
AcDbLine
10
5650
20
2345
11
5695
21
2275
0
LINE
5
40B
100
AcDbEntity
8
Foundation
6
ByLayer
62
256
370
-1
100
AcDbLine
10
5695
20
2275
11
5695
21
2345
0
LINE
5
40C
100
AcDbEntity
8
Foundation
6
ByLayer
62
256
370
-1
100
AcDbLine
10
5695
20
2345
11
5650
21
2275
0
LINE
5
40D
100
AcDbEntity
8
Foundation
6
ByLayer
62
256
370
-1
100
AcDbLine
10
5975
20
2345
11
5975
21
2275
0
LINE
5
40E
100
AcDbEntity
8
Foundation
6
ByLayer
62
256
370
-1
100
AcDbLine
10
6020
20
2345
11
6020
21
2275
0
LINE
5
40F
100
AcDbEntity
8
Foundation
6
ByLayer
62
256
370
-1
100
AcDbLine
10
5975
20
2345
11
6020
21
2275
0
LINE
5
410
100
AcDbEntity
8
Foundation
6
ByLayer
62
256
370
-1
100
AcDbLine
10
6020
20
2275
11
6020
21
2345
0
LINE
5
411
100
AcDbEntity
8
Foundation
6
ByLayer
62
256
370
-1
100
AcDbLine
10
6020
20
2345
11
5975
21
2275
0
LINE
5
412
100
AcDbEntity
8
Foundation
6
ByLayer
62
256
370
-1
100
AcDbLine
10
6300
20
2345
11
6300
21
2275
0
LINE
5
413
100
AcDbEntity
8
Foundation
6
ByLayer
62
256
370
-1
100
AcDbLine
10
6345
20
2345
11
6345
21
2275
0
LINE
5
414
100
AcDbEntity
8
Foundation
6
ByLayer
62
256
370
-1
100
AcDbLine
10
6300
20
2345
11
6345
21
2275
0
LINE
5
415
100
AcDbEntity
8
Foundation
6
ByLayer
62
256
370
-1
100
AcDbLine
10
6345
20
2275
11
6345
21
2345
0
LINE
5
416
100
AcDbEntity
8
Foundation
6
ByLayer
62
256
370
-1
100
AcDbLine
10
6345
20
2345
11
6300
21
2275
0
LINE
5
417
100
AcDbEntity
8
Foundation
6
ByLayer
62
256
370
-1
100
AcDbLine
10
6625
20
2345
11
6625
21
2275
0
LINE
5
418
100
AcDbEntity
8
Foundation
6
ByLayer
62
256
370
-1
100
AcDbLine
10
6670
20
2345
11
6670
21
2275
0
LINE
5
419
100
AcDbEntity
8
Foundation
6
ByLayer
62
256
370
-1
100
AcDbLine
10
6625
20
2345
11
6670
21
2275
0
LINE
5
41A
100
AcDbEntity
8
Foundation
6
ByLayer
62
256
370
-1
100
AcDbLine
10
6670
20
2275
11
6670
21
2345
0
LINE
5
41B
100
AcDbEntity
8
Foundation
6
ByLayer
62
256
370
-1
100
AcDbLine
10
6670
20
2345
11
6625
21
2275
0
LINE
5
41C
100
AcDbEntity
8
Foundation
6
ByLayer
62
256
370
-1
100
AcDbLine
10
6950
20
2345
11
6950
21
2275
0
LINE
5
41D
100
AcDbEntity
8
Foundation
6
ByLayer
62
256
370
-1
100
AcDbLine
10
6995
20
2345
11
6995
21
2275
0
LINE
5
41E
100
AcDbEntity
8
Foundation
6
ByLayer
62
256
370
-1
100
AcDbLine
10
6950
20
2345
11
6995
21
2275
0
LINE
5
41F
100
AcDbEntity
8
Foundation
6
ByLayer
62
256
370
-1
100
AcDbLine
10
6995
20
2275
11
6995
21
2345
0
LINE
5
420
100
AcDbEntity
8
Foundation
6
ByLayer
62
256
370
-1
100
AcDbLine
10
6995
20
2345
11
6950
21
2275
0
LINE
5
421
100
AcDbEntity
8
Foundation
6
ByLayer
62
256
370
-1
100
AcDbLine
10
7290
20
2345
11
7290
21
2275
0
LINE
5
422
100
AcDbEntity
8
Foundation
6
ByLayer
62
256
370
-1
100
AcDbLine
10
7335
20
2345
11
7335
21
2275
0
LINE
5
423
100
AcDbEntity
8
Foundation
6
ByLayer
62
256
370
-1
100
AcDbLine
10
7290
20
2345
11
7335
21
2275
0
LINE
5
424
100
AcDbEntity
8
Foundation
6
ByLayer
62
256
370
-1
100
AcDbLine
10
7335
20
2275
11
7335
21
2345
0
LINE
5
425
100
AcDbEntity
8
Foundation
6
ByLayer
62
256
370
-1
100
AcDbLine
10
7335
20
2345
11
7290
21
2275
0
LINE
5
426
100
AcDbEntity
8
Foundation
6
ByLayer
62
256
370
-1
100
AcDbLine
10
3143
20
2183
11
3143
21
2285
0
LINE
5
427
100
AcDbEntity
8
Foundation
6
ByLayer
62
256
370
-1
100
AcDbLine
10
3235
20
2183
11
3143
21
2183
0
LINE
5
428
100
AcDbEntity
8
Foundation
6
ByLayer
62
256
370
-1
100
AcDbLine
10
3237
20
2285
11
3237
21
2183
0
LINE
5
429
100
AcDbEntity
8
Foundation
6
ByLayer
62
256
370
-1
100
AcDbLine
10
3235
20
2183
11
3237
21
2183
0
LINE
5
42A
100
AcDbEntity
8
Foundation
6
ByLayer
62
256
370
-1
100
AcDbLine
10
3190
20
2183
11
3190
21
2105
0
LINE
5
42B
100
AcDbEntity
8
Foundation
6
ByLayer
62
256
370
-1
100
AcDbLine
10
3193
20
2183
11
3193
21
2105
0
LINE
5
42C
100
AcDbEntity
8
Foundation
6
ByLayer
62
256
370
-1
100
AcDbLine
10
3187
20
2183
11
3187
21
2105
0
LINE
5
42D
100
AcDbEntity
8
Foundation
6
ByLayer
62
256
370
-1
100
AcDbLine
10
3087
20
2105
11
3293
21
2105
0
LINE
5
42E
100
AcDbEntity
8
Foundation
6
ByLayer
62
256
370
-1
100
AcDbLine
10
3087
20
2105
11
3293
21
2105
0
LINE
5
42F
100
AcDbEntity
8
Foundation
6
ByLayer
62
256
370
-1
100
AcDbLine
10
3143
20
2285
11
3237
21
2285
0
LINE
5
430
100
AcDbEntity
8
Foundation
6
ByLayer
62
256
370
-1
100
AcDbLine
10
1262
20
2275
11
3143
21
2275
0
LINE
5
431
100
AcDbEntity
8
Foundation
6
ByLayer
62
256
370
-1
100
AcDbLine
10
1262
20
2185
11
3143
21
2185
0
LINE
5
432
100
AcDbEntity
8
Foundation
6
ByLayer
62
256
370
-1
100
AcDbLine
10
5198
20
2183
11
5198
21
2285
0
LINE
5
433
100
AcDbEntity
8
Foundation
6
ByLayer
62
256
370
-1
100
AcDbLine
10
5290
20
2183
11
5198
21
2183
0
LINE
5
434
100
AcDbEntity
8
Foundation
6
ByLayer
62
256
370
-1
100
AcDbLine
10
5292
20
2285
11
5292
21
2183
0
LINE
5
435
100
AcDbEntity
8
Foundation
6
ByLayer
62
256
370
-1
100
AcDbLine
10
5290
20
2183
11
5292
21
2183
0
LINE
5
436
100
AcDbEntity
8
Foundation
6
ByLayer
62
256
370
-1
100
AcDbLine
10
5245
20
2183
11
5245
21
2105
0
LINE
5
437
100
AcDbEntity
8
Foundation
6
ByLayer
62
256
370
-1
100
AcDbLine
10
5248
20
2183
11
5248
21
2105
0
LINE
5
438
100
AcDbEntity
8
Foundation
6
ByLayer
62
256
370
-1
100
AcDbLine
10
5242
20
2183
11
5242
21
2105
0
LINE
5
439
100
AcDbEntity
8
Foundation
6
ByLayer
62
256
370
-1
100
AcDbLine
10
5142
20
2105
11
5348
21
2105
0
LINE
5
43A
100
AcDbEntity
8
Foundation
6
ByLayer
62
256
370
-1
100
AcDbLine
10
5142
20
2105
11
5348
21
2105
0
LINE
5
43B
100
AcDbEntity
8
Foundation
6
ByLayer
62
256
370
-1
100
AcDbLine
10
5198
20
2285
11
5292
21
2285
0
LINE
5
43C
100
AcDbEntity
8
Foundation
6
ByLayer
62
256
370
-1
100
AcDbLine
10
5292
20
2275
11
7173
21
2275
0
LINE
5
43D
100
AcDbEntity
8
Foundation
6
ByLayer
62
256
370
-1
100
AcDbLine
10
5292
20
2185
11
7173
21
2185
0
LINE
5
43E
100
AcDbEntity
8
Foundation
6
ByLayer
62
256
370
-1
100
AcDbLine
10
3237
20
2275
11
5198
21
2275
0
LINE
5
43F
100
AcDbEntity
8
Foundation
6
ByLayer
62
256
370
-1
100
AcDbLine
10
3237
20
2185
11
5198
21
2185
0
MTEXT
5
440
100
AcDbEntity
8
section_E_E_d
6
ByLayer
62
256
370
-1
100
AcDbMText
10
3220
20
4980
30
0
40
64
41
510.222208654
71
1
72
1
1
90x45 STRU
7
standard
210
0
220
0
230
1
50
0
73
2
44
1
0
MTEXT
5
441
100
AcDbEntity
8
section_E_E_d
6
ByLayer
62
256
370
-1
100
AcDbMText
10
5615
20
4980
30
0
40
64
41
510.222208654
71
1
72
1
1
90x45 STRU
7
standard
210
0
220
0
230
1
50
0
73
2
44
1
0
ENDSEC
0
SECTION
2
OBJECTS
0
DICTIONARY
5
C
330
0
100
AcDbDictionary
281
1
3
ACAD_GROUP
350
D
0
DICTIONARY
5
D
330
C
100
AcDbDictionary
281
1
0
ENDSEC
0
EOF
