<?xml version="1.0" encoding="UTF-8" standalone="no"?>
<svg width="452.967mm" height="508mm"
 viewBox="0 0 1284 1440"
 xmlns="http://www.w3.org/2000/svg" xmlns:xlink="http://www.w3.org/1999/xlink"  version="1.2" baseProfile="tiny">
<title>Qt Svg Document</title>
<desc>Generated with Qt</desc>
<defs>
</defs>
<g fill="none" stroke="black" stroke-width="1" fill-rule="evenodd" stroke-linecap="square" stroke-linejoin="bevel" >

<g fill="#ffffff" fill-opacity="1" stroke="none" transform="matrix(1,0,0,1,0,0)"
font-family="Sans Serif" font-size="9" font-weight="400" font-style="normal" 
>
<path vector-effect="non-scaling-stroke" fill-rule="evenodd" d="M0,0 L1284,0 L1284,1440 L0,1440 L0,0"/>
</g>

<g fill="none" stroke="#000000" stroke-opacity="1" stroke-width="1" stroke-linecap="round" stroke-linejoin="round" transform="matrix(1,0,0,1,0,0)"
font-family="Sans Serif" font-size="9" font-weight="400" font-style="normal" 
>
<polyline fill="none" vector-effect="non-scaling-stroke" points="51,1383 1235,1383 " />
<polyline fill="none" vector-effect="non-scaling-stroke" points="633,75 633,1364 " />
<polyline fill="none" vector-effect="non-scaling-stroke" points="652,75 652,1364 " />
<polyline fill="none" vector-effect="non-scaling-stroke" points="1215,75 1215,1364 " />
<polyline fill="none" vector-effect="non-scaling-stroke" points="70,75 70,1364 " />
<polyline fill="none" vector-effect="non-scaling-stroke" points="51,55 51,1383 " />
<polyline fill="none" vector-effect="non-scaling-stroke" points="1235,55 1235,1383 " />
<polyline fill="none" vector-effect="non-scaling-stroke" points="973,75 973,1364 " />
<polyline fill="none" vector-effect="non-scaling-stroke" points="992,75 992,1364 " />
<polyline fill="none" vector-effect="non-scaling-stroke" points="992,968 1215,968 " />
<polyline fill="none" vector-effect="non-scaling-stroke" points="992,988 1215,988 " />
<polyline fill="none" vector-effect="non-scaling-stroke" points="992,451 1215,451 " />
<polyline fill="none" vector-effect="non-scaling-stroke" points="992,470 1215,470 " />
<polyline fill="none" vector-effect="non-scaling-stroke" points="652,451 973,451 " />
<polyline fill="none" vector-effect="non-scaling-stroke" points="652,470 973,470 " />
<polyline fill="none" vector-effect="non-scaling-stroke" points="652,968 973,968 " />
<polyline fill="none" vector-effect="non-scaling-stroke" points="652,988 973,988 " />
<polyline fill="none" vector-effect="non-scaling-stroke" points="292,75 292,1364 " />
<polyline fill="none" vector-effect="non-scaling-stroke" points="312,75 312,1364 " />
<polyline fill="none" vector-effect="non-scaling-stroke" points="70,968 292,968 " />
<polyline fill="none" vector-effect="non-scaling-stroke" points="70,988 292,988 " />
<polyline fill="none" vector-effect="non-scaling-stroke" points="70,451 292,451 " />
<polyline fill="none" vector-effect="non-scaling-stroke" points="70,470 292,470 " />
<polyline fill="none" vector-effect="non-scaling-stroke" points="312,451 633,451 " />
<polyline fill="none" vector-effect="non-scaling-stroke" points="312,470 633,470 " />
<polyline fill="none" vector-effect="non-scaling-stroke" points="312,968 633,968 " />
<polyline fill="none" vector-effect="non-scaling-stroke" points="312,988 633,988 " />
<polyline fill="none" vector-effect="non-scaling-stroke" points="1047,75 1215,243 " />
<polyline fill="none" vector-effect="non-scaling-stroke" points="1020,75 1215,270 " />
<polyline fill="none" vector-effect="non-scaling-stroke" points="1020,1364 1215,1169 " />
<polyline fill="none" vector-effect="non-scaling-stroke" points="1047,1364 1215,1196 " />
<polyline fill="none" vector-effect="non-scaling-stroke" points="237,75 70,242 " />
<polyline fill="none" vector-effect="non-scaling-stroke" points="265,75 70,270 " />
<polyline fill="none" vector-effect="non-scaling-stroke" points="265,1364 70,1169 " />
<polyline fill="none" vector-effect="non-scaling-stroke" points="237,1364 70,1197 " />
<polyline fill="none" vector-effect="non-scaling-stroke" points="51,55 1235,55 " />
<polyline fill="none" vector-effect="non-scaling-stroke" points="51,75 1235,75 " />
<polyline fill="none" vector-effect="non-scaling-stroke" points="51,1364 1235,1364 " />
</g>
</g>
</svg>
