<?xml version="1.0" encoding="UTF-8" standalone="no"?>
<svg width="506.942mm" height="508mm"
 viewBox="0 0 1437 1440"
 xmlns="http://www.w3.org/2000/svg" xmlns:xlink="http://www.w3.org/1999/xlink"  version="1.2" baseProfile="tiny">
<title>Qt Svg Document</title>
<desc>Generated with Qt</desc>
<defs>
</defs>
<g fill="none" stroke="black" stroke-width="1" fill-rule="evenodd" stroke-linecap="square" stroke-linejoin="bevel" >

<g fill="#ffffff" fill-opacity="1" stroke="none" transform="matrix(1,0,0,1,0,0)"
font-family="Sans Serif" font-size="9" font-weight="400" font-style="normal" 
>
<path vector-effect="non-scaling-stroke" fill-rule="evenodd" d="M0,0 L1437,0 L1437,1440 L0,1440 L0,0"/>
</g>

<g fill="none" stroke="#000000" stroke-opacity="1" stroke-width="1" stroke-linecap="round" stroke-linejoin="round" transform="matrix(1,0,0,1,0,0)"
font-family="Sans Serif" font-size="9" font-weight="400" font-style="normal" 
>
<polyline fill="none" vector-effect="non-scaling-stroke" points="51,1370 458,1370 " />
<polyline fill="none" vector-effect="non-scaling-stroke" points="980,1370 1388,1370 " />
<polyline fill="none" vector-effect="non-scaling-stroke" points="76,181 76,378 " />
<polyline fill="none" vector-effect="non-scaling-stroke" points="1363,181 1363,378 " />
<polyline fill="none" vector-effect="non-scaling-stroke" points="51,100 76,100 " />
<polyline fill="none" vector-effect="non-scaling-stroke" points="76,100 76,50 " />
<polyline fill="none" vector-effect="non-scaling-stroke" points="1363,100 1363,50 " />
<polyline fill="none" vector-effect="non-scaling-stroke" points="1363,100 1388,100 " />
<polyline fill="none" vector-effect="non-scaling-stroke" points="76,69 1363,69 " />
<polyline fill="none" vector-effect="non-scaling-stroke" points="1363,100 1363,1370 " />
<polyline fill="none" vector-effect="non-scaling-stroke" points="76,100 76,1370 " />
<polyline fill="none" vector-effect="non-scaling-stroke" points="51,100 51,1389 " />
<polyline fill="none" vector-effect="non-scaling-stroke" points="96,301 76,301 " />
<polyline fill="none" vector-effect="non-scaling-stroke" points="96,69 96,301 " />
<polyline fill="none" vector-effect="non-scaling-stroke" points="1343,301 1363,301 " />
<polyline fill="none" vector-effect="non-scaling-stroke" points="1343,69 1343,301 " />
<polyline fill="none" vector-effect="non-scaling-stroke" points="439,69 439,1370 " />
<polyline fill="none" vector-effect="non-scaling-stroke" points="1000,69 1000,1370 " />
<polyline fill="none" vector-effect="non-scaling-stroke" points="1019,69 1019,1370 " />
<polyline fill="none" vector-effect="non-scaling-stroke" points="76,454 419,454 " />
<polyline fill="none" vector-effect="non-scaling-stroke" points="76,474 419,474 " />
<polyline fill="none" vector-effect="non-scaling-stroke" points="76,968 419,968 " />
<polyline fill="none" vector-effect="non-scaling-stroke" points="76,987 419,987 " />
<polyline fill="none" vector-effect="non-scaling-stroke" points="1019,454 1363,454 " />
<polyline fill="none" vector-effect="non-scaling-stroke" points="1019,474 1363,474 " />
<polyline fill="none" vector-effect="non-scaling-stroke" points="1019,968 1363,968 " />
<polyline fill="none" vector-effect="non-scaling-stroke" points="1019,987 1363,987 " />
<polyline fill="none" vector-effect="non-scaling-stroke" points="439,259 1000,259 " />
<polyline fill="none" vector-effect="non-scaling-stroke" points="439,278 1000,278 " />
<polyline fill="none" vector-effect="non-scaling-stroke" points="439,298 1000,298 " />
<polyline fill="none" vector-effect="non-scaling-stroke" points="551,69 551,259 " />
<polyline fill="none" vector-effect="non-scaling-stroke" points="570,69 570,259 " />
<polyline fill="none" vector-effect="non-scaling-stroke" points="710,69 710,259 " />
<polyline fill="none" vector-effect="non-scaling-stroke" points="729,69 729,259 " />
<polyline fill="none" vector-effect="non-scaling-stroke" points="869,69 869,259 " />
<polyline fill="none" vector-effect="non-scaling-stroke" points="888,69 888,259 " />
<polyline fill="none" vector-effect="non-scaling-stroke" points="980,298 980,1389 " />
<polyline fill="none" vector-effect="non-scaling-stroke" points="458,298 458,1389 " />
<polyline fill="none" vector-effect="non-scaling-stroke" points="76,337 344,69 " />
<polyline fill="none" vector-effect="non-scaling-stroke" points="76,365 372,69 " />
<polyline fill="none" vector-effect="non-scaling-stroke" points="76,1074 372,1370 " />
<polyline fill="none" vector-effect="non-scaling-stroke" points="76,1102 344,1370 " />
<polyline fill="none" vector-effect="non-scaling-stroke" points="1095,69 1363,337 " />
<polyline fill="none" vector-effect="non-scaling-stroke" points="1067,69 1363,365 " />
<polyline fill="none" vector-effect="non-scaling-stroke" points="1067,1370 1363,1074 " />
<polyline fill="none" vector-effect="non-scaling-stroke" points="1095,1370 1363,1102 " />
<polyline fill="none" vector-effect="non-scaling-stroke" points="419,987 419,1370 " />
<polyline fill="none" vector-effect="non-scaling-stroke" points="1388,100 1388,1389 " />
<polyline fill="none" vector-effect="non-scaling-stroke" points="419,69 419,1370 " />
<polyline fill="none" vector-effect="non-scaling-stroke" points="51,1389 458,1389 " />
<polyline fill="none" vector-effect="non-scaling-stroke" points="76,50 1363,50 " />
<polyline fill="none" vector-effect="non-scaling-stroke" points="980,1389 1388,1389 " />
</g>
</g>
</svg>
