<?xml version="1.0" encoding="UTF-8" standalone="no"?>
<svg width="479.425mm" height="508mm"
 viewBox="0 0 1359 1440"
 xmlns="http://www.w3.org/2000/svg" xmlns:xlink="http://www.w3.org/1999/xlink"  version="1.2" baseProfile="tiny">
<title>Qt Svg Document</title>
<desc>Generated with Qt</desc>
<defs>
</defs>
<g fill="none" stroke="black" stroke-width="1" fill-rule="evenodd" stroke-linecap="square" stroke-linejoin="bevel" >

<g fill="#ffffff" fill-opacity="1" stroke="none" transform="matrix(1,0,0,1,0,0)"
font-family="Sans Serif" font-size="9" font-weight="400" font-style="normal" 
>
<path vector-effect="non-scaling-stroke" fill-rule="evenodd" d="M0,0 L1359,0 L1359,1440 L0,1440 L0,0"/>
</g>

<g fill="none" stroke="#000000" stroke-opacity="1" stroke-width="1" stroke-linecap="round" stroke-linejoin="round" transform="matrix(1,0,0,1,0,0)"
font-family="Sans Serif" font-size="9" font-weight="400" font-style="normal" 
>
<polyline fill="none" vector-effect="non-scaling-stroke" points="242,1368 242,1387 " />
<polyline fill="none" vector-effect="non-scaling-stroke" points="242,1368 1310,1368 " />
<polyline fill="none" vector-effect="non-scaling-stroke" points="1310,103 1285,103 " />
<polyline fill="none" vector-effect="non-scaling-stroke" points="1285,103 1285,53 " />
<polyline fill="none" vector-effect="non-scaling-stroke" points="1265,72 1265,269 " />
<polyline fill="none" vector-effect="non-scaling-stroke" points="1265,269 1285,269 " />
<polyline fill="none" vector-effect="non-scaling-stroke" points="262,72 262,1368 " />
<polyline fill="none" vector-effect="non-scaling-stroke" points="1285,103 1285,1368 " />
<polyline fill="none" vector-effect="non-scaling-stroke" points="1310,103 1310,1387 " />
<polyline fill="none" vector-effect="non-scaling-stroke" points="242,72 242,1368 " />
<polyline fill="none" vector-effect="non-scaling-stroke" points="51,72 1285,72 " />
<polyline fill="none" vector-effect="non-scaling-stroke" points="51,72 51,53 " />
<polyline fill="none" vector-effect="non-scaling-stroke" points="584,72 584,1368 " />
<polyline fill="none" vector-effect="non-scaling-stroke" points="604,72 604,1368 " />
<polyline fill="none" vector-effect="non-scaling-stroke" points="943,72 943,1368 " />
<polyline fill="none" vector-effect="non-scaling-stroke" points="962,72 962,1368 " />
<polyline fill="none" vector-effect="non-scaling-stroke" points="262,456 584,456 " />
<polyline fill="none" vector-effect="non-scaling-stroke" points="262,475 584,475 " />
<polyline fill="none" vector-effect="non-scaling-stroke" points="262,967 584,967 " />
<polyline fill="none" vector-effect="non-scaling-stroke" points="262,987 584,987 " />
<polyline fill="none" vector-effect="non-scaling-stroke" points="604,456 943,456 " />
<polyline fill="none" vector-effect="non-scaling-stroke" points="604,475 943,475 " />
<polyline fill="none" vector-effect="non-scaling-stroke" points="604,967 943,967 " />
<polyline fill="none" vector-effect="non-scaling-stroke" points="604,987 943,987 " />
<polyline fill="none" vector-effect="non-scaling-stroke" points="962,456 1285,456 " />
<polyline fill="none" vector-effect="non-scaling-stroke" points="962,475 1285,475 " />
<polyline fill="none" vector-effect="non-scaling-stroke" points="962,967 1285,967 " />
<polyline fill="none" vector-effect="non-scaling-stroke" points="962,987 1285,987 " />
<polyline fill="none" vector-effect="non-scaling-stroke" points="262,339 529,72 " />
<polyline fill="none" vector-effect="non-scaling-stroke" points="262,367 556,72 " />
<polyline fill="none" vector-effect="non-scaling-stroke" points="262,1073 556,1368 " />
<polyline fill="none" vector-effect="non-scaling-stroke" points="262,1100 529,1368 " />
<polyline fill="none" vector-effect="non-scaling-stroke" points="1018,72 1285,339 " />
<polyline fill="none" vector-effect="non-scaling-stroke" points="990,72 1285,367 " />
<polyline fill="none" vector-effect="non-scaling-stroke" points="990,1368 1285,1073 " />
<polyline fill="none" vector-effect="non-scaling-stroke" points="1018,1368 1285,1100 " />
<polyline fill="none" vector-effect="non-scaling-stroke" points="51,53 1285,53 " />
<polyline fill="none" vector-effect="non-scaling-stroke" points="242,1387 1310,1387 " />
</g>
</g>
</svg>
