<?xml version="1.0" encoding="UTF-8" standalone="no"?>
<svg width="406.4mm" height="508mm"
 viewBox="0 0 1152 1440"
 xmlns="http://www.w3.org/2000/svg" xmlns:xlink="http://www.w3.org/1999/xlink"  version="1.2" baseProfile="tiny">
<title>Qt Svg Document</title>
<desc>Generated with Qt</desc>
<defs>
</defs>
<g fill="none" stroke="black" stroke-width="1" fill-rule="evenodd" stroke-linecap="square" stroke-linejoin="bevel" >

<g fill="#ffffff" fill-opacity="1" stroke="none" transform="matrix(1,0,0,1,0,0)"
font-family="Sans Serif" font-size="9" font-weight="400" font-style="normal" 
>
<path vector-effect="non-scaling-stroke" fill-rule="evenodd" d="M0,0 L1152,0 L1152,1440 L0,1440 L0,0"/>
</g>

<g fill="none" stroke="#000000" stroke-opacity="1" stroke-width="1" stroke-linecap="round" stroke-linejoin="round" transform="matrix(1,0,0,1,0,0)"
font-family="Sans Serif" font-size="9" font-weight="400" font-style="normal" 
>
<polyline fill="none" vector-effect="non-scaling-stroke" points="51,1358 1103,1358 " />
<polyline fill="none" vector-effect="non-scaling-stroke" points="51,111 76,111 " />
<polyline fill="none" vector-effect="non-scaling-stroke" points="76,111 76,62 " />
<polyline fill="none" vector-effect="non-scaling-stroke" points="1084,81 1084,1358 " />
<polyline fill="none" vector-effect="non-scaling-stroke" points="621,396 621,927 " />
<polyline fill="none" vector-effect="non-scaling-stroke" points="76,111 76,1358 " />
<polyline fill="none" vector-effect="non-scaling-stroke" points="76,947 640,947 " />
<polyline fill="none" vector-effect="non-scaling-stroke" points="76,966 640,966 " />
<polyline fill="none" vector-effect="non-scaling-stroke" points="76,927 640,927 " />
<polyline fill="none" vector-effect="non-scaling-stroke" points="76,377 640,377 " />
<polyline fill="none" vector-effect="non-scaling-stroke" points="76,396 640,396 " />
<polyline fill="none" vector-effect="non-scaling-stroke" points="76,358 640,358 " />
<polyline fill="none" vector-effect="non-scaling-stroke" points="640,81 640,1358 " />
<polyline fill="none" vector-effect="non-scaling-stroke" points="256,81 256,358 " />
<polyline fill="none" vector-effect="non-scaling-stroke" points="237,81 237,358 " />
<polyline fill="none" vector-effect="non-scaling-stroke" points="95,81 95,358 " />
<polyline fill="none" vector-effect="non-scaling-stroke" points="659,81 659,1358 " />
<polyline fill="none" vector-effect="non-scaling-stroke" points="659,963 1084,963 " />
<polyline fill="none" vector-effect="non-scaling-stroke" points="659,982 1084,982 " />
<polyline fill="none" vector-effect="non-scaling-stroke" points="659,459 1084,459 " />
<polyline fill="none" vector-effect="non-scaling-stroke" points="659,478 1084,478 " />
<polyline fill="none" vector-effect="non-scaling-stroke" points="1103,62 1103,1377 " />
<polyline fill="none" vector-effect="non-scaling-stroke" points="76,81 1103,81 " />
<polyline fill="none" vector-effect="non-scaling-stroke" points="348,966 348,1358 " />
<polyline fill="none" vector-effect="non-scaling-stroke" points="367,966 367,1358 " />
<polyline fill="none" vector-effect="non-scaling-stroke" points="166,966 166,1358 " />
<polyline fill="none" vector-effect="non-scaling-stroke" points="185,966 185,1358 " />
<polyline fill="none" vector-effect="non-scaling-stroke" points="530,966 530,1358 " />
<polyline fill="none" vector-effect="non-scaling-stroke" points="550,966 550,1358 " />
<polyline fill="none" vector-effect="non-scaling-stroke" points="478,81 478,358 " />
<polyline fill="none" vector-effect="non-scaling-stroke" points="459,81 459,358 " />
<polyline fill="none" vector-effect="non-scaling-stroke" points="782,1358 1084,1056 " />
<polyline fill="none" vector-effect="non-scaling-stroke" points="755,1358 1084,1029 " />
<polyline fill="none" vector-effect="non-scaling-stroke" points="755,81 1084,410 " />
<polyline fill="none" vector-effect="non-scaling-stroke" points="51,111 51,1377 " />
<polyline fill="none" vector-effect="non-scaling-stroke" points="95,396 95,927 " />
<polyline fill="none" vector-effect="non-scaling-stroke" points="821,81 1084,344 " />
<polyline fill="none" vector-effect="non-scaling-stroke" points="51,1377 1103,1377 " />
<polyline fill="none" vector-effect="non-scaling-stroke" points="76,62 1103,62 " />
</g>
</g>
</svg>
